%TF.GenerationSoftware,KiCad,Pcbnew,8.0.0-8.0.0-1~ubuntu20.04.1*%
%TF.CreationDate,2024-06-18T17:56:47-06:00*%
%TF.ProjectId,smart_sleeve,736d6172-745f-4736-9c65-6576652e6b69,rev?*%
%TF.SameCoordinates,Original*%
%TF.FileFunction,Legend,Top*%
%TF.FilePolarity,Positive*%
%FSLAX46Y46*%
G04 Gerber Fmt 4.6, Leading zero omitted, Abs format (unit mm)*
G04 Created by KiCad (PCBNEW 8.0.0-8.0.0-1~ubuntu20.04.1) date 2024-06-18 17:56:47*
%MOMM*%
%LPD*%
G01*
G04 APERTURE LIST*
%ADD10C,0.050000*%
%ADD11C,0.200000*%
%ADD12C,0.150000*%
%ADD13C,0.120000*%
G04 APERTURE END LIST*
D10*
X199580127Y-101500000D02*
G75*
G02*
X171419873Y-101500000I-14080127J0D01*
G01*
X171419873Y-101500000D02*
G75*
G02*
X199580127Y-101500000I14080127J0D01*
G01*
X198089678Y-101500000D02*
G75*
G02*
X172910322Y-101500000I-12589678J0D01*
G01*
X172910322Y-101500000D02*
G75*
G02*
X198089678Y-101500000I12589678J0D01*
G01*
X160500000Y-76500000D02*
X160500000Y-126500000D01*
D11*
X152239673Y-102707219D02*
X152239673Y-101707219D01*
X152239673Y-102183409D02*
X152811101Y-102183409D01*
X152811101Y-102707219D02*
X152811101Y-101707219D01*
X153811101Y-102707219D02*
X153239673Y-102707219D01*
X153525387Y-102707219D02*
X153525387Y-101707219D01*
X153525387Y-101707219D02*
X153430149Y-101850076D01*
X153430149Y-101850076D02*
X153334911Y-101945314D01*
X153334911Y-101945314D02*
X153239673Y-101992933D01*
X152079673Y-100297219D02*
X152079673Y-99297219D01*
X152079673Y-99773409D02*
X152651101Y-99773409D01*
X152651101Y-100297219D02*
X152651101Y-99297219D01*
X153317768Y-99297219D02*
X153413006Y-99297219D01*
X153413006Y-99297219D02*
X153508244Y-99344838D01*
X153508244Y-99344838D02*
X153555863Y-99392457D01*
X153555863Y-99392457D02*
X153603482Y-99487695D01*
X153603482Y-99487695D02*
X153651101Y-99678171D01*
X153651101Y-99678171D02*
X153651101Y-99916266D01*
X153651101Y-99916266D02*
X153603482Y-100106742D01*
X153603482Y-100106742D02*
X153555863Y-100201980D01*
X153555863Y-100201980D02*
X153508244Y-100249600D01*
X153508244Y-100249600D02*
X153413006Y-100297219D01*
X153413006Y-100297219D02*
X153317768Y-100297219D01*
X153317768Y-100297219D02*
X153222530Y-100249600D01*
X153222530Y-100249600D02*
X153174911Y-100201980D01*
X153174911Y-100201980D02*
X153127292Y-100106742D01*
X153127292Y-100106742D02*
X153079673Y-99916266D01*
X153079673Y-99916266D02*
X153079673Y-99678171D01*
X153079673Y-99678171D02*
X153127292Y-99487695D01*
X153127292Y-99487695D02*
X153174911Y-99392457D01*
X153174911Y-99392457D02*
X153222530Y-99344838D01*
X153222530Y-99344838D02*
X153317768Y-99297219D01*
X152999673Y-123317219D02*
X152999673Y-122317219D01*
X152999673Y-122317219D02*
X153333006Y-123031504D01*
X153333006Y-123031504D02*
X153666339Y-122317219D01*
X153666339Y-122317219D02*
X153666339Y-123317219D01*
X154142530Y-122936266D02*
X154904435Y-122936266D01*
X154523482Y-123317219D02*
X154523482Y-122555314D01*
X152159673Y-108207219D02*
X152159673Y-107207219D01*
X152159673Y-107207219D02*
X152493006Y-107921504D01*
X152493006Y-107921504D02*
X152826339Y-107207219D01*
X152826339Y-107207219D02*
X152826339Y-108207219D01*
X153302530Y-107826266D02*
X154064435Y-107826266D01*
X152999673Y-110597219D02*
X152999673Y-109597219D01*
X152999673Y-109597219D02*
X153333006Y-110311504D01*
X153333006Y-110311504D02*
X153666339Y-109597219D01*
X153666339Y-109597219D02*
X153666339Y-110597219D01*
X154142530Y-110216266D02*
X154904435Y-110216266D01*
X151314435Y-83817219D02*
X151933482Y-83817219D01*
X151933482Y-83817219D02*
X151600149Y-84198171D01*
X151600149Y-84198171D02*
X151743006Y-84198171D01*
X151743006Y-84198171D02*
X151838244Y-84245790D01*
X151838244Y-84245790D02*
X151885863Y-84293409D01*
X151885863Y-84293409D02*
X151933482Y-84388647D01*
X151933482Y-84388647D02*
X151933482Y-84626742D01*
X151933482Y-84626742D02*
X151885863Y-84721980D01*
X151885863Y-84721980D02*
X151838244Y-84769600D01*
X151838244Y-84769600D02*
X151743006Y-84817219D01*
X151743006Y-84817219D02*
X151457292Y-84817219D01*
X151457292Y-84817219D02*
X151362054Y-84769600D01*
X151362054Y-84769600D02*
X151314435Y-84721980D01*
X152362054Y-84721980D02*
X152409673Y-84769600D01*
X152409673Y-84769600D02*
X152362054Y-84817219D01*
X152362054Y-84817219D02*
X152314435Y-84769600D01*
X152314435Y-84769600D02*
X152362054Y-84721980D01*
X152362054Y-84721980D02*
X152362054Y-84817219D01*
X152743006Y-83817219D02*
X153362053Y-83817219D01*
X153362053Y-83817219D02*
X153028720Y-84198171D01*
X153028720Y-84198171D02*
X153171577Y-84198171D01*
X153171577Y-84198171D02*
X153266815Y-84245790D01*
X153266815Y-84245790D02*
X153314434Y-84293409D01*
X153314434Y-84293409D02*
X153362053Y-84388647D01*
X153362053Y-84388647D02*
X153362053Y-84626742D01*
X153362053Y-84626742D02*
X153314434Y-84721980D01*
X153314434Y-84721980D02*
X153266815Y-84769600D01*
X153266815Y-84769600D02*
X153171577Y-84817219D01*
X153171577Y-84817219D02*
X152885863Y-84817219D01*
X152885863Y-84817219D02*
X152790625Y-84769600D01*
X152790625Y-84769600D02*
X152743006Y-84721980D01*
X153647768Y-83817219D02*
X153981101Y-84817219D01*
X153981101Y-84817219D02*
X154314434Y-83817219D01*
X152239673Y-105517219D02*
X152239673Y-104517219D01*
X152239673Y-104517219D02*
X152573006Y-105231504D01*
X152573006Y-105231504D02*
X152906339Y-104517219D01*
X152906339Y-104517219D02*
X152906339Y-105517219D01*
X153382530Y-105136266D02*
X154144435Y-105136266D01*
X153763482Y-105517219D02*
X153763482Y-104755314D01*
X151096816Y-86447219D02*
X151668244Y-86447219D01*
X151382530Y-87447219D02*
X151382530Y-86447219D01*
X152144435Y-87447219D02*
X152049197Y-87399600D01*
X152049197Y-87399600D02*
X152001578Y-87351980D01*
X152001578Y-87351980D02*
X151953959Y-87256742D01*
X151953959Y-87256742D02*
X151953959Y-86971028D01*
X151953959Y-86971028D02*
X152001578Y-86875790D01*
X152001578Y-86875790D02*
X152049197Y-86828171D01*
X152049197Y-86828171D02*
X152144435Y-86780552D01*
X152144435Y-86780552D02*
X152287292Y-86780552D01*
X152287292Y-86780552D02*
X152382530Y-86828171D01*
X152382530Y-86828171D02*
X152430149Y-86875790D01*
X152430149Y-86875790D02*
X152477768Y-86971028D01*
X152477768Y-86971028D02*
X152477768Y-87256742D01*
X152477768Y-87256742D02*
X152430149Y-87351980D01*
X152430149Y-87351980D02*
X152382530Y-87399600D01*
X152382530Y-87399600D02*
X152287292Y-87447219D01*
X152287292Y-87447219D02*
X152144435Y-87447219D01*
X153334911Y-86780552D02*
X153334911Y-87447219D01*
X152906340Y-86780552D02*
X152906340Y-87304361D01*
X152906340Y-87304361D02*
X152953959Y-87399600D01*
X152953959Y-87399600D02*
X153049197Y-87447219D01*
X153049197Y-87447219D02*
X153192054Y-87447219D01*
X153192054Y-87447219D02*
X153287292Y-87399600D01*
X153287292Y-87399600D02*
X153334911Y-87351980D01*
X153668245Y-86780552D02*
X154049197Y-86780552D01*
X153811102Y-86447219D02*
X153811102Y-87304361D01*
X153811102Y-87304361D02*
X153858721Y-87399600D01*
X153858721Y-87399600D02*
X153953959Y-87447219D01*
X153953959Y-87447219D02*
X154049197Y-87447219D01*
D12*
X149034819Y-116903333D02*
X149749104Y-116903333D01*
X149749104Y-116903333D02*
X149891961Y-116950952D01*
X149891961Y-116950952D02*
X149987200Y-117046190D01*
X149987200Y-117046190D02*
X150034819Y-117189047D01*
X150034819Y-117189047D02*
X150034819Y-117284285D01*
X149130057Y-116474761D02*
X149082438Y-116427142D01*
X149082438Y-116427142D02*
X149034819Y-116331904D01*
X149034819Y-116331904D02*
X149034819Y-116093809D01*
X149034819Y-116093809D02*
X149082438Y-115998571D01*
X149082438Y-115998571D02*
X149130057Y-115950952D01*
X149130057Y-115950952D02*
X149225295Y-115903333D01*
X149225295Y-115903333D02*
X149320533Y-115903333D01*
X149320533Y-115903333D02*
X149463390Y-115950952D01*
X149463390Y-115950952D02*
X150034819Y-116522380D01*
X150034819Y-116522380D02*
X150034819Y-115903333D01*
X170659000Y-93409996D02*
X171063061Y-93005935D01*
X171568138Y-93915073D02*
X170861031Y-93207966D01*
X172005871Y-93477340D02*
X171298764Y-92770233D01*
X171635481Y-93106950D02*
X172039542Y-92702889D01*
X172409932Y-93073279D02*
X171702825Y-92366172D01*
X173117038Y-92366172D02*
X172712977Y-92770233D01*
X172915008Y-92568202D02*
X172207901Y-91861096D01*
X172207901Y-91861096D02*
X172241573Y-92029454D01*
X172241573Y-92029454D02*
X172241573Y-92164141D01*
X172241573Y-92164141D02*
X172207901Y-92265157D01*
D13*
%TO.C,J3*%
X155170000Y-83130000D02*
X156500000Y-83130000D01*
X155170000Y-84460000D02*
X155170000Y-83130000D01*
X155170000Y-85730000D02*
X155170000Y-88330000D01*
X155170000Y-85730000D02*
X157830000Y-85730000D01*
X155170000Y-88330000D02*
X157830000Y-88330000D01*
X157830000Y-85730000D02*
X157830000Y-88330000D01*
%TO.C,J1*%
X154980000Y-98790000D02*
X156310000Y-98790000D01*
X154980000Y-100120000D02*
X154980000Y-98790000D01*
X154980000Y-101390000D02*
X154980000Y-109070000D01*
X154980000Y-101390000D02*
X157640000Y-101390000D01*
X154980000Y-109070000D02*
X157640000Y-109070000D01*
X157640000Y-101390000D02*
X157640000Y-109070000D01*
%TO.C,J2*%
X150580000Y-111510000D02*
X159700000Y-111510000D01*
X150580000Y-121630000D02*
X150580000Y-111510000D01*
X150580000Y-121630000D02*
X159700000Y-121630000D01*
X152986000Y-112682000D02*
X153366000Y-113062000D01*
X152986000Y-117682000D02*
X153093000Y-117789000D01*
X153252000Y-112416000D02*
X153648000Y-112811000D01*
X153252000Y-117416000D02*
X153359000Y-117523000D01*
X155632000Y-115328000D02*
X156028000Y-115723000D01*
X155914000Y-115077000D02*
X156294000Y-115457000D01*
X155921000Y-120618000D02*
X156028000Y-120724000D01*
X156187000Y-120352000D02*
X156294000Y-120458000D01*
X158140000Y-121630000D02*
X158140000Y-111510000D01*
X159240000Y-121630000D02*
X159240000Y-111510000D01*
X159300000Y-121870000D02*
X159940000Y-121870000D01*
X159700000Y-121630000D02*
X159700000Y-111510000D01*
X159940000Y-121870000D02*
X159940000Y-121470000D01*
X156820000Y-114070000D02*
G75*
G02*
X152460000Y-114070000I-2180000J0D01*
G01*
X152460000Y-114070000D02*
G75*
G02*
X156820000Y-114070000I2180000J0D01*
G01*
X156820000Y-119070000D02*
G75*
G02*
X152460000Y-119070000I-2180000J0D01*
G01*
X152460000Y-119070000D02*
G75*
G02*
X156820000Y-119070000I2180000J0D01*
G01*
%TO.C,TH1*%
X174447285Y-89442962D02*
G75*
G02*
X175403520Y-90536428I756218J-303535D01*
G01*
%TD*%
M02*
