%TF.GenerationSoftware,KiCad,Pcbnew,8.0.0-8.0.0-1~ubuntu20.04.1*%
%TF.CreationDate,2024-06-18T17:56:46-06:00*%
%TF.ProjectId,smart_sleeve,736d6172-745f-4736-9c65-6576652e6b69,rev?*%
%TF.SameCoordinates,Original*%
%TF.FileFunction,Copper,L1,Top*%
%TF.FilePolarity,Positive*%
%FSLAX46Y46*%
G04 Gerber Fmt 4.6, Leading zero omitted, Abs format (unit mm)*
G04 Created by KiCad (PCBNEW 8.0.0-8.0.0-1~ubuntu20.04.1) date 2024-06-18 17:56:46*
%MOMM*%
%LPD*%
G01*
G04 APERTURE LIST*
G04 Aperture macros list*
%AMHorizOval*
0 Thick line with rounded ends*
0 $1 width*
0 $2 $3 position (X,Y) of the first rounded end (center of the circle)*
0 $4 $5 position (X,Y) of the second rounded end (center of the circle)*
0 Add line between two ends*
20,1,$1,$2,$3,$4,$5,0*
0 Add two circle primitives to create the rounded ends*
1,1,$1,$2,$3*
1,1,$1,$4,$5*%
G04 Aperture macros list end*
%TA.AperFunction,Conductor*%
%ADD10C,0.200000*%
%TD*%
%TA.AperFunction,ComponentPad*%
%ADD11R,1.700000X1.700000*%
%TD*%
%TA.AperFunction,ComponentPad*%
%ADD12O,1.700000X1.700000*%
%TD*%
%TA.AperFunction,ComponentPad*%
%ADD13R,2.600000X2.600000*%
%TD*%
%TA.AperFunction,ComponentPad*%
%ADD14C,2.600000*%
%TD*%
%TA.AperFunction,ComponentPad*%
%ADD15C,1.400000*%
%TD*%
%TA.AperFunction,ComponentPad*%
%ADD16HorizOval,1.400000X0.000000X0.000000X0.000000X0.000000X0*%
%TD*%
%TA.AperFunction,Conductor*%
%ADD17C,1.500000*%
%TD*%
%TA.AperFunction,Conductor*%
%ADD18C,0.500000*%
%TD*%
G04 APERTURE END LIST*
D10*
%TO.N,/resistance*%
X171000000Y-101000000D02*
X169500000Y-101000000D01*
%TD*%
D11*
%TO.P,J3,1,Pin_1*%
%TO.N,+3.3V*%
X156500000Y-84460000D03*
D12*
%TO.P,J3,2,Pin_2*%
%TO.N,/Tout*%
X156500000Y-87000000D03*
%TD*%
D11*
%TO.P,J1,1,Pin_1*%
%TO.N,/resistance*%
X156310000Y-100120000D03*
D12*
%TO.P,J1,2,Pin_2*%
X156310000Y-102660000D03*
%TO.P,J1,3,Pin_3*%
%TO.N,/MOT_POS*%
X156310000Y-105200000D03*
%TO.P,J1,4,Pin_4*%
%TO.N,/MOT_NEG*%
X156310000Y-107740000D03*
%TD*%
D13*
%TO.P,J2,1,Pin_1*%
%TO.N,/MOT_POS*%
X154640000Y-119070000D03*
D14*
%TO.P,J2,2,Pin_2*%
%TO.N,/MOT_NEG*%
X154640000Y-114070000D03*
%TD*%
D15*
%TO.P,TH1,1*%
%TO.N,+3.3V*%
X175203503Y-89746497D03*
D16*
%TO.P,TH1,2*%
%TO.N,/Tout*%
X173860000Y-91090000D03*
%TD*%
D17*
%TO.N,/resistance*%
X169000000Y-100150000D02*
X169470000Y-100620000D01*
X165290000Y-100150000D02*
X169000000Y-100150000D01*
X165290000Y-100150000D02*
X156340000Y-100150000D01*
X156340000Y-100150000D02*
X156310000Y-100120000D01*
D10*
X193056259Y-99500000D02*
X193056259Y-98640000D01*
X193056259Y-100360000D02*
X193056259Y-99500000D01*
X186310983Y-98000000D02*
X186190983Y-98000000D01*
X192256259Y-100360000D02*
X192256259Y-99500000D01*
X191856259Y-99500000D02*
X191856259Y-100360000D01*
X179250983Y-97000000D02*
X179250983Y-97860000D01*
X191856259Y-98640000D02*
X191856259Y-99500000D01*
X191673687Y-93500000D02*
G75*
G02*
X191813700Y-93640000I13J-140000D01*
G01*
X195456259Y-98640000D02*
G75*
G02*
X195596259Y-98499959I140041J0D01*
G01*
X191196259Y-100500000D02*
X191316259Y-100500000D01*
X191056259Y-98640000D02*
X191056259Y-99500000D01*
X190796259Y-98500000D02*
X190916259Y-98500000D01*
X196500000Y-97520000D02*
X196500000Y-97400000D01*
X190656259Y-99500000D02*
X190656259Y-98640000D01*
X196240000Y-97660000D02*
X196360000Y-97660000D01*
X190396259Y-100500000D02*
X190516259Y-100500000D01*
X189996259Y-98500000D02*
X190116259Y-98500000D01*
X196640000Y-98460000D02*
X197360000Y-98460000D01*
X189856259Y-100360000D02*
X189856259Y-99500000D01*
X180800000Y-93000000D02*
G75*
G02*
X180660000Y-92860000I0J140000D01*
G01*
X189056259Y-100360000D02*
X189056259Y-99500000D01*
X188990983Y-96000000D02*
G75*
G03*
X188851000Y-96140000I17J-140000D01*
G01*
X185860000Y-91140000D02*
X185860000Y-92000000D01*
X188656259Y-99500000D02*
X188656259Y-100360000D01*
X188656259Y-98640000D02*
X188656259Y-99500000D01*
X188256259Y-99500000D02*
X188256259Y-98640000D01*
X186520000Y-93000000D02*
X186400000Y-93000000D01*
X187596259Y-98500000D02*
X187716259Y-98500000D01*
X190400000Y-93000000D02*
G75*
G02*
X190260000Y-92860000I0J140000D01*
G01*
X189413687Y-95360000D02*
G75*
G03*
X189553687Y-95500013I140013J0D01*
G01*
X187196259Y-100500000D02*
X187316259Y-100500000D01*
X187056259Y-98640000D02*
X187056259Y-99500000D01*
X193196259Y-98500000D02*
X193316259Y-98500000D01*
X189456259Y-99500000D02*
X189456259Y-100360000D01*
X182213687Y-95360000D02*
G75*
G03*
X182353687Y-95500013I140013J0D01*
G01*
X186656259Y-99500000D02*
X186656259Y-98640000D01*
X186656259Y-100360000D02*
X186656259Y-99500000D01*
X192796259Y-100500000D02*
X192916259Y-100500000D01*
X186450983Y-97000000D02*
X186450983Y-97860000D01*
X186256259Y-99500000D02*
X186256259Y-100360000D01*
X174926758Y-103500000D02*
X174926758Y-102073242D01*
X185996259Y-98500000D02*
X186116259Y-98500000D01*
X177856259Y-98640000D02*
G75*
G02*
X177996259Y-98499959I140041J0D01*
G01*
X186850983Y-97860000D02*
X186850983Y-97000000D01*
X185856259Y-99500000D02*
X185856259Y-98640000D01*
X187110983Y-98000000D02*
X186990983Y-98000000D01*
X174306852Y-96193151D02*
X174221998Y-96278003D01*
X185596259Y-100500000D02*
X185716259Y-100500000D01*
X185196259Y-98500000D02*
X185316259Y-98500000D01*
X193456259Y-99500000D02*
X193456259Y-100360000D01*
X184796259Y-100500000D02*
X184916259Y-100500000D01*
X181250983Y-96140000D02*
G75*
G03*
X181110983Y-96000017I-139983J0D01*
G01*
X188050983Y-96140000D02*
X188050983Y-97000000D01*
X189013687Y-94500000D02*
X189013687Y-93640000D01*
X184656259Y-98640000D02*
X184656259Y-99500000D01*
X188753687Y-95500000D02*
X188873687Y-95500000D01*
X184256259Y-100360000D02*
X184256259Y-99500000D01*
X189316259Y-98500000D02*
G75*
G02*
X189456300Y-98640000I41J-140000D01*
G01*
X188850983Y-97000000D02*
X188850983Y-97860000D01*
X175607929Y-95033495D02*
X175537219Y-94962785D01*
X183456259Y-99500000D02*
X183456259Y-98640000D01*
X195856259Y-98640000D02*
X195856259Y-99360000D01*
X189510983Y-98000000D02*
X189390983Y-98000000D01*
X176102905Y-94397098D02*
X175494791Y-93788985D01*
X183056259Y-99500000D02*
X183056259Y-100360000D01*
X182450983Y-97860000D02*
G75*
G02*
X182310983Y-97999983I-139983J0D01*
G01*
X189910983Y-96000000D02*
X189790983Y-96000000D01*
X176385746Y-94114251D02*
X176534240Y-94262746D01*
X182796259Y-98500000D02*
X182916259Y-98500000D01*
X190050983Y-97860000D02*
X190050983Y-97000000D01*
X187013687Y-94500000D02*
X187013687Y-95360000D01*
X182396259Y-100500000D02*
X182516259Y-100500000D01*
X181673687Y-95500000D02*
G75*
G03*
X181813700Y-95360000I13J140000D01*
G01*
X190450983Y-96140000D02*
X190450983Y-97000000D01*
X186613687Y-94500000D02*
X186613687Y-93640000D01*
X181996259Y-98500000D02*
X182116259Y-98500000D01*
X181856259Y-99500000D02*
X181856259Y-98640000D01*
X191110983Y-98000000D02*
X190990983Y-98000000D01*
X181196259Y-98500000D02*
X181316259Y-98500000D01*
X185413687Y-94500000D02*
X185413687Y-95360000D01*
X181056259Y-99500000D02*
X181056259Y-98640000D01*
X193553687Y-94500000D02*
X193673687Y-94500000D01*
X177948457Y-92848530D02*
X177898960Y-92799033D01*
X180656259Y-99500000D02*
X180656259Y-100360000D01*
X174000000Y-100033785D02*
X174000000Y-100500000D01*
X180256259Y-100360000D02*
X180256259Y-99500000D01*
X178990983Y-98000000D02*
G75*
G02*
X178851000Y-97860000I17J140000D01*
G01*
X184353687Y-93500000D02*
X184473687Y-93500000D01*
X179996259Y-100500000D02*
X180116259Y-100500000D01*
X193013687Y-93640000D02*
G75*
G02*
X193153687Y-93499987I140013J0D01*
G01*
X192850983Y-96140000D02*
X192850983Y-97000000D01*
X184213687Y-94500000D02*
X184213687Y-93640000D01*
X179856259Y-99500000D02*
X179856259Y-100360000D01*
X179860000Y-92000000D02*
X179860000Y-91140000D01*
X179856259Y-98640000D02*
X179856259Y-99500000D01*
X183953687Y-95500000D02*
X184073687Y-95500000D01*
X179860000Y-92860000D02*
X179860000Y-92000000D01*
X179596259Y-98500000D02*
X179716259Y-98500000D01*
X183856259Y-100360000D02*
G75*
G03*
X183996259Y-100500041I140041J0D01*
G01*
X183813687Y-94500000D02*
X183813687Y-95360000D01*
X180120000Y-93000000D02*
X180000000Y-93000000D01*
X179196259Y-100500000D02*
X179316259Y-100500000D01*
X183413687Y-94500000D02*
X183413687Y-93640000D01*
X178656259Y-99500000D02*
X178656259Y-98640000D01*
X194310983Y-98000000D02*
X194190983Y-98000000D01*
X178256259Y-99500000D02*
X178256259Y-100360000D01*
X185200000Y-91000000D02*
G75*
G03*
X185060000Y-91140000I0J-140000D01*
G01*
X177596259Y-100500000D02*
X177716259Y-100500000D01*
X177456259Y-98640000D02*
X177456259Y-99500000D01*
X191650983Y-96140000D02*
G75*
G03*
X191510983Y-96000017I-139983J0D01*
G01*
X195650983Y-96860000D02*
X195650983Y-96140000D01*
X177056259Y-99500000D02*
X177056259Y-98640000D01*
X177056259Y-100360000D02*
X177056259Y-99500000D01*
X175282660Y-95641606D02*
G75*
G02*
X175084670Y-95641606I-98995J98995D01*
G01*
X176796259Y-100500000D02*
X176916259Y-100500000D01*
X176656259Y-99500000D02*
X176656259Y-100360000D01*
X176256259Y-99500000D02*
X176256259Y-98640000D01*
X175856259Y-99360000D02*
X175856259Y-100360000D01*
X175596259Y-98500000D02*
X175716259Y-98500000D01*
X175000000Y-101000000D02*
X175000000Y-99500000D01*
X188260000Y-92860000D02*
G75*
G02*
X188120000Y-93000000I-140000J0D01*
G01*
X181860000Y-92860000D02*
G75*
G02*
X181720000Y-93000000I-140000J0D01*
G01*
X180656259Y-100360000D02*
G75*
G03*
X180796259Y-100500041I140041J0D01*
G01*
X196500000Y-101000000D02*
X175000000Y-101000000D01*
X196500000Y-102000000D02*
X197000000Y-101500000D01*
X181856259Y-100360000D02*
X181856259Y-99500000D01*
X193600481Y-91884258D02*
G75*
G03*
X193600444Y-91686305I-98981J98958D01*
G01*
X174000000Y-96950000D02*
G75*
G03*
X174140000Y-97090000I140000J0D01*
G01*
X191200000Y-93000000D02*
G75*
G02*
X191060000Y-92860000I0J140000D01*
G01*
X191013687Y-94500000D02*
X191013687Y-95360000D01*
X174504842Y-96193151D02*
G75*
G03*
X174306852Y-96193151I-98995J-98995D01*
G01*
X183013687Y-93640000D02*
X183013687Y-94500000D01*
X181060000Y-92000000D02*
X181060000Y-92860000D01*
X175211948Y-96702267D02*
G75*
G02*
X175013958Y-96702267I-98995J98995D01*
G01*
X185456259Y-98640000D02*
X185456259Y-99500000D01*
X187650983Y-97000000D02*
X187650983Y-96140000D01*
X174080577Y-95203198D02*
X174688688Y-95811309D01*
X175296801Y-96419423D02*
G75*
G02*
X175296783Y-96617395I-99001J-98977D01*
G01*
X174080578Y-95005209D02*
G75*
G03*
X174080581Y-95203194I99022J-98991D01*
G01*
X174363420Y-94920356D02*
G75*
G03*
X174165430Y-94920356I-98995J-98995D01*
G01*
X174971533Y-95528469D02*
X174363420Y-94920356D01*
X176534239Y-94262747D02*
G75*
G02*
X176534198Y-94460694I-99039J-98953D01*
G01*
X193317638Y-91601415D02*
X192808521Y-92110531D01*
X175777635Y-93308150D02*
G75*
G03*
X175777680Y-93506095I98965J-98950D01*
G01*
X177085785Y-94050614D02*
G75*
G02*
X176887795Y-94050614I-98995J98995D01*
G01*
X177223687Y-94500000D02*
X177673687Y-94500000D01*
X177170638Y-93767770D02*
G75*
G02*
X177170673Y-93965795I-99038J-99030D01*
G01*
X176343323Y-92742464D02*
G75*
G03*
X176343281Y-92940494I98977J-99036D01*
G01*
X177260000Y-95160000D02*
X177140000Y-95160000D01*
X175996259Y-100500000D02*
X176116259Y-100500000D01*
X189056259Y-98640000D02*
G75*
G02*
X189196259Y-98499959I140041J0D01*
G01*
X177333272Y-93166728D02*
G75*
G02*
X177135282Y-93166728I-98995J98995D01*
G01*
X187996259Y-100500000D02*
X188116259Y-100500000D01*
X190000000Y-91000000D02*
G75*
G03*
X189860000Y-91140000I0J-140000D01*
G01*
X177418124Y-92883883D02*
G75*
G02*
X177418146Y-93081895I-99024J-99017D01*
G01*
X176909009Y-92176778D02*
G75*
G03*
X176908981Y-92374794I98991J-99022D01*
G01*
X177191851Y-92091925D02*
G75*
G03*
X176993861Y-92091925I-98995J-98995D01*
G01*
X178146447Y-92848530D02*
G75*
G02*
X177948457Y-92848530I-98995J98995D01*
G01*
X178181802Y-92318198D02*
G75*
G03*
X178181795Y-92516195I98998J-99002D01*
G01*
X186710983Y-96000000D02*
X186590983Y-96000000D01*
X189056259Y-99500000D02*
X189056259Y-98640000D01*
X179060000Y-92140000D02*
G75*
G03*
X178920000Y-92000000I-140000J0D01*
G01*
X185056259Y-100360000D02*
X185056259Y-99500000D01*
X189153687Y-93500000D02*
X189273687Y-93500000D01*
X179460000Y-92860000D02*
G75*
G02*
X179320000Y-93000000I-140000J0D01*
G01*
X179600000Y-91000000D02*
G75*
G03*
X179460000Y-91140000I0J-140000D01*
G01*
X179860000Y-91140000D02*
G75*
G03*
X179720000Y-91000000I-140000J0D01*
G01*
X186260000Y-91140000D02*
G75*
G03*
X186120000Y-91000000I-140000J0D01*
G01*
X180000000Y-93000000D02*
G75*
G02*
X179860000Y-92860000I0J140000D01*
G01*
X188450983Y-97000000D02*
X188450983Y-96140000D01*
X180260000Y-92860000D02*
G75*
G02*
X180120000Y-93000000I-140000J0D01*
G01*
X180613687Y-94500000D02*
X180613687Y-95360000D01*
X180400000Y-91000000D02*
G75*
G03*
X180260000Y-91140000I0J-140000D01*
G01*
X180660000Y-91140000D02*
G75*
G03*
X180520000Y-91000000I-140000J0D01*
G01*
X183856259Y-98640000D02*
X183856259Y-99500000D01*
X187953687Y-95500000D02*
X188073687Y-95500000D01*
X181060000Y-92860000D02*
G75*
G02*
X180920000Y-93000000I-140000J0D01*
G01*
X187553687Y-93500000D02*
X187673687Y-93500000D01*
X181460000Y-91140000D02*
G75*
G03*
X181320000Y-91000000I-140000J0D01*
G01*
X177856259Y-100360000D02*
X177856259Y-99500000D01*
X191456259Y-100360000D02*
X191456259Y-99500000D01*
X195250983Y-96860000D02*
X195250983Y-97860000D01*
X181953687Y-93500000D02*
X182073687Y-93500000D01*
X182000000Y-91000000D02*
G75*
G03*
X181860000Y-91140000I0J-140000D01*
G01*
X188400000Y-91000000D02*
G75*
G03*
X188260000Y-91140000I0J-140000D01*
G01*
X179200000Y-93000000D02*
G75*
G02*
X179060000Y-92860000I0J140000D01*
G01*
X182260000Y-91140000D02*
G75*
G03*
X182120000Y-91000000I-140000J0D01*
G01*
X188660000Y-91140000D02*
G75*
G03*
X188520000Y-91000000I-140000J0D01*
G01*
X182400000Y-93000000D02*
G75*
G02*
X182260000Y-92860000I0J140000D01*
G01*
X188800000Y-93000000D02*
G75*
G02*
X188660000Y-92860000I0J140000D01*
G01*
X182800000Y-91000000D02*
G75*
G03*
X182660000Y-91140000I0J-140000D01*
G01*
X189200000Y-91000000D02*
G75*
G03*
X189060000Y-91140000I0J-140000D01*
G01*
X175856259Y-100360000D02*
G75*
G03*
X175996259Y-100500041I140041J0D01*
G01*
X188796259Y-100500000D02*
X188916259Y-100500000D01*
X183060000Y-91140000D02*
G75*
G03*
X182920000Y-91000000I-140000J0D01*
G01*
X183200000Y-93000000D02*
G75*
G02*
X183060000Y-92860000I0J140000D01*
G01*
X188396259Y-98500000D02*
X188516259Y-98500000D01*
X183460000Y-92860000D02*
G75*
G02*
X183320000Y-93000000I-140000J0D01*
G01*
X184260000Y-92860000D02*
G75*
G02*
X184120000Y-93000000I-140000J0D01*
G01*
X179390983Y-96000000D02*
G75*
G03*
X179251000Y-96140000I17J-140000D01*
G01*
X192256259Y-99500000D02*
X192256259Y-98640000D01*
X186256259Y-98640000D02*
X186256259Y-99500000D01*
X184400000Y-91000000D02*
G75*
G03*
X184260000Y-91140000I0J-140000D01*
G01*
X190450983Y-97860000D02*
G75*
G02*
X190310983Y-97999983I-139983J0D01*
G01*
X190800000Y-91000000D02*
G75*
G03*
X190660000Y-91140000I0J-140000D01*
G01*
X178396259Y-100500000D02*
X178516259Y-100500000D01*
X180190983Y-96000000D02*
G75*
G03*
X180051000Y-96140000I17J-140000D01*
G01*
X194450983Y-96140000D02*
X194450983Y-97000000D01*
X178231300Y-92565686D02*
G75*
G02*
X178231319Y-92763695I-99000J-99014D01*
G01*
X174460000Y-97490000D02*
X174140000Y-97490000D01*
X184660000Y-91140000D02*
G75*
G03*
X184520000Y-91000000I-140000J0D01*
G01*
X184800000Y-93000000D02*
G75*
G02*
X184660000Y-92860000I0J140000D01*
G01*
X185060000Y-92860000D02*
G75*
G02*
X184920000Y-93000000I-140000J0D01*
G01*
X192656259Y-98640000D02*
X192656259Y-99500000D01*
X185460000Y-91140000D02*
G75*
G03*
X185320000Y-91000000I-140000J0D01*
G01*
X178873687Y-93500000D02*
G75*
G02*
X179013700Y-93640000I13J-140000D01*
G01*
X185600000Y-93000000D02*
G75*
G02*
X185460000Y-92860000I0J140000D01*
G01*
X177856259Y-99500000D02*
X177856259Y-98640000D01*
X195110983Y-98000000D02*
X194990983Y-98000000D01*
X184396259Y-98500000D02*
X184516259Y-98500000D01*
X188450983Y-97860000D02*
X188450983Y-97000000D01*
X186000000Y-91000000D02*
G75*
G03*
X185860000Y-91140000I0J-140000D01*
G01*
X186400000Y-93000000D02*
G75*
G02*
X186260000Y-92860000I0J140000D01*
G01*
X186800000Y-91000000D02*
G75*
G03*
X186660000Y-91140000I0J-140000D01*
G01*
X181650983Y-97860000D02*
G75*
G02*
X181510983Y-97999983I-139983J0D01*
G01*
X187600000Y-91000000D02*
G75*
G03*
X187460000Y-91140000I0J-140000D01*
G01*
X187860000Y-91140000D02*
G75*
G03*
X187720000Y-91000000I-140000J0D01*
G01*
X187013687Y-95360000D02*
G75*
G03*
X187153687Y-95500013I140013J0D01*
G01*
X188000000Y-93000000D02*
G75*
G02*
X187860000Y-92860000I0J140000D01*
G01*
X181600000Y-93000000D02*
G75*
G02*
X181460000Y-92860000I0J140000D01*
G01*
X176626165Y-92657611D02*
G75*
G03*
X176428175Y-92657611I-98995J-98995D01*
G01*
X189460000Y-91140000D02*
G75*
G03*
X189320000Y-91000000I-140000J0D01*
G01*
X183790983Y-98000000D02*
G75*
G02*
X183651000Y-97860000I17J140000D01*
G01*
X190256259Y-98640000D02*
X190256259Y-99500000D01*
X189600000Y-93000000D02*
G75*
G02*
X189460000Y-92860000I0J140000D01*
G01*
X189860000Y-92860000D02*
G75*
G02*
X189720000Y-93000000I-140000J0D01*
G01*
X179456259Y-100360000D02*
X179456259Y-99500000D01*
X193650983Y-97000000D02*
X193650983Y-97860000D01*
X183553687Y-93500000D02*
X183673687Y-93500000D01*
X190260000Y-91140000D02*
G75*
G03*
X190120000Y-91000000I-140000J0D01*
G01*
X192656259Y-99500000D02*
X192656259Y-100360000D01*
X191013687Y-93640000D02*
X191013687Y-94500000D01*
X190660000Y-92860000D02*
G75*
G02*
X190520000Y-93000000I-140000J0D01*
G01*
X176060478Y-93223298D02*
G75*
G03*
X175862488Y-93223298I-98995J-98995D01*
G01*
X181596259Y-100500000D02*
X181716259Y-100500000D01*
X191250983Y-96140000D02*
X191250983Y-97000000D01*
X177418124Y-93081873D02*
X177333272Y-93166727D01*
X192808521Y-92110531D02*
G75*
G02*
X192610531Y-92110531I-98995J98995D01*
G01*
X193515628Y-91601415D02*
G75*
G03*
X193317638Y-91601415I-98995J-98995D01*
G01*
X192903983Y-92757537D02*
G75*
G02*
X192903934Y-92580712I88417J88437D01*
G01*
X189060000Y-92860000D02*
G75*
G02*
X188920000Y-93000000I-140000J0D01*
G01*
X182660000Y-92860000D02*
G75*
G02*
X182520000Y-93000000I-140000J0D01*
G01*
X177813687Y-94360000D02*
X177813687Y-93640000D01*
X193186825Y-92863602D02*
G75*
G02*
X193010013Y-92863641I-88425J88402D01*
G01*
X192873687Y-95500000D02*
G75*
G03*
X193013700Y-95360000I13J140000D01*
G01*
X196240000Y-98060000D02*
G75*
G02*
X196100000Y-97920000I0J140000D01*
G01*
X192613687Y-95360000D02*
G75*
G03*
X192753687Y-95500013I140013J0D01*
G01*
X197500000Y-98200000D02*
G75*
G03*
X197360000Y-98060000I-140000J0D01*
G01*
X184000000Y-93000000D02*
G75*
G02*
X183860000Y-92860000I0J140000D01*
G01*
X185013687Y-93640000D02*
G75*
G02*
X185153687Y-93499987I140013J0D01*
G01*
X185250983Y-97860000D02*
X185250983Y-97000000D01*
X191813687Y-94500000D02*
X191813687Y-95360000D01*
X192473687Y-93500000D02*
G75*
G02*
X192613700Y-93640000I13J-140000D01*
G01*
X197360000Y-98460000D02*
G75*
G03*
X197500000Y-98320000I0J140000D01*
G01*
X192213687Y-93640000D02*
G75*
G02*
X192353687Y-93499987I140013J0D01*
G01*
X192073687Y-95500000D02*
G75*
G03*
X192213700Y-95360000I13J140000D01*
G01*
X195856259Y-99360000D02*
G75*
G03*
X195996259Y-99500041I140041J0D01*
G01*
X190613687Y-94500000D02*
X190613687Y-93640000D01*
X191813687Y-95360000D02*
G75*
G03*
X191953687Y-95500013I140013J0D01*
G01*
X195716259Y-98500000D02*
G75*
G02*
X195856300Y-98640000I41J-140000D01*
G01*
X194710983Y-96000000D02*
X194590983Y-96000000D01*
X181460000Y-92000000D02*
X181460000Y-91140000D01*
X191413687Y-93640000D02*
G75*
G02*
X191553687Y-93499987I140013J0D01*
G01*
X195316259Y-100500000D02*
G75*
G03*
X195456300Y-100360000I41J140000D01*
G01*
X191273687Y-95500000D02*
G75*
G03*
X191413700Y-95360000I13J140000D01*
G01*
X190613687Y-93640000D02*
G75*
G02*
X190753687Y-93499987I140013J0D01*
G01*
X176656259Y-98640000D02*
X176656259Y-99500000D01*
X194656259Y-98640000D02*
G75*
G02*
X194796259Y-98499959I140041J0D01*
G01*
X174860000Y-97890000D02*
G75*
G02*
X175000000Y-98030000I0J-140000D01*
G01*
X180396259Y-98500000D02*
X180516259Y-98500000D01*
X192450983Y-97860000D02*
X192450983Y-97000000D01*
X184613687Y-94500000D02*
X184613687Y-95360000D01*
X179320000Y-93000000D02*
X179200000Y-93000000D01*
X190473687Y-95500000D02*
G75*
G03*
X190613700Y-95360000I13J140000D01*
G01*
X194516259Y-100500000D02*
G75*
G03*
X194656300Y-100360000I41J140000D01*
G01*
X183060000Y-92860000D02*
X183060000Y-92000000D01*
X173000000Y-97750000D02*
G75*
G03*
X173140000Y-97890000I140000J0D01*
G01*
X186660000Y-92860000D02*
G75*
G02*
X186520000Y-93000000I-140000J0D01*
G01*
X189456259Y-100360000D02*
G75*
G03*
X189596259Y-100500041I140041J0D01*
G01*
X190213687Y-95360000D02*
G75*
G03*
X190353687Y-95500013I140013J0D01*
G01*
X194256259Y-100360000D02*
G75*
G03*
X194396259Y-100500041I140041J0D01*
G01*
X189673687Y-95500000D02*
G75*
G03*
X189813700Y-95360000I13J140000D01*
G01*
X185056259Y-99500000D02*
X185056259Y-98640000D01*
X188873687Y-95500000D02*
G75*
G03*
X189013700Y-95360000I13J140000D01*
G01*
X190916259Y-98500000D02*
G75*
G02*
X191056300Y-98640000I41J-140000D01*
G01*
X181056259Y-100360000D02*
X181056259Y-99500000D01*
X188613687Y-95360000D02*
G75*
G03*
X188753687Y-95500013I140013J0D01*
G01*
X190656259Y-98640000D02*
G75*
G02*
X190796259Y-98499959I140041J0D01*
G01*
X184213687Y-93640000D02*
G75*
G02*
X184353687Y-93499987I140013J0D01*
G01*
X174000000Y-96500000D02*
X174000000Y-96950000D01*
X183860000Y-91140000D02*
G75*
G03*
X183720000Y-91000000I-140000J0D01*
G01*
X192656259Y-100360000D02*
G75*
G03*
X192796259Y-100500041I140041J0D01*
G01*
X186073687Y-93500000D02*
G75*
G02*
X186213700Y-93640000I13J-140000D01*
G01*
X183650983Y-97000000D02*
X183650983Y-96140000D01*
X195250983Y-97860000D02*
G75*
G02*
X195110983Y-97999983I-139983J0D01*
G01*
X178656259Y-98640000D02*
G75*
G02*
X178796259Y-98499959I140041J0D01*
G01*
X195390983Y-96000000D02*
G75*
G03*
X195251000Y-96140000I17J-140000D01*
G01*
X177000000Y-94723687D02*
X177223687Y-94500000D01*
X195650983Y-96140000D02*
G75*
G03*
X195510983Y-96000017I-139983J0D01*
G01*
X177000000Y-95020000D02*
X177000000Y-94900000D01*
X193250983Y-96140000D02*
G75*
G03*
X193110983Y-96000017I-139983J0D01*
G01*
X193390983Y-98000000D02*
G75*
G02*
X193251000Y-97860000I17J140000D01*
G01*
X183056259Y-98640000D02*
X183056259Y-99500000D01*
X187153687Y-95500000D02*
X187273687Y-95500000D01*
X175777635Y-93506140D02*
X176385746Y-94114251D01*
X193650983Y-97860000D02*
G75*
G02*
X193510983Y-97999983I-139983J0D01*
G01*
X189596259Y-100500000D02*
X189716259Y-100500000D01*
X186796259Y-98500000D02*
X186916259Y-98500000D01*
X195056259Y-100360000D02*
G75*
G03*
X195196259Y-100500041I140041J0D01*
G01*
X175367512Y-95358764D02*
G75*
G02*
X175367552Y-95556795I-99012J-99036D01*
G01*
X182660000Y-91140000D02*
X182660000Y-92000000D01*
X194590983Y-96000000D02*
G75*
G03*
X194451000Y-96140000I17J-140000D01*
G01*
X175856259Y-98640000D02*
X175856259Y-99360000D01*
X190256259Y-100360000D02*
G75*
G03*
X190396259Y-100500041I140041J0D01*
G01*
X187060000Y-91140000D02*
G75*
G03*
X186920000Y-91000000I-140000J0D01*
G01*
X184190983Y-96000000D02*
G75*
G03*
X184051000Y-96140000I17J-140000D01*
G01*
X187856259Y-98640000D02*
X187856259Y-99500000D01*
X184116259Y-100500000D02*
G75*
G03*
X184256300Y-100360000I41J140000D01*
G01*
X185250983Y-97000000D02*
X185250983Y-96140000D01*
X174646263Y-94439524D02*
G75*
G03*
X174646281Y-94637494I99037J-98976D01*
G01*
X196640000Y-98060000D02*
X196240000Y-98060000D01*
X194850983Y-96140000D02*
G75*
G03*
X194710983Y-96000017I-139983J0D01*
G01*
X190116259Y-98500000D02*
G75*
G02*
X190256300Y-98640000I41J-140000D01*
G01*
X181860000Y-91140000D02*
X181860000Y-92000000D01*
X177456259Y-99500000D02*
X177456259Y-100360000D01*
X191456259Y-98640000D02*
G75*
G02*
X191596259Y-98499959I140041J0D01*
G01*
X186613687Y-93640000D02*
G75*
G02*
X186753687Y-93499987I140013J0D01*
G01*
X186473687Y-95500000D02*
G75*
G03*
X186613700Y-95360000I13J140000D01*
G01*
X193056259Y-98640000D02*
G75*
G02*
X193196259Y-98499959I140041J0D01*
G01*
X174710000Y-98690000D02*
G75*
G02*
X174850000Y-98830000I0J-140000D01*
G01*
X188916259Y-100500000D02*
G75*
G03*
X189056300Y-100360000I41J140000D01*
G01*
X195996259Y-99500000D02*
X196116259Y-99500000D01*
X187813687Y-95360000D02*
G75*
G03*
X187953687Y-95500013I140013J0D01*
G01*
X185650983Y-97860000D02*
G75*
G02*
X185510983Y-97999983I-139983J0D01*
G01*
X174221998Y-96278003D02*
X174000000Y-96500000D01*
X190873687Y-93500000D02*
G75*
G02*
X191013700Y-93640000I13J-140000D01*
G01*
X184656259Y-99500000D02*
X184656259Y-100360000D01*
X188310983Y-96000000D02*
X188190983Y-96000000D01*
X188516259Y-98500000D02*
G75*
G02*
X188656300Y-98640000I41J-140000D01*
G01*
X177996259Y-98500000D02*
X178116259Y-98500000D01*
X175000000Y-102000000D02*
X196500000Y-102000000D01*
X187056259Y-100360000D02*
G75*
G03*
X187196259Y-100500041I140041J0D01*
G01*
X179910983Y-98000000D02*
X179790983Y-98000000D01*
X180590983Y-98000000D02*
G75*
G02*
X180451000Y-97860000I17J140000D01*
G01*
X174850000Y-98950000D02*
G75*
G02*
X174710000Y-99090000I-140000J0D01*
G01*
X178213687Y-94360000D02*
X178213687Y-95360000D01*
X188073687Y-95500000D02*
G75*
G03*
X188213700Y-95360000I13J140000D01*
G01*
X185390983Y-98000000D02*
G75*
G02*
X185251000Y-97860000I17J140000D01*
G01*
X174140000Y-97090000D02*
X174460000Y-97090000D01*
X180916259Y-100500000D02*
G75*
G03*
X181056300Y-100360000I41J140000D01*
G01*
X188050983Y-97860000D02*
G75*
G02*
X187910983Y-97999983I-139983J0D01*
G01*
X190450983Y-97000000D02*
X190450983Y-97860000D01*
X190256259Y-99500000D02*
X190256259Y-100360000D01*
X186516259Y-100500000D02*
G75*
G03*
X186656300Y-100360000I41J140000D01*
G01*
X180613687Y-95360000D02*
G75*
G03*
X180753687Y-95500013I140013J0D01*
G01*
X178920000Y-92000000D02*
X178800000Y-92000000D01*
X192256259Y-98640000D02*
G75*
G02*
X192396259Y-98499959I140041J0D01*
G01*
X183316259Y-100500000D02*
G75*
G03*
X183456300Y-100360000I41J140000D01*
G01*
X196360000Y-97660000D02*
G75*
G03*
X196500000Y-97520000I0J140000D01*
G01*
X188256259Y-100360000D02*
X188256259Y-99500000D01*
X184850983Y-97000000D02*
X184850983Y-97860000D01*
X180256259Y-98640000D02*
G75*
G02*
X180396259Y-98499959I140041J0D01*
G01*
X182256259Y-98640000D02*
X182256259Y-99500000D01*
X190850983Y-97000000D02*
X190850983Y-96140000D01*
X187316259Y-100500000D02*
G75*
G03*
X187456300Y-100360000I41J140000D01*
G01*
X190190983Y-98000000D02*
G75*
G02*
X190051000Y-97860000I17J140000D01*
G01*
X193790983Y-96000000D02*
G75*
G03*
X193651000Y-96140000I17J-140000D01*
G01*
X176256259Y-100360000D02*
X176256259Y-99500000D01*
X182873687Y-93500000D02*
G75*
G02*
X183013700Y-93640000I13J-140000D01*
G01*
X187856259Y-100360000D02*
G75*
G03*
X187996259Y-100500041I140041J0D01*
G01*
X179716259Y-98500000D02*
G75*
G02*
X179856300Y-98640000I41J-140000D01*
G01*
X185013687Y-94500000D02*
X185013687Y-93640000D01*
X178800000Y-92000000D02*
X178500000Y-92000000D01*
X189813687Y-93640000D02*
G75*
G02*
X189953687Y-93499987I140013J0D01*
G01*
X195456259Y-100360000D02*
X195456259Y-99500000D01*
X187456259Y-98640000D02*
G75*
G02*
X187596259Y-98499959I140041J0D01*
G01*
X185860000Y-92000000D02*
X185860000Y-92860000D01*
X179316259Y-100500000D02*
G75*
G03*
X179456300Y-100360000I41J140000D01*
G01*
X188850983Y-97860000D02*
G75*
G02*
X188710983Y-97999983I-139983J0D01*
G01*
X182656259Y-98640000D02*
G75*
G02*
X182796259Y-98499959I140041J0D01*
G01*
X186190983Y-98000000D02*
G75*
G02*
X186051000Y-97860000I17J140000D01*
G01*
X189320000Y-91000000D02*
X189200000Y-91000000D01*
X185716259Y-100500000D02*
G75*
G03*
X185856300Y-100360000I41J140000D01*
G01*
X191596259Y-98500000D02*
X191716259Y-98500000D01*
X187650983Y-96140000D02*
G75*
G03*
X187510983Y-96000017I-139983J0D01*
G01*
X181316259Y-98500000D02*
G75*
G02*
X181456300Y-98640000I41J-140000D01*
G01*
X175316259Y-99500000D02*
G75*
G03*
X175456300Y-99360000I41J140000D01*
G01*
X181413687Y-94500000D02*
X181413687Y-95360000D01*
X187250983Y-97860000D02*
G75*
G02*
X187110983Y-97999983I-139983J0D01*
G01*
X192916259Y-100500000D02*
G75*
G03*
X193056300Y-100360000I41J140000D01*
G01*
X186213687Y-95360000D02*
G75*
G03*
X186353687Y-95500013I140013J0D01*
G01*
X183716259Y-98500000D02*
G75*
G02*
X183856300Y-98640000I41J-140000D01*
G01*
X184050983Y-97860000D02*
G75*
G02*
X183910983Y-97999983I-139983J0D01*
G01*
X185456259Y-99500000D02*
X185456259Y-100360000D01*
X189060000Y-92000000D02*
X189060000Y-92860000D01*
X182516259Y-100500000D02*
G75*
G03*
X182656300Y-100360000I41J140000D01*
G01*
X187790983Y-98000000D02*
G75*
G02*
X187651000Y-97860000I17J140000D01*
G01*
X181056259Y-98640000D02*
G75*
G02*
X181196259Y-98499959I140041J0D01*
G01*
X182310983Y-98000000D02*
X182190983Y-98000000D01*
X181200000Y-91000000D02*
G75*
G03*
X181060000Y-91140000I0J-140000D01*
G01*
X187413687Y-93640000D02*
G75*
G02*
X187553687Y-93499987I140013J0D01*
G01*
X182073687Y-93500000D02*
G75*
G02*
X182213700Y-93640000I13J-140000D01*
G01*
X191320000Y-93000000D02*
X191200000Y-93000000D01*
X176116259Y-100500000D02*
G75*
G03*
X176256300Y-100360000I41J140000D01*
G01*
X185790983Y-96000000D02*
G75*
G03*
X185651000Y-96140000I17J-140000D01*
G01*
X194256259Y-99500000D02*
X194256259Y-100360000D01*
X193363604Y-92863604D02*
G75*
G03*
X193186812Y-92863589I-88404J-88396D01*
G01*
X175456259Y-98640000D02*
G75*
G02*
X175596259Y-98499959I140041J0D01*
G01*
X191060000Y-91140000D02*
G75*
G03*
X190920000Y-91000000I-140000J0D01*
G01*
X178656259Y-100360000D02*
X178656259Y-99500000D01*
X185456259Y-100360000D02*
G75*
G03*
X185596259Y-100500041I140041J0D01*
G01*
X191013687Y-95360000D02*
G75*
G03*
X191153687Y-95500013I140013J0D01*
G01*
X175254373Y-95245624D02*
X175367512Y-95358764D01*
X188656259Y-100360000D02*
G75*
G03*
X188796259Y-100500041I140041J0D01*
G01*
X189273687Y-93500000D02*
G75*
G02*
X189413700Y-93640000I13J-140000D01*
G01*
X185316259Y-98500000D02*
G75*
G02*
X185456300Y-98640000I41J-140000D01*
G01*
X182256259Y-100360000D02*
G75*
G03*
X182396259Y-100500041I140041J0D01*
G01*
X186590983Y-96000000D02*
G75*
G03*
X186451000Y-96140000I17J-140000D01*
G01*
X180450983Y-97860000D02*
X180450983Y-97000000D01*
X190073687Y-93500000D02*
G75*
G02*
X190213700Y-93640000I13J-140000D01*
G01*
X187716259Y-98500000D02*
G75*
G02*
X187856300Y-98640000I41J-140000D01*
G01*
X186656259Y-98640000D02*
G75*
G02*
X186796259Y-98499959I140041J0D01*
G01*
X181013687Y-94500000D02*
X181013687Y-93640000D01*
X186050983Y-96140000D02*
G75*
G03*
X185910983Y-96000017I-139983J0D01*
G01*
X182916259Y-98500000D02*
G75*
G02*
X183056300Y-98640000I41J-140000D01*
G01*
X182213687Y-93640000D02*
X182213687Y-94500000D01*
X183813687Y-95360000D02*
G75*
G03*
X183953687Y-95500013I140013J0D01*
G01*
X194256259Y-98640000D02*
X194256259Y-99500000D01*
X192116259Y-100500000D02*
G75*
G03*
X192256300Y-100360000I41J140000D01*
G01*
X183056259Y-100360000D02*
G75*
G03*
X183196259Y-100500041I140041J0D01*
G01*
X190213687Y-94500000D02*
X190213687Y-95360000D01*
X183600000Y-91000000D02*
G75*
G03*
X183460000Y-91140000I0J-140000D01*
G01*
X184850983Y-96140000D02*
X184850983Y-97000000D01*
X182613687Y-93640000D02*
G75*
G02*
X182753687Y-93499987I140013J0D01*
G01*
X194050983Y-96140000D02*
G75*
G03*
X193910983Y-96000017I-139983J0D01*
G01*
X187413687Y-95360000D02*
X187413687Y-94500000D01*
X179456259Y-98640000D02*
G75*
G02*
X179596259Y-98499959I140041J0D01*
G01*
X179056259Y-99500000D02*
X179056259Y-100360000D01*
X178116259Y-98500000D02*
G75*
G02*
X178256300Y-98640000I41J-140000D01*
G01*
X178850983Y-97000000D02*
X178850983Y-96140000D01*
X188260000Y-91140000D02*
X188260000Y-92000000D01*
X188590983Y-98000000D02*
G75*
G02*
X188451000Y-97860000I17J140000D01*
G01*
X191716259Y-98500000D02*
G75*
G02*
X191856300Y-98640000I41J-140000D01*
G01*
X185273687Y-93500000D02*
G75*
G02*
X185413700Y-93640000I13J-140000D01*
G01*
X189456259Y-98640000D02*
X189456259Y-99500000D01*
X176656259Y-100360000D02*
G75*
G03*
X176796259Y-100500041I140041J0D01*
G01*
X192590983Y-98000000D02*
G75*
G02*
X192451000Y-97860000I17J140000D01*
G01*
X195790983Y-97000000D02*
G75*
G02*
X195651000Y-96860000I17J140000D01*
G01*
X176256259Y-98640000D02*
G75*
G02*
X176396259Y-98499959I140041J0D01*
G01*
X185860000Y-92860000D02*
G75*
G02*
X185720000Y-93000000I-140000J0D01*
G01*
X181856259Y-98640000D02*
G75*
G02*
X181996259Y-98499959I140041J0D01*
G01*
X181273687Y-93500000D02*
G75*
G02*
X181413700Y-93640000I13J-140000D01*
G01*
X178613687Y-95360000D02*
X178613687Y-94500000D01*
X184916259Y-100500000D02*
G75*
G03*
X185056300Y-100360000I41J140000D01*
G01*
X188116259Y-100500000D02*
G75*
G03*
X188256300Y-100360000I41J140000D01*
G01*
X177170638Y-93965760D02*
X177085785Y-94050614D01*
X190590983Y-96000000D02*
G75*
G03*
X190451000Y-96140000I17J-140000D01*
G01*
X193910983Y-96000000D02*
X193790983Y-96000000D01*
X182656259Y-99500000D02*
X182656259Y-98640000D01*
X190310983Y-98000000D02*
X190190983Y-98000000D01*
X194916259Y-98500000D02*
G75*
G02*
X195056300Y-98640000I41J-140000D01*
G01*
X176396259Y-98500000D02*
X176516259Y-98500000D01*
X188256259Y-98640000D02*
G75*
G02*
X188396259Y-98499959I140041J0D01*
G01*
X176916259Y-100500000D02*
G75*
G03*
X177056300Y-100360000I41J140000D01*
G01*
X186256259Y-100360000D02*
G75*
G03*
X186396259Y-100500041I140041J0D01*
G01*
X191250983Y-97860000D02*
G75*
G02*
X191110983Y-97999983I-139983J0D01*
G01*
X179250983Y-96140000D02*
X179250983Y-97000000D01*
X174688688Y-95811309D02*
X175296801Y-96419423D01*
X191790983Y-98000000D02*
G75*
G02*
X191651000Y-97860000I17J140000D01*
G01*
X182260000Y-92860000D02*
X182260000Y-92000000D01*
X182256259Y-99500000D02*
X182256259Y-100360000D01*
X189716259Y-100500000D02*
G75*
G03*
X189856300Y-100360000I41J140000D01*
G01*
X184850983Y-97860000D02*
G75*
G02*
X184710983Y-97999983I-139983J0D01*
G01*
X193250983Y-97860000D02*
X193250983Y-97000000D01*
X187856259Y-99500000D02*
X187856259Y-100360000D01*
X185110983Y-96000000D02*
X184990983Y-96000000D01*
X181456259Y-100360000D02*
G75*
G03*
X181596259Y-100500041I140041J0D01*
G01*
X184516259Y-98500000D02*
G75*
G02*
X184656300Y-98640000I41J-140000D01*
G01*
X188213687Y-93640000D02*
G75*
G02*
X188353687Y-93499987I140013J0D01*
G01*
X185250983Y-96140000D02*
G75*
G03*
X185110983Y-96000017I-139983J0D01*
G01*
X178256259Y-100360000D02*
G75*
G03*
X178396259Y-100500041I140041J0D01*
G01*
X193316259Y-98500000D02*
G75*
G02*
X193456300Y-98640000I41J-140000D01*
G01*
X192516259Y-98500000D02*
G75*
G02*
X192656300Y-98640000I41J-140000D01*
G01*
X186120000Y-91000000D02*
X186000000Y-91000000D01*
X183456259Y-98640000D02*
G75*
G02*
X183596259Y-98499959I140041J0D01*
G01*
X191456259Y-99500000D02*
X191456259Y-98640000D01*
X188473687Y-93500000D02*
G75*
G02*
X188613700Y-93640000I13J-140000D01*
G01*
X187813687Y-93640000D02*
X187813687Y-94500000D01*
X184990983Y-96000000D02*
G75*
G03*
X184851000Y-96140000I17J-140000D01*
G01*
X178516259Y-100500000D02*
G75*
G03*
X178656300Y-100360000I41J140000D01*
G01*
X193456259Y-100360000D02*
G75*
G03*
X193596259Y-100500041I140041J0D01*
G01*
X192500000Y-92000000D02*
X191600000Y-92000000D01*
X184256259Y-98640000D02*
G75*
G02*
X184396259Y-98499959I140041J0D01*
G01*
X186396259Y-100500000D02*
X186516259Y-100500000D01*
X174926758Y-102073242D02*
X175000000Y-102000000D01*
X173140000Y-97890000D02*
X174000000Y-97890000D01*
X189856259Y-98640000D02*
G75*
G02*
X189996259Y-98499959I140041J0D01*
G01*
X192396259Y-98500000D02*
X192516259Y-98500000D01*
X182656259Y-100360000D02*
X182656259Y-99500000D01*
X186753687Y-93500000D02*
X186873687Y-93500000D01*
X184590983Y-98000000D02*
G75*
G02*
X184451000Y-97860000I17J140000D01*
G01*
X181716259Y-100500000D02*
G75*
G03*
X181856300Y-100360000I41J140000D01*
G01*
X180353687Y-93500000D02*
X180473687Y-93500000D01*
X183460000Y-91140000D02*
X183460000Y-92000000D01*
X184656259Y-100360000D02*
G75*
G03*
X184796259Y-100500041I140041J0D01*
G01*
X187456259Y-99500000D02*
X187456259Y-98640000D01*
X182116259Y-98500000D02*
G75*
G02*
X182256300Y-98640000I41J-140000D01*
G01*
X186850983Y-96140000D02*
G75*
G03*
X186710983Y-96000017I-139983J0D01*
G01*
X193716259Y-100500000D02*
G75*
G03*
X193856300Y-100360000I41J140000D01*
G01*
X190050983Y-97000000D02*
X190050983Y-96140000D01*
X186916259Y-98500000D02*
G75*
G02*
X187056300Y-98640000I41J-140000D01*
G01*
X175716259Y-98500000D02*
G75*
G02*
X175856300Y-98640000I41J-140000D01*
G01*
X194450983Y-97860000D02*
G75*
G02*
X194310983Y-97999983I-139983J0D01*
G01*
X180850983Y-97860000D02*
G75*
G02*
X180710983Y-97999983I-139983J0D01*
G01*
X193856259Y-98640000D02*
G75*
G02*
X193996259Y-98499959I140041J0D01*
G01*
X181910983Y-96000000D02*
X181790983Y-96000000D01*
X176516259Y-98500000D02*
G75*
G02*
X176656300Y-98640000I41J-140000D01*
G01*
X190660000Y-91140000D02*
X190660000Y-92000000D01*
X194116259Y-98500000D02*
G75*
G02*
X194256300Y-98640000I41J-140000D01*
G01*
X183596259Y-98500000D02*
X183716259Y-98500000D01*
X177400000Y-95300000D02*
G75*
G03*
X177260000Y-95160000I-140000J0D01*
G01*
X189250983Y-97860000D02*
X189250983Y-97000000D01*
X187813687Y-94500000D02*
X187813687Y-95360000D01*
X175296801Y-93788985D02*
X175211948Y-93873837D01*
X194990983Y-98000000D02*
G75*
G02*
X194851000Y-97860000I17J140000D01*
G01*
X189196259Y-98500000D02*
X189316259Y-98500000D01*
X194000000Y-94500000D02*
X194000000Y-93500000D01*
X190516259Y-100500000D02*
G75*
G03*
X190656300Y-100360000I41J140000D01*
G01*
X184073687Y-95500000D02*
G75*
G03*
X184213700Y-95360000I13J140000D01*
G01*
X191390983Y-96000000D02*
G75*
G03*
X191251000Y-96140000I17J-140000D01*
G01*
X186116259Y-98500000D02*
G75*
G02*
X186256300Y-98640000I41J-140000D01*
G01*
X192190983Y-96000000D02*
G75*
G03*
X192051000Y-96140000I17J-140000D01*
G01*
X183996259Y-100500000D02*
X184116259Y-100500000D01*
X175890771Y-94892073D02*
X175749349Y-95033496D01*
X197000000Y-101500000D02*
X196500000Y-101000000D01*
X178073687Y-93500000D02*
G75*
G02*
X178213700Y-93640000I13J-140000D01*
G01*
X193273687Y-93500000D02*
G75*
G02*
X193413700Y-93640000I13J-140000D01*
G01*
X177196259Y-98500000D02*
X177316259Y-98500000D01*
X178213687Y-95360000D02*
G75*
G03*
X178353687Y-95500013I140013J0D01*
G01*
X196240983Y-97000000D02*
X195790983Y-97000000D01*
X192450983Y-96140000D02*
G75*
G03*
X192310983Y-96000017I-139983J0D01*
G01*
X193600481Y-91686268D02*
X193515628Y-91601415D01*
X181456259Y-98640000D02*
X181456259Y-99500000D01*
X185553687Y-95500000D02*
X185673687Y-95500000D01*
X192050983Y-97860000D02*
G75*
G02*
X191910983Y-97999983I-139983J0D01*
G01*
X185856259Y-98640000D02*
G75*
G02*
X185996259Y-98499959I140041J0D01*
G01*
X190990983Y-98000000D02*
G75*
G02*
X190851000Y-97860000I17J140000D01*
G01*
X179013687Y-95360000D02*
G75*
G03*
X179153687Y-95500013I140013J0D01*
G01*
X190850983Y-96140000D02*
G75*
G03*
X190710983Y-96000017I-139983J0D01*
G01*
X190050983Y-96140000D02*
G75*
G03*
X189910983Y-96000017I-139983J0D01*
G01*
X187460000Y-92860000D02*
G75*
G02*
X187320000Y-93000000I-140000J0D01*
G01*
X189790983Y-96000000D02*
G75*
G03*
X189651000Y-96140000I17J-140000D01*
G01*
X186920000Y-91000000D02*
X186800000Y-91000000D01*
X175000000Y-99500000D02*
X175316259Y-99500000D01*
X179813687Y-94500000D02*
X179813687Y-95360000D01*
X189650983Y-97860000D02*
G75*
G02*
X189510983Y-97999983I-139983J0D01*
G01*
X189390983Y-98000000D02*
G75*
G02*
X189251000Y-97860000I17J140000D01*
G01*
X174000000Y-99630000D02*
X174000000Y-99750000D01*
X189250983Y-96140000D02*
G75*
G03*
X189110983Y-96000017I-139983J0D01*
G01*
X180796259Y-100500000D02*
X180916259Y-100500000D01*
X180873687Y-95500000D02*
G75*
G03*
X181013700Y-95360000I13J140000D01*
G01*
X183856259Y-99500000D02*
X183856259Y-100360000D01*
X175820059Y-94679938D02*
X175890771Y-94750651D01*
X188450983Y-96140000D02*
G75*
G03*
X188310983Y-96000017I-139983J0D01*
G01*
X178613687Y-94500000D02*
X178613687Y-93640000D01*
X189013687Y-93640000D02*
G75*
G02*
X189153687Y-93499987I140013J0D01*
G01*
X184613687Y-95360000D02*
G75*
G03*
X184753687Y-95500013I140013J0D01*
G01*
X185056259Y-98640000D02*
G75*
G02*
X185196259Y-98499959I140041J0D01*
G01*
X191650983Y-97000000D02*
X191650983Y-96140000D01*
X181413687Y-95360000D02*
G75*
G03*
X181553687Y-95500013I140013J0D01*
G01*
X188190983Y-96000000D02*
G75*
G03*
X188051000Y-96140000I17J-140000D01*
G01*
X176887795Y-94050614D02*
X176668592Y-93831411D01*
X181456259Y-99500000D02*
X181456259Y-100360000D01*
X192850983Y-97860000D02*
G75*
G02*
X192710983Y-97999983I-139983J0D01*
G01*
X191510983Y-96000000D02*
X191390983Y-96000000D01*
X176909008Y-92374767D02*
X177418124Y-92883883D01*
X181813687Y-93640000D02*
G75*
G02*
X181953687Y-93499987I140013J0D01*
G01*
X187390983Y-96000000D02*
G75*
G03*
X187251000Y-96140000I17J-140000D01*
G01*
X194190983Y-98000000D02*
G75*
G02*
X194051000Y-97860000I17J140000D01*
G01*
X182473687Y-95500000D02*
G75*
G03*
X182613700Y-95360000I13J140000D01*
G01*
X180213687Y-94500000D02*
X180213687Y-93640000D01*
X183720000Y-91000000D02*
X183600000Y-91000000D01*
X187200000Y-93000000D02*
G75*
G02*
X187060000Y-92860000I0J140000D01*
G01*
X186990983Y-98000000D02*
G75*
G02*
X186851000Y-97860000I17J140000D01*
G01*
X188613687Y-93640000D02*
X188613687Y-94500000D01*
X183196259Y-100500000D02*
X183316259Y-100500000D01*
X176534240Y-94460736D02*
X176449387Y-94545590D01*
X187456259Y-100360000D02*
X187456259Y-99500000D01*
X185650983Y-97000000D02*
X185650983Y-97860000D01*
X186450983Y-97860000D02*
G75*
G02*
X186310983Y-97999983I-139983J0D01*
G01*
X183673687Y-93500000D02*
G75*
G02*
X183813700Y-93640000I13J-140000D01*
G01*
X184450983Y-96140000D02*
G75*
G03*
X184310983Y-96000017I-139983J0D01*
G01*
X185813687Y-93640000D02*
G75*
G02*
X185953687Y-93499987I140013J0D01*
G01*
X183650983Y-96140000D02*
G75*
G03*
X183510983Y-96000017I-139983J0D01*
G01*
X184256259Y-99500000D02*
X184256259Y-98640000D01*
X188710983Y-98000000D02*
X188590983Y-98000000D01*
X175537219Y-94962785D02*
X174929105Y-94354671D01*
X183390983Y-96000000D02*
G75*
G03*
X183251000Y-96140000I17J-140000D01*
G01*
X176993861Y-92091925D02*
X176909008Y-92176777D01*
X183250983Y-97860000D02*
G75*
G02*
X183110983Y-97999983I-139983J0D01*
G01*
X182990983Y-98000000D02*
G75*
G02*
X182851000Y-97860000I17J140000D01*
G01*
X192992370Y-92492371D02*
X193600481Y-91884258D01*
X182850983Y-96140000D02*
G75*
G03*
X182710983Y-96000017I-139983J0D01*
G01*
X182590983Y-96000000D02*
G75*
G03*
X182451000Y-96140000I17J-140000D01*
G01*
X179153687Y-95500000D02*
X179273687Y-95500000D01*
X184660000Y-92860000D02*
X184660000Y-92000000D01*
X176449387Y-94545590D02*
G75*
G02*
X176251397Y-94545590I-98995J98995D01*
G01*
X175494791Y-93788985D02*
G75*
G03*
X175296801Y-93788985I-98995J-98995D01*
G01*
X182190983Y-98000000D02*
G75*
G02*
X182051000Y-97860000I17J140000D01*
G01*
X175211948Y-93873837D02*
G75*
G03*
X175211980Y-94071795I98952J-98963D01*
G01*
X182050983Y-96140000D02*
G75*
G03*
X181910983Y-96000017I-139983J0D01*
G01*
X175890771Y-94750651D02*
G75*
G02*
X175890809Y-94892111I-70671J-70749D01*
G01*
X183456259Y-100360000D02*
X183456259Y-99500000D01*
X189650983Y-97000000D02*
X189650983Y-97860000D01*
X176251397Y-94545590D02*
X176102905Y-94397098D01*
X181790983Y-96000000D02*
G75*
G03*
X181651000Y-96140000I17J-140000D01*
G01*
X179456259Y-99500000D02*
X179456259Y-98640000D01*
X184873687Y-95500000D02*
G75*
G03*
X185013700Y-95360000I13J140000D01*
G01*
X180260000Y-92000000D02*
X180260000Y-92860000D01*
X175749348Y-95033495D02*
G75*
G02*
X175607890Y-95033534I-70748J70695D01*
G01*
X174929105Y-94354671D02*
G75*
G03*
X174731115Y-94354671I-98995J-98995D01*
G01*
X181390983Y-98000000D02*
G75*
G02*
X181251000Y-97860000I17J140000D01*
G01*
X190656259Y-100360000D02*
X190656259Y-99500000D01*
X180990983Y-96000000D02*
G75*
G03*
X180851000Y-96140000I17J-140000D01*
G01*
X175367511Y-95556754D02*
X175282660Y-95641606D01*
X180450983Y-96140000D02*
G75*
G03*
X180310983Y-96000017I-139983J0D01*
G01*
X191600000Y-92000000D02*
G75*
G03*
X191460000Y-92140000I0J-140000D01*
G01*
X188520000Y-91000000D02*
X188400000Y-91000000D01*
X180050983Y-97860000D02*
G75*
G02*
X179910983Y-97999983I-139983J0D01*
G01*
X194796259Y-98500000D02*
X194916259Y-98500000D01*
X179790983Y-98000000D02*
G75*
G02*
X179651000Y-97860000I17J140000D01*
G01*
X178310983Y-98000000D02*
X178190983Y-98000000D01*
X179650983Y-96140000D02*
G75*
G03*
X179510983Y-96000017I-139983J0D01*
G01*
X178796259Y-98500000D02*
X178916259Y-98500000D01*
X194050983Y-97860000D02*
X194050983Y-97000000D01*
X183013687Y-94500000D02*
X183013687Y-95360000D01*
X174460000Y-97090000D02*
G75*
G02*
X174600000Y-97230000I0J-140000D01*
G01*
X187720000Y-91000000D02*
X187600000Y-91000000D01*
X187673687Y-93500000D02*
G75*
G02*
X187813700Y-93640000I13J-140000D01*
G01*
X179250983Y-97860000D02*
G75*
G02*
X179110983Y-97999983I-139983J0D01*
G01*
X174600000Y-97350000D02*
G75*
G02*
X174460000Y-97490000I-140000J0D01*
G01*
X189856259Y-99500000D02*
X189856259Y-98640000D01*
X187056259Y-99500000D02*
X187056259Y-100360000D01*
X173140000Y-97490000D02*
G75*
G03*
X173000000Y-97630000I0J-140000D01*
G01*
X178850983Y-96140000D02*
G75*
G03*
X178710983Y-96000017I-139983J0D01*
G01*
X192990983Y-96000000D02*
G75*
G03*
X192851000Y-96140000I17J-140000D01*
G01*
X178590983Y-96000000D02*
G75*
G03*
X178451000Y-96140000I17J-140000D01*
G01*
X178450983Y-97860000D02*
G75*
G02*
X178310983Y-97999983I-139983J0D01*
G01*
X180656259Y-98640000D02*
X180656259Y-99500000D01*
X192450983Y-97000000D02*
X192450983Y-96140000D01*
X175000000Y-98150000D02*
G75*
G02*
X174860000Y-98290000I-140000J0D01*
G01*
X184450983Y-97000000D02*
X184450983Y-96140000D01*
X178190983Y-98000000D02*
G75*
G02*
X178051000Y-97860000I17J140000D01*
G01*
X173140000Y-98290000D02*
G75*
G03*
X173000000Y-98430000I0J-140000D01*
G01*
X178050983Y-96140000D02*
G75*
G03*
X177910983Y-96000017I-139983J0D01*
G01*
X177953687Y-93500000D02*
X178073687Y-93500000D01*
X173000000Y-98550000D02*
G75*
G03*
X173140000Y-98690000I140000J0D01*
G01*
X177790983Y-96000000D02*
G75*
G03*
X177651000Y-96140000I17J-140000D01*
G01*
X185460000Y-92860000D02*
X185460000Y-92000000D01*
X177650983Y-96860000D02*
G75*
G02*
X177510983Y-96999983I-139983J0D01*
G01*
X191460000Y-92860000D02*
G75*
G02*
X191320000Y-93000000I-140000J0D01*
G01*
X177000000Y-96100000D02*
G75*
G03*
X176860000Y-95960000I-140000J0D01*
G01*
X178256259Y-98640000D02*
X178256259Y-99500000D01*
X191996259Y-100500000D02*
X192116259Y-100500000D01*
X194850983Y-97000000D02*
X194850983Y-96140000D01*
X173140000Y-99090000D02*
G75*
G03*
X173000000Y-99230000I0J-140000D01*
G01*
X186353687Y-95500000D02*
X186473687Y-95500000D01*
X176140000Y-95960000D02*
G75*
G02*
X176000000Y-95820000I0J140000D01*
G01*
X173000000Y-99350000D02*
G75*
G03*
X173140000Y-99490000I140000J0D01*
G01*
X176000000Y-95700000D02*
G75*
G02*
X176140000Y-95560000I140000J0D01*
G01*
X173860000Y-99490000D02*
G75*
G02*
X174000000Y-99630000I0J-140000D01*
G01*
X177260000Y-95560000D02*
G75*
G03*
X177400000Y-95420000I0J140000D01*
G01*
X175456259Y-99360000D02*
X175456259Y-98640000D01*
X195456259Y-99500000D02*
X195456259Y-98640000D01*
X179953687Y-95500000D02*
X180073687Y-95500000D01*
X177140000Y-95160000D02*
G75*
G02*
X177000000Y-95020000I0J140000D01*
G01*
X177673687Y-94500000D02*
G75*
G03*
X177813700Y-94360000I13J140000D01*
G01*
X177813687Y-93640000D02*
G75*
G02*
X177953687Y-93499987I140013J0D01*
G01*
X193413687Y-94360000D02*
G75*
G03*
X193553687Y-94500013I140013J0D01*
G01*
X191056259Y-100360000D02*
G75*
G03*
X191196259Y-100500041I140041J0D01*
G01*
X178473687Y-95500000D02*
G75*
G03*
X178613700Y-95360000I13J140000D01*
G01*
X191316259Y-100500000D02*
G75*
G03*
X191456300Y-100360000I41J140000D01*
G01*
X193510983Y-98000000D02*
X193390983Y-98000000D01*
X183813687Y-93640000D02*
X183813687Y-94500000D01*
X178613687Y-93640000D02*
G75*
G02*
X178753687Y-93499987I140013J0D01*
G01*
X179510983Y-96000000D02*
X179390983Y-96000000D01*
X185856259Y-100360000D02*
X185856259Y-99500000D01*
X187250983Y-97000000D02*
X187250983Y-97860000D01*
X191856259Y-100360000D02*
G75*
G03*
X191996259Y-100500041I140041J0D01*
G01*
X185413687Y-95360000D02*
G75*
G03*
X185553687Y-95500013I140013J0D01*
G01*
X179273687Y-95500000D02*
G75*
G03*
X179413700Y-95360000I13J140000D01*
G01*
X180660000Y-92860000D02*
X180660000Y-92000000D01*
X179413687Y-93640000D02*
G75*
G02*
X179553687Y-93499987I140013J0D01*
G01*
X191413687Y-95360000D02*
X191413687Y-94500000D01*
X177056259Y-98640000D02*
G75*
G02*
X177196259Y-98499959I140041J0D01*
G01*
X177400000Y-95420000D02*
X177400000Y-95300000D01*
X186260000Y-92860000D02*
X186260000Y-92000000D01*
X179673687Y-93500000D02*
G75*
G02*
X179813700Y-93640000I13J-140000D01*
G01*
X185910983Y-96000000D02*
X185790983Y-96000000D01*
X177316259Y-98500000D02*
G75*
G02*
X177456300Y-98640000I41J-140000D01*
G01*
X179813687Y-95360000D02*
G75*
G03*
X179953687Y-95500013I140013J0D01*
G01*
X174860000Y-98290000D02*
X174000000Y-98290000D01*
X177456259Y-100360000D02*
G75*
G03*
X177596259Y-100500041I140041J0D01*
G01*
X180073687Y-95500000D02*
G75*
G03*
X180213700Y-95360000I13J140000D01*
G01*
X177716259Y-100500000D02*
G75*
G03*
X177856300Y-100360000I41J140000D01*
G01*
X185813687Y-95360000D02*
X185813687Y-94500000D01*
X180213687Y-93640000D02*
G75*
G02*
X180353687Y-93499987I140013J0D01*
G01*
X174850000Y-98830000D02*
X174850000Y-98950000D01*
X180473687Y-93500000D02*
G75*
G02*
X180613700Y-93640000I13J-140000D01*
G01*
X181013687Y-93640000D02*
G75*
G02*
X181153687Y-93499987I140013J0D01*
G01*
X180256259Y-99500000D02*
X180256259Y-98640000D01*
X192710983Y-98000000D02*
X192590983Y-98000000D01*
X178916259Y-98500000D02*
G75*
G02*
X179056300Y-98640000I41J-140000D01*
G01*
X177510983Y-97000000D02*
X177390983Y-97000000D01*
X183013687Y-95360000D02*
G75*
G03*
X183153687Y-95500013I140013J0D01*
G01*
X180710983Y-98000000D02*
X180590983Y-98000000D01*
X179056259Y-100360000D02*
G75*
G03*
X179196259Y-100500041I140041J0D01*
G01*
X177000000Y-97000000D02*
X177000000Y-96100000D01*
X183273687Y-95500000D02*
G75*
G03*
X183413700Y-95360000I13J140000D01*
G01*
X196500000Y-98600000D02*
G75*
G02*
X196640000Y-98460000I140000J0D01*
G01*
X178450983Y-97000000D02*
X178450983Y-97860000D01*
X183413687Y-93640000D02*
G75*
G02*
X183553687Y-93499987I140013J0D01*
G01*
X191056259Y-99500000D02*
X191056259Y-100360000D01*
X179856259Y-100360000D02*
G75*
G03*
X179996259Y-100500041I140041J0D01*
G01*
X184050983Y-97000000D02*
X184050983Y-97860000D01*
X196100000Y-97800000D02*
G75*
G02*
X196240000Y-97660000I140000J0D01*
G01*
X174000000Y-98690000D02*
X174710000Y-98690000D01*
X180116259Y-100500000D02*
G75*
G03*
X180256300Y-100360000I41J140000D01*
G01*
X184473687Y-93500000D02*
G75*
G02*
X184613700Y-93640000I13J-140000D01*
G01*
X180516259Y-98500000D02*
G75*
G02*
X180656300Y-98640000I41J-140000D01*
G01*
X185673687Y-95500000D02*
G75*
G03*
X185813700Y-95360000I13J140000D01*
G01*
X173000000Y-99230000D02*
X173000000Y-99350000D01*
X186873687Y-93500000D02*
G75*
G02*
X187013700Y-93640000I13J-140000D01*
G01*
X179013687Y-94500000D02*
X179013687Y-95360000D01*
X184920000Y-93000000D02*
X184800000Y-93000000D01*
X179056259Y-98640000D02*
X179056259Y-99500000D01*
X194050983Y-97000000D02*
X194050983Y-96140000D01*
X187860000Y-92860000D02*
X187860000Y-92000000D01*
X187273687Y-95500000D02*
G75*
G03*
X187413700Y-95360000I13J140000D01*
G01*
X193456259Y-98640000D02*
X193456259Y-99500000D01*
X193596259Y-100500000D02*
X193716259Y-100500000D01*
X189553687Y-95500000D02*
X189673687Y-95500000D01*
X193856259Y-100360000D02*
X193856259Y-99500000D01*
X189813687Y-95360000D02*
X189813687Y-94500000D01*
X193856259Y-99500000D02*
X193856259Y-98640000D01*
X189813687Y-94500000D02*
X189813687Y-93640000D01*
X193996259Y-98500000D02*
X194116259Y-98500000D01*
X189953687Y-93500000D02*
X190073687Y-93500000D01*
X194396259Y-100500000D02*
X194516259Y-100500000D01*
X190353687Y-95500000D02*
X190473687Y-95500000D01*
X194656259Y-100360000D02*
X194656259Y-99500000D01*
X194656259Y-99500000D02*
X194656259Y-98640000D01*
X186450983Y-96140000D02*
X186450983Y-97000000D01*
X195056259Y-98640000D02*
X195056259Y-99500000D01*
X195056259Y-99500000D02*
X195056259Y-100360000D01*
X186050983Y-97860000D02*
X186050983Y-97000000D01*
X195196259Y-100500000D02*
X195316259Y-100500000D01*
X195596259Y-98500000D02*
X195716259Y-98500000D01*
X196116259Y-99500000D02*
X196500000Y-99500000D01*
X181510983Y-98000000D02*
X181390983Y-98000000D01*
X196500000Y-99500000D02*
X196500000Y-98600000D01*
X197500000Y-98320000D02*
X197500000Y-98200000D01*
X197360000Y-98060000D02*
X196640000Y-98060000D01*
X196100000Y-97920000D02*
X196100000Y-97800000D01*
X189860000Y-91140000D02*
X189860000Y-92000000D01*
X196500000Y-97400000D02*
X196500000Y-97259017D01*
X196500000Y-97259017D02*
X196240983Y-97000000D01*
X181553687Y-95500000D02*
X181673687Y-95500000D01*
X195510983Y-96000000D02*
X195390983Y-96000000D01*
X195250983Y-96140000D02*
X195250983Y-96860000D01*
X181813687Y-94500000D02*
X181813687Y-93640000D01*
X194850983Y-97860000D02*
X194850983Y-97000000D01*
X182213687Y-94500000D02*
X182213687Y-95360000D01*
X194450983Y-97000000D02*
X194450983Y-97860000D01*
X193650983Y-96140000D02*
X193650983Y-97000000D01*
X193250983Y-97000000D02*
X193250983Y-96140000D01*
X187320000Y-93000000D02*
X187200000Y-93000000D01*
X193110983Y-96000000D02*
X192990983Y-96000000D01*
X192850983Y-97000000D02*
X192850983Y-97860000D01*
X192310983Y-96000000D02*
X192190983Y-96000000D01*
X192050983Y-96140000D02*
X192050983Y-97000000D01*
X192050983Y-97000000D02*
X192050983Y-97860000D01*
X185153687Y-93500000D02*
X185273687Y-93500000D01*
X191910983Y-98000000D02*
X191790983Y-98000000D01*
X191650983Y-97860000D02*
X191650983Y-97000000D01*
X191250983Y-97000000D02*
X191250983Y-97860000D01*
X185953687Y-93500000D02*
X186073687Y-93500000D01*
X177333272Y-93166727D02*
X177333272Y-93166728D01*
X190850983Y-97860000D02*
X190850983Y-97000000D01*
X186213687Y-94500000D02*
X186213687Y-95360000D01*
X190710983Y-96000000D02*
X190590983Y-96000000D01*
X189650983Y-96140000D02*
X189650983Y-97000000D01*
X187413687Y-94500000D02*
X187413687Y-93640000D01*
X189250983Y-97000000D02*
X189250983Y-96140000D01*
X175211948Y-94071827D02*
X175820059Y-94679938D01*
X189110983Y-96000000D02*
X188990983Y-96000000D01*
X188850983Y-96140000D02*
X188850983Y-97000000D01*
X188213687Y-94500000D02*
X188213687Y-93640000D01*
X188050983Y-97000000D02*
X188050983Y-97860000D01*
X189720000Y-93000000D02*
X189600000Y-93000000D01*
X187910983Y-98000000D02*
X187790983Y-98000000D01*
X187650983Y-97860000D02*
X187650983Y-97000000D01*
X187510983Y-96000000D02*
X187390983Y-96000000D01*
X187250983Y-96140000D02*
X187250983Y-97000000D01*
X186850983Y-97000000D02*
X186850983Y-96140000D01*
X186050983Y-97000000D02*
X186050983Y-96140000D01*
X187860000Y-92000000D02*
X187860000Y-91140000D01*
X185650983Y-96140000D02*
X185650983Y-97000000D01*
X191413687Y-94500000D02*
X191413687Y-93640000D01*
X185510983Y-98000000D02*
X185390983Y-98000000D01*
X184710983Y-98000000D02*
X184590983Y-98000000D01*
X184450983Y-97860000D02*
X184450983Y-97000000D01*
X192613687Y-94500000D02*
X192613687Y-95360000D01*
X184310983Y-96000000D02*
X184190983Y-96000000D01*
X184050983Y-96140000D02*
X184050983Y-97000000D01*
X193013687Y-94500000D02*
X193013687Y-93640000D01*
X178500000Y-92000000D02*
X178181802Y-92318198D01*
X183910983Y-98000000D02*
X183790983Y-98000000D01*
X183650983Y-97860000D02*
X183650983Y-97000000D01*
X183510983Y-96000000D02*
X183390983Y-96000000D01*
X183250983Y-96140000D02*
X183250983Y-97000000D01*
X183250983Y-97000000D02*
X183250983Y-97860000D01*
X185320000Y-91000000D02*
X185200000Y-91000000D01*
X183110983Y-98000000D02*
X182990983Y-98000000D01*
X182850983Y-97860000D02*
X182850983Y-97000000D01*
X182850983Y-97000000D02*
X182850983Y-96140000D01*
X182710983Y-96000000D02*
X182590983Y-96000000D01*
X182450983Y-96140000D02*
X182450983Y-97000000D01*
X182450983Y-97000000D02*
X182450983Y-97860000D01*
X182050983Y-97860000D02*
X182050983Y-97000000D01*
X182050983Y-97000000D02*
X182050983Y-96140000D01*
X181650983Y-96140000D02*
X181650983Y-97000000D01*
X181650983Y-97000000D02*
X181650983Y-97860000D01*
X181250983Y-97860000D02*
X181250983Y-97000000D01*
X181250983Y-97000000D02*
X181250983Y-96140000D01*
X181110983Y-96000000D02*
X180990983Y-96000000D01*
X180850983Y-96140000D02*
X180850983Y-97000000D01*
X180850983Y-97000000D02*
X180850983Y-97860000D01*
X180450983Y-97000000D02*
X180450983Y-96140000D01*
X180310983Y-96000000D02*
X180190983Y-96000000D01*
X180050983Y-96140000D02*
X180050983Y-97000000D01*
X180050983Y-97000000D02*
X180050983Y-97860000D01*
X179650983Y-97860000D02*
X179650983Y-97000000D01*
X179650983Y-97000000D02*
X179650983Y-96140000D01*
X179110983Y-98000000D02*
X178990983Y-98000000D01*
X178850983Y-97860000D02*
X178850983Y-97000000D01*
X178710983Y-96000000D02*
X178590983Y-96000000D01*
X178450983Y-96140000D02*
X178450983Y-97000000D01*
X178050983Y-97860000D02*
X178050983Y-97000000D01*
X178050983Y-97000000D02*
X178050983Y-96140000D01*
X177910983Y-96000000D02*
X177790983Y-96000000D01*
X177650983Y-96140000D02*
X177650983Y-96860000D01*
X177390983Y-97000000D02*
X177000000Y-97000000D01*
X173000000Y-98430000D02*
X173000000Y-98550000D01*
X176860000Y-95960000D02*
X176140000Y-95960000D01*
X187060000Y-92000000D02*
X187060000Y-91140000D01*
X176000000Y-95820000D02*
X176000000Y-95700000D01*
X176140000Y-95560000D02*
X176860000Y-95560000D01*
X176860000Y-95560000D02*
X177260000Y-95560000D01*
X177000000Y-94900000D02*
X177000000Y-94723687D01*
X178213687Y-93640000D02*
X178213687Y-94360000D01*
X178353687Y-95500000D02*
X178473687Y-95500000D01*
X178753687Y-93500000D02*
X178873687Y-93500000D01*
X179013687Y-93640000D02*
X179013687Y-94500000D01*
X179413687Y-95360000D02*
X179413687Y-94500000D01*
X179413687Y-94500000D02*
X179413687Y-93640000D01*
X184520000Y-91000000D02*
X184400000Y-91000000D01*
X179553687Y-93500000D02*
X179673687Y-93500000D01*
X184260000Y-91140000D02*
X184260000Y-92000000D01*
X179813687Y-93640000D02*
X179813687Y-94500000D01*
X180213687Y-95360000D02*
X180213687Y-94500000D01*
X180613687Y-93640000D02*
X180613687Y-94500000D01*
X180753687Y-95500000D02*
X180873687Y-95500000D01*
X181013687Y-95360000D02*
X181013687Y-94500000D01*
X183060000Y-92000000D02*
X183060000Y-91140000D01*
X181153687Y-93500000D02*
X181273687Y-93500000D01*
X181413687Y-93640000D02*
X181413687Y-94500000D01*
X182660000Y-92000000D02*
X182660000Y-92860000D01*
X181813687Y-95360000D02*
X181813687Y-94500000D01*
X182260000Y-92000000D02*
X182260000Y-91140000D01*
X182353687Y-95500000D02*
X182473687Y-95500000D01*
X182613687Y-95360000D02*
X182613687Y-94500000D01*
X182613687Y-94500000D02*
X182613687Y-93640000D01*
X188660000Y-92000000D02*
X188660000Y-91140000D01*
X181320000Y-91000000D02*
X181200000Y-91000000D01*
X182753687Y-93500000D02*
X182873687Y-93500000D01*
X181060000Y-91140000D02*
X181060000Y-92000000D01*
X183153687Y-95500000D02*
X183273687Y-95500000D01*
X183413687Y-95360000D02*
X183413687Y-94500000D01*
X180660000Y-92000000D02*
X180660000Y-91140000D01*
X184213687Y-95360000D02*
X184213687Y-94500000D01*
X184613687Y-93640000D02*
X184613687Y-94500000D01*
X179460000Y-92000000D02*
X179460000Y-92860000D01*
X184753687Y-95500000D02*
X184873687Y-95500000D01*
X174000000Y-99090000D02*
X173140000Y-99090000D01*
X185013687Y-95360000D02*
X185013687Y-94500000D01*
X185413687Y-93640000D02*
X185413687Y-94500000D01*
X185813687Y-94500000D02*
X185813687Y-93640000D01*
X186213687Y-93640000D02*
X186213687Y-94500000D01*
X177135282Y-93166728D02*
X176626165Y-92657611D01*
X186613687Y-95360000D02*
X186613687Y-94500000D01*
X176852438Y-93449569D02*
X177170638Y-93767770D01*
X187013687Y-93640000D02*
X187013687Y-94500000D01*
X188213687Y-95360000D02*
X188213687Y-94500000D01*
X188353687Y-93500000D02*
X188473687Y-93500000D01*
X190260000Y-92860000D02*
X190260000Y-92000000D01*
X188613687Y-94500000D02*
X188613687Y-95360000D01*
X189013687Y-95360000D02*
X189013687Y-94500000D01*
X189413687Y-93640000D02*
X189413687Y-94500000D01*
X189413687Y-94500000D02*
X189413687Y-95360000D01*
X190213687Y-93640000D02*
X190213687Y-94500000D01*
X190613687Y-95360000D02*
X190613687Y-94500000D01*
X190753687Y-93500000D02*
X190873687Y-93500000D01*
X191153687Y-95500000D02*
X191273687Y-95500000D01*
X191553687Y-93500000D02*
X191673687Y-93500000D01*
X191813687Y-93640000D02*
X191813687Y-94500000D01*
X191953687Y-95500000D02*
X192073687Y-95500000D01*
X192213687Y-95360000D02*
X192213687Y-94500000D01*
X192213687Y-94500000D02*
X192213687Y-93640000D01*
X192353687Y-93500000D02*
X192473687Y-93500000D01*
X192613687Y-93640000D02*
X192613687Y-94500000D01*
X192753687Y-95500000D02*
X192873687Y-95500000D01*
X193013687Y-95360000D02*
X193013687Y-94500000D01*
X193153687Y-93500000D02*
X193273687Y-93500000D01*
X178181802Y-92516188D02*
X178231300Y-92565686D01*
X193413687Y-93640000D02*
X193413687Y-94360000D01*
X178231300Y-92763676D02*
X178146447Y-92848530D01*
X193673687Y-94500000D02*
X194000000Y-94500000D01*
X177898960Y-92799033D02*
X177191851Y-92091925D01*
X194000000Y-93500000D02*
X193363604Y-92863604D01*
X193010050Y-92863604D02*
X192903983Y-92757537D01*
X192903983Y-92580761D02*
X192992370Y-92492371D01*
X192610531Y-92110531D02*
X192525679Y-92025679D01*
X192525679Y-92025679D02*
X192500000Y-92000000D01*
X191460000Y-92140000D02*
X191460000Y-92860000D01*
X191060000Y-92860000D02*
X191060000Y-92140000D01*
X191060000Y-92140000D02*
X191060000Y-91140000D01*
X190920000Y-91000000D02*
X190800000Y-91000000D01*
X190660000Y-92000000D02*
X190660000Y-92860000D01*
X190520000Y-93000000D02*
X190400000Y-93000000D01*
X190260000Y-92000000D02*
X190260000Y-91140000D01*
X190120000Y-91000000D02*
X190000000Y-91000000D01*
X189860000Y-92000000D02*
X189860000Y-92860000D01*
X189460000Y-92860000D02*
X189460000Y-92000000D01*
X189460000Y-92000000D02*
X189460000Y-91140000D01*
X189060000Y-91140000D02*
X189060000Y-92000000D01*
X188920000Y-93000000D02*
X188800000Y-93000000D01*
X188660000Y-92860000D02*
X188660000Y-92000000D01*
X188260000Y-92000000D02*
X188260000Y-92860000D01*
X188120000Y-93000000D02*
X188000000Y-93000000D01*
X187460000Y-91140000D02*
X187460000Y-92000000D01*
X187460000Y-92000000D02*
X187460000Y-92860000D01*
X187060000Y-92860000D02*
X187060000Y-92000000D01*
X186660000Y-91140000D02*
X186660000Y-92000000D01*
X186660000Y-92000000D02*
X186660000Y-92860000D01*
X186260000Y-92000000D02*
X186260000Y-91140000D01*
X174000000Y-100500000D02*
X173500000Y-101000000D01*
X185720000Y-93000000D02*
X185600000Y-93000000D01*
X185460000Y-92000000D02*
X185460000Y-91140000D01*
X185060000Y-91140000D02*
X185060000Y-92000000D01*
X185060000Y-92000000D02*
X185060000Y-92860000D01*
X184660000Y-92000000D02*
X184660000Y-91140000D01*
X184260000Y-92000000D02*
X184260000Y-92860000D01*
X184120000Y-93000000D02*
X184000000Y-93000000D01*
X183860000Y-92860000D02*
X183860000Y-92000000D01*
X183860000Y-92000000D02*
X183860000Y-91140000D01*
X183460000Y-92000000D02*
X183460000Y-92860000D01*
X183320000Y-93000000D02*
X183200000Y-93000000D01*
X182920000Y-91000000D02*
X182800000Y-91000000D01*
X182520000Y-93000000D02*
X182400000Y-93000000D01*
X182120000Y-91000000D02*
X182000000Y-91000000D01*
X181860000Y-92000000D02*
X181860000Y-92860000D01*
X181720000Y-93000000D02*
X181600000Y-93000000D01*
X181460000Y-92860000D02*
X181460000Y-92000000D01*
X180920000Y-93000000D02*
X180800000Y-93000000D01*
X180520000Y-91000000D02*
X180400000Y-91000000D01*
X180260000Y-91140000D02*
X180260000Y-92000000D01*
X179720000Y-91000000D02*
X179600000Y-91000000D01*
X179460000Y-91140000D02*
X179460000Y-92000000D01*
X179060000Y-92860000D02*
X179060000Y-92140000D01*
X176428175Y-92657611D02*
X176343322Y-92742463D01*
X176343322Y-92940453D02*
X176852438Y-93449569D01*
X176668592Y-93831411D02*
X176060478Y-93223298D01*
X175862488Y-93223298D02*
X175777635Y-93308150D01*
X174731115Y-94354671D02*
X174646262Y-94439523D01*
X174646262Y-94637513D02*
X175254373Y-95245624D01*
X175084670Y-95641606D02*
X174971533Y-95528469D01*
X174165430Y-94920356D02*
X174080577Y-95005208D01*
X175296801Y-96617413D02*
X175211948Y-96702267D01*
X175013958Y-96702267D02*
X174504842Y-96193151D01*
X174600000Y-97230000D02*
X174600000Y-97350000D01*
X174140000Y-97490000D02*
X173140000Y-97490000D01*
X173000000Y-97630000D02*
X173000000Y-97750000D01*
X174000000Y-97890000D02*
X174860000Y-97890000D01*
X175000000Y-98030000D02*
X175000000Y-98150000D01*
X174000000Y-98290000D02*
X173140000Y-98290000D01*
X173140000Y-98690000D02*
X174000000Y-98690000D01*
X174710000Y-99090000D02*
X174000000Y-99090000D01*
X173140000Y-99490000D02*
X173860000Y-99490000D01*
X174000000Y-99750000D02*
X174000000Y-100033785D01*
X173500000Y-101000000D02*
X171000000Y-101000000D01*
X190169907Y-102640000D02*
X190169907Y-103500000D01*
X188180000Y-107500000D02*
X188300000Y-107500000D01*
X189369907Y-103500000D02*
X189369907Y-104360000D01*
X181369907Y-104360000D02*
G75*
G03*
X181509907Y-104499993I139993J0D01*
G01*
X188969907Y-103500000D02*
X188969907Y-102640000D01*
X188569907Y-102640000D02*
X188569907Y-103500000D01*
X188169907Y-104360000D02*
X188169907Y-103500000D01*
X187909907Y-104500000D02*
X188029907Y-104500000D01*
X175987226Y-107146255D02*
G75*
G03*
X175789236Y-107146255I-98995J-98995D01*
G01*
X181250001Y-112000000D02*
G75*
G02*
X181110000Y-111860000I-1J140000D01*
G01*
X187650001Y-112000000D02*
G75*
G02*
X187510000Y-111860000I-1J140000D01*
G01*
X194969907Y-104360000D02*
G75*
G03*
X195109907Y-104499993I139993J0D01*
G01*
X187769907Y-103500000D02*
X187769907Y-104360000D01*
X187769907Y-102640000D02*
X187769907Y-103500000D01*
X178969907Y-104360000D02*
G75*
G03*
X179109907Y-104499993I139993J0D01*
G01*
X177250000Y-107300000D02*
G75*
G02*
X177125000Y-107425000I-125000J0D01*
G01*
X174000000Y-103723242D02*
X174000000Y-103400216D01*
X187369907Y-103500000D02*
X187369907Y-102640000D01*
X193380000Y-108500000D02*
X193500000Y-108500000D01*
X187369907Y-104360000D02*
X187369907Y-103500000D01*
X182580000Y-107500000D02*
X182700000Y-107500000D01*
X183110001Y-110140000D02*
X183110001Y-111000000D01*
X186969907Y-102640000D02*
X186969907Y-103500000D01*
X182180000Y-109500000D02*
X182300000Y-109500000D01*
X183510001Y-111860000D02*
X183510001Y-111000000D01*
X186569907Y-103500000D02*
X186569907Y-102640000D01*
X182050001Y-112000000D02*
G75*
G02*
X181910000Y-111860000I-1J140000D01*
G01*
X183910001Y-111000000D02*
X183910001Y-111860000D01*
X186569907Y-104360000D02*
X186569907Y-103500000D01*
X194169907Y-104360000D02*
G75*
G03*
X194309907Y-104499993I139993J0D01*
G01*
X181780000Y-107500000D02*
X181900000Y-107500000D01*
X183910001Y-110140000D02*
X183910001Y-111000000D01*
X185909907Y-102500000D02*
X186029907Y-102500000D01*
X175421544Y-109408999D02*
G75*
G02*
X175421540Y-109211005I98956J98999D01*
G01*
X182450001Y-110000000D02*
G75*
G03*
X182310000Y-110140000I-1J-140000D01*
G01*
X184570001Y-112000000D02*
X184450001Y-112000000D01*
X185769907Y-103500000D02*
X185769907Y-102640000D01*
X185976758Y-107000000D02*
G75*
G02*
X185836800Y-106860000I42J140000D01*
G01*
X184710001Y-111000000D02*
X184710001Y-111860000D01*
X185769907Y-104360000D02*
X185769907Y-103500000D01*
X174615436Y-107188678D02*
X174007323Y-107796788D01*
X185509907Y-104500000D02*
X185629907Y-104500000D01*
X193769907Y-102640000D02*
G75*
G02*
X193909907Y-102500007I139993J0D01*
G01*
X185369907Y-103500000D02*
X185369907Y-104360000D01*
X191240000Y-107640000D02*
G75*
G02*
X191380000Y-107500000I140000J0D01*
G01*
X185369907Y-102640000D02*
X185369907Y-103500000D01*
X176800404Y-108595829D02*
G75*
G03*
X176602414Y-108595829I-98995J-98995D01*
G01*
X182850001Y-112000000D02*
G75*
G02*
X182710000Y-111860000I-1J140000D01*
G01*
X174898280Y-107471522D02*
X175506391Y-106863410D01*
X184569907Y-103500000D02*
X184569907Y-104360000D01*
X181640000Y-107640000D02*
G75*
G02*
X181780000Y-107500000I140000J0D01*
G01*
X184309907Y-102500000D02*
X184429907Y-102500000D01*
X183909907Y-104500000D02*
X184029907Y-104500000D01*
X190569907Y-104360000D02*
X190569907Y-103500000D01*
X183369907Y-104360000D02*
X183369907Y-103500000D01*
X178580000Y-107500000D02*
X178700000Y-107500000D01*
X188580000Y-109500000D02*
X188700000Y-109500000D01*
X183509907Y-102500000D02*
X183629907Y-102500000D01*
X190709907Y-102500000D02*
X190829907Y-102500000D01*
X178840000Y-108500000D02*
X178840000Y-109360000D01*
X188840000Y-108500000D02*
X188840000Y-107640000D01*
X183109907Y-104500000D02*
X183229907Y-104500000D01*
X190309907Y-104500000D02*
X190429907Y-104500000D01*
X178440000Y-108500000D02*
X178440000Y-107640000D01*
X182969907Y-103500000D02*
X182969907Y-104360000D01*
X190169907Y-103500000D02*
X190169907Y-104360000D01*
X173140000Y-104383242D02*
G75*
G02*
X172999958Y-104243242I0J140042D01*
G01*
X182969907Y-102640000D02*
X182969907Y-103500000D01*
X182236758Y-106860000D02*
G75*
G02*
X182096758Y-106999958I-139958J0D01*
G01*
X178180000Y-109500000D02*
X178300000Y-109500000D01*
X182309907Y-104500000D02*
X182429907Y-104500000D01*
X182169907Y-103500000D02*
X182169907Y-104360000D01*
X181509907Y-104500000D02*
X181629907Y-104500000D01*
X186840000Y-108500000D02*
X186840000Y-109360000D01*
X181369907Y-102640000D02*
X181369907Y-103500000D01*
X191369907Y-102640000D02*
G75*
G02*
X191509907Y-102500007I139993J0D01*
G01*
X181109907Y-102500000D02*
X181229907Y-102500000D01*
X185640000Y-107640000D02*
G75*
G02*
X185780000Y-107500000I140000J0D01*
G01*
X192569907Y-102640000D02*
X192569907Y-103500000D01*
X180709907Y-104500000D02*
X180829907Y-104500000D01*
X180569907Y-103500000D02*
X180569907Y-104360000D01*
X180569907Y-102640000D02*
X180569907Y-103500000D01*
X185240000Y-109360000D02*
G75*
G03*
X185380000Y-109500000I140000J0D01*
G01*
X180169907Y-103500000D02*
X180169907Y-102640000D01*
X174233597Y-107004829D02*
G75*
G03*
X174233631Y-106806805I-98997J99029D01*
G01*
X186310001Y-111860000D02*
G75*
G02*
X186170001Y-112000001I-140001J0D01*
G01*
X179910001Y-111860000D02*
G75*
G02*
X179770001Y-112000001I-140001J0D01*
G01*
X179769907Y-103500000D02*
X179769907Y-104360000D01*
X179769907Y-102640000D02*
X179769907Y-103500000D01*
X179369907Y-103500000D02*
X179369907Y-102640000D01*
X179109907Y-104500000D02*
X179229907Y-104500000D01*
X178969907Y-103500000D02*
X178969907Y-104360000D01*
X178709907Y-102500000D02*
X178829907Y-102500000D01*
X178169907Y-102640000D02*
X178169907Y-103500000D01*
X177769907Y-103500000D02*
X177769907Y-102640000D01*
X177769907Y-104360000D02*
X177769907Y-103500000D01*
X185036758Y-105140000D02*
G75*
G03*
X184896758Y-105000042I-139958J0D01*
G01*
X176969907Y-103500000D02*
X176969907Y-102640000D01*
X176969907Y-104360000D02*
X176969907Y-103500000D01*
X176569907Y-102640000D02*
X176569907Y-103500000D01*
X176169907Y-104360000D02*
X176169907Y-103500000D01*
X175509907Y-102500000D02*
X175629907Y-102500000D01*
X184970001Y-110000000D02*
X184850001Y-110000000D01*
X175369907Y-103360000D02*
X175369907Y-102640000D01*
X191576758Y-107000000D02*
G75*
G02*
X191436800Y-106860000I42J140000D01*
G01*
X184709907Y-104500000D02*
X184829907Y-104500000D01*
X186636758Y-105140000D02*
G75*
G03*
X186496758Y-105000042I-139958J0D01*
G01*
X190700000Y-107500000D02*
G75*
G02*
X190840000Y-107640000I0J-140000D01*
G01*
X190050001Y-112000000D02*
G75*
G02*
X189910000Y-111860000I-1J140000D01*
G01*
X177295382Y-109232227D02*
G75*
G03*
X177097392Y-109232227I-98995J-98995D01*
G01*
X192236758Y-105140000D02*
G75*
G03*
X192096758Y-105000042I-139958J0D01*
G01*
X195296758Y-105000000D02*
X195176758Y-105000000D01*
X186970001Y-112000000D02*
X186850001Y-112000000D01*
X177296758Y-106000000D02*
X177176758Y-106000000D01*
X177509907Y-104500000D02*
X177629907Y-104500000D01*
X175000000Y-104523242D02*
G75*
G03*
X174860000Y-104383200I-140000J42D01*
G01*
X181769907Y-102640000D02*
G75*
G02*
X181909907Y-102500007I139993J0D01*
G01*
X174860000Y-104783242D02*
G75*
G03*
X175000042Y-104643242I0J140042D01*
G01*
X186840000Y-109360000D02*
G75*
G03*
X186980000Y-109500000I140000J0D01*
G01*
X177640000Y-108360000D02*
X177640000Y-107890000D01*
X187640000Y-108500000D02*
X187640000Y-109360000D01*
X173000000Y-104923242D02*
G75*
G02*
X173140000Y-104783200I140000J42D01*
G01*
X187976758Y-105000000D02*
G75*
G03*
X187836800Y-105140000I42J-140000D01*
G01*
X173140000Y-105183242D02*
G75*
G02*
X172999958Y-105043242I0J140042D01*
G01*
X187900000Y-109500000D02*
G75*
G03*
X188040000Y-109360000I0J140000D01*
G01*
X197360000Y-104890000D02*
G75*
G02*
X197500000Y-105030000I0J-140000D01*
G01*
X177443877Y-110017118D02*
X176835763Y-110625228D01*
X175000000Y-105323242D02*
G75*
G03*
X174860000Y-105183200I-140000J42D01*
G01*
X174860000Y-105583242D02*
G75*
G03*
X175000042Y-105443242I0J140042D01*
G01*
X179110001Y-110860000D02*
G75*
G02*
X178970001Y-111000001I-140001J0D01*
G01*
X177203462Y-111190917D02*
X177118609Y-111106064D01*
X173140000Y-105983242D02*
G75*
G02*
X172999958Y-105843242I0J140042D01*
G01*
X185910001Y-110140000D02*
G75*
G03*
X185770001Y-109999999I-140001J0D01*
G01*
X188896758Y-105000000D02*
X188776758Y-105000000D01*
X174000000Y-106123242D02*
G75*
G03*
X173860000Y-105983200I-140000J42D01*
G01*
X186050001Y-112000000D02*
G75*
G02*
X185910000Y-111860000I-1J140000D01*
G01*
X178636758Y-106860000D02*
X178636758Y-106000000D01*
X179909907Y-104500000D02*
X180029907Y-104500000D01*
X185240000Y-108500000D02*
X185240000Y-109360000D01*
X184569907Y-102640000D02*
X184569907Y-103500000D01*
X175463968Y-108037210D02*
X176072079Y-107429098D01*
X173724480Y-107711935D02*
G75*
G02*
X173724440Y-107513905I99020J99035D01*
G01*
X186450001Y-110000000D02*
G75*
G03*
X186310000Y-110140000I-1J-140000D01*
G01*
X180050001Y-110000000D02*
G75*
G03*
X179910000Y-110140000I-1J-140000D01*
G01*
X174290168Y-108277623D02*
G75*
G02*
X174290140Y-108079605I99032J99023D01*
G01*
X180850001Y-110000000D02*
G75*
G03*
X180710000Y-110140000I-1J-140000D01*
G01*
X187250001Y-110000000D02*
G75*
G03*
X187110000Y-110140000I-1J-140000D01*
G01*
X189769907Y-103500000D02*
X189769907Y-102640000D01*
X182569907Y-103500000D02*
X182569907Y-102640000D01*
X174573011Y-108362476D02*
G75*
G02*
X174375021Y-108362476I-98995J98995D01*
G01*
X187510001Y-110140000D02*
G75*
G03*
X187370001Y-109999999I-140001J0D01*
G01*
X181110001Y-110140000D02*
G75*
G03*
X180970001Y-109999999I-140001J0D01*
G01*
X176552920Y-110540375D02*
G75*
G02*
X176552940Y-110342405I98980J98975D01*
G01*
X190450001Y-110000000D02*
G75*
G03*
X190310000Y-110140000I-1J-140000D01*
G01*
X179250001Y-110000000D02*
G75*
G03*
X179110000Y-110140000I-1J-140000D01*
G01*
X173000000Y-105723242D02*
G75*
G02*
X173140000Y-105583200I140000J42D01*
G01*
X178096758Y-107000000D02*
X177976758Y-107000000D01*
X180309907Y-102500000D02*
X180429907Y-102500000D01*
X190969907Y-104360000D02*
G75*
G03*
X191109907Y-104499993I139993J0D01*
G01*
X185640000Y-108500000D02*
X185640000Y-107640000D01*
X179510001Y-110140000D02*
G75*
G03*
X179370001Y-109999999I-140001J0D01*
G01*
X179650001Y-112000000D02*
G75*
G02*
X179510000Y-111860000I-1J140000D01*
G01*
X193858577Y-111055638D02*
G75*
G02*
X193660587Y-111055638I-98995J98995D01*
G01*
X183576758Y-107000000D02*
G75*
G02*
X183436800Y-106860000I42J140000D01*
G01*
X180310001Y-110140000D02*
G75*
G03*
X180170001Y-109999999I-140001J0D01*
G01*
X179509907Y-102500000D02*
X179629907Y-102500000D01*
X174007323Y-107796788D02*
G75*
G02*
X173809333Y-107796788I-98995J98995D01*
G01*
X181910001Y-110140000D02*
G75*
G03*
X181770001Y-109999999I-140001J0D01*
G01*
X182236758Y-105140000D02*
X182236758Y-106000000D01*
X173860000Y-105583242D02*
X174860000Y-105583242D01*
X182310001Y-111860000D02*
G75*
G02*
X182170001Y-112000001I-140001J0D01*
G01*
X185836758Y-105140000D02*
G75*
G03*
X185696758Y-105000042I-139958J0D01*
G01*
X184169907Y-103500000D02*
X184169907Y-102640000D01*
X183110001Y-111860000D02*
G75*
G02*
X182970001Y-112000001I-140001J0D01*
G01*
X190840000Y-107640000D02*
X190840000Y-108500000D01*
X183250001Y-110000000D02*
G75*
G03*
X183110000Y-110140000I-1J-140000D01*
G01*
X176072079Y-107231108D02*
X175987226Y-107146255D01*
X183510001Y-110140000D02*
G75*
G03*
X183370001Y-109999999I-140001J0D01*
G01*
X184310001Y-110140000D02*
G75*
G03*
X184170001Y-109999999I-140001J0D01*
G01*
X186829907Y-102500000D02*
G75*
G02*
X186969900Y-102640000I-7J-140000D01*
G01*
X190710001Y-110140000D02*
G75*
G03*
X190570001Y-109999999I-140001J0D01*
G01*
X184450001Y-112000000D02*
G75*
G02*
X184310000Y-111860000I-1J140000D01*
G01*
X190850001Y-112000000D02*
G75*
G02*
X190710000Y-111860000I-1J140000D01*
G01*
X177656009Y-109946408D02*
G75*
G03*
X177514589Y-109946409I-70710J-70708D01*
G01*
X184710001Y-111860000D02*
G75*
G02*
X184570001Y-112000001I-140001J0D01*
G01*
X184850001Y-110000000D02*
G75*
G03*
X184710000Y-110140000I-1J-140000D01*
G01*
X189769907Y-104360000D02*
X189769907Y-103500000D01*
X181369907Y-103500000D02*
X181369907Y-104360000D01*
X185110001Y-110140000D02*
G75*
G03*
X184970001Y-109999999I-140001J0D01*
G01*
X188710001Y-110140000D02*
X188710001Y-111000000D01*
X185650001Y-110000000D02*
G75*
G03*
X185510000Y-110140000I-1J-140000D01*
G01*
X180169907Y-104360000D02*
X180169907Y-103500000D01*
X185380000Y-109500000D02*
X185500000Y-109500000D01*
X190569907Y-103500000D02*
X190569907Y-102640000D01*
X183369907Y-103500000D02*
X183369907Y-102640000D01*
X186710001Y-110140000D02*
G75*
G03*
X186570001Y-109999999I-140001J0D01*
G01*
X184840000Y-108500000D02*
X184840000Y-107640000D01*
X186850001Y-112000000D02*
G75*
G02*
X186710000Y-111860000I-1J140000D01*
G01*
X175421538Y-106580567D02*
G75*
G03*
X175223548Y-106580567I-98995J-98995D01*
G01*
X180450001Y-112000000D02*
G75*
G02*
X180310000Y-111860000I-1J140000D01*
G01*
X190969907Y-103500000D02*
X190969907Y-104360000D01*
X189909907Y-102500000D02*
X190029907Y-102500000D01*
X182709907Y-102500000D02*
X182829907Y-102500000D01*
X188040000Y-108500000D02*
X188040000Y-107640000D01*
X187110001Y-111860000D02*
G75*
G02*
X186970001Y-112000001I-140001J0D01*
G01*
X180710001Y-111860000D02*
G75*
G02*
X180570001Y-112000001I-140001J0D01*
G01*
X178969907Y-102640000D02*
X178969907Y-103500000D01*
X175506390Y-106863409D02*
G75*
G03*
X175506405Y-106665406I-98990J99009D01*
G01*
X188050001Y-110000000D02*
G75*
G03*
X187910000Y-110140000I-1J-140000D01*
G01*
X181650001Y-110000000D02*
G75*
G03*
X181510000Y-110140000I-1J-140000D01*
G01*
X194376758Y-105000000D02*
G75*
G03*
X194236800Y-105140000I42J-140000D01*
G01*
X174000000Y-103843242D02*
X174000000Y-103723242D01*
X188310001Y-110140000D02*
G75*
G03*
X188170001Y-109999999I-140001J0D01*
G01*
X188450001Y-112000000D02*
G75*
G02*
X188310000Y-111860000I-1J140000D01*
G01*
X188710001Y-111860000D02*
G75*
G02*
X188570001Y-112000001I-140001J0D01*
G01*
X176709907Y-104500000D02*
X176829907Y-104500000D01*
X189110001Y-110140000D02*
G75*
G03*
X188970001Y-109999999I-140001J0D01*
G01*
X189250001Y-112000000D02*
G75*
G02*
X189110000Y-111860000I-1J140000D01*
G01*
X189510001Y-111860000D02*
G75*
G02*
X189370001Y-112000001I-140001J0D01*
G01*
X193836758Y-106000000D02*
X193836758Y-105140000D01*
X189650001Y-110000000D02*
G75*
G03*
X189510000Y-110140000I-1J-140000D01*
G01*
X189910001Y-110140000D02*
G75*
G03*
X189770001Y-109999999I-140001J0D01*
G01*
X181436758Y-106860000D02*
G75*
G02*
X181296758Y-106999958I-139958J0D01*
G01*
X190310001Y-111860000D02*
G75*
G02*
X190170001Y-112000001I-140001J0D01*
G01*
X177380235Y-109515070D02*
G75*
G03*
X177380210Y-109317105I-99035J98970D01*
G01*
X188709907Y-104500000D02*
X188829907Y-104500000D01*
X188376758Y-107000000D02*
G75*
G02*
X188236800Y-106860000I42J140000D01*
G01*
X191110001Y-111860000D02*
G75*
G02*
X190970001Y-112000001I-140001J0D01*
G01*
X177797431Y-110229252D02*
G75*
G03*
X177797472Y-110087789I-70731J70752D01*
G01*
X188170001Y-110000000D02*
X188050001Y-110000000D01*
X186309907Y-104500000D02*
X186429907Y-104500000D01*
X181640000Y-108500000D02*
X181640000Y-107640000D01*
X184170001Y-110000000D02*
X184050001Y-110000000D01*
X191250001Y-110000000D02*
G75*
G03*
X191110000Y-110140000I-1J-140000D01*
G01*
X182569907Y-104360000D02*
X182569907Y-103500000D01*
X177118609Y-111106064D02*
G75*
G02*
X177118640Y-110908105I98991J98964D01*
G01*
X196500000Y-104890000D02*
X197360000Y-104890000D01*
X191510001Y-110140000D02*
G75*
G03*
X191370001Y-109999999I-140001J0D01*
G01*
X177401452Y-111190917D02*
G75*
G02*
X177203462Y-111190917I-98995J98995D01*
G01*
X175909907Y-104500000D02*
X176029907Y-104500000D01*
X177976758Y-107000000D02*
G75*
G02*
X177836800Y-106860000I42J140000D01*
G01*
X191650001Y-112000000D02*
G75*
G02*
X191510000Y-111860000I-1J140000D01*
G01*
X185250001Y-112000000D02*
G75*
G02*
X185110000Y-111860000I-1J140000D01*
G01*
X191910001Y-111860000D02*
G75*
G02*
X191770001Y-112000001I-140001J0D01*
G01*
X185510001Y-111860000D02*
G75*
G02*
X185370001Y-112000001I-140001J0D01*
G01*
X192050001Y-111000000D02*
G75*
G03*
X191910000Y-111140000I-1J-140000D01*
G01*
X175629907Y-102500000D02*
G75*
G02*
X175769900Y-102640000I-7J-140000D01*
G01*
X193151471Y-110546522D02*
G75*
G03*
X192953481Y-110546522I-98995J-98995D01*
G01*
X193246928Y-109899516D02*
G75*
G03*
X193246932Y-110076288I88372J-88384D01*
G01*
X190829907Y-102500000D02*
G75*
G02*
X190969900Y-102640000I-7J-140000D01*
G01*
X191110001Y-111000000D02*
X191110001Y-111860000D01*
X173860000Y-103983242D02*
G75*
G03*
X174000042Y-103843242I0J140042D01*
G01*
X183910001Y-111860000D02*
G75*
G02*
X183770001Y-112000001I-140001J0D01*
G01*
X193529772Y-109793450D02*
G75*
G03*
X193352996Y-109793451I-88388J-88388D01*
G01*
X194169907Y-102640000D02*
X194169907Y-103500000D01*
X178169907Y-103500000D02*
X178169907Y-104360000D01*
X173000000Y-104123242D02*
G75*
G02*
X173140000Y-103983200I140000J42D01*
G01*
X184050001Y-110000000D02*
G75*
G03*
X183910000Y-110140000I-1J-140000D01*
G01*
X194424264Y-110489951D02*
G75*
G02*
X194226274Y-110489951I-98995J98995D01*
G01*
X191770001Y-112000000D02*
X191650001Y-112000000D01*
X193240000Y-108360000D02*
G75*
G03*
X193380000Y-108500000I140000J0D01*
G01*
X189629907Y-104500000D02*
G75*
G03*
X189769900Y-104360000I-7J140000D01*
G01*
X176072078Y-107429097D02*
G75*
G03*
X176072081Y-107231106I-98978J98997D01*
G01*
X181696758Y-105000000D02*
X181576758Y-105000000D01*
X193100000Y-107500000D02*
G75*
G02*
X193240000Y-107640000I0J-140000D01*
G01*
X174855856Y-108843311D02*
G75*
G02*
X174855840Y-108645305I99044J99011D01*
G01*
X192840000Y-107640000D02*
G75*
G02*
X192980000Y-107500000I140000J0D01*
G01*
X175138699Y-108928164D02*
G75*
G02*
X174940709Y-108928164I-98995J98995D01*
G01*
X192236758Y-106860000D02*
X192236758Y-106000000D01*
X192700000Y-109500000D02*
G75*
G03*
X192840000Y-109360000I0J140000D01*
G01*
X176340782Y-107924075D02*
G75*
G03*
X176142792Y-107924075I-98995J-98995D01*
G01*
X192440000Y-109360000D02*
G75*
G03*
X192580000Y-109500000I140000J0D01*
G01*
X176885256Y-108878671D02*
G75*
G03*
X176885233Y-108680706I-98956J98971D01*
G01*
X180840000Y-109360000D02*
X180840000Y-108500000D01*
X191500000Y-107500000D02*
G75*
G02*
X191640000Y-107640000I0J-140000D01*
G01*
X180636758Y-106860000D02*
G75*
G02*
X180496758Y-106999958I-139958J0D01*
G01*
X175987232Y-109974687D02*
G75*
G02*
X175987240Y-109776705I98968J98987D01*
G01*
X176270075Y-110059540D02*
G75*
G02*
X176072085Y-110059540I-98995J98995D01*
G01*
X177369907Y-104360000D02*
G75*
G03*
X177509907Y-104499993I139993J0D01*
G01*
X191100000Y-109500000D02*
G75*
G03*
X191240000Y-109360000I0J140000D01*
G01*
X193629907Y-104500000D02*
G75*
G03*
X193769900Y-104360000I-7J140000D01*
G01*
X180840000Y-108500000D02*
X180840000Y-107640000D01*
X190840000Y-109360000D02*
G75*
G03*
X190980000Y-109500000I140000J0D01*
G01*
X194096758Y-107000000D02*
X193976758Y-107000000D01*
X190300000Y-109500000D02*
G75*
G03*
X190440000Y-109360000I0J140000D01*
G01*
X189900000Y-107500000D02*
G75*
G02*
X190040000Y-107640000I0J-140000D01*
G01*
X188569907Y-103500000D02*
X188569907Y-104360000D01*
X189500000Y-109500000D02*
G75*
G03*
X189640000Y-109360000I0J140000D01*
G01*
X196500000Y-105430000D02*
X196500000Y-105550000D01*
X186236758Y-105140000D02*
X186236758Y-106000000D01*
X187109907Y-104500000D02*
X187229907Y-104500000D01*
X175769907Y-103360000D02*
X175769907Y-104360000D01*
X188840000Y-107640000D02*
G75*
G02*
X188980000Y-107500000I140000J0D01*
G01*
X182776758Y-107000000D02*
G75*
G02*
X182636800Y-106860000I42J140000D01*
G01*
X188700000Y-109500000D02*
G75*
G03*
X188840000Y-109360000I0J140000D01*
G01*
X189370001Y-112000000D02*
X189250001Y-112000000D01*
X188440000Y-109360000D02*
G75*
G03*
X188580000Y-109500000I140000J0D01*
G01*
X193229907Y-102500000D02*
G75*
G02*
X193369900Y-102640000I-7J-140000D01*
G01*
X176835763Y-110625228D02*
G75*
G02*
X176637773Y-110625228I-98995J98995D01*
G01*
X195836758Y-106140000D02*
X195836758Y-106860000D01*
X187510001Y-111000000D02*
X187510001Y-110140000D01*
X187640000Y-109360000D02*
G75*
G03*
X187780000Y-109500000I140000J0D01*
G01*
X177109907Y-102500000D02*
X177229907Y-102500000D01*
X187500000Y-107500000D02*
G75*
G02*
X187640000Y-107640000I0J-140000D01*
G01*
X196090000Y-104490000D02*
G75*
G03*
X195950000Y-104630000I0J-140000D01*
G01*
X178426758Y-111000000D02*
X178108560Y-110681802D01*
X193943430Y-110772794D02*
G75*
G02*
X193943441Y-110970795I-99030J-99006D01*
G01*
X187240000Y-107640000D02*
G75*
G02*
X187380000Y-107500000I140000J0D01*
G01*
X189640000Y-107640000D02*
G75*
G02*
X189780000Y-107500000I140000J0D01*
G01*
X187100000Y-109500000D02*
G75*
G03*
X187240000Y-109360000I0J140000D01*
G01*
X197360000Y-105290000D02*
X196640000Y-105290000D01*
X186496758Y-105000000D02*
X186376758Y-105000000D01*
X193436758Y-106860000D02*
G75*
G02*
X193296758Y-106999958I-139958J0D01*
G01*
X188040000Y-107640000D02*
G75*
G02*
X188180000Y-107500000I140000J0D01*
G01*
X192829907Y-104500000D02*
G75*
G03*
X192969900Y-104360000I-7J140000D01*
G01*
X192776758Y-105000000D02*
G75*
G03*
X192636800Y-105140000I42J-140000D01*
G01*
X184969907Y-103500000D02*
X184969907Y-102640000D01*
X193576758Y-105000000D02*
G75*
G03*
X193436800Y-105140000I42J-140000D01*
G01*
X176029907Y-104500000D02*
G75*
G03*
X176169900Y-104360000I-7J140000D01*
G01*
X184840000Y-107640000D02*
G75*
G02*
X184980000Y-107500000I140000J0D01*
G01*
X177640000Y-107890000D02*
G75*
G02*
X177780000Y-107750000I140000J0D01*
G01*
X194636758Y-105140000D02*
G75*
G03*
X194496758Y-105000042I-139958J0D01*
G01*
X177000000Y-106900000D02*
G75*
G03*
X177125000Y-107025000I125000J0D01*
G01*
X182710001Y-110140000D02*
G75*
G03*
X182570001Y-109999999I-140001J0D01*
G01*
X175704387Y-109493852D02*
G75*
G02*
X175506397Y-109493852I-98995J98995D01*
G01*
X191380000Y-107500000D02*
X191500000Y-107500000D01*
X195176758Y-105000000D02*
G75*
G03*
X195036800Y-105140000I42J-140000D01*
G01*
X193436758Y-106000000D02*
X193436758Y-106860000D01*
X195436758Y-105140000D02*
G75*
G03*
X195296758Y-105000042I-139958J0D01*
G01*
X195576758Y-107000000D02*
G75*
G02*
X195436800Y-106860000I42J140000D01*
G01*
X186169907Y-103500000D02*
X186169907Y-104360000D01*
X180376758Y-107000000D02*
G75*
G02*
X180236800Y-106860000I42J140000D01*
G01*
X184310001Y-111000000D02*
X184310001Y-110140000D01*
X178108560Y-110681802D02*
G75*
G03*
X177910570Y-110681802I-98995J-98995D01*
G01*
X197500000Y-104230000D02*
X197500000Y-104350000D01*
X187240000Y-109360000D02*
X187240000Y-108500000D01*
X180569907Y-104360000D02*
G75*
G03*
X180709907Y-104499993I139993J0D01*
G01*
X183769907Y-104360000D02*
G75*
G03*
X183909907Y-104499993I139993J0D01*
G01*
X180429907Y-102500000D02*
G75*
G02*
X180569900Y-102640000I-7J-140000D01*
G01*
X195976758Y-106000000D02*
G75*
G03*
X195836800Y-106140000I42J-140000D01*
G01*
X194776758Y-107000000D02*
G75*
G02*
X194636800Y-106860000I42J140000D01*
G01*
X183100000Y-109500000D02*
G75*
G03*
X183240000Y-109360000I0J140000D01*
G01*
X196640000Y-105290000D02*
G75*
G03*
X196500000Y-105430000I0J-140000D01*
G01*
X186969907Y-103500000D02*
X186969907Y-104360000D01*
X195036758Y-106860000D02*
G75*
G02*
X194896758Y-106999958I-139958J0D01*
G01*
X183500000Y-107500000D02*
G75*
G02*
X183640000Y-107640000I0J-140000D01*
G01*
X182840000Y-108500000D02*
X182840000Y-109360000D01*
X176569907Y-103500000D02*
X176569907Y-104360000D01*
X177576758Y-105000000D02*
G75*
G03*
X177436800Y-105140000I42J-140000D01*
G01*
X192029907Y-104500000D02*
G75*
G03*
X192169900Y-104360000I-7J140000D01*
G01*
X187640000Y-107640000D02*
X187640000Y-108500000D01*
X189369907Y-102640000D02*
X189369907Y-103500000D01*
X194236758Y-106860000D02*
G75*
G02*
X194096758Y-106999958I-139958J0D01*
G01*
X189229907Y-102500000D02*
G75*
G02*
X189369900Y-102640000I-7J-140000D01*
G01*
X187509907Y-102500000D02*
X187629907Y-102500000D01*
X188969907Y-102640000D02*
G75*
G02*
X189109907Y-102500007I139993J0D01*
G01*
X191836758Y-106860000D02*
G75*
G02*
X191696758Y-106999958I-139958J0D01*
G01*
X181900000Y-107500000D02*
G75*
G02*
X182040000Y-107640000I0J-140000D01*
G01*
X184236758Y-106860000D02*
X184236758Y-106000000D01*
X191229907Y-104500000D02*
G75*
G03*
X191369900Y-104360000I-7J140000D01*
G01*
X185500000Y-109500000D02*
G75*
G03*
X185640000Y-109360000I0J140000D01*
G01*
X182376758Y-105000000D02*
G75*
G03*
X182236800Y-105140000I42J-140000D01*
G01*
X178029907Y-102500000D02*
G75*
G02*
X178169900Y-102640000I-7J-140000D01*
G01*
X183436758Y-106860000D02*
X183436758Y-106000000D01*
X182636758Y-105140000D02*
G75*
G03*
X182496758Y-105000042I-139958J0D01*
G01*
X188570001Y-112000000D02*
X188450001Y-112000000D01*
X193836758Y-105140000D02*
G75*
G03*
X193696758Y-105000042I-139958J0D01*
G01*
X189109907Y-102500000D02*
X189229907Y-102500000D01*
X184300000Y-107500000D02*
G75*
G02*
X184440000Y-107640000I0J-140000D01*
G01*
X193976758Y-107000000D02*
G75*
G02*
X193836800Y-106860000I42J140000D01*
G01*
X181176758Y-107000000D02*
G75*
G02*
X181036800Y-106860000I42J140000D01*
G01*
X175789236Y-107146255D02*
X175181124Y-107754366D01*
X190029907Y-102500000D02*
G75*
G02*
X190169900Y-102640000I-7J-140000D01*
G01*
X193769907Y-104360000D02*
X193769907Y-103500000D01*
X176309907Y-102500000D02*
X176429907Y-102500000D01*
X193369907Y-104360000D02*
G75*
G03*
X193509907Y-104499993I139993J0D01*
G01*
X194236758Y-106000000D02*
X194236758Y-106860000D01*
X181769907Y-103500000D02*
X181769907Y-102640000D01*
X177250000Y-107150000D02*
X177250000Y-107300000D01*
X189369907Y-104360000D02*
G75*
G03*
X189509907Y-104499993I139993J0D01*
G01*
X181976758Y-107000000D02*
G75*
G02*
X181836800Y-106860000I42J140000D01*
G01*
X195836758Y-106860000D02*
G75*
G02*
X195696758Y-106999958I-139958J0D01*
G01*
X190180000Y-109500000D02*
X190300000Y-109500000D01*
X188429907Y-102500000D02*
G75*
G02*
X188569900Y-102640000I-7J-140000D01*
G01*
X180969907Y-103500000D02*
X180969907Y-102640000D01*
X183436758Y-105140000D02*
G75*
G03*
X183296758Y-105000042I-139958J0D01*
G01*
X191769907Y-104360000D02*
G75*
G03*
X191909907Y-104499993I139993J0D01*
G01*
X185109907Y-102500000D02*
X185229907Y-102500000D01*
X185370001Y-112000000D02*
X185250001Y-112000000D01*
X181836758Y-105140000D02*
G75*
G03*
X181696758Y-105000042I-139958J0D01*
G01*
X185436758Y-106000000D02*
X185436758Y-106860000D01*
X177769907Y-102640000D02*
G75*
G02*
X177909907Y-102500007I139993J0D01*
G01*
X174926758Y-103500000D02*
X175229907Y-103500000D01*
X182040000Y-109360000D02*
G75*
G03*
X182180000Y-109500000I140000J0D01*
G01*
X186969907Y-104360000D02*
G75*
G03*
X187109907Y-104499993I139993J0D01*
G01*
X181240000Y-109360000D02*
G75*
G03*
X181380000Y-109500000I140000J0D01*
G01*
X184029907Y-104500000D02*
G75*
G03*
X184169900Y-104360000I-7J140000D01*
G01*
X188829907Y-104500000D02*
G75*
G03*
X188969900Y-104360000I-7J140000D01*
G01*
X180169907Y-102640000D02*
G75*
G02*
X180309907Y-102500007I139993J0D01*
G01*
X191769907Y-102640000D02*
X191769907Y-103500000D01*
X179436758Y-106000000D02*
X179436758Y-105140000D01*
X190429907Y-104500000D02*
G75*
G03*
X190569900Y-104360000I-7J140000D01*
G01*
X195769907Y-103360000D02*
G75*
G03*
X195909907Y-103499993I139993J0D01*
G01*
X189836758Y-106860000D02*
X189836758Y-106000000D01*
X191640000Y-109360000D02*
G75*
G03*
X191780000Y-109500000I140000J0D01*
G01*
X188569907Y-104360000D02*
G75*
G03*
X188709907Y-104499993I139993J0D01*
G01*
X194029907Y-102500000D02*
G75*
G02*
X194169900Y-102640000I-7J-140000D01*
G01*
X180029907Y-104500000D02*
G75*
G03*
X180169900Y-104360000I-7J140000D01*
G01*
X178440000Y-107640000D02*
G75*
G02*
X178580000Y-107500000I140000J0D01*
G01*
X191510001Y-111860000D02*
X191510001Y-111140000D01*
X178309907Y-104500000D02*
X178429907Y-104500000D01*
X183650001Y-112000000D02*
G75*
G02*
X183510000Y-111860000I-1J140000D01*
G01*
X195629907Y-102500000D02*
G75*
G02*
X195769900Y-102640000I-7J-140000D01*
G01*
X179836758Y-105140000D02*
X179836758Y-106000000D01*
X179629907Y-102500000D02*
G75*
G02*
X179769900Y-102640000I-7J-140000D01*
G01*
X195229907Y-104500000D02*
G75*
G03*
X195369900Y-104360000I-7J140000D01*
G01*
X177900000Y-107750000D02*
G75*
G02*
X178040000Y-107890000I0J-140000D01*
G01*
X180896758Y-105000000D02*
X180776758Y-105000000D01*
X184829907Y-104500000D02*
G75*
G03*
X184969900Y-104360000I-7J140000D01*
G01*
X180710001Y-110140000D02*
X180710001Y-111000000D01*
X191900000Y-109500000D02*
G75*
G03*
X192040000Y-109360000I0J140000D01*
G01*
X182896758Y-107000000D02*
X182776758Y-107000000D01*
X182569907Y-102640000D02*
G75*
G02*
X182709907Y-102500007I139993J0D01*
G01*
X186029907Y-102500000D02*
G75*
G02*
X186169900Y-102640000I-7J-140000D01*
G01*
X185576758Y-105000000D02*
G75*
G03*
X185436800Y-105140000I42J-140000D01*
G01*
X194429907Y-104500000D02*
G75*
G03*
X194569900Y-104360000I-7J140000D01*
G01*
X188969907Y-104360000D02*
X188969907Y-103500000D01*
X195950000Y-104750000D02*
G75*
G03*
X196090000Y-104890000I140000J0D01*
G01*
X176569907Y-104360000D02*
G75*
G03*
X176709907Y-104499993I139993J0D01*
G01*
X190440000Y-107640000D02*
G75*
G02*
X190580000Y-107500000I140000J0D01*
G01*
X194636758Y-106860000D02*
X194636758Y-106000000D01*
X177229907Y-102500000D02*
G75*
G02*
X177369900Y-102640000I-7J-140000D01*
G01*
X179036758Y-106860000D02*
G75*
G02*
X178896758Y-106999958I-139958J0D01*
G01*
X183176758Y-105000000D02*
G75*
G03*
X183036800Y-105140000I42J-140000D01*
G01*
X185900000Y-107500000D02*
G75*
G02*
X186040000Y-107640000I0J-140000D01*
G01*
X195509907Y-102500000D02*
X195629907Y-102500000D01*
X180840000Y-107640000D02*
G75*
G02*
X180980000Y-107500000I140000J0D01*
G01*
X195369907Y-102640000D02*
G75*
G02*
X195509907Y-102500007I139993J0D01*
G01*
X184969907Y-102640000D02*
G75*
G02*
X185109907Y-102500007I139993J0D01*
G01*
X184980000Y-107500000D02*
X185100000Y-107500000D01*
X182440000Y-107640000D02*
G75*
G02*
X182580000Y-107500000I140000J0D01*
G01*
X175369907Y-102640000D02*
G75*
G02*
X175509907Y-102500007I139993J0D01*
G01*
X189510001Y-111000000D02*
X189510001Y-111860000D01*
X179229907Y-104500000D02*
G75*
G03*
X179369900Y-104360000I-7J140000D01*
G01*
X177909907Y-102500000D02*
X178029907Y-102500000D01*
X184429907Y-102500000D02*
G75*
G02*
X184569900Y-102640000I-7J-140000D01*
G01*
X184040000Y-108500000D02*
X184040000Y-107640000D01*
X181770001Y-110000000D02*
X181650001Y-110000000D01*
X187176758Y-105000000D02*
G75*
G03*
X187036800Y-105140000I42J-140000D01*
G01*
X190040000Y-109360000D02*
G75*
G03*
X190180000Y-109500000I140000J0D01*
G01*
X178569907Y-102640000D02*
G75*
G02*
X178709907Y-102500007I139993J0D01*
G01*
X185836758Y-106000000D02*
X185836758Y-105140000D01*
X175506397Y-109493852D02*
X175421544Y-109408999D01*
X180580000Y-109500000D02*
X180700000Y-109500000D01*
X176969907Y-102640000D02*
G75*
G02*
X177109907Y-102500007I139993J0D01*
G01*
X176425635Y-108008928D02*
X176340782Y-107924075D01*
X194000000Y-109500000D02*
G75*
G03*
X193999995Y-109697995I99000J-99000D01*
G01*
X190636758Y-106860000D02*
X190636758Y-106000000D01*
X193660587Y-111055638D02*
X193151471Y-110546522D01*
X181510001Y-111000000D02*
X181510001Y-111860000D01*
X184700000Y-109500000D02*
G75*
G03*
X184840000Y-109360000I0J140000D01*
G01*
X192040000Y-107640000D02*
G75*
G02*
X192180000Y-107500000I140000J0D01*
G01*
X186776758Y-107000000D02*
G75*
G02*
X186636800Y-106860000I42J140000D01*
G01*
X186040000Y-109360000D02*
G75*
G03*
X186180000Y-109500000I140000J0D01*
G01*
X178829907Y-102500000D02*
G75*
G02*
X178969900Y-102640000I-7J-140000D01*
G01*
X180829907Y-104500000D02*
G75*
G03*
X180969900Y-104360000I-7J140000D01*
G01*
X194829907Y-102500000D02*
G75*
G02*
X194969900Y-102640000I-7J-140000D01*
G01*
X191436758Y-105140000D02*
G75*
G03*
X191296758Y-105000042I-139958J0D01*
G01*
X188169907Y-102640000D02*
G75*
G02*
X188309907Y-102500007I139993J0D01*
G01*
X189509907Y-104500000D02*
X189629907Y-104500000D01*
X183629907Y-102500000D02*
G75*
G02*
X183769900Y-102640000I-7J-140000D01*
G01*
X178429907Y-104500000D02*
G75*
G03*
X178569900Y-104360000I-7J140000D01*
G01*
X179369907Y-102640000D02*
G75*
G02*
X179509907Y-102500007I139993J0D01*
G01*
X182169907Y-102640000D02*
X182169907Y-103500000D01*
X196640000Y-104490000D02*
X196090000Y-104490000D01*
X187380000Y-107500000D02*
X187500000Y-107500000D01*
X184569907Y-104360000D02*
G75*
G03*
X184709907Y-104499993I139993J0D01*
G01*
X193369907Y-102640000D02*
X193369907Y-103500000D01*
X187036758Y-106860000D02*
G75*
G02*
X186896758Y-106999958I-139958J0D01*
G01*
X189240000Y-109360000D02*
G75*
G03*
X189380000Y-109500000I140000J0D01*
G01*
X194569907Y-102640000D02*
G75*
G02*
X194709907Y-102500007I139993J0D01*
G01*
X176829907Y-104500000D02*
G75*
G03*
X176969900Y-104360000I-7J140000D01*
G01*
X187436758Y-105140000D02*
G75*
G03*
X187296758Y-105000042I-139958J0D01*
G01*
X178840000Y-107640000D02*
X178840000Y-108500000D01*
X188840000Y-109360000D02*
X188840000Y-108500000D01*
X179769907Y-104360000D02*
G75*
G03*
X179909907Y-104499993I139993J0D01*
G01*
X182840000Y-109360000D02*
G75*
G03*
X182980000Y-109500000I140000J0D01*
G01*
X194509117Y-110207107D02*
G75*
G02*
X194509115Y-110405095I-99017J-98993D01*
G01*
X184180000Y-107500000D02*
X184300000Y-107500000D01*
X191176758Y-105000000D02*
G75*
G03*
X191036800Y-105140000I42J-140000D01*
G01*
X191640000Y-108500000D02*
X191640000Y-109360000D01*
X180969907Y-102640000D02*
G75*
G02*
X181109907Y-102500007I139993J0D01*
G01*
X188029907Y-104500000D02*
G75*
G03*
X188169900Y-104360000I-7J140000D01*
G01*
X181240000Y-107640000D02*
X181240000Y-108500000D01*
X191240000Y-109360000D02*
X191240000Y-108500000D01*
X188850001Y-110000000D02*
G75*
G03*
X188710000Y-110140000I-1J-140000D01*
G01*
X186169907Y-104360000D02*
G75*
G03*
X186309907Y-104499993I139993J0D01*
G01*
X185436758Y-106860000D02*
G75*
G02*
X185296758Y-106999958I-139958J0D01*
G01*
X183240000Y-107640000D02*
G75*
G02*
X183380000Y-107500000I140000J0D01*
G01*
X186429907Y-104500000D02*
G75*
G03*
X186569900Y-104360000I-7J140000D01*
G01*
X177000000Y-107700000D02*
X177000000Y-108000000D01*
X185176758Y-107000000D02*
G75*
G02*
X185036800Y-106860000I42J140000D01*
G01*
X182710001Y-111860000D02*
X182710001Y-111000000D01*
X189100000Y-107500000D02*
G75*
G02*
X189240000Y-107640000I0J-140000D01*
G01*
X188710001Y-111000000D02*
X188710001Y-111860000D01*
X186569907Y-102640000D02*
G75*
G02*
X186709907Y-102500007I139993J0D01*
G01*
X181629907Y-104500000D02*
G75*
G03*
X181769900Y-104360000I-7J140000D01*
G01*
X178169907Y-104360000D02*
G75*
G03*
X178309907Y-104499993I139993J0D01*
G01*
X176169907Y-103500000D02*
X176169907Y-102640000D01*
X183769907Y-102640000D02*
X183769907Y-103500000D01*
X178980000Y-109500000D02*
X179100000Y-109500000D01*
X188980000Y-107500000D02*
X189100000Y-107500000D01*
X182169907Y-104360000D02*
G75*
G03*
X182309907Y-104499993I139993J0D01*
G01*
X181100000Y-107500000D02*
G75*
G02*
X181240000Y-107640000I0J-140000D01*
G01*
X182029907Y-102500000D02*
G75*
G02*
X182169900Y-102640000I-7J-140000D01*
G01*
X192569907Y-104360000D02*
G75*
G03*
X192709907Y-104499993I139993J0D01*
G01*
X187229907Y-104500000D02*
G75*
G03*
X187369900Y-104360000I-7J140000D01*
G01*
X186570001Y-110000000D02*
X186450001Y-110000000D01*
X180969907Y-104360000D02*
X180969907Y-103500000D01*
X184236758Y-105140000D02*
G75*
G03*
X184096758Y-105000042I-139958J0D01*
G01*
X182829907Y-102500000D02*
G75*
G02*
X182969900Y-102640000I-7J-140000D01*
G01*
X180440000Y-107640000D02*
X180440000Y-108500000D01*
X181229907Y-102500000D02*
G75*
G02*
X181369900Y-102640000I-7J-140000D01*
G01*
X187436758Y-106860000D02*
X187436758Y-106000000D01*
X191036758Y-106860000D02*
G75*
G02*
X190896758Y-106999958I-139958J0D01*
G01*
X187369907Y-102640000D02*
G75*
G02*
X187509907Y-102500007I139993J0D01*
G01*
X176425635Y-108206918D02*
G75*
G03*
X176425658Y-108008905I-99035J99018D01*
G01*
X192040000Y-108500000D02*
X192040000Y-107640000D01*
X192300000Y-107500000D02*
G75*
G02*
X192440000Y-107640000I0J-140000D01*
G01*
X192236758Y-106000000D02*
X192236758Y-105140000D01*
X173140000Y-103983242D02*
X173860000Y-103983242D01*
X177125000Y-107425000D02*
G75*
G03*
X177000000Y-107550000I0J-125000D01*
G01*
X183976758Y-105000000D02*
G75*
G03*
X183836800Y-105140000I42J-140000D01*
G01*
X176169907Y-102640000D02*
G75*
G02*
X176309907Y-102500007I139993J0D01*
G01*
X186709907Y-102500000D02*
X186829907Y-102500000D01*
X182040000Y-108500000D02*
X182040000Y-109360000D01*
X183770001Y-112000000D02*
X183650001Y-112000000D01*
X184040000Y-107640000D02*
G75*
G02*
X184180000Y-107500000I140000J0D01*
G01*
X192969907Y-102640000D02*
G75*
G02*
X193109907Y-102500007I139993J0D01*
G01*
X188300000Y-107500000D02*
G75*
G02*
X188440000Y-107640000I0J-140000D01*
G01*
X185036758Y-106860000D02*
X185036758Y-106000000D01*
X187629907Y-102500000D02*
G75*
G02*
X187769900Y-102640000I-7J-140000D01*
G01*
X184969907Y-104360000D02*
X184969907Y-103500000D01*
X180180000Y-107500000D02*
X180300000Y-107500000D01*
X183836758Y-106860000D02*
G75*
G02*
X183696758Y-106999958I-139958J0D01*
G01*
X183229907Y-104500000D02*
G75*
G03*
X183369900Y-104360000I-7J140000D01*
G01*
X178569907Y-104360000D02*
X178569907Y-103500000D01*
X187769907Y-104360000D02*
G75*
G03*
X187909907Y-104499993I139993J0D01*
G01*
X175181124Y-107754366D02*
X174573011Y-108362476D01*
X183369907Y-102640000D02*
G75*
G02*
X183509907Y-102500007I139993J0D01*
G01*
X193296758Y-107000000D02*
X193176758Y-107000000D01*
X188169907Y-103500000D02*
X188169907Y-102640000D01*
X181909907Y-102500000D02*
X182029907Y-102500000D01*
X187240000Y-108500000D02*
X187240000Y-107640000D01*
X181510001Y-111860000D02*
G75*
G02*
X181370001Y-112000001I-140001J0D01*
G01*
X187910001Y-111860000D02*
G75*
G02*
X187770001Y-112000001I-140001J0D01*
G01*
X192429907Y-102500000D02*
G75*
G02*
X192569900Y-102640000I-7J-140000D01*
G01*
X178376758Y-105000000D02*
G75*
G03*
X178236800Y-105140000I42J-140000D01*
G01*
X184169907Y-102640000D02*
G75*
G02*
X184309907Y-102500007I139993J0D01*
G01*
X193176758Y-107000000D02*
G75*
G02*
X193036800Y-106860000I42J140000D01*
G01*
X196500000Y-103950000D02*
G75*
G03*
X196640000Y-104090000I140000J0D01*
G01*
X194309907Y-104500000D02*
X194429907Y-104500000D01*
X185229907Y-102500000D02*
G75*
G02*
X185369900Y-102640000I-7J-140000D01*
G01*
X185100000Y-107500000D02*
G75*
G02*
X185240000Y-107640000I0J-140000D01*
G01*
X185369907Y-104360000D02*
G75*
G03*
X185509907Y-104499993I139993J0D01*
G01*
X186236758Y-106860000D02*
G75*
G02*
X186096758Y-106999958I-139958J0D01*
G01*
X178700000Y-107500000D02*
G75*
G02*
X178840000Y-107640000I0J-140000D01*
G01*
X177629907Y-104500000D02*
G75*
G03*
X177769900Y-104360000I-7J140000D01*
G01*
X183036758Y-106860000D02*
G75*
G02*
X182896758Y-106999958I-139958J0D01*
G01*
X185629907Y-104500000D02*
G75*
G03*
X185769900Y-104360000I-7J140000D01*
G01*
X190569907Y-102640000D02*
G75*
G02*
X190709907Y-102500007I139993J0D01*
G01*
X188636758Y-106000000D02*
X188636758Y-106860000D01*
X182700000Y-107500000D02*
G75*
G02*
X182840000Y-107640000I0J-140000D01*
G01*
X193036758Y-106000000D02*
X193036758Y-105140000D01*
X181640000Y-109360000D02*
X181640000Y-108500000D01*
X185769907Y-102640000D02*
G75*
G02*
X185909907Y-102500007I139993J0D01*
G01*
X192709907Y-104500000D02*
X192829907Y-104500000D01*
X192636758Y-106860000D02*
G75*
G02*
X192496758Y-106999958I-139958J0D01*
G01*
X192376758Y-107000000D02*
G75*
G02*
X192236800Y-106860000I42J140000D01*
G01*
X177125000Y-107025000D02*
G75*
G02*
X177250000Y-107150000I0J-125000D01*
G01*
X180440000Y-109360000D02*
G75*
G03*
X180580000Y-109500000I140000J0D01*
G01*
X191976758Y-105000000D02*
G75*
G03*
X191836800Y-105140000I42J-140000D01*
G01*
X190169907Y-104360000D02*
G75*
G03*
X190309907Y-104499993I139993J0D01*
G01*
X191509907Y-102500000D02*
X191629907Y-102500000D01*
X191370001Y-110000000D02*
X191250001Y-110000000D01*
X190776758Y-107000000D02*
G75*
G02*
X190636800Y-106860000I42J140000D01*
G01*
X173000000Y-104243242D02*
X173000000Y-104123242D01*
X182969907Y-104360000D02*
G75*
G03*
X183109907Y-104499993I139993J0D01*
G01*
X184236758Y-106000000D02*
X184236758Y-105140000D01*
X174375021Y-108362476D02*
X174290168Y-108277623D01*
X180700000Y-109500000D02*
G75*
G03*
X180840000Y-109360000I0J140000D01*
G01*
X187910001Y-110140000D02*
X187910001Y-111000000D01*
X176878188Y-109451430D02*
X176270075Y-110059540D01*
X190636758Y-105140000D02*
G75*
G03*
X190496758Y-105000042I-139958J0D01*
G01*
X177836758Y-105140000D02*
G75*
G03*
X177696758Y-105000042I-139958J0D01*
G01*
X190376758Y-105000000D02*
G75*
G03*
X190236800Y-105140000I42J-140000D01*
G01*
X190236758Y-106860000D02*
G75*
G02*
X190096758Y-106999958I-139958J0D01*
G01*
X173500000Y-102000000D02*
X170000000Y-102000000D01*
X197360000Y-104090000D02*
G75*
G02*
X197500000Y-104230000I0J-140000D01*
G01*
X191909907Y-104500000D02*
X192029907Y-104500000D01*
X190710001Y-111000000D02*
X190710001Y-110140000D01*
X179770001Y-112000000D02*
X179650001Y-112000000D01*
X189976758Y-107000000D02*
G75*
G02*
X189836800Y-106860000I42J140000D01*
G01*
X181036758Y-106000000D02*
X181036758Y-105140000D01*
X197500000Y-104350000D02*
G75*
G02*
X197360000Y-104490000I-140000J0D01*
G01*
X195369907Y-104360000D02*
X195369907Y-103500000D01*
X186040000Y-108500000D02*
X186040000Y-109360000D01*
X182429907Y-104500000D02*
G75*
G03*
X182569900Y-104360000I-7J140000D01*
G01*
X184169907Y-104360000D02*
X184169907Y-103500000D01*
X186310001Y-110140000D02*
X186310001Y-111000000D01*
X175746812Y-108320054D02*
X175138699Y-108928164D01*
X189836758Y-105140000D02*
G75*
G03*
X189696758Y-105000042I-139958J0D01*
G01*
X191629907Y-102500000D02*
G75*
G02*
X191769900Y-102640000I-7J-140000D01*
G01*
X180300000Y-107500000D02*
G75*
G02*
X180440000Y-107640000I0J-140000D01*
G01*
X189576758Y-105000000D02*
G75*
G03*
X189436800Y-105140000I42J-140000D01*
G01*
X177500000Y-108500000D02*
G75*
G03*
X177640000Y-108360000I0J140000D01*
G01*
X189436758Y-106860000D02*
G75*
G02*
X189296758Y-106999958I-139958J0D01*
G01*
X189176758Y-107000000D02*
G75*
G02*
X189036800Y-106860000I42J140000D01*
G01*
X194169907Y-103500000D02*
X194169907Y-104360000D01*
X189036758Y-105140000D02*
G75*
G03*
X188896758Y-105000042I-139958J0D01*
G01*
X189036758Y-106860000D02*
X189036758Y-106000000D01*
X179910001Y-111000000D02*
X179910001Y-111860000D01*
X186300000Y-109500000D02*
G75*
G03*
X186440000Y-109360000I0J140000D01*
G01*
X178040000Y-107890000D02*
X178040000Y-108360000D01*
X188040000Y-109360000D02*
X188040000Y-108500000D01*
X188776758Y-105000000D02*
G75*
G03*
X188636800Y-105140000I42J-140000D01*
G01*
X195109907Y-104500000D02*
X195229907Y-104500000D01*
X178636758Y-105140000D02*
G75*
G03*
X178496758Y-105000042I-139958J0D01*
G01*
X188236758Y-105140000D02*
G75*
G03*
X188096758Y-105000042I-139958J0D01*
G01*
X179500000Y-107500000D02*
G75*
G02*
X179640000Y-107640000I0J-140000D01*
G01*
X187836758Y-106860000D02*
G75*
G02*
X187696758Y-106999958I-139958J0D01*
G01*
X177780000Y-107750000D02*
X177900000Y-107750000D01*
X187780000Y-109500000D02*
X187900000Y-109500000D01*
X187576758Y-107000000D02*
G75*
G02*
X187436800Y-106860000I42J140000D01*
G01*
X186376758Y-105000000D02*
G75*
G03*
X186236800Y-105140000I42J-140000D01*
G01*
X193836758Y-106860000D02*
X193836758Y-106000000D01*
X184776758Y-105000000D02*
G75*
G03*
X184636800Y-105140000I42J-140000D01*
G01*
X184636758Y-106860000D02*
G75*
G02*
X184496758Y-106999958I-139958J0D01*
G01*
X184376758Y-107000000D02*
G75*
G02*
X184236800Y-106860000I42J140000D01*
G01*
X181576758Y-105000000D02*
G75*
G03*
X181436800Y-105140000I42J-140000D01*
G01*
X181769907Y-104360000D02*
X181769907Y-103500000D01*
X196640000Y-104090000D02*
X197360000Y-104090000D01*
X186980000Y-109500000D02*
X187100000Y-109500000D01*
X181036758Y-105140000D02*
G75*
G03*
X180896758Y-105000042I-139958J0D01*
G01*
X188309907Y-102500000D02*
X188429907Y-102500000D01*
X179176758Y-105000000D02*
G75*
G03*
X179036800Y-105140000I42J-140000D01*
G01*
X177369907Y-102640000D02*
X177369907Y-103500000D01*
X180776758Y-105000000D02*
G75*
G03*
X180636800Y-105140000I42J-140000D01*
G01*
X179976758Y-105000000D02*
G75*
G03*
X179836800Y-105140000I42J-140000D01*
G01*
X182440000Y-108500000D02*
X182440000Y-107640000D01*
X183370001Y-110000000D02*
X183250001Y-110000000D01*
X176429907Y-102500000D02*
G75*
G02*
X176569900Y-102640000I-7J-140000D01*
G01*
X179836758Y-106860000D02*
G75*
G02*
X179696758Y-106999958I-139958J0D01*
G01*
X179576758Y-107000000D02*
G75*
G02*
X179436800Y-106860000I42J140000D01*
G01*
X182310001Y-110140000D02*
X182310001Y-111000000D01*
X179436758Y-105140000D02*
G75*
G03*
X179296758Y-105000042I-139958J0D01*
G01*
X179240000Y-107640000D02*
G75*
G02*
X179380000Y-107500000I140000J0D01*
G01*
X179370001Y-110000000D02*
X179250001Y-110000000D01*
X177369907Y-103500000D02*
X177369907Y-104360000D01*
X189769907Y-102640000D02*
G75*
G02*
X189909907Y-102500007I139993J0D01*
G01*
X181370001Y-112000000D02*
X181250001Y-112000000D01*
X178236758Y-106860000D02*
G75*
G02*
X178096758Y-106999958I-139958J0D01*
G01*
X180440000Y-108500000D02*
X180440000Y-109360000D01*
X177436758Y-105860000D02*
G75*
G02*
X177296758Y-105999958I-139958J0D01*
G01*
X197500000Y-105150000D02*
G75*
G02*
X197360000Y-105290000I-140000J0D01*
G01*
X186440000Y-107640000D02*
G75*
G02*
X186580000Y-107500000I140000J0D01*
G01*
X192169907Y-102640000D02*
G75*
G02*
X192309907Y-102500007I139993J0D01*
G01*
X175769907Y-104360000D02*
G75*
G03*
X175909907Y-104499993I139993J0D01*
G01*
X181510001Y-110140000D02*
X181510001Y-111000000D01*
X178040000Y-109360000D02*
G75*
G03*
X178180000Y-109500000I140000J0D01*
G01*
X184440000Y-109360000D02*
G75*
G03*
X184580000Y-109500000I140000J0D01*
G01*
X188636758Y-106860000D02*
G75*
G02*
X188496758Y-106999958I-139958J0D01*
G01*
X189910001Y-111000000D02*
X189910001Y-110140000D01*
X178300000Y-109500000D02*
G75*
G03*
X178440000Y-109360000I0J140000D01*
G01*
X180236758Y-105140000D02*
G75*
G03*
X180096758Y-105000042I-139958J0D01*
G01*
X192440000Y-108500000D02*
X192440000Y-109360000D01*
X178840000Y-109360000D02*
G75*
G03*
X178980000Y-109500000I140000J0D01*
G01*
X190970001Y-112000000D02*
X190850001Y-112000000D01*
X179910001Y-110140000D02*
X179910001Y-111000000D01*
X179100000Y-109500000D02*
G75*
G03*
X179240000Y-109360000I0J140000D01*
G01*
X194969907Y-102640000D02*
X194969907Y-103500000D01*
X175229907Y-103500000D02*
G75*
G03*
X175369900Y-103360000I-7J140000D01*
G01*
X178236758Y-106000000D02*
X178236758Y-106860000D01*
X179640000Y-109360000D02*
G75*
G03*
X179780000Y-109500000I140000J0D01*
G01*
X179900000Y-109500000D02*
G75*
G03*
X180040000Y-109360000I0J140000D01*
G01*
X180040000Y-107640000D02*
G75*
G02*
X180180000Y-107500000I140000J0D01*
G01*
X197360000Y-104490000D02*
X196640000Y-104490000D01*
X181500000Y-109500000D02*
G75*
G03*
X181640000Y-109360000I0J140000D01*
G01*
X178569907Y-103500000D02*
X178569907Y-102640000D01*
X183769907Y-103500000D02*
X183769907Y-104360000D01*
X182300000Y-109500000D02*
G75*
G03*
X182440000Y-109360000I0J140000D01*
G01*
X183696758Y-107000000D02*
X183576758Y-107000000D01*
X175223548Y-106580567D02*
X174615436Y-107188678D01*
X175769907Y-102640000D02*
X175769907Y-103360000D01*
X184710001Y-110140000D02*
X184710001Y-111000000D01*
X186169907Y-102640000D02*
X186169907Y-103500000D01*
X181380000Y-109500000D02*
X181500000Y-109500000D01*
X184310001Y-111860000D02*
X184310001Y-111000000D01*
X183640000Y-109360000D02*
G75*
G03*
X183780000Y-109500000I140000J0D01*
G01*
X175000000Y-104643242D02*
X175000000Y-104523242D01*
X193036758Y-105140000D02*
G75*
G03*
X192896758Y-105000042I-139958J0D01*
G01*
X183900000Y-109500000D02*
G75*
G03*
X184040000Y-109360000I0J140000D01*
G01*
X191436758Y-106860000D02*
X191436758Y-106000000D01*
X182310001Y-111000000D02*
X182310001Y-111860000D01*
X179369907Y-104360000D02*
X179369907Y-103500000D01*
X178776758Y-107000000D02*
G75*
G02*
X178636800Y-106860000I42J140000D01*
G01*
X186700000Y-107500000D02*
G75*
G02*
X186840000Y-107640000I0J-140000D01*
G01*
X190969907Y-102640000D02*
X190969907Y-103500000D01*
X191109907Y-104500000D02*
X191229907Y-104500000D01*
X191369907Y-104360000D02*
X191369907Y-103500000D01*
X191369907Y-103500000D02*
X191369907Y-102640000D01*
X193909907Y-102500000D02*
X194029907Y-102500000D01*
X191769907Y-103500000D02*
X191769907Y-104360000D01*
X192169907Y-104360000D02*
X192169907Y-103500000D01*
X185780000Y-107500000D02*
X185900000Y-107500000D01*
X192169907Y-103500000D02*
X192169907Y-102640000D01*
X192309907Y-102500000D02*
X192429907Y-102500000D01*
X178236758Y-105140000D02*
X178236758Y-106000000D01*
X192569907Y-103500000D02*
X192569907Y-104360000D01*
X177910570Y-110681802D02*
X177401452Y-111190917D01*
X192969907Y-104360000D02*
X192969907Y-103500000D01*
X192969907Y-103500000D02*
X192969907Y-102640000D01*
X193109907Y-102500000D02*
X193229907Y-102500000D01*
X193369907Y-103500000D02*
X193369907Y-104360000D01*
X193509907Y-104500000D02*
X193629907Y-104500000D01*
X193769907Y-103500000D02*
X193769907Y-102640000D01*
X194569907Y-104360000D02*
X194569907Y-103500000D01*
X194569907Y-103500000D02*
X194569907Y-102640000D01*
X194709907Y-102500000D02*
X194829907Y-102500000D01*
X194969907Y-103500000D02*
X194969907Y-104360000D01*
X195369907Y-103500000D02*
X195369907Y-102640000D01*
X195769907Y-102640000D02*
X195769907Y-103360000D01*
X195909907Y-103500000D02*
X196029907Y-103500000D01*
X196029907Y-103500000D02*
X196500000Y-103500000D01*
X196500000Y-103500000D02*
X196500000Y-103950000D01*
X195950000Y-104630000D02*
X195950000Y-104750000D01*
X196090000Y-104890000D02*
X196500000Y-104890000D01*
X197500000Y-105030000D02*
X197500000Y-105150000D01*
X186636758Y-106000000D02*
X186636758Y-105140000D01*
X196500000Y-105550000D02*
X196500000Y-105926758D01*
X186236758Y-106000000D02*
X186236758Y-106860000D01*
X178440000Y-109360000D02*
X178440000Y-108500000D01*
X196500000Y-105926758D02*
X196426758Y-106000000D01*
X186096758Y-107000000D02*
X185976758Y-107000000D01*
X176602414Y-108595829D02*
X176312500Y-108885742D01*
X196426758Y-106000000D02*
X195976758Y-106000000D01*
X185836758Y-106860000D02*
X185836758Y-106000000D01*
X195696758Y-107000000D02*
X195576758Y-107000000D01*
X187370001Y-110000000D02*
X187250001Y-110000000D01*
X195436758Y-106860000D02*
X195436758Y-106140000D01*
X187110001Y-110140000D02*
X187110001Y-111000000D01*
X195436758Y-106140000D02*
X195436758Y-105140000D01*
X187110001Y-111000000D02*
X187110001Y-111860000D01*
X195036758Y-105140000D02*
X195036758Y-106000000D01*
X186710001Y-111860000D02*
X186710001Y-111000000D01*
X176029656Y-108602898D02*
X176425635Y-108206918D01*
X195036758Y-106000000D02*
X195036758Y-106860000D01*
X186710001Y-111000000D02*
X186710001Y-110140000D01*
X194896758Y-107000000D02*
X194776758Y-107000000D01*
X194636758Y-106000000D02*
X194636758Y-105140000D01*
X186310001Y-111000000D02*
X186310001Y-111860000D01*
X194496758Y-105000000D02*
X194376758Y-105000000D01*
X194236758Y-105140000D02*
X194236758Y-106000000D01*
X193696758Y-105000000D02*
X193576758Y-105000000D01*
X193436758Y-105140000D02*
X193436758Y-106000000D01*
X193036758Y-106860000D02*
X193036758Y-106000000D01*
X192896758Y-105000000D02*
X192776758Y-105000000D01*
X192636758Y-105140000D02*
X192636758Y-106000000D01*
X182636758Y-106860000D02*
X182636758Y-106000000D01*
X173860000Y-105983242D02*
X173140000Y-105983242D01*
X192636758Y-106000000D02*
X192636758Y-106860000D01*
X182636758Y-106000000D02*
X182636758Y-105140000D01*
X192496758Y-107000000D02*
X192376758Y-107000000D01*
X182496758Y-105000000D02*
X182376758Y-105000000D01*
X192096758Y-105000000D02*
X191976758Y-105000000D01*
X191836758Y-105140000D02*
X191836758Y-106000000D01*
X181836758Y-106860000D02*
X181836758Y-106000000D01*
X191836758Y-106000000D02*
X191836758Y-106860000D01*
X191696758Y-107000000D02*
X191576758Y-107000000D01*
X191436758Y-106000000D02*
X191436758Y-105140000D01*
X191296758Y-105000000D02*
X191176758Y-105000000D01*
X191036758Y-105140000D02*
X191036758Y-106000000D01*
X191036758Y-106000000D02*
X191036758Y-106860000D01*
X193335316Y-110164680D02*
X193943430Y-110772794D01*
X190896758Y-107000000D02*
X190776758Y-107000000D01*
X193943430Y-110970784D02*
X193858577Y-111055638D01*
X190636758Y-106000000D02*
X190636758Y-105140000D01*
X190496758Y-105000000D02*
X190376758Y-105000000D01*
X190236758Y-105140000D02*
X190236758Y-106000000D01*
X181110001Y-111000000D02*
X181110001Y-110140000D01*
X190236758Y-106000000D02*
X190236758Y-106860000D01*
X190096758Y-107000000D02*
X189976758Y-107000000D01*
X189836758Y-106000000D02*
X189836758Y-105140000D01*
X189696758Y-105000000D02*
X189576758Y-105000000D01*
X189436758Y-105140000D02*
X189436758Y-106000000D01*
X180310001Y-111000000D02*
X180310001Y-110140000D01*
X189436758Y-106000000D02*
X189436758Y-106860000D01*
X189296758Y-107000000D02*
X189176758Y-107000000D01*
X189036758Y-106000000D02*
X189036758Y-105140000D01*
X188636758Y-105140000D02*
X188636758Y-106000000D01*
X188496758Y-107000000D02*
X188376758Y-107000000D01*
X188236758Y-106860000D02*
X188236758Y-106000000D01*
X188236758Y-106000000D02*
X188236758Y-105140000D01*
X188096758Y-105000000D02*
X187976758Y-105000000D01*
X187836758Y-105140000D02*
X187836758Y-106000000D01*
X187836758Y-106000000D02*
X187836758Y-106860000D01*
X187696758Y-107000000D02*
X187576758Y-107000000D01*
X177514588Y-109946408D02*
X177443877Y-110017118D01*
X187436758Y-106000000D02*
X187436758Y-105140000D01*
X187296758Y-105000000D02*
X187176758Y-105000000D01*
X176552920Y-110342385D02*
X177161032Y-109734274D01*
X187036758Y-105140000D02*
X187036758Y-106000000D01*
X187036758Y-106000000D02*
X187036758Y-106860000D01*
X177380235Y-109317080D02*
X177295382Y-109232227D01*
X186896758Y-107000000D02*
X186776758Y-107000000D01*
X177097392Y-109232227D02*
X176878188Y-109451430D01*
X186636758Y-106860000D02*
X186636758Y-106000000D01*
X185696758Y-105000000D02*
X185576758Y-105000000D01*
X175421544Y-109211009D02*
X176029656Y-108602898D01*
X185436758Y-105140000D02*
X185436758Y-106000000D01*
X185296758Y-107000000D02*
X185176758Y-107000000D01*
X176142792Y-107924075D02*
X175746812Y-108320054D01*
X185036758Y-106000000D02*
X185036758Y-105140000D01*
X174940709Y-108928164D02*
X174855856Y-108843311D01*
X184896758Y-105000000D02*
X184776758Y-105000000D01*
X174855856Y-108645321D02*
X175463968Y-108037210D01*
X184636758Y-105140000D02*
X184636758Y-106000000D01*
X184636758Y-106000000D02*
X184636758Y-106860000D01*
X184496758Y-107000000D02*
X184376758Y-107000000D01*
X184096758Y-105000000D02*
X183976758Y-105000000D01*
X174290168Y-108079633D02*
X174898280Y-107471522D01*
X183836758Y-105140000D02*
X183836758Y-106000000D01*
X183836758Y-106000000D02*
X183836758Y-106860000D01*
X175506391Y-106665420D02*
X175421538Y-106580567D01*
X183436758Y-106000000D02*
X183436758Y-105140000D01*
X173809333Y-107796788D02*
X173724480Y-107711935D01*
X183296758Y-105000000D02*
X183176758Y-105000000D01*
X183036758Y-105140000D02*
X183036758Y-106000000D01*
X183036758Y-106000000D02*
X183036758Y-106860000D01*
X182236758Y-106000000D02*
X182236758Y-106860000D01*
X182096758Y-107000000D02*
X181976758Y-107000000D01*
X181836758Y-106000000D02*
X181836758Y-105140000D01*
X181436758Y-105140000D02*
X181436758Y-106000000D01*
X181436758Y-106000000D02*
X181436758Y-106860000D01*
X181296758Y-107000000D02*
X181176758Y-107000000D01*
X174000000Y-102500000D02*
X173500000Y-102000000D01*
X181036758Y-106860000D02*
X181036758Y-106000000D01*
X180636758Y-105140000D02*
X180636758Y-106000000D01*
X180636758Y-106000000D02*
X180636758Y-106860000D01*
X180496758Y-107000000D02*
X180376758Y-107000000D01*
X180236758Y-106860000D02*
X180236758Y-106000000D01*
X180236758Y-106000000D02*
X180236758Y-105140000D01*
X184440000Y-107640000D02*
X184440000Y-108500000D01*
X180096758Y-105000000D02*
X179976758Y-105000000D01*
X179836758Y-106000000D02*
X179836758Y-106860000D01*
X184840000Y-109360000D02*
X184840000Y-108500000D01*
X179696758Y-107000000D02*
X179576758Y-107000000D01*
X179436758Y-106860000D02*
X179436758Y-106000000D01*
X179296758Y-105000000D02*
X179176758Y-105000000D01*
X179036758Y-105140000D02*
X179036758Y-106000000D01*
X179036758Y-106000000D02*
X179036758Y-106860000D01*
X178896758Y-107000000D02*
X178776758Y-107000000D01*
X178636758Y-106000000D02*
X178636758Y-105140000D01*
X186040000Y-107640000D02*
X186040000Y-108500000D01*
X178496758Y-105000000D02*
X178376758Y-105000000D01*
X177836758Y-106860000D02*
X177836758Y-106000000D01*
X177836758Y-106000000D02*
X177836758Y-105140000D01*
X186840000Y-107640000D02*
X186840000Y-108500000D01*
X177696758Y-105000000D02*
X177576758Y-105000000D01*
X177436758Y-105140000D02*
X177436758Y-105860000D01*
X177176758Y-106000000D02*
X177000000Y-106000000D01*
X177000000Y-106000000D02*
X177000000Y-106900000D01*
X177000000Y-107550000D02*
X177000000Y-107700000D01*
X177000000Y-108000000D02*
X177500000Y-108500000D01*
X178040000Y-108360000D02*
X178040000Y-109360000D01*
X179240000Y-109360000D02*
X179240000Y-108500000D01*
X189240000Y-107640000D02*
X189240000Y-108500000D01*
X179240000Y-108500000D02*
X179240000Y-107640000D01*
X189240000Y-108500000D02*
X189240000Y-109360000D01*
X179380000Y-107500000D02*
X179500000Y-107500000D01*
X179640000Y-107640000D02*
X179640000Y-108500000D01*
X189640000Y-109360000D02*
X189640000Y-108500000D01*
X179640000Y-108500000D02*
X179640000Y-109360000D01*
X189640000Y-108500000D02*
X189640000Y-107640000D01*
X179780000Y-109500000D02*
X179900000Y-109500000D01*
X189780000Y-107500000D02*
X189900000Y-107500000D01*
X180040000Y-109360000D02*
X180040000Y-108500000D01*
X190040000Y-107640000D02*
X190040000Y-108500000D01*
X180040000Y-108500000D02*
X180040000Y-107640000D01*
X190040000Y-108500000D02*
X190040000Y-109360000D01*
X180980000Y-107500000D02*
X181100000Y-107500000D01*
X190980000Y-109500000D02*
X191100000Y-109500000D01*
X181240000Y-108500000D02*
X181240000Y-109360000D01*
X182040000Y-107640000D02*
X182040000Y-108500000D01*
X182440000Y-109360000D02*
X182440000Y-108500000D01*
X182840000Y-107640000D02*
X182840000Y-108500000D01*
X182980000Y-109500000D02*
X183100000Y-109500000D01*
X183240000Y-109360000D02*
X183240000Y-108500000D01*
X183240000Y-108500000D02*
X183240000Y-107640000D01*
X183380000Y-107500000D02*
X183500000Y-107500000D01*
X183640000Y-107640000D02*
X183640000Y-108500000D01*
X183640000Y-108500000D02*
X183640000Y-109360000D01*
X182170001Y-112000000D02*
X182050001Y-112000000D01*
X183780000Y-109500000D02*
X183900000Y-109500000D01*
X170000000Y-102000000D02*
X169500000Y-102500000D01*
X184040000Y-109360000D02*
X184040000Y-108500000D01*
X184440000Y-108500000D02*
X184440000Y-109360000D01*
X184580000Y-109500000D02*
X184700000Y-109500000D01*
X185240000Y-107640000D02*
X185240000Y-108500000D01*
X185640000Y-109360000D02*
X185640000Y-108500000D01*
X186180000Y-109500000D02*
X186300000Y-109500000D01*
X186440000Y-109360000D02*
X186440000Y-108500000D01*
X186440000Y-108500000D02*
X186440000Y-107640000D01*
X186580000Y-107500000D02*
X186700000Y-107500000D01*
X188440000Y-107640000D02*
X188440000Y-108500000D01*
X188440000Y-108500000D02*
X188440000Y-109360000D01*
X189380000Y-109500000D02*
X189500000Y-109500000D01*
X190440000Y-109360000D02*
X190440000Y-108500000D01*
X190440000Y-108500000D02*
X190440000Y-107640000D01*
X190580000Y-107500000D02*
X190700000Y-107500000D01*
X190840000Y-108500000D02*
X190840000Y-109360000D01*
X191240000Y-108500000D02*
X191240000Y-107640000D01*
X191640000Y-107640000D02*
X191640000Y-108500000D01*
X191780000Y-109500000D02*
X191900000Y-109500000D01*
X192040000Y-109360000D02*
X192040000Y-108500000D01*
X192180000Y-107500000D02*
X192300000Y-107500000D01*
X192440000Y-107640000D02*
X192440000Y-108500000D01*
X192580000Y-109500000D02*
X192700000Y-109500000D01*
X192840000Y-109360000D02*
X192840000Y-108500000D01*
X192840000Y-108500000D02*
X192840000Y-107640000D01*
X192980000Y-107500000D02*
X193100000Y-107500000D01*
X193240000Y-107640000D02*
X193240000Y-108360000D01*
X193500000Y-108500000D02*
X194000000Y-108500000D01*
X173140000Y-104783242D02*
X174000000Y-104783242D01*
X194000000Y-108500000D02*
X194000000Y-109500000D01*
X194000000Y-109697990D02*
X194509117Y-110207107D01*
X194509117Y-110405097D02*
X194424264Y-110489951D01*
X194226274Y-110489951D02*
X193717158Y-109980835D01*
X193717158Y-109980835D02*
X193529772Y-109793450D01*
X193352995Y-109793450D02*
X193246928Y-109899516D01*
X193246928Y-110076292D02*
X193335316Y-110164680D01*
X181910001Y-111000000D02*
X181910001Y-110140000D01*
X192953481Y-110546522D02*
X192868627Y-110631374D01*
X192868627Y-110631374D02*
X192500000Y-111000000D01*
X192500000Y-111000000D02*
X192050001Y-111000000D01*
X191910001Y-111140000D02*
X191910001Y-111860000D01*
X191510001Y-111140000D02*
X191510001Y-110140000D01*
X191110001Y-110140000D02*
X191110001Y-111000000D01*
X190710001Y-111860000D02*
X190710001Y-111000000D01*
X190570001Y-110000000D02*
X190450001Y-110000000D01*
X179510001Y-111860000D02*
X179510001Y-111000000D01*
X190310001Y-110140000D02*
X190310001Y-111000000D01*
X190310001Y-111000000D02*
X190310001Y-111860000D01*
X190170001Y-112000000D02*
X190050001Y-112000000D01*
X189910001Y-111860000D02*
X189910001Y-111000000D01*
X189770001Y-110000000D02*
X189650001Y-110000000D01*
X189510001Y-110140000D02*
X189510001Y-111000000D01*
X189110001Y-111860000D02*
X189110001Y-111000000D01*
X189110001Y-111000000D02*
X189110001Y-110140000D01*
X188970001Y-110000000D02*
X188850001Y-110000000D01*
X188310001Y-111860000D02*
X188310001Y-111000000D01*
X188310001Y-111000000D02*
X188310001Y-110140000D01*
X187910001Y-111000000D02*
X187910001Y-111860000D01*
X187770001Y-112000000D02*
X187650001Y-112000000D01*
X187510001Y-111860000D02*
X187510001Y-111000000D01*
X186170001Y-112000000D02*
X186050001Y-112000000D01*
X185910001Y-111860000D02*
X185910001Y-111000000D01*
X185910001Y-111000000D02*
X185910001Y-110140000D01*
X185770001Y-110000000D02*
X185650001Y-110000000D01*
X185510001Y-110140000D02*
X185510001Y-111000000D01*
X185510001Y-111000000D02*
X185510001Y-111860000D01*
X185110001Y-111860000D02*
X185110001Y-111000000D01*
X185110001Y-111000000D02*
X185110001Y-110140000D01*
X183510001Y-111000000D02*
X183510001Y-110140000D01*
X183110001Y-111000000D02*
X183110001Y-111860000D01*
X182970001Y-112000000D02*
X182850001Y-112000000D01*
X182710001Y-111000000D02*
X182710001Y-110140000D01*
X182570001Y-110000000D02*
X182450001Y-110000000D01*
X181910001Y-111860000D02*
X181910001Y-111000000D01*
X181110001Y-111860000D02*
X181110001Y-111000000D01*
X180970001Y-110000000D02*
X180850001Y-110000000D01*
X180710001Y-111000000D02*
X180710001Y-111860000D01*
X180570001Y-112000000D02*
X180450001Y-112000000D01*
X180310001Y-111860000D02*
X180310001Y-111000000D01*
X180170001Y-110000000D02*
X180050001Y-110000000D01*
X179510001Y-111000000D02*
X179510001Y-110140000D01*
X179110001Y-110140000D02*
X179110001Y-110860000D01*
X178970001Y-111000000D02*
X178850001Y-111000000D01*
X178850001Y-111000000D02*
X178426758Y-111000000D01*
X177118609Y-110908074D02*
X177627726Y-110398958D01*
X177627726Y-110398958D02*
X177797431Y-110229252D01*
X177797431Y-110087830D02*
X177656009Y-109946408D01*
X176637773Y-110625228D02*
X176552920Y-110540375D01*
X177161032Y-109734274D02*
X177380235Y-109515070D01*
X176072085Y-110059540D02*
X175987232Y-109974687D01*
X175987232Y-109776697D02*
X176595344Y-109168586D01*
X176595344Y-109168586D02*
X176885257Y-108878672D01*
X176885257Y-108680682D02*
X176800404Y-108595829D01*
X176312500Y-108885742D02*
X175704387Y-109493852D01*
X173724480Y-107513945D02*
X174233597Y-107004829D01*
X174233597Y-106806839D02*
X174148745Y-106721987D01*
X174148745Y-106721987D02*
X174000000Y-106573242D01*
X174000000Y-106573242D02*
X174000000Y-106123242D01*
X173000000Y-105843242D02*
X173000000Y-105723242D01*
X173140000Y-105583242D02*
X173860000Y-105583242D01*
X175000000Y-105443242D02*
X175000000Y-105323242D01*
X174000000Y-104383242D02*
X173140000Y-104383242D01*
X174860000Y-105183242D02*
X174000000Y-105183242D01*
X174000000Y-105183242D02*
X173140000Y-105183242D01*
X173000000Y-105043242D02*
X173000000Y-104923242D01*
X174000000Y-104783242D02*
X174860000Y-104783242D01*
X174000000Y-103400216D02*
X174000000Y-102500000D01*
X174860000Y-104383242D02*
X174000000Y-104383242D01*
D17*
X169340000Y-102660000D02*
X156310000Y-102660000D01*
X169500000Y-102500000D02*
X169340000Y-102660000D01*
%TO.N,/MOT_POS*%
X157700000Y-105200000D02*
X158820000Y-106320000D01*
X156310000Y-105200000D02*
X157700000Y-105200000D01*
X158820000Y-106320000D02*
X158820000Y-114890000D01*
X158820000Y-114890000D02*
X154640000Y-119070000D01*
%TO.N,/MOT_NEG*%
X156310000Y-107740000D02*
X156310000Y-112400000D01*
X156310000Y-112400000D02*
X154640000Y-114070000D01*
D18*
%TO.N,/Tout*%
X169770000Y-87000000D02*
X173860000Y-91090000D01*
X156500000Y-87000000D02*
X169770000Y-87000000D01*
%TO.N,+3.3V*%
X169917006Y-84460000D02*
X175203503Y-89746497D01*
X156500000Y-84460000D02*
X169917006Y-84460000D01*
%TD*%
M02*
