M48
; DRILL file {KiCad 8.0.0-8.0.0-1~ubuntu20.04.1} date 2024-06-18T17:21:55-0600
; FORMAT={-:-/ absolute / inch / decimal}
; #@! TF.CreationDate,2024-06-18T17:21:55-06:00
; #@! TF.GenerationSoftware,Kicad,Pcbnew,8.0.0-8.0.0-1~ubuntu20.04.1
; #@! TF.FileFunction,Plated,1,2,PTH
FMAT,2
INCH
; #@! TA.AperFunction,Plated,PTH,ViaDrill
T1C0.0118
; #@! TA.AperFunction,Plated,PTH,ComponentDrill
T2C0.0276
; #@! TA.AperFunction,Plated,PTH,ComponentDrill
T3C0.0315
; #@! TA.AperFunction,Plated,PTH,ComponentDrill
T4C0.0394
; #@! TA.AperFunction,Plated,PTH,ComponentDrill
T5C0.0433
; #@! TA.AperFunction,Plated,PTH,ComponentDrill
T6C0.0472
; #@! TA.AperFunction,Plated,PTH,ComponentDrill
T7C0.1260
; #@! TA.AperFunction,Plated,PTH,ComponentDrill
T8C0.1772
%
G90
G05
T1
X4.3138Y-3.2213
X4.324Y-2.7843
X4.3295Y-3.2846
X4.3331Y-4.2354
X4.3331Y-4.6421
X4.4157Y-4.2811
X4.4165Y-4.6874
X4.4197Y-2.5264
X4.4472Y-2.9669
X4.4516Y-3.5535
X4.4559Y-3.9933
X4.5701Y-3.4051
X4.6264Y-3.0256
X4.6447Y-4.0484
X4.6472Y-3.6079
X4.6524Y-4.4539
X4.7551Y-2.4531
X4.8008Y-2.4526
X4.85Y-2.4524
X4.8941Y-2.4516
X4.9398Y-2.451
X4.989Y-2.4508
X5.0421Y-2.4516
X9.2116Y-1.3061
T2
X7.9882Y-4.3898
X7.9882Y-4.5898
X7.9885Y-3.7382
X7.9885Y-3.9382
X7.9895Y-3.0862
X7.9895Y-3.2862
X7.9916Y-2.4276
X7.9916Y-2.6276
X7.9921Y-1.7662
X7.9921Y-1.9662
X8.5244Y-4.4941
X8.5244Y-4.6941
X8.5247Y-3.8385
X8.5247Y-4.0385
X8.5258Y-3.1851
X8.5258Y-3.3851
X8.5279Y-2.5262
X8.5279Y-2.7262
X8.5284Y-1.8669
X8.5284Y-2.0669
T3
X8.1063Y-4.2942
X8.1063Y-4.3942
X8.1063Y-4.4942
X8.1066Y-3.6382
X8.1066Y-3.7382
X8.1066Y-3.8382
X8.1076Y-2.9862
X8.1076Y-3.0862
X8.1076Y-3.1862
X8.1097Y-2.3276
X8.1097Y-2.4276
X8.1097Y-2.5276
X8.1102Y-1.6662
X8.1102Y-1.7662
X8.1102Y-1.8662
X8.4063Y-4.2942
X8.4063Y-4.3942
X8.4063Y-4.4942
X8.4066Y-3.6382
X8.4066Y-3.7382
X8.4066Y-3.8382
X8.4076Y-2.9862
X8.4076Y-3.0862
X8.4076Y-3.1862
X8.4097Y-2.3276
X8.4097Y-2.4276
X8.4097Y-2.5276
X8.4102Y-1.6662
X8.4102Y-1.7662
X8.4102Y-1.8662
T4
X5.2756Y-1.7323
X5.2756Y-1.8323
X5.2756Y-2.6772
X5.2756Y-2.7772
X5.2756Y-2.8772
X5.2756Y-2.9772
X5.2756Y-3.0772
X5.2756Y-3.1772
X5.2756Y-3.2772
X5.2756Y-3.3772
X5.2756Y-3.4772
X5.3756Y-2.6772
X5.3756Y-2.7772
X5.3756Y-2.8772
X5.3756Y-2.9772
X5.3756Y-3.0772
X5.3756Y-3.1772
X5.3756Y-3.2772
X5.3756Y-3.3772
X5.3756Y-3.4772
X7.6378Y-1.7323
X7.6378Y-1.8323
X7.6378Y-1.9323
X7.6378Y-2.0323
X7.6378Y-2.1323
X7.6378Y-2.2323
X7.6378Y-2.3323
X7.6378Y-2.4323
X7.6378Y-2.5323
X7.6378Y-2.6323
T5
X8.7754Y-4.4941
X8.7754Y-4.5941
X8.7754Y-4.6941
X8.7757Y-3.8385
X8.7757Y-3.9385
X8.7757Y-4.0385
X8.7768Y-3.1851
X8.7768Y-3.2851
X8.7768Y-3.3851
X8.7774Y-1.8669
X8.7774Y-1.9669
X8.7774Y-2.0669
X8.7789Y-2.5262
X8.7789Y-2.6262
X8.7789Y-2.7262
T6
X4.0945Y-2.7161
X4.0945Y-2.8661
X4.0945Y-3.1559
X4.0945Y-3.3059
X4.0945Y-3.5957
X4.0945Y-3.7457
X4.0945Y-4.0354
X4.0945Y-4.1854
X4.0945Y-4.4752
X4.0945Y-4.6252
X4.1811Y-2.2697
X4.1811Y-2.4197
X4.4905Y-1.437
X4.6405Y-1.437
X4.7382Y-4.8445
X4.8882Y-4.8445
X5.0382Y-4.8445
X5.3244Y-4.8472
X5.4744Y-4.8472
X5.6244Y-4.8472
X6.2232Y-4.8465
X6.3732Y-4.8465
X6.5232Y-4.8465
X9.4213Y-1.6673
X9.4213Y-1.8173
X9.4239Y-4.2992
X9.4239Y-4.4492
X9.4252Y-2.3252
X9.4252Y-2.4752
X9.4252Y-2.9866
X9.4252Y-3.1366
X9.4252Y-3.6441
X9.4252Y-3.7941
T7
X4.1339Y-1.378
X4.1339Y-4.9213
X5.2756Y-1.4961
X5.2756Y-3.8583
X7.6378Y-1.4961
X7.6378Y-3.8583
X9.4488Y-1.378
X9.4488Y-4.9213
T8
X8.6811Y-1.4173
X8.9646Y-1.4173
M30
