M48
; DRILL file {KiCad 8.0.0-8.0.0-1~ubuntu20.04.1} date 2024-06-18T14:04:22-0600
; FORMAT={-:-/ absolute / inch / decimal}
; #@! TF.CreationDate,2024-06-18T14:04:22-06:00
; #@! TF.GenerationSoftware,Kicad,Pcbnew,8.0.0-8.0.0-1~ubuntu20.04.1
; #@! TF.FileFunction,Plated,1,2,PTH
FMAT,2
INCH
; #@! TA.AperFunction,Plated,PTH,ViaDrill
T1C0.0118
; #@! TA.AperFunction,Plated,PTH,ComponentDrill
T2C0.0276
; #@! TA.AperFunction,Plated,PTH,ComponentDrill
T3C0.0315
; #@! TA.AperFunction,Plated,PTH,ComponentDrill
T4C0.0394
; #@! TA.AperFunction,Plated,PTH,ComponentDrill
T5C0.0472
; #@! TA.AperFunction,Plated,PTH,ComponentDrill
T6C0.1260
; #@! TA.AperFunction,Plated,PTH,ComponentDrill
T7C0.1772
%
G90
G05
T1
X4.2016Y-2.1303
X4.2642Y-2.1303
X4.298Y-2.7976
X4.3213Y-2.1299
X4.3287Y-4.6449
X4.337Y-3.728
X4.374Y-2.1299
X4.4205Y-3.7894
X4.4222Y-4.5659
X4.426Y-3.7035
X4.4303Y-4.5098
X4.4307Y-2.1299
X4.4315Y-2.9094
X4.4327Y-2.8331
X4.4862Y-2.1307
X4.4931Y-2.6545
X4.5236Y-3.4685
X4.5236Y-4.2618
X4.552Y-2.1307
X4.6526Y-3.9326
X4.6618Y-2.4531
X4.6685Y-3.0413
X4.7067Y-3.5321
X4.7179Y-4.3145
X4.7433Y-4.6744
X4.7488Y-2.4571
X4.8276Y-2.45
X4.8941Y-2.4516
X4.965Y-2.4488
X5.0283Y-2.4528
X5.1039Y-2.4516
X5.2203Y-4.5384
X5.2254Y-4.627
X5.4874Y-4.7276
X5.5443Y-4.7333
X9.1875Y-1.3036
T2
X7.9409Y-4.626
X7.9409Y-4.826
X7.9457Y-4.2303
X7.9457Y-4.4303
X7.9488Y-3.8268
X7.9488Y-4.0268
X7.9496Y-3.0161
X7.9496Y-3.2161
X7.9528Y-2.6067
X7.9528Y-2.8067
X7.9535Y-1.7642
X7.9535Y-1.9642
X7.9535Y-2.2051
X7.9535Y-2.4051
X7.9535Y-3.4217
X7.9535Y-3.6217
X8.5205Y-1.8602
X8.5205Y-2.0602
X8.5283Y-2.3051
X8.5283Y-2.5051
X8.5354Y-4.7244
X8.5354Y-4.9244
X8.5362Y-2.7067
X8.5362Y-2.9067
X8.5362Y-3.1161
X8.5362Y-3.3161
X8.5362Y-3.5217
X8.5362Y-3.7217
X8.5362Y-3.939
X8.5362Y-4.139
X8.5362Y-4.3287
X8.5362Y-4.5287
T3
X8.0811Y-2.5067
X8.0811Y-2.6067
X8.0811Y-2.7067
X8.0827Y-2.9161
X8.0827Y-3.0161
X8.0827Y-3.1161
X8.0827Y-3.3228
X8.0827Y-3.4228
X8.0827Y-3.5228
X8.0827Y-3.739
X8.0827Y-3.839
X8.0827Y-3.939
X8.0827Y-4.1283
X8.0827Y-4.2283
X8.0827Y-4.3283
X8.0827Y-4.5264
X8.0827Y-4.6264
X8.0827Y-4.7264
X8.0858Y-1.6614
X8.0858Y-1.7614
X8.0858Y-1.8614
X8.0866Y-2.1051
X8.0866Y-2.2051
X8.0866Y-2.3051
X8.3811Y-2.5067
X8.3811Y-2.6067
X8.3811Y-2.7067
X8.3827Y-2.9161
X8.3827Y-3.0161
X8.3827Y-3.1161
X8.3827Y-3.3228
X8.3827Y-3.4228
X8.3827Y-3.5228
X8.3827Y-3.739
X8.3827Y-3.839
X8.3827Y-3.939
X8.3827Y-4.1283
X8.3827Y-4.2283
X8.3827Y-4.3283
X8.3827Y-4.5264
X8.3827Y-4.6264
X8.3827Y-4.7264
X8.3858Y-1.6614
X8.3858Y-1.7614
X8.3858Y-1.8614
X8.3866Y-2.1051
X8.3866Y-2.2051
X8.3866Y-2.3051
T4
X4.2043Y-3.5321
X4.2043Y-3.6321
X4.2043Y-3.8333
X4.2043Y-3.9333
X4.2043Y-4.0333
X4.2043Y-4.1333
X4.2043Y-4.2333
X4.2055Y-2.9392
X4.2055Y-3.0392
X4.2055Y-3.1392
X4.2055Y-3.2392
X4.2055Y-3.3392
X4.2071Y-2.6455
X4.2071Y-2.7455
X4.2071Y-4.4535
X4.2071Y-4.5535
X4.5433Y-4.9083
X4.6433Y-4.9083
X4.7433Y-4.9083
X4.8433Y-4.9083
X4.9433Y-4.9083
X5.2742Y-4.9075
X5.2756Y-1.7323
X5.2756Y-1.8323
X5.2756Y-2.6772
X5.2756Y-2.7772
X5.2756Y-2.8772
X5.2756Y-2.9772
X5.2756Y-3.0772
X5.2756Y-3.1772
X5.2756Y-3.2772
X5.2756Y-3.3772
X5.2756Y-3.4772
X5.3742Y-4.9075
X5.3756Y-2.6772
X5.3756Y-2.7772
X5.3756Y-2.8772
X5.3756Y-2.9772
X5.3756Y-3.0772
X5.3756Y-3.1772
X5.3756Y-3.2772
X5.3756Y-3.3772
X5.3756Y-3.4772
X5.6311Y-4.9185
X5.7311Y-4.9185
X5.8311Y-4.9185
X5.9311Y-4.9185
X6.0311Y-4.9185
X7.6378Y-1.7323
X7.6378Y-1.8323
X7.6378Y-1.9323
X7.6378Y-2.0323
X7.6378Y-2.1323
X7.6378Y-2.2323
X7.6378Y-2.3323
X7.6378Y-2.4323
X7.6378Y-2.5323
X7.6378Y-2.6323
X9.4524Y-2.9248
X9.4524Y-3.0248
X9.4526Y-1.6504
X9.4526Y-1.7504
X9.4531Y-2.1043
X9.4531Y-2.2043
X9.4543Y-2.5197
X9.4543Y-2.6197
X9.4563Y-3.3445
X9.4563Y-3.4445
X9.4579Y-3.7508
X9.4579Y-3.8508
X9.4579Y-4.1575
X9.4579Y-4.2575
X9.4618Y-4.5591
X9.4618Y-4.6591
T5
X4.2098Y-2.2713
X4.2098Y-2.4213
X4.4905Y-1.437
X4.6405Y-1.437
X6.3994Y-4.8166
X6.5494Y-4.8166
X6.6994Y-4.8166
T6
X4.1339Y-1.378
X4.1339Y-4.9213
X5.2756Y-1.4961
X5.2756Y-3.8583
X7.6378Y-1.4961
X7.6378Y-3.8583
X9.4488Y-1.378
X9.4488Y-4.9213
T7
X8.6811Y-1.4173
X8.9646Y-1.4173
M30
