%TF.GenerationSoftware,KiCad,Pcbnew,8.0.0-8.0.0-1~ubuntu20.04.1*%
%TF.CreationDate,2024-06-18T14:04:34-06:00*%
%TF.ProjectId,minibioreactor,6d696e69-6269-46f7-9265-6163746f722e,rev?*%
%TF.SameCoordinates,Original*%
%TF.FileFunction,Soldermask,Bot*%
%TF.FilePolarity,Negative*%
%FSLAX46Y46*%
G04 Gerber Fmt 4.6, Leading zero omitted, Abs format (unit mm)*
G04 Created by KiCad (PCBNEW 8.0.0-8.0.0-1~ubuntu20.04.1) date 2024-06-18 14:04:34*
%MOMM*%
%LPD*%
G01*
G04 APERTURE LIST*
G04 Aperture macros list*
%AMRoundRect*
0 Rectangle with rounded corners*
0 $1 Rounding radius*
0 $2 $3 $4 $5 $6 $7 $8 $9 X,Y pos of 4 corners*
0 Add a 4 corners polygon primitive as box body*
4,1,4,$2,$3,$4,$5,$6,$7,$8,$9,$2,$3,0*
0 Add four circle primitives for the rounded corners*
1,1,$1+$1,$2,$3*
1,1,$1+$1,$4,$5*
1,1,$1+$1,$6,$7*
1,1,$1+$1,$8,$9*
0 Add four rect primitives between the rounded corners*
20,1,$1+$1,$2,$3,$4,$5,0*
20,1,$1+$1,$4,$5,$6,$7,0*
20,1,$1+$1,$6,$7,$8,$9,0*
20,1,$1+$1,$8,$9,$2,$3,0*%
G04 Aperture macros list end*
%ADD10R,1.600000X1.600000*%
%ADD11O,1.600000X1.600000*%
%ADD12R,1.700000X1.700000*%
%ADD13O,1.700000X1.700000*%
%ADD14RoundRect,0.250000X-1.550000X0.650000X-1.550000X-0.650000X1.550000X-0.650000X1.550000X0.650000X0*%
%ADD15O,3.600000X1.800000*%
%ADD16C,1.400000*%
%ADD17O,1.400000X1.400000*%
%ADD18C,3.600000*%
%ADD19C,5.600000*%
%ADD20RoundRect,0.250000X0.650000X1.550000X-0.650000X1.550000X-0.650000X-1.550000X0.650000X-1.550000X0*%
%ADD21O,1.800000X3.600000*%
%ADD22RoundRect,0.250000X-0.650000X-1.550000X0.650000X-1.550000X0.650000X1.550000X-0.650000X1.550000X0*%
%ADD23RoundRect,1.500000X1.500000X1.500000X-1.500000X1.500000X-1.500000X-1.500000X1.500000X-1.500000X0*%
%ADD24C,6.000000*%
G04 APERTURE END LIST*
D10*
%TO.C,U304*%
X205300000Y-74070000D03*
D11*
X205300000Y-76610000D03*
X205300000Y-79150000D03*
X212920000Y-79150000D03*
X212920000Y-76610000D03*
X212920000Y-74070000D03*
%TD*%
D12*
%TO.C,J301*%
X240095000Y-41920000D03*
D13*
X240095000Y-44460000D03*
%TD*%
D10*
%TO.C,U301*%
X205380000Y-42200000D03*
D11*
X205380000Y-44740000D03*
X205380000Y-47280000D03*
X213000000Y-47280000D03*
X213000000Y-44740000D03*
X213000000Y-42200000D03*
%TD*%
D12*
%TO.C,J202*%
X106820000Y-74655000D03*
D13*
X106820000Y-77195000D03*
X106820000Y-79735000D03*
X106820000Y-82275000D03*
X106820000Y-84815000D03*
%TD*%
D12*
%TO.C,J307*%
X240230000Y-105600000D03*
D13*
X240230000Y-108140000D03*
%TD*%
D14*
%TO.C,J2*%
X106930000Y-57690000D03*
D15*
X106930000Y-61500000D03*
%TD*%
D16*
%TO.C,R304*%
X216620000Y-58550000D03*
D17*
X216620000Y-63630000D03*
%TD*%
D18*
%TO.C,H4*%
X134000000Y-98000000D03*
D19*
X134000000Y-98000000D03*
%TD*%
D12*
%TO.C,J4*%
X136540000Y-68000000D03*
D13*
X134000000Y-68000000D03*
X136540000Y-70540000D03*
X134000000Y-70540000D03*
X136540000Y-73080000D03*
X134000000Y-73080000D03*
X136540000Y-75620000D03*
X134000000Y-75620000D03*
X136540000Y-78160000D03*
X134000000Y-78160000D03*
X136540000Y-80700000D03*
X134000000Y-80700000D03*
X136540000Y-83240000D03*
X134000000Y-83240000D03*
X136540000Y-85780000D03*
X134000000Y-85780000D03*
X136540000Y-88320000D03*
X134000000Y-88320000D03*
%TD*%
D12*
%TO.C,J303*%
X240140000Y-64000000D03*
D13*
X240140000Y-66540000D03*
%TD*%
D10*
%TO.C,U308*%
X205300000Y-114970000D03*
D11*
X205300000Y-117510000D03*
X205300000Y-120050000D03*
X212920000Y-120050000D03*
X212920000Y-117510000D03*
X212920000Y-114970000D03*
%TD*%
D16*
%TO.C,R306*%
X216820000Y-68750000D03*
D17*
X216820000Y-73830000D03*
%TD*%
D12*
%TO.C,J5*%
X134000000Y-44000000D03*
D13*
X134000000Y-46540000D03*
%TD*%
D18*
%TO.C,H3*%
X194000000Y-98000000D03*
D19*
X194000000Y-98000000D03*
%TD*%
D12*
%TO.C,J201*%
X106860000Y-67195000D03*
D13*
X106860000Y-69735000D03*
%TD*%
D18*
%TO.C,H6*%
X105000000Y-35000000D03*
D19*
X105000000Y-35000000D03*
%TD*%
D10*
%TO.C,U305*%
X205300000Y-84400000D03*
D11*
X205300000Y-86940000D03*
X205300000Y-89480000D03*
X212920000Y-89480000D03*
X212920000Y-86940000D03*
X212920000Y-84400000D03*
%TD*%
D16*
%TO.C,R311*%
X201900000Y-97200000D03*
D17*
X201900000Y-102280000D03*
%TD*%
D12*
%TO.C,J6*%
X194000000Y-66860000D03*
D13*
X194000000Y-64320000D03*
X194000000Y-61780000D03*
X194000000Y-59240000D03*
X194000000Y-56700000D03*
X194000000Y-54160000D03*
X194000000Y-51620000D03*
X194000000Y-49080000D03*
X194000000Y-46540000D03*
X194000000Y-44000000D03*
%TD*%
D16*
%TO.C,R305*%
X202000000Y-66210000D03*
D17*
X202000000Y-71290000D03*
%TD*%
D16*
%TO.C,R310*%
X216820000Y-89450000D03*
D17*
X216820000Y-94530000D03*
%TD*%
D12*
%TO.C,J308*%
X240330000Y-115800000D03*
D13*
X240330000Y-118340000D03*
%TD*%
D12*
%TO.C,J306*%
X240230000Y-95270000D03*
D13*
X240230000Y-97810000D03*
%TD*%
D12*
%TO.C,J304*%
X240090000Y-74290000D03*
D13*
X240090000Y-76830000D03*
%TD*%
D12*
%TO.C,J204*%
X106790000Y-97365000D03*
D13*
X106790000Y-99905000D03*
X106790000Y-102445000D03*
X106790000Y-104985000D03*
X106790000Y-107525000D03*
%TD*%
D20*
%TO.C,J1*%
X117867500Y-36500000D03*
D21*
X114057500Y-36500000D03*
%TD*%
D16*
%TO.C,R303*%
X202020000Y-56010000D03*
D17*
X202020000Y-61090000D03*
%TD*%
D16*
%TO.C,R307*%
X201920000Y-76610000D03*
D17*
X201920000Y-81690000D03*
%TD*%
D18*
%TO.C,H8*%
X240000000Y-125000000D03*
D19*
X240000000Y-125000000D03*
%TD*%
D18*
%TO.C,H2*%
X134000000Y-38000000D03*
D19*
X134000000Y-38000000D03*
%TD*%
D10*
%TO.C,U307*%
X205300000Y-104860000D03*
D11*
X205300000Y-107400000D03*
X205300000Y-109940000D03*
X212920000Y-109940000D03*
X212920000Y-107400000D03*
X212920000Y-104860000D03*
%TD*%
D16*
%TO.C,R301*%
X202020000Y-44810000D03*
D17*
X202020000Y-49890000D03*
%TD*%
D16*
%TO.C,R308*%
X216820000Y-79150000D03*
D17*
X216820000Y-84230000D03*
%TD*%
D16*
%TO.C,R314*%
X216820000Y-109950000D03*
D17*
X216820000Y-115030000D03*
%TD*%
D22*
%TO.C,J7*%
X162545000Y-122342500D03*
D21*
X166355000Y-122342500D03*
X170165000Y-122342500D03*
%TD*%
D10*
%TO.C,U303*%
X205260000Y-63670000D03*
D11*
X205260000Y-66210000D03*
X205260000Y-68750000D03*
X212880000Y-68750000D03*
X212880000Y-66210000D03*
X212880000Y-63670000D03*
%TD*%
D16*
%TO.C,R316*%
X216800000Y-120000000D03*
D17*
X216800000Y-125080000D03*
%TD*%
D18*
%TO.C,H1*%
X194000000Y-38000000D03*
D19*
X194000000Y-38000000D03*
%TD*%
D16*
%TO.C,R302*%
X216420000Y-47250000D03*
D17*
X216420000Y-52330000D03*
%TD*%
D12*
%TO.C,J206*%
X115400000Y-124670000D03*
D13*
X117940000Y-124670000D03*
X120480000Y-124670000D03*
X123020000Y-124670000D03*
X125560000Y-124670000D03*
%TD*%
D12*
%TO.C,J302*%
X240110000Y-53450000D03*
D13*
X240110000Y-55990000D03*
%TD*%
D23*
%TO.C,J3*%
X227700000Y-36000000D03*
D24*
X220500000Y-36000000D03*
%TD*%
D12*
%TO.C,J203*%
X106790000Y-89715000D03*
D13*
X106790000Y-92255000D03*
%TD*%
D16*
%TO.C,R315*%
X201700000Y-117500000D03*
D17*
X201700000Y-122580000D03*
%TD*%
D10*
%TO.C,U302*%
X205400000Y-53470000D03*
D11*
X205400000Y-56010000D03*
X205400000Y-58550000D03*
X213020000Y-58550000D03*
X213020000Y-56010000D03*
X213020000Y-53470000D03*
%TD*%
D16*
%TO.C,R309*%
X202020000Y-86910000D03*
D17*
X202020000Y-91990000D03*
%TD*%
D16*
%TO.C,R312*%
X216820000Y-100050000D03*
D17*
X216820000Y-105130000D03*
%TD*%
D16*
%TO.C,R313*%
X201820000Y-107450000D03*
D17*
X201820000Y-112530000D03*
%TD*%
D12*
%TO.C,J207*%
X133965000Y-124650000D03*
D13*
X136505000Y-124650000D03*
%TD*%
D12*
%TO.C,J208*%
X143030000Y-124930000D03*
D13*
X145570000Y-124930000D03*
X148110000Y-124930000D03*
X150650000Y-124930000D03*
X153190000Y-124930000D03*
%TD*%
D12*
%TO.C,J305*%
X240190000Y-84950000D03*
D13*
X240190000Y-87490000D03*
%TD*%
D18*
%TO.C,H5*%
X240000000Y-35000000D03*
D19*
X240000000Y-35000000D03*
%TD*%
D12*
%TO.C,J205*%
X106860000Y-113120000D03*
D13*
X106860000Y-115660000D03*
%TD*%
D10*
%TO.C,U306*%
X205300000Y-94970000D03*
D11*
X205300000Y-97510000D03*
X205300000Y-100050000D03*
X212920000Y-100050000D03*
X212920000Y-97510000D03*
X212920000Y-94970000D03*
%TD*%
D18*
%TO.C,H7*%
X105000000Y-125000000D03*
D19*
X105000000Y-125000000D03*
%TD*%
M02*
