%TF.GenerationSoftware,KiCad,Pcbnew,8.0.0-8.0.0-1~ubuntu20.04.1*%
%TF.CreationDate,2024-06-18T14:04:34-06:00*%
%TF.ProjectId,minibioreactor,6d696e69-6269-46f7-9265-6163746f722e,rev?*%
%TF.SameCoordinates,Original*%
%TF.FileFunction,Paste,Top*%
%TF.FilePolarity,Positive*%
%FSLAX46Y46*%
G04 Gerber Fmt 4.6, Leading zero omitted, Abs format (unit mm)*
G04 Created by KiCad (PCBNEW 8.0.0-8.0.0-1~ubuntu20.04.1) date 2024-06-18 14:04:34*
%MOMM*%
%LPD*%
G01*
G04 APERTURE LIST*
G04 Aperture macros list*
%AMRoundRect*
0 Rectangle with rounded corners*
0 $1 Rounding radius*
0 $2 $3 $4 $5 $6 $7 $8 $9 X,Y pos of 4 corners*
0 Add a 4 corners polygon primitive as box body*
4,1,4,$2,$3,$4,$5,$6,$7,$8,$9,$2,$3,0*
0 Add four circle primitives for the rounded corners*
1,1,$1+$1,$2,$3*
1,1,$1+$1,$4,$5*
1,1,$1+$1,$6,$7*
1,1,$1+$1,$8,$9*
0 Add four rect primitives between the rounded corners*
20,1,$1+$1,$2,$3,$4,$5,0*
20,1,$1+$1,$4,$5,$6,$7,0*
20,1,$1+$1,$6,$7,$8,$9,0*
20,1,$1+$1,$8,$9,$2,$3,0*%
G04 Aperture macros list end*
%ADD10RoundRect,0.100000X-0.225000X-0.100000X0.225000X-0.100000X0.225000X0.100000X-0.225000X0.100000X0*%
%ADD11RoundRect,0.150000X-0.587500X-0.150000X0.587500X-0.150000X0.587500X0.150000X-0.587500X0.150000X0*%
%ADD12RoundRect,0.250000X-0.350000X-0.450000X0.350000X-0.450000X0.350000X0.450000X-0.350000X0.450000X0*%
%ADD13RoundRect,0.250000X-0.450000X0.350000X-0.450000X-0.350000X0.450000X-0.350000X0.450000X0.350000X0*%
%ADD14RoundRect,0.250000X-0.550000X1.050000X-0.550000X-1.050000X0.550000X-1.050000X0.550000X1.050000X0*%
%ADD15RoundRect,0.150000X0.200000X-0.150000X0.200000X0.150000X-0.200000X0.150000X-0.200000X-0.150000X0*%
%ADD16RoundRect,0.250000X0.337500X0.475000X-0.337500X0.475000X-0.337500X-0.475000X0.337500X-0.475000X0*%
%ADD17RoundRect,0.250000X0.350000X0.450000X-0.350000X0.450000X-0.350000X-0.450000X0.350000X-0.450000X0*%
%ADD18RoundRect,0.250000X-0.650000X1.500000X-0.650000X-1.500000X0.650000X-1.500000X0.650000X1.500000X0*%
%ADD19RoundRect,0.250000X0.375000X0.625000X-0.375000X0.625000X-0.375000X-0.625000X0.375000X-0.625000X0*%
%ADD20RoundRect,0.237500X0.237500X-0.287500X0.237500X0.287500X-0.237500X0.287500X-0.237500X-0.287500X0*%
%ADD21RoundRect,0.250000X0.450000X-0.350000X0.450000X0.350000X-0.450000X0.350000X-0.450000X-0.350000X0*%
%ADD22RoundRect,0.250000X-0.475000X0.337500X-0.475000X-0.337500X0.475000X-0.337500X0.475000X0.337500X0*%
%ADD23RoundRect,0.250000X1.050000X0.550000X-1.050000X0.550000X-1.050000X-0.550000X1.050000X-0.550000X0*%
%ADD24RoundRect,0.150000X0.150000X0.200000X-0.150000X0.200000X-0.150000X-0.200000X0.150000X-0.200000X0*%
%ADD25RoundRect,0.375000X-0.625000X-0.375000X0.625000X-0.375000X0.625000X0.375000X-0.625000X0.375000X0*%
%ADD26RoundRect,0.500000X-0.500000X-1.400000X0.500000X-1.400000X0.500000X1.400000X-0.500000X1.400000X0*%
%ADD27RoundRect,0.250000X0.550000X-1.050000X0.550000X1.050000X-0.550000X1.050000X-0.550000X-1.050000X0*%
%ADD28RoundRect,0.150000X-0.200000X0.150000X-0.200000X-0.150000X0.200000X-0.150000X0.200000X0.150000X0*%
%ADD29RoundRect,0.237500X-0.287500X-0.237500X0.287500X-0.237500X0.287500X0.237500X-0.287500X0.237500X0*%
%ADD30RoundRect,0.150000X-0.150000X-0.200000X0.150000X-0.200000X0.150000X0.200000X-0.150000X0.200000X0*%
%ADD31RoundRect,0.375000X-0.375000X0.625000X-0.375000X-0.625000X0.375000X-0.625000X0.375000X0.625000X0*%
%ADD32RoundRect,0.500000X-1.400000X0.500000X-1.400000X-0.500000X1.400000X-0.500000X1.400000X0.500000X0*%
%ADD33RoundRect,0.100000X0.100000X-0.225000X0.100000X0.225000X-0.100000X0.225000X-0.100000X-0.225000X0*%
%ADD34RoundRect,0.250000X-1.050000X-0.550000X1.050000X-0.550000X1.050000X0.550000X-1.050000X0.550000X0*%
%ADD35RoundRect,0.250000X-1.000000X-0.650000X1.000000X-0.650000X1.000000X0.650000X-1.000000X0.650000X0*%
G04 APERTURE END LIST*
D10*
%TO.C,U203*%
X115860000Y-111795000D03*
X115860000Y-112445000D03*
X115860000Y-113095000D03*
X117760000Y-113095000D03*
X117760000Y-111795000D03*
%TD*%
D11*
%TO.C,Q302*%
X225345000Y-57550000D03*
X225345000Y-59450000D03*
X227220000Y-58500000D03*
%TD*%
D12*
%TO.C,R202*%
X116560000Y-75795000D03*
X118560000Y-75795000D03*
%TD*%
D13*
%TO.C,R207*%
X113860000Y-96295000D03*
X113860000Y-98295000D03*
%TD*%
D11*
%TO.C,Q307*%
X225475000Y-109670000D03*
X225475000Y-111570000D03*
X227350000Y-110620000D03*
%TD*%
D14*
%TO.C,C5*%
X117987500Y-54167500D03*
X117987500Y-57767500D03*
%TD*%
D15*
%TO.C,D204*%
X109960000Y-106195000D03*
X109960000Y-107595000D03*
%TD*%
D16*
%TO.C,C201*%
X118410000Y-67445000D03*
X116335000Y-67445000D03*
%TD*%
D17*
%TO.C,R213*%
X138745000Y-118700000D03*
X136745000Y-118700000D03*
%TD*%
D18*
%TO.C,D303*%
X235560000Y-63980000D03*
X235560000Y-68980000D03*
%TD*%
D19*
%TO.C,F1*%
X114067500Y-41100000D03*
X111267500Y-41100000D03*
%TD*%
D20*
%TO.C,D3*%
X233362500Y-35987500D03*
X233362500Y-34237500D03*
%TD*%
D21*
%TO.C,R214*%
X142745000Y-116400000D03*
X142745000Y-114400000D03*
%TD*%
D22*
%TO.C,C204*%
X134445000Y-114262500D03*
X134445000Y-116337500D03*
%TD*%
D10*
%TO.C,U202*%
X116010000Y-91995000D03*
X116010000Y-92645000D03*
X116010000Y-93295000D03*
X117910000Y-93295000D03*
X117910000Y-91995000D03*
%TD*%
D23*
%TO.C,C4*%
X126617500Y-36500000D03*
X123017500Y-36500000D03*
%TD*%
D24*
%TO.C,D206*%
X124150000Y-121290000D03*
X125550000Y-121290000D03*
%TD*%
D14*
%TO.C,C1*%
X104167500Y-46250000D03*
X104167500Y-49850000D03*
%TD*%
D25*
%TO.C,U2*%
X123007500Y-40917500D03*
X123007500Y-43217500D03*
D26*
X129307500Y-43217500D03*
D25*
X123007500Y-45517500D03*
%TD*%
D18*
%TO.C,D307*%
X235530000Y-105610000D03*
X235530000Y-110610000D03*
%TD*%
D27*
%TO.C,C2*%
X117967500Y-49900000D03*
X117967500Y-46300000D03*
%TD*%
D18*
%TO.C,D301*%
X235620000Y-53480000D03*
X235620000Y-58480000D03*
%TD*%
D28*
%TO.C,D205*%
X109960000Y-117095000D03*
X109960000Y-115695000D03*
%TD*%
D11*
%TO.C,Q303*%
X225405000Y-68040000D03*
X225405000Y-69940000D03*
X227280000Y-68990000D03*
%TD*%
D15*
%TO.C,D202*%
X110160000Y-83395000D03*
X110160000Y-84795000D03*
%TD*%
D21*
%TO.C,R201*%
X114060000Y-71995000D03*
X114060000Y-69995000D03*
%TD*%
D29*
%TO.C,D1*%
X116367500Y-41100000D03*
X118117500Y-41100000D03*
%TD*%
D28*
%TO.C,D201*%
X110260000Y-71095000D03*
X110260000Y-69695000D03*
%TD*%
D12*
%TO.C,R212*%
X116060000Y-115395000D03*
X118060000Y-115395000D03*
%TD*%
D30*
%TO.C,D207*%
X137900000Y-121300000D03*
X136500000Y-121300000D03*
%TD*%
D10*
%TO.C,U201*%
X116410000Y-69895000D03*
X116410000Y-70545000D03*
X116410000Y-71195000D03*
X118310000Y-71195000D03*
X118310000Y-69895000D03*
%TD*%
D31*
%TO.C,U3*%
X127300000Y-54180000D03*
X125000000Y-54180000D03*
D32*
X125000000Y-60480000D03*
D31*
X122700000Y-54180000D03*
%TD*%
D11*
%TO.C,Q301*%
X225165000Y-46230000D03*
X225165000Y-48130000D03*
X227040000Y-47180000D03*
%TD*%
D27*
%TO.C,C6*%
X131787500Y-57817500D03*
X131787500Y-54217500D03*
%TD*%
D18*
%TO.C,D302*%
X235560000Y-42200000D03*
X235560000Y-47200000D03*
%TD*%
D11*
%TO.C,Q305*%
X225495000Y-89050000D03*
X225495000Y-90950000D03*
X227370000Y-90000000D03*
%TD*%
D18*
%TO.C,D308*%
X234060000Y-115770000D03*
X234060000Y-120770000D03*
%TD*%
D11*
%TO.C,Q304*%
X225445000Y-78310000D03*
X225445000Y-80210000D03*
X227320000Y-79260000D03*
%TD*%
D12*
%TO.C,R215*%
X140845000Y-118700000D03*
X142845000Y-118700000D03*
%TD*%
D28*
%TO.C,D203*%
X110160000Y-93695000D03*
X110160000Y-92295000D03*
%TD*%
D16*
%TO.C,C203*%
X118160000Y-109595000D03*
X116085000Y-109595000D03*
%TD*%
D18*
%TO.C,D305*%
X235570000Y-84970000D03*
X235570000Y-89970000D03*
%TD*%
D21*
%TO.C,R209*%
X113760000Y-113895000D03*
X113760000Y-111895000D03*
%TD*%
D12*
%TO.C,R208*%
X116160000Y-95595000D03*
X118160000Y-95595000D03*
%TD*%
%TO.C,R210*%
X116060000Y-117895000D03*
X118060000Y-117895000D03*
%TD*%
D33*
%TO.C,U204*%
X136645000Y-116600000D03*
X137295000Y-116600000D03*
X137945000Y-116600000D03*
X137945000Y-114700000D03*
X136645000Y-114700000D03*
%TD*%
D12*
%TO.C,R206*%
X116160000Y-98195000D03*
X118160000Y-98195000D03*
%TD*%
D31*
%TO.C,U1*%
X113367500Y-46250000D03*
X111067500Y-46250000D03*
D32*
X111067500Y-52550000D03*
D31*
X108767500Y-46250000D03*
%TD*%
D11*
%TO.C,Q306*%
X225475000Y-99280000D03*
X225475000Y-101180000D03*
X227350000Y-100230000D03*
%TD*%
D34*
%TO.C,C3*%
X123017500Y-49900000D03*
X126617500Y-49900000D03*
%TD*%
D16*
%TO.C,C202*%
X118260000Y-89695000D03*
X116185000Y-89695000D03*
%TD*%
D24*
%TO.C,D208*%
X151782500Y-121010000D03*
X153182500Y-121010000D03*
%TD*%
D13*
%TO.C,R211*%
X113760000Y-115995000D03*
X113760000Y-117995000D03*
%TD*%
%TO.C,R203*%
X114060000Y-73945000D03*
X114060000Y-75945000D03*
%TD*%
D21*
%TO.C,R205*%
X113860000Y-94095000D03*
X113860000Y-92095000D03*
%TD*%
D18*
%TO.C,D304*%
X235560000Y-74270000D03*
X235560000Y-79270000D03*
%TD*%
D35*
%TO.C,D2*%
X104167500Y-41100000D03*
X108167500Y-41100000D03*
%TD*%
D11*
%TO.C,Q308*%
X225480000Y-119800000D03*
X225480000Y-121700000D03*
X227355000Y-120750000D03*
%TD*%
D18*
%TO.C,D306*%
X235570000Y-95260000D03*
X235570000Y-100260000D03*
%TD*%
D21*
%TO.C,R216*%
X140245000Y-116400000D03*
X140245000Y-114400000D03*
%TD*%
D12*
%TO.C,R204*%
X116560000Y-73445000D03*
X118560000Y-73445000D03*
%TD*%
M02*
