%TF.GenerationSoftware,KiCad,Pcbnew,8.0.0-8.0.0-1~ubuntu20.04.1*%
%TF.CreationDate,2024-06-18T18:08:34-06:00*%
%TF.ProjectId,turbidometer,74757262-6964-46f6-9d65-7465722e6b69,rev?*%
%TF.SameCoordinates,Original*%
%TF.FileFunction,Copper,L2,Bot*%
%TF.FilePolarity,Positive*%
%FSLAX46Y46*%
G04 Gerber Fmt 4.6, Leading zero omitted, Abs format (unit mm)*
G04 Created by KiCad (PCBNEW 8.0.0-8.0.0-1~ubuntu20.04.1) date 2024-06-18 18:08:34*
%MOMM*%
%LPD*%
G01*
G04 APERTURE LIST*
G04 Aperture macros list*
%AMHorizOval*
0 Thick line with rounded ends*
0 $1 width*
0 $2 $3 position (X,Y) of the first rounded end (center of the circle)*
0 $4 $5 position (X,Y) of the second rounded end (center of the circle)*
0 Add line between two ends*
20,1,$1,$2,$3,$4,$5,0*
0 Add two circle primitives to create the rounded ends*
1,1,$1,$2,$3*
1,1,$1,$4,$5*%
%AMRotRect*
0 Rectangle, with rotation*
0 The origin of the aperture is its center*
0 $1 length*
0 $2 width*
0 $3 Rotation angle, in degrees counterclockwise*
0 Add horizontal line*
21,1,$1,$2,0,0,$3*%
G04 Aperture macros list end*
%TA.AperFunction,ComponentPad*%
%ADD10RotRect,1.500000X1.500000X225.000000*%
%TD*%
%TA.AperFunction,ComponentPad*%
%ADD11R,1.500000X1.500000*%
%TD*%
%TA.AperFunction,ComponentPad*%
%ADD12R,1.700000X1.700000*%
%TD*%
%TA.AperFunction,ComponentPad*%
%ADD13O,1.700000X1.700000*%
%TD*%
%TA.AperFunction,ComponentPad*%
%ADD14RotRect,1.700000X1.700000X135.000000*%
%TD*%
%TA.AperFunction,ComponentPad*%
%ADD15HorizOval,1.700000X0.000000X0.000000X0.000000X0.000000X0*%
%TD*%
%TA.AperFunction,ViaPad*%
%ADD16C,0.600000*%
%TD*%
%TA.AperFunction,Conductor*%
%ADD17C,1.000000*%
%TD*%
G04 APERTURE END LIST*
D10*
%TO.P,RG2,1,1*%
%TO.N,/A1*%
X198410000Y-97650000D03*
%TD*%
D11*
%TO.P,LED0,1,1*%
%TO.N,/LED_SENS0*%
X149440000Y-86960000D03*
%TD*%
%TO.P,VREF2,1,1*%
%TO.N,Net-(U7-+)*%
X137010000Y-97610000D03*
%TD*%
%TO.P,VREF1,1,1*%
%TO.N,Net-(U4-+)*%
X136670000Y-87620000D03*
%TD*%
%TO.P,LED1,1,1*%
%TO.N,/LED_SENS1*%
X149770000Y-98130000D03*
%TD*%
D10*
%TO.P,RG3,1,1*%
%TO.N,/PD_FB1*%
X200420000Y-103520000D03*
%TD*%
D12*
%TO.P,J4,1,Pin_1*%
%TO.N,/VREF0*%
X130310000Y-88990000D03*
D13*
%TO.P,J4,2,Pin_2*%
%TO.N,/VREF1*%
X130310000Y-91530000D03*
%TO.P,J4,3,Pin_3*%
%TO.N,/VREF2*%
X130310000Y-94070000D03*
%TD*%
D11*
%TO.P,VREF0,1,1*%
%TO.N,Net-(U3-+)*%
X136640000Y-76130000D03*
%TD*%
D12*
%TO.P,J3,1,Pin_1*%
%TO.N,+5V*%
X130460000Y-77640000D03*
D13*
%TO.P,J3,2,Pin_2*%
%TO.N,GND*%
X130460000Y-80180000D03*
%TD*%
D11*
%TO.P,LED2,1,1*%
%TO.N,/LED_SENS2*%
X149520000Y-107910000D03*
%TD*%
D12*
%TO.P,J1,1,Pin_1*%
%TO.N,+3.3V*%
X130670000Y-106520000D03*
D13*
%TO.P,J1,2,Pin_2*%
%TO.N,GND*%
X130670000Y-109060000D03*
%TO.P,J1,3,Pin_3*%
%TO.N,/A0*%
X130670000Y-111600000D03*
%TO.P,J1,4,Pin_4*%
%TO.N,/A1*%
X130670000Y-114140000D03*
%TD*%
D11*
%TO.P,RG0,1,1*%
%TO.N,/A0*%
X146720000Y-113210000D03*
%TD*%
%TO.P,RG1,1,1*%
%TO.N,/PD_FB0*%
X154500000Y-111570000D03*
%TD*%
D12*
%TO.P,J7,1,Pin_1*%
%TO.N,/PD_FB0*%
X170480000Y-114350000D03*
D13*
%TO.P,J7,2,Pin_2*%
%TO.N,GND*%
X173020000Y-114350000D03*
%TD*%
D14*
%TO.P,J2,1,Pin_1*%
%TO.N,/PD_FB1*%
X187686051Y-110283949D03*
D15*
%TO.P,J2,2,Pin_2*%
%TO.N,GND*%
X185890000Y-112080000D03*
%TD*%
D12*
%TO.P,J5,1,Pin_1*%
%TO.N,/LED_NEG0*%
X167770000Y-76280000D03*
D13*
%TO.P,J5,2,Pin_2*%
%TO.N,+5V*%
X170310000Y-76280000D03*
%TO.P,J5,3,Pin_3*%
%TO.N,/LED_NEG1*%
X172850000Y-76280000D03*
%TO.P,J5,4,Pin_4*%
%TO.N,/LED_NEG2*%
X175390000Y-76280000D03*
%TD*%
D12*
%TO.P,J6,1,Pin_1*%
%TO.N,/LED_NEG0*%
X189830000Y-99630000D03*
D13*
%TO.P,J6,2,Pin_2*%
%TO.N,+5V*%
X189830000Y-97090000D03*
%TO.P,J6,3,Pin_3*%
%TO.N,/LED_NEG1*%
X189830000Y-94550000D03*
%TO.P,J6,4,Pin_4*%
%TO.N,/LED_NEG2*%
X189830000Y-92010000D03*
%TD*%
D16*
%TO.N,GND*%
X151400000Y-85560000D03*
X144140000Y-76740000D03*
X166870000Y-112320000D03*
X191460000Y-109170000D03*
X152620000Y-104240000D03*
X135740000Y-111740000D03*
X144280000Y-98020000D03*
X138130000Y-79490000D03*
X144250000Y-87810000D03*
X189820000Y-103790000D03*
X151720000Y-96730000D03*
X138220000Y-90680000D03*
X164150000Y-117200000D03*
X138270000Y-100770000D03*
%TO.N,+5V*%
X140050000Y-96930000D03*
X141850000Y-78300000D03*
X142020000Y-99500000D03*
X141810000Y-89300000D03*
X139980000Y-75760000D03*
X139800000Y-87430000D03*
%TO.N,+3.3V*%
X186580000Y-107010000D03*
X168790000Y-117250000D03*
%TD*%
D17*
%TO.N,+5V*%
X141190000Y-77640000D02*
X141850000Y-78300000D01*
X140050000Y-95980000D02*
X140050000Y-96930000D01*
X170310000Y-76840000D02*
X170310000Y-76280000D01*
X167670000Y-79480000D02*
X168908984Y-78241016D01*
X140050000Y-95980000D02*
X140050000Y-97530000D01*
X141810000Y-88990000D02*
X141810000Y-89300000D01*
X139910000Y-75760000D02*
X139980000Y-75760000D01*
X138030000Y-77640000D02*
X141190000Y-77640000D01*
X130460000Y-77640000D02*
X139265000Y-86445000D01*
X139265000Y-86445000D02*
X141810000Y-88990000D01*
X192770000Y-95780000D02*
X191460000Y-97090000D01*
X137694214Y-77640000D02*
X139534214Y-79480000D01*
X139534214Y-79480000D02*
X167670000Y-79480000D01*
X192770000Y-89870000D02*
X192770000Y-95780000D01*
X182380000Y-79480000D02*
X192770000Y-89870000D01*
X138030000Y-77640000D02*
X139910000Y-75760000D01*
X167670000Y-79480000D02*
X182380000Y-79480000D01*
X139800000Y-86980000D02*
X139800000Y-87430000D01*
X130460000Y-77640000D02*
X140050000Y-87230000D01*
X139265000Y-86445000D02*
X139800000Y-86980000D01*
X130460000Y-77640000D02*
X138030000Y-77640000D01*
X191460000Y-97090000D02*
X189830000Y-97090000D01*
X130460000Y-77640000D02*
X137694214Y-77640000D01*
X140050000Y-97530000D02*
X142020000Y-99500000D01*
X168908984Y-78241016D02*
X170310000Y-76840000D01*
X140050000Y-87230000D02*
X140050000Y-95980000D01*
%TO.N,+3.3V*%
X176350000Y-117240000D02*
X186580000Y-107010000D01*
X157250000Y-105710000D02*
X168355000Y-116815000D01*
X130670000Y-106520000D02*
X131480000Y-105710000D01*
X131480000Y-105710000D02*
X157250000Y-105710000D01*
X168780000Y-117240000D02*
X176350000Y-117240000D01*
X168355000Y-116815000D02*
X168780000Y-117240000D01*
X168355000Y-116815000D02*
X168790000Y-117250000D01*
%TD*%
%TA.AperFunction,Conductor*%
%TO.N,GND*%
G36*
X201582702Y-71220617D02*
G01*
X201966771Y-71237386D01*
X201977506Y-71238326D01*
X202355971Y-71288152D01*
X202366597Y-71290025D01*
X202739284Y-71372648D01*
X202749710Y-71375442D01*
X203113765Y-71490227D01*
X203123911Y-71493920D01*
X203476578Y-71640000D01*
X203486369Y-71644566D01*
X203824942Y-71820816D01*
X203834310Y-71826224D01*
X204156244Y-72031318D01*
X204165105Y-72037523D01*
X204467930Y-72269889D01*
X204476217Y-72276843D01*
X204757635Y-72534715D01*
X204765284Y-72542364D01*
X205023156Y-72823782D01*
X205030110Y-72832069D01*
X205262476Y-73134894D01*
X205268681Y-73143755D01*
X205473775Y-73465689D01*
X205479183Y-73475057D01*
X205655430Y-73813623D01*
X205660002Y-73823427D01*
X205806075Y-74176078D01*
X205809775Y-74186244D01*
X205924554Y-74550278D01*
X205927354Y-74560727D01*
X206009971Y-74933389D01*
X206011849Y-74944042D01*
X206061671Y-75322473D01*
X206062614Y-75333249D01*
X206079382Y-75717297D01*
X206079500Y-75722706D01*
X206079500Y-115717293D01*
X206079382Y-115722702D01*
X206062614Y-116106750D01*
X206061671Y-116117526D01*
X206011849Y-116495957D01*
X206009971Y-116506610D01*
X205927354Y-116879272D01*
X205924554Y-116889721D01*
X205809775Y-117253755D01*
X205806075Y-117263921D01*
X205660002Y-117616572D01*
X205655430Y-117626376D01*
X205479183Y-117964942D01*
X205473775Y-117974310D01*
X205268681Y-118296244D01*
X205262476Y-118305105D01*
X205030110Y-118607930D01*
X205023156Y-118616217D01*
X204765284Y-118897635D01*
X204757635Y-118905284D01*
X204476217Y-119163156D01*
X204467930Y-119170110D01*
X204165105Y-119402476D01*
X204156244Y-119408681D01*
X203834310Y-119613775D01*
X203824942Y-119619183D01*
X203486376Y-119795430D01*
X203476572Y-119800002D01*
X203123921Y-119946075D01*
X203113755Y-119949775D01*
X202749721Y-120064554D01*
X202739272Y-120067354D01*
X202366610Y-120149971D01*
X202355957Y-120151849D01*
X201977527Y-120201671D01*
X201966751Y-120202614D01*
X201582680Y-120219382D01*
X201577271Y-120219500D01*
X201506793Y-120219500D01*
X201506587Y-120219512D01*
X146580161Y-120229498D01*
X146580056Y-120229498D01*
X131624235Y-120219548D01*
X131623494Y-120219500D01*
X131615892Y-120219500D01*
X131552720Y-120219500D01*
X131547311Y-120219382D01*
X131163249Y-120202614D01*
X131152473Y-120201671D01*
X130774042Y-120151849D01*
X130763389Y-120149971D01*
X130390727Y-120067354D01*
X130380278Y-120064554D01*
X130016244Y-119949775D01*
X130006078Y-119946075D01*
X129653427Y-119800002D01*
X129643623Y-119795430D01*
X129305057Y-119619183D01*
X129295689Y-119613775D01*
X128973755Y-119408681D01*
X128964894Y-119402476D01*
X128662069Y-119170110D01*
X128653782Y-119163156D01*
X128372364Y-118905284D01*
X128364715Y-118897635D01*
X128106843Y-118616217D01*
X128099889Y-118607930D01*
X127867523Y-118305105D01*
X127861318Y-118296244D01*
X127787236Y-118179959D01*
X127656223Y-117974309D01*
X127650816Y-117964942D01*
X127489208Y-117654497D01*
X127474566Y-117626369D01*
X127469997Y-117616572D01*
X127323920Y-117263911D01*
X127320224Y-117253755D01*
X127205442Y-116889710D01*
X127202648Y-116879284D01*
X127120025Y-116506597D01*
X127118152Y-116495971D01*
X127068326Y-116117506D01*
X127067386Y-116106771D01*
X127050937Y-115730001D01*
X149574257Y-115730001D01*
X149594673Y-116015448D01*
X149594674Y-116015455D01*
X149655502Y-116295078D01*
X149755512Y-116563217D01*
X149755514Y-116563221D01*
X149892658Y-116814381D01*
X149892659Y-116814382D01*
X149892662Y-116814387D01*
X150064161Y-117043482D01*
X150064165Y-117043486D01*
X150064170Y-117043492D01*
X150266507Y-117245829D01*
X150266513Y-117245834D01*
X150266518Y-117245839D01*
X150495613Y-117417338D01*
X150495617Y-117417340D01*
X150495618Y-117417341D01*
X150746778Y-117554485D01*
X150746782Y-117554487D01*
X150746784Y-117554488D01*
X151014917Y-117654496D01*
X151014920Y-117654496D01*
X151014921Y-117654497D01*
X151225994Y-117700412D01*
X151294553Y-117715327D01*
X151558010Y-117734170D01*
X151579999Y-117735743D01*
X151580000Y-117735743D01*
X151580001Y-117735743D01*
X151600417Y-117734282D01*
X151865447Y-117715327D01*
X152145083Y-117654496D01*
X152413216Y-117554488D01*
X152664387Y-117417338D01*
X152893482Y-117245839D01*
X153095839Y-117043482D01*
X153267338Y-116814387D01*
X153404488Y-116563216D01*
X153504496Y-116295083D01*
X153565327Y-116015447D01*
X153585743Y-115730000D01*
X153584830Y-115717241D01*
X153580302Y-115653922D01*
X153565327Y-115444553D01*
X153522541Y-115247870D01*
X153504497Y-115164921D01*
X153447237Y-115011401D01*
X153404488Y-114896784D01*
X153355167Y-114806460D01*
X153267341Y-114645618D01*
X153267340Y-114645617D01*
X153267338Y-114645613D01*
X153095839Y-114416518D01*
X153095834Y-114416513D01*
X153095829Y-114416507D01*
X152893492Y-114214170D01*
X152893486Y-114214165D01*
X152893482Y-114214161D01*
X152664387Y-114042662D01*
X152664382Y-114042659D01*
X152664381Y-114042658D01*
X152413221Y-113905514D01*
X152413217Y-113905512D01*
X152145078Y-113805502D01*
X151865455Y-113744674D01*
X151865448Y-113744673D01*
X151580001Y-113724257D01*
X151579999Y-113724257D01*
X151294551Y-113744673D01*
X151294544Y-113744674D01*
X151014921Y-113805502D01*
X150746782Y-113905512D01*
X150746778Y-113905514D01*
X150495618Y-114042658D01*
X150495617Y-114042659D01*
X150266519Y-114214160D01*
X150266507Y-114214170D01*
X150064170Y-114416507D01*
X150064160Y-114416519D01*
X149892659Y-114645617D01*
X149892658Y-114645618D01*
X149755514Y-114896778D01*
X149755512Y-114896782D01*
X149655502Y-115164921D01*
X149594674Y-115444544D01*
X149594673Y-115444551D01*
X149574257Y-115729998D01*
X149574257Y-115730001D01*
X127050937Y-115730001D01*
X127050618Y-115722702D01*
X127050501Y-115717275D01*
X127051684Y-114140000D01*
X129314341Y-114140000D01*
X129334936Y-114375403D01*
X129334938Y-114375413D01*
X129396094Y-114603655D01*
X129396096Y-114603659D01*
X129396097Y-114603663D01*
X129490663Y-114806460D01*
X129495965Y-114817830D01*
X129495967Y-114817834D01*
X129551249Y-114896784D01*
X129631505Y-115011401D01*
X129798599Y-115178495D01*
X129872227Y-115230050D01*
X129992165Y-115314032D01*
X129992167Y-115314033D01*
X129992170Y-115314035D01*
X130206337Y-115413903D01*
X130434592Y-115475063D01*
X130622918Y-115491539D01*
X130669999Y-115495659D01*
X130670000Y-115495659D01*
X130670001Y-115495659D01*
X130709234Y-115492226D01*
X130905408Y-115475063D01*
X131133663Y-115413903D01*
X131347830Y-115314035D01*
X131541401Y-115178495D01*
X131708495Y-115011401D01*
X131844035Y-114817830D01*
X131943903Y-114603663D01*
X132005063Y-114375408D01*
X132025659Y-114140000D01*
X132014099Y-114007870D01*
X145469500Y-114007870D01*
X145469501Y-114007876D01*
X145475908Y-114067483D01*
X145526202Y-114202328D01*
X145526206Y-114202335D01*
X145612452Y-114317544D01*
X145612455Y-114317547D01*
X145727664Y-114403793D01*
X145727671Y-114403797D01*
X145862517Y-114454091D01*
X145862516Y-114454091D01*
X145869444Y-114454835D01*
X145922127Y-114460500D01*
X147517872Y-114460499D01*
X147577483Y-114454091D01*
X147712331Y-114403796D01*
X147827546Y-114317546D01*
X147913796Y-114202331D01*
X147964091Y-114067483D01*
X147970500Y-114007873D01*
X147970499Y-112412128D01*
X147965741Y-112367870D01*
X153249500Y-112367870D01*
X153249501Y-112367876D01*
X153255908Y-112427483D01*
X153306202Y-112562328D01*
X153306206Y-112562335D01*
X153392452Y-112677544D01*
X153392455Y-112677547D01*
X153507664Y-112763793D01*
X153507671Y-112763797D01*
X153642517Y-112814091D01*
X153642516Y-112814091D01*
X153649444Y-112814835D01*
X153702127Y-112820500D01*
X155297872Y-112820499D01*
X155357483Y-112814091D01*
X155492331Y-112763796D01*
X155607546Y-112677546D01*
X155693796Y-112562331D01*
X155744091Y-112427483D01*
X155750500Y-112367873D01*
X155750499Y-110772128D01*
X155744091Y-110712517D01*
X155693796Y-110577669D01*
X155693795Y-110577668D01*
X155693793Y-110577664D01*
X155607547Y-110462455D01*
X155607544Y-110462452D01*
X155492335Y-110376206D01*
X155492328Y-110376202D01*
X155357482Y-110325908D01*
X155357483Y-110325908D01*
X155297883Y-110319501D01*
X155297881Y-110319500D01*
X155297873Y-110319500D01*
X155297864Y-110319500D01*
X153702129Y-110319500D01*
X153702123Y-110319501D01*
X153642516Y-110325908D01*
X153507671Y-110376202D01*
X153507664Y-110376206D01*
X153392455Y-110462452D01*
X153392452Y-110462455D01*
X153306206Y-110577664D01*
X153306202Y-110577671D01*
X153255908Y-110712517D01*
X153252370Y-110745430D01*
X153249501Y-110772123D01*
X153249500Y-110772135D01*
X153249500Y-112367870D01*
X147965741Y-112367870D01*
X147964091Y-112352517D01*
X147934430Y-112272993D01*
X147913797Y-112217671D01*
X147913793Y-112217664D01*
X147827547Y-112102455D01*
X147827544Y-112102452D01*
X147712335Y-112016206D01*
X147712328Y-112016202D01*
X147577482Y-111965908D01*
X147577483Y-111965908D01*
X147517883Y-111959501D01*
X147517881Y-111959500D01*
X147517873Y-111959500D01*
X147517864Y-111959500D01*
X145922129Y-111959500D01*
X145922123Y-111959501D01*
X145862516Y-111965908D01*
X145727671Y-112016202D01*
X145727664Y-112016206D01*
X145612455Y-112102452D01*
X145612452Y-112102455D01*
X145526206Y-112217664D01*
X145526202Y-112217671D01*
X145475908Y-112352517D01*
X145469501Y-112412116D01*
X145469501Y-112412123D01*
X145469500Y-112412135D01*
X145469500Y-114007870D01*
X132014099Y-114007870D01*
X132005063Y-113904592D01*
X131943903Y-113676337D01*
X131844035Y-113462171D01*
X131837003Y-113452127D01*
X131708494Y-113268597D01*
X131541402Y-113101506D01*
X131541396Y-113101501D01*
X131355842Y-112971575D01*
X131312217Y-112916998D01*
X131305023Y-112847500D01*
X131336546Y-112785145D01*
X131355842Y-112768425D01*
X131485633Y-112677544D01*
X131541401Y-112638495D01*
X131708495Y-112471401D01*
X131844035Y-112277830D01*
X131943903Y-112063663D01*
X132005063Y-111835408D01*
X132025659Y-111600000D01*
X132005063Y-111364592D01*
X131943903Y-111136337D01*
X131844035Y-110922171D01*
X131738980Y-110772135D01*
X131708494Y-110728597D01*
X131541402Y-110561506D01*
X131541401Y-110561505D01*
X131355405Y-110431269D01*
X131311781Y-110376692D01*
X131304588Y-110307193D01*
X131336110Y-110244839D01*
X131355405Y-110228119D01*
X131541082Y-110098105D01*
X131708105Y-109931082D01*
X131843600Y-109737578D01*
X131943429Y-109523492D01*
X131943432Y-109523486D01*
X132000636Y-109310000D01*
X131103012Y-109310000D01*
X131135925Y-109252993D01*
X131170000Y-109125826D01*
X131170000Y-108994174D01*
X131135925Y-108867007D01*
X131103012Y-108810000D01*
X132000636Y-108810000D01*
X132000635Y-108809999D01*
X131943432Y-108596513D01*
X131943429Y-108596507D01*
X131843600Y-108382422D01*
X131843599Y-108382420D01*
X131708113Y-108188926D01*
X131708108Y-108188920D01*
X131586053Y-108066865D01*
X131552568Y-108005542D01*
X131557552Y-107935850D01*
X131599424Y-107879917D01*
X131630400Y-107863002D01*
X131762331Y-107813796D01*
X131877546Y-107727546D01*
X131963796Y-107612331D01*
X132014091Y-107477483D01*
X132020500Y-107417873D01*
X132020500Y-106834500D01*
X132040185Y-106767461D01*
X132092989Y-106721706D01*
X132144500Y-106710500D01*
X148233568Y-106710500D01*
X148300607Y-106730185D01*
X148346362Y-106782989D01*
X148356306Y-106852147D01*
X148332835Y-106908810D01*
X148326206Y-106917665D01*
X148326202Y-106917671D01*
X148275908Y-107052517D01*
X148269885Y-107108542D01*
X148269501Y-107112123D01*
X148269500Y-107112135D01*
X148269500Y-108707870D01*
X148269501Y-108707876D01*
X148275908Y-108767483D01*
X148326202Y-108902328D01*
X148326206Y-108902335D01*
X148412452Y-109017544D01*
X148412455Y-109017547D01*
X148527664Y-109103793D01*
X148527671Y-109103797D01*
X148662517Y-109154091D01*
X148662516Y-109154091D01*
X148669444Y-109154835D01*
X148722127Y-109160500D01*
X150317872Y-109160499D01*
X150377483Y-109154091D01*
X150512331Y-109103796D01*
X150627546Y-109017546D01*
X150713796Y-108902331D01*
X150764091Y-108767483D01*
X150770500Y-108707873D01*
X150770499Y-107112128D01*
X150764091Y-107052517D01*
X150745586Y-107002903D01*
X150713797Y-106917671D01*
X150713793Y-106917665D01*
X150707165Y-106908810D01*
X150682748Y-106843346D01*
X150697600Y-106775073D01*
X150747005Y-106725668D01*
X150806432Y-106710500D01*
X156784218Y-106710500D01*
X156851257Y-106730185D01*
X156871899Y-106746819D01*
X167724284Y-117599205D01*
X167724290Y-117599210D01*
X168146537Y-118021459D01*
X168146554Y-118021474D01*
X168152219Y-118027139D01*
X168206596Y-118063472D01*
X168316079Y-118136627D01*
X168316083Y-118136629D01*
X168316086Y-118136631D01*
X168498164Y-118212051D01*
X168641187Y-118240500D01*
X168691455Y-118250499D01*
X168691458Y-118250500D01*
X168691460Y-118250500D01*
X168888541Y-118250500D01*
X168908237Y-118246581D01*
X168926833Y-118242882D01*
X168951025Y-118240500D01*
X176448542Y-118240500D01*
X176467870Y-118236655D01*
X176545188Y-118221275D01*
X176641836Y-118202051D01*
X176695165Y-118179961D01*
X176823914Y-118126632D01*
X176987782Y-118017139D01*
X177127139Y-117877782D01*
X177127139Y-117877780D01*
X177137347Y-117867573D01*
X177137348Y-117867570D01*
X179274918Y-115730001D01*
X189574257Y-115730001D01*
X189594673Y-116015448D01*
X189594674Y-116015455D01*
X189655502Y-116295078D01*
X189755512Y-116563217D01*
X189755514Y-116563221D01*
X189892658Y-116814381D01*
X189892659Y-116814382D01*
X189892662Y-116814387D01*
X190064161Y-117043482D01*
X190064165Y-117043486D01*
X190064170Y-117043492D01*
X190266507Y-117245829D01*
X190266513Y-117245834D01*
X190266518Y-117245839D01*
X190495613Y-117417338D01*
X190495617Y-117417340D01*
X190495618Y-117417341D01*
X190746778Y-117554485D01*
X190746782Y-117554487D01*
X190746784Y-117554488D01*
X191014917Y-117654496D01*
X191014920Y-117654496D01*
X191014921Y-117654497D01*
X191225994Y-117700412D01*
X191294553Y-117715327D01*
X191558010Y-117734170D01*
X191579999Y-117735743D01*
X191580000Y-117735743D01*
X191580001Y-117735743D01*
X191600417Y-117734282D01*
X191865447Y-117715327D01*
X192145083Y-117654496D01*
X192413216Y-117554488D01*
X192664387Y-117417338D01*
X192893482Y-117245839D01*
X193095839Y-117043482D01*
X193267338Y-116814387D01*
X193404488Y-116563216D01*
X193504496Y-116295083D01*
X193565327Y-116015447D01*
X193585743Y-115730000D01*
X193584830Y-115717241D01*
X193580302Y-115653922D01*
X193565327Y-115444553D01*
X193522541Y-115247870D01*
X193504497Y-115164921D01*
X193447237Y-115011401D01*
X193404488Y-114896784D01*
X193355167Y-114806460D01*
X193267341Y-114645618D01*
X193267340Y-114645617D01*
X193267338Y-114645613D01*
X193095839Y-114416518D01*
X193095834Y-114416513D01*
X193095829Y-114416507D01*
X192893492Y-114214170D01*
X192893486Y-114214165D01*
X192893482Y-114214161D01*
X192664387Y-114042662D01*
X192664382Y-114042659D01*
X192664381Y-114042658D01*
X192413221Y-113905514D01*
X192413217Y-113905512D01*
X192145078Y-113805502D01*
X191865455Y-113744674D01*
X191865448Y-113744673D01*
X191580001Y-113724257D01*
X191579999Y-113724257D01*
X191294551Y-113744673D01*
X191294544Y-113744674D01*
X191014921Y-113805502D01*
X190746782Y-113905512D01*
X190746778Y-113905514D01*
X190495618Y-114042658D01*
X190495617Y-114042659D01*
X190266519Y-114214160D01*
X190266507Y-114214170D01*
X190064170Y-114416507D01*
X190064160Y-114416519D01*
X189892659Y-114645617D01*
X189892658Y-114645618D01*
X189755514Y-114896778D01*
X189755512Y-114896782D01*
X189655502Y-115164921D01*
X189594674Y-115444544D01*
X189594673Y-115444551D01*
X189574257Y-115729998D01*
X189574257Y-115730001D01*
X179274918Y-115730001D01*
X182924919Y-112080001D01*
X184534843Y-112080001D01*
X184555430Y-112315315D01*
X184555432Y-112315326D01*
X184616566Y-112543483D01*
X184616570Y-112543492D01*
X184716400Y-112757579D01*
X184716402Y-112757583D01*
X184775072Y-112841373D01*
X184775073Y-112841373D01*
X185407037Y-112209409D01*
X185424075Y-112272993D01*
X185489901Y-112387007D01*
X185582993Y-112480099D01*
X185697007Y-112545925D01*
X185760590Y-112562962D01*
X185128625Y-113194925D01*
X185212421Y-113253599D01*
X185426507Y-113353429D01*
X185426516Y-113353433D01*
X185654673Y-113414567D01*
X185654684Y-113414569D01*
X185889998Y-113435157D01*
X185890002Y-113435157D01*
X186125315Y-113414569D01*
X186125326Y-113414567D01*
X186353483Y-113353433D01*
X186353492Y-113353429D01*
X186567578Y-113253600D01*
X186567582Y-113253598D01*
X186651373Y-113194926D01*
X186651373Y-113194925D01*
X186019409Y-112562962D01*
X186082993Y-112545925D01*
X186197007Y-112480099D01*
X186290099Y-112387007D01*
X186355925Y-112272993D01*
X186372962Y-112209409D01*
X187004925Y-112841373D01*
X187004926Y-112841373D01*
X187063598Y-112757582D01*
X187063600Y-112757578D01*
X187163429Y-112543492D01*
X187163433Y-112543483D01*
X187224567Y-112315326D01*
X187224569Y-112315315D01*
X187245157Y-112080001D01*
X187245157Y-112079998D01*
X187241370Y-112036713D01*
X187255137Y-111968213D01*
X187303752Y-111918030D01*
X187371780Y-111902097D01*
X187416408Y-111913111D01*
X187479673Y-111942004D01*
X187543591Y-111971195D01*
X187543592Y-111971195D01*
X187543594Y-111971196D01*
X187686051Y-111991677D01*
X187828508Y-111971196D01*
X187959424Y-111911408D01*
X188006107Y-111873789D01*
X189275889Y-110604005D01*
X189313510Y-110557322D01*
X189373298Y-110426406D01*
X189393779Y-110283949D01*
X189373298Y-110141492D01*
X189334684Y-110056941D01*
X189313511Y-110010578D01*
X189313510Y-110010577D01*
X189313510Y-110010576D01*
X189275891Y-109963893D01*
X189275886Y-109963888D01*
X189275882Y-109963883D01*
X188006110Y-108694114D01*
X188006104Y-108694109D01*
X188006100Y-108694105D01*
X187959424Y-108656489D01*
X187828510Y-108596702D01*
X187828506Y-108596701D01*
X187686051Y-108576221D01*
X187543595Y-108596701D01*
X187543591Y-108596702D01*
X187412680Y-108656488D01*
X187365985Y-108694117D01*
X186096216Y-109963889D01*
X186096207Y-109963899D01*
X186058591Y-110010575D01*
X185998804Y-110141489D01*
X185998803Y-110141493D01*
X185978323Y-110283949D01*
X185998803Y-110426404D01*
X185998804Y-110426408D01*
X186056887Y-110553589D01*
X186066831Y-110622747D01*
X186037806Y-110686303D01*
X185979029Y-110724078D01*
X185933288Y-110728629D01*
X185890005Y-110724843D01*
X185889998Y-110724843D01*
X185654684Y-110745430D01*
X185654673Y-110745432D01*
X185426516Y-110806566D01*
X185426507Y-110806570D01*
X185212419Y-110906401D01*
X185128625Y-110965072D01*
X185760590Y-111597037D01*
X185697007Y-111614075D01*
X185582993Y-111679901D01*
X185489901Y-111772993D01*
X185424075Y-111887007D01*
X185407037Y-111950590D01*
X184775072Y-111318625D01*
X184716401Y-111402419D01*
X184616570Y-111616507D01*
X184616566Y-111616516D01*
X184555432Y-111844673D01*
X184555430Y-111844684D01*
X184534843Y-112079998D01*
X184534843Y-112080001D01*
X182924919Y-112080001D01*
X187357140Y-107647781D01*
X187466631Y-107483914D01*
X187542051Y-107301836D01*
X187580500Y-107108540D01*
X187580500Y-106911460D01*
X187580500Y-106911457D01*
X187580499Y-106911455D01*
X187558817Y-106802454D01*
X187542051Y-106718164D01*
X187466631Y-106536086D01*
X187357140Y-106372218D01*
X187357138Y-106372216D01*
X187357136Y-106372213D01*
X187217786Y-106232863D01*
X187217782Y-106232860D01*
X187053914Y-106123369D01*
X187053909Y-106123367D01*
X186871836Y-106047949D01*
X186871828Y-106047947D01*
X186678543Y-106009500D01*
X186678540Y-106009500D01*
X186481460Y-106009500D01*
X186481457Y-106009500D01*
X186288171Y-106047947D01*
X186288163Y-106047949D01*
X186106087Y-106123367D01*
X185942214Y-106232863D01*
X185942213Y-106232864D01*
X175971899Y-116203181D01*
X175910576Y-116236666D01*
X175884218Y-116239500D01*
X169245782Y-116239500D01*
X169178743Y-116219815D01*
X169158101Y-116203181D01*
X169139210Y-116184290D01*
X169139208Y-116184287D01*
X168202791Y-115247870D01*
X169129500Y-115247870D01*
X169129501Y-115247876D01*
X169135908Y-115307483D01*
X169186202Y-115442328D01*
X169186206Y-115442335D01*
X169272452Y-115557544D01*
X169272455Y-115557547D01*
X169387664Y-115643793D01*
X169387671Y-115643797D01*
X169522517Y-115694091D01*
X169522516Y-115694091D01*
X169529444Y-115694835D01*
X169582127Y-115700500D01*
X171377872Y-115700499D01*
X171437483Y-115694091D01*
X171572331Y-115643796D01*
X171687546Y-115557546D01*
X171773796Y-115442331D01*
X171823002Y-115310401D01*
X171864872Y-115254468D01*
X171930337Y-115230050D01*
X171998610Y-115244901D01*
X172026865Y-115266053D01*
X172148917Y-115388105D01*
X172342421Y-115523600D01*
X172556507Y-115623429D01*
X172556516Y-115623433D01*
X172770000Y-115680634D01*
X172770000Y-114783012D01*
X172827007Y-114815925D01*
X172954174Y-114850000D01*
X173085826Y-114850000D01*
X173212993Y-114815925D01*
X173270000Y-114783012D01*
X173270000Y-115680633D01*
X173483483Y-115623433D01*
X173483492Y-115623429D01*
X173697578Y-115523600D01*
X173891082Y-115388105D01*
X174058105Y-115221082D01*
X174193600Y-115027578D01*
X174293429Y-114813492D01*
X174293432Y-114813486D01*
X174350636Y-114600000D01*
X173453012Y-114600000D01*
X173485925Y-114542993D01*
X173520000Y-114415826D01*
X173520000Y-114284174D01*
X173485925Y-114157007D01*
X173453012Y-114100000D01*
X174350636Y-114100000D01*
X174350635Y-114099999D01*
X174293432Y-113886513D01*
X174293429Y-113886507D01*
X174193600Y-113672422D01*
X174193599Y-113672420D01*
X174058113Y-113478926D01*
X174058108Y-113478920D01*
X173891082Y-113311894D01*
X173697578Y-113176399D01*
X173483492Y-113076570D01*
X173483486Y-113076567D01*
X173270000Y-113019364D01*
X173270000Y-113916988D01*
X173212993Y-113884075D01*
X173085826Y-113850000D01*
X172954174Y-113850000D01*
X172827007Y-113884075D01*
X172770000Y-113916988D01*
X172770000Y-113019364D01*
X172769999Y-113019364D01*
X172556513Y-113076567D01*
X172556507Y-113076570D01*
X172342422Y-113176399D01*
X172342420Y-113176400D01*
X172148926Y-113311886D01*
X172026865Y-113433947D01*
X171965542Y-113467431D01*
X171895850Y-113462447D01*
X171839917Y-113420575D01*
X171823002Y-113389598D01*
X171809513Y-113353433D01*
X171773796Y-113257669D01*
X171773795Y-113257668D01*
X171773793Y-113257664D01*
X171687547Y-113142455D01*
X171687544Y-113142452D01*
X171572335Y-113056206D01*
X171572328Y-113056202D01*
X171437482Y-113005908D01*
X171437483Y-113005908D01*
X171377883Y-112999501D01*
X171377881Y-112999500D01*
X171377873Y-112999500D01*
X171377864Y-112999500D01*
X169582129Y-112999500D01*
X169582123Y-112999501D01*
X169522516Y-113005908D01*
X169387671Y-113056202D01*
X169387664Y-113056206D01*
X169272455Y-113142452D01*
X169272452Y-113142455D01*
X169186206Y-113257664D01*
X169186202Y-113257671D01*
X169135908Y-113392517D01*
X169129501Y-113452116D01*
X169129500Y-113452135D01*
X169129500Y-115247870D01*
X168202791Y-115247870D01*
X158034209Y-105079289D01*
X158034206Y-105079285D01*
X158034206Y-105079286D01*
X158027139Y-105072219D01*
X158027139Y-105072218D01*
X157887782Y-104932861D01*
X157887781Y-104932860D01*
X157887780Y-104932859D01*
X157723920Y-104823371D01*
X157723911Y-104823366D01*
X157651315Y-104793296D01*
X157595165Y-104770038D01*
X157541836Y-104747949D01*
X157541832Y-104747948D01*
X157541828Y-104747946D01*
X157445188Y-104728724D01*
X157348544Y-104709500D01*
X157348541Y-104709500D01*
X131381459Y-104709500D01*
X131381455Y-104709500D01*
X131284812Y-104728724D01*
X131188167Y-104747947D01*
X131188161Y-104747949D01*
X131134834Y-104770037D01*
X131134834Y-104770038D01*
X131089315Y-104788892D01*
X131006089Y-104823366D01*
X131006079Y-104823371D01*
X130842219Y-104932859D01*
X130806670Y-104968409D01*
X130702861Y-105072218D01*
X130702858Y-105072221D01*
X130641897Y-105133182D01*
X130580573Y-105166666D01*
X130554216Y-105169500D01*
X129772129Y-105169500D01*
X129772123Y-105169501D01*
X129712516Y-105175908D01*
X129577671Y-105226202D01*
X129577664Y-105226206D01*
X129462455Y-105312452D01*
X129462452Y-105312455D01*
X129376206Y-105427664D01*
X129376202Y-105427671D01*
X129325908Y-105562517D01*
X129319501Y-105622116D01*
X129319500Y-105622135D01*
X129319500Y-107417870D01*
X129319501Y-107417876D01*
X129325908Y-107477483D01*
X129376202Y-107612328D01*
X129376206Y-107612335D01*
X129462452Y-107727544D01*
X129462455Y-107727547D01*
X129577664Y-107813793D01*
X129577671Y-107813797D01*
X129577674Y-107813798D01*
X129709598Y-107863002D01*
X129765531Y-107904873D01*
X129789949Y-107970337D01*
X129775098Y-108038610D01*
X129753947Y-108066865D01*
X129631886Y-108188926D01*
X129496400Y-108382420D01*
X129496399Y-108382422D01*
X129396570Y-108596507D01*
X129396567Y-108596513D01*
X129339364Y-108809999D01*
X129339364Y-108810000D01*
X130236988Y-108810000D01*
X130204075Y-108867007D01*
X130170000Y-108994174D01*
X130170000Y-109125826D01*
X130204075Y-109252993D01*
X130236988Y-109310000D01*
X129339364Y-109310000D01*
X129396567Y-109523486D01*
X129396570Y-109523492D01*
X129496399Y-109737578D01*
X129631894Y-109931082D01*
X129798917Y-110098105D01*
X129984595Y-110228119D01*
X130028219Y-110282696D01*
X130035412Y-110352195D01*
X130003890Y-110414549D01*
X129984595Y-110431269D01*
X129798594Y-110561508D01*
X129631505Y-110728597D01*
X129495965Y-110922169D01*
X129495964Y-110922171D01*
X129396098Y-111136335D01*
X129396094Y-111136344D01*
X129334938Y-111364586D01*
X129334936Y-111364596D01*
X129314341Y-111599999D01*
X129314341Y-111600000D01*
X129334936Y-111835403D01*
X129334938Y-111835413D01*
X129396094Y-112063655D01*
X129396096Y-112063659D01*
X129396097Y-112063663D01*
X129467912Y-112217671D01*
X129495965Y-112277830D01*
X129495967Y-112277834D01*
X129631501Y-112471395D01*
X129631506Y-112471402D01*
X129798597Y-112638493D01*
X129798603Y-112638498D01*
X129984158Y-112768425D01*
X130027783Y-112823002D01*
X130034977Y-112892500D01*
X130003454Y-112954855D01*
X129984158Y-112971575D01*
X129798597Y-113101505D01*
X129631505Y-113268597D01*
X129495965Y-113462169D01*
X129495964Y-113462171D01*
X129396098Y-113676335D01*
X129396094Y-113676344D01*
X129334938Y-113904586D01*
X129334936Y-113904596D01*
X129314341Y-114139999D01*
X129314341Y-114140000D01*
X127051684Y-114140000D01*
X127063483Y-98407870D01*
X135759500Y-98407870D01*
X135759501Y-98407876D01*
X135765908Y-98467483D01*
X135816202Y-98602328D01*
X135816206Y-98602335D01*
X135902452Y-98717544D01*
X135902455Y-98717547D01*
X136017664Y-98803793D01*
X136017671Y-98803797D01*
X136152517Y-98854091D01*
X136152516Y-98854091D01*
X136159444Y-98854835D01*
X136212127Y-98860500D01*
X137807872Y-98860499D01*
X137867483Y-98854091D01*
X138002331Y-98803796D01*
X138117546Y-98717546D01*
X138203796Y-98602331D01*
X138254091Y-98467483D01*
X138260500Y-98407873D01*
X138260499Y-96812128D01*
X138254091Y-96752517D01*
X138203796Y-96617669D01*
X138203795Y-96617668D01*
X138203793Y-96617664D01*
X138117547Y-96502455D01*
X138117544Y-96502452D01*
X138002335Y-96416206D01*
X138002328Y-96416202D01*
X137867482Y-96365908D01*
X137867483Y-96365908D01*
X137807883Y-96359501D01*
X137807881Y-96359500D01*
X137807873Y-96359500D01*
X137807864Y-96359500D01*
X136212129Y-96359500D01*
X136212123Y-96359501D01*
X136152516Y-96365908D01*
X136017671Y-96416202D01*
X136017664Y-96416206D01*
X135902455Y-96502452D01*
X135902452Y-96502455D01*
X135816206Y-96617664D01*
X135816202Y-96617671D01*
X135765908Y-96752517D01*
X135759501Y-96812116D01*
X135759501Y-96812123D01*
X135759500Y-96812135D01*
X135759500Y-98407870D01*
X127063483Y-98407870D01*
X127066736Y-94070000D01*
X128954341Y-94070000D01*
X128974936Y-94305403D01*
X128974938Y-94305413D01*
X129036094Y-94533655D01*
X129036096Y-94533659D01*
X129036097Y-94533663D01*
X129135965Y-94747830D01*
X129135967Y-94747834D01*
X129244281Y-94902521D01*
X129271505Y-94941401D01*
X129438599Y-95108495D01*
X129535384Y-95176265D01*
X129632165Y-95244032D01*
X129632167Y-95244033D01*
X129632170Y-95244035D01*
X129846337Y-95343903D01*
X130074592Y-95405063D01*
X130261263Y-95421395D01*
X130309999Y-95425659D01*
X130310000Y-95425659D01*
X130310001Y-95425659D01*
X130349234Y-95422226D01*
X130545408Y-95405063D01*
X130773663Y-95343903D01*
X130987830Y-95244035D01*
X131181401Y-95108495D01*
X131348495Y-94941401D01*
X131484035Y-94747830D01*
X131583903Y-94533663D01*
X131645063Y-94305408D01*
X131665659Y-94070000D01*
X131645063Y-93834592D01*
X131583903Y-93606337D01*
X131484035Y-93392171D01*
X131472688Y-93375965D01*
X131348494Y-93198597D01*
X131181402Y-93031506D01*
X131181396Y-93031501D01*
X130995842Y-92901575D01*
X130952217Y-92846998D01*
X130945023Y-92777500D01*
X130976546Y-92715145D01*
X130995842Y-92698425D01*
X131018026Y-92682891D01*
X131181401Y-92568495D01*
X131348495Y-92401401D01*
X131484035Y-92207830D01*
X131583903Y-91993663D01*
X131645063Y-91765408D01*
X131665659Y-91530000D01*
X131645063Y-91294592D01*
X131583903Y-91066337D01*
X131484035Y-90852171D01*
X131472687Y-90835965D01*
X131348496Y-90658600D01*
X131344237Y-90654341D01*
X131226567Y-90536671D01*
X131193084Y-90475351D01*
X131198068Y-90405659D01*
X131239939Y-90349725D01*
X131270915Y-90332810D01*
X131402331Y-90283796D01*
X131517546Y-90197546D01*
X131603796Y-90082331D01*
X131654091Y-89947483D01*
X131660500Y-89887873D01*
X131660499Y-88092128D01*
X131654091Y-88032517D01*
X131624182Y-87952328D01*
X131603797Y-87897671D01*
X131603793Y-87897664D01*
X131517547Y-87782455D01*
X131517544Y-87782452D01*
X131402335Y-87696206D01*
X131402328Y-87696202D01*
X131267482Y-87645908D01*
X131267483Y-87645908D01*
X131207883Y-87639501D01*
X131207881Y-87639500D01*
X131207873Y-87639500D01*
X131207864Y-87639500D01*
X129412129Y-87639500D01*
X129412123Y-87639501D01*
X129352516Y-87645908D01*
X129217671Y-87696202D01*
X129217664Y-87696206D01*
X129102455Y-87782452D01*
X129102452Y-87782455D01*
X129016206Y-87897664D01*
X129016202Y-87897671D01*
X128965908Y-88032517D01*
X128961463Y-88073867D01*
X128959501Y-88092123D01*
X128959500Y-88092135D01*
X128959500Y-89887870D01*
X128959501Y-89887876D01*
X128965908Y-89947483D01*
X129016202Y-90082328D01*
X129016206Y-90082335D01*
X129102452Y-90197544D01*
X129102455Y-90197547D01*
X129217664Y-90283793D01*
X129217671Y-90283797D01*
X129349081Y-90332810D01*
X129405015Y-90374681D01*
X129429432Y-90440145D01*
X129414580Y-90508418D01*
X129393430Y-90536673D01*
X129271503Y-90658600D01*
X129135965Y-90852169D01*
X129135964Y-90852171D01*
X129036098Y-91066335D01*
X129036094Y-91066344D01*
X128974938Y-91294586D01*
X128974936Y-91294596D01*
X128954341Y-91529999D01*
X128954341Y-91530000D01*
X128974936Y-91765403D01*
X128974938Y-91765413D01*
X129036094Y-91993655D01*
X129036096Y-91993659D01*
X129036097Y-91993663D01*
X129094303Y-92118486D01*
X129135965Y-92207830D01*
X129135967Y-92207834D01*
X129271501Y-92401395D01*
X129271506Y-92401402D01*
X129438597Y-92568493D01*
X129438603Y-92568498D01*
X129624158Y-92698425D01*
X129667783Y-92753002D01*
X129674977Y-92822500D01*
X129643454Y-92884855D01*
X129624158Y-92901575D01*
X129438597Y-93031505D01*
X129271505Y-93198597D01*
X129135965Y-93392169D01*
X129135964Y-93392171D01*
X129036098Y-93606335D01*
X129036094Y-93606344D01*
X128974938Y-93834586D01*
X128974936Y-93834596D01*
X128954341Y-94069999D01*
X128954341Y-94070000D01*
X127066736Y-94070000D01*
X127078385Y-78537870D01*
X129109500Y-78537870D01*
X129109501Y-78537872D01*
X129115908Y-78597483D01*
X129166202Y-78732328D01*
X129166206Y-78732335D01*
X129252452Y-78847544D01*
X129252455Y-78847547D01*
X129367664Y-78933793D01*
X129367671Y-78933797D01*
X129429902Y-78957007D01*
X129499598Y-78983002D01*
X129555531Y-79024873D01*
X129579949Y-79090337D01*
X129565098Y-79158610D01*
X129543947Y-79186865D01*
X129421886Y-79308926D01*
X129286400Y-79502420D01*
X129286399Y-79502422D01*
X129186570Y-79716507D01*
X129186567Y-79716513D01*
X129129364Y-79929999D01*
X129129364Y-79930000D01*
X130026988Y-79930000D01*
X129994075Y-79987007D01*
X129960000Y-80114174D01*
X129960000Y-80245826D01*
X129994075Y-80372993D01*
X130026988Y-80430000D01*
X129129364Y-80430000D01*
X129186567Y-80643486D01*
X129186570Y-80643492D01*
X129286399Y-80857578D01*
X129421894Y-81051082D01*
X129588917Y-81218105D01*
X129782421Y-81353600D01*
X129996507Y-81453429D01*
X129996516Y-81453433D01*
X130210000Y-81510634D01*
X130210000Y-80613012D01*
X130267007Y-80645925D01*
X130394174Y-80680000D01*
X130525826Y-80680000D01*
X130652993Y-80645925D01*
X130710000Y-80613012D01*
X130710000Y-81510633D01*
X130923483Y-81453433D01*
X130923492Y-81453429D01*
X131137578Y-81353600D01*
X131331082Y-81218105D01*
X131498105Y-81051082D01*
X131633600Y-80857578D01*
X131733429Y-80643492D01*
X131733434Y-80643481D01*
X131744440Y-80602405D01*
X131780804Y-80542744D01*
X131843651Y-80512214D01*
X131913026Y-80520508D01*
X131951895Y-80546815D01*
X134883213Y-83478134D01*
X137563126Y-86158047D01*
X137596611Y-86219370D01*
X137591627Y-86289062D01*
X137549755Y-86344995D01*
X137484291Y-86369412D01*
X137468804Y-86369550D01*
X137467874Y-86369500D01*
X137467873Y-86369500D01*
X137467871Y-86369500D01*
X135872129Y-86369500D01*
X135872123Y-86369501D01*
X135812516Y-86375908D01*
X135677671Y-86426202D01*
X135677664Y-86426206D01*
X135562455Y-86512452D01*
X135562452Y-86512455D01*
X135476206Y-86627664D01*
X135476202Y-86627671D01*
X135425908Y-86762517D01*
X135419501Y-86822116D01*
X135419501Y-86822124D01*
X135419500Y-86822135D01*
X135419500Y-88417870D01*
X135419501Y-88417876D01*
X135425908Y-88477483D01*
X135476202Y-88612328D01*
X135476206Y-88612335D01*
X135562452Y-88727544D01*
X135562455Y-88727547D01*
X135677664Y-88813793D01*
X135677671Y-88813797D01*
X135812517Y-88864091D01*
X135812516Y-88864091D01*
X135819444Y-88864835D01*
X135872127Y-88870500D01*
X137467872Y-88870499D01*
X137527483Y-88864091D01*
X137662331Y-88813796D01*
X137777546Y-88727546D01*
X137863796Y-88612331D01*
X137914091Y-88477483D01*
X137920500Y-88417873D01*
X137920499Y-86822128D01*
X137920499Y-86822124D01*
X137920449Y-86821192D01*
X137920499Y-86820980D01*
X137920499Y-86818807D01*
X137921013Y-86818807D01*
X137936516Y-86753195D01*
X137986795Y-86704679D01*
X138055322Y-86691047D01*
X138120341Y-86716628D01*
X138131952Y-86726873D01*
X138634283Y-87229204D01*
X138634289Y-87229209D01*
X138763181Y-87358101D01*
X138796666Y-87419424D01*
X138799500Y-87445782D01*
X138799500Y-87528541D01*
X138799500Y-87528543D01*
X138799499Y-87528543D01*
X138837947Y-87721829D01*
X138837950Y-87721839D01*
X138913364Y-87903907D01*
X138913371Y-87903920D01*
X139026245Y-88072847D01*
X139024717Y-88073867D01*
X139048666Y-88130255D01*
X139049500Y-88144610D01*
X139049500Y-95881459D01*
X139049500Y-97628541D01*
X139049500Y-97628543D01*
X139049499Y-97628543D01*
X139087947Y-97821829D01*
X139087950Y-97821839D01*
X139163364Y-98003907D01*
X139163371Y-98003920D01*
X139272859Y-98167780D01*
X139272860Y-98167781D01*
X139272861Y-98167782D01*
X139412218Y-98307139D01*
X139412219Y-98307139D01*
X139419286Y-98314206D01*
X139419285Y-98314206D01*
X139419289Y-98314209D01*
X141382213Y-100277135D01*
X141382214Y-100277136D01*
X141382217Y-100277138D01*
X141382219Y-100277140D01*
X141546086Y-100386631D01*
X141728165Y-100462052D01*
X141921455Y-100500499D01*
X141921459Y-100500500D01*
X141921460Y-100500500D01*
X142118541Y-100500500D01*
X142118542Y-100500499D01*
X142311836Y-100462052D01*
X142493914Y-100386631D01*
X142657782Y-100277140D01*
X142797140Y-100137782D01*
X142906631Y-99973914D01*
X142982052Y-99791836D01*
X143020500Y-99598540D01*
X143020500Y-99401460D01*
X142982052Y-99208165D01*
X142906631Y-99026086D01*
X142841006Y-98927870D01*
X148519500Y-98927870D01*
X148519501Y-98927876D01*
X148525908Y-98987483D01*
X148576202Y-99122328D01*
X148576206Y-99122335D01*
X148662452Y-99237544D01*
X148662455Y-99237547D01*
X148777664Y-99323793D01*
X148777671Y-99323797D01*
X148912517Y-99374091D01*
X148912516Y-99374091D01*
X148919444Y-99374835D01*
X148972127Y-99380500D01*
X150567872Y-99380499D01*
X150627483Y-99374091D01*
X150762331Y-99323796D01*
X150877546Y-99237546D01*
X150963796Y-99122331D01*
X151014091Y-98987483D01*
X151020500Y-98927873D01*
X151020499Y-97332128D01*
X151014091Y-97272517D01*
X151004296Y-97246256D01*
X150963797Y-97137671D01*
X150963793Y-97137664D01*
X150877547Y-97022455D01*
X150877544Y-97022452D01*
X150762335Y-96936206D01*
X150762328Y-96936202D01*
X150627482Y-96885908D01*
X150627483Y-96885908D01*
X150567883Y-96879501D01*
X150567881Y-96879500D01*
X150567873Y-96879500D01*
X150567864Y-96879500D01*
X148972129Y-96879500D01*
X148972123Y-96879501D01*
X148912516Y-96885908D01*
X148777671Y-96936202D01*
X148777664Y-96936206D01*
X148662455Y-97022452D01*
X148662452Y-97022455D01*
X148576206Y-97137664D01*
X148576202Y-97137671D01*
X148525908Y-97272517D01*
X148519501Y-97332116D01*
X148519501Y-97332123D01*
X148519500Y-97332135D01*
X148519500Y-98927870D01*
X142841006Y-98927870D01*
X142797140Y-98862219D01*
X142797138Y-98862217D01*
X142797136Y-98862214D01*
X141086819Y-97151897D01*
X141053334Y-97090574D01*
X141050500Y-97064216D01*
X141050500Y-95730000D01*
X157074472Y-95730000D01*
X157094351Y-96489164D01*
X157153936Y-97246256D01*
X157248087Y-97961401D01*
X157253059Y-97999165D01*
X157331512Y-98422455D01*
X157391454Y-98745875D01*
X157568734Y-99484301D01*
X157762304Y-100137782D01*
X157784423Y-100212455D01*
X158037923Y-100928316D01*
X158328541Y-101629930D01*
X158539199Y-102071584D01*
X158655480Y-102315371D01*
X158655486Y-102315385D01*
X159017842Y-102982761D01*
X159017855Y-102982784D01*
X159414640Y-103630276D01*
X159844788Y-104256145D01*
X160307075Y-104858610D01*
X160307096Y-104858636D01*
X160495552Y-105079289D01*
X160694692Y-105312452D01*
X160800294Y-105436095D01*
X160800310Y-105436113D01*
X160976821Y-105622116D01*
X161323043Y-105986957D01*
X161582174Y-106232863D01*
X161873886Y-106509689D01*
X161873901Y-106509702D01*
X161873907Y-106509708D01*
X162216668Y-106802454D01*
X162451363Y-107002903D01*
X162451389Y-107002924D01*
X163053854Y-107465211D01*
X163053859Y-107465214D01*
X163053865Y-107465219D01*
X163561051Y-107813798D01*
X163679723Y-107895359D01*
X164327215Y-108292144D01*
X164327238Y-108292157D01*
X164994614Y-108654513D01*
X164994619Y-108654515D01*
X164994628Y-108654520D01*
X165680070Y-108981459D01*
X166381684Y-109272077D01*
X167097545Y-109525577D01*
X167825693Y-109741264D01*
X168564131Y-109918547D01*
X169310835Y-110056941D01*
X169979353Y-110144952D01*
X170063743Y-110156063D01*
X170063745Y-110156063D01*
X170063759Y-110156065D01*
X170820839Y-110215649D01*
X171580000Y-110235528D01*
X172339161Y-110215649D01*
X173096241Y-110156065D01*
X173849165Y-110056941D01*
X174595869Y-109918547D01*
X175334307Y-109741264D01*
X176062455Y-109525577D01*
X176778316Y-109272077D01*
X177479930Y-108981459D01*
X178165372Y-108654520D01*
X178832764Y-108292156D01*
X178867657Y-108270774D01*
X179200405Y-108066865D01*
X179480277Y-107895359D01*
X180106135Y-107465219D01*
X180708625Y-107002913D01*
X181286093Y-106509708D01*
X181836957Y-105986957D01*
X182359708Y-105436093D01*
X182852913Y-104858625D01*
X183315219Y-104256135D01*
X183745359Y-103630277D01*
X183812937Y-103520000D01*
X198853693Y-103520000D01*
X198874174Y-103662456D01*
X198933961Y-103793370D01*
X198933962Y-103793371D01*
X198933963Y-103793373D01*
X198971582Y-103840056D01*
X198971585Y-103840059D01*
X198971590Y-103840065D01*
X199841027Y-104709500D01*
X200099944Y-104968417D01*
X200146627Y-105006037D01*
X200277543Y-105065825D01*
X200277542Y-105065825D01*
X200295449Y-105068399D01*
X200420000Y-105086307D01*
X200562457Y-105065825D01*
X200693373Y-105006037D01*
X200740056Y-104968418D01*
X201868417Y-103840056D01*
X201906037Y-103793373D01*
X201965825Y-103662457D01*
X201986307Y-103520000D01*
X201965825Y-103377543D01*
X201906037Y-103246627D01*
X201868418Y-103199944D01*
X201868413Y-103199939D01*
X201868409Y-103199934D01*
X200740063Y-102071590D01*
X200740056Y-102071583D01*
X200693373Y-102033963D01*
X200562457Y-101974175D01*
X200562455Y-101974174D01*
X200562457Y-101974174D01*
X200420000Y-101953693D01*
X200277543Y-101974174D01*
X200146629Y-102033961D01*
X200099934Y-102071590D01*
X198971590Y-103199936D01*
X198971584Y-103199943D01*
X198933962Y-103246628D01*
X198933961Y-103246630D01*
X198874174Y-103377543D01*
X198853693Y-103520000D01*
X183812937Y-103520000D01*
X184142156Y-102982764D01*
X184504520Y-102315372D01*
X184831459Y-101629930D01*
X185122077Y-100928316D01*
X185375577Y-100212455D01*
X185591264Y-99484307D01*
X185768547Y-98745869D01*
X185906941Y-97999165D01*
X186006065Y-97246241D01*
X186065649Y-96489161D01*
X186085528Y-95730000D01*
X186065649Y-94970839D01*
X186006065Y-94213759D01*
X185906941Y-93460835D01*
X185768547Y-92714131D01*
X185591264Y-91975693D01*
X185375577Y-91247545D01*
X185122077Y-90531684D01*
X184831459Y-89830070D01*
X184504520Y-89144628D01*
X184504515Y-89144619D01*
X184504513Y-89144614D01*
X184142290Y-88477483D01*
X184142156Y-88477236D01*
X184142154Y-88477233D01*
X184142144Y-88477215D01*
X183745359Y-87829723D01*
X183671210Y-87721835D01*
X183315219Y-87203865D01*
X183022302Y-86822128D01*
X182852924Y-86601389D01*
X182852903Y-86601363D01*
X182512549Y-86202861D01*
X182359708Y-86023907D01*
X182359702Y-86023901D01*
X182359689Y-86023886D01*
X182067428Y-85715909D01*
X181836957Y-85473043D01*
X181565869Y-85215789D01*
X181286113Y-84950310D01*
X181286095Y-84950294D01*
X180708636Y-84457096D01*
X180708610Y-84457075D01*
X180106145Y-83994788D01*
X179480276Y-83564640D01*
X178832784Y-83167855D01*
X178832761Y-83167842D01*
X178165385Y-82805486D01*
X178165375Y-82805482D01*
X178165372Y-82805480D01*
X177479930Y-82478541D01*
X177479926Y-82478539D01*
X177479919Y-82478536D01*
X176880968Y-82230443D01*
X176778316Y-82187923D01*
X176062455Y-81934423D01*
X176062444Y-81934419D01*
X176062442Y-81934419D01*
X175334301Y-81718734D01*
X174595875Y-81541454D01*
X174429585Y-81510634D01*
X173849165Y-81403059D01*
X173849150Y-81403057D01*
X173096256Y-81303936D01*
X172339164Y-81244351D01*
X171580000Y-81224472D01*
X170820835Y-81244351D01*
X170063743Y-81303936D01*
X169310849Y-81403057D01*
X169310846Y-81403057D01*
X169310835Y-81403059D01*
X168813032Y-81495321D01*
X168564124Y-81541454D01*
X167825698Y-81718734D01*
X167097557Y-81934419D01*
X167097549Y-81934421D01*
X167097545Y-81934423D01*
X166767620Y-82051255D01*
X166381686Y-82187922D01*
X165680080Y-82478536D01*
X164994628Y-82805480D01*
X164994614Y-82805486D01*
X164327238Y-83167842D01*
X164327215Y-83167855D01*
X163679723Y-83564640D01*
X163053854Y-83994788D01*
X162451389Y-84457075D01*
X162451363Y-84457096D01*
X161873904Y-84950294D01*
X161873886Y-84950310D01*
X161323043Y-85473043D01*
X160800310Y-86023886D01*
X160800294Y-86023904D01*
X160307096Y-86601363D01*
X160307075Y-86601389D01*
X159844788Y-87203854D01*
X159414640Y-87829723D01*
X159017855Y-88477215D01*
X159017842Y-88477238D01*
X158655486Y-89144614D01*
X158655480Y-89144628D01*
X158328536Y-89830080D01*
X158037922Y-90531686D01*
X157784419Y-91247557D01*
X157568734Y-91975698D01*
X157391454Y-92714124D01*
X157366827Y-92846998D01*
X157253059Y-93460835D01*
X157253057Y-93460846D01*
X157253057Y-93460849D01*
X157153936Y-94213743D01*
X157094351Y-94970835D01*
X157074472Y-95730000D01*
X141050500Y-95730000D01*
X141050500Y-90227797D01*
X141070185Y-90160758D01*
X141122989Y-90115003D01*
X141192147Y-90105059D01*
X141243390Y-90124694D01*
X141336086Y-90186632D01*
X141336088Y-90186633D01*
X141336092Y-90186635D01*
X141484486Y-90248101D01*
X141518165Y-90262051D01*
X141518169Y-90262051D01*
X141518170Y-90262052D01*
X141711456Y-90300500D01*
X141711459Y-90300500D01*
X141908543Y-90300500D01*
X142038582Y-90274632D01*
X142101835Y-90262051D01*
X142283914Y-90186632D01*
X142447782Y-90077139D01*
X142587139Y-89937782D01*
X142696632Y-89773914D01*
X142772051Y-89591835D01*
X142784632Y-89528582D01*
X142810500Y-89398543D01*
X142810500Y-89094675D01*
X142810501Y-89094654D01*
X142810501Y-88891457D01*
X142810500Y-88891455D01*
X142795053Y-88813797D01*
X142772052Y-88698165D01*
X142696632Y-88516086D01*
X142696631Y-88516085D01*
X142696628Y-88516079D01*
X142587140Y-88352219D01*
X142587137Y-88352215D01*
X141992792Y-87757870D01*
X148189500Y-87757870D01*
X148189501Y-87757876D01*
X148195908Y-87817483D01*
X148246202Y-87952328D01*
X148246206Y-87952335D01*
X148332452Y-88067544D01*
X148332455Y-88067547D01*
X148447664Y-88153793D01*
X148447671Y-88153797D01*
X148582517Y-88204091D01*
X148582516Y-88204091D01*
X148589444Y-88204835D01*
X148642127Y-88210500D01*
X150237872Y-88210499D01*
X150297483Y-88204091D01*
X150432331Y-88153796D01*
X150547546Y-88067546D01*
X150633796Y-87952331D01*
X150684091Y-87817483D01*
X150690500Y-87757873D01*
X150690499Y-86162128D01*
X150684091Y-86102517D01*
X150654771Y-86023907D01*
X150633797Y-85967671D01*
X150633793Y-85967664D01*
X150547547Y-85852455D01*
X150547544Y-85852452D01*
X150432335Y-85766206D01*
X150432328Y-85766202D01*
X150297482Y-85715908D01*
X150297483Y-85715908D01*
X150237883Y-85709501D01*
X150237881Y-85709500D01*
X150237873Y-85709500D01*
X150237864Y-85709500D01*
X148642129Y-85709500D01*
X148642123Y-85709501D01*
X148582516Y-85715908D01*
X148447671Y-85766202D01*
X148447664Y-85766206D01*
X148332455Y-85852452D01*
X148332452Y-85852455D01*
X148246206Y-85967664D01*
X148246202Y-85967671D01*
X148195908Y-86102517D01*
X148189501Y-86162116D01*
X148189501Y-86162123D01*
X148189500Y-86162135D01*
X148189500Y-87757870D01*
X141992792Y-87757870D01*
X140827140Y-86592219D01*
X140827139Y-86592218D01*
X140687782Y-86452861D01*
X140687781Y-86452860D01*
X140683451Y-86448530D01*
X140683440Y-86448520D01*
X140584209Y-86349289D01*
X140584207Y-86349286D01*
X140437781Y-86202860D01*
X140049209Y-85814289D01*
X140049207Y-85814286D01*
X136643200Y-82408279D01*
X133087100Y-78852180D01*
X133053616Y-78790858D01*
X133058600Y-78721166D01*
X133100472Y-78665233D01*
X133165936Y-78640816D01*
X133174782Y-78640500D01*
X137228432Y-78640500D01*
X137295471Y-78660185D01*
X137316113Y-78676819D01*
X138753949Y-80114655D01*
X138753978Y-80114686D01*
X138896428Y-80257136D01*
X138896432Y-80257139D01*
X139060293Y-80366628D01*
X139060306Y-80366635D01*
X139189047Y-80419961D01*
X139213284Y-80430000D01*
X139242378Y-80442051D01*
X139339026Y-80461275D01*
X139387349Y-80470887D01*
X139435672Y-80480500D01*
X139435673Y-80480500D01*
X139435674Y-80480500D01*
X139632754Y-80480500D01*
X167571459Y-80480500D01*
X167571460Y-80480500D01*
X167768540Y-80480500D01*
X181914218Y-80480500D01*
X181981257Y-80500185D01*
X182001899Y-80516819D01*
X191733181Y-90248101D01*
X191766666Y-90309424D01*
X191769500Y-90335782D01*
X191769500Y-95314217D01*
X191749815Y-95381256D01*
X191733181Y-95401898D01*
X191081899Y-96053181D01*
X191020576Y-96086666D01*
X190994218Y-96089500D01*
X190790758Y-96089500D01*
X190723719Y-96069815D01*
X190703077Y-96053181D01*
X190701402Y-96051506D01*
X190701396Y-96051501D01*
X190515842Y-95921575D01*
X190472217Y-95866998D01*
X190465023Y-95797500D01*
X190496546Y-95735145D01*
X190515842Y-95718425D01*
X190538026Y-95702891D01*
X190701401Y-95588495D01*
X190868495Y-95421401D01*
X191004035Y-95227830D01*
X191103903Y-95013663D01*
X191165063Y-94785408D01*
X191185659Y-94550000D01*
X191165063Y-94314592D01*
X191103903Y-94086337D01*
X191004035Y-93872171D01*
X190868495Y-93678599D01*
X190868494Y-93678597D01*
X190701402Y-93511506D01*
X190701396Y-93511501D01*
X190515842Y-93381575D01*
X190472217Y-93326998D01*
X190465023Y-93257500D01*
X190496546Y-93195145D01*
X190515842Y-93178425D01*
X190538026Y-93162891D01*
X190701401Y-93048495D01*
X190868495Y-92881401D01*
X191004035Y-92687830D01*
X191103903Y-92473663D01*
X191165063Y-92245408D01*
X191185659Y-92010000D01*
X191165063Y-91774592D01*
X191103903Y-91546337D01*
X191004035Y-91332171D01*
X190944780Y-91247545D01*
X190868494Y-91138597D01*
X190701402Y-90971506D01*
X190701395Y-90971501D01*
X190507834Y-90835967D01*
X190507830Y-90835965D01*
X190507828Y-90835964D01*
X190293663Y-90736097D01*
X190293659Y-90736096D01*
X190293655Y-90736094D01*
X190065413Y-90674938D01*
X190065403Y-90674936D01*
X189830001Y-90654341D01*
X189829999Y-90654341D01*
X189594596Y-90674936D01*
X189594586Y-90674938D01*
X189366344Y-90736094D01*
X189366335Y-90736098D01*
X189152171Y-90835964D01*
X189152169Y-90835965D01*
X188958597Y-90971505D01*
X188791505Y-91138597D01*
X188655965Y-91332169D01*
X188655964Y-91332171D01*
X188556098Y-91546335D01*
X188556094Y-91546344D01*
X188494938Y-91774586D01*
X188494936Y-91774596D01*
X188474341Y-92009999D01*
X188474341Y-92010000D01*
X188494936Y-92245403D01*
X188494938Y-92245413D01*
X188556094Y-92473655D01*
X188556096Y-92473659D01*
X188556097Y-92473663D01*
X188655965Y-92687830D01*
X188655967Y-92687834D01*
X188791501Y-92881395D01*
X188791506Y-92881402D01*
X188958597Y-93048493D01*
X188958603Y-93048498D01*
X189144158Y-93178425D01*
X189187783Y-93233002D01*
X189194977Y-93302500D01*
X189163454Y-93364855D01*
X189144158Y-93381575D01*
X188958597Y-93511505D01*
X188791505Y-93678597D01*
X188655965Y-93872169D01*
X188655964Y-93872171D01*
X188556098Y-94086335D01*
X188556094Y-94086344D01*
X188494938Y-94314586D01*
X188494936Y-94314596D01*
X188474341Y-94549999D01*
X188474341Y-94550000D01*
X188494936Y-94785403D01*
X188494938Y-94785413D01*
X188556094Y-95013655D01*
X188556096Y-95013659D01*
X188556097Y-95013663D01*
X188655965Y-95227830D01*
X188655967Y-95227834D01*
X188791501Y-95421395D01*
X188791506Y-95421402D01*
X188958597Y-95588493D01*
X188958603Y-95588498D01*
X189144158Y-95718425D01*
X189187783Y-95773002D01*
X189194977Y-95842500D01*
X189163454Y-95904855D01*
X189144158Y-95921575D01*
X188958597Y-96051505D01*
X188791505Y-96218597D01*
X188655965Y-96412169D01*
X188655964Y-96412171D01*
X188556098Y-96626335D01*
X188556094Y-96626344D01*
X188494938Y-96854586D01*
X188494936Y-96854596D01*
X188474341Y-97089999D01*
X188474341Y-97090000D01*
X188494936Y-97325403D01*
X188494938Y-97325413D01*
X188556094Y-97553655D01*
X188556096Y-97553659D01*
X188556097Y-97553663D01*
X188601020Y-97650000D01*
X188655965Y-97767830D01*
X188655967Y-97767834D01*
X188791501Y-97961395D01*
X188791506Y-97961402D01*
X188913430Y-98083326D01*
X188946915Y-98144649D01*
X188941931Y-98214341D01*
X188900059Y-98270274D01*
X188869083Y-98287189D01*
X188737669Y-98336203D01*
X188737664Y-98336206D01*
X188622455Y-98422452D01*
X188622452Y-98422455D01*
X188536206Y-98537664D01*
X188536202Y-98537671D01*
X188485908Y-98672517D01*
X188479501Y-98732116D01*
X188479501Y-98732123D01*
X188479500Y-98732135D01*
X188479500Y-100527870D01*
X188479501Y-100527876D01*
X188485908Y-100587483D01*
X188536202Y-100722328D01*
X188536206Y-100722335D01*
X188622452Y-100837544D01*
X188622455Y-100837547D01*
X188737664Y-100923793D01*
X188737671Y-100923797D01*
X188872517Y-100974091D01*
X188872516Y-100974091D01*
X188879444Y-100974835D01*
X188932127Y-100980500D01*
X190727872Y-100980499D01*
X190787483Y-100974091D01*
X190922331Y-100923796D01*
X191037546Y-100837546D01*
X191123796Y-100722331D01*
X191174091Y-100587483D01*
X191180500Y-100527873D01*
X191180499Y-98732128D01*
X191174091Y-98672517D01*
X191158981Y-98632006D01*
X191123797Y-98537671D01*
X191123793Y-98537664D01*
X191037547Y-98422455D01*
X191037544Y-98422452D01*
X190922335Y-98336206D01*
X190922328Y-98336202D01*
X190907527Y-98330682D01*
X190851593Y-98288811D01*
X190827176Y-98223346D01*
X190842028Y-98155073D01*
X190891433Y-98105668D01*
X190950860Y-98090500D01*
X191558542Y-98090500D01*
X191577870Y-98086655D01*
X191655188Y-98071275D01*
X191751836Y-98052051D01*
X191805165Y-98029961D01*
X191933914Y-97976632D01*
X192097782Y-97867139D01*
X192237139Y-97727782D01*
X192237139Y-97727780D01*
X192247347Y-97717573D01*
X192247348Y-97717570D01*
X192314918Y-97650000D01*
X196843693Y-97650000D01*
X196864174Y-97792456D01*
X196923961Y-97923370D01*
X196923962Y-97923371D01*
X196923963Y-97923373D01*
X196961582Y-97970056D01*
X196961585Y-97970059D01*
X196961590Y-97970065D01*
X197845618Y-98854091D01*
X198089944Y-99098417D01*
X198136627Y-99136037D01*
X198267543Y-99195825D01*
X198267542Y-99195825D01*
X198285449Y-99198399D01*
X198410000Y-99216307D01*
X198552457Y-99195825D01*
X198683373Y-99136037D01*
X198730056Y-99098418D01*
X199858417Y-97970056D01*
X199896037Y-97923373D01*
X199955825Y-97792457D01*
X199976307Y-97650000D01*
X199955825Y-97507543D01*
X199896037Y-97376627D01*
X199858418Y-97329944D01*
X199858413Y-97329939D01*
X199858409Y-97329934D01*
X198730063Y-96201590D01*
X198730056Y-96201583D01*
X198683373Y-96163963D01*
X198552457Y-96104175D01*
X198552455Y-96104174D01*
X198552457Y-96104174D01*
X198410000Y-96083693D01*
X198267543Y-96104174D01*
X198136629Y-96163961D01*
X198089934Y-96201590D01*
X196961590Y-97329936D01*
X196961584Y-97329942D01*
X196961583Y-97329944D01*
X196942773Y-97353285D01*
X196923962Y-97376628D01*
X196923961Y-97376630D01*
X196864174Y-97507543D01*
X196843693Y-97650000D01*
X192314918Y-97650000D01*
X193547140Y-96417781D01*
X193569419Y-96384436D01*
X193614268Y-96317317D01*
X193614270Y-96317312D01*
X193614276Y-96317304D01*
X193656632Y-96253914D01*
X193710264Y-96124435D01*
X193732051Y-96071836D01*
X193765106Y-95905659D01*
X193770500Y-95878541D01*
X193770500Y-89771459D01*
X193770500Y-89771456D01*
X193732052Y-89578170D01*
X193732051Y-89578169D01*
X193732051Y-89578165D01*
X193657649Y-89398541D01*
X193656635Y-89396092D01*
X193656628Y-89396079D01*
X193547139Y-89232218D01*
X193547136Y-89232214D01*
X193404686Y-89089764D01*
X193404655Y-89089735D01*
X183161479Y-78846559D01*
X183161459Y-78846537D01*
X183017785Y-78702863D01*
X183017781Y-78702860D01*
X182853920Y-78593371D01*
X182853907Y-78593364D01*
X182719935Y-78537872D01*
X182719934Y-78537872D01*
X182671836Y-78517949D01*
X182671828Y-78517947D01*
X182575188Y-78498724D01*
X182478544Y-78479500D01*
X182478541Y-78479500D01*
X170384782Y-78479500D01*
X170317743Y-78459815D01*
X170271988Y-78407011D01*
X170262044Y-78337853D01*
X170291069Y-78274297D01*
X170297101Y-78267819D01*
X170738840Y-77826079D01*
X170947778Y-77617141D01*
X170947782Y-77617139D01*
X171087139Y-77477782D01*
X171196632Y-77313914D01*
X171196637Y-77313901D01*
X171199503Y-77308542D01*
X171200900Y-77309288D01*
X171221601Y-77278293D01*
X171348495Y-77151401D01*
X171478426Y-76965840D01*
X171533001Y-76922217D01*
X171602499Y-76915023D01*
X171664854Y-76946546D01*
X171681574Y-76965841D01*
X171811505Y-77151401D01*
X171978599Y-77318495D01*
X172075384Y-77386265D01*
X172172165Y-77454032D01*
X172172167Y-77454033D01*
X172172170Y-77454035D01*
X172386337Y-77553903D01*
X172386343Y-77553904D01*
X172386344Y-77553905D01*
X172389091Y-77554641D01*
X172614592Y-77615063D01*
X172791034Y-77630500D01*
X172849999Y-77635659D01*
X172850000Y-77635659D01*
X172850001Y-77635659D01*
X172908966Y-77630500D01*
X173085408Y-77615063D01*
X173313663Y-77553903D01*
X173527830Y-77454035D01*
X173721401Y-77318495D01*
X173888495Y-77151401D01*
X174018426Y-76965841D01*
X174073002Y-76922217D01*
X174142500Y-76915023D01*
X174204855Y-76946546D01*
X174221575Y-76965842D01*
X174351500Y-77151395D01*
X174351505Y-77151401D01*
X174518599Y-77318495D01*
X174615384Y-77386265D01*
X174712165Y-77454032D01*
X174712167Y-77454033D01*
X174712170Y-77454035D01*
X174926337Y-77553903D01*
X174926343Y-77553904D01*
X174926344Y-77553905D01*
X174929091Y-77554641D01*
X175154592Y-77615063D01*
X175331034Y-77630500D01*
X175389999Y-77635659D01*
X175390000Y-77635659D01*
X175390001Y-77635659D01*
X175448966Y-77630500D01*
X175625408Y-77615063D01*
X175853663Y-77553903D01*
X176067830Y-77454035D01*
X176261401Y-77318495D01*
X176428495Y-77151401D01*
X176564035Y-76957830D01*
X176663903Y-76743663D01*
X176725063Y-76515408D01*
X176745659Y-76280000D01*
X176725063Y-76044592D01*
X176663903Y-75816337D01*
X176623644Y-75730001D01*
X189574089Y-75730001D01*
X189594506Y-76015476D01*
X189655340Y-76295123D01*
X189655342Y-76295130D01*
X189706561Y-76432454D01*
X189755359Y-76563287D01*
X189755361Y-76563291D01*
X189892516Y-76814471D01*
X189892517Y-76814472D01*
X189892520Y-76814477D01*
X190064034Y-77043592D01*
X190064038Y-77043596D01*
X190064043Y-77043602D01*
X190266397Y-77245956D01*
X190266403Y-77245961D01*
X190266408Y-77245966D01*
X190495523Y-77417480D01*
X190495527Y-77417482D01*
X190495528Y-77417483D01*
X190746708Y-77554638D01*
X190746712Y-77554640D01*
X190746714Y-77554641D01*
X191014870Y-77654658D01*
X191154699Y-77685076D01*
X191294523Y-77715493D01*
X191294525Y-77715493D01*
X191294529Y-77715494D01*
X191548215Y-77733637D01*
X191579999Y-77735911D01*
X191580000Y-77735911D01*
X191580001Y-77735911D01*
X191608599Y-77733865D01*
X191865471Y-77715494D01*
X191866846Y-77715195D01*
X191922965Y-77702987D01*
X192145130Y-77654658D01*
X192413286Y-77554641D01*
X192664477Y-77417480D01*
X192893592Y-77245966D01*
X193095966Y-77043592D01*
X193267480Y-76814477D01*
X193404641Y-76563286D01*
X193504658Y-76295130D01*
X193565494Y-76015471D01*
X193585911Y-75730000D01*
X193585002Y-75717297D01*
X193579141Y-75635337D01*
X193565494Y-75444529D01*
X193557677Y-75408597D01*
X193509618Y-75187671D01*
X193504658Y-75164870D01*
X193404641Y-74896714D01*
X193398740Y-74885908D01*
X193267483Y-74645528D01*
X193267482Y-74645527D01*
X193267480Y-74645523D01*
X193095966Y-74416408D01*
X193095961Y-74416403D01*
X193095956Y-74416397D01*
X192893602Y-74214043D01*
X192893596Y-74214038D01*
X192893592Y-74214034D01*
X192664477Y-74042520D01*
X192664472Y-74042517D01*
X192664471Y-74042516D01*
X192413291Y-73905361D01*
X192413287Y-73905359D01*
X192311624Y-73867441D01*
X192145130Y-73805342D01*
X192145126Y-73805341D01*
X192145123Y-73805340D01*
X191865476Y-73744506D01*
X191580001Y-73724089D01*
X191579999Y-73724089D01*
X191294523Y-73744506D01*
X191014876Y-73805340D01*
X191014871Y-73805341D01*
X191014870Y-73805342D01*
X190966382Y-73823427D01*
X190746712Y-73905359D01*
X190746708Y-73905361D01*
X190495528Y-74042516D01*
X190495527Y-74042517D01*
X190266409Y-74214033D01*
X190266397Y-74214043D01*
X190064043Y-74416397D01*
X190064033Y-74416409D01*
X189892517Y-74645527D01*
X189892516Y-74645528D01*
X189755361Y-74896708D01*
X189755359Y-74896712D01*
X189689812Y-75072452D01*
X189665488Y-75137669D01*
X189655340Y-75164876D01*
X189594506Y-75444523D01*
X189574089Y-75729998D01*
X189574089Y-75730001D01*
X176623644Y-75730001D01*
X176564035Y-75602171D01*
X176558425Y-75594158D01*
X176428494Y-75408597D01*
X176261402Y-75241506D01*
X176261395Y-75241501D01*
X176067834Y-75105967D01*
X176067830Y-75105965D01*
X176067828Y-75105964D01*
X175853663Y-75006097D01*
X175853659Y-75006096D01*
X175853655Y-75006094D01*
X175625413Y-74944938D01*
X175625403Y-74944936D01*
X175390001Y-74924341D01*
X175389999Y-74924341D01*
X175154596Y-74944936D01*
X175154586Y-74944938D01*
X174926344Y-75006094D01*
X174926335Y-75006098D01*
X174712171Y-75105964D01*
X174712169Y-75105965D01*
X174518597Y-75241505D01*
X174351505Y-75408597D01*
X174221575Y-75594158D01*
X174166998Y-75637783D01*
X174097500Y-75644977D01*
X174035145Y-75613454D01*
X174018425Y-75594158D01*
X173888494Y-75408597D01*
X173721402Y-75241506D01*
X173721395Y-75241501D01*
X173527834Y-75105967D01*
X173527830Y-75105965D01*
X173527828Y-75105964D01*
X173313663Y-75006097D01*
X173313659Y-75006096D01*
X173313655Y-75006094D01*
X173085413Y-74944938D01*
X173085403Y-74944936D01*
X172850001Y-74924341D01*
X172849999Y-74924341D01*
X172614596Y-74944936D01*
X172614586Y-74944938D01*
X172386344Y-75006094D01*
X172386335Y-75006098D01*
X172172171Y-75105964D01*
X172172169Y-75105965D01*
X171978597Y-75241505D01*
X171811505Y-75408597D01*
X171681575Y-75594158D01*
X171626998Y-75637783D01*
X171557500Y-75644977D01*
X171495145Y-75613454D01*
X171478425Y-75594158D01*
X171348494Y-75408597D01*
X171181402Y-75241506D01*
X171181395Y-75241501D01*
X170987834Y-75105967D01*
X170987830Y-75105965D01*
X170987828Y-75105964D01*
X170773663Y-75006097D01*
X170773659Y-75006096D01*
X170773655Y-75006094D01*
X170545413Y-74944938D01*
X170545403Y-74944936D01*
X170310001Y-74924341D01*
X170309999Y-74924341D01*
X170074596Y-74944936D01*
X170074586Y-74944938D01*
X169846344Y-75006094D01*
X169846335Y-75006098D01*
X169632171Y-75105964D01*
X169632169Y-75105965D01*
X169438600Y-75241503D01*
X169316673Y-75363430D01*
X169255350Y-75396914D01*
X169185658Y-75391930D01*
X169129725Y-75350058D01*
X169112810Y-75319081D01*
X169063797Y-75187671D01*
X169063793Y-75187664D01*
X168977547Y-75072455D01*
X168977544Y-75072452D01*
X168862335Y-74986206D01*
X168862328Y-74986202D01*
X168727482Y-74935908D01*
X168727483Y-74935908D01*
X168667883Y-74929501D01*
X168667881Y-74929500D01*
X168667873Y-74929500D01*
X168667864Y-74929500D01*
X166872129Y-74929500D01*
X166872123Y-74929501D01*
X166812516Y-74935908D01*
X166677671Y-74986202D01*
X166677664Y-74986206D01*
X166562455Y-75072452D01*
X166562452Y-75072455D01*
X166476206Y-75187664D01*
X166476202Y-75187671D01*
X166425908Y-75322517D01*
X166419501Y-75382116D01*
X166419500Y-75382135D01*
X166419500Y-77177870D01*
X166419501Y-77177876D01*
X166425908Y-77237483D01*
X166476202Y-77372328D01*
X166476206Y-77372335D01*
X166562452Y-77487544D01*
X166562455Y-77487547D01*
X166677664Y-77573793D01*
X166677671Y-77573797D01*
X166812517Y-77624091D01*
X166812516Y-77624091D01*
X166813642Y-77624212D01*
X166872127Y-77630500D01*
X167805218Y-77630499D01*
X167872257Y-77650183D01*
X167918012Y-77702987D01*
X167927956Y-77772146D01*
X167898931Y-77835702D01*
X167892899Y-77842180D01*
X167291899Y-78443181D01*
X167230576Y-78476666D01*
X167204218Y-78479500D01*
X142974500Y-78479500D01*
X142907461Y-78459815D01*
X142861706Y-78407011D01*
X142850500Y-78355500D01*
X142850500Y-78201457D01*
X142850499Y-78201455D01*
X142812052Y-78008171D01*
X142812051Y-78008164D01*
X142736631Y-77826086D01*
X142736629Y-77826083D01*
X142736627Y-77826079D01*
X142627139Y-77662219D01*
X142627136Y-77662215D01*
X141971479Y-77006559D01*
X141971459Y-77006537D01*
X141827785Y-76862863D01*
X141827781Y-76862860D01*
X141663920Y-76753371D01*
X141663911Y-76753366D01*
X141559927Y-76710295D01*
X141535165Y-76700038D01*
X141508500Y-76688993D01*
X141481837Y-76677949D01*
X141481833Y-76677948D01*
X141359903Y-76653695D01*
X141288543Y-76639500D01*
X141288541Y-76639500D01*
X140814784Y-76639500D01*
X140747745Y-76619815D01*
X140701990Y-76567011D01*
X140692046Y-76497853D01*
X140721071Y-76434297D01*
X140727103Y-76427819D01*
X140757136Y-76397785D01*
X140757139Y-76397782D01*
X140866632Y-76233914D01*
X140942051Y-76051835D01*
X140980500Y-75858541D01*
X140980500Y-75730001D01*
X149574390Y-75730001D01*
X149594804Y-76015433D01*
X149655628Y-76295037D01*
X149655630Y-76295043D01*
X149655631Y-76295046D01*
X149693950Y-76397782D01*
X149755635Y-76563166D01*
X149892770Y-76814309D01*
X149892775Y-76814317D01*
X150064254Y-77043387D01*
X150064270Y-77043405D01*
X150266594Y-77245729D01*
X150266612Y-77245745D01*
X150495682Y-77417224D01*
X150495690Y-77417229D01*
X150746833Y-77554364D01*
X150746832Y-77554364D01*
X150746836Y-77554365D01*
X150746839Y-77554367D01*
X151014954Y-77654369D01*
X151014960Y-77654370D01*
X151014962Y-77654371D01*
X151294566Y-77715195D01*
X151294568Y-77715195D01*
X151294572Y-77715196D01*
X151548220Y-77733337D01*
X151579999Y-77735610D01*
X151580000Y-77735610D01*
X151580001Y-77735610D01*
X151608595Y-77733564D01*
X151865428Y-77715196D01*
X152108979Y-77662215D01*
X152145037Y-77654371D01*
X152145037Y-77654370D01*
X152145046Y-77654369D01*
X152413161Y-77554367D01*
X152664315Y-77417226D01*
X152893395Y-77245739D01*
X153095739Y-77043395D01*
X153267226Y-76814315D01*
X153404367Y-76563161D01*
X153504369Y-76295046D01*
X153557276Y-76051835D01*
X153565195Y-76015433D01*
X153565195Y-76015432D01*
X153565196Y-76015428D01*
X153585610Y-75730000D01*
X153584701Y-75717297D01*
X153579529Y-75644977D01*
X153565196Y-75444572D01*
X153565185Y-75444523D01*
X153504371Y-75164962D01*
X153504370Y-75164960D01*
X153504369Y-75164954D01*
X153404367Y-74896839D01*
X153404295Y-74896708D01*
X153267229Y-74645690D01*
X153267224Y-74645682D01*
X153095745Y-74416612D01*
X153095729Y-74416594D01*
X152893405Y-74214270D01*
X152893387Y-74214254D01*
X152664317Y-74042775D01*
X152664309Y-74042770D01*
X152413166Y-73905635D01*
X152413167Y-73905635D01*
X152305915Y-73865632D01*
X152145046Y-73805631D01*
X152145043Y-73805630D01*
X152145037Y-73805628D01*
X151865433Y-73744804D01*
X151580001Y-73724390D01*
X151579999Y-73724390D01*
X151294566Y-73744804D01*
X151014962Y-73805628D01*
X150746833Y-73905635D01*
X150495690Y-74042770D01*
X150495682Y-74042775D01*
X150266612Y-74214254D01*
X150266594Y-74214270D01*
X150064270Y-74416594D01*
X150064254Y-74416612D01*
X149892775Y-74645682D01*
X149892770Y-74645690D01*
X149755635Y-74896833D01*
X149655628Y-75164962D01*
X149594804Y-75444566D01*
X149574390Y-75729998D01*
X149574390Y-75730001D01*
X140980500Y-75730001D01*
X140980500Y-75661459D01*
X140980500Y-75661456D01*
X140942052Y-75468170D01*
X140942051Y-75468169D01*
X140942051Y-75468165D01*
X140917378Y-75408599D01*
X140866635Y-75286092D01*
X140866628Y-75286079D01*
X140757139Y-75122218D01*
X140757136Y-75122214D01*
X140617785Y-74982863D01*
X140617781Y-74982860D01*
X140453920Y-74873371D01*
X140453907Y-74873364D01*
X140271839Y-74797950D01*
X140271829Y-74797947D01*
X140078543Y-74759500D01*
X140078541Y-74759500D01*
X140008540Y-74759500D01*
X139811459Y-74759500D01*
X139811456Y-74759500D01*
X139618171Y-74797946D01*
X139618167Y-74797948D01*
X139618165Y-74797948D01*
X139618164Y-74797949D01*
X139597322Y-74806582D01*
X139542743Y-74829189D01*
X139436089Y-74873366D01*
X139436080Y-74873371D01*
X139352077Y-74929501D01*
X139352076Y-74929501D01*
X139272222Y-74982857D01*
X139272214Y-74982863D01*
X138102180Y-76152898D01*
X138040857Y-76186383D01*
X137971165Y-76181399D01*
X137915232Y-76139527D01*
X137890815Y-76074063D01*
X137890499Y-76065217D01*
X137890499Y-75332129D01*
X137890498Y-75332123D01*
X137890497Y-75332116D01*
X137884091Y-75272517D01*
X137872524Y-75241505D01*
X137833797Y-75137671D01*
X137833793Y-75137664D01*
X137747547Y-75022455D01*
X137747544Y-75022452D01*
X137632335Y-74936206D01*
X137632328Y-74936202D01*
X137497482Y-74885908D01*
X137497483Y-74885908D01*
X137437883Y-74879501D01*
X137437881Y-74879500D01*
X137437873Y-74879500D01*
X137437864Y-74879500D01*
X135842129Y-74879500D01*
X135842123Y-74879501D01*
X135782516Y-74885908D01*
X135647671Y-74936202D01*
X135647664Y-74936206D01*
X135532455Y-75022452D01*
X135532452Y-75022455D01*
X135446206Y-75137664D01*
X135446202Y-75137671D01*
X135395908Y-75272517D01*
X135389501Y-75332116D01*
X135389500Y-75332127D01*
X135389500Y-75925051D01*
X135389501Y-76515500D01*
X135369816Y-76582539D01*
X135317013Y-76628294D01*
X135265501Y-76639500D01*
X131874141Y-76639500D01*
X131807102Y-76619815D01*
X131761347Y-76567011D01*
X131757969Y-76558859D01*
X131753796Y-76547669D01*
X131753793Y-76547665D01*
X131753793Y-76547664D01*
X131667547Y-76432455D01*
X131667544Y-76432452D01*
X131552335Y-76346206D01*
X131552328Y-76346202D01*
X131417482Y-76295908D01*
X131417483Y-76295908D01*
X131357883Y-76289501D01*
X131357881Y-76289500D01*
X131357873Y-76289500D01*
X131357864Y-76289500D01*
X129562129Y-76289500D01*
X129562123Y-76289501D01*
X129502516Y-76295908D01*
X129367671Y-76346202D01*
X129367664Y-76346206D01*
X129252455Y-76432452D01*
X129252452Y-76432455D01*
X129166206Y-76547664D01*
X129166202Y-76547671D01*
X129115908Y-76682517D01*
X129109501Y-76742116D01*
X129109500Y-76742135D01*
X129109500Y-78537870D01*
X127078385Y-78537870D01*
X127080443Y-75794405D01*
X127080500Y-75793572D01*
X127080500Y-75722706D01*
X127080618Y-75717297D01*
X127083377Y-75654108D01*
X127097386Y-75333226D01*
X127098326Y-75322495D01*
X127148152Y-74944025D01*
X127150025Y-74933405D01*
X127232649Y-74560709D01*
X127235440Y-74550295D01*
X127350230Y-74186227D01*
X127353917Y-74176095D01*
X127500003Y-73823412D01*
X127504561Y-73813638D01*
X127680822Y-73475045D01*
X127686217Y-73465700D01*
X127891325Y-73143744D01*
X127897515Y-73134905D01*
X128129896Y-72832060D01*
X128136834Y-72823791D01*
X128394726Y-72542352D01*
X128402352Y-72534726D01*
X128683791Y-72276834D01*
X128692060Y-72269896D01*
X128994905Y-72037515D01*
X129003744Y-72031325D01*
X129325700Y-71826217D01*
X129335045Y-71820822D01*
X129673638Y-71644561D01*
X129683412Y-71640003D01*
X130036095Y-71493917D01*
X130046227Y-71490230D01*
X130410295Y-71375440D01*
X130420709Y-71372649D01*
X130793405Y-71290025D01*
X130804025Y-71288152D01*
X131182495Y-71238326D01*
X131193226Y-71237386D01*
X131577289Y-71220618D01*
X131582705Y-71220501D01*
X146505673Y-71230450D01*
X146506644Y-71230514D01*
X146514205Y-71230512D01*
X146514208Y-71230513D01*
X146579478Y-71230499D01*
X146645558Y-71230544D01*
X146645558Y-71230543D01*
X146653196Y-71230549D01*
X146654176Y-71230484D01*
X196580990Y-71220500D01*
X201514108Y-71220500D01*
X201577294Y-71220500D01*
X201582702Y-71220617D01*
G37*
%TD.AperFunction*%
%TD*%
M02*
