%TF.GenerationSoftware,KiCad,Pcbnew,8.0.0-8.0.0-1~ubuntu20.04.1*%
%TF.CreationDate,2024-06-18T18:08:34-06:00*%
%TF.ProjectId,turbidometer,74757262-6964-46f6-9d65-7465722e6b69,rev?*%
%TF.SameCoordinates,Original*%
%TF.FileFunction,Copper,L1,Top*%
%TF.FilePolarity,Positive*%
%FSLAX46Y46*%
G04 Gerber Fmt 4.6, Leading zero omitted, Abs format (unit mm)*
G04 Created by KiCad (PCBNEW 8.0.0-8.0.0-1~ubuntu20.04.1) date 2024-06-18 18:08:34*
%MOMM*%
%LPD*%
G01*
G04 APERTURE LIST*
G04 Aperture macros list*
%AMRoundRect*
0 Rectangle with rounded corners*
0 $1 Rounding radius*
0 $2 $3 $4 $5 $6 $7 $8 $9 X,Y pos of 4 corners*
0 Add a 4 corners polygon primitive as box body*
4,1,4,$2,$3,$4,$5,$6,$7,$8,$9,$2,$3,0*
0 Add four circle primitives for the rounded corners*
1,1,$1+$1,$2,$3*
1,1,$1+$1,$4,$5*
1,1,$1+$1,$6,$7*
1,1,$1+$1,$8,$9*
0 Add four rect primitives between the rounded corners*
20,1,$1+$1,$2,$3,$4,$5,0*
20,1,$1+$1,$4,$5,$6,$7,0*
20,1,$1+$1,$6,$7,$8,$9,0*
20,1,$1+$1,$8,$9,$2,$3,0*%
%AMHorizOval*
0 Thick line with rounded ends*
0 $1 width*
0 $2 $3 position (X,Y) of the first rounded end (center of the circle)*
0 $4 $5 position (X,Y) of the second rounded end (center of the circle)*
0 Add line between two ends*
20,1,$1,$2,$3,$4,$5,0*
0 Add two circle primitives to create the rounded ends*
1,1,$1,$2,$3*
1,1,$1,$4,$5*%
%AMRotRect*
0 Rectangle, with rotation*
0 The origin of the aperture is its center*
0 $1 length*
0 $2 width*
0 $3 Rotation angle, in degrees counterclockwise*
0 Add horizontal line*
21,1,$1,$2,0,0,$3*%
G04 Aperture macros list end*
%TA.AperFunction,SMDPad,CuDef*%
%ADD10RoundRect,0.250000X-0.475000X0.337500X-0.475000X-0.337500X0.475000X-0.337500X0.475000X0.337500X0*%
%TD*%
%TA.AperFunction,SMDPad,CuDef*%
%ADD11RoundRect,0.200000X-0.750000X-0.200000X0.750000X-0.200000X0.750000X0.200000X-0.750000X0.200000X0*%
%TD*%
%TA.AperFunction,SMDPad,CuDef*%
%ADD12RoundRect,0.250000X-0.350000X-0.450000X0.350000X-0.450000X0.350000X0.450000X-0.350000X0.450000X0*%
%TD*%
%TA.AperFunction,SMDPad,CuDef*%
%ADD13RoundRect,0.250000X0.450000X-0.350000X0.450000X0.350000X-0.450000X0.350000X-0.450000X-0.350000X0*%
%TD*%
%TA.AperFunction,ComponentPad*%
%ADD14RotRect,1.500000X1.500000X225.000000*%
%TD*%
%TA.AperFunction,ComponentPad*%
%ADD15R,1.500000X1.500000*%
%TD*%
%TA.AperFunction,SMDPad,CuDef*%
%ADD16RoundRect,0.250000X0.337500X0.475000X-0.337500X0.475000X-0.337500X-0.475000X0.337500X-0.475000X0*%
%TD*%
%TA.AperFunction,SMDPad,CuDef*%
%ADD17RoundRect,0.100000X-0.225000X-0.100000X0.225000X-0.100000X0.225000X0.100000X-0.225000X0.100000X0*%
%TD*%
%TA.AperFunction,SMDPad,CuDef*%
%ADD18RoundRect,0.250000X-0.565685X-0.070711X-0.070711X-0.565685X0.565685X0.070711X0.070711X0.565685X0*%
%TD*%
%TA.AperFunction,SMDPad,CuDef*%
%ADD19RoundRect,0.250000X-0.337500X-0.475000X0.337500X-0.475000X0.337500X0.475000X-0.337500X0.475000X0*%
%TD*%
%TA.AperFunction,ComponentPad*%
%ADD20R,1.700000X1.700000*%
%TD*%
%TA.AperFunction,ComponentPad*%
%ADD21O,1.700000X1.700000*%
%TD*%
%TA.AperFunction,SMDPad,CuDef*%
%ADD22RoundRect,0.250000X-0.450000X0.350000X-0.450000X-0.350000X0.450000X-0.350000X0.450000X0.350000X0*%
%TD*%
%TA.AperFunction,SMDPad,CuDef*%
%ADD23R,1.000000X1.000000*%
%TD*%
%TA.AperFunction,SMDPad,CuDef*%
%ADD24R,1.600000X1.300000*%
%TD*%
%TA.AperFunction,SMDPad,CuDef*%
%ADD25R,1.600000X2.000000*%
%TD*%
%TA.AperFunction,SMDPad,CuDef*%
%ADD26RoundRect,0.100000X-0.100000X0.225000X-0.100000X-0.225000X0.100000X-0.225000X0.100000X0.225000X0*%
%TD*%
%TA.AperFunction,SMDPad,CuDef*%
%ADD27RoundRect,0.250000X0.350000X0.450000X-0.350000X0.450000X-0.350000X-0.450000X0.350000X-0.450000X0*%
%TD*%
%TA.AperFunction,SMDPad,CuDef*%
%ADD28RoundRect,0.250000X0.574524X0.097227X0.097227X0.574524X-0.574524X-0.097227X-0.097227X-0.574524X0*%
%TD*%
%TA.AperFunction,SMDPad,CuDef*%
%ADD29RoundRect,0.100000X0.229810X-0.088388X-0.088388X0.229810X-0.229810X0.088388X0.088388X-0.229810X0*%
%TD*%
%TA.AperFunction,SMDPad,CuDef*%
%ADD30RoundRect,0.250000X0.097227X-0.574524X0.574524X-0.097227X-0.097227X0.574524X-0.574524X0.097227X0*%
%TD*%
%TA.AperFunction,SMDPad,CuDef*%
%ADD31RotRect,1.300000X1.600000X135.000000*%
%TD*%
%TA.AperFunction,SMDPad,CuDef*%
%ADD32RotRect,2.000000X1.600000X135.000000*%
%TD*%
%TA.AperFunction,ComponentPad*%
%ADD33RotRect,1.700000X1.700000X135.000000*%
%TD*%
%TA.AperFunction,ComponentPad*%
%ADD34HorizOval,1.700000X0.000000X0.000000X0.000000X0.000000X0*%
%TD*%
%TA.AperFunction,ViaPad*%
%ADD35C,0.600000*%
%TD*%
%TA.AperFunction,Conductor*%
%ADD36C,0.200000*%
%TD*%
%TA.AperFunction,Conductor*%
%ADD37C,0.500000*%
%TD*%
%TA.AperFunction,Conductor*%
%ADD38C,0.300000*%
%TD*%
%TA.AperFunction,Conductor*%
%ADD39C,1.000000*%
%TD*%
G04 APERTURE END LIST*
D10*
%TO.P,C9,1*%
%TO.N,/PD_FB0*%
X164330000Y-113215000D03*
%TO.P,C9,2*%
%TO.N,/A0*%
X164330000Y-115290000D03*
%TD*%
D11*
%TO.P,Q1,1,G*%
%TO.N,Net-(Q1-G)*%
X149440000Y-80140000D03*
%TO.P,Q1,2,S*%
%TO.N,/LED_SENS0*%
X149440000Y-82040000D03*
%TO.P,Q1,3,D*%
%TO.N,/LED_NEG0*%
X152440000Y-81090000D03*
%TD*%
D12*
%TO.P,R8,1*%
%TO.N,/LED_SENS1*%
X149760000Y-95420000D03*
%TO.P,R8,2*%
%TO.N,GND*%
X151760000Y-95420000D03*
%TD*%
D13*
%TO.P,R11,1*%
%TO.N,/A0*%
X162100000Y-115240000D03*
%TO.P,R11,2*%
%TO.N,/PD_FB0*%
X162100000Y-113240000D03*
%TD*%
D14*
%TO.P,RG2,1,1*%
%TO.N,/A1*%
X198410000Y-97650000D03*
%TD*%
D15*
%TO.P,LED0,1,1*%
%TO.N,/LED_SENS0*%
X149440000Y-86960000D03*
%TD*%
D16*
%TO.P,C5,1*%
%TO.N,+3.3V*%
X167530000Y-117280000D03*
%TO.P,C5,2*%
%TO.N,GND*%
X165455000Y-117280000D03*
%TD*%
D17*
%TO.P,U3,1,+*%
%TO.N,Net-(U3-+)*%
X139040000Y-78835000D03*
%TO.P,U3,2,V-*%
%TO.N,GND*%
X139040000Y-79485000D03*
%TO.P,U3,3,-*%
%TO.N,/LEDFB0*%
X139040000Y-80135000D03*
%TO.P,U3,4*%
%TO.N,Net-(C7-Pad1)*%
X140940000Y-80135000D03*
%TO.P,U3,5,V+*%
%TO.N,+5V*%
X140940000Y-78835000D03*
%TD*%
%TO.P,U7,1,+*%
%TO.N,Net-(U7-+)*%
X139180000Y-100100000D03*
%TO.P,U7,2,V-*%
%TO.N,GND*%
X139180000Y-100750000D03*
%TO.P,U7,3,-*%
%TO.N,/LEDFB2*%
X139180000Y-101400000D03*
%TO.P,U7,4*%
%TO.N,Net-(C13-Pad1)*%
X141080000Y-101400000D03*
%TO.P,U7,5,V+*%
%TO.N,+5V*%
X141080000Y-100100000D03*
%TD*%
D15*
%TO.P,VREF2,1,1*%
%TO.N,Net-(U7-+)*%
X137010000Y-97610000D03*
%TD*%
%TO.P,VREF1,1,1*%
%TO.N,Net-(U4-+)*%
X136670000Y-87620000D03*
%TD*%
%TO.P,LED1,1,1*%
%TO.N,/LED_SENS1*%
X149770000Y-98130000D03*
%TD*%
D14*
%TO.P,RG3,1,1*%
%TO.N,/PD_FB1*%
X200420000Y-103520000D03*
%TD*%
D18*
%TO.P,R12,1*%
%TO.N,/A1*%
X192945793Y-103496490D03*
%TO.P,R12,2*%
%TO.N,/PD_FB1*%
X194360007Y-104910704D03*
%TD*%
D19*
%TO.P,C14,1*%
%TO.N,+5V*%
X141095000Y-97990000D03*
%TO.P,C14,2*%
%TO.N,GND*%
X143170000Y-97990000D03*
%TD*%
D12*
%TO.P,R16,1*%
%TO.N,/LED_SENS2*%
X149490000Y-105460000D03*
%TO.P,R16,2*%
%TO.N,GND*%
X151490000Y-105460000D03*
%TD*%
D20*
%TO.P,J4,1,Pin_1*%
%TO.N,/VREF0*%
X130310000Y-88990000D03*
D21*
%TO.P,J4,2,Pin_2*%
%TO.N,/VREF1*%
X130310000Y-91530000D03*
%TO.P,J4,3,Pin_3*%
%TO.N,/VREF2*%
X130310000Y-94070000D03*
%TD*%
D15*
%TO.P,VREF0,1,1*%
%TO.N,Net-(U3-+)*%
X136640000Y-76130000D03*
%TD*%
D19*
%TO.P,C2,1*%
%TO.N,+5V*%
X140940000Y-76710000D03*
%TO.P,C2,2*%
%TO.N,GND*%
X143015000Y-76710000D03*
%TD*%
D20*
%TO.P,J3,1,Pin_1*%
%TO.N,+5V*%
X130460000Y-77640000D03*
D21*
%TO.P,J3,2,Pin_2*%
%TO.N,GND*%
X130460000Y-80180000D03*
%TD*%
D22*
%TO.P,R9,1*%
%TO.N,+3.3V*%
X136950000Y-105640000D03*
%TO.P,R9,2*%
%TO.N,/Vbias*%
X136950000Y-107640000D03*
%TD*%
D23*
%TO.P,TP2,1,1*%
%TO.N,+3.3V*%
X130660000Y-103010000D03*
%TD*%
D24*
%TO.P,RV1,1,1*%
%TO.N,/A0*%
X159870000Y-115260000D03*
D25*
%TO.P,RV1,2,2*%
%TO.N,/PD_FB0*%
X156970000Y-114010000D03*
D24*
%TO.P,RV1,3,3*%
%TO.N,unconnected-(RV1-Pad3)*%
X159870000Y-112760000D03*
%TD*%
D11*
%TO.P,Q3,1,G*%
%TO.N,Net-(Q3-G)*%
X149480000Y-101490000D03*
%TO.P,Q3,2,S*%
%TO.N,/LED_SENS2*%
X149480000Y-103390000D03*
%TO.P,Q3,3,D*%
%TO.N,/LED_NEG2*%
X152480000Y-102440000D03*
%TD*%
D26*
%TO.P,U5,1,+*%
%TO.N,/Vbias*%
X167600000Y-113360000D03*
%TO.P,U5,2,V-*%
%TO.N,GND*%
X166950000Y-113360000D03*
%TO.P,U5,3,-*%
%TO.N,/PD_FB0*%
X166300000Y-113360000D03*
%TO.P,U5,4*%
%TO.N,/A0*%
X166300000Y-115260000D03*
%TO.P,U5,5,V+*%
%TO.N,+3.3V*%
X167600000Y-115260000D03*
%TD*%
D27*
%TO.P,R2,1*%
%TO.N,Net-(Q1-G)*%
X146970000Y-80050000D03*
%TO.P,R2,2*%
%TO.N,Net-(C7-Pad1)*%
X144970000Y-80050000D03*
%TD*%
D15*
%TO.P,LED2,1,1*%
%TO.N,/LED_SENS2*%
X149520000Y-107910000D03*
%TD*%
D22*
%TO.P,R13,1*%
%TO.N,Net-(U7-+)*%
X137012500Y-100102500D03*
%TO.P,R13,2*%
%TO.N,/VREF2*%
X137012500Y-102102500D03*
%TD*%
D27*
%TO.P,R14,1*%
%TO.N,Net-(Q3-G)*%
X147060000Y-101380000D03*
%TO.P,R14,2*%
%TO.N,Net-(C13-Pad1)*%
X145060000Y-101380000D03*
%TD*%
%TO.P,R7,1*%
%TO.N,/LED_SENS1*%
X147220000Y-93470000D03*
%TO.P,R7,2*%
%TO.N,/LEDFB1*%
X145220000Y-93470000D03*
%TD*%
%TO.P,R6,1*%
%TO.N,Net-(Q2-G)*%
X147230000Y-91360000D03*
%TO.P,R6,2*%
%TO.N,Net-(C8-Pad1)*%
X145230000Y-91360000D03*
%TD*%
D10*
%TO.P,C8,1*%
%TO.N,Net-(C8-Pad1)*%
X143040000Y-91355000D03*
%TO.P,C8,2*%
%TO.N,/LEDFB1*%
X143040000Y-93430000D03*
%TD*%
%TO.P,C13,1*%
%TO.N,Net-(C13-Pad1)*%
X142900000Y-101390000D03*
%TO.P,C13,2*%
%TO.N,/LEDFB2*%
X142900000Y-103465000D03*
%TD*%
D23*
%TO.P,TP1,1,1*%
%TO.N,+5V*%
X133990000Y-73370000D03*
%TD*%
D20*
%TO.P,J1,1,Pin_1*%
%TO.N,+3.3V*%
X130670000Y-106520000D03*
D21*
%TO.P,J1,2,Pin_2*%
%TO.N,GND*%
X130670000Y-109060000D03*
%TO.P,J1,3,Pin_3*%
%TO.N,/A0*%
X130670000Y-111600000D03*
%TO.P,J1,4,Pin_4*%
%TO.N,/A1*%
X130670000Y-114140000D03*
%TD*%
D10*
%TO.P,C7,1*%
%TO.N,Net-(C7-Pad1)*%
X142840000Y-80145000D03*
%TO.P,C7,2*%
%TO.N,/LEDFB0*%
X142840000Y-82220000D03*
%TD*%
D28*
%TO.P,C12,1*%
%TO.N,/PD_FB1*%
X192776087Y-106522907D03*
%TO.P,C12,2*%
%TO.N,/A1*%
X191308841Y-105055661D03*
%TD*%
D22*
%TO.P,R10,1*%
%TO.N,/Vbias*%
X136950000Y-109750000D03*
%TO.P,R10,2*%
%TO.N,GND*%
X136950000Y-111750000D03*
%TD*%
D23*
%TO.P,Vbias,1,1*%
%TO.N,/Vbias*%
X140790000Y-109730000D03*
%TD*%
D17*
%TO.P,U4,1,+*%
%TO.N,Net-(U4-+)*%
X139170000Y-90020000D03*
%TO.P,U4,2,V-*%
%TO.N,GND*%
X139170000Y-90670000D03*
%TO.P,U4,3,-*%
%TO.N,/LEDFB1*%
X139170000Y-91320000D03*
%TO.P,U4,4*%
%TO.N,Net-(C8-Pad1)*%
X141070000Y-91320000D03*
%TO.P,U4,5,V+*%
%TO.N,+5V*%
X141070000Y-90020000D03*
%TD*%
D29*
%TO.P,U6,1,+*%
%TO.N,/Vbias*%
X190280000Y-108920000D03*
%TO.P,U6,2,V-*%
%TO.N,GND*%
X190739619Y-108460380D03*
%TO.P,U6,3,-*%
%TO.N,/PD_FB1*%
X191199239Y-108000761D03*
%TO.P,U6,4*%
%TO.N,/A1*%
X189855736Y-106657258D03*
%TO.P,U6,5,V+*%
%TO.N,+3.3V*%
X188936497Y-107576497D03*
%TD*%
D12*
%TO.P,R3,1*%
%TO.N,/LED_SENS0*%
X149420000Y-84330000D03*
%TO.P,R3,2*%
%TO.N,GND*%
X151420000Y-84330000D03*
%TD*%
D30*
%TO.P,C6,1*%
%TO.N,+3.3V*%
X187500000Y-106100000D03*
%TO.P,C6,2*%
%TO.N,GND*%
X188967246Y-104632754D03*
%TD*%
D27*
%TO.P,R4,1*%
%TO.N,/LED_SENS0*%
X146940000Y-82240000D03*
%TO.P,R4,2*%
%TO.N,/LEDFB0*%
X144940000Y-82240000D03*
%TD*%
%TO.P,R15,1*%
%TO.N,/LED_SENS2*%
X147050000Y-103490000D03*
%TO.P,R15,2*%
%TO.N,/LEDFB2*%
X145050000Y-103490000D03*
%TD*%
D31*
%TO.P,RV2,1,1*%
%TO.N,/A1*%
X194586281Y-101672155D03*
D32*
%TO.P,RV2,2,2*%
%TO.N,/PD_FB1*%
X197520774Y-100505429D03*
D31*
%TO.P,RV2,3,3*%
%TO.N,unconnected-(RV2-Pad3)*%
X196354048Y-103439922D03*
%TD*%
D15*
%TO.P,RG0,1,1*%
%TO.N,/A0*%
X146720000Y-113210000D03*
%TD*%
D11*
%TO.P,Q2,1,G*%
%TO.N,Net-(Q2-G)*%
X149777500Y-91450000D03*
%TO.P,Q2,2,S*%
%TO.N,/LED_SENS1*%
X149777500Y-93350000D03*
%TO.P,Q2,3,D*%
%TO.N,/LED_NEG1*%
X152777500Y-92400000D03*
%TD*%
D15*
%TO.P,RG1,1,1*%
%TO.N,/PD_FB0*%
X154500000Y-111570000D03*
%TD*%
D22*
%TO.P,R1,1*%
%TO.N,Net-(U3-+)*%
X136890000Y-78840000D03*
%TO.P,R1,2*%
%TO.N,/VREF0*%
X136890000Y-80840000D03*
%TD*%
%TO.P,R5,1*%
%TO.N,Net-(U4-+)*%
X136960000Y-90050000D03*
%TO.P,R5,2*%
%TO.N,/VREF1*%
X136960000Y-92050000D03*
%TD*%
D19*
%TO.P,C3,1*%
%TO.N,+5V*%
X141070000Y-87790000D03*
%TO.P,C3,2*%
%TO.N,GND*%
X143145000Y-87790000D03*
%TD*%
D20*
%TO.P,J7,1,Pin_1*%
%TO.N,/PD_FB0*%
X170480000Y-114350000D03*
D21*
%TO.P,J7,2,Pin_2*%
%TO.N,GND*%
X173020000Y-114350000D03*
%TD*%
D33*
%TO.P,J2,1,Pin_1*%
%TO.N,/PD_FB1*%
X187686051Y-110283949D03*
D34*
%TO.P,J2,2,Pin_2*%
%TO.N,GND*%
X185890000Y-112080000D03*
%TD*%
D20*
%TO.P,J5,1,Pin_1*%
%TO.N,/LED_NEG0*%
X167770000Y-76280000D03*
D21*
%TO.P,J5,2,Pin_2*%
%TO.N,+5V*%
X170310000Y-76280000D03*
%TO.P,J5,3,Pin_3*%
%TO.N,/LED_NEG1*%
X172850000Y-76280000D03*
%TO.P,J5,4,Pin_4*%
%TO.N,/LED_NEG2*%
X175390000Y-76280000D03*
%TD*%
D20*
%TO.P,J6,1,Pin_1*%
%TO.N,/LED_NEG0*%
X189830000Y-99630000D03*
D21*
%TO.P,J6,2,Pin_2*%
%TO.N,+5V*%
X189830000Y-97090000D03*
%TO.P,J6,3,Pin_3*%
%TO.N,/LED_NEG1*%
X189830000Y-94550000D03*
%TO.P,J6,4,Pin_4*%
%TO.N,/LED_NEG2*%
X189830000Y-92010000D03*
%TD*%
D35*
%TO.N,GND*%
X151400000Y-85560000D03*
X144140000Y-76740000D03*
X166870000Y-112320000D03*
X191460000Y-109170000D03*
X152620000Y-104240000D03*
X135740000Y-111740000D03*
X144280000Y-98020000D03*
X138130000Y-79490000D03*
X144250000Y-87810000D03*
X189820000Y-103790000D03*
X151720000Y-96730000D03*
X138220000Y-90680000D03*
X164150000Y-117200000D03*
X138270000Y-100770000D03*
%TO.N,+5V*%
X140050000Y-96930000D03*
X141850000Y-78300000D03*
X142020000Y-99500000D03*
X141810000Y-89300000D03*
X139980000Y-75760000D03*
X139800000Y-87430000D03*
%TO.N,+3.3V*%
X186580000Y-107010000D03*
X168790000Y-117250000D03*
%TD*%
D36*
%TO.N,GND*%
X190739619Y-108460380D02*
X190509810Y-108230571D01*
X166635000Y-118460000D02*
X165455000Y-117280000D01*
X190750380Y-108460380D02*
X191460000Y-109170000D01*
D37*
X151420000Y-84330000D02*
X151420000Y-85540000D01*
D38*
X139040000Y-79485000D02*
X138135000Y-79485000D01*
D36*
X190739619Y-108460380D02*
X190750380Y-108460380D01*
D38*
X143015000Y-78302044D02*
X143015000Y-76710000D01*
X143145000Y-88909168D02*
X143145000Y-87790000D01*
D36*
X189410000Y-108820000D02*
X189410000Y-110740000D01*
D38*
X138230000Y-90670000D02*
X138220000Y-90680000D01*
D36*
X166950000Y-113360000D02*
X166950000Y-112400000D01*
D38*
X139170000Y-90670000D02*
X141384168Y-90670000D01*
D37*
X143165000Y-87810000D02*
X143145000Y-87790000D01*
D38*
X138135000Y-79485000D02*
X138130000Y-79490000D01*
D36*
X168180000Y-114090000D02*
X169250000Y-113020000D01*
D37*
X136950000Y-111750000D02*
X135750000Y-111750000D01*
D38*
X141780000Y-100750000D02*
X143170000Y-99360000D01*
D37*
X151760000Y-95420000D02*
X151760000Y-96690000D01*
X144250000Y-87810000D02*
X143165000Y-87810000D01*
D36*
X189410000Y-110740000D02*
X188070000Y-112080000D01*
D38*
X139180000Y-100750000D02*
X141780000Y-100750000D01*
X138290000Y-100750000D02*
X138270000Y-100770000D01*
D36*
X173020000Y-114958529D02*
X169518529Y-118460000D01*
D37*
X143200000Y-98020000D02*
X143170000Y-97990000D01*
X135750000Y-111750000D02*
X135740000Y-111740000D01*
D36*
X165455000Y-117280000D02*
X165420000Y-117280000D01*
X188734492Y-104400000D02*
X188967246Y-104632754D01*
X166950000Y-113750000D02*
X167290000Y-114090000D01*
D37*
X151490000Y-105370000D02*
X152620000Y-104240000D01*
D36*
X188967246Y-104632754D02*
X188977246Y-104632754D01*
X169518529Y-118460000D02*
X166635000Y-118460000D01*
X173020000Y-114350000D02*
X173020000Y-114958529D01*
D37*
X151760000Y-96690000D02*
X151720000Y-96730000D01*
X144140000Y-76740000D02*
X143045000Y-76740000D01*
D38*
X139040000Y-79485000D02*
X141832044Y-79485000D01*
D37*
X164230000Y-117280000D02*
X165455000Y-117280000D01*
D38*
X141832044Y-79485000D02*
X143015000Y-78302044D01*
D36*
X189999429Y-108230571D02*
X189410000Y-108820000D01*
D37*
X189810000Y-103790000D02*
X188967246Y-104632754D01*
D36*
X187350000Y-104400000D02*
X188734492Y-104400000D01*
X166950000Y-113360000D02*
X166950000Y-113750000D01*
D38*
X141384168Y-90670000D02*
X143145000Y-88909168D01*
D36*
X169250000Y-113020000D02*
X171690000Y-113020000D01*
X190509810Y-108230571D02*
X189999429Y-108230571D01*
D37*
X151420000Y-85540000D02*
X151400000Y-85560000D01*
X144280000Y-98020000D02*
X143200000Y-98020000D01*
X151490000Y-105460000D02*
X151490000Y-105370000D01*
X143045000Y-76740000D02*
X143015000Y-76710000D01*
D36*
X167290000Y-114090000D02*
X168180000Y-114090000D01*
D38*
X143170000Y-99360000D02*
X143170000Y-97990000D01*
D36*
X185890000Y-112080000D02*
X185890000Y-105860000D01*
X185890000Y-105860000D02*
X187350000Y-104400000D01*
X171690000Y-113020000D02*
X173020000Y-114350000D01*
X188070000Y-112080000D02*
X185890000Y-112080000D01*
D37*
X189820000Y-103790000D02*
X189810000Y-103790000D01*
D38*
X139170000Y-90670000D02*
X138230000Y-90670000D01*
D36*
X166950000Y-112400000D02*
X166870000Y-112320000D01*
D37*
X164150000Y-117200000D02*
X164230000Y-117280000D01*
D38*
X139180000Y-100750000D02*
X138290000Y-100750000D01*
%TO.N,+5V*%
X141080000Y-100100000D02*
X141080000Y-98005000D01*
D37*
X140050000Y-96945000D02*
X141095000Y-97990000D01*
D38*
X140940000Y-78835000D02*
X140940000Y-76710000D01*
D37*
X139800000Y-87430000D02*
X140710000Y-87430000D01*
X140710000Y-87430000D02*
X141070000Y-87790000D01*
D38*
X140940000Y-78835000D02*
X141315000Y-78835000D01*
X141095000Y-97990000D02*
X141095000Y-97975000D01*
X141420000Y-100100000D02*
X142020000Y-99500000D01*
D37*
X140050000Y-96930000D02*
X140050000Y-96945000D01*
D39*
X130460000Y-77640000D02*
X130460000Y-76900000D01*
D38*
X141090000Y-90020000D02*
X141070000Y-90020000D01*
D37*
X139990000Y-75760000D02*
X140940000Y-76710000D01*
D38*
X141080000Y-100100000D02*
X141420000Y-100100000D01*
D37*
X139980000Y-75760000D02*
X139990000Y-75760000D01*
D38*
X141080000Y-98005000D02*
X141095000Y-97990000D01*
X141070000Y-90020000D02*
X141070000Y-87790000D01*
X141315000Y-78835000D02*
X141850000Y-78300000D01*
D39*
X130460000Y-76900000D02*
X133990000Y-73370000D01*
D38*
X141810000Y-89300000D02*
X141090000Y-90020000D01*
D37*
%TO.N,+3.3V*%
X167600000Y-117210000D02*
X167530000Y-117280000D01*
D39*
X130670000Y-103020000D02*
X130660000Y-103010000D01*
X130670000Y-106520000D02*
X130670000Y-103020000D01*
D38*
X188936497Y-107536497D02*
X187500000Y-106100000D01*
D37*
X167600000Y-115260000D02*
X167600000Y-117210000D01*
X167560000Y-117250000D02*
X167530000Y-117280000D01*
D39*
X130670000Y-106520000D02*
X131550000Y-105640000D01*
D37*
X186590000Y-107010000D02*
X187500000Y-106100000D01*
X168790000Y-117250000D02*
X167560000Y-117250000D01*
D39*
X131550000Y-105640000D02*
X136950000Y-105640000D01*
D37*
X186580000Y-107010000D02*
X186590000Y-107010000D01*
D38*
X188936497Y-107576497D02*
X188936497Y-107536497D01*
X187500000Y-106100000D02*
X187490000Y-106100000D01*
D37*
%TO.N,/LEDFB0*%
X144940000Y-82240000D02*
X142860000Y-82240000D01*
D38*
X139040000Y-80135000D02*
X141125000Y-82220000D01*
X141125000Y-82220000D02*
X142840000Y-82220000D01*
D37*
X142860000Y-82240000D02*
X142840000Y-82220000D01*
%TO.N,Net-(C7-Pad1)*%
X144970000Y-80050000D02*
X142935000Y-80050000D01*
D38*
X140940000Y-80135000D02*
X142830000Y-80135000D01*
X142830000Y-80135000D02*
X142840000Y-80145000D01*
D37*
X142935000Y-80050000D02*
X142840000Y-80145000D01*
%TO.N,Net-(C8-Pad1)*%
X145230000Y-91360000D02*
X143045000Y-91360000D01*
D38*
X141070000Y-91320000D02*
X143005000Y-91320000D01*
X143005000Y-91320000D02*
X143040000Y-91355000D01*
D37*
X143045000Y-91360000D02*
X143040000Y-91355000D01*
%TO.N,/LEDFB1*%
X143080000Y-93470000D02*
X143040000Y-93430000D01*
X145220000Y-93470000D02*
X143080000Y-93470000D01*
D38*
X141280000Y-93430000D02*
X143040000Y-93430000D01*
X139170000Y-91320000D02*
X141280000Y-93430000D01*
%TO.N,/A0*%
X153400000Y-113260000D02*
X132330000Y-113260000D01*
X155830000Y-115690000D02*
X153400000Y-113260000D01*
X132330000Y-113260000D02*
X130670000Y-111600000D01*
X166300000Y-115260000D02*
X159870000Y-115260000D01*
X162440000Y-115580000D02*
X162100000Y-115240000D01*
X159440000Y-115690000D02*
X155830000Y-115690000D01*
X159870000Y-115260000D02*
X159440000Y-115690000D01*
D36*
%TO.N,/PD_FB0*%
X170340000Y-114490000D02*
X170480000Y-114350000D01*
X162100000Y-113240000D02*
X166180000Y-113240000D01*
X162220000Y-113360000D02*
X162100000Y-113240000D01*
D38*
X156970000Y-114010000D02*
X161330000Y-114010000D01*
X161330000Y-114010000D02*
X162100000Y-113240000D01*
D36*
X166770000Y-114490000D02*
X170340000Y-114490000D01*
D38*
X156940000Y-114010000D02*
X154500000Y-111570000D01*
D36*
X166300000Y-113360000D02*
X166300000Y-114020000D01*
X166180000Y-113240000D02*
X166300000Y-113360000D01*
D38*
X156970000Y-114010000D02*
X156940000Y-114010000D01*
D36*
X166300000Y-114020000D02*
X166770000Y-114490000D01*
D38*
%TO.N,/PD_FB1*%
X194360007Y-104910704D02*
X194360007Y-104938987D01*
X192776087Y-106522907D02*
X192677093Y-106522907D01*
D36*
X190034314Y-107630000D02*
X190828478Y-107630000D01*
X187686051Y-110283949D02*
X187686051Y-109978263D01*
D38*
X197520774Y-100505429D02*
X200420000Y-103404655D01*
X194360007Y-104910704D02*
X194360007Y-103666196D01*
X194360007Y-103666196D02*
X197520774Y-100505429D01*
X200420000Y-103404655D02*
X200420000Y-103520000D01*
X194360007Y-104938987D02*
X192776087Y-106522907D01*
D36*
X190828478Y-107630000D02*
X191199239Y-108000761D01*
D38*
X192677093Y-106522907D02*
X191199239Y-108000761D01*
D36*
X187686051Y-109978263D02*
X190034314Y-107630000D01*
D38*
%TO.N,/A1*%
X192945793Y-103496490D02*
X192945793Y-103312643D01*
X189855736Y-106508766D02*
X191308841Y-105055661D01*
X195202894Y-111217106D02*
X192522894Y-111217106D01*
X202460000Y-101700000D02*
X202460000Y-103960000D01*
X191308841Y-105055661D02*
X191386622Y-105055661D01*
X198410000Y-97650000D02*
X202460000Y-101700000D01*
X202460000Y-103960000D02*
X195202894Y-111217106D01*
X194586281Y-101473719D02*
X198410000Y-97650000D01*
X184800000Y-118940000D02*
X135470000Y-118940000D01*
X192945793Y-103312643D02*
X194586281Y-101672155D01*
X189855736Y-106657258D02*
X189855736Y-106508766D01*
X194586281Y-101672155D02*
X194586281Y-101473719D01*
X192522894Y-111217106D02*
X184800000Y-118940000D01*
X135470000Y-118940000D02*
X130670000Y-114140000D01*
X191386622Y-105055661D02*
X192945793Y-103496490D01*
%TO.N,/VREF0*%
X130310000Y-86050000D02*
X135520000Y-80840000D01*
X130310000Y-88990000D02*
X130310000Y-86050000D01*
X135520000Y-80840000D02*
X136890000Y-80840000D01*
%TO.N,/VREF1*%
X136440000Y-91530000D02*
X136960000Y-92050000D01*
X130310000Y-91530000D02*
X136440000Y-91530000D01*
D39*
%TO.N,/LED_NEG0*%
X191520000Y-99630000D02*
X189830000Y-99630000D01*
X154570000Y-81090000D02*
X159380000Y-76280000D01*
X171480000Y-72570000D02*
X181610000Y-72570000D01*
X181610000Y-72570000D02*
X194910000Y-85870000D01*
X152440000Y-81090000D02*
X154570000Y-81090000D01*
X194910000Y-85870000D02*
X194910000Y-96240000D01*
X159380000Y-76280000D02*
X167770000Y-76280000D01*
X194910000Y-96240000D02*
X191520000Y-99630000D01*
X167770000Y-76280000D02*
X171480000Y-72570000D01*
%TO.N,/LED_NEG1*%
X192430000Y-93260000D02*
X191140000Y-94550000D01*
X170720000Y-78410000D02*
X172850000Y-76280000D01*
X174890000Y-74240000D02*
X178880000Y-74240000D01*
X153400000Y-86950000D02*
X161940000Y-78410000D01*
X172850000Y-76280000D02*
X174890000Y-74240000D01*
X153400000Y-92280000D02*
X153400000Y-86950000D01*
X152777500Y-92400000D02*
X153280000Y-92400000D01*
X191140000Y-94550000D02*
X189830000Y-94550000D01*
X178880000Y-74240000D02*
X192430000Y-87790000D01*
X161940000Y-78410000D02*
X170720000Y-78410000D01*
X153280000Y-92400000D02*
X153400000Y-92280000D01*
X192430000Y-87790000D02*
X192430000Y-93260000D01*
D37*
%TO.N,Net-(Q1-G)*%
X149440000Y-80140000D02*
X147060000Y-80140000D01*
X147060000Y-80140000D02*
X146970000Y-80050000D01*
D39*
%TO.N,/LED_SENS0*%
X149420000Y-84330000D02*
X149420000Y-86940000D01*
X146940000Y-82240000D02*
X149240000Y-82240000D01*
X149440000Y-82040000D02*
X149440000Y-84310000D01*
X149440000Y-84310000D02*
X149420000Y-84330000D01*
X149240000Y-82240000D02*
X149440000Y-82040000D01*
X149420000Y-86940000D02*
X149440000Y-86960000D01*
D37*
%TO.N,Net-(Q2-G)*%
X147320000Y-91450000D02*
X147230000Y-91360000D01*
X149777500Y-91450000D02*
X147320000Y-91450000D01*
D39*
%TO.N,/LED_SENS1*%
X149760000Y-98120000D02*
X149770000Y-98130000D01*
X149777500Y-95402500D02*
X149760000Y-95420000D01*
X147220000Y-93470000D02*
X149657500Y-93470000D01*
X149760000Y-95420000D02*
X149760000Y-98120000D01*
X149657500Y-93470000D02*
X149777500Y-93350000D01*
X149777500Y-93350000D02*
X149777500Y-95402500D01*
D38*
%TO.N,Net-(U3-+)*%
X136890000Y-76380000D02*
X136640000Y-76130000D01*
X136895000Y-78835000D02*
X136890000Y-78840000D01*
X136890000Y-78840000D02*
X136890000Y-76380000D01*
X139040000Y-78835000D02*
X136895000Y-78835000D01*
%TO.N,Net-(U4-+)*%
X136990000Y-90020000D02*
X136960000Y-90050000D01*
X136960000Y-90050000D02*
X136960000Y-87910000D01*
X136960000Y-87910000D02*
X136670000Y-87620000D01*
X139170000Y-90020000D02*
X136990000Y-90020000D01*
%TO.N,/Vbias*%
X190680000Y-109320000D02*
X190280000Y-108920000D01*
X165550000Y-109850000D02*
X166260000Y-110560000D01*
X187590000Y-114100000D02*
X190680000Y-111010000D01*
X140790000Y-109730000D02*
X140910000Y-109850000D01*
X166260000Y-110560000D02*
X167600000Y-111900000D01*
X140910000Y-109850000D02*
X165550000Y-109850000D01*
X176310000Y-114100000D02*
X187590000Y-114100000D01*
D37*
X136950000Y-107640000D02*
X136950000Y-109750000D01*
D38*
X190680000Y-111010000D02*
X190680000Y-109320000D01*
X167090000Y-111390000D02*
X173600000Y-111390000D01*
X140770000Y-109750000D02*
X140790000Y-109730000D01*
X136950000Y-109750000D02*
X140770000Y-109750000D01*
X173600000Y-111390000D02*
X176310000Y-114100000D01*
X166260000Y-110560000D02*
X167090000Y-111390000D01*
X167600000Y-111900000D02*
X167600000Y-113360000D01*
D37*
%TO.N,Net-(C13-Pad1)*%
X142910000Y-101380000D02*
X142900000Y-101390000D01*
X145060000Y-101380000D02*
X142910000Y-101380000D01*
D38*
X142890000Y-101400000D02*
X142900000Y-101390000D01*
X141080000Y-101400000D02*
X142890000Y-101400000D01*
D37*
%TO.N,/LEDFB2*%
X142925000Y-103490000D02*
X142900000Y-103465000D01*
D38*
X141245000Y-103465000D02*
X142900000Y-103465000D01*
D37*
X145050000Y-103490000D02*
X142925000Y-103490000D01*
D38*
X139180000Y-101400000D02*
X141245000Y-103465000D01*
D39*
%TO.N,/LED_NEG2*%
X164620000Y-80120000D02*
X174380000Y-80120000D01*
X180080000Y-80120000D02*
X189830000Y-89870000D01*
X189830000Y-89870000D02*
X189830000Y-92010000D01*
X155770000Y-100960000D02*
X155770000Y-88970000D01*
X155770000Y-88970000D02*
X164620000Y-80120000D01*
X154290000Y-102440000D02*
X155770000Y-100960000D01*
X174380000Y-80120000D02*
X180080000Y-80120000D01*
X152480000Y-102440000D02*
X154290000Y-102440000D01*
X175390000Y-76280000D02*
X175390000Y-79110000D01*
X175390000Y-79110000D02*
X174380000Y-80120000D01*
%TO.N,/LED_SENS2*%
X149480000Y-103390000D02*
X149480000Y-105450000D01*
X149490000Y-107880000D02*
X149520000Y-107910000D01*
X149380000Y-103490000D02*
X149480000Y-103390000D01*
X149490000Y-105460000D02*
X149490000Y-107880000D01*
X149480000Y-105450000D02*
X149490000Y-105460000D01*
X147050000Y-103490000D02*
X149380000Y-103490000D01*
D37*
%TO.N,Net-(Q3-G)*%
X147170000Y-101490000D02*
X147060000Y-101380000D01*
X149480000Y-101490000D02*
X147170000Y-101490000D01*
D38*
%TO.N,/VREF2*%
X130310000Y-96670000D02*
X135742500Y-102102500D01*
X130310000Y-94070000D02*
X130310000Y-96670000D01*
X135742500Y-102102500D02*
X137012500Y-102102500D01*
%TO.N,Net-(U7-+)*%
X139180000Y-100100000D02*
X137015000Y-100100000D01*
X137012500Y-97612500D02*
X137010000Y-97610000D01*
X137015000Y-100100000D02*
X137012500Y-100102500D01*
X137012500Y-100102500D02*
X137012500Y-97612500D01*
%TD*%
%TA.AperFunction,Conductor*%
%TO.N,GND*%
G36*
X132163090Y-113890043D02*
G01*
X132217977Y-113900961D01*
X132265930Y-113910500D01*
X132265931Y-113910500D01*
X132265932Y-113910500D01*
X132394069Y-113910500D01*
X145347649Y-113910500D01*
X145414688Y-113930185D01*
X145460443Y-113982989D01*
X145470939Y-114021248D01*
X145475908Y-114067483D01*
X145526202Y-114202328D01*
X145526206Y-114202335D01*
X145612452Y-114317544D01*
X145612455Y-114317547D01*
X145727664Y-114403793D01*
X145727671Y-114403797D01*
X145862517Y-114454091D01*
X145862516Y-114454091D01*
X145869444Y-114454835D01*
X145922127Y-114460500D01*
X147517872Y-114460499D01*
X147577483Y-114454091D01*
X147712331Y-114403796D01*
X147827546Y-114317546D01*
X147913796Y-114202331D01*
X147964091Y-114067483D01*
X147969062Y-114021242D01*
X147995799Y-113956694D01*
X148053191Y-113916846D01*
X148092351Y-113910500D01*
X150299601Y-113910500D01*
X150366640Y-113930185D01*
X150412395Y-113982989D01*
X150422339Y-114052147D01*
X150393314Y-114115703D01*
X150373911Y-114133767D01*
X150266525Y-114214154D01*
X150266507Y-114214170D01*
X150064170Y-114416507D01*
X150064160Y-114416519D01*
X149892659Y-114645617D01*
X149892658Y-114645618D01*
X149755514Y-114896778D01*
X149755512Y-114896782D01*
X149655502Y-115164921D01*
X149594674Y-115444544D01*
X149594673Y-115444551D01*
X149574257Y-115729998D01*
X149574257Y-115730001D01*
X149594673Y-116015448D01*
X149594674Y-116015455D01*
X149655502Y-116295078D01*
X149755512Y-116563217D01*
X149755514Y-116563221D01*
X149892658Y-116814381D01*
X149892659Y-116814382D01*
X149892662Y-116814387D01*
X150064161Y-117043482D01*
X150064165Y-117043486D01*
X150064170Y-117043492D01*
X150266507Y-117245829D01*
X150266513Y-117245834D01*
X150266518Y-117245839D01*
X150495613Y-117417338D01*
X150495617Y-117417340D01*
X150495618Y-117417341D01*
X150746778Y-117554485D01*
X150746782Y-117554487D01*
X150746784Y-117554488D01*
X151014917Y-117654496D01*
X151014920Y-117654496D01*
X151014921Y-117654497D01*
X151225994Y-117700412D01*
X151294553Y-117715327D01*
X151558010Y-117734170D01*
X151579999Y-117735743D01*
X151580000Y-117735743D01*
X151580001Y-117735743D01*
X151600417Y-117734282D01*
X151865447Y-117715327D01*
X152145083Y-117654496D01*
X152413216Y-117554488D01*
X152664387Y-117417338D01*
X152893482Y-117245839D01*
X153095839Y-117043482D01*
X153267338Y-116814387D01*
X153404488Y-116563216D01*
X153504496Y-116295083D01*
X153565327Y-116015447D01*
X153585743Y-115730000D01*
X153584830Y-115717241D01*
X153580302Y-115653922D01*
X153565327Y-115444553D01*
X153522542Y-115247872D01*
X153504497Y-115164921D01*
X153503776Y-115162989D01*
X153404488Y-114896784D01*
X153374606Y-114842060D01*
X153267341Y-114645618D01*
X153267340Y-114645617D01*
X153267338Y-114645613D01*
X153095839Y-114416518D01*
X153095834Y-114416513D01*
X153095829Y-114416507D01*
X152893492Y-114214170D01*
X152893474Y-114214154D01*
X152786089Y-114133767D01*
X152744217Y-114077833D01*
X152739233Y-114008142D01*
X152772718Y-113946819D01*
X152834041Y-113913334D01*
X152860399Y-113910500D01*
X153079192Y-113910500D01*
X153146231Y-113930185D01*
X153166873Y-113946819D01*
X155415325Y-116195272D01*
X155415326Y-116195273D01*
X155415329Y-116195275D01*
X155415331Y-116195277D01*
X155521873Y-116266465D01*
X155640256Y-116315501D01*
X155640260Y-116315501D01*
X155640261Y-116315502D01*
X155765928Y-116340500D01*
X155765931Y-116340500D01*
X158771670Y-116340500D01*
X158818685Y-116352501D01*
X158819359Y-116350697D01*
X158962517Y-116404091D01*
X158962516Y-116404091D01*
X158969444Y-116404835D01*
X159022127Y-116410500D01*
X160717872Y-116410499D01*
X160777483Y-116404091D01*
X160912331Y-116353796D01*
X161027546Y-116267546D01*
X161051661Y-116235331D01*
X161107594Y-116193460D01*
X161177286Y-116188476D01*
X161216024Y-116204103D01*
X161330659Y-116274810D01*
X161330660Y-116274810D01*
X161330666Y-116274814D01*
X161497203Y-116329999D01*
X161599991Y-116340500D01*
X162600008Y-116340499D01*
X162600016Y-116340498D01*
X162600019Y-116340498D01*
X162656302Y-116334748D01*
X162702797Y-116329999D01*
X162869334Y-116274814D01*
X163018656Y-116182712D01*
X163096069Y-116105299D01*
X163157392Y-116071814D01*
X163227084Y-116076798D01*
X163271431Y-116105299D01*
X163386344Y-116220212D01*
X163535666Y-116312314D01*
X163702203Y-116367499D01*
X163804991Y-116378000D01*
X164297170Y-116377999D01*
X164364208Y-116397683D01*
X164409963Y-116450487D01*
X164419907Y-116519646D01*
X164414875Y-116541002D01*
X164377995Y-116652299D01*
X164377993Y-116652309D01*
X164367500Y-116755013D01*
X164367500Y-117030000D01*
X165581000Y-117030000D01*
X165648039Y-117049685D01*
X165693794Y-117102489D01*
X165705000Y-117154000D01*
X165705000Y-117406000D01*
X165685315Y-117473039D01*
X165632511Y-117518794D01*
X165581000Y-117530000D01*
X164367501Y-117530000D01*
X164367501Y-117804986D01*
X164377994Y-117907697D01*
X164433141Y-118074119D01*
X164433146Y-118074130D01*
X164449352Y-118100403D01*
X164467793Y-118167795D01*
X164446871Y-118234459D01*
X164393229Y-118279228D01*
X164343814Y-118289500D01*
X135790808Y-118289500D01*
X135723769Y-118269815D01*
X135703127Y-118253181D01*
X132017709Y-114567763D01*
X131984224Y-114506440D01*
X131985615Y-114447989D01*
X131989650Y-114432930D01*
X132005063Y-114375408D01*
X132025659Y-114140000D01*
X132015376Y-114022468D01*
X132029142Y-113953969D01*
X132077757Y-113903786D01*
X132145786Y-113887852D01*
X132163090Y-113890043D01*
G37*
%TD.AperFunction*%
%TA.AperFunction,Conductor*%
G36*
X173346231Y-112060185D02*
G01*
X173366873Y-112076819D01*
X175895325Y-114605272D01*
X175895332Y-114605278D01*
X175982521Y-114663535D01*
X175995451Y-114672173D01*
X176001873Y-114676465D01*
X176120256Y-114725501D01*
X176120260Y-114725501D01*
X176120261Y-114725502D01*
X176245928Y-114750500D01*
X176245931Y-114750500D01*
X187654070Y-114750500D01*
X187771801Y-114727081D01*
X187841392Y-114733308D01*
X187896570Y-114776170D01*
X187919815Y-114842060D01*
X187903748Y-114910057D01*
X187883674Y-114936379D01*
X184566873Y-118253181D01*
X184505550Y-118286666D01*
X184479192Y-118289500D01*
X168921797Y-118289500D01*
X168854758Y-118269815D01*
X168809003Y-118217011D01*
X168799059Y-118147853D01*
X168828084Y-118084297D01*
X168886862Y-118046523D01*
X168907914Y-118042280D01*
X168969249Y-118035369D01*
X168969252Y-118035368D01*
X168969255Y-118035368D01*
X169139522Y-117975789D01*
X169292262Y-117879816D01*
X169419816Y-117752262D01*
X169515789Y-117599522D01*
X169575368Y-117429255D01*
X169575369Y-117429249D01*
X169595565Y-117250003D01*
X169595565Y-117249996D01*
X169575369Y-117070750D01*
X169575368Y-117070745D01*
X169515788Y-116900476D01*
X169419815Y-116747737D01*
X169292262Y-116620184D01*
X169139523Y-116524211D01*
X168969254Y-116464631D01*
X168969249Y-116464630D01*
X168790004Y-116444435D01*
X168789996Y-116444435D01*
X168622119Y-116463349D01*
X168553297Y-116451294D01*
X168502698Y-116405226D01*
X168460212Y-116336344D01*
X168386819Y-116262951D01*
X168353334Y-116201628D01*
X168350500Y-116175270D01*
X168350500Y-115214500D01*
X168370185Y-115147461D01*
X168422989Y-115101706D01*
X168474500Y-115090500D01*
X169005501Y-115090500D01*
X169072540Y-115110185D01*
X169118295Y-115162989D01*
X169129501Y-115214500D01*
X169129501Y-115247876D01*
X169135908Y-115307483D01*
X169186202Y-115442328D01*
X169186206Y-115442335D01*
X169272452Y-115557544D01*
X169272455Y-115557547D01*
X169387664Y-115643793D01*
X169387671Y-115643797D01*
X169522517Y-115694091D01*
X169522516Y-115694091D01*
X169529444Y-115694835D01*
X169582127Y-115700500D01*
X171377872Y-115700499D01*
X171437483Y-115694091D01*
X171572331Y-115643796D01*
X171687546Y-115557546D01*
X171773796Y-115442331D01*
X171823002Y-115310401D01*
X171864872Y-115254468D01*
X171930337Y-115230050D01*
X171998610Y-115244901D01*
X172026865Y-115266053D01*
X172148917Y-115388105D01*
X172342421Y-115523600D01*
X172556507Y-115623429D01*
X172556516Y-115623433D01*
X172770000Y-115680634D01*
X172770000Y-114783012D01*
X172827007Y-114815925D01*
X172954174Y-114850000D01*
X173085826Y-114850000D01*
X173212993Y-114815925D01*
X173270000Y-114783012D01*
X173270000Y-115680633D01*
X173483483Y-115623433D01*
X173483492Y-115623429D01*
X173697578Y-115523600D01*
X173891082Y-115388105D01*
X174058105Y-115221082D01*
X174193600Y-115027578D01*
X174293429Y-114813492D01*
X174293432Y-114813486D01*
X174350636Y-114600000D01*
X173453012Y-114600000D01*
X173485925Y-114542993D01*
X173520000Y-114415826D01*
X173520000Y-114284174D01*
X173485925Y-114157007D01*
X173453012Y-114100000D01*
X174350636Y-114100000D01*
X174350635Y-114099999D01*
X174293432Y-113886513D01*
X174293429Y-113886507D01*
X174193600Y-113672422D01*
X174193599Y-113672420D01*
X174058113Y-113478926D01*
X174058108Y-113478920D01*
X173891082Y-113311894D01*
X173697578Y-113176399D01*
X173483492Y-113076570D01*
X173483486Y-113076567D01*
X173270000Y-113019364D01*
X173270000Y-113916988D01*
X173212993Y-113884075D01*
X173085826Y-113850000D01*
X172954174Y-113850000D01*
X172827007Y-113884075D01*
X172770000Y-113916988D01*
X172770000Y-113019364D01*
X172769999Y-113019364D01*
X172556513Y-113076567D01*
X172556507Y-113076570D01*
X172342422Y-113176399D01*
X172342420Y-113176400D01*
X172148926Y-113311886D01*
X172026865Y-113433947D01*
X171965542Y-113467431D01*
X171895850Y-113462447D01*
X171839917Y-113420575D01*
X171823002Y-113389598D01*
X171818307Y-113377011D01*
X171773796Y-113257669D01*
X171773795Y-113257668D01*
X171773793Y-113257664D01*
X171687547Y-113142455D01*
X171687544Y-113142452D01*
X171572335Y-113056206D01*
X171572328Y-113056202D01*
X171437482Y-113005908D01*
X171437483Y-113005908D01*
X171377883Y-112999501D01*
X171377881Y-112999500D01*
X171377873Y-112999500D01*
X171377864Y-112999500D01*
X169582129Y-112999500D01*
X169582123Y-112999501D01*
X169522516Y-113005908D01*
X169387671Y-113056202D01*
X169387664Y-113056206D01*
X169272455Y-113142452D01*
X169272452Y-113142455D01*
X169186206Y-113257664D01*
X169186202Y-113257671D01*
X169135908Y-113392517D01*
X169129501Y-113452116D01*
X169129500Y-113452135D01*
X169129500Y-113765500D01*
X169109815Y-113832539D01*
X169057011Y-113878294D01*
X169005500Y-113889500D01*
X168406988Y-113889500D01*
X168339949Y-113869815D01*
X168294194Y-113817011D01*
X168284049Y-113749314D01*
X168285042Y-113741764D01*
X168285044Y-113741762D01*
X168300500Y-113624361D01*
X168300499Y-113095640D01*
X168300499Y-113095636D01*
X168285046Y-112978246D01*
X168285044Y-112978241D01*
X168285044Y-112978238D01*
X168259939Y-112917628D01*
X168250500Y-112870176D01*
X168250500Y-112164500D01*
X168270185Y-112097461D01*
X168322989Y-112051706D01*
X168374500Y-112040500D01*
X173279192Y-112040500D01*
X173346231Y-112060185D01*
G37*
%TD.AperFunction*%
%TA.AperFunction,Conductor*%
G36*
X189493055Y-109123006D02*
G01*
X189548096Y-109163700D01*
X189583439Y-109209759D01*
X189597740Y-109228397D01*
X189971596Y-109602252D01*
X189971603Y-109602258D01*
X189980986Y-109609458D01*
X190022189Y-109665885D01*
X190029500Y-109707834D01*
X190029500Y-110689192D01*
X190009815Y-110756231D01*
X189993181Y-110776873D01*
X187356873Y-113413181D01*
X187295550Y-113446666D01*
X187269192Y-113449500D01*
X186681082Y-113449500D01*
X186614043Y-113429815D01*
X186568288Y-113377011D01*
X186558344Y-113307853D01*
X186587369Y-113244297D01*
X186609958Y-113223925D01*
X186651373Y-113194925D01*
X186019409Y-112562962D01*
X186082993Y-112545925D01*
X186197007Y-112480099D01*
X186290099Y-112387007D01*
X186355925Y-112272993D01*
X186372962Y-112209409D01*
X187004925Y-112841373D01*
X187004926Y-112841373D01*
X187063598Y-112757582D01*
X187063600Y-112757578D01*
X187163429Y-112543492D01*
X187163433Y-112543483D01*
X187224567Y-112315326D01*
X187224569Y-112315315D01*
X187245157Y-112080001D01*
X187245157Y-112079998D01*
X187241370Y-112036713D01*
X187255137Y-111968213D01*
X187303752Y-111918030D01*
X187371780Y-111902097D01*
X187416408Y-111913111D01*
X187468436Y-111936872D01*
X187543591Y-111971195D01*
X187543592Y-111971195D01*
X187543594Y-111971196D01*
X187686051Y-111991677D01*
X187828508Y-111971196D01*
X187959424Y-111911408D01*
X188006107Y-111873789D01*
X189275889Y-110604005D01*
X189313510Y-110557322D01*
X189373298Y-110426406D01*
X189393779Y-110283949D01*
X189373298Y-110141492D01*
X189334684Y-110056941D01*
X189313511Y-110010578D01*
X189313510Y-110010577D01*
X189313510Y-110010576D01*
X189275891Y-109963893D01*
X189275886Y-109963888D01*
X189275882Y-109963883D01*
X189000454Y-109688455D01*
X188966969Y-109627132D01*
X188971953Y-109557440D01*
X189000452Y-109513095D01*
X189362042Y-109151505D01*
X189423363Y-109118022D01*
X189493055Y-109123006D01*
G37*
%TD.AperFunction*%
%TA.AperFunction,Conductor*%
G36*
X165296231Y-110520185D02*
G01*
X165316873Y-110536819D01*
X165754723Y-110974669D01*
X166675330Y-111895276D01*
X166675331Y-111895277D01*
X166807817Y-112027763D01*
X166913181Y-112133126D01*
X166946666Y-112194449D01*
X166949500Y-112220807D01*
X166949500Y-112411000D01*
X166929815Y-112478039D01*
X166877011Y-112523794D01*
X166825507Y-112535000D01*
X166810677Y-112535000D01*
X166693371Y-112550442D01*
X166693369Y-112550443D01*
X166673105Y-112558837D01*
X166603635Y-112566304D01*
X166578203Y-112558837D01*
X166556762Y-112549956D01*
X166556760Y-112549955D01*
X166439361Y-112534500D01*
X166160636Y-112534500D01*
X166043246Y-112549953D01*
X166043237Y-112549956D01*
X165897157Y-112610464D01*
X165892712Y-112613876D01*
X165827543Y-112639070D01*
X165817226Y-112639500D01*
X165606307Y-112639500D01*
X165539268Y-112619815D01*
X165493513Y-112567011D01*
X165491238Y-112561218D01*
X165489817Y-112558171D01*
X165480763Y-112543492D01*
X165397712Y-112408844D01*
X165273656Y-112284788D01*
X165146970Y-112206648D01*
X165124336Y-112192687D01*
X165124331Y-112192685D01*
X165122862Y-112192198D01*
X164957797Y-112137501D01*
X164957795Y-112137500D01*
X164855010Y-112127000D01*
X163804998Y-112127000D01*
X163804980Y-112127001D01*
X163702203Y-112137500D01*
X163702200Y-112137501D01*
X163535668Y-112192685D01*
X163535663Y-112192687D01*
X163386342Y-112284789D01*
X163283931Y-112387201D01*
X163222608Y-112420686D01*
X163152916Y-112415702D01*
X163108569Y-112387201D01*
X163018657Y-112297289D01*
X163018656Y-112297288D01*
X162889576Y-112217671D01*
X162869336Y-112205187D01*
X162869331Y-112205185D01*
X162836932Y-112194449D01*
X162702797Y-112150001D01*
X162702795Y-112150000D01*
X162600010Y-112139500D01*
X161599998Y-112139500D01*
X161599980Y-112139501D01*
X161497203Y-112150000D01*
X161497200Y-112150001D01*
X161333503Y-112204246D01*
X161263675Y-112206648D01*
X161203633Y-112170916D01*
X161172440Y-112108396D01*
X161170499Y-112086540D01*
X161170499Y-112062129D01*
X161170498Y-112062123D01*
X161170497Y-112062116D01*
X161164091Y-112002517D01*
X161163152Y-112000000D01*
X161113797Y-111867671D01*
X161113793Y-111867664D01*
X161027547Y-111752455D01*
X161027544Y-111752452D01*
X160912335Y-111666206D01*
X160912328Y-111666202D01*
X160777482Y-111615908D01*
X160777483Y-111615908D01*
X160717883Y-111609501D01*
X160717881Y-111609500D01*
X160717873Y-111609500D01*
X160717864Y-111609500D01*
X159022129Y-111609500D01*
X159022123Y-111609501D01*
X158962516Y-111615908D01*
X158827671Y-111666202D01*
X158827664Y-111666206D01*
X158712455Y-111752452D01*
X158712452Y-111752455D01*
X158626206Y-111867664D01*
X158626202Y-111867671D01*
X158575908Y-112002517D01*
X158572232Y-112036713D01*
X158569500Y-112062127D01*
X158569500Y-112706718D01*
X158569501Y-113235500D01*
X158549816Y-113302539D01*
X158497013Y-113348294D01*
X158445501Y-113359500D01*
X158394499Y-113359500D01*
X158327460Y-113339815D01*
X158281705Y-113287011D01*
X158270499Y-113235500D01*
X158270499Y-112962129D01*
X158270498Y-112962123D01*
X158264091Y-112902516D01*
X158213797Y-112767671D01*
X158213793Y-112767664D01*
X158127547Y-112652455D01*
X158127544Y-112652452D01*
X158012335Y-112566206D01*
X158012328Y-112566202D01*
X157877482Y-112515908D01*
X157877483Y-112515908D01*
X157817883Y-112509501D01*
X157817881Y-112509500D01*
X157817873Y-112509500D01*
X157817865Y-112509500D01*
X156410808Y-112509500D01*
X156343769Y-112489815D01*
X156323127Y-112473181D01*
X155786818Y-111936872D01*
X155753333Y-111875549D01*
X155750499Y-111849191D01*
X155750499Y-110772129D01*
X155750498Y-110772123D01*
X155750497Y-110772116D01*
X155744091Y-110712517D01*
X155743836Y-110711834D01*
X155727425Y-110667833D01*
X155722441Y-110598142D01*
X155755926Y-110536819D01*
X155817249Y-110503334D01*
X155843607Y-110500500D01*
X165229192Y-110500500D01*
X165296231Y-110520185D01*
G37*
%TD.AperFunction*%
%TA.AperFunction,Conductor*%
G36*
X135863698Y-106660185D02*
G01*
X135909453Y-106712989D01*
X135919397Y-106782147D01*
X135902198Y-106829596D01*
X135815189Y-106970659D01*
X135815185Y-106970668D01*
X135802153Y-107009996D01*
X135760001Y-107137203D01*
X135760001Y-107137204D01*
X135760000Y-107137204D01*
X135749500Y-107239983D01*
X135749500Y-108040001D01*
X135749501Y-108040019D01*
X135760000Y-108142796D01*
X135760001Y-108142799D01*
X135800893Y-108266200D01*
X135815186Y-108309334D01*
X135907288Y-108458656D01*
X136031344Y-108582712D01*
X136042286Y-108589461D01*
X136042288Y-108589462D01*
X136089011Y-108641411D01*
X136100232Y-108710374D01*
X136072388Y-108774456D01*
X136042288Y-108800538D01*
X136031342Y-108807289D01*
X135907289Y-108931342D01*
X135815187Y-109080663D01*
X135815185Y-109080668D01*
X135808945Y-109099500D01*
X135760001Y-109247203D01*
X135760001Y-109247204D01*
X135760000Y-109247204D01*
X135749500Y-109349983D01*
X135749500Y-109349996D01*
X135749501Y-110150000D01*
X135749501Y-110150019D01*
X135760000Y-110252796D01*
X135760001Y-110252799D01*
X135815185Y-110419331D01*
X135815187Y-110419336D01*
X135839901Y-110459403D01*
X135902877Y-110561505D01*
X135907289Y-110568657D01*
X136001304Y-110662672D01*
X136034789Y-110723995D01*
X136029805Y-110793687D01*
X136001305Y-110838034D01*
X135907682Y-110931657D01*
X135815643Y-111080875D01*
X135815641Y-111080880D01*
X135760494Y-111247302D01*
X135760493Y-111247309D01*
X135750000Y-111350013D01*
X135750000Y-111500000D01*
X138149999Y-111500000D01*
X138149999Y-111350028D01*
X138149998Y-111350013D01*
X138139505Y-111247302D01*
X138084358Y-111080880D01*
X138084356Y-111080875D01*
X137992315Y-110931654D01*
X137898695Y-110838034D01*
X137865210Y-110776711D01*
X137870194Y-110707019D01*
X137898691Y-110662676D01*
X137992712Y-110568656D01*
X138060099Y-110459402D01*
X138112047Y-110412679D01*
X138165638Y-110400500D01*
X139733408Y-110400500D01*
X139800447Y-110420185D01*
X139842239Y-110465071D01*
X139846204Y-110472332D01*
X139932452Y-110587544D01*
X139932455Y-110587547D01*
X140047664Y-110673793D01*
X140047671Y-110673797D01*
X140182517Y-110724091D01*
X140182516Y-110724091D01*
X140189444Y-110724835D01*
X140242127Y-110730500D01*
X141337872Y-110730499D01*
X141397483Y-110724091D01*
X141532331Y-110673796D01*
X141647546Y-110587546D01*
X141658444Y-110572989D01*
X141675511Y-110550190D01*
X141731444Y-110508318D01*
X141774778Y-110500500D01*
X153156393Y-110500500D01*
X153223432Y-110520185D01*
X153269187Y-110572989D01*
X153279131Y-110642147D01*
X153272575Y-110667833D01*
X153255908Y-110712517D01*
X153250323Y-110764469D01*
X153249501Y-110772123D01*
X153249500Y-110772135D01*
X153249500Y-112367870D01*
X153249501Y-112367876D01*
X153255908Y-112427483D01*
X153261385Y-112442165D01*
X153266371Y-112511857D01*
X153232886Y-112573180D01*
X153171564Y-112606666D01*
X153145204Y-112609500D01*
X148094499Y-112609500D01*
X148027460Y-112589815D01*
X147981705Y-112537011D01*
X147970499Y-112485500D01*
X147970499Y-112412129D01*
X147970498Y-112412123D01*
X147970497Y-112412116D01*
X147964091Y-112352517D01*
X147947536Y-112308132D01*
X147913797Y-112217671D01*
X147913793Y-112217664D01*
X147827547Y-112102455D01*
X147827544Y-112102452D01*
X147712335Y-112016206D01*
X147712328Y-112016202D01*
X147577482Y-111965908D01*
X147577483Y-111965908D01*
X147517883Y-111959501D01*
X147517881Y-111959500D01*
X147517873Y-111959500D01*
X147517864Y-111959500D01*
X145922129Y-111959500D01*
X145922123Y-111959501D01*
X145862516Y-111965908D01*
X145727671Y-112016202D01*
X145727664Y-112016206D01*
X145612455Y-112102452D01*
X145612452Y-112102455D01*
X145526206Y-112217664D01*
X145526202Y-112217671D01*
X145475908Y-112352517D01*
X145469853Y-112408842D01*
X145469501Y-112412123D01*
X145469500Y-112412135D01*
X145469500Y-112485500D01*
X145449815Y-112552539D01*
X145397011Y-112598294D01*
X145345500Y-112609500D01*
X138189106Y-112609500D01*
X138122067Y-112589815D01*
X138076312Y-112537011D01*
X138066368Y-112467853D01*
X138081607Y-112425811D01*
X138081304Y-112425670D01*
X138082900Y-112422246D01*
X138083570Y-112420399D01*
X138084355Y-112419125D01*
X138084358Y-112419119D01*
X138139505Y-112252697D01*
X138139506Y-112252690D01*
X138149999Y-112149986D01*
X138150000Y-112149973D01*
X138150000Y-112000000D01*
X135750001Y-112000000D01*
X135750001Y-112149986D01*
X135760494Y-112252697D01*
X135815641Y-112419119D01*
X135815644Y-112419125D01*
X135816430Y-112420399D01*
X135816702Y-112421394D01*
X135818696Y-112425670D01*
X135817965Y-112426010D01*
X135834873Y-112487791D01*
X135813953Y-112554455D01*
X135760313Y-112599227D01*
X135710894Y-112609500D01*
X132650808Y-112609500D01*
X132583769Y-112589815D01*
X132563127Y-112573181D01*
X132017709Y-112027763D01*
X131984224Y-111966440D01*
X131985615Y-111907989D01*
X131996418Y-111867671D01*
X132005063Y-111835408D01*
X132025659Y-111600000D01*
X132005063Y-111364592D01*
X131952156Y-111167137D01*
X131943905Y-111136344D01*
X131943904Y-111136343D01*
X131943903Y-111136337D01*
X131844035Y-110922171D01*
X131742184Y-110776711D01*
X131708494Y-110728597D01*
X131541402Y-110561506D01*
X131541401Y-110561505D01*
X131355405Y-110431269D01*
X131311781Y-110376692D01*
X131304588Y-110307193D01*
X131336110Y-110244839D01*
X131355405Y-110228119D01*
X131541082Y-110098105D01*
X131708105Y-109931082D01*
X131843600Y-109737578D01*
X131943429Y-109523492D01*
X131943432Y-109523486D01*
X132000636Y-109310000D01*
X131103012Y-109310000D01*
X131135925Y-109252993D01*
X131170000Y-109125826D01*
X131170000Y-108994174D01*
X131135925Y-108867007D01*
X131103012Y-108810000D01*
X132000636Y-108810000D01*
X132000635Y-108809999D01*
X131943432Y-108596513D01*
X131943429Y-108596507D01*
X131843600Y-108382422D01*
X131843599Y-108382420D01*
X131708113Y-108188926D01*
X131708108Y-108188920D01*
X131586053Y-108066865D01*
X131552568Y-108005542D01*
X131557552Y-107935850D01*
X131599424Y-107879917D01*
X131630400Y-107863002D01*
X131762331Y-107813796D01*
X131877546Y-107727546D01*
X131963796Y-107612331D01*
X132014091Y-107477483D01*
X132020500Y-107417873D01*
X132020500Y-106764500D01*
X132040185Y-106697461D01*
X132092989Y-106651706D01*
X132144500Y-106640500D01*
X135796659Y-106640500D01*
X135863698Y-106660185D01*
G37*
%TD.AperFunction*%
%TA.AperFunction,Conductor*%
G36*
X197104490Y-101944174D02*
G01*
X197148836Y-101972674D01*
X197342140Y-102165978D01*
X197342144Y-102165981D01*
X197342146Y-102165983D01*
X197388821Y-102203598D01*
X197426412Y-102220765D01*
X197519738Y-102263386D01*
X197519737Y-102263386D01*
X197540219Y-102266330D01*
X197662195Y-102283868D01*
X197804653Y-102263386D01*
X197935568Y-102203598D01*
X197982251Y-102165979D01*
X198034133Y-102114096D01*
X198095455Y-102080611D01*
X198165146Y-102085595D01*
X198209495Y-102114096D01*
X199045781Y-102950382D01*
X199079266Y-103011705D01*
X199074282Y-103081397D01*
X199045782Y-103125744D01*
X198971583Y-103199943D01*
X198933961Y-103246628D01*
X198933961Y-103246630D01*
X198874174Y-103377543D01*
X198853693Y-103520000D01*
X198874174Y-103662456D01*
X198933961Y-103793370D01*
X198933962Y-103793371D01*
X198933963Y-103793373D01*
X198971582Y-103840056D01*
X198971585Y-103840059D01*
X198971590Y-103840065D01*
X199822025Y-104690498D01*
X200099944Y-104968417D01*
X200146627Y-105006037D01*
X200146628Y-105006037D01*
X200146630Y-105006039D01*
X200222651Y-105040757D01*
X200275455Y-105086512D01*
X200295139Y-105153552D01*
X200275454Y-105220591D01*
X200258820Y-105241232D01*
X194969767Y-110530287D01*
X194908444Y-110563772D01*
X194882086Y-110566606D01*
X192458823Y-110566606D01*
X192333155Y-110591603D01*
X192333149Y-110591605D01*
X192214764Y-110640641D01*
X192108225Y-110711828D01*
X192108218Y-110711834D01*
X191516379Y-111303673D01*
X191455056Y-111337158D01*
X191385364Y-111332174D01*
X191329431Y-111290302D01*
X191305014Y-111224838D01*
X191307081Y-111191800D01*
X191311987Y-111167137D01*
X191311987Y-111167136D01*
X191330500Y-111074070D01*
X191330500Y-109255928D01*
X191305502Y-109130261D01*
X191305501Y-109130260D01*
X191305501Y-109130256D01*
X191302498Y-109123006D01*
X191270527Y-109045820D01*
X191263058Y-108976351D01*
X191294333Y-108913872D01*
X191354422Y-108878220D01*
X191424248Y-108880714D01*
X191450913Y-108897185D01*
X191458754Y-108896671D01*
X191493525Y-108851359D01*
X191493526Y-108851356D01*
X191501917Y-108831099D01*
X191545756Y-108776694D01*
X191569019Y-108763991D01*
X191590468Y-108755107D01*
X191684413Y-108683021D01*
X191881497Y-108485935D01*
X191953585Y-108391990D01*
X192014093Y-108245911D01*
X192029833Y-108126347D01*
X192058099Y-108062453D01*
X192065080Y-108054864D01*
X192285421Y-107834522D01*
X192346744Y-107801038D01*
X192415521Y-107805685D01*
X192420419Y-107807467D01*
X192420426Y-107807471D01*
X192420433Y-107807472D01*
X192420434Y-107807473D01*
X192447121Y-107813798D01*
X192591139Y-107847932D01*
X192591142Y-107847932D01*
X192766578Y-107847932D01*
X192766581Y-107847932D01*
X192937293Y-107807471D01*
X193094074Y-107728733D01*
X193174182Y-107663477D01*
X193916655Y-106921002D01*
X193981913Y-106840894D01*
X194060651Y-106684113D01*
X194101112Y-106513401D01*
X194101112Y-106350890D01*
X194120797Y-106283851D01*
X194173601Y-106238096D01*
X194225112Y-106226890D01*
X194377014Y-106226890D01*
X194377017Y-106226890D01*
X194477447Y-106203087D01*
X194547727Y-106186430D01*
X194547728Y-106186429D01*
X194547730Y-106186429D01*
X194704511Y-106107692D01*
X194784618Y-106042435D01*
X195491736Y-105335315D01*
X195556995Y-105255208D01*
X195635732Y-105098427D01*
X195649401Y-105040757D01*
X195657629Y-105006039D01*
X195676193Y-104927714D01*
X195676193Y-104900613D01*
X195695878Y-104833574D01*
X195748682Y-104787819D01*
X195817840Y-104777875D01*
X195881396Y-104806900D01*
X195887872Y-104812930D01*
X195927926Y-104852984D01*
X195974609Y-104890604D01*
X195974610Y-104890604D01*
X195974612Y-104890606D01*
X196105522Y-104950391D01*
X196105523Y-104950391D01*
X196105525Y-104950392D01*
X196247982Y-104970873D01*
X196390439Y-104950392D01*
X196521355Y-104890604D01*
X196568038Y-104852985D01*
X197767110Y-103653912D01*
X197804730Y-103607229D01*
X197864518Y-103476313D01*
X197884999Y-103333856D01*
X197864518Y-103191399D01*
X197846518Y-103151986D01*
X197804731Y-103060485D01*
X197804730Y-103060484D01*
X197804730Y-103060483D01*
X197767111Y-103013800D01*
X197767106Y-103013795D01*
X197767102Y-103013790D01*
X196937410Y-102184099D01*
X196903925Y-102122776D01*
X196908909Y-102053085D01*
X196937409Y-102008738D01*
X196973475Y-101972673D01*
X197034799Y-101939188D01*
X197104490Y-101944174D01*
G37*
%TD.AperFunction*%
%TA.AperFunction,Conductor*%
G36*
X169632250Y-81140185D02*
G01*
X169678005Y-81192989D01*
X169687949Y-81262147D01*
X169658924Y-81325703D01*
X169600146Y-81363477D01*
X169581396Y-81367439D01*
X169310849Y-81403057D01*
X169310846Y-81403057D01*
X169310835Y-81403059D01*
X168813032Y-81495321D01*
X168564124Y-81541454D01*
X167825698Y-81718734D01*
X167097557Y-81934419D01*
X167097549Y-81934421D01*
X167097545Y-81934423D01*
X166852814Y-82021087D01*
X166381686Y-82187922D01*
X165680080Y-82478536D01*
X164994628Y-82805480D01*
X164994614Y-82805486D01*
X164327238Y-83167842D01*
X164327215Y-83167855D01*
X163679723Y-83564640D01*
X163053854Y-83994788D01*
X162451389Y-84457075D01*
X162451363Y-84457096D01*
X161873904Y-84950294D01*
X161873886Y-84950310D01*
X161323043Y-85473043D01*
X160800310Y-86023886D01*
X160800294Y-86023904D01*
X160307096Y-86601363D01*
X160307087Y-86601375D01*
X159844788Y-87203854D01*
X159414640Y-87829723D01*
X159017855Y-88477215D01*
X159017842Y-88477238D01*
X158655486Y-89144614D01*
X158655480Y-89144628D01*
X158328536Y-89830080D01*
X158037922Y-90531686D01*
X157947750Y-90786324D01*
X157803603Y-91193384D01*
X157784419Y-91247557D01*
X157568734Y-91975698D01*
X157391454Y-92714124D01*
X157367090Y-92845579D01*
X157253059Y-93460835D01*
X157253057Y-93460846D01*
X157253057Y-93460849D01*
X157153936Y-94213743D01*
X157094351Y-94970835D01*
X157074472Y-95730000D01*
X157094351Y-96489164D01*
X157153936Y-97246256D01*
X157248087Y-97961396D01*
X157253059Y-97999165D01*
X157348667Y-98515019D01*
X157391454Y-98745875D01*
X157568734Y-99484301D01*
X157784419Y-100212442D01*
X157784423Y-100212455D01*
X158037923Y-100928316D01*
X158091864Y-101058541D01*
X158316020Y-101599703D01*
X158328541Y-101629930D01*
X158653957Y-102312180D01*
X158655480Y-102315371D01*
X158655486Y-102315385D01*
X159017842Y-102982761D01*
X159017855Y-102982784D01*
X159414640Y-103630276D01*
X159565538Y-103849834D01*
X159768724Y-104145472D01*
X159844788Y-104256145D01*
X160307075Y-104858610D01*
X160307096Y-104858636D01*
X160518244Y-105105858D01*
X160714219Y-105335315D01*
X160800294Y-105436095D01*
X160800310Y-105436113D01*
X160976821Y-105622116D01*
X161323043Y-105986957D01*
X161578452Y-106229331D01*
X161873886Y-106509689D01*
X161873901Y-106509702D01*
X161873907Y-106509708D01*
X162150156Y-106745647D01*
X162451363Y-107002903D01*
X162451389Y-107002924D01*
X163053854Y-107465211D01*
X163053859Y-107465214D01*
X163053865Y-107465219D01*
X163561051Y-107813798D01*
X163679723Y-107895359D01*
X164327215Y-108292144D01*
X164327233Y-108292154D01*
X164327236Y-108292156D01*
X164358874Y-108309334D01*
X164994614Y-108654513D01*
X164994619Y-108654515D01*
X164994628Y-108654520D01*
X165642586Y-108963580D01*
X165694620Y-109010208D01*
X165713185Y-109077566D01*
X165692386Y-109144268D01*
X165638827Y-109189137D01*
X165589202Y-109199500D01*
X150739057Y-109199500D01*
X150672018Y-109179815D01*
X150626263Y-109127011D01*
X150616319Y-109057853D01*
X150639790Y-109001189D01*
X150713796Y-108902331D01*
X150764091Y-108767483D01*
X150770500Y-108707873D01*
X150770499Y-107112128D01*
X150764091Y-107052517D01*
X150755506Y-107029500D01*
X150713797Y-106917671D01*
X150713793Y-106917664D01*
X150627547Y-106802455D01*
X150627540Y-106802450D01*
X150600187Y-106781973D01*
X150540188Y-106737057D01*
X150498318Y-106681123D01*
X150490500Y-106637791D01*
X150490500Y-106612753D01*
X150510185Y-106545714D01*
X150562989Y-106499959D01*
X150632147Y-106490015D01*
X150679597Y-106507215D01*
X150820869Y-106594353D01*
X150820880Y-106594358D01*
X150987302Y-106649505D01*
X150987309Y-106649506D01*
X151090019Y-106659999D01*
X151239999Y-106659999D01*
X151240000Y-106659998D01*
X151240000Y-105710000D01*
X151740000Y-105710000D01*
X151740000Y-106659999D01*
X151889972Y-106659999D01*
X151889986Y-106659998D01*
X151992697Y-106649505D01*
X152159119Y-106594358D01*
X152159124Y-106594356D01*
X152308345Y-106502315D01*
X152432315Y-106378345D01*
X152524356Y-106229124D01*
X152524358Y-106229119D01*
X152579505Y-106062697D01*
X152579506Y-106062690D01*
X152589999Y-105959986D01*
X152590000Y-105959973D01*
X152590000Y-105710000D01*
X151740000Y-105710000D01*
X151240000Y-105710000D01*
X151240000Y-104260000D01*
X151740000Y-104260000D01*
X151740000Y-105210000D01*
X152589999Y-105210000D01*
X152589999Y-104960028D01*
X152589998Y-104960013D01*
X152579505Y-104857302D01*
X152524358Y-104690880D01*
X152524356Y-104690875D01*
X152432315Y-104541654D01*
X152308345Y-104417684D01*
X152159124Y-104325643D01*
X152159119Y-104325641D01*
X151992697Y-104270494D01*
X151992690Y-104270493D01*
X151889986Y-104260000D01*
X151740000Y-104260000D01*
X151240000Y-104260000D01*
X151090027Y-104260000D01*
X151090012Y-104260001D01*
X150987302Y-104270494D01*
X150815209Y-104327520D01*
X150745380Y-104329922D01*
X150685339Y-104294190D01*
X150654146Y-104231669D01*
X150661707Y-104162210D01*
X150688521Y-104122135D01*
X150785472Y-104025185D01*
X150873478Y-103879606D01*
X150924086Y-103717196D01*
X150930500Y-103646616D01*
X150930500Y-103133384D01*
X150929785Y-103125519D01*
X150943321Y-103056975D01*
X150991767Y-103006629D01*
X151059742Y-102990467D01*
X151125663Y-103013620D01*
X151159391Y-103050146D01*
X151172533Y-103071885D01*
X151174530Y-103075188D01*
X151294811Y-103195469D01*
X151294813Y-103195470D01*
X151294815Y-103195472D01*
X151440394Y-103283478D01*
X151602804Y-103334086D01*
X151673384Y-103340500D01*
X152014902Y-103340500D01*
X152062354Y-103349939D01*
X152126998Y-103376715D01*
X152188165Y-103402051D01*
X152188169Y-103402051D01*
X152188170Y-103402052D01*
X152381456Y-103440500D01*
X152381459Y-103440500D01*
X154388543Y-103440500D01*
X154470378Y-103424221D01*
X154511297Y-103416082D01*
X154581836Y-103402051D01*
X154643009Y-103376712D01*
X154763914Y-103326632D01*
X154927782Y-103217139D01*
X155067139Y-103077782D01*
X155067140Y-103077779D01*
X155074206Y-103070714D01*
X155074209Y-103070710D01*
X156407778Y-101737141D01*
X156407782Y-101737139D01*
X156547139Y-101597782D01*
X156656632Y-101433914D01*
X156656633Y-101433911D01*
X156656635Y-101433908D01*
X156698916Y-101331830D01*
X156728404Y-101260640D01*
X156732051Y-101251836D01*
X156735722Y-101233384D01*
X156757572Y-101123535D01*
X156757572Y-101123534D01*
X156770500Y-101058541D01*
X156770500Y-89435782D01*
X156790185Y-89368743D01*
X156806819Y-89348101D01*
X164998101Y-81156819D01*
X165059424Y-81123334D01*
X165085782Y-81120500D01*
X169565211Y-81120500D01*
X169632250Y-81140185D01*
G37*
%TD.AperFunction*%
%TA.AperFunction,Conductor*%
G36*
X163682256Y-79430185D02*
G01*
X163728011Y-79482989D01*
X163737955Y-79552147D01*
X163708930Y-79615703D01*
X163702898Y-79622181D01*
X155132221Y-88192858D01*
X155132218Y-88192861D01*
X155095655Y-88229424D01*
X154992859Y-88332219D01*
X154883371Y-88496080D01*
X154883364Y-88496093D01*
X154853937Y-88567139D01*
X154811256Y-88670181D01*
X154811254Y-88670186D01*
X154807949Y-88678162D01*
X154807947Y-88678171D01*
X154769500Y-88871454D01*
X154769500Y-100494218D01*
X154749815Y-100561257D01*
X154733181Y-100581899D01*
X153911899Y-101403181D01*
X153850576Y-101436666D01*
X153824218Y-101439500D01*
X152381457Y-101439500D01*
X152188170Y-101477947D01*
X152188160Y-101477950D01*
X152062354Y-101530061D01*
X152014902Y-101539500D01*
X151673384Y-101539500D01*
X151654145Y-101541248D01*
X151602807Y-101545913D01*
X151440393Y-101596522D01*
X151294811Y-101684530D01*
X151174530Y-101804811D01*
X151159392Y-101829853D01*
X151107863Y-101877039D01*
X151039003Y-101888877D01*
X150974675Y-101861607D01*
X150935302Y-101803887D01*
X150929785Y-101754480D01*
X150930500Y-101746616D01*
X150930500Y-101233384D01*
X150924086Y-101162804D01*
X150873478Y-101000394D01*
X150785472Y-100854815D01*
X150785470Y-100854813D01*
X150785469Y-100854811D01*
X150665188Y-100734530D01*
X150652930Y-100727120D01*
X150519606Y-100646522D01*
X150357196Y-100595914D01*
X150357194Y-100595913D01*
X150357192Y-100595913D01*
X150307778Y-100591423D01*
X150286616Y-100589500D01*
X148673384Y-100589500D01*
X148654145Y-100591248D01*
X148602807Y-100595913D01*
X148440393Y-100646522D01*
X148406501Y-100667011D01*
X148316171Y-100721617D01*
X148252023Y-100739500D01*
X148227046Y-100739500D01*
X148160007Y-100719815D01*
X148114252Y-100667011D01*
X148109340Y-100654504D01*
X148108386Y-100651624D01*
X148094814Y-100610666D01*
X148002712Y-100461344D01*
X147878656Y-100337288D01*
X147754496Y-100260706D01*
X147729336Y-100245187D01*
X147729331Y-100245185D01*
X147682030Y-100229511D01*
X147562797Y-100190001D01*
X147562795Y-100190000D01*
X147460010Y-100179500D01*
X146659998Y-100179500D01*
X146659980Y-100179501D01*
X146557203Y-100190000D01*
X146557200Y-100190001D01*
X146390668Y-100245185D01*
X146390663Y-100245187D01*
X146241342Y-100337289D01*
X146147681Y-100430951D01*
X146086358Y-100464436D01*
X146016666Y-100459452D01*
X145972319Y-100430951D01*
X145878657Y-100337289D01*
X145878656Y-100337288D01*
X145754496Y-100260706D01*
X145729336Y-100245187D01*
X145729331Y-100245185D01*
X145682030Y-100229511D01*
X145562797Y-100190001D01*
X145562795Y-100190000D01*
X145460010Y-100179500D01*
X144659998Y-100179500D01*
X144659980Y-100179501D01*
X144557203Y-100190000D01*
X144557200Y-100190001D01*
X144390668Y-100245185D01*
X144390663Y-100245187D01*
X144241342Y-100337289D01*
X144117288Y-100461343D01*
X144117285Y-100461347D01*
X144095818Y-100496150D01*
X144043869Y-100542874D01*
X143974907Y-100554094D01*
X143910825Y-100526249D01*
X143902600Y-100518732D01*
X143843657Y-100459789D01*
X143843656Y-100459788D01*
X143750888Y-100402569D01*
X143694336Y-100367687D01*
X143694331Y-100367685D01*
X143692862Y-100367198D01*
X143527797Y-100312501D01*
X143527795Y-100312500D01*
X143425016Y-100302000D01*
X142649439Y-100302000D01*
X142582400Y-100282315D01*
X142536645Y-100229511D01*
X142526701Y-100160353D01*
X142555726Y-100096797D01*
X142561731Y-100090346D01*
X142649816Y-100002262D01*
X142745789Y-99849522D01*
X142805368Y-99679255D01*
X142805369Y-99679249D01*
X142825565Y-99500003D01*
X142825565Y-99499997D01*
X142808989Y-99352883D01*
X142821043Y-99284061D01*
X142868392Y-99232681D01*
X142915320Y-99219678D01*
X142920000Y-99214998D01*
X142920000Y-98240000D01*
X143420000Y-98240000D01*
X143420000Y-99214999D01*
X143557472Y-99214999D01*
X143557486Y-99214998D01*
X143660197Y-99204505D01*
X143826619Y-99149358D01*
X143826624Y-99149356D01*
X143975845Y-99057315D01*
X144099815Y-98933345D01*
X144191856Y-98784124D01*
X144191858Y-98784119D01*
X144247005Y-98617697D01*
X144247006Y-98617690D01*
X144257499Y-98514986D01*
X144257500Y-98514973D01*
X144257500Y-98240000D01*
X143420000Y-98240000D01*
X142920000Y-98240000D01*
X142920000Y-96765000D01*
X143420000Y-96765000D01*
X143420000Y-97740000D01*
X144257499Y-97740000D01*
X144257499Y-97465028D01*
X144257498Y-97465013D01*
X144247005Y-97362302D01*
X144191858Y-97195880D01*
X144191856Y-97195875D01*
X144099815Y-97046654D01*
X143975845Y-96922684D01*
X143826624Y-96830643D01*
X143826619Y-96830641D01*
X143660197Y-96775494D01*
X143660190Y-96775493D01*
X143557486Y-96765000D01*
X143420000Y-96765000D01*
X142920000Y-96765000D01*
X142782527Y-96765000D01*
X142782512Y-96765001D01*
X142679802Y-96775494D01*
X142513380Y-96830641D01*
X142513375Y-96830643D01*
X142364154Y-96922684D01*
X142240183Y-97046655D01*
X142240179Y-97046660D01*
X142238326Y-97049665D01*
X142236518Y-97051290D01*
X142235702Y-97052323D01*
X142235525Y-97052183D01*
X142186374Y-97096385D01*
X142117411Y-97107601D01*
X142053331Y-97079752D01*
X142027253Y-97049653D01*
X142027237Y-97049628D01*
X142025212Y-97046344D01*
X141901156Y-96922288D01*
X141755077Y-96832186D01*
X141751836Y-96830187D01*
X141751831Y-96830185D01*
X141750362Y-96829698D01*
X141585297Y-96775001D01*
X141585295Y-96775000D01*
X141482516Y-96764500D01*
X141482509Y-96764500D01*
X140982230Y-96764500D01*
X140915191Y-96744815D01*
X140894549Y-96728181D01*
X140811381Y-96645013D01*
X140782020Y-96598284D01*
X140775790Y-96580480D01*
X140775789Y-96580478D01*
X140679816Y-96427738D01*
X140552262Y-96300184D01*
X140399523Y-96204211D01*
X140229254Y-96144631D01*
X140229249Y-96144630D01*
X140050004Y-96124435D01*
X140049996Y-96124435D01*
X139870750Y-96144630D01*
X139870745Y-96144631D01*
X139700476Y-96204211D01*
X139547737Y-96300184D01*
X139420184Y-96427737D01*
X139324211Y-96580476D01*
X139264631Y-96750745D01*
X139264630Y-96750750D01*
X139244435Y-96929996D01*
X139244435Y-96930003D01*
X139264630Y-97109249D01*
X139264631Y-97109254D01*
X139324211Y-97279523D01*
X139357266Y-97332129D01*
X139420184Y-97432262D01*
X139547738Y-97559816D01*
X139685807Y-97646570D01*
X139707514Y-97663882D01*
X139970681Y-97927049D01*
X140004166Y-97988372D01*
X140007000Y-98014730D01*
X140007000Y-98515001D01*
X140007001Y-98515019D01*
X140017500Y-98617796D01*
X140017501Y-98617799D01*
X140055386Y-98732127D01*
X140072686Y-98784334D01*
X140164596Y-98933345D01*
X140164789Y-98933657D01*
X140288845Y-99057713D01*
X140288848Y-99057715D01*
X140370595Y-99108136D01*
X140417321Y-99160083D01*
X140429500Y-99213675D01*
X140429500Y-99525999D01*
X140409815Y-99593038D01*
X140403876Y-99601485D01*
X140330464Y-99697157D01*
X140269956Y-99843237D01*
X140269955Y-99843239D01*
X140254500Y-99960638D01*
X140254500Y-100239363D01*
X140269953Y-100356753D01*
X140269956Y-100356762D01*
X140330330Y-100502519D01*
X140330464Y-100502841D01*
X140426718Y-100628282D01*
X140457140Y-100651625D01*
X140498341Y-100708052D01*
X140502496Y-100777798D01*
X140468283Y-100838719D01*
X140457146Y-100848369D01*
X140426718Y-100871718D01*
X140330463Y-100997160D01*
X140269956Y-101143237D01*
X140269955Y-101143239D01*
X140254499Y-101260640D01*
X140254319Y-101263395D01*
X140254034Y-101264170D01*
X140253970Y-101264664D01*
X140253859Y-101264649D01*
X140230288Y-101329002D01*
X140174602Y-101371202D01*
X140104941Y-101376596D01*
X140043421Y-101343473D01*
X140042904Y-101342958D01*
X140041650Y-101341704D01*
X140008165Y-101280381D01*
X140005596Y-101262126D01*
X140005499Y-101260658D01*
X140005499Y-101260640D01*
X139996224Y-101190181D01*
X139990046Y-101143246D01*
X139990044Y-101143239D01*
X139990044Y-101143238D01*
X139981162Y-101121797D01*
X139973694Y-101052328D01*
X139981164Y-101026890D01*
X139989555Y-101006632D01*
X139989555Y-101006630D01*
X139997012Y-100950000D01*
X139954500Y-100950000D01*
X139887461Y-100930315D01*
X139856125Y-100901487D01*
X139833283Y-100871719D01*
X139833282Y-100871718D01*
X139802860Y-100848374D01*
X139761658Y-100791949D01*
X139757503Y-100722203D01*
X139791714Y-100661282D01*
X139802851Y-100651631D01*
X139833282Y-100628282D01*
X139846799Y-100610666D01*
X139856125Y-100598513D01*
X139912553Y-100557310D01*
X139954500Y-100550000D01*
X139997010Y-100550000D01*
X139997011Y-100549998D01*
X139989558Y-100493377D01*
X139989554Y-100493365D01*
X139981163Y-100473106D01*
X139973694Y-100403637D01*
X139981164Y-100378199D01*
X139990044Y-100356762D01*
X140005500Y-100239361D01*
X140005499Y-99960640D01*
X140005499Y-99960638D01*
X140005499Y-99960636D01*
X139990046Y-99843246D01*
X139990044Y-99843239D01*
X139990044Y-99843238D01*
X139929536Y-99697159D01*
X139833282Y-99571718D01*
X139707841Y-99475464D01*
X139645158Y-99449500D01*
X139561762Y-99414956D01*
X139561760Y-99414955D01*
X139444361Y-99399500D01*
X138915636Y-99399500D01*
X138798246Y-99414953D01*
X138798237Y-99414956D01*
X138737630Y-99440061D01*
X138690177Y-99449500D01*
X138226596Y-99449500D01*
X138159557Y-99429815D01*
X138121057Y-99390597D01*
X138055212Y-99283844D01*
X137931156Y-99159788D01*
X137823702Y-99093510D01*
X137807883Y-99083753D01*
X137761159Y-99031805D01*
X137749936Y-98962842D01*
X137777780Y-98898760D01*
X137835849Y-98859904D01*
X137859734Y-98854924D01*
X137860158Y-98854878D01*
X137867483Y-98854091D01*
X138002331Y-98803796D01*
X138117546Y-98717546D01*
X138203796Y-98602331D01*
X138254091Y-98467483D01*
X138260500Y-98407873D01*
X138260499Y-96812128D01*
X138254091Y-96752517D01*
X138251218Y-96744815D01*
X138203797Y-96617671D01*
X138203793Y-96617664D01*
X138117547Y-96502455D01*
X138117544Y-96502452D01*
X138002335Y-96416206D01*
X138002328Y-96416202D01*
X137867482Y-96365908D01*
X137867483Y-96365908D01*
X137807883Y-96359501D01*
X137807881Y-96359500D01*
X137807873Y-96359500D01*
X137807864Y-96359500D01*
X136212129Y-96359500D01*
X136212123Y-96359501D01*
X136152516Y-96365908D01*
X136017671Y-96416202D01*
X136017664Y-96416206D01*
X135902455Y-96502452D01*
X135902452Y-96502455D01*
X135816206Y-96617664D01*
X135816202Y-96617671D01*
X135765908Y-96752517D01*
X135759501Y-96812116D01*
X135759501Y-96812123D01*
X135759500Y-96812135D01*
X135759500Y-98407870D01*
X135759501Y-98407876D01*
X135765908Y-98467483D01*
X135816202Y-98602328D01*
X135816206Y-98602335D01*
X135902452Y-98717544D01*
X135902455Y-98717547D01*
X136017664Y-98803793D01*
X136017671Y-98803797D01*
X136062618Y-98820561D01*
X136152517Y-98854091D01*
X136164534Y-98855383D01*
X136229084Y-98882120D01*
X136268932Y-98939512D01*
X136271426Y-99009337D01*
X136235774Y-99069427D01*
X136216375Y-99084211D01*
X136093842Y-99159789D01*
X135969789Y-99283842D01*
X135877687Y-99433163D01*
X135877685Y-99433168D01*
X135855540Y-99499997D01*
X135822501Y-99599703D01*
X135822501Y-99599704D01*
X135822500Y-99599704D01*
X135812000Y-99702483D01*
X135812000Y-100502501D01*
X135812001Y-100502519D01*
X135822500Y-100605296D01*
X135822501Y-100605299D01*
X135877685Y-100771831D01*
X135877687Y-100771836D01*
X135888463Y-100789307D01*
X135969787Y-100921155D01*
X135969789Y-100921157D01*
X136063451Y-101014819D01*
X136096936Y-101076142D01*
X136091952Y-101145834D01*
X136063452Y-101190179D01*
X136020248Y-101233384D01*
X135994469Y-101259163D01*
X135933145Y-101292647D01*
X135863454Y-101287662D01*
X135819107Y-101259162D01*
X133430129Y-98870184D01*
X130996819Y-96436873D01*
X130963334Y-96375550D01*
X130960500Y-96349192D01*
X130960500Y-95327722D01*
X130980185Y-95260683D01*
X131013377Y-95226147D01*
X131093563Y-95170000D01*
X131181401Y-95108495D01*
X131348495Y-94941401D01*
X131484035Y-94747830D01*
X131583903Y-94533663D01*
X131645063Y-94305408D01*
X131665659Y-94070000D01*
X131664390Y-94055501D01*
X131653872Y-93935277D01*
X131645063Y-93834592D01*
X131583903Y-93606337D01*
X131484035Y-93392171D01*
X131476405Y-93381273D01*
X131348494Y-93198597D01*
X131181402Y-93031506D01*
X131181396Y-93031501D01*
X130995842Y-92901575D01*
X130952217Y-92846998D01*
X130945023Y-92777500D01*
X130976546Y-92715145D01*
X130995842Y-92698425D01*
X131055551Y-92656616D01*
X131181401Y-92568495D01*
X131348495Y-92401401D01*
X131457726Y-92245403D01*
X131466147Y-92233377D01*
X131520724Y-92189752D01*
X131567722Y-92180500D01*
X135635501Y-92180500D01*
X135702540Y-92200185D01*
X135748295Y-92252989D01*
X135759501Y-92304500D01*
X135759501Y-92450018D01*
X135770000Y-92552796D01*
X135770001Y-92552799D01*
X135825185Y-92719331D01*
X135825187Y-92719336D01*
X135837840Y-92739850D01*
X135917288Y-92868656D01*
X136041344Y-92992712D01*
X136190666Y-93084814D01*
X136357203Y-93139999D01*
X136459991Y-93150500D01*
X137460008Y-93150499D01*
X137460016Y-93150498D01*
X137460019Y-93150498D01*
X137516302Y-93144748D01*
X137562797Y-93139999D01*
X137729334Y-93084814D01*
X137878656Y-92992712D01*
X138002712Y-92868656D01*
X138094814Y-92719334D01*
X138149999Y-92552797D01*
X138160500Y-92450009D01*
X138160499Y-91718619D01*
X138180183Y-91651581D01*
X138232987Y-91605826D01*
X138302146Y-91595882D01*
X138365702Y-91624907D01*
X138399060Y-91671167D01*
X138418715Y-91718620D01*
X138420464Y-91722841D01*
X138516718Y-91848282D01*
X138642159Y-91944536D01*
X138788238Y-92005044D01*
X138905639Y-92020500D01*
X138905649Y-92020499D01*
X138907124Y-92020597D01*
X138907544Y-92020750D01*
X138909664Y-92021030D01*
X138909601Y-92021504D01*
X138972735Y-92044619D01*
X138986705Y-92056651D01*
X140865325Y-93935272D01*
X140865331Y-93935277D01*
X140971874Y-94006466D01*
X141041221Y-94035189D01*
X141090256Y-94055501D01*
X141090259Y-94055501D01*
X141090260Y-94055502D01*
X141215928Y-94080500D01*
X141215931Y-94080500D01*
X141344069Y-94080500D01*
X141807072Y-94080500D01*
X141874111Y-94100185D01*
X141912609Y-94139401D01*
X141972288Y-94236156D01*
X142096344Y-94360212D01*
X142245666Y-94452314D01*
X142412203Y-94507499D01*
X142514991Y-94518000D01*
X143565008Y-94517999D01*
X143565016Y-94517998D01*
X143565019Y-94517998D01*
X143621302Y-94512248D01*
X143667797Y-94507499D01*
X143834334Y-94452314D01*
X143983656Y-94360212D01*
X144043526Y-94300342D01*
X144104849Y-94266857D01*
X144174541Y-94271841D01*
X144230474Y-94313713D01*
X144236742Y-94322920D01*
X144277288Y-94388656D01*
X144401344Y-94512712D01*
X144550666Y-94604814D01*
X144717203Y-94659999D01*
X144819991Y-94670500D01*
X145620008Y-94670499D01*
X145620016Y-94670498D01*
X145620019Y-94670498D01*
X145676302Y-94664748D01*
X145722797Y-94659999D01*
X145889334Y-94604814D01*
X146038656Y-94512712D01*
X146132319Y-94419049D01*
X146193642Y-94385564D01*
X146263334Y-94390548D01*
X146307681Y-94419049D01*
X146401344Y-94512712D01*
X146550666Y-94604814D01*
X146717203Y-94659999D01*
X146819991Y-94670500D01*
X147620008Y-94670499D01*
X147620016Y-94670498D01*
X147620019Y-94670498D01*
X147676302Y-94664748D01*
X147722797Y-94659999D01*
X147889334Y-94604814D01*
X148038656Y-94512712D01*
X148044549Y-94506819D01*
X148105872Y-94473334D01*
X148132230Y-94470500D01*
X148614558Y-94470500D01*
X148681597Y-94490185D01*
X148727352Y-94542989D01*
X148737296Y-94612147D01*
X148726941Y-94646903D01*
X148725186Y-94650665D01*
X148697593Y-94733934D01*
X148670001Y-94817203D01*
X148670001Y-94817204D01*
X148670000Y-94817204D01*
X148659500Y-94919983D01*
X148659500Y-95920001D01*
X148659501Y-95920019D01*
X148670000Y-96022796D01*
X148670001Y-96022799D01*
X148716779Y-96163963D01*
X148725186Y-96189334D01*
X148741039Y-96215036D01*
X148759500Y-96280132D01*
X148759500Y-96887735D01*
X148739815Y-96954774D01*
X148709812Y-96987001D01*
X148662457Y-97022451D01*
X148662451Y-97022457D01*
X148576206Y-97137664D01*
X148576202Y-97137671D01*
X148525908Y-97272517D01*
X148519501Y-97332116D01*
X148519501Y-97332123D01*
X148519500Y-97332135D01*
X148519500Y-98927870D01*
X148519501Y-98927876D01*
X148525908Y-98987483D01*
X148576202Y-99122328D01*
X148576206Y-99122335D01*
X148662452Y-99237544D01*
X148662455Y-99237547D01*
X148777664Y-99323793D01*
X148777671Y-99323797D01*
X148912517Y-99374091D01*
X148912516Y-99374091D01*
X148919444Y-99374835D01*
X148972127Y-99380500D01*
X150567872Y-99380499D01*
X150627483Y-99374091D01*
X150762331Y-99323796D01*
X150877546Y-99237546D01*
X150963796Y-99122331D01*
X151014091Y-98987483D01*
X151020500Y-98927873D01*
X151020499Y-97332128D01*
X151014091Y-97272517D01*
X151004296Y-97246256D01*
X150963797Y-97137671D01*
X150963793Y-97137664D01*
X150877547Y-97022455D01*
X150810188Y-96972029D01*
X150768318Y-96916095D01*
X150760500Y-96872763D01*
X150760500Y-96572753D01*
X150780185Y-96505714D01*
X150832989Y-96459959D01*
X150902147Y-96450015D01*
X150949597Y-96467215D01*
X151090869Y-96554353D01*
X151090880Y-96554358D01*
X151257302Y-96609505D01*
X151257309Y-96609506D01*
X151360019Y-96619999D01*
X151509999Y-96619999D01*
X151510000Y-96619998D01*
X151510000Y-95670000D01*
X152010000Y-95670000D01*
X152010000Y-96619999D01*
X152159972Y-96619999D01*
X152159986Y-96619998D01*
X152262697Y-96609505D01*
X152429119Y-96554358D01*
X152429124Y-96554356D01*
X152578345Y-96462315D01*
X152702315Y-96338345D01*
X152794356Y-96189124D01*
X152794358Y-96189119D01*
X152849505Y-96022697D01*
X152849506Y-96022690D01*
X152859999Y-95919986D01*
X152860000Y-95919973D01*
X152860000Y-95670000D01*
X152010000Y-95670000D01*
X151510000Y-95670000D01*
X151510000Y-94220000D01*
X152010000Y-94220000D01*
X152010000Y-95170000D01*
X152859999Y-95170000D01*
X152859999Y-94920028D01*
X152859998Y-94920013D01*
X152849505Y-94817302D01*
X152794358Y-94650880D01*
X152794356Y-94650875D01*
X152702315Y-94501654D01*
X152578345Y-94377684D01*
X152429124Y-94285643D01*
X152429119Y-94285641D01*
X152262697Y-94230494D01*
X152262690Y-94230493D01*
X152159986Y-94220000D01*
X152010000Y-94220000D01*
X151510000Y-94220000D01*
X151360027Y-94220000D01*
X151360012Y-94220001D01*
X151257302Y-94230494D01*
X151126337Y-94273892D01*
X151056509Y-94276294D01*
X150996467Y-94240562D01*
X150965274Y-94178042D01*
X150972835Y-94108582D01*
X150999649Y-94068507D01*
X151082972Y-93985185D01*
X151170978Y-93839606D01*
X151221586Y-93677196D01*
X151228000Y-93606616D01*
X151228000Y-93093384D01*
X151227285Y-93085519D01*
X151240821Y-93016975D01*
X151289267Y-92966629D01*
X151357242Y-92950467D01*
X151423163Y-92973620D01*
X151456891Y-93010146D01*
X151469804Y-93031506D01*
X151472030Y-93035188D01*
X151592311Y-93155469D01*
X151592313Y-93155470D01*
X151592315Y-93155472D01*
X151737894Y-93243478D01*
X151900304Y-93294086D01*
X151970884Y-93300500D01*
X152312402Y-93300500D01*
X152359854Y-93309939D01*
X152432342Y-93339964D01*
X152485665Y-93362051D01*
X152485669Y-93362051D01*
X152485670Y-93362052D01*
X152678956Y-93400500D01*
X152678959Y-93400500D01*
X153378542Y-93400500D01*
X153397870Y-93396655D01*
X153475188Y-93381275D01*
X153571836Y-93362051D01*
X153625165Y-93339961D01*
X153753914Y-93286632D01*
X153829408Y-93236187D01*
X153834074Y-93233219D01*
X153962685Y-93155472D01*
X154082972Y-93035185D01*
X154110701Y-92989313D01*
X154129130Y-92965790D01*
X154177139Y-92917782D01*
X154205000Y-92876086D01*
X154269536Y-92779500D01*
X154286631Y-92753916D01*
X154286631Y-92753915D01*
X154286632Y-92753914D01*
X154362052Y-92571835D01*
X154395953Y-92401401D01*
X154400500Y-92378541D01*
X154400500Y-87415782D01*
X154420185Y-87348743D01*
X154436819Y-87328101D01*
X162318101Y-79446819D01*
X162379424Y-79413334D01*
X162405782Y-79410500D01*
X163615217Y-79410500D01*
X163682256Y-79430185D01*
G37*
%TD.AperFunction*%
%TA.AperFunction,Conductor*%
G36*
X138298040Y-100770185D02*
G01*
X138343795Y-100822989D01*
X138355001Y-100874500D01*
X138355001Y-100889324D01*
X138370442Y-101006622D01*
X138370445Y-101006634D01*
X138378837Y-101026895D01*
X138386304Y-101096364D01*
X138378838Y-101121794D01*
X138369956Y-101143238D01*
X138369955Y-101143239D01*
X138354500Y-101260638D01*
X138354500Y-101331830D01*
X138334815Y-101398869D01*
X138282011Y-101444624D01*
X138212853Y-101454568D01*
X138149297Y-101425543D01*
X138124961Y-101396926D01*
X138112421Y-101376596D01*
X138055212Y-101283844D01*
X137961549Y-101190181D01*
X137928064Y-101128858D01*
X137933048Y-101059166D01*
X137961549Y-101014819D01*
X138002277Y-100974091D01*
X138055212Y-100921156D01*
X138124141Y-100809402D01*
X138176087Y-100762679D01*
X138229679Y-100750500D01*
X138231001Y-100750500D01*
X138298040Y-100770185D01*
G37*
%TD.AperFunction*%
%TA.AperFunction,Conductor*%
G36*
X161496070Y-77300185D02*
G01*
X161541825Y-77352989D01*
X161551769Y-77422147D01*
X161522744Y-77485703D01*
X161476484Y-77519060D01*
X161469291Y-77522040D01*
X161466083Y-77523369D01*
X161466079Y-77523371D01*
X161302219Y-77632859D01*
X161264895Y-77670184D01*
X161162861Y-77772218D01*
X161162858Y-77772221D01*
X152762221Y-86172858D01*
X152762218Y-86172861D01*
X152692538Y-86242540D01*
X152622859Y-86312219D01*
X152513371Y-86476079D01*
X152513364Y-86476092D01*
X152461472Y-86601374D01*
X152461472Y-86601375D01*
X152443555Y-86644631D01*
X152437949Y-86658164D01*
X152433705Y-86679500D01*
X152433705Y-86679501D01*
X152399501Y-86851451D01*
X152399500Y-86851456D01*
X152399500Y-91375500D01*
X152379815Y-91442539D01*
X152327011Y-91488294D01*
X152275500Y-91499500D01*
X151970884Y-91499500D01*
X151951645Y-91501248D01*
X151900307Y-91505913D01*
X151737893Y-91556522D01*
X151592311Y-91644530D01*
X151472030Y-91764811D01*
X151456892Y-91789853D01*
X151405363Y-91837039D01*
X151336503Y-91848877D01*
X151272175Y-91821607D01*
X151232802Y-91763887D01*
X151227285Y-91714480D01*
X151228000Y-91706616D01*
X151228000Y-91193384D01*
X151221586Y-91122804D01*
X151170978Y-90960394D01*
X151082972Y-90814815D01*
X151082970Y-90814813D01*
X151082969Y-90814811D01*
X150962688Y-90694530D01*
X150941327Y-90681617D01*
X150817106Y-90606522D01*
X150654696Y-90555914D01*
X150654694Y-90555913D01*
X150654692Y-90555913D01*
X150605278Y-90551423D01*
X150584116Y-90549500D01*
X148970884Y-90549500D01*
X148951645Y-90551248D01*
X148900307Y-90555913D01*
X148737893Y-90606522D01*
X148704001Y-90627011D01*
X148613671Y-90681617D01*
X148549523Y-90699500D01*
X148390419Y-90699500D01*
X148323380Y-90679815D01*
X148277625Y-90627011D01*
X148272713Y-90614505D01*
X148264814Y-90590666D01*
X148172712Y-90441344D01*
X148048656Y-90317288D01*
X147899334Y-90225186D01*
X147732797Y-90170001D01*
X147732795Y-90170000D01*
X147630010Y-90159500D01*
X146829998Y-90159500D01*
X146829980Y-90159501D01*
X146727203Y-90170000D01*
X146727200Y-90170001D01*
X146560668Y-90225185D01*
X146560663Y-90225187D01*
X146411342Y-90317289D01*
X146317681Y-90410951D01*
X146256358Y-90444436D01*
X146186666Y-90439452D01*
X146142319Y-90410951D01*
X146048657Y-90317289D01*
X146048656Y-90317288D01*
X145899334Y-90225186D01*
X145732797Y-90170001D01*
X145732795Y-90170000D01*
X145630010Y-90159500D01*
X144829998Y-90159500D01*
X144829980Y-90159501D01*
X144727203Y-90170000D01*
X144727200Y-90170001D01*
X144560668Y-90225185D01*
X144560663Y-90225187D01*
X144411342Y-90317289D01*
X144287287Y-90441344D01*
X144260097Y-90485427D01*
X144208149Y-90532151D01*
X144139186Y-90543372D01*
X144075104Y-90515529D01*
X144066878Y-90508010D01*
X143983657Y-90424789D01*
X143983656Y-90424788D01*
X143890888Y-90367569D01*
X143834336Y-90332687D01*
X143834331Y-90332685D01*
X143807026Y-90323637D01*
X143667797Y-90277501D01*
X143667795Y-90277500D01*
X143565010Y-90267000D01*
X142514998Y-90267000D01*
X142514980Y-90267001D01*
X142412203Y-90277500D01*
X142412200Y-90277501D01*
X142245668Y-90332685D01*
X142245663Y-90332687D01*
X142096342Y-90424789D01*
X142063227Y-90457904D01*
X142001904Y-90491389D01*
X141932212Y-90486403D01*
X141876279Y-90444531D01*
X141851863Y-90379066D01*
X141860986Y-90322770D01*
X141880044Y-90276762D01*
X141891380Y-90190650D01*
X141919646Y-90126755D01*
X141977970Y-90088283D01*
X141986736Y-90085943D01*
X141989249Y-90085368D01*
X141989255Y-90085368D01*
X142159522Y-90025789D01*
X142312262Y-89929816D01*
X142439816Y-89802262D01*
X142535789Y-89649522D01*
X142595368Y-89479255D01*
X142599115Y-89445999D01*
X142615565Y-89300003D01*
X142615565Y-89299996D01*
X142598652Y-89149886D01*
X142610707Y-89081064D01*
X142658056Y-89029685D01*
X142725666Y-89012061D01*
X142734478Y-89012645D01*
X142757523Y-89014999D01*
X142894999Y-89014999D01*
X142895000Y-89014998D01*
X142895000Y-88040000D01*
X143395000Y-88040000D01*
X143395000Y-89014999D01*
X143532472Y-89014999D01*
X143532486Y-89014998D01*
X143635197Y-89004505D01*
X143801619Y-88949358D01*
X143801624Y-88949356D01*
X143950845Y-88857315D01*
X144074815Y-88733345D01*
X144166856Y-88584124D01*
X144166858Y-88584119D01*
X144222005Y-88417697D01*
X144222006Y-88417690D01*
X144232499Y-88314986D01*
X144232500Y-88314973D01*
X144232500Y-88040000D01*
X143395000Y-88040000D01*
X142895000Y-88040000D01*
X142895000Y-86565000D01*
X143395000Y-86565000D01*
X143395000Y-87540000D01*
X144232499Y-87540000D01*
X144232499Y-87265028D01*
X144232498Y-87265013D01*
X144222005Y-87162302D01*
X144166858Y-86995880D01*
X144166856Y-86995875D01*
X144074815Y-86846654D01*
X143950845Y-86722684D01*
X143801624Y-86630643D01*
X143801619Y-86630641D01*
X143635197Y-86575494D01*
X143635190Y-86575493D01*
X143532486Y-86565000D01*
X143395000Y-86565000D01*
X142895000Y-86565000D01*
X142757527Y-86565000D01*
X142757512Y-86565001D01*
X142654802Y-86575494D01*
X142488380Y-86630641D01*
X142488375Y-86630643D01*
X142339154Y-86722684D01*
X142215183Y-86846655D01*
X142215179Y-86846660D01*
X142213326Y-86849665D01*
X142211518Y-86851290D01*
X142210702Y-86852323D01*
X142210525Y-86852183D01*
X142161374Y-86896385D01*
X142092411Y-86907601D01*
X142028331Y-86879752D01*
X142002253Y-86849653D01*
X142002237Y-86849628D01*
X142000212Y-86846344D01*
X141876156Y-86722288D01*
X141727572Y-86630641D01*
X141726836Y-86630187D01*
X141726831Y-86630185D01*
X141719223Y-86627664D01*
X141560297Y-86575001D01*
X141560295Y-86575000D01*
X141457510Y-86564500D01*
X140682498Y-86564500D01*
X140682480Y-86564501D01*
X140579703Y-86575000D01*
X140579700Y-86575001D01*
X140413168Y-86630185D01*
X140413159Y-86630190D01*
X140363144Y-86661039D01*
X140298048Y-86679500D01*
X140099972Y-86679500D01*
X140059017Y-86672542D01*
X139979254Y-86644631D01*
X139979249Y-86644630D01*
X139800004Y-86624435D01*
X139799996Y-86624435D01*
X139620750Y-86644630D01*
X139620745Y-86644631D01*
X139450476Y-86704211D01*
X139297737Y-86800184D01*
X139170184Y-86927737D01*
X139074211Y-87080476D01*
X139014631Y-87250745D01*
X139014630Y-87250750D01*
X138994435Y-87429996D01*
X138994435Y-87430003D01*
X139014630Y-87609249D01*
X139014631Y-87609254D01*
X139074211Y-87779523D01*
X139148448Y-87897669D01*
X139170184Y-87932262D01*
X139297738Y-88059816D01*
X139388080Y-88116582D01*
X139447985Y-88154223D01*
X139450478Y-88155789D01*
X139606827Y-88210498D01*
X139620745Y-88215368D01*
X139620750Y-88215369D01*
X139799996Y-88235565D01*
X139800000Y-88235565D01*
X139847398Y-88230224D01*
X139916217Y-88242277D01*
X139967598Y-88289626D01*
X139984639Y-88340841D01*
X139992501Y-88417797D01*
X139992501Y-88417799D01*
X140047685Y-88584331D01*
X140047687Y-88584336D01*
X140064957Y-88612335D01*
X140139788Y-88733656D01*
X140263844Y-88857712D01*
X140360597Y-88917389D01*
X140407321Y-88969335D01*
X140419500Y-89022927D01*
X140419500Y-89445999D01*
X140399815Y-89513038D01*
X140393876Y-89521485D01*
X140320464Y-89617157D01*
X140259956Y-89763237D01*
X140259955Y-89763239D01*
X140244500Y-89880638D01*
X140244500Y-90159363D01*
X140259953Y-90276753D01*
X140259956Y-90276762D01*
X140283120Y-90332686D01*
X140320464Y-90422841D01*
X140416718Y-90548282D01*
X140447140Y-90571625D01*
X140488341Y-90628052D01*
X140492496Y-90697798D01*
X140458283Y-90758719D01*
X140447146Y-90768369D01*
X140423748Y-90786324D01*
X140416718Y-90791718D01*
X140320463Y-90917160D01*
X140259956Y-91063237D01*
X140259955Y-91063239D01*
X140244499Y-91180640D01*
X140244319Y-91183395D01*
X140244034Y-91184170D01*
X140243970Y-91184664D01*
X140243859Y-91184649D01*
X140220288Y-91249002D01*
X140164602Y-91291202D01*
X140094941Y-91296596D01*
X140033421Y-91263473D01*
X140032904Y-91262958D01*
X140031650Y-91261704D01*
X139998165Y-91200381D01*
X139995596Y-91182126D01*
X139995499Y-91180658D01*
X139995499Y-91180640D01*
X139987886Y-91122807D01*
X139980046Y-91063246D01*
X139980044Y-91063239D01*
X139980044Y-91063238D01*
X139971162Y-91041797D01*
X139963694Y-90972328D01*
X139971164Y-90946890D01*
X139979555Y-90926632D01*
X139979555Y-90926630D01*
X139987012Y-90870000D01*
X139944500Y-90870000D01*
X139877461Y-90850315D01*
X139846125Y-90821487D01*
X139823283Y-90791719D01*
X139816252Y-90786324D01*
X139792860Y-90768374D01*
X139751658Y-90711949D01*
X139747503Y-90642203D01*
X139781714Y-90581282D01*
X139792851Y-90571631D01*
X139823282Y-90548282D01*
X139836018Y-90531684D01*
X139846125Y-90518513D01*
X139902553Y-90477310D01*
X139944500Y-90470000D01*
X139987010Y-90470000D01*
X139987011Y-90469998D01*
X139979558Y-90413377D01*
X139979554Y-90413365D01*
X139971163Y-90393106D01*
X139963694Y-90323637D01*
X139971164Y-90298199D01*
X139980044Y-90276762D01*
X139995500Y-90159361D01*
X139995499Y-89880640D01*
X139995499Y-89880638D01*
X139995499Y-89880636D01*
X139980046Y-89763246D01*
X139980044Y-89763239D01*
X139980044Y-89763238D01*
X139919536Y-89617159D01*
X139823282Y-89491718D01*
X139697841Y-89395464D01*
X139671178Y-89384420D01*
X139551762Y-89334956D01*
X139551760Y-89334955D01*
X139434361Y-89319500D01*
X138905636Y-89319500D01*
X138788246Y-89334953D01*
X138788237Y-89334956D01*
X138727630Y-89360061D01*
X138680177Y-89369500D01*
X138157134Y-89369500D01*
X138090095Y-89349815D01*
X138051595Y-89310597D01*
X138045059Y-89300000D01*
X138002712Y-89231344D01*
X137878656Y-89107288D01*
X137752841Y-89029685D01*
X137729336Y-89015187D01*
X137729331Y-89015185D01*
X137728767Y-89014998D01*
X137721789Y-89012685D01*
X137664346Y-88972915D01*
X137637523Y-88908399D01*
X137649838Y-88839623D01*
X137686481Y-88795716D01*
X137777546Y-88727546D01*
X137863796Y-88612331D01*
X137914091Y-88477483D01*
X137920500Y-88417873D01*
X137920499Y-86822128D01*
X137914091Y-86762517D01*
X137899234Y-86722684D01*
X137863797Y-86627671D01*
X137863793Y-86627664D01*
X137777547Y-86512455D01*
X137777544Y-86512452D01*
X137662335Y-86426206D01*
X137662328Y-86426202D01*
X137527482Y-86375908D01*
X137527483Y-86375908D01*
X137467883Y-86369501D01*
X137467881Y-86369500D01*
X137467873Y-86369500D01*
X137467864Y-86369500D01*
X135872129Y-86369500D01*
X135872123Y-86369501D01*
X135812516Y-86375908D01*
X135677671Y-86426202D01*
X135677664Y-86426206D01*
X135562455Y-86512452D01*
X135562452Y-86512455D01*
X135476206Y-86627664D01*
X135476202Y-86627671D01*
X135425908Y-86762517D01*
X135421859Y-86800184D01*
X135419501Y-86822123D01*
X135419500Y-86822135D01*
X135419500Y-88417870D01*
X135419501Y-88417876D01*
X135425908Y-88477483D01*
X135476202Y-88612328D01*
X135476206Y-88612335D01*
X135562452Y-88727544D01*
X135562455Y-88727547D01*
X135677664Y-88813793D01*
X135677671Y-88813797D01*
X135722618Y-88830561D01*
X135812517Y-88864091D01*
X135872127Y-88870500D01*
X135988001Y-88870499D01*
X136055039Y-88890183D01*
X136100794Y-88942987D01*
X136110738Y-89012145D01*
X136081714Y-89075701D01*
X136053102Y-89100035D01*
X136041343Y-89107288D01*
X135917289Y-89231342D01*
X135825187Y-89380663D01*
X135825185Y-89380668D01*
X135820076Y-89396086D01*
X135770001Y-89547203D01*
X135770001Y-89547204D01*
X135770000Y-89547204D01*
X135759500Y-89649983D01*
X135759500Y-90450001D01*
X135759501Y-90450019D01*
X135770000Y-90552796D01*
X135770001Y-90552799D01*
X135790449Y-90614505D01*
X135817276Y-90695464D01*
X135824246Y-90716496D01*
X135826648Y-90786324D01*
X135790916Y-90846366D01*
X135728396Y-90877559D01*
X135706540Y-90879500D01*
X131567721Y-90879500D01*
X131500682Y-90859815D01*
X131466146Y-90826623D01*
X131443653Y-90794500D01*
X131377134Y-90699500D01*
X131348496Y-90658600D01*
X131296418Y-90606522D01*
X131226567Y-90536671D01*
X131193084Y-90475351D01*
X131198068Y-90405659D01*
X131239939Y-90349725D01*
X131270915Y-90332810D01*
X131402331Y-90283796D01*
X131517546Y-90197546D01*
X131603796Y-90082331D01*
X131654091Y-89947483D01*
X131660500Y-89887873D01*
X131660499Y-88092128D01*
X131654091Y-88032517D01*
X131624182Y-87952328D01*
X131603797Y-87897671D01*
X131603793Y-87897664D01*
X131517547Y-87782455D01*
X131517544Y-87782452D01*
X131402335Y-87696206D01*
X131402328Y-87696202D01*
X131267482Y-87645908D01*
X131267483Y-87645908D01*
X131207883Y-87639501D01*
X131207881Y-87639500D01*
X131207873Y-87639500D01*
X131207865Y-87639500D01*
X131084500Y-87639500D01*
X131017461Y-87619815D01*
X130971706Y-87567011D01*
X130960500Y-87515500D01*
X130960500Y-86370807D01*
X130980185Y-86303768D01*
X130996814Y-86283131D01*
X135650180Y-81629764D01*
X135711501Y-81596281D01*
X135781193Y-81601265D01*
X135837126Y-81643137D01*
X135843394Y-81652345D01*
X135847283Y-81658650D01*
X135847288Y-81658656D01*
X135971344Y-81782712D01*
X136120666Y-81874814D01*
X136287203Y-81929999D01*
X136389991Y-81940500D01*
X137390008Y-81940499D01*
X137390016Y-81940498D01*
X137390019Y-81940498D01*
X137446302Y-81934748D01*
X137492797Y-81929999D01*
X137659334Y-81874814D01*
X137808656Y-81782712D01*
X137932712Y-81658656D01*
X138024814Y-81509334D01*
X138079999Y-81342797D01*
X138090500Y-81240009D01*
X138090499Y-80642533D01*
X138110183Y-80575495D01*
X138162987Y-80529740D01*
X138232146Y-80519796D01*
X138295702Y-80548821D01*
X138312872Y-80567044D01*
X138386718Y-80663282D01*
X138512159Y-80759536D01*
X138658238Y-80820044D01*
X138775639Y-80835500D01*
X138775649Y-80835499D01*
X138777124Y-80835597D01*
X138777544Y-80835750D01*
X138779664Y-80836030D01*
X138779601Y-80836504D01*
X138842735Y-80859619D01*
X138856705Y-80871651D01*
X140710324Y-82725271D01*
X140710327Y-82725274D01*
X140815388Y-82795473D01*
X140815386Y-82795475D01*
X140815400Y-82795480D01*
X140816873Y-82796465D01*
X140935256Y-82845501D01*
X140935260Y-82845501D01*
X140935261Y-82845502D01*
X141060928Y-82870500D01*
X141060931Y-82870500D01*
X141607072Y-82870500D01*
X141674111Y-82890185D01*
X141712609Y-82929401D01*
X141772288Y-83026156D01*
X141896344Y-83150212D01*
X142045666Y-83242314D01*
X142212203Y-83297499D01*
X142314991Y-83308000D01*
X143365008Y-83307999D01*
X143365016Y-83307998D01*
X143365019Y-83307998D01*
X143421302Y-83302248D01*
X143467797Y-83297499D01*
X143634334Y-83242314D01*
X143783656Y-83150212D01*
X143801675Y-83132192D01*
X143862995Y-83098707D01*
X143932687Y-83103690D01*
X143988622Y-83145560D01*
X143994893Y-83154774D01*
X143997285Y-83158652D01*
X143997288Y-83158656D01*
X144121344Y-83282712D01*
X144270666Y-83374814D01*
X144437203Y-83429999D01*
X144539991Y-83440500D01*
X145340008Y-83440499D01*
X145340016Y-83440498D01*
X145340019Y-83440498D01*
X145396302Y-83434748D01*
X145442797Y-83429999D01*
X145609334Y-83374814D01*
X145758656Y-83282712D01*
X145852319Y-83189049D01*
X145913642Y-83155564D01*
X145983334Y-83160548D01*
X146027681Y-83189049D01*
X146121344Y-83282712D01*
X146270666Y-83374814D01*
X146437203Y-83429999D01*
X146539991Y-83440500D01*
X147340008Y-83440499D01*
X147340016Y-83440498D01*
X147340019Y-83440498D01*
X147396302Y-83434748D01*
X147442797Y-83429999D01*
X147609334Y-83374814D01*
X147758656Y-83282712D01*
X147764549Y-83276819D01*
X147825872Y-83243334D01*
X147852230Y-83240500D01*
X148315500Y-83240500D01*
X148382539Y-83260185D01*
X148428294Y-83312989D01*
X148439500Y-83364500D01*
X148439500Y-83437442D01*
X148421039Y-83502538D01*
X148385189Y-83560659D01*
X148385185Y-83560668D01*
X148357349Y-83644670D01*
X148330001Y-83727203D01*
X148330001Y-83727204D01*
X148330000Y-83727204D01*
X148319500Y-83829983D01*
X148319500Y-84830001D01*
X148319501Y-84830019D01*
X148330000Y-84932796D01*
X148330001Y-84932799D01*
X148335804Y-84950310D01*
X148385186Y-85099334D01*
X148401039Y-85125036D01*
X148419500Y-85190132D01*
X148419500Y-85725221D01*
X148399815Y-85792260D01*
X148369812Y-85824487D01*
X148332457Y-85852450D01*
X148332451Y-85852457D01*
X148246206Y-85967664D01*
X148246202Y-85967671D01*
X148195908Y-86102517D01*
X148189501Y-86162116D01*
X148189501Y-86162123D01*
X148189500Y-86162135D01*
X148189500Y-87757870D01*
X148189501Y-87757876D01*
X148195908Y-87817483D01*
X148246202Y-87952328D01*
X148246206Y-87952335D01*
X148332452Y-88067544D01*
X148332455Y-88067547D01*
X148447664Y-88153793D01*
X148447671Y-88153797D01*
X148582517Y-88204091D01*
X148582516Y-88204091D01*
X148589444Y-88204835D01*
X148642127Y-88210500D01*
X150237872Y-88210499D01*
X150297483Y-88204091D01*
X150432331Y-88153796D01*
X150547546Y-88067546D01*
X150633796Y-87952331D01*
X150684091Y-87817483D01*
X150690500Y-87757873D01*
X150690499Y-86162128D01*
X150684091Y-86102517D01*
X150654771Y-86023907D01*
X150633797Y-85967671D01*
X150633793Y-85967664D01*
X150547547Y-85852455D01*
X150547540Y-85852450D01*
X150510187Y-85824487D01*
X150470188Y-85794543D01*
X150428318Y-85738609D01*
X150420500Y-85695277D01*
X150420500Y-85482753D01*
X150440185Y-85415714D01*
X150492989Y-85369959D01*
X150562147Y-85360015D01*
X150609597Y-85377215D01*
X150750869Y-85464353D01*
X150750880Y-85464358D01*
X150917302Y-85519505D01*
X150917309Y-85519506D01*
X151020019Y-85529999D01*
X151169999Y-85529999D01*
X151170000Y-85529998D01*
X151170000Y-84580000D01*
X151670000Y-84580000D01*
X151670000Y-85529999D01*
X151819972Y-85529999D01*
X151819986Y-85529998D01*
X151922697Y-85519505D01*
X152089119Y-85464358D01*
X152089124Y-85464356D01*
X152238345Y-85372315D01*
X152362315Y-85248345D01*
X152454356Y-85099124D01*
X152454358Y-85099119D01*
X152509505Y-84932697D01*
X152509506Y-84932690D01*
X152519999Y-84829986D01*
X152520000Y-84829973D01*
X152520000Y-84580000D01*
X151670000Y-84580000D01*
X151170000Y-84580000D01*
X151170000Y-83130000D01*
X151670000Y-83130000D01*
X151670000Y-84080000D01*
X152519999Y-84080000D01*
X152519999Y-83830028D01*
X152519998Y-83830013D01*
X152509505Y-83727302D01*
X152454358Y-83560880D01*
X152454356Y-83560875D01*
X152362315Y-83411654D01*
X152238345Y-83287684D01*
X152089124Y-83195643D01*
X152089119Y-83195641D01*
X151922697Y-83140494D01*
X151922690Y-83140493D01*
X151819986Y-83130000D01*
X151670000Y-83130000D01*
X151170000Y-83130000D01*
X151020027Y-83130000D01*
X151020012Y-83130001D01*
X150917302Y-83140494D01*
X150750880Y-83195641D01*
X150750875Y-83195643D01*
X150629597Y-83270449D01*
X150562204Y-83288889D01*
X150495541Y-83267966D01*
X150450771Y-83214324D01*
X150440500Y-83164910D01*
X150440500Y-82977054D01*
X150460185Y-82910015D01*
X150500347Y-82870938D01*
X150625185Y-82795472D01*
X150745472Y-82675185D01*
X150833478Y-82529606D01*
X150884086Y-82367196D01*
X150890500Y-82296616D01*
X150890500Y-81783384D01*
X150889785Y-81775519D01*
X150903321Y-81706975D01*
X150951767Y-81656629D01*
X151019742Y-81640467D01*
X151085663Y-81663620D01*
X151119391Y-81700146D01*
X151131825Y-81720714D01*
X151134530Y-81725188D01*
X151254811Y-81845469D01*
X151254813Y-81845470D01*
X151254815Y-81845472D01*
X151400394Y-81933478D01*
X151562804Y-81984086D01*
X151633384Y-81990500D01*
X151974902Y-81990500D01*
X152022354Y-81999939D01*
X152073418Y-82021090D01*
X152148165Y-82052051D01*
X152148169Y-82052051D01*
X152148170Y-82052052D01*
X152341456Y-82090500D01*
X152341459Y-82090500D01*
X154668542Y-82090500D01*
X154687870Y-82086655D01*
X154765188Y-82071275D01*
X154861836Y-82052051D01*
X154936589Y-82021087D01*
X155043914Y-81976632D01*
X155207782Y-81867139D01*
X155347139Y-81727782D01*
X155347140Y-81727779D01*
X155354206Y-81720714D01*
X155354208Y-81720710D01*
X159758101Y-77316819D01*
X159819424Y-77283334D01*
X159845782Y-77280500D01*
X161429031Y-77280500D01*
X161496070Y-77300185D01*
G37*
%TD.AperFunction*%
%TA.AperFunction,Conductor*%
G36*
X138288040Y-90690185D02*
G01*
X138333795Y-90742989D01*
X138345001Y-90794500D01*
X138345001Y-90809324D01*
X138360442Y-90926622D01*
X138360445Y-90926634D01*
X138368837Y-90946895D01*
X138376304Y-91016364D01*
X138368838Y-91041794D01*
X138359956Y-91063238D01*
X138359955Y-91063239D01*
X138344500Y-91180638D01*
X138344500Y-91365747D01*
X138324815Y-91432786D01*
X138272011Y-91478541D01*
X138202853Y-91488485D01*
X138139297Y-91459460D01*
X138102795Y-91404752D01*
X138094814Y-91380666D01*
X138002712Y-91231344D01*
X137909049Y-91137681D01*
X137875564Y-91076358D01*
X137880548Y-91006666D01*
X137909049Y-90962319D01*
X137954209Y-90917159D01*
X138002712Y-90868656D01*
X138088603Y-90729402D01*
X138140551Y-90682679D01*
X138194142Y-90670500D01*
X138221001Y-90670500D01*
X138288040Y-90690185D01*
G37*
%TD.AperFunction*%
%TA.AperFunction,Conductor*%
G36*
X138171081Y-79542012D02*
G01*
X138209938Y-79600081D01*
X138214567Y-79621029D01*
X138230442Y-79741622D01*
X138230445Y-79741634D01*
X138238837Y-79761895D01*
X138246304Y-79831364D01*
X138238838Y-79856794D01*
X138229956Y-79878238D01*
X138229955Y-79878239D01*
X138214500Y-79995638D01*
X138214500Y-80040957D01*
X138194815Y-80107996D01*
X138142011Y-80153751D01*
X138072853Y-80163695D01*
X138009297Y-80134670D01*
X137984961Y-80106054D01*
X137932712Y-80021344D01*
X137839049Y-79927681D01*
X137805564Y-79866358D01*
X137810548Y-79796666D01*
X137839049Y-79752319D01*
X137877293Y-79714075D01*
X137932712Y-79658656D01*
X137986089Y-79572116D01*
X138038036Y-79525392D01*
X138106999Y-79514169D01*
X138171081Y-79542012D01*
G37*
%TD.AperFunction*%
%TA.AperFunction,Conductor*%
G36*
X201582702Y-71220617D02*
G01*
X201966771Y-71237386D01*
X201977506Y-71238326D01*
X202355971Y-71288152D01*
X202366597Y-71290025D01*
X202739284Y-71372648D01*
X202749710Y-71375442D01*
X203113765Y-71490227D01*
X203123911Y-71493920D01*
X203476578Y-71640000D01*
X203486369Y-71644566D01*
X203771233Y-71792857D01*
X203824942Y-71820816D01*
X203834310Y-71826224D01*
X204156244Y-72031318D01*
X204165105Y-72037523D01*
X204467930Y-72269889D01*
X204476217Y-72276843D01*
X204757635Y-72534715D01*
X204765284Y-72542364D01*
X205023156Y-72823782D01*
X205030110Y-72832069D01*
X205262476Y-73134894D01*
X205268681Y-73143755D01*
X205473775Y-73465689D01*
X205479183Y-73475057D01*
X205655430Y-73813623D01*
X205660002Y-73823427D01*
X205806075Y-74176078D01*
X205809775Y-74186244D01*
X205924554Y-74550278D01*
X205927354Y-74560727D01*
X206009971Y-74933389D01*
X206011849Y-74944042D01*
X206061671Y-75322473D01*
X206062614Y-75333249D01*
X206079382Y-75717297D01*
X206079500Y-75722706D01*
X206079500Y-115717293D01*
X206079382Y-115722702D01*
X206062614Y-116106750D01*
X206061671Y-116117526D01*
X206011849Y-116495957D01*
X206009971Y-116506610D01*
X205927354Y-116879272D01*
X205924554Y-116889721D01*
X205809775Y-117253755D01*
X205806075Y-117263921D01*
X205660002Y-117616572D01*
X205655430Y-117626376D01*
X205479183Y-117964942D01*
X205473775Y-117974310D01*
X205268681Y-118296244D01*
X205262476Y-118305105D01*
X205030110Y-118607930D01*
X205023156Y-118616217D01*
X204765284Y-118897635D01*
X204757635Y-118905284D01*
X204476217Y-119163156D01*
X204467930Y-119170110D01*
X204165105Y-119402476D01*
X204156244Y-119408681D01*
X203834310Y-119613775D01*
X203824942Y-119619183D01*
X203486376Y-119795430D01*
X203476572Y-119800002D01*
X203123921Y-119946075D01*
X203113755Y-119949775D01*
X202749721Y-120064554D01*
X202739272Y-120067354D01*
X202366610Y-120149971D01*
X202355957Y-120151849D01*
X201977527Y-120201671D01*
X201966751Y-120202614D01*
X201582680Y-120219382D01*
X201577271Y-120219500D01*
X201506793Y-120219500D01*
X201506587Y-120219512D01*
X146580161Y-120229498D01*
X146580056Y-120229498D01*
X131624235Y-120219548D01*
X131623494Y-120219500D01*
X131615892Y-120219500D01*
X131552720Y-120219500D01*
X131547311Y-120219382D01*
X131163249Y-120202614D01*
X131152473Y-120201671D01*
X130774042Y-120151849D01*
X130763389Y-120149971D01*
X130390727Y-120067354D01*
X130380278Y-120064554D01*
X130016244Y-119949775D01*
X130006078Y-119946075D01*
X129653427Y-119800002D01*
X129643623Y-119795430D01*
X129305057Y-119619183D01*
X129295689Y-119613775D01*
X128973755Y-119408681D01*
X128964894Y-119402476D01*
X128662069Y-119170110D01*
X128653782Y-119163156D01*
X128372364Y-118905284D01*
X128364715Y-118897635D01*
X128106843Y-118616217D01*
X128099889Y-118607930D01*
X127867523Y-118305105D01*
X127861318Y-118296244D01*
X127815074Y-118223656D01*
X127656223Y-117974309D01*
X127650816Y-117964942D01*
X127606502Y-117879815D01*
X127474566Y-117626369D01*
X127469997Y-117616572D01*
X127392408Y-117429255D01*
X127323920Y-117263911D01*
X127320224Y-117253755D01*
X127319041Y-117250003D01*
X127205442Y-116889710D01*
X127202648Y-116879284D01*
X127120025Y-116506597D01*
X127118152Y-116495971D01*
X127068326Y-116117506D01*
X127067386Y-116106771D01*
X127050618Y-115722702D01*
X127050501Y-115717275D01*
X127066736Y-94070000D01*
X128954341Y-94070000D01*
X128974936Y-94305403D01*
X128974938Y-94305413D01*
X129036094Y-94533655D01*
X129036096Y-94533659D01*
X129036097Y-94533663D01*
X129135965Y-94747830D01*
X129135967Y-94747834D01*
X129244281Y-94902521D01*
X129256539Y-94920028D01*
X129271501Y-94941395D01*
X129271506Y-94941402D01*
X129438597Y-95108493D01*
X129438603Y-95108498D01*
X129606623Y-95226147D01*
X129650248Y-95280724D01*
X129659500Y-95327722D01*
X129659500Y-96734070D01*
X129662817Y-96750745D01*
X129679017Y-96832184D01*
X129683473Y-96854586D01*
X129684499Y-96859744D01*
X129721803Y-96949805D01*
X129733535Y-96978127D01*
X129801438Y-97079752D01*
X129804726Y-97084673D01*
X129804727Y-97084674D01*
X135237224Y-102517169D01*
X135291399Y-102571344D01*
X135327832Y-102607777D01*
X135434366Y-102678961D01*
X135434372Y-102678964D01*
X135434373Y-102678965D01*
X135552756Y-102728001D01*
X135552760Y-102728001D01*
X135552761Y-102728002D01*
X135678428Y-102753000D01*
X135678431Y-102753000D01*
X135796862Y-102753000D01*
X135863901Y-102772685D01*
X135902399Y-102811901D01*
X135969788Y-102921156D01*
X136093844Y-103045212D01*
X136243166Y-103137314D01*
X136409703Y-103192499D01*
X136512491Y-103203000D01*
X137512508Y-103202999D01*
X137512516Y-103202998D01*
X137512519Y-103202998D01*
X137586222Y-103195469D01*
X137615297Y-103192499D01*
X137781834Y-103137314D01*
X137931156Y-103045212D01*
X138055212Y-102921156D01*
X138147314Y-102771834D01*
X138202499Y-102605297D01*
X138213000Y-102502509D01*
X138212999Y-101884726D01*
X138232683Y-101817688D01*
X138285487Y-101771933D01*
X138354646Y-101761989D01*
X138418202Y-101791014D01*
X138435374Y-101809240D01*
X138451191Y-101829853D01*
X138520884Y-101920680D01*
X138526718Y-101928282D01*
X138652159Y-102024536D01*
X138798238Y-102085044D01*
X138915639Y-102100500D01*
X138915649Y-102100499D01*
X138917124Y-102100597D01*
X138917544Y-102100750D01*
X138919664Y-102101030D01*
X138919601Y-102101504D01*
X138982735Y-102124619D01*
X138996705Y-102136651D01*
X140830325Y-103970272D01*
X140830332Y-103970278D01*
X140910838Y-104024070D01*
X140910839Y-104024070D01*
X140935487Y-104040539D01*
X140936873Y-104041465D01*
X141055256Y-104090501D01*
X141055260Y-104090501D01*
X141055261Y-104090502D01*
X141180928Y-104115500D01*
X141180931Y-104115500D01*
X141667072Y-104115500D01*
X141734111Y-104135185D01*
X141772609Y-104174401D01*
X141832288Y-104271156D01*
X141956344Y-104395212D01*
X142105666Y-104487314D01*
X142272203Y-104542499D01*
X142374991Y-104553000D01*
X143425008Y-104552999D01*
X143425016Y-104552998D01*
X143425019Y-104552998D01*
X143481302Y-104547248D01*
X143527797Y-104542499D01*
X143694334Y-104487314D01*
X143843656Y-104395212D01*
X143890694Y-104348173D01*
X143952015Y-104314689D01*
X144021706Y-104319673D01*
X144077640Y-104361544D01*
X144083913Y-104370759D01*
X144107288Y-104408656D01*
X144231344Y-104532712D01*
X144380666Y-104624814D01*
X144547203Y-104679999D01*
X144649991Y-104690500D01*
X145450008Y-104690499D01*
X145450016Y-104690498D01*
X145450019Y-104690498D01*
X145506302Y-104684748D01*
X145552797Y-104679999D01*
X145719334Y-104624814D01*
X145868656Y-104532712D01*
X145962319Y-104439049D01*
X146023642Y-104405564D01*
X146093334Y-104410548D01*
X146137681Y-104439049D01*
X146231344Y-104532712D01*
X146380666Y-104624814D01*
X146547203Y-104679999D01*
X146649991Y-104690500D01*
X147450008Y-104690499D01*
X147450016Y-104690498D01*
X147450019Y-104690498D01*
X147506302Y-104684748D01*
X147552797Y-104679999D01*
X147719334Y-104624814D01*
X147868656Y-104532712D01*
X147874549Y-104526819D01*
X147935872Y-104493334D01*
X147962230Y-104490500D01*
X148355500Y-104490500D01*
X148422539Y-104510185D01*
X148468294Y-104562989D01*
X148479500Y-104614500D01*
X148479500Y-104616081D01*
X148461040Y-104681174D01*
X148455186Y-104690666D01*
X148400001Y-104857203D01*
X148400001Y-104857204D01*
X148400000Y-104857204D01*
X148389500Y-104959983D01*
X148389500Y-105960001D01*
X148389501Y-105960019D01*
X148400000Y-106062796D01*
X148400001Y-106062799D01*
X148454375Y-106226888D01*
X148455186Y-106229334D01*
X148471039Y-106255036D01*
X148489500Y-106320132D01*
X148489500Y-106682707D01*
X148469815Y-106749746D01*
X148439812Y-106781973D01*
X148412457Y-106802450D01*
X148412451Y-106802457D01*
X148326206Y-106917664D01*
X148326202Y-106917671D01*
X148275908Y-107052517D01*
X148269501Y-107112116D01*
X148269501Y-107112123D01*
X148269500Y-107112135D01*
X148269500Y-108707870D01*
X148269501Y-108707876D01*
X148275908Y-108767483D01*
X148326202Y-108902328D01*
X148326204Y-108902331D01*
X148400209Y-109001189D01*
X148424627Y-109066653D01*
X148409776Y-109134926D01*
X148360371Y-109184332D01*
X148300943Y-109199500D01*
X141898899Y-109199500D01*
X141831860Y-109179815D01*
X141786105Y-109127011D01*
X141782717Y-109118833D01*
X141733797Y-108987671D01*
X141733793Y-108987664D01*
X141647547Y-108872455D01*
X141647544Y-108872452D01*
X141532335Y-108786206D01*
X141532328Y-108786202D01*
X141397482Y-108735908D01*
X141397483Y-108735908D01*
X141337883Y-108729501D01*
X141337881Y-108729500D01*
X141337873Y-108729500D01*
X141337864Y-108729500D01*
X140242129Y-108729500D01*
X140242123Y-108729501D01*
X140182516Y-108735908D01*
X140047671Y-108786202D01*
X140047664Y-108786206D01*
X139932455Y-108872452D01*
X139932452Y-108872455D01*
X139846206Y-108987664D01*
X139846202Y-108987671D01*
X139834580Y-109018833D01*
X139792709Y-109074767D01*
X139727244Y-109099184D01*
X139718398Y-109099500D01*
X138165638Y-109099500D01*
X138098599Y-109079815D01*
X138060099Y-109040597D01*
X138046675Y-109018833D01*
X137992712Y-108931344D01*
X137868656Y-108807288D01*
X137868655Y-108807287D01*
X137857714Y-108800539D01*
X137810989Y-108748592D01*
X137799766Y-108679629D01*
X137827609Y-108615547D01*
X137857714Y-108589461D01*
X137868656Y-108582712D01*
X137992712Y-108458656D01*
X138084814Y-108309334D01*
X138139999Y-108142797D01*
X138150500Y-108040009D01*
X138150499Y-107239992D01*
X138139999Y-107137203D01*
X138084814Y-106970666D01*
X137992712Y-106821344D01*
X137899049Y-106727681D01*
X137865564Y-106666358D01*
X137870548Y-106596666D01*
X137899049Y-106552319D01*
X137944153Y-106507215D01*
X137992712Y-106458656D01*
X138084814Y-106309334D01*
X138139999Y-106142797D01*
X138150500Y-106040009D01*
X138150499Y-105239992D01*
X138146197Y-105197882D01*
X138139999Y-105137203D01*
X138139998Y-105137200D01*
X138127149Y-105098424D01*
X138084814Y-104970666D01*
X137992712Y-104821344D01*
X137868656Y-104697288D01*
X137736998Y-104616081D01*
X137719336Y-104605187D01*
X137719331Y-104605185D01*
X137717862Y-104604698D01*
X137552797Y-104550001D01*
X137552795Y-104550000D01*
X137450010Y-104539500D01*
X136449998Y-104539500D01*
X136449980Y-104539501D01*
X136347203Y-104550000D01*
X136347200Y-104550001D01*
X136180668Y-104605185D01*
X136180663Y-104605187D01*
X136165566Y-104614500D01*
X136154963Y-104621039D01*
X136089868Y-104639500D01*
X131794500Y-104639500D01*
X131727461Y-104619815D01*
X131681706Y-104567011D01*
X131670500Y-104515500D01*
X131670500Y-102921458D01*
X131662882Y-102883163D01*
X131660499Y-102858970D01*
X131660499Y-102462129D01*
X131660498Y-102462123D01*
X131660497Y-102462116D01*
X131654091Y-102402517D01*
X131640008Y-102364759D01*
X131603797Y-102267671D01*
X131603793Y-102267664D01*
X131517547Y-102152455D01*
X131517544Y-102152452D01*
X131402335Y-102066206D01*
X131402328Y-102066202D01*
X131267482Y-102015908D01*
X131267483Y-102015908D01*
X131207883Y-102009501D01*
X131207881Y-102009500D01*
X131207873Y-102009500D01*
X130758542Y-102009500D01*
X130758540Y-102009500D01*
X130561460Y-102009500D01*
X130561457Y-102009500D01*
X130112129Y-102009500D01*
X130112123Y-102009501D01*
X130052516Y-102015908D01*
X129917671Y-102066202D01*
X129917664Y-102066206D01*
X129802455Y-102152452D01*
X129802452Y-102152455D01*
X129716206Y-102267664D01*
X129716202Y-102267671D01*
X129665908Y-102402517D01*
X129661590Y-102442686D01*
X129659501Y-102462123D01*
X129659500Y-102462135D01*
X129659500Y-103557870D01*
X129659501Y-103557872D01*
X129665909Y-103617483D01*
X129665910Y-103617485D01*
X129666177Y-103618615D01*
X129669500Y-103647130D01*
X129669500Y-105105858D01*
X129649815Y-105172897D01*
X129597011Y-105218652D01*
X129588847Y-105222034D01*
X129577669Y-105226204D01*
X129577664Y-105226206D01*
X129462455Y-105312452D01*
X129462452Y-105312455D01*
X129376206Y-105427664D01*
X129376202Y-105427671D01*
X129325908Y-105562517D01*
X129319501Y-105622116D01*
X129319500Y-105622135D01*
X129319500Y-107417870D01*
X129319501Y-107417876D01*
X129325908Y-107477483D01*
X129376202Y-107612328D01*
X129376206Y-107612335D01*
X129462452Y-107727544D01*
X129462455Y-107727547D01*
X129577664Y-107813793D01*
X129577671Y-107813797D01*
X129633241Y-107834523D01*
X129709598Y-107863002D01*
X129765531Y-107904873D01*
X129789949Y-107970337D01*
X129775098Y-108038610D01*
X129753947Y-108066865D01*
X129631886Y-108188926D01*
X129496400Y-108382420D01*
X129496399Y-108382422D01*
X129396570Y-108596507D01*
X129396567Y-108596513D01*
X129339364Y-108809999D01*
X129339364Y-108810000D01*
X130236988Y-108810000D01*
X130204075Y-108867007D01*
X130170000Y-108994174D01*
X130170000Y-109125826D01*
X130204075Y-109252993D01*
X130236988Y-109310000D01*
X129339364Y-109310000D01*
X129396567Y-109523486D01*
X129396570Y-109523492D01*
X129496399Y-109737578D01*
X129631894Y-109931082D01*
X129798917Y-110098105D01*
X129984595Y-110228119D01*
X130028219Y-110282696D01*
X130035412Y-110352195D01*
X130003890Y-110414549D01*
X129984595Y-110431269D01*
X129798594Y-110561508D01*
X129631505Y-110728597D01*
X129495965Y-110922169D01*
X129495964Y-110922171D01*
X129396098Y-111136335D01*
X129396094Y-111136344D01*
X129334938Y-111364586D01*
X129334936Y-111364596D01*
X129314341Y-111599999D01*
X129314341Y-111600000D01*
X129334936Y-111835403D01*
X129334938Y-111835413D01*
X129396094Y-112063655D01*
X129396096Y-112063659D01*
X129396097Y-112063663D01*
X129467912Y-112217671D01*
X129495965Y-112277830D01*
X129495967Y-112277834D01*
X129631501Y-112471395D01*
X129631506Y-112471402D01*
X129798597Y-112638493D01*
X129798603Y-112638498D01*
X129984158Y-112768425D01*
X130027783Y-112823002D01*
X130034977Y-112892500D01*
X130003454Y-112954855D01*
X129984158Y-112971575D01*
X129798597Y-113101505D01*
X129631505Y-113268597D01*
X129495965Y-113462169D01*
X129495964Y-113462171D01*
X129396098Y-113676335D01*
X129396094Y-113676344D01*
X129334938Y-113904586D01*
X129334936Y-113904596D01*
X129314341Y-114139999D01*
X129314341Y-114140000D01*
X129334936Y-114375403D01*
X129334938Y-114375413D01*
X129396094Y-114603655D01*
X129396096Y-114603659D01*
X129396097Y-114603663D01*
X129476539Y-114776170D01*
X129495965Y-114817830D01*
X129495967Y-114817834D01*
X129560543Y-114910057D01*
X129631505Y-115011401D01*
X129798599Y-115178495D01*
X129864952Y-115224956D01*
X129992165Y-115314032D01*
X129992167Y-115314033D01*
X129992170Y-115314035D01*
X130206337Y-115413903D01*
X130434592Y-115475063D01*
X130622918Y-115491539D01*
X130669999Y-115495659D01*
X130670000Y-115495659D01*
X130670001Y-115495659D01*
X130709234Y-115492226D01*
X130905408Y-115475063D01*
X130977989Y-115455615D01*
X131047839Y-115457278D01*
X131097763Y-115487709D01*
X135055325Y-119445272D01*
X135055326Y-119445273D01*
X135055329Y-119445275D01*
X135055331Y-119445277D01*
X135161873Y-119516465D01*
X135280256Y-119565501D01*
X135280260Y-119565501D01*
X135280261Y-119565502D01*
X135405928Y-119590500D01*
X135405931Y-119590500D01*
X184864071Y-119590500D01*
X184948615Y-119573682D01*
X184989744Y-119565501D01*
X185108127Y-119516465D01*
X185214669Y-119445277D01*
X189401505Y-115258439D01*
X189462826Y-115224956D01*
X189532518Y-115229940D01*
X189588451Y-115271812D01*
X189612868Y-115337276D01*
X189610350Y-115372479D01*
X189594674Y-115444540D01*
X189594673Y-115444551D01*
X189574257Y-115729998D01*
X189574257Y-115730001D01*
X189594673Y-116015448D01*
X189594674Y-116015455D01*
X189655502Y-116295078D01*
X189755512Y-116563217D01*
X189755514Y-116563221D01*
X189892658Y-116814381D01*
X189892659Y-116814382D01*
X189892662Y-116814387D01*
X190064161Y-117043482D01*
X190064165Y-117043486D01*
X190064170Y-117043492D01*
X190266507Y-117245829D01*
X190266513Y-117245834D01*
X190266518Y-117245839D01*
X190495613Y-117417338D01*
X190495617Y-117417340D01*
X190495618Y-117417341D01*
X190746778Y-117554485D01*
X190746782Y-117554487D01*
X190746784Y-117554488D01*
X191014917Y-117654496D01*
X191014920Y-117654496D01*
X191014921Y-117654497D01*
X191225994Y-117700412D01*
X191294553Y-117715327D01*
X191558010Y-117734170D01*
X191579999Y-117735743D01*
X191580000Y-117735743D01*
X191580001Y-117735743D01*
X191600417Y-117734282D01*
X191865447Y-117715327D01*
X192145083Y-117654496D01*
X192413216Y-117554488D01*
X192664387Y-117417338D01*
X192893482Y-117245839D01*
X193095839Y-117043482D01*
X193267338Y-116814387D01*
X193404488Y-116563216D01*
X193504496Y-116295083D01*
X193565327Y-116015447D01*
X193585743Y-115730000D01*
X193584830Y-115717241D01*
X193580302Y-115653922D01*
X193565327Y-115444553D01*
X193522542Y-115247872D01*
X193504497Y-115164921D01*
X193503776Y-115162989D01*
X193404488Y-114896784D01*
X193374606Y-114842060D01*
X193267341Y-114645618D01*
X193267340Y-114645617D01*
X193267338Y-114645613D01*
X193095839Y-114416518D01*
X193095834Y-114416513D01*
X193095829Y-114416507D01*
X192893492Y-114214170D01*
X192893486Y-114214165D01*
X192893482Y-114214161D01*
X192664387Y-114042662D01*
X192664382Y-114042659D01*
X192664381Y-114042658D01*
X192413221Y-113905514D01*
X192413217Y-113905512D01*
X192145078Y-113805502D01*
X191865455Y-113744674D01*
X191865448Y-113744673D01*
X191580001Y-113724257D01*
X191579999Y-113724257D01*
X191294551Y-113744673D01*
X191294540Y-113744674D01*
X191222479Y-113760350D01*
X191152787Y-113755365D01*
X191096854Y-113713493D01*
X191072438Y-113648029D01*
X191087290Y-113579756D01*
X191108437Y-113551507D01*
X192756021Y-111903925D01*
X192817344Y-111870440D01*
X192843702Y-111867606D01*
X195266965Y-111867606D01*
X195359539Y-111849191D01*
X195392638Y-111842607D01*
X195511021Y-111793571D01*
X195561647Y-111759744D01*
X195561647Y-111759743D01*
X195561649Y-111759743D01*
X195575626Y-111750403D01*
X195617563Y-111722383D01*
X202965277Y-104374669D01*
X203036465Y-104268127D01*
X203047013Y-104242661D01*
X203085501Y-104149744D01*
X203097828Y-104087770D01*
X203110500Y-104024070D01*
X203110500Y-101635928D01*
X203085502Y-101510261D01*
X203085501Y-101510260D01*
X203085501Y-101510256D01*
X203036465Y-101391873D01*
X202965277Y-101285331D01*
X202965275Y-101285329D01*
X202965273Y-101285326D01*
X202965272Y-101285325D01*
X199841890Y-98161944D01*
X199808405Y-98100621D01*
X199813389Y-98030929D01*
X199841888Y-97986584D01*
X199858417Y-97970056D01*
X199896037Y-97923373D01*
X199955825Y-97792457D01*
X199976307Y-97650000D01*
X199955825Y-97507543D01*
X199896037Y-97376627D01*
X199858418Y-97329944D01*
X199858413Y-97329939D01*
X199858409Y-97329934D01*
X198730063Y-96201590D01*
X198730056Y-96201583D01*
X198683373Y-96163963D01*
X198641044Y-96144632D01*
X198552455Y-96104174D01*
X198552457Y-96104174D01*
X198410000Y-96083693D01*
X198267543Y-96104174D01*
X198136629Y-96163961D01*
X198089934Y-96201590D01*
X196961590Y-97329936D01*
X196961584Y-97329942D01*
X196961583Y-97329944D01*
X196942773Y-97353285D01*
X196923962Y-97376628D01*
X196923961Y-97376630D01*
X196864174Y-97507543D01*
X196843693Y-97650000D01*
X196864174Y-97792456D01*
X196923962Y-97923372D01*
X196923963Y-97923374D01*
X196961573Y-97970045D01*
X196961580Y-97970054D01*
X196961584Y-97970058D01*
X196978108Y-97986582D01*
X197011593Y-98047905D01*
X197006609Y-98117597D01*
X196978108Y-98161944D01*
X194994237Y-100145815D01*
X194932914Y-100179300D01*
X194863222Y-100174316D01*
X194855044Y-100170928D01*
X194834806Y-100161685D01*
X194834802Y-100161684D01*
X194692347Y-100141204D01*
X194549891Y-100161684D01*
X194549887Y-100161685D01*
X194418976Y-100221471D01*
X194372281Y-100259100D01*
X193173226Y-101458157D01*
X193173220Y-101458164D01*
X193135598Y-101504849D01*
X193135596Y-101504851D01*
X193075811Y-101635761D01*
X193075810Y-101635765D01*
X193055330Y-101778221D01*
X193075810Y-101920676D01*
X193075811Y-101920680D01*
X193114225Y-102004792D01*
X193124169Y-102073950D01*
X193095145Y-102137506D01*
X193036367Y-102175281D01*
X193001431Y-102180304D01*
X192928783Y-102180304D01*
X192928781Y-102180304D01*
X192928775Y-102180305D01*
X192758072Y-102220763D01*
X192673203Y-102263386D01*
X192601289Y-102299502D01*
X192601288Y-102299503D01*
X192601282Y-102299507D01*
X192521192Y-102364750D01*
X192521174Y-102364766D01*
X191814067Y-103071875D01*
X191814058Y-103071885D01*
X191748804Y-103151987D01*
X191670066Y-103308769D01*
X191629608Y-103479472D01*
X191629607Y-103479483D01*
X191629607Y-103607173D01*
X191609922Y-103674212D01*
X191557118Y-103719967D01*
X191501011Y-103728794D01*
X191501011Y-103730636D01*
X191493789Y-103730636D01*
X191318347Y-103730636D01*
X191318345Y-103730636D01*
X191318339Y-103730637D01*
X191147635Y-103771096D01*
X191147634Y-103771096D01*
X190990855Y-103849833D01*
X190990854Y-103849834D01*
X190910749Y-103915087D01*
X190910733Y-103915102D01*
X190407122Y-104418714D01*
X190345799Y-104452199D01*
X190276107Y-104447215D01*
X190220174Y-104405343D01*
X190208630Y-104386684D01*
X190172650Y-104315042D01*
X190107448Y-104235000D01*
X190107434Y-104234985D01*
X189913000Y-104040552D01*
X189912999Y-104040552D01*
X189054926Y-104898625D01*
X188993603Y-104932110D01*
X188923911Y-104927126D01*
X188879564Y-104898625D01*
X187924264Y-103943325D01*
X187827051Y-104040539D01*
X187827041Y-104040550D01*
X187761845Y-104120581D01*
X187761836Y-104120594D01*
X187683155Y-104277262D01*
X187642721Y-104447866D01*
X187642721Y-104623188D01*
X187643534Y-104626619D01*
X187643405Y-104629047D01*
X187643559Y-104630362D01*
X187643334Y-104630388D01*
X187639840Y-104696391D01*
X187599010Y-104753089D01*
X187534009Y-104778713D01*
X187494285Y-104775873D01*
X187490499Y-104774976D01*
X187490497Y-104774975D01*
X187490494Y-104774975D01*
X187315052Y-104774975D01*
X187315050Y-104774975D01*
X187315044Y-104774976D01*
X187144338Y-104815435D01*
X186987562Y-104894171D01*
X186987556Y-104894175D01*
X186907459Y-104959422D01*
X186907444Y-104959436D01*
X186359439Y-105507443D01*
X186359420Y-105507464D01*
X186294179Y-105587550D01*
X186294170Y-105587563D01*
X186215435Y-105744338D01*
X186174976Y-105915044D01*
X186174975Y-105915055D01*
X186174975Y-106090490D01*
X186174976Y-106090501D01*
X186201660Y-106203087D01*
X186197967Y-106272859D01*
X186157139Y-106329558D01*
X186146977Y-106336677D01*
X186077736Y-106380185D01*
X185950184Y-106507737D01*
X185854211Y-106660476D01*
X185794631Y-106830745D01*
X185794630Y-106830750D01*
X185774435Y-107009996D01*
X185774435Y-107010003D01*
X185794630Y-107189249D01*
X185794631Y-107189254D01*
X185854211Y-107359523D01*
X185895369Y-107425025D01*
X185950184Y-107512262D01*
X186077738Y-107639816D01*
X186230478Y-107735789D01*
X186388111Y-107790947D01*
X186400745Y-107795368D01*
X186400750Y-107795369D01*
X186579996Y-107815565D01*
X186580000Y-107815565D01*
X186580004Y-107815565D01*
X186759249Y-107795369D01*
X186759252Y-107795368D01*
X186759255Y-107795368D01*
X186929522Y-107735789D01*
X187082262Y-107639816D01*
X187209816Y-107512262D01*
X187249148Y-107449665D01*
X187301481Y-107403374D01*
X187370534Y-107392725D01*
X187382738Y-107394980D01*
X187492935Y-107421097D01*
X187509506Y-107425025D01*
X187509509Y-107425025D01*
X187684945Y-107425025D01*
X187684948Y-107425025D01*
X187795562Y-107398808D01*
X187865331Y-107402500D01*
X187911838Y-107431784D01*
X188101880Y-107621826D01*
X188128760Y-107662054D01*
X188182149Y-107790947D01*
X188182151Y-107790950D01*
X188254235Y-107884892D01*
X188254240Y-107884898D01*
X188504529Y-108135186D01*
X188538014Y-108196509D01*
X188533030Y-108266200D01*
X188504529Y-108310548D01*
X188148471Y-108666606D01*
X188087148Y-108700091D01*
X188017456Y-108695107D01*
X187982981Y-108675474D01*
X187959424Y-108656489D01*
X187828510Y-108596702D01*
X187828506Y-108596701D01*
X187686051Y-108576221D01*
X187543595Y-108596701D01*
X187543591Y-108596702D01*
X187412680Y-108656488D01*
X187365985Y-108694117D01*
X186096216Y-109963889D01*
X186096207Y-109963899D01*
X186058591Y-110010575D01*
X185998804Y-110141489D01*
X185998803Y-110141493D01*
X185978323Y-110283949D01*
X185998803Y-110426404D01*
X185998804Y-110426408D01*
X186056887Y-110553589D01*
X186066831Y-110622747D01*
X186037806Y-110686303D01*
X185979029Y-110724078D01*
X185933288Y-110728629D01*
X185890005Y-110724843D01*
X185889998Y-110724843D01*
X185654684Y-110745430D01*
X185654673Y-110745432D01*
X185426516Y-110806566D01*
X185426507Y-110806570D01*
X185212419Y-110906401D01*
X185128625Y-110965072D01*
X185760590Y-111597037D01*
X185697007Y-111614075D01*
X185582993Y-111679901D01*
X185489901Y-111772993D01*
X185424075Y-111887007D01*
X185407037Y-111950590D01*
X184775072Y-111318625D01*
X184716401Y-111402419D01*
X184616570Y-111616507D01*
X184616566Y-111616516D01*
X184555432Y-111844673D01*
X184555430Y-111844684D01*
X184534843Y-112079998D01*
X184534843Y-112080001D01*
X184555430Y-112315315D01*
X184555432Y-112315326D01*
X184616566Y-112543483D01*
X184616570Y-112543492D01*
X184716400Y-112757579D01*
X184716402Y-112757583D01*
X184775072Y-112841373D01*
X184775073Y-112841373D01*
X185407037Y-112209409D01*
X185424075Y-112272993D01*
X185489901Y-112387007D01*
X185582993Y-112480099D01*
X185697007Y-112545925D01*
X185760590Y-112562962D01*
X185128625Y-113194925D01*
X185170041Y-113223925D01*
X185213666Y-113278503D01*
X185220858Y-113348001D01*
X185189336Y-113410356D01*
X185129106Y-113445769D01*
X185098917Y-113449500D01*
X176630808Y-113449500D01*
X176563769Y-113429815D01*
X176543127Y-113413181D01*
X174014674Y-110884727D01*
X174014673Y-110884726D01*
X174014669Y-110884723D01*
X173908127Y-110813535D01*
X173891302Y-110806566D01*
X173789744Y-110764499D01*
X173789742Y-110764498D01*
X173789583Y-110764467D01*
X173789583Y-110764465D01*
X173789563Y-110764463D01*
X173664071Y-110739500D01*
X173664069Y-110739500D01*
X167410808Y-110739500D01*
X167343769Y-110719815D01*
X167323127Y-110703181D01*
X166674669Y-110054723D01*
X165986584Y-109366637D01*
X165953099Y-109305314D01*
X165958083Y-109235622D01*
X165999955Y-109179689D01*
X166065419Y-109155272D01*
X166121715Y-109164394D01*
X166381684Y-109272077D01*
X167097545Y-109525577D01*
X167825693Y-109741264D01*
X168564131Y-109918547D01*
X169310835Y-110056941D01*
X169979353Y-110144952D01*
X170063743Y-110156063D01*
X170063745Y-110156063D01*
X170063759Y-110156065D01*
X170820839Y-110215649D01*
X171580000Y-110235528D01*
X172339161Y-110215649D01*
X173096241Y-110156065D01*
X173849165Y-110056941D01*
X174595869Y-109918547D01*
X175334307Y-109741264D01*
X176062455Y-109525577D01*
X176778316Y-109272077D01*
X177479930Y-108981459D01*
X178165372Y-108654520D01*
X178832764Y-108292156D01*
X178867657Y-108270774D01*
X179164041Y-108089149D01*
X179480277Y-107895359D01*
X180106135Y-107465219D01*
X180708625Y-107002913D01*
X181286093Y-106509708D01*
X181836957Y-105986957D01*
X182359708Y-105436093D01*
X182852913Y-104858625D01*
X183315219Y-104256135D01*
X183745359Y-103630277D01*
X183770181Y-103589771D01*
X188277817Y-103589771D01*
X188967246Y-104279200D01*
X188967247Y-104279200D01*
X189559446Y-103686999D01*
X189559446Y-103686998D01*
X189365015Y-103492568D01*
X189364994Y-103492549D01*
X189284963Y-103427353D01*
X189284950Y-103427344D01*
X189128283Y-103348663D01*
X188957679Y-103308229D01*
X188782359Y-103308229D01*
X188611754Y-103348663D01*
X188455078Y-103427348D01*
X188375040Y-103492549D01*
X188375022Y-103492565D01*
X188277817Y-103589771D01*
X183770181Y-103589771D01*
X184038456Y-103151987D01*
X184142144Y-102982784D01*
X184142147Y-102982778D01*
X184142156Y-102982764D01*
X184504520Y-102315372D01*
X184831459Y-101629930D01*
X185122077Y-100928316D01*
X185375577Y-100212455D01*
X185591264Y-99484307D01*
X185768547Y-98745869D01*
X185906941Y-97999165D01*
X186006065Y-97246241D01*
X186065649Y-96489161D01*
X186085528Y-95730000D01*
X186065649Y-94970839D01*
X186006065Y-94213759D01*
X185906941Y-93460835D01*
X185768547Y-92714131D01*
X185591264Y-91975693D01*
X185375577Y-91247545D01*
X185122077Y-90531684D01*
X184831459Y-89830070D01*
X184504520Y-89144628D01*
X184504515Y-89144619D01*
X184504513Y-89144614D01*
X184183938Y-88554189D01*
X184142156Y-88477236D01*
X184142154Y-88477233D01*
X184142144Y-88477215D01*
X183745359Y-87829723D01*
X183712871Y-87782452D01*
X183315219Y-87203865D01*
X183220539Y-87080476D01*
X182852913Y-86601375D01*
X182852903Y-86601363D01*
X182626075Y-86335782D01*
X182359708Y-86023907D01*
X182359702Y-86023901D01*
X182359689Y-86023886D01*
X182061348Y-85709502D01*
X181836957Y-85473043D01*
X181501774Y-85154966D01*
X181286113Y-84950310D01*
X181286095Y-84950294D01*
X181265483Y-84932690D01*
X181040697Y-84740704D01*
X180708636Y-84457096D01*
X180708610Y-84457075D01*
X180106145Y-83994788D01*
X179480276Y-83564640D01*
X178832784Y-83167855D01*
X178832761Y-83167842D01*
X178165385Y-82805486D01*
X178165375Y-82805482D01*
X178165372Y-82805480D01*
X177479930Y-82478541D01*
X177479926Y-82478539D01*
X177479919Y-82478536D01*
X176880968Y-82230443D01*
X176778316Y-82187923D01*
X176062455Y-81934423D01*
X176062444Y-81934419D01*
X176062442Y-81934419D01*
X175334301Y-81718734D01*
X174595875Y-81541454D01*
X174502097Y-81524073D01*
X173849165Y-81403059D01*
X173849150Y-81403057D01*
X173578604Y-81367439D01*
X173514707Y-81339173D01*
X173476236Y-81280848D01*
X173475405Y-81210983D01*
X173512477Y-81151760D01*
X173575683Y-81121981D01*
X173594789Y-81120500D01*
X174281459Y-81120500D01*
X174281460Y-81120500D01*
X174478540Y-81120500D01*
X179614218Y-81120500D01*
X179681257Y-81140185D01*
X179701899Y-81156819D01*
X188793181Y-90248101D01*
X188826666Y-90309424D01*
X188829500Y-90335782D01*
X188829500Y-91049241D01*
X188809815Y-91116280D01*
X188793181Y-91136922D01*
X188791505Y-91138597D01*
X188655965Y-91332169D01*
X188655964Y-91332171D01*
X188556098Y-91546335D01*
X188556094Y-91546344D01*
X188494938Y-91774586D01*
X188494936Y-91774596D01*
X188474341Y-92009999D01*
X188474341Y-92010000D01*
X188494936Y-92245403D01*
X188494938Y-92245413D01*
X188556094Y-92473655D01*
X188556096Y-92473659D01*
X188556097Y-92473663D01*
X188626127Y-92623842D01*
X188655965Y-92687830D01*
X188655967Y-92687834D01*
X188734507Y-92800000D01*
X188787783Y-92876086D01*
X188791501Y-92881395D01*
X188791506Y-92881402D01*
X188958597Y-93048493D01*
X188958603Y-93048498D01*
X189144158Y-93178425D01*
X189187783Y-93233002D01*
X189194977Y-93302500D01*
X189163454Y-93364855D01*
X189144158Y-93381575D01*
X188958597Y-93511505D01*
X188791505Y-93678597D01*
X188655965Y-93872169D01*
X188655964Y-93872171D01*
X188556098Y-94086335D01*
X188556094Y-94086344D01*
X188494938Y-94314586D01*
X188494936Y-94314596D01*
X188474341Y-94549999D01*
X188474341Y-94550000D01*
X188494936Y-94785403D01*
X188494938Y-94785413D01*
X188556094Y-95013655D01*
X188556096Y-95013659D01*
X188556097Y-95013663D01*
X188628998Y-95170000D01*
X188655965Y-95227830D01*
X188655967Y-95227834D01*
X188791501Y-95421395D01*
X188791506Y-95421402D01*
X188958597Y-95588493D01*
X188958603Y-95588498D01*
X189144158Y-95718425D01*
X189187783Y-95773002D01*
X189194977Y-95842500D01*
X189163454Y-95904855D01*
X189144158Y-95921575D01*
X188958597Y-96051505D01*
X188791505Y-96218597D01*
X188655965Y-96412169D01*
X188655964Y-96412171D01*
X188569178Y-96598284D01*
X188556721Y-96625000D01*
X188556098Y-96626335D01*
X188556094Y-96626344D01*
X188494938Y-96854586D01*
X188494936Y-96854596D01*
X188474341Y-97089999D01*
X188474341Y-97090000D01*
X188494936Y-97325403D01*
X188494938Y-97325413D01*
X188556094Y-97553655D01*
X188556096Y-97553659D01*
X188556097Y-97553663D01*
X188599420Y-97646569D01*
X188655965Y-97767830D01*
X188655967Y-97767834D01*
X188758304Y-97913985D01*
X188791501Y-97961396D01*
X188791506Y-97961402D01*
X188913430Y-98083326D01*
X188946915Y-98144649D01*
X188941931Y-98214341D01*
X188900059Y-98270274D01*
X188869083Y-98287189D01*
X188737669Y-98336203D01*
X188737664Y-98336206D01*
X188622455Y-98422452D01*
X188622452Y-98422455D01*
X188536206Y-98537664D01*
X188536202Y-98537671D01*
X188485908Y-98672517D01*
X188479501Y-98732116D01*
X188479500Y-98732135D01*
X188479500Y-100527870D01*
X188479501Y-100527876D01*
X188485908Y-100587483D01*
X188536202Y-100722328D01*
X188536206Y-100722335D01*
X188622452Y-100837544D01*
X188622455Y-100837547D01*
X188737664Y-100923793D01*
X188737671Y-100923797D01*
X188872517Y-100974091D01*
X188872516Y-100974091D01*
X188879444Y-100974835D01*
X188932127Y-100980500D01*
X190727872Y-100980499D01*
X190787483Y-100974091D01*
X190922331Y-100923796D01*
X191037546Y-100837546D01*
X191123796Y-100722331D01*
X191127960Y-100711165D01*
X191169829Y-100655234D01*
X191235293Y-100630816D01*
X191244141Y-100630500D01*
X191618543Y-100630500D01*
X191745249Y-100605296D01*
X191792415Y-100595914D01*
X191811836Y-100592051D01*
X191866283Y-100569498D01*
X191993914Y-100516632D01*
X192157782Y-100407139D01*
X192297139Y-100267782D01*
X192297140Y-100267780D01*
X192304206Y-100260714D01*
X192304209Y-100260710D01*
X195547778Y-97017141D01*
X195547782Y-97017139D01*
X195687139Y-96877782D01*
X195796632Y-96713914D01*
X195872051Y-96531835D01*
X195872051Y-96531832D01*
X195872053Y-96531828D01*
X195880540Y-96489162D01*
X195906331Y-96359500D01*
X195910500Y-96338541D01*
X195910500Y-85771459D01*
X195898176Y-85709501D01*
X195872051Y-85578164D01*
X195798046Y-85399500D01*
X195796632Y-85396086D01*
X195687139Y-85232218D01*
X195547782Y-85092861D01*
X195547781Y-85092860D01*
X186184921Y-75730001D01*
X189574089Y-75730001D01*
X189594506Y-76015476D01*
X189655340Y-76295123D01*
X189655342Y-76295130D01*
X189706561Y-76432454D01*
X189755359Y-76563287D01*
X189755361Y-76563291D01*
X189892516Y-76814471D01*
X189892517Y-76814472D01*
X189892520Y-76814477D01*
X190064034Y-77043592D01*
X190064038Y-77043596D01*
X190064043Y-77043602D01*
X190266397Y-77245956D01*
X190266403Y-77245961D01*
X190266408Y-77245966D01*
X190495523Y-77417480D01*
X190495527Y-77417482D01*
X190495528Y-77417483D01*
X190746708Y-77554638D01*
X190746712Y-77554640D01*
X190746714Y-77554641D01*
X191014870Y-77654658D01*
X191154699Y-77685076D01*
X191294523Y-77715493D01*
X191294525Y-77715493D01*
X191294529Y-77715494D01*
X191548215Y-77733637D01*
X191579999Y-77735911D01*
X191580000Y-77735911D01*
X191580001Y-77735911D01*
X191608599Y-77733865D01*
X191865471Y-77715494D01*
X191866846Y-77715195D01*
X191984122Y-77689683D01*
X192145130Y-77654658D01*
X192413286Y-77554641D01*
X192664477Y-77417480D01*
X192893592Y-77245966D01*
X193095966Y-77043592D01*
X193267480Y-76814477D01*
X193404641Y-76563286D01*
X193504658Y-76295130D01*
X193565494Y-76015471D01*
X193585911Y-75730000D01*
X193585002Y-75717297D01*
X193579316Y-75637783D01*
X193565494Y-75444529D01*
X193557821Y-75409258D01*
X193524214Y-75254766D01*
X193504658Y-75164870D01*
X193404641Y-74896714D01*
X193398740Y-74885908D01*
X193267483Y-74645528D01*
X193267482Y-74645527D01*
X193267480Y-74645523D01*
X193095966Y-74416408D01*
X193095961Y-74416403D01*
X193095956Y-74416397D01*
X192893602Y-74214043D01*
X192893596Y-74214038D01*
X192893592Y-74214034D01*
X192664477Y-74042520D01*
X192664472Y-74042517D01*
X192664471Y-74042516D01*
X192413291Y-73905361D01*
X192413287Y-73905359D01*
X192311624Y-73867441D01*
X192145130Y-73805342D01*
X192145126Y-73805341D01*
X192145123Y-73805340D01*
X191865476Y-73744506D01*
X191580001Y-73724089D01*
X191579999Y-73724089D01*
X191294523Y-73744506D01*
X191014876Y-73805340D01*
X191014871Y-73805341D01*
X191014870Y-73805342D01*
X190966382Y-73823427D01*
X190746712Y-73905359D01*
X190746708Y-73905361D01*
X190495528Y-74042516D01*
X190495527Y-74042517D01*
X190266409Y-74214033D01*
X190266397Y-74214043D01*
X190064043Y-74416397D01*
X190064033Y-74416409D01*
X189892517Y-74645527D01*
X189892516Y-74645528D01*
X189755361Y-74896708D01*
X189755359Y-74896712D01*
X189689812Y-75072452D01*
X189665488Y-75137669D01*
X189655340Y-75164876D01*
X189594506Y-75444523D01*
X189574089Y-75729998D01*
X189574089Y-75730001D01*
X186184921Y-75730001D01*
X182394208Y-71939288D01*
X182394206Y-71939285D01*
X182394206Y-71939286D01*
X182387139Y-71932219D01*
X182387139Y-71932218D01*
X182247782Y-71792861D01*
X182247781Y-71792860D01*
X182247780Y-71792859D01*
X182083916Y-71683369D01*
X182083911Y-71683366D01*
X182011315Y-71653296D01*
X181955165Y-71630038D01*
X181901836Y-71607949D01*
X181901832Y-71607948D01*
X181901828Y-71607946D01*
X181805188Y-71588724D01*
X181708544Y-71569500D01*
X181708541Y-71569500D01*
X171578540Y-71569500D01*
X171381459Y-71569500D01*
X171381456Y-71569500D01*
X171188171Y-71607946D01*
X171188167Y-71607948D01*
X171188165Y-71607948D01*
X171188164Y-71607949D01*
X171112745Y-71639188D01*
X171112743Y-71639189D01*
X171006085Y-71683368D01*
X171006085Y-71683369D01*
X171006084Y-71683369D01*
X170842222Y-71792857D01*
X170842214Y-71792863D01*
X167741897Y-74893181D01*
X167680574Y-74926666D01*
X167654216Y-74929500D01*
X166872129Y-74929500D01*
X166872123Y-74929501D01*
X166812516Y-74935908D01*
X166677671Y-74986202D01*
X166677664Y-74986206D01*
X166562455Y-75072452D01*
X166562452Y-75072455D01*
X166476206Y-75187664D01*
X166476204Y-75187668D01*
X166476204Y-75187669D01*
X166472039Y-75198834D01*
X166430171Y-75254766D01*
X166364707Y-75279184D01*
X166355859Y-75279500D01*
X159281455Y-75279500D01*
X159184812Y-75298724D01*
X159088167Y-75317947D01*
X159088161Y-75317949D01*
X159034834Y-75340037D01*
X159034834Y-75340038D01*
X158989315Y-75358892D01*
X158906089Y-75393366D01*
X158906079Y-75393371D01*
X158742219Y-75502859D01*
X158694894Y-75550185D01*
X158602861Y-75642218D01*
X158602858Y-75642221D01*
X154191899Y-80053181D01*
X154130576Y-80086666D01*
X154104218Y-80089500D01*
X152341457Y-80089500D01*
X152148170Y-80127947D01*
X152148160Y-80127950D01*
X152022354Y-80180061D01*
X151974902Y-80189500D01*
X151633384Y-80189500D01*
X151614145Y-80191248D01*
X151562807Y-80195913D01*
X151400393Y-80246522D01*
X151254811Y-80334530D01*
X151134530Y-80454811D01*
X151119392Y-80479853D01*
X151067863Y-80527039D01*
X150999003Y-80538877D01*
X150934675Y-80511607D01*
X150895302Y-80453887D01*
X150889785Y-80404480D01*
X150890500Y-80396616D01*
X150890500Y-79883384D01*
X150884086Y-79812804D01*
X150833478Y-79650394D01*
X150745472Y-79504815D01*
X150745470Y-79504813D01*
X150745469Y-79504811D01*
X150625188Y-79384530D01*
X150603827Y-79371617D01*
X150479606Y-79296522D01*
X150317196Y-79245914D01*
X150317194Y-79245913D01*
X150317192Y-79245913D01*
X150267778Y-79241423D01*
X150246616Y-79239500D01*
X148633384Y-79239500D01*
X148614145Y-79241248D01*
X148562807Y-79245913D01*
X148400393Y-79296522D01*
X148379885Y-79308920D01*
X148276171Y-79371617D01*
X148212023Y-79389500D01*
X148130419Y-79389500D01*
X148063380Y-79369815D01*
X148017625Y-79317011D01*
X148012713Y-79304505D01*
X148004814Y-79280666D01*
X147912712Y-79131344D01*
X147788656Y-79007288D01*
X147669509Y-78933798D01*
X147639336Y-78915187D01*
X147639331Y-78915185D01*
X147617102Y-78907819D01*
X147472797Y-78860001D01*
X147472795Y-78860000D01*
X147370010Y-78849500D01*
X146569998Y-78849500D01*
X146569980Y-78849501D01*
X146467203Y-78860000D01*
X146467200Y-78860001D01*
X146300668Y-78915185D01*
X146300663Y-78915187D01*
X146151342Y-79007289D01*
X146057681Y-79100951D01*
X145996358Y-79134436D01*
X145926666Y-79129452D01*
X145882319Y-79100951D01*
X145788657Y-79007289D01*
X145788656Y-79007288D01*
X145669509Y-78933798D01*
X145639336Y-78915187D01*
X145639331Y-78915185D01*
X145617102Y-78907819D01*
X145472797Y-78860001D01*
X145472795Y-78860000D01*
X145370010Y-78849500D01*
X144569998Y-78849500D01*
X144569980Y-78849501D01*
X144467203Y-78860000D01*
X144467200Y-78860001D01*
X144300668Y-78915185D01*
X144300663Y-78915187D01*
X144151342Y-79007289D01*
X144027287Y-79131344D01*
X143984837Y-79200167D01*
X143932889Y-79246891D01*
X143863926Y-79258112D01*
X143799844Y-79230269D01*
X143791618Y-79222750D01*
X143783657Y-79214789D01*
X143783656Y-79214788D01*
X143648368Y-79131342D01*
X143634336Y-79122687D01*
X143634331Y-79122685D01*
X143605704Y-79113199D01*
X143467797Y-79067501D01*
X143467795Y-79067500D01*
X143365016Y-79057000D01*
X142524439Y-79057000D01*
X142457400Y-79037315D01*
X142411645Y-78984511D01*
X142401701Y-78915353D01*
X142430726Y-78851797D01*
X142436745Y-78845332D01*
X142479816Y-78802262D01*
X142575789Y-78649522D01*
X142635368Y-78479255D01*
X142639793Y-78439983D01*
X142655565Y-78300003D01*
X142655565Y-78299996D01*
X142635369Y-78120750D01*
X142635366Y-78120739D01*
X142628094Y-78099957D01*
X142624530Y-78030178D01*
X142659257Y-77969550D01*
X142721249Y-77937321D01*
X142745134Y-77934999D01*
X142764999Y-77934999D01*
X142765000Y-77934998D01*
X142765000Y-76960000D01*
X143265000Y-76960000D01*
X143265000Y-77934999D01*
X143402472Y-77934999D01*
X143402486Y-77934998D01*
X143505197Y-77924505D01*
X143671619Y-77869358D01*
X143671624Y-77869356D01*
X143820845Y-77777315D01*
X143944815Y-77653345D01*
X144036856Y-77504124D01*
X144036858Y-77504119D01*
X144092005Y-77337697D01*
X144092006Y-77337690D01*
X144102499Y-77234986D01*
X144102500Y-77234973D01*
X144102500Y-76960000D01*
X143265000Y-76960000D01*
X142765000Y-76960000D01*
X142765000Y-75485000D01*
X143265000Y-75485000D01*
X143265000Y-76460000D01*
X144102499Y-76460000D01*
X144102499Y-76185028D01*
X144102498Y-76185013D01*
X144092005Y-76082302D01*
X144036858Y-75915880D01*
X144036856Y-75915875D01*
X143944815Y-75766654D01*
X143908162Y-75730001D01*
X149574390Y-75730001D01*
X149594804Y-76015433D01*
X149655628Y-76295037D01*
X149655630Y-76295043D01*
X149655631Y-76295046D01*
X149706881Y-76432452D01*
X149755635Y-76563166D01*
X149892770Y-76814309D01*
X149892775Y-76814317D01*
X150064254Y-77043387D01*
X150064270Y-77043405D01*
X150266594Y-77245729D01*
X150266612Y-77245745D01*
X150495682Y-77417224D01*
X150495690Y-77417229D01*
X150746833Y-77554364D01*
X150746832Y-77554364D01*
X150746836Y-77554365D01*
X150746839Y-77554367D01*
X151014954Y-77654369D01*
X151014960Y-77654370D01*
X151014962Y-77654371D01*
X151294566Y-77715195D01*
X151294568Y-77715195D01*
X151294572Y-77715196D01*
X151548220Y-77733337D01*
X151579999Y-77735610D01*
X151580000Y-77735610D01*
X151580001Y-77735610D01*
X151608595Y-77733564D01*
X151865428Y-77715196D01*
X152044383Y-77676267D01*
X152145037Y-77654371D01*
X152145037Y-77654370D01*
X152145046Y-77654369D01*
X152413161Y-77554367D01*
X152664315Y-77417226D01*
X152893395Y-77245739D01*
X153095739Y-77043395D01*
X153267226Y-76814315D01*
X153404367Y-76563161D01*
X153504369Y-76295046D01*
X153541825Y-76122862D01*
X153565195Y-76015433D01*
X153565195Y-76015432D01*
X153565196Y-76015428D01*
X153585610Y-75730000D01*
X153584701Y-75717297D01*
X153579332Y-75642218D01*
X153565196Y-75444572D01*
X153565185Y-75444523D01*
X153504371Y-75164962D01*
X153504370Y-75164960D01*
X153504369Y-75164954D01*
X153404367Y-74896839D01*
X153404295Y-74896708D01*
X153267229Y-74645690D01*
X153267224Y-74645682D01*
X153095745Y-74416612D01*
X153095729Y-74416594D01*
X152893405Y-74214270D01*
X152893387Y-74214254D01*
X152664317Y-74042775D01*
X152664309Y-74042770D01*
X152413166Y-73905635D01*
X152413167Y-73905635D01*
X152305915Y-73865632D01*
X152145046Y-73805631D01*
X152145043Y-73805630D01*
X152145037Y-73805628D01*
X151865433Y-73744804D01*
X151580001Y-73724390D01*
X151579999Y-73724390D01*
X151294566Y-73744804D01*
X151014962Y-73805628D01*
X150746833Y-73905635D01*
X150495690Y-74042770D01*
X150495682Y-74042775D01*
X150266612Y-74214254D01*
X150266594Y-74214270D01*
X150064270Y-74416594D01*
X150064254Y-74416612D01*
X149892775Y-74645682D01*
X149892770Y-74645690D01*
X149755635Y-74896833D01*
X149655628Y-75164962D01*
X149594804Y-75444566D01*
X149574390Y-75729998D01*
X149574390Y-75730001D01*
X143908162Y-75730001D01*
X143820845Y-75642684D01*
X143671624Y-75550643D01*
X143671619Y-75550641D01*
X143505197Y-75495494D01*
X143505190Y-75495493D01*
X143402486Y-75485000D01*
X143265000Y-75485000D01*
X142765000Y-75485000D01*
X142627527Y-75485000D01*
X142627512Y-75485001D01*
X142524802Y-75495494D01*
X142358380Y-75550641D01*
X142358375Y-75550643D01*
X142209154Y-75642684D01*
X142085183Y-75766655D01*
X142085179Y-75766660D01*
X142083326Y-75769665D01*
X142081518Y-75771290D01*
X142080702Y-75772323D01*
X142080525Y-75772183D01*
X142031374Y-75816385D01*
X141962411Y-75827601D01*
X141898331Y-75799752D01*
X141872253Y-75769653D01*
X141872237Y-75769628D01*
X141870212Y-75766344D01*
X141746156Y-75642288D01*
X141596834Y-75550186D01*
X141430297Y-75495001D01*
X141430295Y-75495000D01*
X141327516Y-75484500D01*
X141327509Y-75484500D01*
X140827230Y-75484500D01*
X140760191Y-75464815D01*
X140739549Y-75448181D01*
X140722335Y-75430967D01*
X140705022Y-75409258D01*
X140695036Y-75393366D01*
X140609816Y-75257738D01*
X140482262Y-75130184D01*
X140443716Y-75105964D01*
X140329523Y-75034211D01*
X140159254Y-74974631D01*
X140159249Y-74974630D01*
X139980004Y-74954435D01*
X139979996Y-74954435D01*
X139800750Y-74974630D01*
X139800745Y-74974631D01*
X139630476Y-75034211D01*
X139477737Y-75130184D01*
X139350184Y-75257737D01*
X139254211Y-75410476D01*
X139194631Y-75580745D01*
X139194630Y-75580750D01*
X139174435Y-75759996D01*
X139174435Y-75760003D01*
X139194630Y-75939249D01*
X139194631Y-75939254D01*
X139254211Y-76109523D01*
X139344479Y-76253182D01*
X139350184Y-76262262D01*
X139477738Y-76389816D01*
X139630478Y-76485789D01*
X139640590Y-76489327D01*
X139687321Y-76518689D01*
X139815681Y-76647049D01*
X139849166Y-76708372D01*
X139852000Y-76734730D01*
X139852000Y-77235001D01*
X139852001Y-77235019D01*
X139862500Y-77337796D01*
X139862501Y-77337799D01*
X139903161Y-77460500D01*
X139917686Y-77504334D01*
X140009788Y-77653656D01*
X140133844Y-77777712D01*
X140230597Y-77837389D01*
X140277321Y-77889335D01*
X140289500Y-77942927D01*
X140289500Y-78260999D01*
X140269815Y-78328038D01*
X140263876Y-78336485D01*
X140190464Y-78432157D01*
X140129956Y-78578237D01*
X140129955Y-78578239D01*
X140114500Y-78695638D01*
X140114500Y-78974363D01*
X140129953Y-79091753D01*
X140129956Y-79091762D01*
X140187327Y-79230269D01*
X140190464Y-79237841D01*
X140286718Y-79363282D01*
X140317140Y-79386625D01*
X140358341Y-79443052D01*
X140362496Y-79512798D01*
X140328283Y-79573719D01*
X140317146Y-79583369D01*
X140295368Y-79600081D01*
X140286718Y-79606718D01*
X140190463Y-79732160D01*
X140129956Y-79878237D01*
X140129955Y-79878239D01*
X140114499Y-79995640D01*
X140114319Y-79998395D01*
X140114034Y-79999170D01*
X140113970Y-79999664D01*
X140113859Y-79999649D01*
X140090288Y-80064002D01*
X140034602Y-80106202D01*
X139964941Y-80111596D01*
X139903421Y-80078473D01*
X139902904Y-80077958D01*
X139901650Y-80076704D01*
X139868165Y-80015381D01*
X139865596Y-79997126D01*
X139865499Y-79995658D01*
X139865499Y-79995640D01*
X139852552Y-79897288D01*
X139850046Y-79878246D01*
X139850044Y-79878239D01*
X139850044Y-79878238D01*
X139841162Y-79856797D01*
X139833694Y-79787328D01*
X139841164Y-79761890D01*
X139849555Y-79741632D01*
X139849555Y-79741630D01*
X139857012Y-79685000D01*
X139814500Y-79685000D01*
X139747461Y-79665315D01*
X139716125Y-79636487D01*
X139693283Y-79606719D01*
X139684632Y-79600081D01*
X139662860Y-79583374D01*
X139621658Y-79526949D01*
X139617503Y-79457203D01*
X139651714Y-79396282D01*
X139662851Y-79386631D01*
X139693282Y-79363282D01*
X139709001Y-79342797D01*
X139716125Y-79333513D01*
X139772553Y-79292310D01*
X139814500Y-79285000D01*
X139857010Y-79285000D01*
X139857011Y-79284998D01*
X139849558Y-79228377D01*
X139849554Y-79228365D01*
X139841163Y-79208106D01*
X139833694Y-79138637D01*
X139841164Y-79113199D01*
X139850044Y-79091762D01*
X139865500Y-78974361D01*
X139865499Y-78695640D01*
X139865499Y-78695638D01*
X139865499Y-78695636D01*
X139850046Y-78578246D01*
X139850044Y-78578239D01*
X139850044Y-78578238D01*
X139789536Y-78432159D01*
X139693282Y-78306718D01*
X139567841Y-78210464D01*
X139505158Y-78184500D01*
X139421762Y-78149956D01*
X139421760Y-78149955D01*
X139304361Y-78134500D01*
X138775636Y-78134500D01*
X138658246Y-78149953D01*
X138658237Y-78149956D01*
X138597630Y-78175061D01*
X138550177Y-78184500D01*
X138102554Y-78184500D01*
X138035515Y-78164815D01*
X137997015Y-78125597D01*
X137932712Y-78021344D01*
X137808656Y-77897288D01*
X137659334Y-77805186D01*
X137659328Y-77805184D01*
X137625494Y-77793972D01*
X137568050Y-77754199D01*
X137541228Y-77689683D01*
X137540500Y-77676267D01*
X137540500Y-77444141D01*
X137560185Y-77377102D01*
X137612989Y-77331347D01*
X137621149Y-77327966D01*
X137632331Y-77323796D01*
X137747546Y-77237546D01*
X137833796Y-77122331D01*
X137884091Y-76987483D01*
X137890500Y-76927873D01*
X137890499Y-75332128D01*
X137884808Y-75279184D01*
X137884091Y-75272516D01*
X137833797Y-75137671D01*
X137833793Y-75137664D01*
X137747547Y-75022455D01*
X137747544Y-75022452D01*
X137632335Y-74936206D01*
X137632328Y-74936202D01*
X137497482Y-74885908D01*
X137497483Y-74885908D01*
X137437883Y-74879501D01*
X137437881Y-74879500D01*
X137437873Y-74879500D01*
X137437864Y-74879500D01*
X135842129Y-74879500D01*
X135842123Y-74879501D01*
X135782516Y-74885908D01*
X135647671Y-74936202D01*
X135647664Y-74936206D01*
X135532455Y-75022452D01*
X135532452Y-75022455D01*
X135446206Y-75137664D01*
X135446202Y-75137671D01*
X135395908Y-75272517D01*
X135389501Y-75332116D01*
X135389501Y-75332123D01*
X135389500Y-75332135D01*
X135389500Y-76927870D01*
X135389501Y-76927876D01*
X135395908Y-76987483D01*
X135446202Y-77122328D01*
X135446206Y-77122335D01*
X135532452Y-77237544D01*
X135532455Y-77237547D01*
X135647664Y-77323793D01*
X135647671Y-77323797D01*
X135685205Y-77337796D01*
X135782517Y-77374091D01*
X135842127Y-77380500D01*
X136115501Y-77380499D01*
X136182539Y-77400183D01*
X136228294Y-77452987D01*
X136239500Y-77504499D01*
X136239500Y-77676267D01*
X136219815Y-77743306D01*
X136167011Y-77789061D01*
X136154506Y-77793972D01*
X136120671Y-77805184D01*
X136120663Y-77805187D01*
X135971342Y-77897289D01*
X135847289Y-78021342D01*
X135755187Y-78170663D01*
X135755185Y-78170668D01*
X135741998Y-78210464D01*
X135700001Y-78337203D01*
X135700001Y-78337204D01*
X135700000Y-78337204D01*
X135689500Y-78439983D01*
X135689500Y-79240001D01*
X135689501Y-79240019D01*
X135700000Y-79342796D01*
X135700001Y-79342799D01*
X135755185Y-79509331D01*
X135755187Y-79509336D01*
X135766051Y-79526949D01*
X135847287Y-79658655D01*
X135847289Y-79658657D01*
X135940951Y-79752319D01*
X135974436Y-79813642D01*
X135969452Y-79883334D01*
X135940951Y-79927681D01*
X135847289Y-80021342D01*
X135847288Y-80021344D01*
X135781534Y-80127950D01*
X135779901Y-80130597D01*
X135727953Y-80177321D01*
X135674362Y-80189500D01*
X135455929Y-80189500D01*
X135330261Y-80214497D01*
X135330251Y-80214500D01*
X135281220Y-80234810D01*
X135211881Y-80263530D01*
X135211863Y-80263540D01*
X135105332Y-80334721D01*
X135105325Y-80334727D01*
X129804726Y-85635326D01*
X129733534Y-85741874D01*
X129684499Y-85860255D01*
X129684497Y-85860261D01*
X129659500Y-85985928D01*
X129659500Y-87515500D01*
X129639815Y-87582539D01*
X129587011Y-87628294D01*
X129535501Y-87639500D01*
X129412130Y-87639500D01*
X129412123Y-87639501D01*
X129352516Y-87645908D01*
X129217671Y-87696202D01*
X129217664Y-87696206D01*
X129102455Y-87782452D01*
X129102452Y-87782455D01*
X129016206Y-87897664D01*
X129016202Y-87897671D01*
X128965908Y-88032517D01*
X128959501Y-88092116D01*
X128959501Y-88092123D01*
X128959500Y-88092135D01*
X128959500Y-89887870D01*
X128959501Y-89887876D01*
X128965908Y-89947483D01*
X129016202Y-90082328D01*
X129016206Y-90082335D01*
X129102452Y-90197544D01*
X129102455Y-90197547D01*
X129217664Y-90283793D01*
X129217671Y-90283797D01*
X129349081Y-90332810D01*
X129405015Y-90374681D01*
X129429432Y-90440145D01*
X129414580Y-90508418D01*
X129393430Y-90536673D01*
X129271503Y-90658600D01*
X129135965Y-90852169D01*
X129135964Y-90852171D01*
X129036098Y-91066335D01*
X129036094Y-91066344D01*
X128974938Y-91294586D01*
X128974936Y-91294596D01*
X128954341Y-91529999D01*
X128954341Y-91530000D01*
X128974936Y-91765403D01*
X128974938Y-91765413D01*
X129036094Y-91993655D01*
X129036096Y-91993659D01*
X129036097Y-91993663D01*
X129114201Y-92161157D01*
X129135965Y-92207830D01*
X129135967Y-92207834D01*
X129235864Y-92350500D01*
X129271504Y-92401399D01*
X129271505Y-92401401D01*
X129438597Y-92568493D01*
X129438603Y-92568498D01*
X129624158Y-92698425D01*
X129667783Y-92753002D01*
X129674977Y-92822500D01*
X129643454Y-92884855D01*
X129624158Y-92901575D01*
X129438597Y-93031505D01*
X129271505Y-93198597D01*
X129135965Y-93392169D01*
X129135964Y-93392171D01*
X129036098Y-93606335D01*
X129036094Y-93606344D01*
X128974938Y-93834586D01*
X128974937Y-93834590D01*
X128974937Y-93834592D01*
X128966128Y-93935277D01*
X128954341Y-94069999D01*
X128954341Y-94070000D01*
X127066736Y-94070000D01*
X127078385Y-78537870D01*
X129109500Y-78537870D01*
X129109501Y-78537876D01*
X129115908Y-78597483D01*
X129166202Y-78732328D01*
X129166206Y-78732335D01*
X129252452Y-78847544D01*
X129252455Y-78847547D01*
X129367664Y-78933793D01*
X129367671Y-78933797D01*
X129367674Y-78933798D01*
X129499598Y-78983002D01*
X129555531Y-79024873D01*
X129579949Y-79090337D01*
X129565098Y-79158610D01*
X129543947Y-79186865D01*
X129421886Y-79308926D01*
X129286400Y-79502420D01*
X129286399Y-79502422D01*
X129186570Y-79716507D01*
X129186567Y-79716513D01*
X129129364Y-79929999D01*
X129129364Y-79930000D01*
X130026988Y-79930000D01*
X129994075Y-79987007D01*
X129960000Y-80114174D01*
X129960000Y-80245826D01*
X129994075Y-80372993D01*
X130026988Y-80430000D01*
X129129364Y-80430000D01*
X129186567Y-80643486D01*
X129186570Y-80643492D01*
X129286399Y-80857578D01*
X129421894Y-81051082D01*
X129588917Y-81218105D01*
X129782421Y-81353600D01*
X129996507Y-81453429D01*
X129996516Y-81453433D01*
X130210000Y-81510634D01*
X130210000Y-80613012D01*
X130267007Y-80645925D01*
X130394174Y-80680000D01*
X130525826Y-80680000D01*
X130652993Y-80645925D01*
X130710000Y-80613012D01*
X130710000Y-81510633D01*
X130923483Y-81453433D01*
X130923492Y-81453429D01*
X131137578Y-81353600D01*
X131331082Y-81218105D01*
X131498105Y-81051082D01*
X131633600Y-80857578D01*
X131733429Y-80643492D01*
X131733432Y-80643486D01*
X131790636Y-80430000D01*
X130893012Y-80430000D01*
X130925925Y-80372993D01*
X130960000Y-80245826D01*
X130960000Y-80114174D01*
X130925925Y-79987007D01*
X130893012Y-79930000D01*
X131790636Y-79930000D01*
X131790635Y-79929999D01*
X131733432Y-79716513D01*
X131733429Y-79716507D01*
X131633600Y-79502422D01*
X131633599Y-79502420D01*
X131498113Y-79308926D01*
X131498108Y-79308920D01*
X131376053Y-79186865D01*
X131342568Y-79125542D01*
X131347552Y-79055850D01*
X131389424Y-78999917D01*
X131420400Y-78983002D01*
X131552331Y-78933796D01*
X131667546Y-78847546D01*
X131753796Y-78732331D01*
X131804091Y-78597483D01*
X131810500Y-78537873D01*
X131810499Y-77015780D01*
X131830184Y-76948742D01*
X131846813Y-76928105D01*
X134368101Y-74406818D01*
X134429424Y-74373333D01*
X134455782Y-74370499D01*
X134537871Y-74370499D01*
X134537872Y-74370499D01*
X134597483Y-74364091D01*
X134732331Y-74313796D01*
X134847546Y-74227546D01*
X134933796Y-74112331D01*
X134984091Y-73977483D01*
X134990500Y-73917873D01*
X134990500Y-73456632D01*
X134990500Y-73271460D01*
X134990500Y-73261471D01*
X134990499Y-73261457D01*
X134990499Y-72822129D01*
X134990498Y-72822123D01*
X134990497Y-72822116D01*
X134984091Y-72762517D01*
X134933796Y-72627669D01*
X134933795Y-72627668D01*
X134933793Y-72627664D01*
X134847547Y-72512455D01*
X134847544Y-72512452D01*
X134732335Y-72426206D01*
X134732328Y-72426202D01*
X134597482Y-72375908D01*
X134597483Y-72375908D01*
X134537883Y-72369501D01*
X134537881Y-72369500D01*
X134537873Y-72369500D01*
X134088542Y-72369500D01*
X134088540Y-72369500D01*
X133891460Y-72369500D01*
X133891457Y-72369500D01*
X133442129Y-72369500D01*
X133442123Y-72369501D01*
X133382516Y-72375908D01*
X133247671Y-72426202D01*
X133247664Y-72426206D01*
X133132455Y-72512452D01*
X133132452Y-72512455D01*
X133046206Y-72627664D01*
X133046202Y-72627671D01*
X132995908Y-72762517D01*
X132989501Y-72822116D01*
X132989501Y-72822123D01*
X132989500Y-72822135D01*
X132989500Y-72904217D01*
X132969815Y-72971256D01*
X132953181Y-72991898D01*
X129822221Y-76122858D01*
X129822218Y-76122861D01*
X129691897Y-76253182D01*
X129630574Y-76286666D01*
X129604219Y-76289500D01*
X129562131Y-76289500D01*
X129562123Y-76289501D01*
X129502516Y-76295908D01*
X129367671Y-76346202D01*
X129367664Y-76346206D01*
X129252455Y-76432452D01*
X129252452Y-76432455D01*
X129166206Y-76547664D01*
X129166202Y-76547671D01*
X129115908Y-76682517D01*
X129109501Y-76742116D01*
X129109500Y-76742135D01*
X129109500Y-78537870D01*
X127078385Y-78537870D01*
X127080443Y-75794405D01*
X127080500Y-75793572D01*
X127080500Y-75722706D01*
X127080618Y-75717297D01*
X127083377Y-75654108D01*
X127097386Y-75333226D01*
X127098326Y-75322495D01*
X127148152Y-74944025D01*
X127150025Y-74933405D01*
X127232649Y-74560709D01*
X127235440Y-74550295D01*
X127350230Y-74186227D01*
X127353917Y-74176095D01*
X127500003Y-73823412D01*
X127504561Y-73813638D01*
X127680822Y-73475045D01*
X127686217Y-73465700D01*
X127891325Y-73143744D01*
X127897515Y-73134905D01*
X128129896Y-72832060D01*
X128136834Y-72823791D01*
X128394726Y-72542352D01*
X128402352Y-72534726D01*
X128683791Y-72276834D01*
X128692060Y-72269896D01*
X128994905Y-72037515D01*
X129003744Y-72031325D01*
X129325700Y-71826217D01*
X129335045Y-71820822D01*
X129673638Y-71644561D01*
X129683412Y-71640003D01*
X130036095Y-71493917D01*
X130046227Y-71490230D01*
X130410295Y-71375440D01*
X130420709Y-71372649D01*
X130793405Y-71290025D01*
X130804025Y-71288152D01*
X131182495Y-71238326D01*
X131193226Y-71237386D01*
X131577289Y-71220618D01*
X131582705Y-71220501D01*
X146505673Y-71230450D01*
X146506644Y-71230514D01*
X146514205Y-71230512D01*
X146514208Y-71230513D01*
X146579478Y-71230499D01*
X146645558Y-71230544D01*
X146645558Y-71230543D01*
X146653196Y-71230549D01*
X146654176Y-71230484D01*
X196580990Y-71220500D01*
X201514108Y-71220500D01*
X201577294Y-71220500D01*
X201582702Y-71220617D01*
G37*
%TD.AperFunction*%
%TD*%
M02*
