%TF.GenerationSoftware,KiCad,Pcbnew,8.0.0-8.0.0-1~ubuntu20.04.1*%
%TF.CreationDate,2024-06-18T18:08:34-06:00*%
%TF.ProjectId,turbidometer,74757262-6964-46f6-9d65-7465722e6b69,rev?*%
%TF.SameCoordinates,Original*%
%TF.FileFunction,Legend,Top*%
%TF.FilePolarity,Positive*%
%FSLAX46Y46*%
G04 Gerber Fmt 4.6, Leading zero omitted, Abs format (unit mm)*
G04 Created by KiCad (PCBNEW 8.0.0-8.0.0-1~ubuntu20.04.1) date 2024-06-18 18:08:34*
%MOMM*%
%LPD*%
G01*
G04 APERTURE LIST*
%ADD10C,0.200000*%
%ADD11C,0.150000*%
%ADD12C,0.120000*%
G04 APERTURE END LIST*
D10*
X182573482Y-113774838D02*
X182478244Y-113727219D01*
X182478244Y-113727219D02*
X182335387Y-113727219D01*
X182335387Y-113727219D02*
X182192530Y-113774838D01*
X182192530Y-113774838D02*
X182097292Y-113870076D01*
X182097292Y-113870076D02*
X182049673Y-113965314D01*
X182049673Y-113965314D02*
X182002054Y-114155790D01*
X182002054Y-114155790D02*
X182002054Y-114298647D01*
X182002054Y-114298647D02*
X182049673Y-114489123D01*
X182049673Y-114489123D02*
X182097292Y-114584361D01*
X182097292Y-114584361D02*
X182192530Y-114679600D01*
X182192530Y-114679600D02*
X182335387Y-114727219D01*
X182335387Y-114727219D02*
X182430625Y-114727219D01*
X182430625Y-114727219D02*
X182573482Y-114679600D01*
X182573482Y-114679600D02*
X182621101Y-114631980D01*
X182621101Y-114631980D02*
X182621101Y-114298647D01*
X182621101Y-114298647D02*
X182430625Y-114298647D01*
X183049673Y-114727219D02*
X183049673Y-113727219D01*
X183049673Y-113727219D02*
X183621101Y-114727219D01*
X183621101Y-114727219D02*
X183621101Y-113727219D01*
X184097292Y-114727219D02*
X184097292Y-113727219D01*
X184097292Y-113727219D02*
X184335387Y-113727219D01*
X184335387Y-113727219D02*
X184478244Y-113774838D01*
X184478244Y-113774838D02*
X184573482Y-113870076D01*
X184573482Y-113870076D02*
X184621101Y-113965314D01*
X184621101Y-113965314D02*
X184668720Y-114155790D01*
X184668720Y-114155790D02*
X184668720Y-114298647D01*
X184668720Y-114298647D02*
X184621101Y-114489123D01*
X184621101Y-114489123D02*
X184573482Y-114584361D01*
X184573482Y-114584361D02*
X184478244Y-114679600D01*
X184478244Y-114679600D02*
X184335387Y-114727219D01*
X184335387Y-114727219D02*
X184097292Y-114727219D01*
X130865863Y-73707219D02*
X130389673Y-73707219D01*
X130389673Y-73707219D02*
X130342054Y-74183409D01*
X130342054Y-74183409D02*
X130389673Y-74135790D01*
X130389673Y-74135790D02*
X130484911Y-74088171D01*
X130484911Y-74088171D02*
X130723006Y-74088171D01*
X130723006Y-74088171D02*
X130818244Y-74135790D01*
X130818244Y-74135790D02*
X130865863Y-74183409D01*
X130865863Y-74183409D02*
X130913482Y-74278647D01*
X130913482Y-74278647D02*
X130913482Y-74516742D01*
X130913482Y-74516742D02*
X130865863Y-74611980D01*
X130865863Y-74611980D02*
X130818244Y-74659600D01*
X130818244Y-74659600D02*
X130723006Y-74707219D01*
X130723006Y-74707219D02*
X130484911Y-74707219D01*
X130484911Y-74707219D02*
X130389673Y-74659600D01*
X130389673Y-74659600D02*
X130342054Y-74611980D01*
X131199197Y-73707219D02*
X131532530Y-74707219D01*
X131532530Y-74707219D02*
X131865863Y-73707219D01*
X133293482Y-108514838D02*
X133198244Y-108467219D01*
X133198244Y-108467219D02*
X133055387Y-108467219D01*
X133055387Y-108467219D02*
X132912530Y-108514838D01*
X132912530Y-108514838D02*
X132817292Y-108610076D01*
X132817292Y-108610076D02*
X132769673Y-108705314D01*
X132769673Y-108705314D02*
X132722054Y-108895790D01*
X132722054Y-108895790D02*
X132722054Y-109038647D01*
X132722054Y-109038647D02*
X132769673Y-109229123D01*
X132769673Y-109229123D02*
X132817292Y-109324361D01*
X132817292Y-109324361D02*
X132912530Y-109419600D01*
X132912530Y-109419600D02*
X133055387Y-109467219D01*
X133055387Y-109467219D02*
X133150625Y-109467219D01*
X133150625Y-109467219D02*
X133293482Y-109419600D01*
X133293482Y-109419600D02*
X133341101Y-109371980D01*
X133341101Y-109371980D02*
X133341101Y-109038647D01*
X133341101Y-109038647D02*
X133150625Y-109038647D01*
X133769673Y-109467219D02*
X133769673Y-108467219D01*
X133769673Y-108467219D02*
X134341101Y-109467219D01*
X134341101Y-109467219D02*
X134341101Y-108467219D01*
X134817292Y-109467219D02*
X134817292Y-108467219D01*
X134817292Y-108467219D02*
X135055387Y-108467219D01*
X135055387Y-108467219D02*
X135198244Y-108514838D01*
X135198244Y-108514838D02*
X135293482Y-108610076D01*
X135293482Y-108610076D02*
X135341101Y-108705314D01*
X135341101Y-108705314D02*
X135388720Y-108895790D01*
X135388720Y-108895790D02*
X135388720Y-109038647D01*
X135388720Y-109038647D02*
X135341101Y-109229123D01*
X135341101Y-109229123D02*
X135293482Y-109324361D01*
X135293482Y-109324361D02*
X135198244Y-109419600D01*
X135198244Y-109419600D02*
X135055387Y-109467219D01*
X135055387Y-109467219D02*
X134817292Y-109467219D01*
X128926816Y-85777219D02*
X129260149Y-86777219D01*
X129260149Y-86777219D02*
X129593482Y-85777219D01*
X130498244Y-86777219D02*
X130164911Y-86301028D01*
X129926816Y-86777219D02*
X129926816Y-85777219D01*
X129926816Y-85777219D02*
X130307768Y-85777219D01*
X130307768Y-85777219D02*
X130403006Y-85824838D01*
X130403006Y-85824838D02*
X130450625Y-85872457D01*
X130450625Y-85872457D02*
X130498244Y-85967695D01*
X130498244Y-85967695D02*
X130498244Y-86110552D01*
X130498244Y-86110552D02*
X130450625Y-86205790D01*
X130450625Y-86205790D02*
X130403006Y-86253409D01*
X130403006Y-86253409D02*
X130307768Y-86301028D01*
X130307768Y-86301028D02*
X129926816Y-86301028D01*
X130926816Y-86253409D02*
X131260149Y-86253409D01*
X131403006Y-86777219D02*
X130926816Y-86777219D01*
X130926816Y-86777219D02*
X130926816Y-85777219D01*
X130926816Y-85777219D02*
X131403006Y-85777219D01*
X132164911Y-86253409D02*
X131831578Y-86253409D01*
X131831578Y-86777219D02*
X131831578Y-85777219D01*
X131831578Y-85777219D02*
X132307768Y-85777219D01*
X132879197Y-85777219D02*
X132974435Y-85777219D01*
X132974435Y-85777219D02*
X133069673Y-85824838D01*
X133069673Y-85824838D02*
X133117292Y-85872457D01*
X133117292Y-85872457D02*
X133164911Y-85967695D01*
X133164911Y-85967695D02*
X133212530Y-86158171D01*
X133212530Y-86158171D02*
X133212530Y-86396266D01*
X133212530Y-86396266D02*
X133164911Y-86586742D01*
X133164911Y-86586742D02*
X133117292Y-86681980D01*
X133117292Y-86681980D02*
X133069673Y-86729600D01*
X133069673Y-86729600D02*
X132974435Y-86777219D01*
X132974435Y-86777219D02*
X132879197Y-86777219D01*
X132879197Y-86777219D02*
X132783959Y-86729600D01*
X132783959Y-86729600D02*
X132736340Y-86681980D01*
X132736340Y-86681980D02*
X132688721Y-86586742D01*
X132688721Y-86586742D02*
X132641102Y-86396266D01*
X132641102Y-86396266D02*
X132641102Y-86158171D01*
X132641102Y-86158171D02*
X132688721Y-85967695D01*
X132688721Y-85967695D02*
X132736340Y-85872457D01*
X132736340Y-85872457D02*
X132783959Y-85824838D01*
X132783959Y-85824838D02*
X132879197Y-85777219D01*
X176003482Y-113704838D02*
X175908244Y-113657219D01*
X175908244Y-113657219D02*
X175765387Y-113657219D01*
X175765387Y-113657219D02*
X175622530Y-113704838D01*
X175622530Y-113704838D02*
X175527292Y-113800076D01*
X175527292Y-113800076D02*
X175479673Y-113895314D01*
X175479673Y-113895314D02*
X175432054Y-114085790D01*
X175432054Y-114085790D02*
X175432054Y-114228647D01*
X175432054Y-114228647D02*
X175479673Y-114419123D01*
X175479673Y-114419123D02*
X175527292Y-114514361D01*
X175527292Y-114514361D02*
X175622530Y-114609600D01*
X175622530Y-114609600D02*
X175765387Y-114657219D01*
X175765387Y-114657219D02*
X175860625Y-114657219D01*
X175860625Y-114657219D02*
X176003482Y-114609600D01*
X176003482Y-114609600D02*
X176051101Y-114561980D01*
X176051101Y-114561980D02*
X176051101Y-114228647D01*
X176051101Y-114228647D02*
X175860625Y-114228647D01*
X176479673Y-114657219D02*
X176479673Y-113657219D01*
X176479673Y-113657219D02*
X177051101Y-114657219D01*
X177051101Y-114657219D02*
X177051101Y-113657219D01*
X177527292Y-114657219D02*
X177527292Y-113657219D01*
X177527292Y-113657219D02*
X177765387Y-113657219D01*
X177765387Y-113657219D02*
X177908244Y-113704838D01*
X177908244Y-113704838D02*
X178003482Y-113800076D01*
X178003482Y-113800076D02*
X178051101Y-113895314D01*
X178051101Y-113895314D02*
X178098720Y-114085790D01*
X178098720Y-114085790D02*
X178098720Y-114228647D01*
X178098720Y-114228647D02*
X178051101Y-114419123D01*
X178051101Y-114419123D02*
X178003482Y-114514361D01*
X178003482Y-114514361D02*
X177908244Y-114609600D01*
X177908244Y-114609600D02*
X177765387Y-114657219D01*
X177765387Y-114657219D02*
X177527292Y-114657219D01*
X132774435Y-105867219D02*
X133393482Y-105867219D01*
X133393482Y-105867219D02*
X133060149Y-106248171D01*
X133060149Y-106248171D02*
X133203006Y-106248171D01*
X133203006Y-106248171D02*
X133298244Y-106295790D01*
X133298244Y-106295790D02*
X133345863Y-106343409D01*
X133345863Y-106343409D02*
X133393482Y-106438647D01*
X133393482Y-106438647D02*
X133393482Y-106676742D01*
X133393482Y-106676742D02*
X133345863Y-106771980D01*
X133345863Y-106771980D02*
X133298244Y-106819600D01*
X133298244Y-106819600D02*
X133203006Y-106867219D01*
X133203006Y-106867219D02*
X132917292Y-106867219D01*
X132917292Y-106867219D02*
X132822054Y-106819600D01*
X132822054Y-106819600D02*
X132774435Y-106771980D01*
X133822054Y-106771980D02*
X133869673Y-106819600D01*
X133869673Y-106819600D02*
X133822054Y-106867219D01*
X133822054Y-106867219D02*
X133774435Y-106819600D01*
X133774435Y-106819600D02*
X133822054Y-106771980D01*
X133822054Y-106771980D02*
X133822054Y-106867219D01*
X134203006Y-105867219D02*
X134822053Y-105867219D01*
X134822053Y-105867219D02*
X134488720Y-106248171D01*
X134488720Y-106248171D02*
X134631577Y-106248171D01*
X134631577Y-106248171D02*
X134726815Y-106295790D01*
X134726815Y-106295790D02*
X134774434Y-106343409D01*
X134774434Y-106343409D02*
X134822053Y-106438647D01*
X134822053Y-106438647D02*
X134822053Y-106676742D01*
X134822053Y-106676742D02*
X134774434Y-106771980D01*
X134774434Y-106771980D02*
X134726815Y-106819600D01*
X134726815Y-106819600D02*
X134631577Y-106867219D01*
X134631577Y-106867219D02*
X134345863Y-106867219D01*
X134345863Y-106867219D02*
X134250625Y-106819600D01*
X134250625Y-106819600D02*
X134203006Y-106771980D01*
X135107768Y-105867219D02*
X135441101Y-106867219D01*
X135441101Y-106867219D02*
X135774434Y-105867219D01*
X132707219Y-92923183D02*
X133707219Y-92589850D01*
X133707219Y-92589850D02*
X132707219Y-92256517D01*
X133707219Y-91351755D02*
X133231028Y-91685088D01*
X133707219Y-91923183D02*
X132707219Y-91923183D01*
X132707219Y-91923183D02*
X132707219Y-91542231D01*
X132707219Y-91542231D02*
X132754838Y-91446993D01*
X132754838Y-91446993D02*
X132802457Y-91399374D01*
X132802457Y-91399374D02*
X132897695Y-91351755D01*
X132897695Y-91351755D02*
X133040552Y-91351755D01*
X133040552Y-91351755D02*
X133135790Y-91399374D01*
X133135790Y-91399374D02*
X133183409Y-91446993D01*
X133183409Y-91446993D02*
X133231028Y-91542231D01*
X133231028Y-91542231D02*
X133231028Y-91923183D01*
X133183409Y-90923183D02*
X133183409Y-90589850D01*
X133707219Y-90446993D02*
X133707219Y-90923183D01*
X133707219Y-90923183D02*
X132707219Y-90923183D01*
X132707219Y-90923183D02*
X132707219Y-90446993D01*
X133183409Y-89685088D02*
X133183409Y-90018421D01*
X133707219Y-90018421D02*
X132707219Y-90018421D01*
X132707219Y-90018421D02*
X132707219Y-89542231D01*
X133707219Y-88637469D02*
X133707219Y-89208897D01*
X133707219Y-88923183D02*
X132707219Y-88923183D01*
X132707219Y-88923183D02*
X132850076Y-89018421D01*
X132850076Y-89018421D02*
X132945314Y-89113659D01*
X132945314Y-89113659D02*
X132992933Y-89208897D01*
X129953482Y-82624838D02*
X129858244Y-82577219D01*
X129858244Y-82577219D02*
X129715387Y-82577219D01*
X129715387Y-82577219D02*
X129572530Y-82624838D01*
X129572530Y-82624838D02*
X129477292Y-82720076D01*
X129477292Y-82720076D02*
X129429673Y-82815314D01*
X129429673Y-82815314D02*
X129382054Y-83005790D01*
X129382054Y-83005790D02*
X129382054Y-83148647D01*
X129382054Y-83148647D02*
X129429673Y-83339123D01*
X129429673Y-83339123D02*
X129477292Y-83434361D01*
X129477292Y-83434361D02*
X129572530Y-83529600D01*
X129572530Y-83529600D02*
X129715387Y-83577219D01*
X129715387Y-83577219D02*
X129810625Y-83577219D01*
X129810625Y-83577219D02*
X129953482Y-83529600D01*
X129953482Y-83529600D02*
X130001101Y-83481980D01*
X130001101Y-83481980D02*
X130001101Y-83148647D01*
X130001101Y-83148647D02*
X129810625Y-83148647D01*
X130429673Y-83577219D02*
X130429673Y-82577219D01*
X130429673Y-82577219D02*
X131001101Y-83577219D01*
X131001101Y-83577219D02*
X131001101Y-82577219D01*
X131477292Y-83577219D02*
X131477292Y-82577219D01*
X131477292Y-82577219D02*
X131715387Y-82577219D01*
X131715387Y-82577219D02*
X131858244Y-82624838D01*
X131858244Y-82624838D02*
X131953482Y-82720076D01*
X131953482Y-82720076D02*
X132001101Y-82815314D01*
X132001101Y-82815314D02*
X132048720Y-83005790D01*
X132048720Y-83005790D02*
X132048720Y-83148647D01*
X132048720Y-83148647D02*
X132001101Y-83339123D01*
X132001101Y-83339123D02*
X131953482Y-83434361D01*
X131953482Y-83434361D02*
X131858244Y-83529600D01*
X131858244Y-83529600D02*
X131715387Y-83577219D01*
X131715387Y-83577219D02*
X131477292Y-83577219D01*
X132822054Y-111781504D02*
X133298244Y-111781504D01*
X132726816Y-112067219D02*
X133060149Y-111067219D01*
X133060149Y-111067219D02*
X133393482Y-112067219D01*
X133917292Y-111067219D02*
X134012530Y-111067219D01*
X134012530Y-111067219D02*
X134107768Y-111114838D01*
X134107768Y-111114838D02*
X134155387Y-111162457D01*
X134155387Y-111162457D02*
X134203006Y-111257695D01*
X134203006Y-111257695D02*
X134250625Y-111448171D01*
X134250625Y-111448171D02*
X134250625Y-111686266D01*
X134250625Y-111686266D02*
X134203006Y-111876742D01*
X134203006Y-111876742D02*
X134155387Y-111971980D01*
X134155387Y-111971980D02*
X134107768Y-112019600D01*
X134107768Y-112019600D02*
X134012530Y-112067219D01*
X134012530Y-112067219D02*
X133917292Y-112067219D01*
X133917292Y-112067219D02*
X133822054Y-112019600D01*
X133822054Y-112019600D02*
X133774435Y-111971980D01*
X133774435Y-111971980D02*
X133726816Y-111876742D01*
X133726816Y-111876742D02*
X133679197Y-111686266D01*
X133679197Y-111686266D02*
X133679197Y-111448171D01*
X133679197Y-111448171D02*
X133726816Y-111257695D01*
X133726816Y-111257695D02*
X133774435Y-111162457D01*
X133774435Y-111162457D02*
X133822054Y-111114838D01*
X133822054Y-111114838D02*
X133917292Y-111067219D01*
X132922054Y-114281504D02*
X133398244Y-114281504D01*
X132826816Y-114567219D02*
X133160149Y-113567219D01*
X133160149Y-113567219D02*
X133493482Y-114567219D01*
X134350625Y-114567219D02*
X133779197Y-114567219D01*
X134064911Y-114567219D02*
X134064911Y-113567219D01*
X134064911Y-113567219D02*
X133969673Y-113710076D01*
X133969673Y-113710076D02*
X133874435Y-113805314D01*
X133874435Y-113805314D02*
X133779197Y-113852933D01*
D11*
X164689580Y-111426666D02*
X164737200Y-111474285D01*
X164737200Y-111474285D02*
X164784819Y-111617142D01*
X164784819Y-111617142D02*
X164784819Y-111712380D01*
X164784819Y-111712380D02*
X164737200Y-111855237D01*
X164737200Y-111855237D02*
X164641961Y-111950475D01*
X164641961Y-111950475D02*
X164546723Y-111998094D01*
X164546723Y-111998094D02*
X164356247Y-112045713D01*
X164356247Y-112045713D02*
X164213390Y-112045713D01*
X164213390Y-112045713D02*
X164022914Y-111998094D01*
X164022914Y-111998094D02*
X163927676Y-111950475D01*
X163927676Y-111950475D02*
X163832438Y-111855237D01*
X163832438Y-111855237D02*
X163784819Y-111712380D01*
X163784819Y-111712380D02*
X163784819Y-111617142D01*
X163784819Y-111617142D02*
X163832438Y-111474285D01*
X163832438Y-111474285D02*
X163880057Y-111426666D01*
X164784819Y-110950475D02*
X164784819Y-110759999D01*
X164784819Y-110759999D02*
X164737200Y-110664761D01*
X164737200Y-110664761D02*
X164689580Y-110617142D01*
X164689580Y-110617142D02*
X164546723Y-110521904D01*
X164546723Y-110521904D02*
X164356247Y-110474285D01*
X164356247Y-110474285D02*
X163975295Y-110474285D01*
X163975295Y-110474285D02*
X163880057Y-110521904D01*
X163880057Y-110521904D02*
X163832438Y-110569523D01*
X163832438Y-110569523D02*
X163784819Y-110664761D01*
X163784819Y-110664761D02*
X163784819Y-110855237D01*
X163784819Y-110855237D02*
X163832438Y-110950475D01*
X163832438Y-110950475D02*
X163880057Y-110998094D01*
X163880057Y-110998094D02*
X163975295Y-111045713D01*
X163975295Y-111045713D02*
X164213390Y-111045713D01*
X164213390Y-111045713D02*
X164308628Y-110998094D01*
X164308628Y-110998094D02*
X164356247Y-110950475D01*
X164356247Y-110950475D02*
X164403866Y-110855237D01*
X164403866Y-110855237D02*
X164403866Y-110664761D01*
X164403866Y-110664761D02*
X164356247Y-110569523D01*
X164356247Y-110569523D02*
X164308628Y-110521904D01*
X164308628Y-110521904D02*
X164213390Y-110474285D01*
X154784761Y-80260057D02*
X154689523Y-80212438D01*
X154689523Y-80212438D02*
X154594285Y-80117200D01*
X154594285Y-80117200D02*
X154451428Y-79974342D01*
X154451428Y-79974342D02*
X154356190Y-79926723D01*
X154356190Y-79926723D02*
X154260952Y-79926723D01*
X154308571Y-80164819D02*
X154213333Y-80117200D01*
X154213333Y-80117200D02*
X154118095Y-80021961D01*
X154118095Y-80021961D02*
X154070476Y-79831485D01*
X154070476Y-79831485D02*
X154070476Y-79498152D01*
X154070476Y-79498152D02*
X154118095Y-79307676D01*
X154118095Y-79307676D02*
X154213333Y-79212438D01*
X154213333Y-79212438D02*
X154308571Y-79164819D01*
X154308571Y-79164819D02*
X154499047Y-79164819D01*
X154499047Y-79164819D02*
X154594285Y-79212438D01*
X154594285Y-79212438D02*
X154689523Y-79307676D01*
X154689523Y-79307676D02*
X154737142Y-79498152D01*
X154737142Y-79498152D02*
X154737142Y-79831485D01*
X154737142Y-79831485D02*
X154689523Y-80021961D01*
X154689523Y-80021961D02*
X154594285Y-80117200D01*
X154594285Y-80117200D02*
X154499047Y-80164819D01*
X154499047Y-80164819D02*
X154308571Y-80164819D01*
X155689523Y-80164819D02*
X155118095Y-80164819D01*
X155403809Y-80164819D02*
X155403809Y-79164819D01*
X155403809Y-79164819D02*
X155308571Y-79307676D01*
X155308571Y-79307676D02*
X155213333Y-79402914D01*
X155213333Y-79402914D02*
X155118095Y-79450533D01*
X153513333Y-95864819D02*
X153180000Y-95388628D01*
X152941905Y-95864819D02*
X152941905Y-94864819D01*
X152941905Y-94864819D02*
X153322857Y-94864819D01*
X153322857Y-94864819D02*
X153418095Y-94912438D01*
X153418095Y-94912438D02*
X153465714Y-94960057D01*
X153465714Y-94960057D02*
X153513333Y-95055295D01*
X153513333Y-95055295D02*
X153513333Y-95198152D01*
X153513333Y-95198152D02*
X153465714Y-95293390D01*
X153465714Y-95293390D02*
X153418095Y-95341009D01*
X153418095Y-95341009D02*
X153322857Y-95388628D01*
X153322857Y-95388628D02*
X152941905Y-95388628D01*
X154084762Y-95293390D02*
X153989524Y-95245771D01*
X153989524Y-95245771D02*
X153941905Y-95198152D01*
X153941905Y-95198152D02*
X153894286Y-95102914D01*
X153894286Y-95102914D02*
X153894286Y-95055295D01*
X153894286Y-95055295D02*
X153941905Y-94960057D01*
X153941905Y-94960057D02*
X153989524Y-94912438D01*
X153989524Y-94912438D02*
X154084762Y-94864819D01*
X154084762Y-94864819D02*
X154275238Y-94864819D01*
X154275238Y-94864819D02*
X154370476Y-94912438D01*
X154370476Y-94912438D02*
X154418095Y-94960057D01*
X154418095Y-94960057D02*
X154465714Y-95055295D01*
X154465714Y-95055295D02*
X154465714Y-95102914D01*
X154465714Y-95102914D02*
X154418095Y-95198152D01*
X154418095Y-95198152D02*
X154370476Y-95245771D01*
X154370476Y-95245771D02*
X154275238Y-95293390D01*
X154275238Y-95293390D02*
X154084762Y-95293390D01*
X154084762Y-95293390D02*
X153989524Y-95341009D01*
X153989524Y-95341009D02*
X153941905Y-95388628D01*
X153941905Y-95388628D02*
X153894286Y-95483866D01*
X153894286Y-95483866D02*
X153894286Y-95674342D01*
X153894286Y-95674342D02*
X153941905Y-95769580D01*
X153941905Y-95769580D02*
X153989524Y-95817200D01*
X153989524Y-95817200D02*
X154084762Y-95864819D01*
X154084762Y-95864819D02*
X154275238Y-95864819D01*
X154275238Y-95864819D02*
X154370476Y-95817200D01*
X154370476Y-95817200D02*
X154418095Y-95769580D01*
X154418095Y-95769580D02*
X154465714Y-95674342D01*
X154465714Y-95674342D02*
X154465714Y-95483866D01*
X154465714Y-95483866D02*
X154418095Y-95388628D01*
X154418095Y-95388628D02*
X154370476Y-95341009D01*
X154370476Y-95341009D02*
X154275238Y-95293390D01*
X162554819Y-111432857D02*
X162078628Y-111766190D01*
X162554819Y-112004285D02*
X161554819Y-112004285D01*
X161554819Y-112004285D02*
X161554819Y-111623333D01*
X161554819Y-111623333D02*
X161602438Y-111528095D01*
X161602438Y-111528095D02*
X161650057Y-111480476D01*
X161650057Y-111480476D02*
X161745295Y-111432857D01*
X161745295Y-111432857D02*
X161888152Y-111432857D01*
X161888152Y-111432857D02*
X161983390Y-111480476D01*
X161983390Y-111480476D02*
X162031009Y-111528095D01*
X162031009Y-111528095D02*
X162078628Y-111623333D01*
X162078628Y-111623333D02*
X162078628Y-112004285D01*
X162554819Y-110480476D02*
X162554819Y-111051904D01*
X162554819Y-110766190D02*
X161554819Y-110766190D01*
X161554819Y-110766190D02*
X161697676Y-110861428D01*
X161697676Y-110861428D02*
X161792914Y-110956666D01*
X161792914Y-110956666D02*
X161840533Y-111051904D01*
X162554819Y-109528095D02*
X162554819Y-110099523D01*
X162554819Y-109813809D02*
X161554819Y-109813809D01*
X161554819Y-109813809D02*
X161697676Y-109909047D01*
X161697676Y-109909047D02*
X161792914Y-110004285D01*
X161792914Y-110004285D02*
X161840533Y-110099523D01*
X200385669Y-96209156D02*
X199813249Y-96108141D01*
X199981608Y-96613217D02*
X199274501Y-95906111D01*
X199274501Y-95906111D02*
X199543875Y-95636737D01*
X199543875Y-95636737D02*
X199644890Y-95603065D01*
X199644890Y-95603065D02*
X199712234Y-95603065D01*
X199712234Y-95603065D02*
X199813249Y-95636737D01*
X199813249Y-95636737D02*
X199914264Y-95737752D01*
X199914264Y-95737752D02*
X199947936Y-95838767D01*
X199947936Y-95838767D02*
X199947936Y-95906111D01*
X199947936Y-95906111D02*
X199914264Y-96007126D01*
X199914264Y-96007126D02*
X199644890Y-96276500D01*
X200385669Y-94862286D02*
X200284654Y-94895958D01*
X200284654Y-94895958D02*
X200183638Y-94996973D01*
X200183638Y-94996973D02*
X200116295Y-95131660D01*
X200116295Y-95131660D02*
X200116295Y-95266347D01*
X200116295Y-95266347D02*
X200149967Y-95367363D01*
X200149967Y-95367363D02*
X200250982Y-95535721D01*
X200250982Y-95535721D02*
X200351997Y-95636737D01*
X200351997Y-95636737D02*
X200520356Y-95737752D01*
X200520356Y-95737752D02*
X200621371Y-95771424D01*
X200621371Y-95771424D02*
X200756058Y-95771424D01*
X200756058Y-95771424D02*
X200890745Y-95704080D01*
X200890745Y-95704080D02*
X200958089Y-95636737D01*
X200958089Y-95636737D02*
X201025432Y-95502050D01*
X201025432Y-95502050D02*
X201025432Y-95434706D01*
X201025432Y-95434706D02*
X200789730Y-95199004D01*
X200789730Y-95199004D02*
X200655043Y-95333691D01*
X200722386Y-94592912D02*
X200722386Y-94525569D01*
X200722386Y-94525569D02*
X200756058Y-94424553D01*
X200756058Y-94424553D02*
X200924417Y-94256195D01*
X200924417Y-94256195D02*
X201025432Y-94222523D01*
X201025432Y-94222523D02*
X201092776Y-94222523D01*
X201092776Y-94222523D02*
X201193791Y-94256195D01*
X201193791Y-94256195D02*
X201261134Y-94323538D01*
X201261134Y-94323538D02*
X201328478Y-94458225D01*
X201328478Y-94458225D02*
X201328478Y-95266347D01*
X201328478Y-95266347D02*
X201766211Y-94828615D01*
X151540952Y-87397319D02*
X151064762Y-87397319D01*
X151064762Y-87397319D02*
X151064762Y-86397319D01*
X151874286Y-86873509D02*
X152207619Y-86873509D01*
X152350476Y-87397319D02*
X151874286Y-87397319D01*
X151874286Y-87397319D02*
X151874286Y-86397319D01*
X151874286Y-86397319D02*
X152350476Y-86397319D01*
X152779048Y-87397319D02*
X152779048Y-86397319D01*
X152779048Y-86397319D02*
X153017143Y-86397319D01*
X153017143Y-86397319D02*
X153160000Y-86444938D01*
X153160000Y-86444938D02*
X153255238Y-86540176D01*
X153255238Y-86540176D02*
X153302857Y-86635414D01*
X153302857Y-86635414D02*
X153350476Y-86825890D01*
X153350476Y-86825890D02*
X153350476Y-86968747D01*
X153350476Y-86968747D02*
X153302857Y-87159223D01*
X153302857Y-87159223D02*
X153255238Y-87254461D01*
X153255238Y-87254461D02*
X153160000Y-87349700D01*
X153160000Y-87349700D02*
X153017143Y-87397319D01*
X153017143Y-87397319D02*
X152779048Y-87397319D01*
X153969524Y-86397319D02*
X154064762Y-86397319D01*
X154064762Y-86397319D02*
X154160000Y-86444938D01*
X154160000Y-86444938D02*
X154207619Y-86492557D01*
X154207619Y-86492557D02*
X154255238Y-86587795D01*
X154255238Y-86587795D02*
X154302857Y-86778271D01*
X154302857Y-86778271D02*
X154302857Y-87016366D01*
X154302857Y-87016366D02*
X154255238Y-87206842D01*
X154255238Y-87206842D02*
X154207619Y-87302080D01*
X154207619Y-87302080D02*
X154160000Y-87349700D01*
X154160000Y-87349700D02*
X154064762Y-87397319D01*
X154064762Y-87397319D02*
X153969524Y-87397319D01*
X153969524Y-87397319D02*
X153874286Y-87349700D01*
X153874286Y-87349700D02*
X153826667Y-87302080D01*
X153826667Y-87302080D02*
X153779048Y-87206842D01*
X153779048Y-87206842D02*
X153731429Y-87016366D01*
X153731429Y-87016366D02*
X153731429Y-86778271D01*
X153731429Y-86778271D02*
X153779048Y-86587795D01*
X153779048Y-86587795D02*
X153826667Y-86492557D01*
X153826667Y-86492557D02*
X153874286Y-86444938D01*
X153874286Y-86444938D02*
X153969524Y-86397319D01*
X166423333Y-119469580D02*
X166375714Y-119517200D01*
X166375714Y-119517200D02*
X166232857Y-119564819D01*
X166232857Y-119564819D02*
X166137619Y-119564819D01*
X166137619Y-119564819D02*
X165994762Y-119517200D01*
X165994762Y-119517200D02*
X165899524Y-119421961D01*
X165899524Y-119421961D02*
X165851905Y-119326723D01*
X165851905Y-119326723D02*
X165804286Y-119136247D01*
X165804286Y-119136247D02*
X165804286Y-118993390D01*
X165804286Y-118993390D02*
X165851905Y-118802914D01*
X165851905Y-118802914D02*
X165899524Y-118707676D01*
X165899524Y-118707676D02*
X165994762Y-118612438D01*
X165994762Y-118612438D02*
X166137619Y-118564819D01*
X166137619Y-118564819D02*
X166232857Y-118564819D01*
X166232857Y-118564819D02*
X166375714Y-118612438D01*
X166375714Y-118612438D02*
X166423333Y-118660057D01*
X167328095Y-118564819D02*
X166851905Y-118564819D01*
X166851905Y-118564819D02*
X166804286Y-119041009D01*
X166804286Y-119041009D02*
X166851905Y-118993390D01*
X166851905Y-118993390D02*
X166947143Y-118945771D01*
X166947143Y-118945771D02*
X167185238Y-118945771D01*
X167185238Y-118945771D02*
X167280476Y-118993390D01*
X167280476Y-118993390D02*
X167328095Y-119041009D01*
X167328095Y-119041009D02*
X167375714Y-119136247D01*
X167375714Y-119136247D02*
X167375714Y-119374342D01*
X167375714Y-119374342D02*
X167328095Y-119469580D01*
X167328095Y-119469580D02*
X167280476Y-119517200D01*
X167280476Y-119517200D02*
X167185238Y-119564819D01*
X167185238Y-119564819D02*
X166947143Y-119564819D01*
X166947143Y-119564819D02*
X166851905Y-119517200D01*
X166851905Y-119517200D02*
X166804286Y-119469580D01*
X138238095Y-76684819D02*
X138238095Y-77494342D01*
X138238095Y-77494342D02*
X138285714Y-77589580D01*
X138285714Y-77589580D02*
X138333333Y-77637200D01*
X138333333Y-77637200D02*
X138428571Y-77684819D01*
X138428571Y-77684819D02*
X138619047Y-77684819D01*
X138619047Y-77684819D02*
X138714285Y-77637200D01*
X138714285Y-77637200D02*
X138761904Y-77589580D01*
X138761904Y-77589580D02*
X138809523Y-77494342D01*
X138809523Y-77494342D02*
X138809523Y-76684819D01*
X139190476Y-76684819D02*
X139809523Y-76684819D01*
X139809523Y-76684819D02*
X139476190Y-77065771D01*
X139476190Y-77065771D02*
X139619047Y-77065771D01*
X139619047Y-77065771D02*
X139714285Y-77113390D01*
X139714285Y-77113390D02*
X139761904Y-77161009D01*
X139761904Y-77161009D02*
X139809523Y-77256247D01*
X139809523Y-77256247D02*
X139809523Y-77494342D01*
X139809523Y-77494342D02*
X139761904Y-77589580D01*
X139761904Y-77589580D02*
X139714285Y-77637200D01*
X139714285Y-77637200D02*
X139619047Y-77684819D01*
X139619047Y-77684819D02*
X139333333Y-77684819D01*
X139333333Y-77684819D02*
X139238095Y-77637200D01*
X139238095Y-77637200D02*
X139190476Y-77589580D01*
X138458095Y-97784819D02*
X138458095Y-98594342D01*
X138458095Y-98594342D02*
X138505714Y-98689580D01*
X138505714Y-98689580D02*
X138553333Y-98737200D01*
X138553333Y-98737200D02*
X138648571Y-98784819D01*
X138648571Y-98784819D02*
X138839047Y-98784819D01*
X138839047Y-98784819D02*
X138934285Y-98737200D01*
X138934285Y-98737200D02*
X138981904Y-98689580D01*
X138981904Y-98689580D02*
X139029523Y-98594342D01*
X139029523Y-98594342D02*
X139029523Y-97784819D01*
X139410476Y-97784819D02*
X140077142Y-97784819D01*
X140077142Y-97784819D02*
X139648571Y-98784819D01*
X128479524Y-96414819D02*
X128812857Y-97414819D01*
X128812857Y-97414819D02*
X129146190Y-96414819D01*
X130050952Y-97414819D02*
X129717619Y-96938628D01*
X129479524Y-97414819D02*
X129479524Y-96414819D01*
X129479524Y-96414819D02*
X129860476Y-96414819D01*
X129860476Y-96414819D02*
X129955714Y-96462438D01*
X129955714Y-96462438D02*
X130003333Y-96510057D01*
X130003333Y-96510057D02*
X130050952Y-96605295D01*
X130050952Y-96605295D02*
X130050952Y-96748152D01*
X130050952Y-96748152D02*
X130003333Y-96843390D01*
X130003333Y-96843390D02*
X129955714Y-96891009D01*
X129955714Y-96891009D02*
X129860476Y-96938628D01*
X129860476Y-96938628D02*
X129479524Y-96938628D01*
X130479524Y-96891009D02*
X130812857Y-96891009D01*
X130955714Y-97414819D02*
X130479524Y-97414819D01*
X130479524Y-97414819D02*
X130479524Y-96414819D01*
X130479524Y-96414819D02*
X130955714Y-96414819D01*
X131717619Y-96891009D02*
X131384286Y-96891009D01*
X131384286Y-97414819D02*
X131384286Y-96414819D01*
X131384286Y-96414819D02*
X131860476Y-96414819D01*
X132193810Y-96510057D02*
X132241429Y-96462438D01*
X132241429Y-96462438D02*
X132336667Y-96414819D01*
X132336667Y-96414819D02*
X132574762Y-96414819D01*
X132574762Y-96414819D02*
X132670000Y-96462438D01*
X132670000Y-96462438D02*
X132717619Y-96510057D01*
X132717619Y-96510057D02*
X132765238Y-96605295D01*
X132765238Y-96605295D02*
X132765238Y-96700533D01*
X132765238Y-96700533D02*
X132717619Y-96843390D01*
X132717619Y-96843390D02*
X132146191Y-97414819D01*
X132146191Y-97414819D02*
X132765238Y-97414819D01*
X151840952Y-98474819D02*
X151364762Y-98474819D01*
X151364762Y-98474819D02*
X151364762Y-97474819D01*
X152174286Y-97951009D02*
X152507619Y-97951009D01*
X152650476Y-98474819D02*
X152174286Y-98474819D01*
X152174286Y-98474819D02*
X152174286Y-97474819D01*
X152174286Y-97474819D02*
X152650476Y-97474819D01*
X153079048Y-98474819D02*
X153079048Y-97474819D01*
X153079048Y-97474819D02*
X153317143Y-97474819D01*
X153317143Y-97474819D02*
X153460000Y-97522438D01*
X153460000Y-97522438D02*
X153555238Y-97617676D01*
X153555238Y-97617676D02*
X153602857Y-97712914D01*
X153602857Y-97712914D02*
X153650476Y-97903390D01*
X153650476Y-97903390D02*
X153650476Y-98046247D01*
X153650476Y-98046247D02*
X153602857Y-98236723D01*
X153602857Y-98236723D02*
X153555238Y-98331961D01*
X153555238Y-98331961D02*
X153460000Y-98427200D01*
X153460000Y-98427200D02*
X153317143Y-98474819D01*
X153317143Y-98474819D02*
X153079048Y-98474819D01*
X154602857Y-98474819D02*
X154031429Y-98474819D01*
X154317143Y-98474819D02*
X154317143Y-97474819D01*
X154317143Y-97474819D02*
X154221905Y-97617676D01*
X154221905Y-97617676D02*
X154126667Y-97712914D01*
X154126667Y-97712914D02*
X154031429Y-97760533D01*
X202412735Y-102255328D02*
X201840315Y-102154313D01*
X202008674Y-102659389D02*
X201301567Y-101952283D01*
X201301567Y-101952283D02*
X201570941Y-101682909D01*
X201570941Y-101682909D02*
X201671956Y-101649237D01*
X201671956Y-101649237D02*
X201739300Y-101649237D01*
X201739300Y-101649237D02*
X201840315Y-101682909D01*
X201840315Y-101682909D02*
X201941330Y-101783924D01*
X201941330Y-101783924D02*
X201975002Y-101884939D01*
X201975002Y-101884939D02*
X201975002Y-101952283D01*
X201975002Y-101952283D02*
X201941330Y-102053298D01*
X201941330Y-102053298D02*
X201671956Y-102322672D01*
X202412735Y-100908458D02*
X202311720Y-100942130D01*
X202311720Y-100942130D02*
X202210704Y-101043145D01*
X202210704Y-101043145D02*
X202143361Y-101177832D01*
X202143361Y-101177832D02*
X202143361Y-101312519D01*
X202143361Y-101312519D02*
X202177033Y-101413535D01*
X202177033Y-101413535D02*
X202278048Y-101581893D01*
X202278048Y-101581893D02*
X202379063Y-101682909D01*
X202379063Y-101682909D02*
X202547422Y-101783924D01*
X202547422Y-101783924D02*
X202648437Y-101817596D01*
X202648437Y-101817596D02*
X202783124Y-101817596D01*
X202783124Y-101817596D02*
X202917811Y-101750252D01*
X202917811Y-101750252D02*
X202985155Y-101682909D01*
X202985155Y-101682909D02*
X203052498Y-101548222D01*
X203052498Y-101548222D02*
X203052498Y-101480878D01*
X203052498Y-101480878D02*
X202816796Y-101245176D01*
X202816796Y-101245176D02*
X202682109Y-101379863D01*
X202648437Y-100605412D02*
X203086170Y-100167680D01*
X203086170Y-100167680D02*
X203119842Y-100672756D01*
X203119842Y-100672756D02*
X203220857Y-100571741D01*
X203220857Y-100571741D02*
X203321872Y-100538069D01*
X203321872Y-100538069D02*
X203389216Y-100538069D01*
X203389216Y-100538069D02*
X203490231Y-100571741D01*
X203490231Y-100571741D02*
X203658590Y-100740100D01*
X203658590Y-100740100D02*
X203692262Y-100841115D01*
X203692262Y-100841115D02*
X203692262Y-100908458D01*
X203692262Y-100908458D02*
X203658590Y-101009474D01*
X203658590Y-101009474D02*
X203456559Y-101211504D01*
X203456559Y-101211504D02*
X203355544Y-101245176D01*
X203355544Y-101245176D02*
X203288200Y-101245176D01*
X195556660Y-106750568D02*
X195657675Y-106178149D01*
X195152599Y-106346507D02*
X195859706Y-105639401D01*
X195859706Y-105639401D02*
X196129080Y-105908775D01*
X196129080Y-105908775D02*
X196162752Y-106009790D01*
X196162752Y-106009790D02*
X196162752Y-106077133D01*
X196162752Y-106077133D02*
X196129080Y-106178149D01*
X196129080Y-106178149D02*
X196028065Y-106279164D01*
X196028065Y-106279164D02*
X195927049Y-106312836D01*
X195927049Y-106312836D02*
X195859706Y-106312836D01*
X195859706Y-106312836D02*
X195758691Y-106279164D01*
X195758691Y-106279164D02*
X195489317Y-106009790D01*
X196230095Y-107424003D02*
X195826034Y-107019942D01*
X196028065Y-107221973D02*
X196735171Y-106514866D01*
X196735171Y-106514866D02*
X196566813Y-106548538D01*
X196566813Y-106548538D02*
X196432126Y-106548538D01*
X196432126Y-106548538D02*
X196331110Y-106514866D01*
X197139233Y-107053614D02*
X197206576Y-107053614D01*
X197206576Y-107053614D02*
X197307591Y-107087286D01*
X197307591Y-107087286D02*
X197475950Y-107255645D01*
X197475950Y-107255645D02*
X197509622Y-107356660D01*
X197509622Y-107356660D02*
X197509622Y-107424004D01*
X197509622Y-107424004D02*
X197475950Y-107525019D01*
X197475950Y-107525019D02*
X197408607Y-107592362D01*
X197408607Y-107592362D02*
X197273920Y-107659706D01*
X197273920Y-107659706D02*
X196465798Y-107659706D01*
X196465798Y-107659706D02*
X196903530Y-108097439D01*
X141477142Y-96479580D02*
X141429523Y-96527200D01*
X141429523Y-96527200D02*
X141286666Y-96574819D01*
X141286666Y-96574819D02*
X141191428Y-96574819D01*
X141191428Y-96574819D02*
X141048571Y-96527200D01*
X141048571Y-96527200D02*
X140953333Y-96431961D01*
X140953333Y-96431961D02*
X140905714Y-96336723D01*
X140905714Y-96336723D02*
X140858095Y-96146247D01*
X140858095Y-96146247D02*
X140858095Y-96003390D01*
X140858095Y-96003390D02*
X140905714Y-95812914D01*
X140905714Y-95812914D02*
X140953333Y-95717676D01*
X140953333Y-95717676D02*
X141048571Y-95622438D01*
X141048571Y-95622438D02*
X141191428Y-95574819D01*
X141191428Y-95574819D02*
X141286666Y-95574819D01*
X141286666Y-95574819D02*
X141429523Y-95622438D01*
X141429523Y-95622438D02*
X141477142Y-95670057D01*
X142429523Y-96574819D02*
X141858095Y-96574819D01*
X142143809Y-96574819D02*
X142143809Y-95574819D01*
X142143809Y-95574819D02*
X142048571Y-95717676D01*
X142048571Y-95717676D02*
X141953333Y-95812914D01*
X141953333Y-95812914D02*
X141858095Y-95860533D01*
X143286666Y-95908152D02*
X143286666Y-96574819D01*
X143048571Y-95527200D02*
X142810476Y-96241485D01*
X142810476Y-96241485D02*
X143429523Y-96241485D01*
X153357142Y-105834819D02*
X153023809Y-105358628D01*
X152785714Y-105834819D02*
X152785714Y-104834819D01*
X152785714Y-104834819D02*
X153166666Y-104834819D01*
X153166666Y-104834819D02*
X153261904Y-104882438D01*
X153261904Y-104882438D02*
X153309523Y-104930057D01*
X153309523Y-104930057D02*
X153357142Y-105025295D01*
X153357142Y-105025295D02*
X153357142Y-105168152D01*
X153357142Y-105168152D02*
X153309523Y-105263390D01*
X153309523Y-105263390D02*
X153261904Y-105311009D01*
X153261904Y-105311009D02*
X153166666Y-105358628D01*
X153166666Y-105358628D02*
X152785714Y-105358628D01*
X154309523Y-105834819D02*
X153738095Y-105834819D01*
X154023809Y-105834819D02*
X154023809Y-104834819D01*
X154023809Y-104834819D02*
X153928571Y-104977676D01*
X153928571Y-104977676D02*
X153833333Y-105072914D01*
X153833333Y-105072914D02*
X153738095Y-105120533D01*
X155166666Y-104834819D02*
X154976190Y-104834819D01*
X154976190Y-104834819D02*
X154880952Y-104882438D01*
X154880952Y-104882438D02*
X154833333Y-104930057D01*
X154833333Y-104930057D02*
X154738095Y-105072914D01*
X154738095Y-105072914D02*
X154690476Y-105263390D01*
X154690476Y-105263390D02*
X154690476Y-105644342D01*
X154690476Y-105644342D02*
X154738095Y-105739580D01*
X154738095Y-105739580D02*
X154785714Y-105787200D01*
X154785714Y-105787200D02*
X154880952Y-105834819D01*
X154880952Y-105834819D02*
X155071428Y-105834819D01*
X155071428Y-105834819D02*
X155166666Y-105787200D01*
X155166666Y-105787200D02*
X155214285Y-105739580D01*
X155214285Y-105739580D02*
X155261904Y-105644342D01*
X155261904Y-105644342D02*
X155261904Y-105406247D01*
X155261904Y-105406247D02*
X155214285Y-105311009D01*
X155214285Y-105311009D02*
X155166666Y-105263390D01*
X155166666Y-105263390D02*
X155071428Y-105215771D01*
X155071428Y-105215771D02*
X154880952Y-105215771D01*
X154880952Y-105215771D02*
X154785714Y-105263390D01*
X154785714Y-105263390D02*
X154738095Y-105311009D01*
X154738095Y-105311009D02*
X154690476Y-105406247D01*
X141810833Y-75389580D02*
X141763214Y-75437200D01*
X141763214Y-75437200D02*
X141620357Y-75484819D01*
X141620357Y-75484819D02*
X141525119Y-75484819D01*
X141525119Y-75484819D02*
X141382262Y-75437200D01*
X141382262Y-75437200D02*
X141287024Y-75341961D01*
X141287024Y-75341961D02*
X141239405Y-75246723D01*
X141239405Y-75246723D02*
X141191786Y-75056247D01*
X141191786Y-75056247D02*
X141191786Y-74913390D01*
X141191786Y-74913390D02*
X141239405Y-74722914D01*
X141239405Y-74722914D02*
X141287024Y-74627676D01*
X141287024Y-74627676D02*
X141382262Y-74532438D01*
X141382262Y-74532438D02*
X141525119Y-74484819D01*
X141525119Y-74484819D02*
X141620357Y-74484819D01*
X141620357Y-74484819D02*
X141763214Y-74532438D01*
X141763214Y-74532438D02*
X141810833Y-74580057D01*
X142191786Y-74580057D02*
X142239405Y-74532438D01*
X142239405Y-74532438D02*
X142334643Y-74484819D01*
X142334643Y-74484819D02*
X142572738Y-74484819D01*
X142572738Y-74484819D02*
X142667976Y-74532438D01*
X142667976Y-74532438D02*
X142715595Y-74580057D01*
X142715595Y-74580057D02*
X142763214Y-74675295D01*
X142763214Y-74675295D02*
X142763214Y-74770533D01*
X142763214Y-74770533D02*
X142715595Y-74913390D01*
X142715595Y-74913390D02*
X142144167Y-75484819D01*
X142144167Y-75484819D02*
X142763214Y-75484819D01*
X139054819Y-106806666D02*
X138578628Y-107139999D01*
X139054819Y-107378094D02*
X138054819Y-107378094D01*
X138054819Y-107378094D02*
X138054819Y-106997142D01*
X138054819Y-106997142D02*
X138102438Y-106901904D01*
X138102438Y-106901904D02*
X138150057Y-106854285D01*
X138150057Y-106854285D02*
X138245295Y-106806666D01*
X138245295Y-106806666D02*
X138388152Y-106806666D01*
X138388152Y-106806666D02*
X138483390Y-106854285D01*
X138483390Y-106854285D02*
X138531009Y-106901904D01*
X138531009Y-106901904D02*
X138578628Y-106997142D01*
X138578628Y-106997142D02*
X138578628Y-107378094D01*
X139054819Y-106330475D02*
X139054819Y-106139999D01*
X139054819Y-106139999D02*
X139007200Y-106044761D01*
X139007200Y-106044761D02*
X138959580Y-105997142D01*
X138959580Y-105997142D02*
X138816723Y-105901904D01*
X138816723Y-105901904D02*
X138626247Y-105854285D01*
X138626247Y-105854285D02*
X138245295Y-105854285D01*
X138245295Y-105854285D02*
X138150057Y-105901904D01*
X138150057Y-105901904D02*
X138102438Y-105949523D01*
X138102438Y-105949523D02*
X138054819Y-106044761D01*
X138054819Y-106044761D02*
X138054819Y-106235237D01*
X138054819Y-106235237D02*
X138102438Y-106330475D01*
X138102438Y-106330475D02*
X138150057Y-106378094D01*
X138150057Y-106378094D02*
X138245295Y-106425713D01*
X138245295Y-106425713D02*
X138483390Y-106425713D01*
X138483390Y-106425713D02*
X138578628Y-106378094D01*
X138578628Y-106378094D02*
X138626247Y-106330475D01*
X138626247Y-106330475D02*
X138673866Y-106235237D01*
X138673866Y-106235237D02*
X138673866Y-106044761D01*
X138673866Y-106044761D02*
X138626247Y-105949523D01*
X138626247Y-105949523D02*
X138578628Y-105901904D01*
X138578628Y-105901904D02*
X138483390Y-105854285D01*
X129368095Y-100774819D02*
X129939523Y-100774819D01*
X129653809Y-101774819D02*
X129653809Y-100774819D01*
X130272857Y-101774819D02*
X130272857Y-100774819D01*
X130272857Y-100774819D02*
X130653809Y-100774819D01*
X130653809Y-100774819D02*
X130749047Y-100822438D01*
X130749047Y-100822438D02*
X130796666Y-100870057D01*
X130796666Y-100870057D02*
X130844285Y-100965295D01*
X130844285Y-100965295D02*
X130844285Y-101108152D01*
X130844285Y-101108152D02*
X130796666Y-101203390D01*
X130796666Y-101203390D02*
X130749047Y-101251009D01*
X130749047Y-101251009D02*
X130653809Y-101298628D01*
X130653809Y-101298628D02*
X130272857Y-101298628D01*
X131225238Y-100870057D02*
X131272857Y-100822438D01*
X131272857Y-100822438D02*
X131368095Y-100774819D01*
X131368095Y-100774819D02*
X131606190Y-100774819D01*
X131606190Y-100774819D02*
X131701428Y-100822438D01*
X131701428Y-100822438D02*
X131749047Y-100870057D01*
X131749047Y-100870057D02*
X131796666Y-100965295D01*
X131796666Y-100965295D02*
X131796666Y-101060533D01*
X131796666Y-101060533D02*
X131749047Y-101203390D01*
X131749047Y-101203390D02*
X131177619Y-101774819D01*
X131177619Y-101774819D02*
X131796666Y-101774819D01*
X159074761Y-111064819D02*
X158741428Y-110588628D01*
X158503333Y-111064819D02*
X158503333Y-110064819D01*
X158503333Y-110064819D02*
X158884285Y-110064819D01*
X158884285Y-110064819D02*
X158979523Y-110112438D01*
X158979523Y-110112438D02*
X159027142Y-110160057D01*
X159027142Y-110160057D02*
X159074761Y-110255295D01*
X159074761Y-110255295D02*
X159074761Y-110398152D01*
X159074761Y-110398152D02*
X159027142Y-110493390D01*
X159027142Y-110493390D02*
X158979523Y-110541009D01*
X158979523Y-110541009D02*
X158884285Y-110588628D01*
X158884285Y-110588628D02*
X158503333Y-110588628D01*
X159360476Y-110064819D02*
X159693809Y-111064819D01*
X159693809Y-111064819D02*
X160027142Y-110064819D01*
X160884285Y-111064819D02*
X160312857Y-111064819D01*
X160598571Y-111064819D02*
X160598571Y-110064819D01*
X160598571Y-110064819D02*
X160503333Y-110207676D01*
X160503333Y-110207676D02*
X160408095Y-110302914D01*
X160408095Y-110302914D02*
X160312857Y-110350533D01*
X154824761Y-101710057D02*
X154729523Y-101662438D01*
X154729523Y-101662438D02*
X154634285Y-101567200D01*
X154634285Y-101567200D02*
X154491428Y-101424342D01*
X154491428Y-101424342D02*
X154396190Y-101376723D01*
X154396190Y-101376723D02*
X154300952Y-101376723D01*
X154348571Y-101614819D02*
X154253333Y-101567200D01*
X154253333Y-101567200D02*
X154158095Y-101471961D01*
X154158095Y-101471961D02*
X154110476Y-101281485D01*
X154110476Y-101281485D02*
X154110476Y-100948152D01*
X154110476Y-100948152D02*
X154158095Y-100757676D01*
X154158095Y-100757676D02*
X154253333Y-100662438D01*
X154253333Y-100662438D02*
X154348571Y-100614819D01*
X154348571Y-100614819D02*
X154539047Y-100614819D01*
X154539047Y-100614819D02*
X154634285Y-100662438D01*
X154634285Y-100662438D02*
X154729523Y-100757676D01*
X154729523Y-100757676D02*
X154777142Y-100948152D01*
X154777142Y-100948152D02*
X154777142Y-101281485D01*
X154777142Y-101281485D02*
X154729523Y-101471961D01*
X154729523Y-101471961D02*
X154634285Y-101567200D01*
X154634285Y-101567200D02*
X154539047Y-101614819D01*
X154539047Y-101614819D02*
X154348571Y-101614819D01*
X155110476Y-100614819D02*
X155729523Y-100614819D01*
X155729523Y-100614819D02*
X155396190Y-100995771D01*
X155396190Y-100995771D02*
X155539047Y-100995771D01*
X155539047Y-100995771D02*
X155634285Y-101043390D01*
X155634285Y-101043390D02*
X155681904Y-101091009D01*
X155681904Y-101091009D02*
X155729523Y-101186247D01*
X155729523Y-101186247D02*
X155729523Y-101424342D01*
X155729523Y-101424342D02*
X155681904Y-101519580D01*
X155681904Y-101519580D02*
X155634285Y-101567200D01*
X155634285Y-101567200D02*
X155539047Y-101614819D01*
X155539047Y-101614819D02*
X155253333Y-101614819D01*
X155253333Y-101614819D02*
X155158095Y-101567200D01*
X155158095Y-101567200D02*
X155110476Y-101519580D01*
X167958095Y-111224819D02*
X167958095Y-112034342D01*
X167958095Y-112034342D02*
X168005714Y-112129580D01*
X168005714Y-112129580D02*
X168053333Y-112177200D01*
X168053333Y-112177200D02*
X168148571Y-112224819D01*
X168148571Y-112224819D02*
X168339047Y-112224819D01*
X168339047Y-112224819D02*
X168434285Y-112177200D01*
X168434285Y-112177200D02*
X168481904Y-112129580D01*
X168481904Y-112129580D02*
X168529523Y-112034342D01*
X168529523Y-112034342D02*
X168529523Y-111224819D01*
X169481904Y-111224819D02*
X169005714Y-111224819D01*
X169005714Y-111224819D02*
X168958095Y-111701009D01*
X168958095Y-111701009D02*
X169005714Y-111653390D01*
X169005714Y-111653390D02*
X169100952Y-111605771D01*
X169100952Y-111605771D02*
X169339047Y-111605771D01*
X169339047Y-111605771D02*
X169434285Y-111653390D01*
X169434285Y-111653390D02*
X169481904Y-111701009D01*
X169481904Y-111701009D02*
X169529523Y-111796247D01*
X169529523Y-111796247D02*
X169529523Y-112034342D01*
X169529523Y-112034342D02*
X169481904Y-112129580D01*
X169481904Y-112129580D02*
X169434285Y-112177200D01*
X169434285Y-112177200D02*
X169339047Y-112224819D01*
X169339047Y-112224819D02*
X169100952Y-112224819D01*
X169100952Y-112224819D02*
X169005714Y-112177200D01*
X169005714Y-112177200D02*
X168958095Y-112129580D01*
X146223333Y-78814819D02*
X145890000Y-78338628D01*
X145651905Y-78814819D02*
X145651905Y-77814819D01*
X145651905Y-77814819D02*
X146032857Y-77814819D01*
X146032857Y-77814819D02*
X146128095Y-77862438D01*
X146128095Y-77862438D02*
X146175714Y-77910057D01*
X146175714Y-77910057D02*
X146223333Y-78005295D01*
X146223333Y-78005295D02*
X146223333Y-78148152D01*
X146223333Y-78148152D02*
X146175714Y-78243390D01*
X146175714Y-78243390D02*
X146128095Y-78291009D01*
X146128095Y-78291009D02*
X146032857Y-78338628D01*
X146032857Y-78338628D02*
X145651905Y-78338628D01*
X146604286Y-77910057D02*
X146651905Y-77862438D01*
X146651905Y-77862438D02*
X146747143Y-77814819D01*
X146747143Y-77814819D02*
X146985238Y-77814819D01*
X146985238Y-77814819D02*
X147080476Y-77862438D01*
X147080476Y-77862438D02*
X147128095Y-77910057D01*
X147128095Y-77910057D02*
X147175714Y-78005295D01*
X147175714Y-78005295D02*
X147175714Y-78100533D01*
X147175714Y-78100533D02*
X147128095Y-78243390D01*
X147128095Y-78243390D02*
X146556667Y-78814819D01*
X146556667Y-78814819D02*
X147175714Y-78814819D01*
X151754004Y-108519819D02*
X151277814Y-108519819D01*
X151277814Y-108519819D02*
X151277814Y-107519819D01*
X152087338Y-107996009D02*
X152420671Y-107996009D01*
X152563528Y-108519819D02*
X152087338Y-108519819D01*
X152087338Y-108519819D02*
X152087338Y-107519819D01*
X152087338Y-107519819D02*
X152563528Y-107519819D01*
X152992100Y-108519819D02*
X152992100Y-107519819D01*
X152992100Y-107519819D02*
X153230195Y-107519819D01*
X153230195Y-107519819D02*
X153373052Y-107567438D01*
X153373052Y-107567438D02*
X153468290Y-107662676D01*
X153468290Y-107662676D02*
X153515909Y-107757914D01*
X153515909Y-107757914D02*
X153563528Y-107948390D01*
X153563528Y-107948390D02*
X153563528Y-108091247D01*
X153563528Y-108091247D02*
X153515909Y-108281723D01*
X153515909Y-108281723D02*
X153468290Y-108376961D01*
X153468290Y-108376961D02*
X153373052Y-108472200D01*
X153373052Y-108472200D02*
X153230195Y-108519819D01*
X153230195Y-108519819D02*
X152992100Y-108519819D01*
X153944481Y-107615057D02*
X153992100Y-107567438D01*
X153992100Y-107567438D02*
X154087338Y-107519819D01*
X154087338Y-107519819D02*
X154325433Y-107519819D01*
X154325433Y-107519819D02*
X154420671Y-107567438D01*
X154420671Y-107567438D02*
X154468290Y-107615057D01*
X154468290Y-107615057D02*
X154515909Y-107710295D01*
X154515909Y-107710295D02*
X154515909Y-107805533D01*
X154515909Y-107805533D02*
X154468290Y-107948390D01*
X154468290Y-107948390D02*
X153896862Y-108519819D01*
X153896862Y-108519819D02*
X154515909Y-108519819D01*
X135314819Y-101892857D02*
X134838628Y-102226190D01*
X135314819Y-102464285D02*
X134314819Y-102464285D01*
X134314819Y-102464285D02*
X134314819Y-102083333D01*
X134314819Y-102083333D02*
X134362438Y-101988095D01*
X134362438Y-101988095D02*
X134410057Y-101940476D01*
X134410057Y-101940476D02*
X134505295Y-101892857D01*
X134505295Y-101892857D02*
X134648152Y-101892857D01*
X134648152Y-101892857D02*
X134743390Y-101940476D01*
X134743390Y-101940476D02*
X134791009Y-101988095D01*
X134791009Y-101988095D02*
X134838628Y-102083333D01*
X134838628Y-102083333D02*
X134838628Y-102464285D01*
X135314819Y-100940476D02*
X135314819Y-101511904D01*
X135314819Y-101226190D02*
X134314819Y-101226190D01*
X134314819Y-101226190D02*
X134457676Y-101321428D01*
X134457676Y-101321428D02*
X134552914Y-101416666D01*
X134552914Y-101416666D02*
X134600533Y-101511904D01*
X134314819Y-100607142D02*
X134314819Y-99988095D01*
X134314819Y-99988095D02*
X134695771Y-100321428D01*
X134695771Y-100321428D02*
X134695771Y-100178571D01*
X134695771Y-100178571D02*
X134743390Y-100083333D01*
X134743390Y-100083333D02*
X134791009Y-100035714D01*
X134791009Y-100035714D02*
X134886247Y-99988095D01*
X134886247Y-99988095D02*
X135124342Y-99988095D01*
X135124342Y-99988095D02*
X135219580Y-100035714D01*
X135219580Y-100035714D02*
X135267200Y-100083333D01*
X135267200Y-100083333D02*
X135314819Y-100178571D01*
X135314819Y-100178571D02*
X135314819Y-100464285D01*
X135314819Y-100464285D02*
X135267200Y-100559523D01*
X135267200Y-100559523D02*
X135219580Y-100607142D01*
X145417142Y-99954819D02*
X145083809Y-99478628D01*
X144845714Y-99954819D02*
X144845714Y-98954819D01*
X144845714Y-98954819D02*
X145226666Y-98954819D01*
X145226666Y-98954819D02*
X145321904Y-99002438D01*
X145321904Y-99002438D02*
X145369523Y-99050057D01*
X145369523Y-99050057D02*
X145417142Y-99145295D01*
X145417142Y-99145295D02*
X145417142Y-99288152D01*
X145417142Y-99288152D02*
X145369523Y-99383390D01*
X145369523Y-99383390D02*
X145321904Y-99431009D01*
X145321904Y-99431009D02*
X145226666Y-99478628D01*
X145226666Y-99478628D02*
X144845714Y-99478628D01*
X146369523Y-99954819D02*
X145798095Y-99954819D01*
X146083809Y-99954819D02*
X146083809Y-98954819D01*
X146083809Y-98954819D02*
X145988571Y-99097676D01*
X145988571Y-99097676D02*
X145893333Y-99192914D01*
X145893333Y-99192914D02*
X145798095Y-99240533D01*
X147226666Y-99288152D02*
X147226666Y-99954819D01*
X146988571Y-98907200D02*
X146750476Y-99621485D01*
X146750476Y-99621485D02*
X147369523Y-99621485D01*
X146053333Y-95574819D02*
X145720000Y-95098628D01*
X145481905Y-95574819D02*
X145481905Y-94574819D01*
X145481905Y-94574819D02*
X145862857Y-94574819D01*
X145862857Y-94574819D02*
X145958095Y-94622438D01*
X145958095Y-94622438D02*
X146005714Y-94670057D01*
X146005714Y-94670057D02*
X146053333Y-94765295D01*
X146053333Y-94765295D02*
X146053333Y-94908152D01*
X146053333Y-94908152D02*
X146005714Y-95003390D01*
X146005714Y-95003390D02*
X145958095Y-95051009D01*
X145958095Y-95051009D02*
X145862857Y-95098628D01*
X145862857Y-95098628D02*
X145481905Y-95098628D01*
X146386667Y-94574819D02*
X147053333Y-94574819D01*
X147053333Y-94574819D02*
X146624762Y-95574819D01*
X146115833Y-89904819D02*
X145782500Y-89428628D01*
X145544405Y-89904819D02*
X145544405Y-88904819D01*
X145544405Y-88904819D02*
X145925357Y-88904819D01*
X145925357Y-88904819D02*
X146020595Y-88952438D01*
X146020595Y-88952438D02*
X146068214Y-89000057D01*
X146068214Y-89000057D02*
X146115833Y-89095295D01*
X146115833Y-89095295D02*
X146115833Y-89238152D01*
X146115833Y-89238152D02*
X146068214Y-89333390D01*
X146068214Y-89333390D02*
X146020595Y-89381009D01*
X146020595Y-89381009D02*
X145925357Y-89428628D01*
X145925357Y-89428628D02*
X145544405Y-89428628D01*
X146972976Y-88904819D02*
X146782500Y-88904819D01*
X146782500Y-88904819D02*
X146687262Y-88952438D01*
X146687262Y-88952438D02*
X146639643Y-89000057D01*
X146639643Y-89000057D02*
X146544405Y-89142914D01*
X146544405Y-89142914D02*
X146496786Y-89333390D01*
X146496786Y-89333390D02*
X146496786Y-89714342D01*
X146496786Y-89714342D02*
X146544405Y-89809580D01*
X146544405Y-89809580D02*
X146592024Y-89857200D01*
X146592024Y-89857200D02*
X146687262Y-89904819D01*
X146687262Y-89904819D02*
X146877738Y-89904819D01*
X146877738Y-89904819D02*
X146972976Y-89857200D01*
X146972976Y-89857200D02*
X147020595Y-89809580D01*
X147020595Y-89809580D02*
X147068214Y-89714342D01*
X147068214Y-89714342D02*
X147068214Y-89476247D01*
X147068214Y-89476247D02*
X147020595Y-89381009D01*
X147020595Y-89381009D02*
X146972976Y-89333390D01*
X146972976Y-89333390D02*
X146877738Y-89285771D01*
X146877738Y-89285771D02*
X146687262Y-89285771D01*
X146687262Y-89285771D02*
X146592024Y-89333390D01*
X146592024Y-89333390D02*
X146544405Y-89381009D01*
X146544405Y-89381009D02*
X146496786Y-89476247D01*
X140723333Y-93719580D02*
X140675714Y-93767200D01*
X140675714Y-93767200D02*
X140532857Y-93814819D01*
X140532857Y-93814819D02*
X140437619Y-93814819D01*
X140437619Y-93814819D02*
X140294762Y-93767200D01*
X140294762Y-93767200D02*
X140199524Y-93671961D01*
X140199524Y-93671961D02*
X140151905Y-93576723D01*
X140151905Y-93576723D02*
X140104286Y-93386247D01*
X140104286Y-93386247D02*
X140104286Y-93243390D01*
X140104286Y-93243390D02*
X140151905Y-93052914D01*
X140151905Y-93052914D02*
X140199524Y-92957676D01*
X140199524Y-92957676D02*
X140294762Y-92862438D01*
X140294762Y-92862438D02*
X140437619Y-92814819D01*
X140437619Y-92814819D02*
X140532857Y-92814819D01*
X140532857Y-92814819D02*
X140675714Y-92862438D01*
X140675714Y-92862438D02*
X140723333Y-92910057D01*
X141294762Y-93243390D02*
X141199524Y-93195771D01*
X141199524Y-93195771D02*
X141151905Y-93148152D01*
X141151905Y-93148152D02*
X141104286Y-93052914D01*
X141104286Y-93052914D02*
X141104286Y-93005295D01*
X141104286Y-93005295D02*
X141151905Y-92910057D01*
X141151905Y-92910057D02*
X141199524Y-92862438D01*
X141199524Y-92862438D02*
X141294762Y-92814819D01*
X141294762Y-92814819D02*
X141485238Y-92814819D01*
X141485238Y-92814819D02*
X141580476Y-92862438D01*
X141580476Y-92862438D02*
X141628095Y-92910057D01*
X141628095Y-92910057D02*
X141675714Y-93005295D01*
X141675714Y-93005295D02*
X141675714Y-93052914D01*
X141675714Y-93052914D02*
X141628095Y-93148152D01*
X141628095Y-93148152D02*
X141580476Y-93195771D01*
X141580476Y-93195771D02*
X141485238Y-93243390D01*
X141485238Y-93243390D02*
X141294762Y-93243390D01*
X141294762Y-93243390D02*
X141199524Y-93291009D01*
X141199524Y-93291009D02*
X141151905Y-93338628D01*
X141151905Y-93338628D02*
X141104286Y-93433866D01*
X141104286Y-93433866D02*
X141104286Y-93624342D01*
X141104286Y-93624342D02*
X141151905Y-93719580D01*
X141151905Y-93719580D02*
X141199524Y-93767200D01*
X141199524Y-93767200D02*
X141294762Y-93814819D01*
X141294762Y-93814819D02*
X141485238Y-93814819D01*
X141485238Y-93814819D02*
X141580476Y-93767200D01*
X141580476Y-93767200D02*
X141628095Y-93719580D01*
X141628095Y-93719580D02*
X141675714Y-93624342D01*
X141675714Y-93624342D02*
X141675714Y-93433866D01*
X141675714Y-93433866D02*
X141628095Y-93338628D01*
X141628095Y-93338628D02*
X141580476Y-93291009D01*
X141580476Y-93291009D02*
X141485238Y-93243390D01*
X139687142Y-103749580D02*
X139639523Y-103797200D01*
X139639523Y-103797200D02*
X139496666Y-103844819D01*
X139496666Y-103844819D02*
X139401428Y-103844819D01*
X139401428Y-103844819D02*
X139258571Y-103797200D01*
X139258571Y-103797200D02*
X139163333Y-103701961D01*
X139163333Y-103701961D02*
X139115714Y-103606723D01*
X139115714Y-103606723D02*
X139068095Y-103416247D01*
X139068095Y-103416247D02*
X139068095Y-103273390D01*
X139068095Y-103273390D02*
X139115714Y-103082914D01*
X139115714Y-103082914D02*
X139163333Y-102987676D01*
X139163333Y-102987676D02*
X139258571Y-102892438D01*
X139258571Y-102892438D02*
X139401428Y-102844819D01*
X139401428Y-102844819D02*
X139496666Y-102844819D01*
X139496666Y-102844819D02*
X139639523Y-102892438D01*
X139639523Y-102892438D02*
X139687142Y-102940057D01*
X140639523Y-103844819D02*
X140068095Y-103844819D01*
X140353809Y-103844819D02*
X140353809Y-102844819D01*
X140353809Y-102844819D02*
X140258571Y-102987676D01*
X140258571Y-102987676D02*
X140163333Y-103082914D01*
X140163333Y-103082914D02*
X140068095Y-103130533D01*
X140972857Y-102844819D02*
X141591904Y-102844819D01*
X141591904Y-102844819D02*
X141258571Y-103225771D01*
X141258571Y-103225771D02*
X141401428Y-103225771D01*
X141401428Y-103225771D02*
X141496666Y-103273390D01*
X141496666Y-103273390D02*
X141544285Y-103321009D01*
X141544285Y-103321009D02*
X141591904Y-103416247D01*
X141591904Y-103416247D02*
X141591904Y-103654342D01*
X141591904Y-103654342D02*
X141544285Y-103749580D01*
X141544285Y-103749580D02*
X141496666Y-103797200D01*
X141496666Y-103797200D02*
X141401428Y-103844819D01*
X141401428Y-103844819D02*
X141115714Y-103844819D01*
X141115714Y-103844819D02*
X141020476Y-103797200D01*
X141020476Y-103797200D02*
X140972857Y-103749580D01*
X135088095Y-72724819D02*
X135659523Y-72724819D01*
X135373809Y-73724819D02*
X135373809Y-72724819D01*
X135992857Y-73724819D02*
X135992857Y-72724819D01*
X135992857Y-72724819D02*
X136373809Y-72724819D01*
X136373809Y-72724819D02*
X136469047Y-72772438D01*
X136469047Y-72772438D02*
X136516666Y-72820057D01*
X136516666Y-72820057D02*
X136564285Y-72915295D01*
X136564285Y-72915295D02*
X136564285Y-73058152D01*
X136564285Y-73058152D02*
X136516666Y-73153390D01*
X136516666Y-73153390D02*
X136469047Y-73201009D01*
X136469047Y-73201009D02*
X136373809Y-73248628D01*
X136373809Y-73248628D02*
X135992857Y-73248628D01*
X137516666Y-73724819D02*
X136945238Y-73724819D01*
X137230952Y-73724819D02*
X137230952Y-72724819D01*
X137230952Y-72724819D02*
X137135714Y-72867676D01*
X137135714Y-72867676D02*
X137040476Y-72962914D01*
X137040476Y-72962914D02*
X136945238Y-73010533D01*
X140353333Y-82429580D02*
X140305714Y-82477200D01*
X140305714Y-82477200D02*
X140162857Y-82524819D01*
X140162857Y-82524819D02*
X140067619Y-82524819D01*
X140067619Y-82524819D02*
X139924762Y-82477200D01*
X139924762Y-82477200D02*
X139829524Y-82381961D01*
X139829524Y-82381961D02*
X139781905Y-82286723D01*
X139781905Y-82286723D02*
X139734286Y-82096247D01*
X139734286Y-82096247D02*
X139734286Y-81953390D01*
X139734286Y-81953390D02*
X139781905Y-81762914D01*
X139781905Y-81762914D02*
X139829524Y-81667676D01*
X139829524Y-81667676D02*
X139924762Y-81572438D01*
X139924762Y-81572438D02*
X140067619Y-81524819D01*
X140067619Y-81524819D02*
X140162857Y-81524819D01*
X140162857Y-81524819D02*
X140305714Y-81572438D01*
X140305714Y-81572438D02*
X140353333Y-81620057D01*
X140686667Y-81524819D02*
X141353333Y-81524819D01*
X141353333Y-81524819D02*
X140924762Y-82524819D01*
X193953661Y-108163616D02*
X193886317Y-108163616D01*
X193886317Y-108163616D02*
X193751630Y-108096272D01*
X193751630Y-108096272D02*
X193684287Y-108028929D01*
X193684287Y-108028929D02*
X193616943Y-107894242D01*
X193616943Y-107894242D02*
X193616943Y-107759555D01*
X193616943Y-107759555D02*
X193650615Y-107658540D01*
X193650615Y-107658540D02*
X193751630Y-107490181D01*
X193751630Y-107490181D02*
X193852645Y-107389166D01*
X193852645Y-107389166D02*
X194021004Y-107288150D01*
X194021004Y-107288150D02*
X194122019Y-107254479D01*
X194122019Y-107254479D02*
X194256706Y-107254479D01*
X194256706Y-107254479D02*
X194391393Y-107321822D01*
X194391393Y-107321822D02*
X194458737Y-107389166D01*
X194458737Y-107389166D02*
X194526080Y-107523853D01*
X194526080Y-107523853D02*
X194526080Y-107591196D01*
X194559752Y-108904394D02*
X194155691Y-108500333D01*
X194357722Y-108702364D02*
X195064828Y-107995257D01*
X195064828Y-107995257D02*
X194896470Y-108028929D01*
X194896470Y-108028929D02*
X194761783Y-108028929D01*
X194761783Y-108028929D02*
X194660767Y-107995257D01*
X195468890Y-108534005D02*
X195536233Y-108534005D01*
X195536233Y-108534005D02*
X195637248Y-108567677D01*
X195637248Y-108567677D02*
X195805607Y-108736036D01*
X195805607Y-108736036D02*
X195839279Y-108837051D01*
X195839279Y-108837051D02*
X195839279Y-108904395D01*
X195839279Y-108904395D02*
X195805607Y-109005410D01*
X195805607Y-109005410D02*
X195738264Y-109072753D01*
X195738264Y-109072753D02*
X195603577Y-109140097D01*
X195603577Y-109140097D02*
X194795455Y-109140097D01*
X194795455Y-109140097D02*
X195233187Y-109577830D01*
X139054819Y-111392857D02*
X138578628Y-111726190D01*
X139054819Y-111964285D02*
X138054819Y-111964285D01*
X138054819Y-111964285D02*
X138054819Y-111583333D01*
X138054819Y-111583333D02*
X138102438Y-111488095D01*
X138102438Y-111488095D02*
X138150057Y-111440476D01*
X138150057Y-111440476D02*
X138245295Y-111392857D01*
X138245295Y-111392857D02*
X138388152Y-111392857D01*
X138388152Y-111392857D02*
X138483390Y-111440476D01*
X138483390Y-111440476D02*
X138531009Y-111488095D01*
X138531009Y-111488095D02*
X138578628Y-111583333D01*
X138578628Y-111583333D02*
X138578628Y-111964285D01*
X139054819Y-110440476D02*
X139054819Y-111011904D01*
X139054819Y-110726190D02*
X138054819Y-110726190D01*
X138054819Y-110726190D02*
X138197676Y-110821428D01*
X138197676Y-110821428D02*
X138292914Y-110916666D01*
X138292914Y-110916666D02*
X138340533Y-111011904D01*
X138054819Y-109821428D02*
X138054819Y-109726190D01*
X138054819Y-109726190D02*
X138102438Y-109630952D01*
X138102438Y-109630952D02*
X138150057Y-109583333D01*
X138150057Y-109583333D02*
X138245295Y-109535714D01*
X138245295Y-109535714D02*
X138435771Y-109488095D01*
X138435771Y-109488095D02*
X138673866Y-109488095D01*
X138673866Y-109488095D02*
X138864342Y-109535714D01*
X138864342Y-109535714D02*
X138959580Y-109583333D01*
X138959580Y-109583333D02*
X139007200Y-109630952D01*
X139007200Y-109630952D02*
X139054819Y-109726190D01*
X139054819Y-109726190D02*
X139054819Y-109821428D01*
X139054819Y-109821428D02*
X139007200Y-109916666D01*
X139007200Y-109916666D02*
X138959580Y-109964285D01*
X138959580Y-109964285D02*
X138864342Y-110011904D01*
X138864342Y-110011904D02*
X138673866Y-110059523D01*
X138673866Y-110059523D02*
X138435771Y-110059523D01*
X138435771Y-110059523D02*
X138245295Y-110011904D01*
X138245295Y-110011904D02*
X138150057Y-109964285D01*
X138150057Y-109964285D02*
X138102438Y-109916666D01*
X138102438Y-109916666D02*
X138054819Y-109821428D01*
X142119048Y-109264819D02*
X142452381Y-110264819D01*
X142452381Y-110264819D02*
X142785714Y-109264819D01*
X143119048Y-110264819D02*
X143119048Y-109264819D01*
X143119048Y-109645771D02*
X143214286Y-109598152D01*
X143214286Y-109598152D02*
X143404762Y-109598152D01*
X143404762Y-109598152D02*
X143500000Y-109645771D01*
X143500000Y-109645771D02*
X143547619Y-109693390D01*
X143547619Y-109693390D02*
X143595238Y-109788628D01*
X143595238Y-109788628D02*
X143595238Y-110074342D01*
X143595238Y-110074342D02*
X143547619Y-110169580D01*
X143547619Y-110169580D02*
X143500000Y-110217200D01*
X143500000Y-110217200D02*
X143404762Y-110264819D01*
X143404762Y-110264819D02*
X143214286Y-110264819D01*
X143214286Y-110264819D02*
X143119048Y-110217200D01*
X144023810Y-110264819D02*
X144023810Y-109598152D01*
X144023810Y-109264819D02*
X143976191Y-109312438D01*
X143976191Y-109312438D02*
X144023810Y-109360057D01*
X144023810Y-109360057D02*
X144071429Y-109312438D01*
X144071429Y-109312438D02*
X144023810Y-109264819D01*
X144023810Y-109264819D02*
X144023810Y-109360057D01*
X144928571Y-110264819D02*
X144928571Y-109741009D01*
X144928571Y-109741009D02*
X144880952Y-109645771D01*
X144880952Y-109645771D02*
X144785714Y-109598152D01*
X144785714Y-109598152D02*
X144595238Y-109598152D01*
X144595238Y-109598152D02*
X144500000Y-109645771D01*
X144928571Y-110217200D02*
X144833333Y-110264819D01*
X144833333Y-110264819D02*
X144595238Y-110264819D01*
X144595238Y-110264819D02*
X144500000Y-110217200D01*
X144500000Y-110217200D02*
X144452381Y-110121961D01*
X144452381Y-110121961D02*
X144452381Y-110026723D01*
X144452381Y-110026723D02*
X144500000Y-109931485D01*
X144500000Y-109931485D02*
X144595238Y-109883866D01*
X144595238Y-109883866D02*
X144833333Y-109883866D01*
X144833333Y-109883866D02*
X144928571Y-109836247D01*
X145357143Y-110217200D02*
X145452381Y-110264819D01*
X145452381Y-110264819D02*
X145642857Y-110264819D01*
X145642857Y-110264819D02*
X145738095Y-110217200D01*
X145738095Y-110217200D02*
X145785714Y-110121961D01*
X145785714Y-110121961D02*
X145785714Y-110074342D01*
X145785714Y-110074342D02*
X145738095Y-109979104D01*
X145738095Y-109979104D02*
X145642857Y-109931485D01*
X145642857Y-109931485D02*
X145500000Y-109931485D01*
X145500000Y-109931485D02*
X145404762Y-109883866D01*
X145404762Y-109883866D02*
X145357143Y-109788628D01*
X145357143Y-109788628D02*
X145357143Y-109741009D01*
X145357143Y-109741009D02*
X145404762Y-109645771D01*
X145404762Y-109645771D02*
X145500000Y-109598152D01*
X145500000Y-109598152D02*
X145642857Y-109598152D01*
X145642857Y-109598152D02*
X145738095Y-109645771D01*
X138278095Y-87934819D02*
X138278095Y-88744342D01*
X138278095Y-88744342D02*
X138325714Y-88839580D01*
X138325714Y-88839580D02*
X138373333Y-88887200D01*
X138373333Y-88887200D02*
X138468571Y-88934819D01*
X138468571Y-88934819D02*
X138659047Y-88934819D01*
X138659047Y-88934819D02*
X138754285Y-88887200D01*
X138754285Y-88887200D02*
X138801904Y-88839580D01*
X138801904Y-88839580D02*
X138849523Y-88744342D01*
X138849523Y-88744342D02*
X138849523Y-87934819D01*
X139754285Y-88268152D02*
X139754285Y-88934819D01*
X139516190Y-87887200D02*
X139278095Y-88601485D01*
X139278095Y-88601485D02*
X139897142Y-88601485D01*
X191024621Y-109764379D02*
X190452201Y-110336799D01*
X190452201Y-110336799D02*
X190418529Y-110437814D01*
X190418529Y-110437814D02*
X190418529Y-110505158D01*
X190418529Y-110505158D02*
X190452201Y-110606173D01*
X190452201Y-110606173D02*
X190586888Y-110740860D01*
X190586888Y-110740860D02*
X190687903Y-110774532D01*
X190687903Y-110774532D02*
X190755247Y-110774532D01*
X190755247Y-110774532D02*
X190856262Y-110740860D01*
X190856262Y-110740860D02*
X191428682Y-110168440D01*
X192068445Y-110808204D02*
X191933758Y-110673517D01*
X191933758Y-110673517D02*
X191832743Y-110639845D01*
X191832743Y-110639845D02*
X191765399Y-110639845D01*
X191765399Y-110639845D02*
X191597040Y-110673517D01*
X191597040Y-110673517D02*
X191428682Y-110774532D01*
X191428682Y-110774532D02*
X191159308Y-111043906D01*
X191159308Y-111043906D02*
X191125636Y-111144921D01*
X191125636Y-111144921D02*
X191125636Y-111212265D01*
X191125636Y-111212265D02*
X191159308Y-111313280D01*
X191159308Y-111313280D02*
X191293995Y-111447967D01*
X191293995Y-111447967D02*
X191395010Y-111481639D01*
X191395010Y-111481639D02*
X191462353Y-111481639D01*
X191462353Y-111481639D02*
X191563369Y-111447967D01*
X191563369Y-111447967D02*
X191731727Y-111279608D01*
X191731727Y-111279608D02*
X191765399Y-111178593D01*
X191765399Y-111178593D02*
X191765399Y-111111249D01*
X191765399Y-111111249D02*
X191731727Y-111010234D01*
X191731727Y-111010234D02*
X191597040Y-110875547D01*
X191597040Y-110875547D02*
X191496025Y-110841875D01*
X191496025Y-110841875D02*
X191428682Y-110841875D01*
X191428682Y-110841875D02*
X191327666Y-110875547D01*
X153333333Y-84884819D02*
X153000000Y-84408628D01*
X152761905Y-84884819D02*
X152761905Y-83884819D01*
X152761905Y-83884819D02*
X153142857Y-83884819D01*
X153142857Y-83884819D02*
X153238095Y-83932438D01*
X153238095Y-83932438D02*
X153285714Y-83980057D01*
X153285714Y-83980057D02*
X153333333Y-84075295D01*
X153333333Y-84075295D02*
X153333333Y-84218152D01*
X153333333Y-84218152D02*
X153285714Y-84313390D01*
X153285714Y-84313390D02*
X153238095Y-84361009D01*
X153238095Y-84361009D02*
X153142857Y-84408628D01*
X153142857Y-84408628D02*
X152761905Y-84408628D01*
X153666667Y-83884819D02*
X154285714Y-83884819D01*
X154285714Y-83884819D02*
X153952381Y-84265771D01*
X153952381Y-84265771D02*
X154095238Y-84265771D01*
X154095238Y-84265771D02*
X154190476Y-84313390D01*
X154190476Y-84313390D02*
X154238095Y-84361009D01*
X154238095Y-84361009D02*
X154285714Y-84456247D01*
X154285714Y-84456247D02*
X154285714Y-84694342D01*
X154285714Y-84694342D02*
X154238095Y-84789580D01*
X154238095Y-84789580D02*
X154190476Y-84837200D01*
X154190476Y-84837200D02*
X154095238Y-84884819D01*
X154095238Y-84884819D02*
X153809524Y-84884819D01*
X153809524Y-84884819D02*
X153714286Y-84837200D01*
X153714286Y-84837200D02*
X153666667Y-84789580D01*
X187182095Y-104550550D02*
X187182095Y-104617894D01*
X187182095Y-104617894D02*
X187114751Y-104752581D01*
X187114751Y-104752581D02*
X187047408Y-104819924D01*
X187047408Y-104819924D02*
X186912721Y-104887268D01*
X186912721Y-104887268D02*
X186778034Y-104887268D01*
X186778034Y-104887268D02*
X186677019Y-104853596D01*
X186677019Y-104853596D02*
X186508660Y-104752581D01*
X186508660Y-104752581D02*
X186407645Y-104651566D01*
X186407645Y-104651566D02*
X186306629Y-104483207D01*
X186306629Y-104483207D02*
X186272958Y-104382192D01*
X186272958Y-104382192D02*
X186272958Y-104247505D01*
X186272958Y-104247505D02*
X186340301Y-104112818D01*
X186340301Y-104112818D02*
X186407645Y-104045474D01*
X186407645Y-104045474D02*
X186542332Y-103978131D01*
X186542332Y-103978131D02*
X186609675Y-103978131D01*
X187148423Y-103304696D02*
X187013736Y-103439383D01*
X187013736Y-103439383D02*
X186980064Y-103540398D01*
X186980064Y-103540398D02*
X186980064Y-103607741D01*
X186980064Y-103607741D02*
X187013736Y-103776100D01*
X187013736Y-103776100D02*
X187114751Y-103944459D01*
X187114751Y-103944459D02*
X187384125Y-104213833D01*
X187384125Y-104213833D02*
X187485141Y-104247505D01*
X187485141Y-104247505D02*
X187552484Y-104247505D01*
X187552484Y-104247505D02*
X187653499Y-104213833D01*
X187653499Y-104213833D02*
X187788186Y-104079146D01*
X187788186Y-104079146D02*
X187821858Y-103978131D01*
X187821858Y-103978131D02*
X187821858Y-103910787D01*
X187821858Y-103910787D02*
X187788186Y-103809772D01*
X187788186Y-103809772D02*
X187619828Y-103641413D01*
X187619828Y-103641413D02*
X187518812Y-103607741D01*
X187518812Y-103607741D02*
X187451469Y-103607741D01*
X187451469Y-103607741D02*
X187350454Y-103641413D01*
X187350454Y-103641413D02*
X187215767Y-103776100D01*
X187215767Y-103776100D02*
X187182095Y-103877115D01*
X187182095Y-103877115D02*
X187182095Y-103944459D01*
X187182095Y-103944459D02*
X187215767Y-104045474D01*
X145773333Y-84344819D02*
X145440000Y-83868628D01*
X145201905Y-84344819D02*
X145201905Y-83344819D01*
X145201905Y-83344819D02*
X145582857Y-83344819D01*
X145582857Y-83344819D02*
X145678095Y-83392438D01*
X145678095Y-83392438D02*
X145725714Y-83440057D01*
X145725714Y-83440057D02*
X145773333Y-83535295D01*
X145773333Y-83535295D02*
X145773333Y-83678152D01*
X145773333Y-83678152D02*
X145725714Y-83773390D01*
X145725714Y-83773390D02*
X145678095Y-83821009D01*
X145678095Y-83821009D02*
X145582857Y-83868628D01*
X145582857Y-83868628D02*
X145201905Y-83868628D01*
X146630476Y-83678152D02*
X146630476Y-84344819D01*
X146392381Y-83297200D02*
X146154286Y-84011485D01*
X146154286Y-84011485D02*
X146773333Y-84011485D01*
X145397142Y-105664819D02*
X145063809Y-105188628D01*
X144825714Y-105664819D02*
X144825714Y-104664819D01*
X144825714Y-104664819D02*
X145206666Y-104664819D01*
X145206666Y-104664819D02*
X145301904Y-104712438D01*
X145301904Y-104712438D02*
X145349523Y-104760057D01*
X145349523Y-104760057D02*
X145397142Y-104855295D01*
X145397142Y-104855295D02*
X145397142Y-104998152D01*
X145397142Y-104998152D02*
X145349523Y-105093390D01*
X145349523Y-105093390D02*
X145301904Y-105141009D01*
X145301904Y-105141009D02*
X145206666Y-105188628D01*
X145206666Y-105188628D02*
X144825714Y-105188628D01*
X146349523Y-105664819D02*
X145778095Y-105664819D01*
X146063809Y-105664819D02*
X146063809Y-104664819D01*
X146063809Y-104664819D02*
X145968571Y-104807676D01*
X145968571Y-104807676D02*
X145873333Y-104902914D01*
X145873333Y-104902914D02*
X145778095Y-104950533D01*
X147254285Y-104664819D02*
X146778095Y-104664819D01*
X146778095Y-104664819D02*
X146730476Y-105141009D01*
X146730476Y-105141009D02*
X146778095Y-105093390D01*
X146778095Y-105093390D02*
X146873333Y-105045771D01*
X146873333Y-105045771D02*
X147111428Y-105045771D01*
X147111428Y-105045771D02*
X147206666Y-105093390D01*
X147206666Y-105093390D02*
X147254285Y-105141009D01*
X147254285Y-105141009D02*
X147301904Y-105236247D01*
X147301904Y-105236247D02*
X147301904Y-105474342D01*
X147301904Y-105474342D02*
X147254285Y-105569580D01*
X147254285Y-105569580D02*
X147206666Y-105617200D01*
X147206666Y-105617200D02*
X147111428Y-105664819D01*
X147111428Y-105664819D02*
X146873333Y-105664819D01*
X146873333Y-105664819D02*
X146778095Y-105617200D01*
X146778095Y-105617200D02*
X146730476Y-105569580D01*
X197930599Y-105815841D02*
X197358179Y-105714826D01*
X197526538Y-106219902D02*
X196819431Y-105512795D01*
X196819431Y-105512795D02*
X197088805Y-105243421D01*
X197088805Y-105243421D02*
X197189821Y-105209750D01*
X197189821Y-105209750D02*
X197257164Y-105209750D01*
X197257164Y-105209750D02*
X197358179Y-105243421D01*
X197358179Y-105243421D02*
X197459195Y-105344437D01*
X197459195Y-105344437D02*
X197492866Y-105445452D01*
X197492866Y-105445452D02*
X197492866Y-105512795D01*
X197492866Y-105512795D02*
X197459195Y-105613811D01*
X197459195Y-105613811D02*
X197189821Y-105883185D01*
X197425523Y-104906704D02*
X198368332Y-105378108D01*
X198368332Y-105378108D02*
X197896927Y-104435299D01*
X198166302Y-104300612D02*
X198166302Y-104233269D01*
X198166302Y-104233269D02*
X198199973Y-104132253D01*
X198199973Y-104132253D02*
X198368332Y-103963895D01*
X198368332Y-103963895D02*
X198469347Y-103930223D01*
X198469347Y-103930223D02*
X198536691Y-103930223D01*
X198536691Y-103930223D02*
X198637706Y-103963895D01*
X198637706Y-103963895D02*
X198705050Y-104031238D01*
X198705050Y-104031238D02*
X198772393Y-104165925D01*
X198772393Y-104165925D02*
X198772393Y-104974047D01*
X198772393Y-104974047D02*
X199210126Y-104536314D01*
X146053333Y-115844819D02*
X145720000Y-115368628D01*
X145481905Y-115844819D02*
X145481905Y-114844819D01*
X145481905Y-114844819D02*
X145862857Y-114844819D01*
X145862857Y-114844819D02*
X145958095Y-114892438D01*
X145958095Y-114892438D02*
X146005714Y-114940057D01*
X146005714Y-114940057D02*
X146053333Y-115035295D01*
X146053333Y-115035295D02*
X146053333Y-115178152D01*
X146053333Y-115178152D02*
X146005714Y-115273390D01*
X146005714Y-115273390D02*
X145958095Y-115321009D01*
X145958095Y-115321009D02*
X145862857Y-115368628D01*
X145862857Y-115368628D02*
X145481905Y-115368628D01*
X147005714Y-114892438D02*
X146910476Y-114844819D01*
X146910476Y-114844819D02*
X146767619Y-114844819D01*
X146767619Y-114844819D02*
X146624762Y-114892438D01*
X146624762Y-114892438D02*
X146529524Y-114987676D01*
X146529524Y-114987676D02*
X146481905Y-115082914D01*
X146481905Y-115082914D02*
X146434286Y-115273390D01*
X146434286Y-115273390D02*
X146434286Y-115416247D01*
X146434286Y-115416247D02*
X146481905Y-115606723D01*
X146481905Y-115606723D02*
X146529524Y-115701961D01*
X146529524Y-115701961D02*
X146624762Y-115797200D01*
X146624762Y-115797200D02*
X146767619Y-115844819D01*
X146767619Y-115844819D02*
X146862857Y-115844819D01*
X146862857Y-115844819D02*
X147005714Y-115797200D01*
X147005714Y-115797200D02*
X147053333Y-115749580D01*
X147053333Y-115749580D02*
X147053333Y-115416247D01*
X147053333Y-115416247D02*
X146862857Y-115416247D01*
X147672381Y-114844819D02*
X147767619Y-114844819D01*
X147767619Y-114844819D02*
X147862857Y-114892438D01*
X147862857Y-114892438D02*
X147910476Y-114940057D01*
X147910476Y-114940057D02*
X147958095Y-115035295D01*
X147958095Y-115035295D02*
X148005714Y-115225771D01*
X148005714Y-115225771D02*
X148005714Y-115463866D01*
X148005714Y-115463866D02*
X147958095Y-115654342D01*
X147958095Y-115654342D02*
X147910476Y-115749580D01*
X147910476Y-115749580D02*
X147862857Y-115797200D01*
X147862857Y-115797200D02*
X147767619Y-115844819D01*
X147767619Y-115844819D02*
X147672381Y-115844819D01*
X147672381Y-115844819D02*
X147577143Y-115797200D01*
X147577143Y-115797200D02*
X147529524Y-115749580D01*
X147529524Y-115749580D02*
X147481905Y-115654342D01*
X147481905Y-115654342D02*
X147434286Y-115463866D01*
X147434286Y-115463866D02*
X147434286Y-115225771D01*
X147434286Y-115225771D02*
X147481905Y-115035295D01*
X147481905Y-115035295D02*
X147529524Y-114940057D01*
X147529524Y-114940057D02*
X147577143Y-114892438D01*
X147577143Y-114892438D02*
X147672381Y-114844819D01*
X154914761Y-91590057D02*
X154819523Y-91542438D01*
X154819523Y-91542438D02*
X154724285Y-91447200D01*
X154724285Y-91447200D02*
X154581428Y-91304342D01*
X154581428Y-91304342D02*
X154486190Y-91256723D01*
X154486190Y-91256723D02*
X154390952Y-91256723D01*
X154438571Y-91494819D02*
X154343333Y-91447200D01*
X154343333Y-91447200D02*
X154248095Y-91351961D01*
X154248095Y-91351961D02*
X154200476Y-91161485D01*
X154200476Y-91161485D02*
X154200476Y-90828152D01*
X154200476Y-90828152D02*
X154248095Y-90637676D01*
X154248095Y-90637676D02*
X154343333Y-90542438D01*
X154343333Y-90542438D02*
X154438571Y-90494819D01*
X154438571Y-90494819D02*
X154629047Y-90494819D01*
X154629047Y-90494819D02*
X154724285Y-90542438D01*
X154724285Y-90542438D02*
X154819523Y-90637676D01*
X154819523Y-90637676D02*
X154867142Y-90828152D01*
X154867142Y-90828152D02*
X154867142Y-91161485D01*
X154867142Y-91161485D02*
X154819523Y-91351961D01*
X154819523Y-91351961D02*
X154724285Y-91447200D01*
X154724285Y-91447200D02*
X154629047Y-91494819D01*
X154629047Y-91494819D02*
X154438571Y-91494819D01*
X155248095Y-90590057D02*
X155295714Y-90542438D01*
X155295714Y-90542438D02*
X155390952Y-90494819D01*
X155390952Y-90494819D02*
X155629047Y-90494819D01*
X155629047Y-90494819D02*
X155724285Y-90542438D01*
X155724285Y-90542438D02*
X155771904Y-90590057D01*
X155771904Y-90590057D02*
X155819523Y-90685295D01*
X155819523Y-90685295D02*
X155819523Y-90780533D01*
X155819523Y-90780533D02*
X155771904Y-90923390D01*
X155771904Y-90923390D02*
X155200476Y-91494819D01*
X155200476Y-91494819D02*
X155819523Y-91494819D01*
X151113333Y-112034819D02*
X150780000Y-111558628D01*
X150541905Y-112034819D02*
X150541905Y-111034819D01*
X150541905Y-111034819D02*
X150922857Y-111034819D01*
X150922857Y-111034819D02*
X151018095Y-111082438D01*
X151018095Y-111082438D02*
X151065714Y-111130057D01*
X151065714Y-111130057D02*
X151113333Y-111225295D01*
X151113333Y-111225295D02*
X151113333Y-111368152D01*
X151113333Y-111368152D02*
X151065714Y-111463390D01*
X151065714Y-111463390D02*
X151018095Y-111511009D01*
X151018095Y-111511009D02*
X150922857Y-111558628D01*
X150922857Y-111558628D02*
X150541905Y-111558628D01*
X152065714Y-111082438D02*
X151970476Y-111034819D01*
X151970476Y-111034819D02*
X151827619Y-111034819D01*
X151827619Y-111034819D02*
X151684762Y-111082438D01*
X151684762Y-111082438D02*
X151589524Y-111177676D01*
X151589524Y-111177676D02*
X151541905Y-111272914D01*
X151541905Y-111272914D02*
X151494286Y-111463390D01*
X151494286Y-111463390D02*
X151494286Y-111606247D01*
X151494286Y-111606247D02*
X151541905Y-111796723D01*
X151541905Y-111796723D02*
X151589524Y-111891961D01*
X151589524Y-111891961D02*
X151684762Y-111987200D01*
X151684762Y-111987200D02*
X151827619Y-112034819D01*
X151827619Y-112034819D02*
X151922857Y-112034819D01*
X151922857Y-112034819D02*
X152065714Y-111987200D01*
X152065714Y-111987200D02*
X152113333Y-111939580D01*
X152113333Y-111939580D02*
X152113333Y-111606247D01*
X152113333Y-111606247D02*
X151922857Y-111606247D01*
X153065714Y-112034819D02*
X152494286Y-112034819D01*
X152780000Y-112034819D02*
X152780000Y-111034819D01*
X152780000Y-111034819D02*
X152684762Y-111177676D01*
X152684762Y-111177676D02*
X152589524Y-111272914D01*
X152589524Y-111272914D02*
X152494286Y-111320533D01*
X137374819Y-82876666D02*
X136898628Y-83209999D01*
X137374819Y-83448094D02*
X136374819Y-83448094D01*
X136374819Y-83448094D02*
X136374819Y-83067142D01*
X136374819Y-83067142D02*
X136422438Y-82971904D01*
X136422438Y-82971904D02*
X136470057Y-82924285D01*
X136470057Y-82924285D02*
X136565295Y-82876666D01*
X136565295Y-82876666D02*
X136708152Y-82876666D01*
X136708152Y-82876666D02*
X136803390Y-82924285D01*
X136803390Y-82924285D02*
X136851009Y-82971904D01*
X136851009Y-82971904D02*
X136898628Y-83067142D01*
X136898628Y-83067142D02*
X136898628Y-83448094D01*
X137374819Y-81924285D02*
X137374819Y-82495713D01*
X137374819Y-82209999D02*
X136374819Y-82209999D01*
X136374819Y-82209999D02*
X136517676Y-82305237D01*
X136517676Y-82305237D02*
X136612914Y-82400475D01*
X136612914Y-82400475D02*
X136660533Y-82495713D01*
X137464819Y-94006666D02*
X136988628Y-94339999D01*
X137464819Y-94578094D02*
X136464819Y-94578094D01*
X136464819Y-94578094D02*
X136464819Y-94197142D01*
X136464819Y-94197142D02*
X136512438Y-94101904D01*
X136512438Y-94101904D02*
X136560057Y-94054285D01*
X136560057Y-94054285D02*
X136655295Y-94006666D01*
X136655295Y-94006666D02*
X136798152Y-94006666D01*
X136798152Y-94006666D02*
X136893390Y-94054285D01*
X136893390Y-94054285D02*
X136941009Y-94101904D01*
X136941009Y-94101904D02*
X136988628Y-94197142D01*
X136988628Y-94197142D02*
X136988628Y-94578094D01*
X136464819Y-93101904D02*
X136464819Y-93578094D01*
X136464819Y-93578094D02*
X136941009Y-93625713D01*
X136941009Y-93625713D02*
X136893390Y-93578094D01*
X136893390Y-93578094D02*
X136845771Y-93482856D01*
X136845771Y-93482856D02*
X136845771Y-93244761D01*
X136845771Y-93244761D02*
X136893390Y-93149523D01*
X136893390Y-93149523D02*
X136941009Y-93101904D01*
X136941009Y-93101904D02*
X137036247Y-93054285D01*
X137036247Y-93054285D02*
X137274342Y-93054285D01*
X137274342Y-93054285D02*
X137369580Y-93101904D01*
X137369580Y-93101904D02*
X137417200Y-93149523D01*
X137417200Y-93149523D02*
X137464819Y-93244761D01*
X137464819Y-93244761D02*
X137464819Y-93482856D01*
X137464819Y-93482856D02*
X137417200Y-93578094D01*
X137417200Y-93578094D02*
X137369580Y-93625713D01*
X141940833Y-86469580D02*
X141893214Y-86517200D01*
X141893214Y-86517200D02*
X141750357Y-86564819D01*
X141750357Y-86564819D02*
X141655119Y-86564819D01*
X141655119Y-86564819D02*
X141512262Y-86517200D01*
X141512262Y-86517200D02*
X141417024Y-86421961D01*
X141417024Y-86421961D02*
X141369405Y-86326723D01*
X141369405Y-86326723D02*
X141321786Y-86136247D01*
X141321786Y-86136247D02*
X141321786Y-85993390D01*
X141321786Y-85993390D02*
X141369405Y-85802914D01*
X141369405Y-85802914D02*
X141417024Y-85707676D01*
X141417024Y-85707676D02*
X141512262Y-85612438D01*
X141512262Y-85612438D02*
X141655119Y-85564819D01*
X141655119Y-85564819D02*
X141750357Y-85564819D01*
X141750357Y-85564819D02*
X141893214Y-85612438D01*
X141893214Y-85612438D02*
X141940833Y-85660057D01*
X142274167Y-85564819D02*
X142893214Y-85564819D01*
X142893214Y-85564819D02*
X142559881Y-85945771D01*
X142559881Y-85945771D02*
X142702738Y-85945771D01*
X142702738Y-85945771D02*
X142797976Y-85993390D01*
X142797976Y-85993390D02*
X142845595Y-86041009D01*
X142845595Y-86041009D02*
X142893214Y-86136247D01*
X142893214Y-86136247D02*
X142893214Y-86374342D01*
X142893214Y-86374342D02*
X142845595Y-86469580D01*
X142845595Y-86469580D02*
X142797976Y-86517200D01*
X142797976Y-86517200D02*
X142702738Y-86564819D01*
X142702738Y-86564819D02*
X142417024Y-86564819D01*
X142417024Y-86564819D02*
X142321786Y-86517200D01*
X142321786Y-86517200D02*
X142274167Y-86469580D01*
D12*
%TO.C,C9*%
X163595000Y-113991248D02*
X163595000Y-114513752D01*
X165065000Y-113991248D02*
X165065000Y-114513752D01*
%TO.C,Q1*%
X150900000Y-79510000D02*
X150100000Y-79510000D01*
X150900000Y-79510000D02*
X151700000Y-79510000D01*
X151700000Y-79510000D02*
X151700000Y-80440000D01*
X151700000Y-82670000D02*
X150240000Y-82670000D01*
X151700000Y-82670000D02*
X151700000Y-81740000D01*
X149600000Y-79480000D02*
X149360000Y-79150000D01*
X149840000Y-79150000D01*
X149600000Y-79480000D01*
G36*
X149600000Y-79480000D02*
G01*
X149360000Y-79150000D01*
X149840000Y-79150000D01*
X149600000Y-79480000D01*
G37*
%TO.C,R8*%
X150532936Y-94685000D02*
X150987064Y-94685000D01*
X150532936Y-96155000D02*
X150987064Y-96155000D01*
%TO.C,R11*%
X161365000Y-114467064D02*
X161365000Y-114012936D01*
X162835000Y-114467064D02*
X162835000Y-114012936D01*
%TO.C,RG2*%
X197066497Y-97650000D02*
X198410000Y-96306497D01*
X198410000Y-96306497D02*
X199753503Y-97650000D01*
X198410000Y-98993503D02*
X197066497Y-97650000D01*
X199753503Y-97650000D02*
X198410000Y-98993503D01*
%TO.C,LED0*%
X148490000Y-86010000D02*
X150390000Y-86010000D01*
X148490000Y-87910000D02*
X148490000Y-86010000D01*
X150390000Y-86010000D02*
X150390000Y-87910000D01*
X150390000Y-87910000D02*
X148490000Y-87910000D01*
%TO.C,C5*%
X166753752Y-116545000D02*
X166231248Y-116545000D01*
X166753752Y-118015000D02*
X166231248Y-118015000D01*
%TO.C,U3*%
X139280000Y-78325000D02*
X140690000Y-78325000D01*
X139290000Y-80645000D02*
X140690000Y-80645000D01*
X138910000Y-78375000D02*
X138670000Y-78045000D01*
X139150000Y-78045000D01*
X138910000Y-78375000D01*
G36*
X138910000Y-78375000D02*
G01*
X138670000Y-78045000D01*
X139150000Y-78045000D01*
X138910000Y-78375000D01*
G37*
%TO.C,U7*%
X139420000Y-99590000D02*
X140830000Y-99590000D01*
X139430000Y-101910000D02*
X140830000Y-101910000D01*
X139050000Y-99640000D02*
X138810000Y-99310000D01*
X139290000Y-99310000D01*
X139050000Y-99640000D01*
G36*
X139050000Y-99640000D02*
G01*
X138810000Y-99310000D01*
X139290000Y-99310000D01*
X139050000Y-99640000D01*
G37*
%TO.C,VREF2*%
X136060000Y-96660000D02*
X137960000Y-96660000D01*
X136060000Y-98560000D02*
X136060000Y-96660000D01*
X137960000Y-96660000D02*
X137960000Y-98560000D01*
X137960000Y-98560000D02*
X136060000Y-98560000D01*
%TO.C,VREF1*%
X135720000Y-86670000D02*
X137620000Y-86670000D01*
X135720000Y-88570000D02*
X135720000Y-86670000D01*
X137620000Y-86670000D02*
X137620000Y-88570000D01*
X137620000Y-88570000D02*
X135720000Y-88570000D01*
%TO.C,LED1*%
X148820000Y-97180000D02*
X150720000Y-97180000D01*
X148820000Y-99080000D02*
X148820000Y-97180000D01*
X150720000Y-97180000D02*
X150720000Y-99080000D01*
X150720000Y-99080000D02*
X148820000Y-99080000D01*
%TO.C,RG3*%
X199076497Y-103520000D02*
X200420000Y-102176497D01*
X200420000Y-102176497D02*
X201763503Y-103520000D01*
X200420000Y-104863503D02*
X199076497Y-103520000D01*
X201763503Y-103520000D02*
X200420000Y-104863503D01*
%TO.C,R12*%
X192972618Y-104562762D02*
X193293735Y-104883879D01*
X194012065Y-103523315D02*
X194333182Y-103844432D01*
%TO.C,C14*%
X141871248Y-97255000D02*
X142393752Y-97255000D01*
X141871248Y-98725000D02*
X142393752Y-98725000D01*
%TO.C,R16*%
X150262936Y-104725000D02*
X150717064Y-104725000D01*
X150262936Y-106195000D02*
X150717064Y-106195000D01*
%TO.C,J4*%
X128980000Y-87660000D02*
X130310000Y-87660000D01*
X128980000Y-88990000D02*
X128980000Y-87660000D01*
X128980000Y-90260000D02*
X128980000Y-95400000D01*
X128980000Y-90260000D02*
X131640000Y-90260000D01*
X128980000Y-95400000D02*
X131640000Y-95400000D01*
X131640000Y-90260000D02*
X131640000Y-95400000D01*
%TO.C,VREF0*%
X135690000Y-75180000D02*
X137590000Y-75180000D01*
X135690000Y-77080000D02*
X135690000Y-75180000D01*
X137590000Y-75180000D02*
X137590000Y-77080000D01*
X137590000Y-77080000D02*
X135690000Y-77080000D01*
%TO.C,C2*%
X141716248Y-75975000D02*
X142238752Y-75975000D01*
X141716248Y-77445000D02*
X142238752Y-77445000D01*
%TO.C,J3*%
X129130000Y-76310000D02*
X130460000Y-76310000D01*
X129130000Y-77640000D02*
X129130000Y-76310000D01*
X129130000Y-78910000D02*
X129130000Y-81510000D01*
X129130000Y-78910000D02*
X131790000Y-78910000D01*
X129130000Y-81510000D02*
X131790000Y-81510000D01*
X131790000Y-78910000D02*
X131790000Y-81510000D01*
%TO.C,R9*%
X136215000Y-106412936D02*
X136215000Y-106867064D01*
X137685000Y-106412936D02*
X137685000Y-106867064D01*
%TO.C,TP2*%
X129960000Y-102310000D02*
X131360000Y-102310000D01*
X129960000Y-103710000D02*
X129960000Y-102310000D01*
X131360000Y-102310000D02*
X131360000Y-103710000D01*
X131360000Y-103710000D02*
X129960000Y-103710000D01*
%TO.C,RV1*%
X156550000Y-111490000D02*
X156550000Y-112770000D01*
X156550000Y-115250000D02*
X156550000Y-116530000D01*
X160290000Y-111490000D02*
X156550000Y-111490000D01*
X160290000Y-111490000D02*
X160290000Y-111870000D01*
X160290000Y-113650000D02*
X160290000Y-114370000D01*
X160290000Y-116150000D02*
X160290000Y-116530000D01*
X160290000Y-116530000D02*
X156550000Y-116530000D01*
%TO.C,Q3*%
X150940000Y-100860000D02*
X150140000Y-100860000D01*
X150940000Y-100860000D02*
X151740000Y-100860000D01*
X151740000Y-100860000D02*
X151740000Y-101790000D01*
X151740000Y-104020000D02*
X150280000Y-104020000D01*
X151740000Y-104020000D02*
X151740000Y-103090000D01*
X149640000Y-100830000D02*
X149400000Y-100500000D01*
X149880000Y-100500000D01*
X149640000Y-100830000D01*
G36*
X149640000Y-100830000D02*
G01*
X149400000Y-100500000D01*
X149880000Y-100500000D01*
X149640000Y-100830000D01*
G37*
%TO.C,U5*%
X165790000Y-113610000D02*
X165790000Y-115010000D01*
X168110000Y-113600000D02*
X168110000Y-115010000D01*
X168390000Y-113470000D02*
X168060000Y-113230000D01*
X168390000Y-112990000D01*
X168390000Y-113470000D01*
G36*
X168390000Y-113470000D02*
G01*
X168060000Y-113230000D01*
X168390000Y-112990000D01*
X168390000Y-113470000D01*
G37*
%TO.C,R2*%
X146197064Y-79315000D02*
X145742936Y-79315000D01*
X146197064Y-80785000D02*
X145742936Y-80785000D01*
%TO.C,LED2*%
X148570000Y-106960000D02*
X150470000Y-106960000D01*
X148570000Y-108860000D02*
X148570000Y-106960000D01*
X150470000Y-106960000D02*
X150470000Y-108860000D01*
X150470000Y-108860000D02*
X148570000Y-108860000D01*
%TO.C,R13*%
X136277500Y-100875436D02*
X136277500Y-101329564D01*
X137747500Y-100875436D02*
X137747500Y-101329564D01*
%TO.C,R14*%
X146287064Y-100645000D02*
X145832936Y-100645000D01*
X146287064Y-102115000D02*
X145832936Y-102115000D01*
%TO.C,R7*%
X146447064Y-92735000D02*
X145992936Y-92735000D01*
X146447064Y-94205000D02*
X145992936Y-94205000D01*
%TO.C,R6*%
X146457064Y-90625000D02*
X146002936Y-90625000D01*
X146457064Y-92095000D02*
X146002936Y-92095000D01*
%TO.C,C8*%
X142305000Y-92131248D02*
X142305000Y-92653752D01*
X143775000Y-92131248D02*
X143775000Y-92653752D01*
%TO.C,C13*%
X142165000Y-102166248D02*
X142165000Y-102688752D01*
X143635000Y-102166248D02*
X143635000Y-102688752D01*
%TO.C,TP1*%
X133290000Y-72670000D02*
X134690000Y-72670000D01*
X133290000Y-74070000D02*
X133290000Y-72670000D01*
X134690000Y-72670000D02*
X134690000Y-74070000D01*
X134690000Y-74070000D02*
X133290000Y-74070000D01*
%TO.C,J1*%
X129340000Y-105190000D02*
X130670000Y-105190000D01*
X129340000Y-106520000D02*
X129340000Y-105190000D01*
X129340000Y-107790000D02*
X129340000Y-115470000D01*
X129340000Y-107790000D02*
X132000000Y-107790000D01*
X129340000Y-115470000D02*
X132000000Y-115470000D01*
X132000000Y-107790000D02*
X132000000Y-115470000D01*
%TO.C,C7*%
X142105000Y-80921248D02*
X142105000Y-81443752D01*
X143575000Y-80921248D02*
X143575000Y-81443752D01*
%TO.C,C12*%
X191707474Y-106493741D02*
X191338007Y-106124274D01*
X192746921Y-105454294D02*
X192377454Y-105084827D01*
%TO.C,R10*%
X136215000Y-110522936D02*
X136215000Y-110977064D01*
X137685000Y-110522936D02*
X137685000Y-110977064D01*
%TO.C,Vbias*%
X140090000Y-109030000D02*
X141490000Y-109030000D01*
X140090000Y-110430000D02*
X140090000Y-109030000D01*
X141490000Y-109030000D02*
X141490000Y-110430000D01*
X141490000Y-110430000D02*
X140090000Y-110430000D01*
%TO.C,U4*%
X139410000Y-89510000D02*
X140820000Y-89510000D01*
X139420000Y-91830000D02*
X140820000Y-91830000D01*
X139040000Y-89560000D02*
X138800000Y-89230000D01*
X139280000Y-89230000D01*
X139040000Y-89560000D01*
G36*
X139040000Y-89560000D02*
G01*
X138800000Y-89230000D01*
X139280000Y-89230000D01*
X139040000Y-89560000D01*
G37*
%TO.C,U6*%
X189749670Y-109110919D02*
X188752649Y-108113898D01*
X191383087Y-107463360D02*
X190393137Y-106473410D01*
X189983015Y-109740244D02*
X189643604Y-109400832D01*
X190046655Y-109337193D01*
X189983015Y-109740244D01*
G36*
X189983015Y-109740244D02*
G01*
X189643604Y-109400832D01*
X190046655Y-109337193D01*
X189983015Y-109740244D01*
G37*
%TO.C,R3*%
X150192936Y-83595000D02*
X150647064Y-83595000D01*
X150192936Y-85065000D02*
X150647064Y-85065000D01*
%TO.C,C6*%
X187529166Y-105031387D02*
X187898633Y-104661920D01*
X188568613Y-106070834D02*
X188938080Y-105701367D01*
%TO.C,R4*%
X146167064Y-81505000D02*
X145712936Y-81505000D01*
X146167064Y-82975000D02*
X145712936Y-82975000D01*
%TO.C,R15*%
X146277064Y-102755000D02*
X145822936Y-102755000D01*
X146277064Y-104225000D02*
X145822936Y-104225000D01*
%TO.C,RV2*%
X193391270Y-101071115D02*
X196035850Y-98426535D01*
X193659971Y-101339815D02*
X193391270Y-101071115D01*
X195427738Y-103107582D02*
X194918621Y-102598465D01*
X196940946Y-99331632D02*
X196035850Y-98426535D01*
X196955088Y-104634933D02*
X196686388Y-104366232D01*
X196955088Y-104634933D02*
X199599668Y-101990353D01*
X199599668Y-101990353D02*
X198694571Y-101085257D01*
%TO.C,RG0*%
X145770000Y-112260000D02*
X147670000Y-112260000D01*
X145770000Y-114160000D02*
X145770000Y-112260000D01*
X147670000Y-112260000D02*
X147670000Y-114160000D01*
X147670000Y-114160000D02*
X145770000Y-114160000D01*
%TO.C,Q2*%
X151237500Y-90820000D02*
X150437500Y-90820000D01*
X151237500Y-90820000D02*
X152037500Y-90820000D01*
X152037500Y-90820000D02*
X152037500Y-91750000D01*
X152037500Y-93980000D02*
X150577500Y-93980000D01*
X152037500Y-93980000D02*
X152037500Y-93050000D01*
X149937500Y-90790000D02*
X149697500Y-90460000D01*
X150177500Y-90460000D01*
X149937500Y-90790000D01*
G36*
X149937500Y-90790000D02*
G01*
X149697500Y-90460000D01*
X150177500Y-90460000D01*
X149937500Y-90790000D01*
G37*
%TO.C,RG1*%
X153550000Y-110620000D02*
X155450000Y-110620000D01*
X153550000Y-112520000D02*
X153550000Y-110620000D01*
X155450000Y-110620000D02*
X155450000Y-112520000D01*
X155450000Y-112520000D02*
X153550000Y-112520000D01*
%TO.C,R1*%
X136155000Y-79612936D02*
X136155000Y-80067064D01*
X137625000Y-79612936D02*
X137625000Y-80067064D01*
%TO.C,R5*%
X136225000Y-90822936D02*
X136225000Y-91277064D01*
X137695000Y-90822936D02*
X137695000Y-91277064D01*
%TO.C,C3*%
X141846248Y-87055000D02*
X142368752Y-87055000D01*
X141846248Y-88525000D02*
X142368752Y-88525000D01*
%TD*%
M02*
