%TF.GenerationSoftware,KiCad,Pcbnew,8.0.0-8.0.0-1~ubuntu20.04.1*%
%TF.CreationDate,2024-06-18T18:08:34-06:00*%
%TF.ProjectId,turbidometer,74757262-6964-46f6-9d65-7465722e6b69,rev?*%
%TF.SameCoordinates,Original*%
%TF.FileFunction,Soldermask,Top*%
%TF.FilePolarity,Negative*%
%FSLAX46Y46*%
G04 Gerber Fmt 4.6, Leading zero omitted, Abs format (unit mm)*
G04 Created by KiCad (PCBNEW 8.0.0-8.0.0-1~ubuntu20.04.1) date 2024-06-18 18:08:34*
%MOMM*%
%LPD*%
G01*
G04 APERTURE LIST*
G04 Aperture macros list*
%AMRoundRect*
0 Rectangle with rounded corners*
0 $1 Rounding radius*
0 $2 $3 $4 $5 $6 $7 $8 $9 X,Y pos of 4 corners*
0 Add a 4 corners polygon primitive as box body*
4,1,4,$2,$3,$4,$5,$6,$7,$8,$9,$2,$3,0*
0 Add four circle primitives for the rounded corners*
1,1,$1+$1,$2,$3*
1,1,$1+$1,$4,$5*
1,1,$1+$1,$6,$7*
1,1,$1+$1,$8,$9*
0 Add four rect primitives between the rounded corners*
20,1,$1+$1,$2,$3,$4,$5,0*
20,1,$1+$1,$4,$5,$6,$7,0*
20,1,$1+$1,$6,$7,$8,$9,0*
20,1,$1+$1,$8,$9,$2,$3,0*%
%AMHorizOval*
0 Thick line with rounded ends*
0 $1 width*
0 $2 $3 position (X,Y) of the first rounded end (center of the circle)*
0 $4 $5 position (X,Y) of the second rounded end (center of the circle)*
0 Add line between two ends*
20,1,$1,$2,$3,$4,$5,0*
0 Add two circle primitives to create the rounded ends*
1,1,$1,$2,$3*
1,1,$1,$4,$5*%
%AMRotRect*
0 Rectangle, with rotation*
0 The origin of the aperture is its center*
0 $1 length*
0 $2 width*
0 $3 Rotation angle, in degrees counterclockwise*
0 Add horizontal line*
21,1,$1,$2,0,0,$3*%
G04 Aperture macros list end*
%ADD10RoundRect,0.250000X-0.475000X0.337500X-0.475000X-0.337500X0.475000X-0.337500X0.475000X0.337500X0*%
%ADD11RoundRect,0.200000X-0.750000X-0.200000X0.750000X-0.200000X0.750000X0.200000X-0.750000X0.200000X0*%
%ADD12RoundRect,0.250000X-0.350000X-0.450000X0.350000X-0.450000X0.350000X0.450000X-0.350000X0.450000X0*%
%ADD13RoundRect,0.250000X0.450000X-0.350000X0.450000X0.350000X-0.450000X0.350000X-0.450000X-0.350000X0*%
%ADD14RotRect,1.500000X1.500000X225.000000*%
%ADD15R,1.500000X1.500000*%
%ADD16RoundRect,0.250000X0.337500X0.475000X-0.337500X0.475000X-0.337500X-0.475000X0.337500X-0.475000X0*%
%ADD17RoundRect,0.100000X-0.225000X-0.100000X0.225000X-0.100000X0.225000X0.100000X-0.225000X0.100000X0*%
%ADD18RoundRect,0.250000X-0.565685X-0.070711X-0.070711X-0.565685X0.565685X0.070711X0.070711X0.565685X0*%
%ADD19RoundRect,0.250000X-0.337500X-0.475000X0.337500X-0.475000X0.337500X0.475000X-0.337500X0.475000X0*%
%ADD20R,1.700000X1.700000*%
%ADD21O,1.700000X1.700000*%
%ADD22RoundRect,0.250000X-0.450000X0.350000X-0.450000X-0.350000X0.450000X-0.350000X0.450000X0.350000X0*%
%ADD23R,1.000000X1.000000*%
%ADD24R,1.600000X1.300000*%
%ADD25R,1.600000X2.000000*%
%ADD26RoundRect,0.100000X-0.100000X0.225000X-0.100000X-0.225000X0.100000X-0.225000X0.100000X0.225000X0*%
%ADD27RoundRect,0.250000X0.350000X0.450000X-0.350000X0.450000X-0.350000X-0.450000X0.350000X-0.450000X0*%
%ADD28RoundRect,0.250000X0.574524X0.097227X0.097227X0.574524X-0.574524X-0.097227X-0.097227X-0.574524X0*%
%ADD29RoundRect,0.100000X0.229810X-0.088388X-0.088388X0.229810X-0.229810X0.088388X0.088388X-0.229810X0*%
%ADD30RoundRect,0.250000X0.097227X-0.574524X0.574524X-0.097227X-0.097227X0.574524X-0.574524X0.097227X0*%
%ADD31RotRect,1.300000X1.600000X135.000000*%
%ADD32RotRect,2.000000X1.600000X135.000000*%
%ADD33RotRect,1.700000X1.700000X135.000000*%
%ADD34HorizOval,1.700000X0.000000X0.000000X0.000000X0.000000X0*%
G04 APERTURE END LIST*
D10*
%TO.C,C9*%
X164330000Y-113215000D03*
X164330000Y-115290000D03*
%TD*%
D11*
%TO.C,Q1*%
X149440000Y-80140000D03*
X149440000Y-82040000D03*
X152440000Y-81090000D03*
%TD*%
D12*
%TO.C,R8*%
X149760000Y-95420000D03*
X151760000Y-95420000D03*
%TD*%
D13*
%TO.C,R11*%
X162100000Y-115240000D03*
X162100000Y-113240000D03*
%TD*%
D14*
%TO.C,RG2*%
X198410000Y-97650000D03*
%TD*%
D15*
%TO.C,LED0*%
X149440000Y-86960000D03*
%TD*%
D16*
%TO.C,C5*%
X167530000Y-117280000D03*
X165455000Y-117280000D03*
%TD*%
D17*
%TO.C,U3*%
X139040000Y-78835000D03*
X139040000Y-79485000D03*
X139040000Y-80135000D03*
X140940000Y-80135000D03*
X140940000Y-78835000D03*
%TD*%
%TO.C,U7*%
X139180000Y-100100000D03*
X139180000Y-100750000D03*
X139180000Y-101400000D03*
X141080000Y-101400000D03*
X141080000Y-100100000D03*
%TD*%
D15*
%TO.C,VREF2*%
X137010000Y-97610000D03*
%TD*%
%TO.C,VREF1*%
X136670000Y-87620000D03*
%TD*%
%TO.C,LED1*%
X149770000Y-98130000D03*
%TD*%
D14*
%TO.C,RG3*%
X200420000Y-103520000D03*
%TD*%
D18*
%TO.C,R12*%
X192945793Y-103496490D03*
X194360007Y-104910704D03*
%TD*%
D19*
%TO.C,C14*%
X141095000Y-97990000D03*
X143170000Y-97990000D03*
%TD*%
D12*
%TO.C,R16*%
X149490000Y-105460000D03*
X151490000Y-105460000D03*
%TD*%
D20*
%TO.C,J4*%
X130310000Y-88990000D03*
D21*
X130310000Y-91530000D03*
X130310000Y-94070000D03*
%TD*%
D15*
%TO.C,VREF0*%
X136640000Y-76130000D03*
%TD*%
D19*
%TO.C,C2*%
X140940000Y-76710000D03*
X143015000Y-76710000D03*
%TD*%
D20*
%TO.C,J3*%
X130460000Y-77640000D03*
D21*
X130460000Y-80180000D03*
%TD*%
D22*
%TO.C,R9*%
X136950000Y-105640000D03*
X136950000Y-107640000D03*
%TD*%
D23*
%TO.C,TP2*%
X130660000Y-103010000D03*
%TD*%
D24*
%TO.C,RV1*%
X159870000Y-115260000D03*
D25*
X156970000Y-114010000D03*
D24*
X159870000Y-112760000D03*
%TD*%
D11*
%TO.C,Q3*%
X149480000Y-101490000D03*
X149480000Y-103390000D03*
X152480000Y-102440000D03*
%TD*%
D26*
%TO.C,U5*%
X167600000Y-113360000D03*
X166950000Y-113360000D03*
X166300000Y-113360000D03*
X166300000Y-115260000D03*
X167600000Y-115260000D03*
%TD*%
D27*
%TO.C,R2*%
X146970000Y-80050000D03*
X144970000Y-80050000D03*
%TD*%
D15*
%TO.C,LED2*%
X149520000Y-107910000D03*
%TD*%
D22*
%TO.C,R13*%
X137012500Y-100102500D03*
X137012500Y-102102500D03*
%TD*%
D27*
%TO.C,R14*%
X147060000Y-101380000D03*
X145060000Y-101380000D03*
%TD*%
%TO.C,R7*%
X147220000Y-93470000D03*
X145220000Y-93470000D03*
%TD*%
%TO.C,R6*%
X147230000Y-91360000D03*
X145230000Y-91360000D03*
%TD*%
D10*
%TO.C,C8*%
X143040000Y-91355000D03*
X143040000Y-93430000D03*
%TD*%
%TO.C,C13*%
X142900000Y-101390000D03*
X142900000Y-103465000D03*
%TD*%
D23*
%TO.C,TP1*%
X133990000Y-73370000D03*
%TD*%
D20*
%TO.C,J1*%
X130670000Y-106520000D03*
D21*
X130670000Y-109060000D03*
X130670000Y-111600000D03*
X130670000Y-114140000D03*
%TD*%
D10*
%TO.C,C7*%
X142840000Y-80145000D03*
X142840000Y-82220000D03*
%TD*%
D28*
%TO.C,C12*%
X192776087Y-106522907D03*
X191308841Y-105055661D03*
%TD*%
D22*
%TO.C,R10*%
X136950000Y-109750000D03*
X136950000Y-111750000D03*
%TD*%
D23*
%TO.C,Vbias*%
X140790000Y-109730000D03*
%TD*%
D17*
%TO.C,U4*%
X139170000Y-90020000D03*
X139170000Y-90670000D03*
X139170000Y-91320000D03*
X141070000Y-91320000D03*
X141070000Y-90020000D03*
%TD*%
D29*
%TO.C,U6*%
X190280000Y-108920000D03*
X190739619Y-108460380D03*
X191199239Y-108000761D03*
X189855736Y-106657258D03*
X188936497Y-107576497D03*
%TD*%
D12*
%TO.C,R3*%
X149420000Y-84330000D03*
X151420000Y-84330000D03*
%TD*%
D30*
%TO.C,C6*%
X187500000Y-106100000D03*
X188967246Y-104632754D03*
%TD*%
D27*
%TO.C,R4*%
X146940000Y-82240000D03*
X144940000Y-82240000D03*
%TD*%
%TO.C,R15*%
X147050000Y-103490000D03*
X145050000Y-103490000D03*
%TD*%
D31*
%TO.C,RV2*%
X194586281Y-101672155D03*
D32*
X197520774Y-100505429D03*
D31*
X196354048Y-103439922D03*
%TD*%
D15*
%TO.C,RG0*%
X146720000Y-113210000D03*
%TD*%
D11*
%TO.C,Q2*%
X149777500Y-91450000D03*
X149777500Y-93350000D03*
X152777500Y-92400000D03*
%TD*%
D15*
%TO.C,RG1*%
X154500000Y-111570000D03*
%TD*%
D22*
%TO.C,R1*%
X136890000Y-78840000D03*
X136890000Y-80840000D03*
%TD*%
%TO.C,R5*%
X136960000Y-90050000D03*
X136960000Y-92050000D03*
%TD*%
D19*
%TO.C,C3*%
X141070000Y-87790000D03*
X143145000Y-87790000D03*
%TD*%
D20*
%TO.C,J7*%
X170480000Y-114350000D03*
D21*
X173020000Y-114350000D03*
%TD*%
D33*
%TO.C,J2*%
X187686051Y-110283949D03*
D34*
X185890000Y-112080000D03*
%TD*%
D20*
%TO.C,J5*%
X167770000Y-76280000D03*
D21*
X170310000Y-76280000D03*
X172850000Y-76280000D03*
X175390000Y-76280000D03*
%TD*%
D20*
%TO.C,J6*%
X189830000Y-99630000D03*
D21*
X189830000Y-97090000D03*
X189830000Y-94550000D03*
X189830000Y-92010000D03*
%TD*%
M02*
