%TF.GenerationSoftware,KiCad,Pcbnew,8.0.0-8.0.0-1~ubuntu20.04.1*%
%TF.CreationDate,2024-06-18T18:08:34-06:00*%
%TF.ProjectId,turbidometer,74757262-6964-46f6-9d65-7465722e6b69,rev?*%
%TF.SameCoordinates,Original*%
%TF.FileFunction,Profile,NP*%
%FSLAX46Y46*%
G04 Gerber Fmt 4.6, Leading zero omitted, Abs format (unit mm)*
G04 Created by KiCad (PCBNEW 8.0.0-8.0.0-1~ubuntu20.04.1) date 2024-06-18 18:08:34*
%MOMM*%
%LPD*%
G01*
G04 APERTURE LIST*
%TA.AperFunction,Profile*%
%ADD10C,0.050000*%
%TD*%
G04 APERTURE END LIST*
D10*
X126580000Y-75720000D02*
X126550000Y-115720000D01*
X206580000Y-115720000D02*
X206580000Y-75720000D01*
X131550000Y-120720000D02*
G75*
G02*
X126550000Y-115720000I0J5000000D01*
G01*
X185580057Y-95730000D02*
G75*
G02*
X157579943Y-95730000I-14000057J0D01*
G01*
X157579943Y-95730000D02*
G75*
G02*
X185580057Y-95730000I14000057J0D01*
G01*
X146580000Y-70730000D02*
X196580000Y-70720000D01*
X153080000Y-75730000D02*
G75*
G02*
X150080000Y-75730000I-1500000J0D01*
G01*
X150080000Y-75730000D02*
G75*
G02*
X153080000Y-75730000I1500000J0D01*
G01*
X131580000Y-70720000D02*
X146580000Y-70730000D01*
X153080133Y-115730000D02*
G75*
G02*
X150079867Y-115730000I-1500133J0D01*
G01*
X150079867Y-115730000D02*
G75*
G02*
X153080133Y-115730000I1500133J0D01*
G01*
X126580000Y-75720000D02*
G75*
G02*
X131580000Y-70720000I5000000J0D01*
G01*
X196580000Y-70720000D02*
X201580000Y-70720000D01*
X206580000Y-115720000D02*
G75*
G02*
X201580000Y-120720000I-5000000J0D01*
G01*
X193080300Y-75730000D02*
G75*
G02*
X190079700Y-75730000I-1500300J0D01*
G01*
X190079700Y-75730000D02*
G75*
G02*
X193080300Y-75730000I1500300J0D01*
G01*
X193080133Y-115730000D02*
G75*
G02*
X190079867Y-115730000I-1500133J0D01*
G01*
X190079867Y-115730000D02*
G75*
G02*
X193080133Y-115730000I1500133J0D01*
G01*
X146580000Y-120730000D02*
X131550000Y-120720000D01*
X201580000Y-70720000D02*
G75*
G02*
X206580000Y-75720000I0J-5000000D01*
G01*
X201580000Y-120720000D02*
X146580000Y-120730000D01*
M02*
