M48
; DRILL file {KiCad 8.0.0-8.0.0-1~ubuntu20.04.1} date 2024-06-18T18:08:31-0600
; FORMAT={-:-/ absolute / inch / decimal}
; #@! TF.CreationDate,2024-06-18T18:08:31-06:00
; #@! TF.GenerationSoftware,Kicad,Pcbnew,8.0.0-8.0.0-1~ubuntu20.04.1
; #@! TF.FileFunction,Plated,1,2,PTH
FMAT,2
INCH
; #@! TA.AperFunction,Plated,PTH,ViaDrill
T1C0.0118
; #@! TA.AperFunction,Plated,PTH,ComponentDrill
T2C0.0276
; #@! TA.AperFunction,Plated,PTH,ComponentDrill
T3C0.0394
%
G90
G05
T1
X5.3441Y-4.3992
X5.4382Y-3.1295
X5.4417Y-3.5701
X5.4437Y-3.9673
X5.5039Y-3.4421
X5.511Y-2.9827
X5.5138Y-3.8161
X5.5831Y-3.5157
X5.5846Y-3.0827
X5.5913Y-3.9173
X5.6748Y-3.0213
X5.6791Y-3.4571
X5.6803Y-3.8591
X5.9606Y-3.3685
X5.9732Y-3.8083
X6.0087Y-4.1039
X6.4626Y-4.6142
X6.5697Y-4.422
X6.6453Y-4.6161
X7.3457Y-4.213
X7.4732Y-4.0862
X7.5378Y-4.298
T2
X5.3795Y-2.9972
X5.3807Y-3.4496
X5.3941Y-3.8429
X5.7764Y-4.4571
X5.8835Y-3.4236
X5.8866Y-4.2484
X5.8965Y-3.8634
X6.0827Y-4.3925
X7.8114Y-3.8445
X7.8906Y-4.0756
T3
X5.1303Y-3.5035
X5.1303Y-3.6035
X5.1303Y-3.7035
X5.1362Y-3.0567
X5.1362Y-3.1567
X5.1445Y-4.1937
X5.1445Y-4.2937
X5.1445Y-4.3937
X5.1445Y-4.4937
X6.6051Y-3.0031
X6.7051Y-3.0031
X6.7118Y-4.502
X6.8051Y-3.0031
X6.8118Y-4.502
X6.9051Y-3.0031
X7.3185Y-4.4126
X7.3892Y-4.3419
X7.4736Y-3.6224
X7.4736Y-3.7224
X7.4736Y-3.8224
X7.4736Y-3.9224
M30
