M48
; DRILL file {KiCad 8.0.0-8.0.0-1~ubuntu20.04.1} date 2024-06-18T17:36:14-0600
; FORMAT={-:-/ absolute / inch / decimal}
; #@! TF.CreationDate,2024-06-18T17:36:14-06:00
; #@! TF.GenerationSoftware,Kicad,Pcbnew,8.0.0-8.0.0-1~ubuntu20.04.1
; #@! TF.FileFunction,Plated,1,4,PTH
FMAT,2
INCH
; #@! TA.AperFunction,Plated,PTH,ViaDrill
T1C0.0118
; #@! TA.AperFunction,Plated,PTH,ComponentDrill
T2C0.0315
; #@! TA.AperFunction,Plated,PTH,ComponentDrill
T3C0.0394
; #@! TA.AperFunction,Plated,PTH,ComponentDrill
T4C0.0402
; #@! TA.AperFunction,Plated,PTH,ComponentDrill
T5C0.0469
; #@! TA.AperFunction,Plated,PTH,ComponentDrill
T6C0.1260
%
G90
G05
T1
X6.1028Y-2.2677
X6.1059Y-2.9661
X6.1063Y-2.6689
X6.1063Y-2.7673
X6.1063Y-2.8677
X6.1067Y-2.5685
X6.1071Y-2.3681
X6.1071Y-2.4661
X6.1925Y-1.3169
X6.2331Y-1.3165
X6.2728Y-1.3173
X6.3122Y-1.3173
X6.5335Y-2.1457
X6.5768Y-1.8874
X6.5972Y-1.5146
X6.6413Y-1.7701
X6.8507Y-2.6126
X6.987Y-1.822
X6.987Y-1.9177
X6.9874Y-2.0409
X6.9933Y-1.7772
X7.0299Y-2.1315
X7.0776Y-2.613
X7.1437Y-2.9366
X7.1689Y-2.2098
X7.1728Y-2.1295
X7.2209Y-1.4661
X7.2421Y-2.9366
X7.2425Y-3.1244
X7.4382Y-1.3386
X7.5339Y-1.9988
X7.5343Y-2.0443
X7.5366Y-1.8138
X7.5969Y-2.9315
X7.598Y-3.1087
X7.6976Y-2.9331
X7.722Y-2.0571
X7.722Y-2.1622
X7.722Y-2.8185
X7.8583Y-2.7657
X7.9039Y-2.6142
X7.9563Y-2.2551
T2
X6.3504Y-2.2677
X6.3504Y-2.3677
X6.3504Y-2.4677
X6.3504Y-2.5677
X6.3504Y-2.6677
X6.3504Y-2.7677
X6.3504Y-2.8677
X6.3504Y-2.9677
X6.6504Y-2.2677
X6.6504Y-2.3677
X6.6504Y-2.4677
X6.6504Y-2.5677
X6.6504Y-2.6677
X6.6504Y-2.7677
X6.6504Y-2.8677
X6.6504Y-2.9677
T3
X5.7087Y-1.2205
X5.7087Y-1.3205
X5.7087Y-2.1654
X5.7087Y-2.2654
X5.7087Y-2.3654
X5.7087Y-2.4654
X5.7087Y-2.5654
X5.7087Y-2.6654
X5.7087Y-2.7654
X5.7087Y-2.8654
X5.7087Y-2.9654
X5.8087Y-2.1654
X5.8087Y-2.2654
X5.8087Y-2.3654
X5.8087Y-2.4654
X5.8087Y-2.5654
X5.8087Y-2.6654
X5.8087Y-2.7654
X5.8087Y-2.8654
X5.8087Y-2.9654
X8.0709Y-1.2205
X8.0709Y-1.3205
X8.0709Y-1.4205
X8.0709Y-1.5205
X8.0709Y-1.6205
X8.0709Y-1.7205
X8.0709Y-1.8205
X8.0709Y-1.9205
X8.0709Y-2.0205
X8.0709Y-2.1205
T4
X6.8507Y-0.9336
X6.8507Y-1.0336
X6.8507Y-1.1336
X6.8507Y-1.2336
X6.8507Y-1.3336
X6.8507Y-1.4336
X6.8507Y-1.5336
X6.8507Y-1.6336
X6.8507Y-1.7336
X6.8507Y-1.8336
X6.8507Y-1.9336
X6.8507Y-2.0336
X6.8507Y-2.1336
X6.8507Y-2.2336
X6.8507Y-2.3336
X7.8507Y-0.9336
X7.8507Y-1.0336
X7.8507Y-1.1336
X7.8507Y-1.2336
X7.8507Y-1.3336
X7.8507Y-1.4336
X7.8507Y-1.5336
X7.8507Y-1.6336
X7.8507Y-1.7336
X7.8507Y-1.8336
X7.8507Y-1.9336
X7.8507Y-2.0336
X7.8507Y-2.1336
X7.8507Y-2.2336
X7.8507Y-2.3336
T5
X6.9429Y-3.3157
X7.0429Y-3.3157
X7.1429Y-3.3157
X7.2429Y-3.3157
X7.3961Y-3.313
X7.4961Y-3.313
X7.5961Y-3.313
X7.6961Y-3.313
X8.0878Y-2.8319
X8.0878Y-2.9319
X8.0878Y-3.0319
X8.0878Y-3.1319
X8.0886Y-2.385
X8.0886Y-2.485
X8.0886Y-2.585
X8.0886Y-2.685
T6
X5.7087Y-0.9843
X5.7087Y-3.3465
X8.0709Y-0.9843
X8.0709Y-3.3465
M30
