%TF.GenerationSoftware,KiCad,Pcbnew,8.0.0-8.0.0-1~ubuntu20.04.1*%
%TF.CreationDate,2024-06-18T17:36:17-06:00*%
%TF.ProjectId,BioReactify,42696f52-6561-4637-9469-66792e6b6963,rev?*%
%TF.SameCoordinates,Original*%
%TF.FileFunction,Copper,L4,Bot*%
%TF.FilePolarity,Positive*%
%FSLAX46Y46*%
G04 Gerber Fmt 4.6, Leading zero omitted, Abs format (unit mm)*
G04 Created by KiCad (PCBNEW 8.0.0-8.0.0-1~ubuntu20.04.1) date 2024-06-18 17:36:17*
%MOMM*%
%LPD*%
G01*
G04 APERTURE LIST*
G04 Aperture macros list*
%AMRoundRect*
0 Rectangle with rounded corners*
0 $1 Rounding radius*
0 $2 $3 $4 $5 $6 $7 $8 $9 X,Y pos of 4 corners*
0 Add a 4 corners polygon primitive as box body*
4,1,4,$2,$3,$4,$5,$6,$7,$8,$9,$2,$3,0*
0 Add four circle primitives for the rounded corners*
1,1,$1+$1,$2,$3*
1,1,$1+$1,$4,$5*
1,1,$1+$1,$6,$7*
1,1,$1+$1,$8,$9*
0 Add four rect primitives between the rounded corners*
20,1,$1+$1,$2,$3,$4,$5,0*
20,1,$1+$1,$4,$5,$6,$7,0*
20,1,$1+$1,$6,$7,$8,$9,0*
20,1,$1+$1,$8,$9,$2,$3,0*%
G04 Aperture macros list end*
%TA.AperFunction,ComponentPad*%
%ADD10RoundRect,0.250000X-0.845000X0.620000X-0.845000X-0.620000X0.845000X-0.620000X0.845000X0.620000X0*%
%TD*%
%TA.AperFunction,ComponentPad*%
%ADD11O,2.190000X1.740000*%
%TD*%
%TA.AperFunction,ComponentPad*%
%ADD12R,2.000000X2.000000*%
%TD*%
%TA.AperFunction,ComponentPad*%
%ADD13C,2.000000*%
%TD*%
%TA.AperFunction,ComponentPad*%
%ADD14RoundRect,0.250000X0.620000X0.845000X-0.620000X0.845000X-0.620000X-0.845000X0.620000X-0.845000X0*%
%TD*%
%TA.AperFunction,ComponentPad*%
%ADD15O,1.740000X2.190000*%
%TD*%
%TA.AperFunction,ComponentPad*%
%ADD16C,3.600000*%
%TD*%
%TA.AperFunction,ConnectorPad*%
%ADD17C,5.600000*%
%TD*%
%TA.AperFunction,ComponentPad*%
%ADD18R,1.600000X1.600000*%
%TD*%
%TA.AperFunction,ComponentPad*%
%ADD19O,1.600000X1.600000*%
%TD*%
%TA.AperFunction,SMDPad,CuDef*%
%ADD20R,0.700000X1.600000*%
%TD*%
%TA.AperFunction,SMDPad,CuDef*%
%ADD21R,1.200000X1.800000*%
%TD*%
%TA.AperFunction,SMDPad,CuDef*%
%ADD22R,1.200000X2.200000*%
%TD*%
%TA.AperFunction,SMDPad,CuDef*%
%ADD23R,1.600000X1.500000*%
%TD*%
%TA.AperFunction,ComponentPad*%
%ADD24R,1.700000X1.700000*%
%TD*%
%TA.AperFunction,ComponentPad*%
%ADD25O,1.700000X1.700000*%
%TD*%
%TA.AperFunction,ViaPad*%
%ADD26C,0.600000*%
%TD*%
%TA.AperFunction,Conductor*%
%ADD27C,0.500000*%
%TD*%
%TA.AperFunction,Conductor*%
%ADD28C,1.000000*%
%TD*%
%TA.AperFunction,Conductor*%
%ADD29C,0.250000*%
%TD*%
%TA.AperFunction,Conductor*%
%ADD30C,0.300000*%
%TD*%
G04 APERTURE END LIST*
D10*
%TO.P,I2C0,1,Pin_1*%
%TO.N,/I2C/SD0*%
X205450000Y-60580000D03*
D11*
%TO.P,I2C0,2,Pin_2*%
%TO.N,/I2C/SC0*%
X205450000Y-63120000D03*
%TO.P,I2C0,3,Pin_3*%
%TO.N,GND*%
X205450000Y-65660000D03*
%TO.P,I2C0,4,Pin_4*%
%TO.N,VDD*%
X205450000Y-68200000D03*
%TD*%
D12*
%TO.P,U1,1,3V3*%
%TO.N,VDD*%
X174007500Y-23714250D03*
D13*
%TO.P,U1,2,GND*%
%TO.N,GND*%
X174007500Y-26254250D03*
%TO.P,U1,3,D15*%
%TO.N,/CS1*%
X174007500Y-28794250D03*
%TO.P,U1,4,D2*%
%TO.N,/D2*%
X174007500Y-31334250D03*
%TO.P,U1,5,D4*%
%TO.N,/D4*%
X174007500Y-33874250D03*
%TO.P,U1,6,RX2*%
%TO.N,/RS485/RX2*%
X174007500Y-36414250D03*
%TO.P,U1,7,TX2*%
%TO.N,/RS485/TX2*%
X174007500Y-38954250D03*
%TO.P,U1,8,D5*%
%TO.N,/SCLK*%
X174007500Y-41494250D03*
%TO.P,U1,9,D18*%
%TO.N,/MISO*%
X174007500Y-44034250D03*
%TO.P,U1,10,D19*%
%TO.N,/MOSI*%
X174007500Y-46574250D03*
%TO.P,U1,11,D21*%
%TO.N,/SDA*%
X174007500Y-49114250D03*
%TO.P,U1,12,RX0*%
%TO.N,unconnected-(U1-RX0-Pad12)*%
X174007500Y-51654250D03*
%TO.P,U1,13,TX0*%
%TO.N,unconnected-(U1-TX0-Pad13)*%
X174007500Y-54194250D03*
%TO.P,U1,14,D22*%
%TO.N,/SCL*%
X174007500Y-56734250D03*
%TO.P,U1,15,D23*%
%TO.N,/CS*%
X174007500Y-59274250D03*
%TO.P,U1,16,EN*%
%TO.N,unconnected-(U1-EN-Pad16)*%
X199407500Y-59274250D03*
%TO.P,U1,17,VP*%
%TO.N,unconnected-(U1-VP-Pad17)*%
X199407500Y-56734250D03*
%TO.P,U1,18,VN*%
%TO.N,unconnected-(U1-VN-Pad18)*%
X199407500Y-54194250D03*
%TO.P,U1,19,D34*%
%TO.N,/D4*%
X199407500Y-51654250D03*
%TO.P,U1,20,D35*%
%TO.N,/D2*%
X199407500Y-49114250D03*
%TO.P,U1,21,D32*%
%TO.N,Net-(J2-Pin_3)*%
X199407500Y-46574250D03*
%TO.P,U1,22,D33*%
%TO.N,Net-(J2-Pin_4)*%
X199407500Y-44034250D03*
%TO.P,U1,23,D25*%
%TO.N,/DAC1*%
X199407500Y-41494250D03*
%TO.P,U1,24,D26*%
%TO.N,/DAC2*%
X199407500Y-38954250D03*
%TO.P,U1,25,D27*%
%TO.N,Net-(J2-Pin_7)*%
X199407500Y-36414250D03*
%TO.P,U1,26,D14*%
%TO.N,Net-(J2-Pin_8)*%
X199407500Y-33874250D03*
%TO.P,U1,27,D12*%
%TO.N,Net-(J2-Pin_9)*%
X199407500Y-31334250D03*
%TO.P,U1,28,D13*%
%TO.N,Net-(J2-Pin_10)*%
X199407500Y-28794250D03*
%TO.P,U1,29,GND*%
%TO.N,GND*%
X199407500Y-26254250D03*
%TO.P,U1,30,VIN*%
%TO.N,unconnected-(U1-VIN-Pad30)*%
X199407500Y-23714250D03*
%TD*%
D14*
%TO.P,I2C2,1,Pin_1*%
%TO.N,/I2C/SD2*%
X195480000Y-84150000D03*
D15*
%TO.P,I2C2,2,Pin_2*%
%TO.N,/I2C/SC2*%
X192940000Y-84150000D03*
%TO.P,I2C2,3,Pin_3*%
%TO.N,GND*%
X190400000Y-84150000D03*
%TO.P,I2C2,4,Pin_4*%
%TO.N,VDD*%
X187860000Y-84150000D03*
%TD*%
D16*
%TO.P,H3,1,1*%
%TO.N,GND*%
X145000000Y-25000000D03*
D17*
X145000000Y-25000000D03*
%TD*%
D16*
%TO.P,H4,1,1*%
%TO.N,GND*%
X145000000Y-85000000D03*
D17*
X145000000Y-85000000D03*
%TD*%
D18*
%TO.P,U4,1,CH0*%
%TO.N,/ADC/CH0*%
X161300000Y-57600000D03*
D19*
%TO.P,U4,2,CH1*%
%TO.N,/ADC/CH1*%
X161300000Y-60140000D03*
%TO.P,U4,3,CH2*%
%TO.N,/ADC/CH2*%
X161300000Y-62680000D03*
%TO.P,U4,4,CH3*%
%TO.N,/ADC/CH3*%
X161300000Y-65220000D03*
%TO.P,U4,5,CH4*%
%TO.N,/ADC/CH4*%
X161300000Y-67760000D03*
%TO.P,U4,6,CH5*%
%TO.N,/ADC/CH5*%
X161300000Y-70300000D03*
%TO.P,U4,7,CH6*%
%TO.N,/ADC/CH6*%
X161300000Y-72840000D03*
%TO.P,U4,8,CH7*%
%TO.N,/ADC/CH7*%
X161300000Y-75380000D03*
%TO.P,U4,9,DGND*%
%TO.N,GND*%
X168920000Y-75380000D03*
%TO.P,U4,10,~{CS}/SHDN*%
%TO.N,/CS*%
X168920000Y-72840000D03*
%TO.P,U4,11,Din*%
%TO.N,/MOSI*%
X168920000Y-70300000D03*
%TO.P,U4,12,Dout*%
%TO.N,/MISO*%
X168920000Y-67760000D03*
%TO.P,U4,13,CLK*%
%TO.N,/SCLK*%
X168920000Y-65220000D03*
%TO.P,U4,14,AGND*%
%TO.N,GND*%
X168920000Y-62680000D03*
%TO.P,U4,15,Vref*%
%TO.N,+3.3VADC*%
X168920000Y-60140000D03*
%TO.P,U4,16,Vdd*%
X168920000Y-57600000D03*
%TD*%
D16*
%TO.P,H2,1,1*%
%TO.N,GND*%
X205000000Y-85000000D03*
D17*
X205000000Y-85000000D03*
%TD*%
D16*
%TO.P,H1,1,1*%
%TO.N,GND*%
X205000000Y-25000000D03*
D17*
X205000000Y-25000000D03*
%TD*%
D10*
%TO.P,I2C1,1,Pin_1*%
%TO.N,/I2C/SD1*%
X205430000Y-71930000D03*
D11*
%TO.P,I2C1,2,Pin_2*%
%TO.N,/I2C/SC1*%
X205430000Y-74470000D03*
%TO.P,I2C1,3,Pin_3*%
%TO.N,GND*%
X205430000Y-77010000D03*
%TO.P,I2C1,4,Pin_4*%
%TO.N,VDD*%
X205430000Y-79550000D03*
%TD*%
D14*
%TO.P,I2C3,1,Pin_1*%
%TO.N,/I2C/SD3*%
X183970000Y-84220000D03*
D15*
%TO.P,I2C3,2,Pin_2*%
%TO.N,/I2C/SC3*%
X181430000Y-84220000D03*
%TO.P,I2C3,3,Pin_3*%
%TO.N,GND*%
X178890000Y-84220000D03*
%TO.P,I2C3,4,Pin_4*%
%TO.N,VDD*%
X176350000Y-84220000D03*
%TD*%
D20*
%TO.P,J3,1,DAT2*%
%TO.N,unconnected-(J3-DAT2-Pad1)*%
X190019900Y-35380000D03*
%TO.P,J3,2,DAT3/CD*%
%TO.N,/CS1*%
X188919900Y-35380000D03*
%TO.P,J3,3,CMD*%
%TO.N,/MOSI*%
X187820000Y-35380000D03*
%TO.P,J3,4,VDD*%
%TO.N,VDD*%
X186720000Y-35380000D03*
%TO.P,J3,5,CLK*%
%TO.N,/SCLK*%
X185619900Y-35380000D03*
%TO.P,J3,6,VSS*%
%TO.N,GND*%
X184520100Y-35380000D03*
%TO.P,J3,7,DAT0*%
%TO.N,/MISO*%
X183420000Y-35380000D03*
%TO.P,J3,8,DAT1*%
%TO.N,unconnected-(J3-DAT1-Pad8)*%
X182319900Y-35380000D03*
%TO.P,J3,9,SHIELD*%
%TO.N,unconnected-(J3-SHIELD-Pad9)*%
X181219800Y-35380000D03*
D21*
%TO.P,J3,10*%
%TO.N,N/C*%
X180020000Y-34080000D03*
D22*
%TO.P,J3,11*%
X180020000Y-24780000D03*
%TO.P,J3,12*%
X195520000Y-24780000D03*
D23*
%TO.P,J3,13*%
X194619900Y-34329900D03*
%TD*%
D24*
%TO.P,J4,1,Pin_1*%
%TO.N,VDD*%
X145000000Y-31000000D03*
D25*
%TO.P,J4,2,Pin_2*%
%TO.N,GND*%
X145000000Y-33540000D03*
%TD*%
D24*
%TO.P,J1,1,Pin_1*%
%TO.N,+3.3VADC*%
X147540000Y-55000000D03*
D25*
%TO.P,J1,2,Pin_2*%
%TO.N,GND*%
X145000000Y-55000000D03*
%TO.P,J1,3,Pin_3*%
X147540000Y-57540000D03*
%TO.P,J1,4,Pin_4*%
%TO.N,/ADC/INCH0*%
X145000000Y-57540000D03*
%TO.P,J1,5,Pin_5*%
%TO.N,/ADC/INCH1*%
X147540000Y-60080000D03*
%TO.P,J1,6,Pin_6*%
%TO.N,GND*%
X145000000Y-60080000D03*
%TO.P,J1,7,Pin_7*%
X147540000Y-62620000D03*
%TO.P,J1,8,Pin_8*%
%TO.N,/ADC/INCH2*%
X145000000Y-62620000D03*
%TO.P,J1,9,Pin_9*%
%TO.N,/ADC/INCH3*%
X147540000Y-65160000D03*
%TO.P,J1,10,Pin_10*%
%TO.N,GND*%
X145000000Y-65160000D03*
%TO.P,J1,11,Pin_11*%
X147540000Y-67700000D03*
%TO.P,J1,12,Pin_12*%
%TO.N,/ADC/INCH4*%
X145000000Y-67700000D03*
%TO.P,J1,13,Pin_13*%
%TO.N,/ADC/INCH5*%
X147540000Y-70240000D03*
%TO.P,J1,14,Pin_14*%
%TO.N,GND*%
X145000000Y-70240000D03*
%TO.P,J1,15,Pin_15*%
X147540000Y-72780000D03*
%TO.P,J1,16,Pin_16*%
%TO.N,/ADC/INCH6*%
X145000000Y-72780000D03*
%TO.P,J1,17,Pin_17*%
%TO.N,/ADC/INCH7*%
X147540000Y-75320000D03*
%TO.P,J1,18,Pin_18*%
%TO.N,GND*%
X145000000Y-75320000D03*
%TD*%
D24*
%TO.P,J2,1,Pin_1*%
%TO.N,/D4*%
X205000000Y-53860000D03*
D25*
%TO.P,J2,2,Pin_2*%
%TO.N,/D2*%
X205000000Y-51320000D03*
%TO.P,J2,3,Pin_3*%
%TO.N,Net-(J2-Pin_3)*%
X205000000Y-48780000D03*
%TO.P,J2,4,Pin_4*%
%TO.N,Net-(J2-Pin_4)*%
X205000000Y-46240000D03*
%TO.P,J2,5,Pin_5*%
%TO.N,/DAC1*%
X205000000Y-43700000D03*
%TO.P,J2,6,Pin_6*%
%TO.N,/DAC2*%
X205000000Y-41160000D03*
%TO.P,J2,7,Pin_7*%
%TO.N,Net-(J2-Pin_7)*%
X205000000Y-38620000D03*
%TO.P,J2,8,Pin_8*%
%TO.N,Net-(J2-Pin_8)*%
X205000000Y-36080000D03*
%TO.P,J2,9,Pin_9*%
%TO.N,Net-(J2-Pin_9)*%
X205000000Y-33540000D03*
%TO.P,J2,10,Pin_10*%
%TO.N,Net-(J2-Pin_10)*%
X205000000Y-31000000D03*
%TD*%
D26*
%TO.N,GND*%
X165950000Y-54500000D03*
X155100000Y-72840000D03*
X155110000Y-65240000D03*
X191360000Y-50770000D03*
X157290000Y-33450000D03*
X167570000Y-38470000D03*
X155090000Y-75340000D03*
X167050000Y-47940000D03*
X160330000Y-33460000D03*
X155120000Y-62640000D03*
X182090000Y-56130000D03*
X155120000Y-60150000D03*
X159330000Y-33460000D03*
X155100000Y-70290000D03*
X191430000Y-46070000D03*
X191370000Y-51925000D03*
X155010000Y-57600000D03*
X158320000Y-33440000D03*
X155100000Y-67790000D03*
%TO.N,VDD*%
X196140000Y-54920000D03*
X178560000Y-54140000D03*
X179770000Y-66370000D03*
X177480000Y-51840000D03*
X181450000Y-74590000D03*
X177630000Y-45140000D03*
X168690000Y-44960000D03*
X182190000Y-54090000D03*
X202090000Y-57280000D03*
X192960000Y-74460000D03*
X195520000Y-74500000D03*
X196140000Y-52250000D03*
X177470000Y-46280000D03*
X183950000Y-74590000D03*
X177470000Y-48710000D03*
X196140000Y-71590000D03*
X200760000Y-66400000D03*
%TO.N,/I2C/SD1*%
X199600000Y-70250000D03*
%TO.N,/I2C/SC2*%
X192990000Y-78960000D03*
%TO.N,/I2C/SD3*%
X183960000Y-79360000D03*
%TO.N,/MISO*%
X183410000Y-37240000D03*
%TO.N,/CS*%
X174007500Y-66360000D03*
%TO.N,/CS1*%
X188930000Y-34000000D03*
%TD*%
D27*
%TO.N,GND*%
X184520100Y-35380000D02*
X184520100Y-34080000D01*
X184520100Y-34080000D02*
X176694350Y-26254250D01*
X176694350Y-26254250D02*
X174007500Y-26254250D01*
D28*
%TO.N,VDD*%
X169950000Y-25200000D02*
X169950000Y-29600000D01*
X200400000Y-66040000D02*
X202560000Y-68200000D01*
X180265000Y-66865000D02*
X179770000Y-66370000D01*
X178560000Y-55020000D02*
X178560000Y-52920000D01*
D27*
X186720000Y-34426750D02*
X186720000Y-35380000D01*
D28*
X174007500Y-23714250D02*
X171435750Y-23714250D01*
X181260000Y-55020000D02*
X182190000Y-54090000D01*
X178560000Y-55020000D02*
X178560000Y-54140000D01*
X196140000Y-61780000D02*
X196140000Y-61770000D01*
X196140000Y-73880000D02*
X195520000Y-74500000D01*
D27*
X184556625Y-32263375D02*
X186720000Y-34426750D01*
D28*
X178560000Y-55020000D02*
X181260000Y-55020000D01*
X202560000Y-68200000D02*
X205450000Y-68200000D01*
X171435750Y-23714250D02*
X169950000Y-25200000D01*
X169950000Y-29600000D02*
X168550000Y-31000000D01*
X178560000Y-52920000D02*
X177835000Y-52195000D01*
X202090000Y-64350000D02*
X202090000Y-57280000D01*
X196140000Y-54920000D02*
X196140000Y-61770000D01*
X168550000Y-31000000D02*
X167170000Y-31000000D01*
X191200000Y-75100000D02*
X187860000Y-78440000D01*
X184653250Y-32360000D02*
X189549900Y-32360000D01*
X191200000Y-74590000D02*
X182270000Y-74590000D01*
X196140000Y-73200000D02*
X196140000Y-73880000D01*
X168690000Y-32520000D02*
X168690000Y-44960000D01*
X182270000Y-74590000D02*
X181450000Y-74590000D01*
X196140000Y-73880000D02*
X195430000Y-74590000D01*
X202490000Y-79550000D02*
X205430000Y-79550000D01*
X167170000Y-31000000D02*
X145000000Y-31000000D01*
X177835000Y-52195000D02*
X177470000Y-51830000D01*
X196140000Y-61770000D02*
X196140000Y-71020000D01*
X200400000Y-66040000D02*
X202090000Y-64350000D01*
X182270000Y-74590000D02*
X182270000Y-68870000D01*
X180265000Y-66865000D02*
X178560000Y-65160000D01*
X189549900Y-32360000D02*
X196140000Y-38950100D01*
X184556625Y-32263375D02*
X184653250Y-32360000D01*
X200400000Y-66040000D02*
X196140000Y-61780000D01*
X176350000Y-79250000D02*
X176350000Y-84220000D01*
X184556625Y-32263375D02*
X176007500Y-23714250D01*
X196140000Y-73200000D02*
X202490000Y-79550000D01*
X196140000Y-71020000D02*
X196140000Y-71590000D01*
X177470000Y-51830000D02*
X177470000Y-45300000D01*
X187860000Y-78440000D02*
X187860000Y-84150000D01*
X177835000Y-52195000D02*
X177480000Y-51840000D01*
X167170000Y-31000000D02*
X168690000Y-32520000D01*
X176007500Y-23714250D02*
X174007500Y-23714250D01*
X181010000Y-74590000D02*
X176350000Y-79250000D01*
X196140000Y-38950100D02*
X196140000Y-52250000D01*
X178560000Y-65160000D02*
X178560000Y-55020000D01*
X191200000Y-74590000D02*
X191200000Y-75100000D01*
X196140000Y-52250000D02*
X196140000Y-54920000D01*
X182270000Y-68870000D02*
X180265000Y-66865000D01*
X196140000Y-71020000D02*
X196140000Y-73200000D01*
X177470000Y-45300000D02*
X177630000Y-45140000D01*
X181450000Y-74590000D02*
X181010000Y-74590000D01*
X200400000Y-66040000D02*
X200760000Y-66400000D01*
X195430000Y-74590000D02*
X191200000Y-74590000D01*
D29*
%TO.N,/I2C/SD1*%
X205430000Y-71930000D02*
X201280000Y-71930000D01*
X201280000Y-71930000D02*
X199600000Y-70250000D01*
%TO.N,/I2C/SC2*%
X192940000Y-84150000D02*
X192940000Y-79010000D01*
X192940000Y-79010000D02*
X192990000Y-78960000D01*
%TO.N,/I2C/SD3*%
X183970000Y-79370000D02*
X183960000Y-79360000D01*
X183970000Y-84220000D02*
X183970000Y-79370000D01*
D30*
%TO.N,/MOSI*%
X174007500Y-46574250D02*
X172100000Y-48481750D01*
X174007500Y-46574250D02*
X177951750Y-42630000D01*
X172100000Y-48481750D02*
X172100000Y-67120000D01*
X177951750Y-42630000D02*
X181670000Y-42630000D01*
X187820000Y-36480000D02*
X187820000Y-35380000D01*
X181670000Y-42630000D02*
X187820000Y-36480000D01*
X172100000Y-67120000D02*
X168920000Y-70300000D01*
%TO.N,/MISO*%
X174007500Y-44034250D02*
X171200000Y-46841750D01*
X183420000Y-37230000D02*
X183410000Y-37240000D01*
X171200000Y-65480000D02*
X168920000Y-67760000D01*
X183420000Y-35380000D02*
X183420000Y-37230000D01*
X171200000Y-46841750D02*
X171200000Y-65480000D01*
%TO.N,/CS*%
X174007500Y-67752500D02*
X168920000Y-72840000D01*
X174007500Y-59274250D02*
X174007500Y-66360000D01*
X174007500Y-66360000D02*
X174007500Y-67752500D01*
%TO.N,/SCLK*%
X170300000Y-45201750D02*
X170300000Y-63840000D01*
X174007500Y-41494250D02*
X170300000Y-45201750D01*
X185619900Y-36480000D02*
X185619900Y-35380000D01*
X180605650Y-41494250D02*
X185619900Y-36480000D01*
X174007500Y-41494250D02*
X180605650Y-41494250D01*
X170300000Y-63840000D02*
X168920000Y-65220000D01*
%TO.N,/CS1*%
X188930000Y-35369900D02*
X188919900Y-35380000D01*
X188930000Y-34000000D02*
X188930000Y-35369900D01*
%TD*%
M02*
