%TF.GenerationSoftware,KiCad,Pcbnew,8.0.0-8.0.0-1~ubuntu20.04.1*%
%TF.CreationDate,2024-06-18T17:36:17-06:00*%
%TF.ProjectId,BioReactify,42696f52-6561-4637-9469-66792e6b6963,rev?*%
%TF.SameCoordinates,Original*%
%TF.FileFunction,Soldermask,Bot*%
%TF.FilePolarity,Negative*%
%FSLAX46Y46*%
G04 Gerber Fmt 4.6, Leading zero omitted, Abs format (unit mm)*
G04 Created by KiCad (PCBNEW 8.0.0-8.0.0-1~ubuntu20.04.1) date 2024-06-18 17:36:17*
%MOMM*%
%LPD*%
G01*
G04 APERTURE LIST*
G04 Aperture macros list*
%AMRoundRect*
0 Rectangle with rounded corners*
0 $1 Rounding radius*
0 $2 $3 $4 $5 $6 $7 $8 $9 X,Y pos of 4 corners*
0 Add a 4 corners polygon primitive as box body*
4,1,4,$2,$3,$4,$5,$6,$7,$8,$9,$2,$3,0*
0 Add four circle primitives for the rounded corners*
1,1,$1+$1,$2,$3*
1,1,$1+$1,$4,$5*
1,1,$1+$1,$6,$7*
1,1,$1+$1,$8,$9*
0 Add four rect primitives between the rounded corners*
20,1,$1+$1,$2,$3,$4,$5,0*
20,1,$1+$1,$4,$5,$6,$7,0*
20,1,$1+$1,$6,$7,$8,$9,0*
20,1,$1+$1,$8,$9,$2,$3,0*%
G04 Aperture macros list end*
%ADD10C,3.300000*%
%ADD11RoundRect,0.250000X-0.845000X0.620000X-0.845000X-0.620000X0.845000X-0.620000X0.845000X0.620000X0*%
%ADD12O,2.190000X1.740000*%
%ADD13RoundRect,0.102000X-1.000000X-1.000000X1.000000X-1.000000X1.000000X1.000000X-1.000000X1.000000X0*%
%ADD14C,2.204000*%
%ADD15RoundRect,0.250000X0.620000X0.845000X-0.620000X0.845000X-0.620000X-0.845000X0.620000X-0.845000X0*%
%ADD16O,1.740000X2.190000*%
%ADD17C,3.600000*%
%ADD18C,5.600000*%
%ADD19R,1.600000X1.600000*%
%ADD20O,1.600000X1.600000*%
%ADD21C,1.200000*%
%ADD22RoundRect,0.050800X-0.350000X-0.800000X0.350000X-0.800000X0.350000X0.800000X-0.350000X0.800000X0*%
%ADD23RoundRect,0.050800X-0.600000X-0.900000X0.600000X-0.900000X0.600000X0.900000X-0.600000X0.900000X0*%
%ADD24RoundRect,0.050800X-0.600000X-1.100000X0.600000X-1.100000X0.600000X1.100000X-0.600000X1.100000X0*%
%ADD25RoundRect,0.050800X-0.800000X-0.750000X0.800000X-0.750000X0.800000X0.750000X-0.800000X0.750000X0*%
%ADD26R,1.700000X1.700000*%
%ADD27O,1.700000X1.700000*%
G04 APERTURE END LIST*
D10*
%TO.C,IC1*%
X165159900Y-25710950D03*
X152459900Y-25710950D03*
%TD*%
D11*
%TO.C,I2C0*%
X205450000Y-60580000D03*
D12*
X205450000Y-63120000D03*
X205450000Y-65660000D03*
X205450000Y-68200000D03*
%TD*%
D13*
%TO.C,U1*%
X174007500Y-23714250D03*
D14*
X174007500Y-26254250D03*
X174007500Y-28794250D03*
X174007500Y-31334250D03*
X174007500Y-33874250D03*
X174007500Y-36414250D03*
X174007500Y-38954250D03*
X174007500Y-41494250D03*
X174007500Y-44034250D03*
X174007500Y-46574250D03*
X174007500Y-49114250D03*
X174007500Y-51654250D03*
X174007500Y-54194250D03*
X174007500Y-56734250D03*
X174007500Y-59274250D03*
X199407500Y-59274250D03*
X199407500Y-56734250D03*
X199407500Y-54194250D03*
X199407500Y-51654250D03*
X199407500Y-49114250D03*
X199407500Y-46574250D03*
X199407500Y-44034250D03*
X199407500Y-41494250D03*
X199407500Y-38954250D03*
X199407500Y-36414250D03*
X199407500Y-33874250D03*
X199407500Y-31334250D03*
X199407500Y-28794250D03*
X199407500Y-26254250D03*
X199407500Y-23714250D03*
%TD*%
D15*
%TO.C,I2C2*%
X195480000Y-84150000D03*
D16*
X192940000Y-84150000D03*
X190400000Y-84150000D03*
X187860000Y-84150000D03*
%TD*%
D17*
%TO.C,H3*%
X145000000Y-25000000D03*
D18*
X145000000Y-25000000D03*
%TD*%
D17*
%TO.C,H4*%
X145000000Y-85000000D03*
D18*
X145000000Y-85000000D03*
%TD*%
D19*
%TO.C,U4*%
X161300000Y-57600000D03*
D20*
X161300000Y-60140000D03*
X161300000Y-62680000D03*
X161300000Y-65220000D03*
X161300000Y-67760000D03*
X161300000Y-70300000D03*
X161300000Y-72840000D03*
X161300000Y-75380000D03*
X168920000Y-75380000D03*
X168920000Y-72840000D03*
X168920000Y-70300000D03*
X168920000Y-67760000D03*
X168920000Y-65220000D03*
X168920000Y-62680000D03*
X168920000Y-60140000D03*
X168920000Y-57600000D03*
%TD*%
D17*
%TO.C,H2*%
X205000000Y-85000000D03*
D18*
X205000000Y-85000000D03*
%TD*%
D17*
%TO.C,H1*%
X205000000Y-25000000D03*
D18*
X205000000Y-25000000D03*
%TD*%
D11*
%TO.C,I2C1*%
X205430000Y-71930000D03*
D12*
X205430000Y-74470000D03*
X205430000Y-77010000D03*
X205430000Y-79550000D03*
%TD*%
D15*
%TO.C,I2C3*%
X183970000Y-84220000D03*
D16*
X181430000Y-84220000D03*
X178890000Y-84220000D03*
X176350000Y-84220000D03*
%TD*%
D21*
%TO.C,J3*%
X182820000Y-24380000D03*
X190820000Y-24380000D03*
D22*
X190019900Y-35380000D03*
X188919900Y-35380000D03*
X187820000Y-35380000D03*
X186720000Y-35380000D03*
X185619900Y-35380000D03*
X184520100Y-35380000D03*
X183420000Y-35380000D03*
X182319900Y-35380000D03*
X181219800Y-35380000D03*
D23*
X180020000Y-34080000D03*
D24*
X180020000Y-24780000D03*
X195520000Y-24780000D03*
D25*
X194619900Y-34329900D03*
%TD*%
D26*
%TO.C,J4*%
X145000000Y-31000000D03*
D27*
X145000000Y-33540000D03*
%TD*%
D26*
%TO.C,J1*%
X147540000Y-55000000D03*
D27*
X145000000Y-55000000D03*
X147540000Y-57540000D03*
X145000000Y-57540000D03*
X147540000Y-60080000D03*
X145000000Y-60080000D03*
X147540000Y-62620000D03*
X145000000Y-62620000D03*
X147540000Y-65160000D03*
X145000000Y-65160000D03*
X147540000Y-67700000D03*
X145000000Y-67700000D03*
X147540000Y-70240000D03*
X145000000Y-70240000D03*
X147540000Y-72780000D03*
X145000000Y-72780000D03*
X147540000Y-75320000D03*
X145000000Y-75320000D03*
%TD*%
D26*
%TO.C,J2*%
X205000000Y-53860000D03*
D27*
X205000000Y-51320000D03*
X205000000Y-48780000D03*
X205000000Y-46240000D03*
X205000000Y-43700000D03*
X205000000Y-41160000D03*
X205000000Y-38620000D03*
X205000000Y-36080000D03*
X205000000Y-33540000D03*
X205000000Y-31000000D03*
%TD*%
M02*
