%TF.GenerationSoftware,KiCad,Pcbnew,8.0.0-8.0.0-1~ubuntu20.04.1*%
%TF.CreationDate,2024-06-18T17:36:17-06:00*%
%TF.ProjectId,BioReactify,42696f52-6561-4637-9469-66792e6b6963,rev?*%
%TF.SameCoordinates,Original*%
%TF.FileFunction,Copper,L1,Top*%
%TF.FilePolarity,Positive*%
%FSLAX46Y46*%
G04 Gerber Fmt 4.6, Leading zero omitted, Abs format (unit mm)*
G04 Created by KiCad (PCBNEW 8.0.0-8.0.0-1~ubuntu20.04.1) date 2024-06-18 17:36:17*
%MOMM*%
%LPD*%
G01*
G04 APERTURE LIST*
G04 Aperture macros list*
%AMRoundRect*
0 Rectangle with rounded corners*
0 $1 Rounding radius*
0 $2 $3 $4 $5 $6 $7 $8 $9 X,Y pos of 4 corners*
0 Add a 4 corners polygon primitive as box body*
4,1,4,$2,$3,$4,$5,$6,$7,$8,$9,$2,$3,0*
0 Add four circle primitives for the rounded corners*
1,1,$1+$1,$2,$3*
1,1,$1+$1,$4,$5*
1,1,$1+$1,$6,$7*
1,1,$1+$1,$8,$9*
0 Add four rect primitives between the rounded corners*
20,1,$1+$1,$2,$3,$4,$5,0*
20,1,$1+$1,$4,$5,$6,$7,0*
20,1,$1+$1,$6,$7,$8,$9,0*
20,1,$1+$1,$8,$9,$2,$3,0*%
G04 Aperture macros list end*
%TA.AperFunction,SMDPad,CuDef*%
%ADD10R,0.650000X3.050000*%
%TD*%
%TA.AperFunction,SMDPad,CuDef*%
%ADD11R,2.500000X3.890000*%
%TD*%
%TA.AperFunction,SMDPad,CuDef*%
%ADD12RoundRect,0.250000X0.250000X0.475000X-0.250000X0.475000X-0.250000X-0.475000X0.250000X-0.475000X0*%
%TD*%
%TA.AperFunction,SMDPad,CuDef*%
%ADD13RoundRect,0.250000X-0.350000X-0.450000X0.350000X-0.450000X0.350000X0.450000X-0.350000X0.450000X0*%
%TD*%
%TA.AperFunction,SMDPad,CuDef*%
%ADD14RoundRect,0.250000X0.350000X0.450000X-0.350000X0.450000X-0.350000X-0.450000X0.350000X-0.450000X0*%
%TD*%
%TA.AperFunction,SMDPad,CuDef*%
%ADD15RoundRect,0.250000X0.450000X-0.350000X0.450000X0.350000X-0.450000X0.350000X-0.450000X-0.350000X0*%
%TD*%
%TA.AperFunction,SMDPad,CuDef*%
%ADD16RoundRect,0.250000X-0.450000X0.350000X-0.450000X-0.350000X0.450000X-0.350000X0.450000X0.350000X0*%
%TD*%
%TA.AperFunction,SMDPad,CuDef*%
%ADD17RoundRect,0.250000X-0.475000X0.337500X-0.475000X-0.337500X0.475000X-0.337500X0.475000X0.337500X0*%
%TD*%
%TA.AperFunction,SMDPad,CuDef*%
%ADD18RoundRect,0.250000X-0.475000X0.250000X-0.475000X-0.250000X0.475000X-0.250000X0.475000X0.250000X0*%
%TD*%
%TA.AperFunction,ComponentPad*%
%ADD19RoundRect,0.250000X-0.845000X0.620000X-0.845000X-0.620000X0.845000X-0.620000X0.845000X0.620000X0*%
%TD*%
%TA.AperFunction,ComponentPad*%
%ADD20O,2.190000X1.740000*%
%TD*%
%TA.AperFunction,ComponentPad*%
%ADD21R,2.000000X2.000000*%
%TD*%
%TA.AperFunction,ComponentPad*%
%ADD22C,2.000000*%
%TD*%
%TA.AperFunction,SMDPad,CuDef*%
%ADD23RoundRect,0.150000X0.825000X0.150000X-0.825000X0.150000X-0.825000X-0.150000X0.825000X-0.150000X0*%
%TD*%
%TA.AperFunction,ComponentPad*%
%ADD24RoundRect,0.250000X0.620000X0.845000X-0.620000X0.845000X-0.620000X-0.845000X0.620000X-0.845000X0*%
%TD*%
%TA.AperFunction,ComponentPad*%
%ADD25O,1.740000X2.190000*%
%TD*%
%TA.AperFunction,ComponentPad*%
%ADD26C,3.600000*%
%TD*%
%TA.AperFunction,ConnectorPad*%
%ADD27C,5.600000*%
%TD*%
%TA.AperFunction,SMDPad,CuDef*%
%ADD28RoundRect,0.100000X0.637500X0.100000X-0.637500X0.100000X-0.637500X-0.100000X0.637500X-0.100000X0*%
%TD*%
%TA.AperFunction,ComponentPad*%
%ADD29R,1.600000X1.600000*%
%TD*%
%TA.AperFunction,ComponentPad*%
%ADD30O,1.600000X1.600000*%
%TD*%
%TA.AperFunction,SMDPad,CuDef*%
%ADD31RoundRect,0.250000X-0.625000X0.400000X-0.625000X-0.400000X0.625000X-0.400000X0.625000X0.400000X0*%
%TD*%
%TA.AperFunction,ComponentPad*%
%ADD32R,1.700000X1.700000*%
%TD*%
%TA.AperFunction,ComponentPad*%
%ADD33O,1.700000X1.700000*%
%TD*%
%TA.AperFunction,ViaPad*%
%ADD34C,0.600000*%
%TD*%
%TA.AperFunction,Conductor*%
%ADD35C,0.250000*%
%TD*%
%TA.AperFunction,Conductor*%
%ADD36C,0.300000*%
%TD*%
%TA.AperFunction,Conductor*%
%ADD37C,0.500000*%
%TD*%
%TA.AperFunction,Conductor*%
%ADD38C,1.000000*%
%TD*%
%TA.AperFunction,Conductor*%
%ADD39C,0.160000*%
%TD*%
%TA.AperFunction,Conductor*%
%ADD40C,0.200000*%
%TD*%
G04 APERTURE END LIST*
D10*
%TO.P,IC1,1,1*%
%TO.N,/RS485/RX_P*%
X155239900Y-35690950D03*
%TO.P,IC1,2,2*%
%TO.N,/RS485/RX_N*%
X156260000Y-35690950D03*
%TO.P,IC1,3,3*%
%TO.N,GND*%
X157279800Y-35690950D03*
%TO.P,IC1,4,4*%
X158299800Y-35690950D03*
%TO.P,IC1,5,5*%
X159319900Y-35690950D03*
%TO.P,IC1,6,6*%
X160340000Y-35690950D03*
%TO.P,IC1,7,7*%
%TO.N,/RS485/TX_N*%
X161359800Y-35690950D03*
%TO.P,IC1,8,8*%
%TO.N,/RS485/TX_P*%
X162379800Y-35690950D03*
D11*
%TO.P,IC1,9*%
%TO.N,N/C*%
X167470000Y-25710950D03*
%TO.P,IC1,10*%
X150150000Y-25710950D03*
%TD*%
D12*
%TO.P,C10,1*%
%TO.N,/ADC/CH7*%
X158140000Y-75335000D03*
%TO.P,C10,2*%
%TO.N,GND*%
X156240000Y-75335000D03*
%TD*%
D13*
%TO.P,R3,1*%
%TO.N,VDD*%
X178980000Y-48760000D03*
%TO.P,R3,2*%
%TO.N,Net-(U2-~{INT})*%
X180980000Y-48760000D03*
%TD*%
%TO.P,R4,1*%
%TO.N,VDD*%
X203440000Y-57280000D03*
%TO.P,R4,2*%
%TO.N,/I2C/SD0*%
X205440000Y-57280000D03*
%TD*%
D14*
%TO.P,R26,1*%
%TO.N,VDD*%
X178000000Y-66360000D03*
%TO.P,R26,2*%
%TO.N,/CS*%
X176000000Y-66360000D03*
%TD*%
%TO.P,R6,1*%
%TO.N,VDD*%
X196110000Y-53580000D03*
%TO.P,R6,2*%
%TO.N,/I2C/INT0*%
X194110000Y-53580000D03*
%TD*%
%TO.P,R22,1*%
%TO.N,/ADC/CH4*%
X153200000Y-67725000D03*
%TO.P,R22,2*%
%TO.N,/ADC/INCH4*%
X151200000Y-67725000D03*
%TD*%
D12*
%TO.P,C8,1*%
%TO.N,/ADC/CH5*%
X158090000Y-70285000D03*
%TO.P,C8,2*%
%TO.N,GND*%
X156190000Y-70285000D03*
%TD*%
%TO.P,C7,1*%
%TO.N,/ADC/CH4*%
X158090000Y-67780000D03*
%TO.P,C7,2*%
%TO.N,GND*%
X156190000Y-67780000D03*
%TD*%
D14*
%TO.P,R25,1*%
%TO.N,/ADC/CH7*%
X153200000Y-75375000D03*
%TO.P,R25,2*%
%TO.N,/ADC/INCH7*%
X151200000Y-75375000D03*
%TD*%
D15*
%TO.P,R5,1*%
%TO.N,VDD*%
X200760000Y-65120000D03*
%TO.P,R5,2*%
%TO.N,/I2C/SC0*%
X200760000Y-63120000D03*
%TD*%
D13*
%TO.P,R15,1*%
%TO.N,VDD*%
X179010000Y-46240000D03*
%TO.P,R15,2*%
%TO.N,/I2C/INT3*%
X181010000Y-46240000D03*
%TD*%
D14*
%TO.P,R18,1*%
%TO.N,/ADC/CH0*%
X153200000Y-57525000D03*
%TO.P,R18,2*%
%TO.N,/ADC/INCH0*%
X151200000Y-57525000D03*
%TD*%
D16*
%TO.P,R13,1*%
%TO.N,VDD*%
X183950000Y-76010000D03*
%TO.P,R13,2*%
%TO.N,/I2C/SD3*%
X183950000Y-78010000D03*
%TD*%
%TO.P,R2,1*%
%TO.N,VDD*%
X180150000Y-54160000D03*
%TO.P,R2,2*%
%TO.N,/SCL*%
X180150000Y-56160000D03*
%TD*%
%TO.P,R10,1*%
%TO.N,VDD*%
X195520000Y-75730000D03*
%TO.P,R10,2*%
%TO.N,/I2C/SD2*%
X195520000Y-77730000D03*
%TD*%
D14*
%TO.P,R27,1*%
%TO.N,VDD*%
X178510000Y-28770000D03*
%TO.P,R27,2*%
%TO.N,/CS1*%
X176510000Y-28770000D03*
%TD*%
D17*
%TO.P,C1,1*%
%TO.N,VDD*%
X183620000Y-54085000D03*
%TO.P,C1,2*%
%TO.N,GND*%
X183620000Y-56160000D03*
%TD*%
D15*
%TO.P,R17,1*%
%TO.N,/RS485/RX_P*%
X158850000Y-43500000D03*
%TO.P,R17,2*%
%TO.N,/RS485/RX_N*%
X158850000Y-41500000D03*
%TD*%
D18*
%TO.P,C11,1*%
%TO.N,VDD*%
X167040000Y-44950000D03*
%TO.P,C11,2*%
%TO.N,GND*%
X167040000Y-46850000D03*
%TD*%
D19*
%TO.P,I2C0,1,Pin_1*%
%TO.N,/I2C/SD0*%
X205450000Y-60580000D03*
D20*
%TO.P,I2C0,2,Pin_2*%
%TO.N,/I2C/SC0*%
X205450000Y-63120000D03*
%TO.P,I2C0,3,Pin_3*%
%TO.N,GND*%
X205450000Y-65660000D03*
%TO.P,I2C0,4,Pin_4*%
%TO.N,VDD*%
X205450000Y-68200000D03*
%TD*%
D12*
%TO.P,C4,1*%
%TO.N,/ADC/CH1*%
X158090000Y-60135000D03*
%TO.P,C4,2*%
%TO.N,GND*%
X156190000Y-60135000D03*
%TD*%
D21*
%TO.P,U1,1,3V3*%
%TO.N,VDD*%
X174007500Y-23714250D03*
D22*
%TO.P,U1,2,GND*%
%TO.N,GND*%
X174007500Y-26254250D03*
%TO.P,U1,3,D15*%
%TO.N,/CS1*%
X174007500Y-28794250D03*
%TO.P,U1,4,D2*%
%TO.N,/D2*%
X174007500Y-31334250D03*
%TO.P,U1,5,D4*%
%TO.N,/D4*%
X174007500Y-33874250D03*
%TO.P,U1,6,RX2*%
%TO.N,/RS485/RX2*%
X174007500Y-36414250D03*
%TO.P,U1,7,TX2*%
%TO.N,/RS485/TX2*%
X174007500Y-38954250D03*
%TO.P,U1,8,D5*%
%TO.N,/SCLK*%
X174007500Y-41494250D03*
%TO.P,U1,9,D18*%
%TO.N,/MISO*%
X174007500Y-44034250D03*
%TO.P,U1,10,D19*%
%TO.N,/MOSI*%
X174007500Y-46574250D03*
%TO.P,U1,11,D21*%
%TO.N,/SDA*%
X174007500Y-49114250D03*
%TO.P,U1,12,RX0*%
%TO.N,unconnected-(U1-RX0-Pad12)*%
X174007500Y-51654250D03*
%TO.P,U1,13,TX0*%
%TO.N,unconnected-(U1-TX0-Pad13)*%
X174007500Y-54194250D03*
%TO.P,U1,14,D22*%
%TO.N,/SCL*%
X174007500Y-56734250D03*
%TO.P,U1,15,D23*%
%TO.N,/CS*%
X174007500Y-59274250D03*
%TO.P,U1,16,EN*%
%TO.N,unconnected-(U1-EN-Pad16)*%
X199407500Y-59274250D03*
%TO.P,U1,17,VP*%
%TO.N,unconnected-(U1-VP-Pad17)*%
X199407500Y-56734250D03*
%TO.P,U1,18,VN*%
%TO.N,unconnected-(U1-VN-Pad18)*%
X199407500Y-54194250D03*
%TO.P,U1,19,D34*%
%TO.N,/D4*%
X199407500Y-51654250D03*
%TO.P,U1,20,D35*%
%TO.N,/D2*%
X199407500Y-49114250D03*
%TO.P,U1,21,D32*%
%TO.N,Net-(J2-Pin_3)*%
X199407500Y-46574250D03*
%TO.P,U1,22,D33*%
%TO.N,Net-(J2-Pin_4)*%
X199407500Y-44034250D03*
%TO.P,U1,23,D25*%
%TO.N,/DAC1*%
X199407500Y-41494250D03*
%TO.P,U1,24,D26*%
%TO.N,/DAC2*%
X199407500Y-38954250D03*
%TO.P,U1,25,D27*%
%TO.N,Net-(J2-Pin_7)*%
X199407500Y-36414250D03*
%TO.P,U1,26,D14*%
%TO.N,Net-(J2-Pin_8)*%
X199407500Y-33874250D03*
%TO.P,U1,27,D12*%
%TO.N,Net-(J2-Pin_9)*%
X199407500Y-31334250D03*
%TO.P,U1,28,D13*%
%TO.N,Net-(J2-Pin_10)*%
X199407500Y-28794250D03*
%TO.P,U1,29,GND*%
%TO.N,GND*%
X199407500Y-26254250D03*
%TO.P,U1,30,VIN*%
%TO.N,unconnected-(U1-VIN-Pad30)*%
X199407500Y-23714250D03*
%TD*%
D13*
%TO.P,R8,1*%
%TO.N,VDD*%
X197590000Y-74480000D03*
%TO.P,R8,2*%
%TO.N,/I2C/SC1*%
X199590000Y-74480000D03*
%TD*%
D18*
%TO.P,C12,1*%
%TO.N,VDD*%
X177200000Y-23750000D03*
%TO.P,C12,2*%
%TO.N,GND*%
X177200000Y-25650000D03*
%TD*%
D12*
%TO.P,C3,1*%
%TO.N,/ADC/CH0*%
X158090000Y-57585000D03*
%TO.P,C3,2*%
%TO.N,GND*%
X156190000Y-57585000D03*
%TD*%
D13*
%TO.P,R7,1*%
%TO.N,VDD*%
X197590000Y-71600000D03*
%TO.P,R7,2*%
%TO.N,/I2C/SD1*%
X199590000Y-71600000D03*
%TD*%
D14*
%TO.P,R23,1*%
%TO.N,/ADC/CH5*%
X153200000Y-70225000D03*
%TO.P,R23,2*%
%TO.N,/ADC/INCH5*%
X151200000Y-70225000D03*
%TD*%
D13*
%TO.P,R1,1*%
%TO.N,VDD*%
X178950000Y-51840000D03*
%TO.P,R1,2*%
%TO.N,/SDA*%
X180950000Y-51840000D03*
%TD*%
D23*
%TO.P,U3,1,VCC*%
%TO.N,VDD*%
X167025000Y-43105000D03*
%TO.P,U3,2,RO*%
%TO.N,/RS485/R0*%
X167025000Y-41835000D03*
%TO.P,U3,3,DI*%
%TO.N,/RS485/TX2*%
X167025000Y-40565000D03*
%TO.P,U3,4,GND*%
%TO.N,GND*%
X167025000Y-39295000D03*
%TO.P,U3,5,Y*%
%TO.N,/RS485/TX_P*%
X162075000Y-39295000D03*
%TO.P,U3,6,Z*%
%TO.N,/RS485/TX_N*%
X162075000Y-40565000D03*
%TO.P,U3,7,B*%
%TO.N,/RS485/RX_N*%
X162075000Y-41835000D03*
%TO.P,U3,8,A*%
%TO.N,/RS485/RX_P*%
X162075000Y-43105000D03*
%TD*%
D14*
%TO.P,R24,1*%
%TO.N,/ADC/CH6*%
X153200000Y-72775000D03*
%TO.P,R24,2*%
%TO.N,/ADC/INCH6*%
X151200000Y-72775000D03*
%TD*%
D24*
%TO.P,I2C2,1,Pin_1*%
%TO.N,/I2C/SD2*%
X195480000Y-84150000D03*
D25*
%TO.P,I2C2,2,Pin_2*%
%TO.N,/I2C/SC2*%
X192940000Y-84150000D03*
%TO.P,I2C2,3,Pin_3*%
%TO.N,GND*%
X190400000Y-84150000D03*
%TO.P,I2C2,4,Pin_4*%
%TO.N,VDD*%
X187860000Y-84150000D03*
%TD*%
D12*
%TO.P,C2,1*%
%TO.N,+3.3VADC*%
X169000000Y-54500000D03*
%TO.P,C2,2*%
%TO.N,GND*%
X167100000Y-54500000D03*
%TD*%
D26*
%TO.P,H3,1,1*%
%TO.N,GND*%
X145000000Y-25000000D03*
D27*
X145000000Y-25000000D03*
%TD*%
D12*
%TO.P,C5,1*%
%TO.N,/ADC/CH2*%
X158090000Y-62635000D03*
%TO.P,C5,2*%
%TO.N,GND*%
X156190000Y-62635000D03*
%TD*%
D26*
%TO.P,H4,1,1*%
%TO.N,GND*%
X145000000Y-85000000D03*
D27*
X145000000Y-85000000D03*
%TD*%
D28*
%TO.P,U2,1,A0*%
%TO.N,GND*%
X189862500Y-51925000D03*
%TO.P,U2,2,A1*%
X189862500Y-51275000D03*
%TO.P,U2,3,A2*%
X189862500Y-50625000D03*
%TO.P,U2,4,~{INT0}*%
%TO.N,/I2C/INT0*%
X189862500Y-49975000D03*
%TO.P,U2,5,SD0*%
%TO.N,/I2C/SD0*%
X189862500Y-49325000D03*
%TO.P,U2,6,SC0*%
%TO.N,/I2C/SC0*%
X189862500Y-48675000D03*
%TO.P,U2,7,~{INT1}*%
%TO.N,/I2C/INT1*%
X189862500Y-48025000D03*
%TO.P,U2,8,SD1*%
%TO.N,/I2C/SD1*%
X189862500Y-47375000D03*
%TO.P,U2,9,SC1*%
%TO.N,/I2C/SC1*%
X189862500Y-46725000D03*
%TO.P,U2,10,GND*%
%TO.N,GND*%
X189862500Y-46075000D03*
%TO.P,U2,11,~{INT2}*%
%TO.N,/I2C/INT2*%
X184137500Y-46075000D03*
%TO.P,U2,12,SD2*%
%TO.N,/I2C/SD2*%
X184137500Y-46725000D03*
%TO.P,U2,13,SC2*%
%TO.N,/I2C/SC2*%
X184137500Y-47375000D03*
%TO.P,U2,14,~{INT3}*%
%TO.N,/I2C/INT3*%
X184137500Y-48025000D03*
%TO.P,U2,15,SD3*%
%TO.N,/I2C/SD3*%
X184137500Y-48675000D03*
%TO.P,U2,16,SC3*%
%TO.N,/I2C/SC3*%
X184137500Y-49325000D03*
%TO.P,U2,17,~{INT}*%
%TO.N,Net-(U2-~{INT})*%
X184137500Y-49975000D03*
%TO.P,U2,18,SCL*%
%TO.N,/SCL*%
X184137500Y-50625000D03*
%TO.P,U2,19,SDA*%
%TO.N,/SDA*%
X184137500Y-51275000D03*
%TO.P,U2,20,VCC*%
%TO.N,VDD*%
X184137500Y-51925000D03*
%TD*%
D16*
%TO.P,R14,1*%
%TO.N,VDD*%
X181440000Y-76030000D03*
%TO.P,R14,2*%
%TO.N,/I2C/SC3*%
X181440000Y-78030000D03*
%TD*%
D14*
%TO.P,R19,1*%
%TO.N,/ADC/CH1*%
X153200000Y-60125000D03*
%TO.P,R19,2*%
%TO.N,/ADC/INCH1*%
X151200000Y-60125000D03*
%TD*%
D16*
%TO.P,R11,1*%
%TO.N,VDD*%
X192970000Y-75750000D03*
%TO.P,R11,2*%
%TO.N,/I2C/SC2*%
X192970000Y-77750000D03*
%TD*%
D29*
%TO.P,U4,1,CH0*%
%TO.N,/ADC/CH0*%
X161300000Y-57600000D03*
D30*
%TO.P,U4,2,CH1*%
%TO.N,/ADC/CH1*%
X161300000Y-60140000D03*
%TO.P,U4,3,CH2*%
%TO.N,/ADC/CH2*%
X161300000Y-62680000D03*
%TO.P,U4,4,CH3*%
%TO.N,/ADC/CH3*%
X161300000Y-65220000D03*
%TO.P,U4,5,CH4*%
%TO.N,/ADC/CH4*%
X161300000Y-67760000D03*
%TO.P,U4,6,CH5*%
%TO.N,/ADC/CH5*%
X161300000Y-70300000D03*
%TO.P,U4,7,CH6*%
%TO.N,/ADC/CH6*%
X161300000Y-72840000D03*
%TO.P,U4,8,CH7*%
%TO.N,/ADC/CH7*%
X161300000Y-75380000D03*
%TO.P,U4,9,DGND*%
%TO.N,GND*%
X168920000Y-75380000D03*
%TO.P,U4,10,~{CS}/SHDN*%
%TO.N,/CS*%
X168920000Y-72840000D03*
%TO.P,U4,11,Din*%
%TO.N,/MOSI*%
X168920000Y-70300000D03*
%TO.P,U4,12,Dout*%
%TO.N,/MISO*%
X168920000Y-67760000D03*
%TO.P,U4,13,CLK*%
%TO.N,/SCLK*%
X168920000Y-65220000D03*
%TO.P,U4,14,AGND*%
%TO.N,GND*%
X168920000Y-62680000D03*
%TO.P,U4,15,Vref*%
%TO.N,+3.3VADC*%
X168920000Y-60140000D03*
%TO.P,U4,16,Vdd*%
X168920000Y-57600000D03*
%TD*%
D14*
%TO.P,R9,1*%
%TO.N,VDD*%
X196110000Y-50940000D03*
%TO.P,R9,2*%
%TO.N,/I2C/INT1*%
X194110000Y-50940000D03*
%TD*%
D26*
%TO.P,H2,1,1*%
%TO.N,GND*%
X205000000Y-85000000D03*
D27*
X205000000Y-85000000D03*
%TD*%
D26*
%TO.P,H1,1,1*%
%TO.N,GND*%
X205000000Y-25000000D03*
D27*
X205000000Y-25000000D03*
%TD*%
D13*
%TO.P,R12,1*%
%TO.N,VDD*%
X179030000Y-43830000D03*
%TO.P,R12,2*%
%TO.N,/I2C/INT2*%
X181030000Y-43830000D03*
%TD*%
D14*
%TO.P,R20,1*%
%TO.N,/ADC/CH2*%
X153200000Y-62675000D03*
%TO.P,R20,2*%
%TO.N,/ADC/INCH2*%
X151200000Y-62675000D03*
%TD*%
D31*
%TO.P,R16,1*%
%TO.N,/RS485/RX2*%
X170012500Y-38900000D03*
%TO.P,R16,2*%
%TO.N,/RS485/R0*%
X170012500Y-42000000D03*
%TD*%
D19*
%TO.P,I2C1,1,Pin_1*%
%TO.N,/I2C/SD1*%
X205430000Y-71930000D03*
D20*
%TO.P,I2C1,2,Pin_2*%
%TO.N,/I2C/SC1*%
X205430000Y-74470000D03*
%TO.P,I2C1,3,Pin_3*%
%TO.N,GND*%
X205430000Y-77010000D03*
%TO.P,I2C1,4,Pin_4*%
%TO.N,VDD*%
X205430000Y-79550000D03*
%TD*%
D12*
%TO.P,C6,1*%
%TO.N,/ADC/CH3*%
X158150000Y-65230000D03*
%TO.P,C6,2*%
%TO.N,GND*%
X156250000Y-65230000D03*
%TD*%
D24*
%TO.P,I2C3,1,Pin_1*%
%TO.N,/I2C/SD3*%
X183970000Y-84220000D03*
D25*
%TO.P,I2C3,2,Pin_2*%
%TO.N,/I2C/SC3*%
X181430000Y-84220000D03*
%TO.P,I2C3,3,Pin_3*%
%TO.N,GND*%
X178890000Y-84220000D03*
%TO.P,I2C3,4,Pin_4*%
%TO.N,VDD*%
X176350000Y-84220000D03*
%TD*%
D12*
%TO.P,C9,1*%
%TO.N,/ADC/CH6*%
X158140000Y-72835000D03*
%TO.P,C9,2*%
%TO.N,GND*%
X156240000Y-72835000D03*
%TD*%
D14*
%TO.P,R21,1*%
%TO.N,/ADC/CH3*%
X153200000Y-65225000D03*
%TO.P,R21,2*%
%TO.N,/ADC/INCH3*%
X151200000Y-65225000D03*
%TD*%
D32*
%TO.P,J4,1,Pin_1*%
%TO.N,VDD*%
X145000000Y-31000000D03*
D33*
%TO.P,J4,2,Pin_2*%
%TO.N,GND*%
X145000000Y-33540000D03*
%TD*%
D32*
%TO.P,J1,1,Pin_1*%
%TO.N,+3.3VADC*%
X147540000Y-55000000D03*
D33*
%TO.P,J1,2,Pin_2*%
%TO.N,GND*%
X145000000Y-55000000D03*
%TO.P,J1,3,Pin_3*%
X147540000Y-57540000D03*
%TO.P,J1,4,Pin_4*%
%TO.N,/ADC/INCH0*%
X145000000Y-57540000D03*
%TO.P,J1,5,Pin_5*%
%TO.N,/ADC/INCH1*%
X147540000Y-60080000D03*
%TO.P,J1,6,Pin_6*%
%TO.N,GND*%
X145000000Y-60080000D03*
%TO.P,J1,7,Pin_7*%
X147540000Y-62620000D03*
%TO.P,J1,8,Pin_8*%
%TO.N,/ADC/INCH2*%
X145000000Y-62620000D03*
%TO.P,J1,9,Pin_9*%
%TO.N,/ADC/INCH3*%
X147540000Y-65160000D03*
%TO.P,J1,10,Pin_10*%
%TO.N,GND*%
X145000000Y-65160000D03*
%TO.P,J1,11,Pin_11*%
X147540000Y-67700000D03*
%TO.P,J1,12,Pin_12*%
%TO.N,/ADC/INCH4*%
X145000000Y-67700000D03*
%TO.P,J1,13,Pin_13*%
%TO.N,/ADC/INCH5*%
X147540000Y-70240000D03*
%TO.P,J1,14,Pin_14*%
%TO.N,GND*%
X145000000Y-70240000D03*
%TO.P,J1,15,Pin_15*%
X147540000Y-72780000D03*
%TO.P,J1,16,Pin_16*%
%TO.N,/ADC/INCH6*%
X145000000Y-72780000D03*
%TO.P,J1,17,Pin_17*%
%TO.N,/ADC/INCH7*%
X147540000Y-75320000D03*
%TO.P,J1,18,Pin_18*%
%TO.N,GND*%
X145000000Y-75320000D03*
%TD*%
D32*
%TO.P,J2,1,Pin_1*%
%TO.N,/D4*%
X205000000Y-53860000D03*
D33*
%TO.P,J2,2,Pin_2*%
%TO.N,/D2*%
X205000000Y-51320000D03*
%TO.P,J2,3,Pin_3*%
%TO.N,Net-(J2-Pin_3)*%
X205000000Y-48780000D03*
%TO.P,J2,4,Pin_4*%
%TO.N,Net-(J2-Pin_4)*%
X205000000Y-46240000D03*
%TO.P,J2,5,Pin_5*%
%TO.N,/DAC1*%
X205000000Y-43700000D03*
%TO.P,J2,6,Pin_6*%
%TO.N,/DAC2*%
X205000000Y-41160000D03*
%TO.P,J2,7,Pin_7*%
%TO.N,Net-(J2-Pin_7)*%
X205000000Y-38620000D03*
%TO.P,J2,8,Pin_8*%
%TO.N,Net-(J2-Pin_8)*%
X205000000Y-36080000D03*
%TO.P,J2,9,Pin_9*%
%TO.N,Net-(J2-Pin_9)*%
X205000000Y-33540000D03*
%TO.P,J2,10,Pin_10*%
%TO.N,Net-(J2-Pin_10)*%
X205000000Y-31000000D03*
%TD*%
D34*
%TO.N,GND*%
X165950000Y-54500000D03*
X155100000Y-72840000D03*
X155110000Y-65240000D03*
X191360000Y-50770000D03*
X157290000Y-33450000D03*
X167570000Y-38470000D03*
X155090000Y-75340000D03*
X167050000Y-47940000D03*
X160330000Y-33460000D03*
X155120000Y-62640000D03*
X182090000Y-56130000D03*
X155120000Y-60150000D03*
X159330000Y-33460000D03*
X155100000Y-70290000D03*
X191430000Y-46070000D03*
X191370000Y-51925000D03*
X155010000Y-57600000D03*
X158320000Y-33440000D03*
X155100000Y-67790000D03*
%TO.N,VDD*%
X196140000Y-54920000D03*
X178560000Y-54140000D03*
X179770000Y-66370000D03*
X177480000Y-51840000D03*
X181450000Y-74590000D03*
X177630000Y-45140000D03*
X168690000Y-44960000D03*
X182190000Y-54090000D03*
X202090000Y-57280000D03*
X192960000Y-74460000D03*
X195520000Y-74500000D03*
X196140000Y-52250000D03*
X177470000Y-46280000D03*
X183950000Y-74590000D03*
X177470000Y-48710000D03*
X196140000Y-71590000D03*
X200760000Y-66400000D03*
%TO.N,/I2C/SD1*%
X199600000Y-70250000D03*
%TO.N,/I2C/SC2*%
X192990000Y-78960000D03*
%TO.N,/I2C/SD3*%
X183960000Y-79360000D03*
%TO.N,/MISO*%
X183410000Y-37240000D03*
%TO.N,/CS*%
X174007500Y-66360000D03*
%TO.N,/CS1*%
X188930000Y-34000000D03*
%TD*%
D35*
%TO.N,/I2C/SC0*%
X188350000Y-49496188D02*
X188350000Y-53250000D01*
X198220000Y-63120000D02*
X205450000Y-63120000D01*
X189171188Y-48675000D02*
X188350000Y-49496188D01*
X188350000Y-53250000D02*
X198220000Y-63120000D01*
X189862500Y-48675000D02*
X189171188Y-48675000D01*
%TO.N,/I2C/SD0*%
X189862500Y-49325000D02*
X189171188Y-49325000D01*
X204570000Y-61460000D02*
X205450000Y-60580000D01*
X188800000Y-49696188D02*
X188800000Y-52203812D01*
X205450000Y-60580000D02*
X205450000Y-57290000D01*
X188800000Y-52203812D02*
X198056188Y-61460000D01*
X198056188Y-61460000D02*
X204570000Y-61460000D01*
X189171188Y-49325000D02*
X188800000Y-49696188D01*
X205450000Y-57290000D02*
X205440000Y-57280000D01*
D36*
%TO.N,GND*%
X190720000Y-51275000D02*
X189862500Y-51275000D01*
D35*
X156240000Y-72835000D02*
X155105000Y-72835000D01*
D36*
X160340000Y-33470000D02*
X160330000Y-33460000D01*
D35*
X156190000Y-70285000D02*
X155105000Y-70285000D01*
X155110000Y-67780000D02*
X155100000Y-67790000D01*
D36*
X159319900Y-33470100D02*
X159330000Y-33460000D01*
X191370000Y-51925000D02*
X189862500Y-51925000D01*
X158299800Y-33460200D02*
X158320000Y-33440000D01*
X159319900Y-35690950D02*
X159319900Y-33470100D01*
D37*
X167100000Y-54500000D02*
X165950000Y-54500000D01*
D35*
X156240000Y-75335000D02*
X155095000Y-75335000D01*
X156190000Y-62635000D02*
X155125000Y-62635000D01*
X189862500Y-46075000D02*
X191425000Y-46075000D01*
D36*
X191215000Y-50625000D02*
X189862500Y-50625000D01*
D35*
X155105000Y-70285000D02*
X155100000Y-70290000D01*
D36*
X167025000Y-39295000D02*
X167025000Y-39015000D01*
D35*
X183620000Y-56160000D02*
X182120000Y-56160000D01*
X155125000Y-62635000D02*
X155120000Y-62640000D01*
D38*
X176595750Y-26254250D02*
X177200000Y-25650000D01*
D35*
X156190000Y-60135000D02*
X155135000Y-60135000D01*
X191425000Y-46075000D02*
X191430000Y-46070000D01*
D36*
X191370000Y-51925000D02*
X190720000Y-51275000D01*
X160340000Y-35690950D02*
X160340000Y-33470000D01*
D35*
X155120000Y-65230000D02*
X155110000Y-65240000D01*
D36*
X167025000Y-39015000D02*
X167570000Y-38470000D01*
D35*
X182120000Y-56160000D02*
X182090000Y-56130000D01*
X155135000Y-60135000D02*
X155120000Y-60150000D01*
D36*
X157279800Y-33460200D02*
X157290000Y-33450000D01*
D35*
X155095000Y-75335000D02*
X155090000Y-75340000D01*
D36*
X191360000Y-50770000D02*
X191215000Y-50625000D01*
D35*
X156250000Y-65230000D02*
X155120000Y-65230000D01*
X155025000Y-57585000D02*
X156190000Y-57585000D01*
X156190000Y-67780000D02*
X155110000Y-67780000D01*
D37*
X167040000Y-47930000D02*
X167050000Y-47940000D01*
D35*
X155010000Y-57600000D02*
X155025000Y-57585000D01*
D38*
X174007500Y-26254250D02*
X176595750Y-26254250D01*
D35*
X155105000Y-72835000D02*
X155100000Y-72840000D01*
D36*
X158299800Y-35690950D02*
X158299800Y-33460200D01*
D37*
X167040000Y-46850000D02*
X167040000Y-47930000D01*
D36*
X157279800Y-35690950D02*
X157279800Y-33460200D01*
D35*
%TO.N,VDD*%
X181440000Y-76030000D02*
X181440000Y-74600000D01*
D36*
X196110000Y-52220000D02*
X196140000Y-52250000D01*
D35*
X183950000Y-76010000D02*
X183950000Y-74590000D01*
X179030000Y-46220000D02*
X179010000Y-46240000D01*
X197590000Y-71600000D02*
X196150000Y-71600000D01*
X197590000Y-74480000D02*
X195540000Y-74480000D01*
X192970000Y-74470000D02*
X192960000Y-74460000D01*
X192970000Y-75750000D02*
X192970000Y-74470000D01*
D36*
X177730000Y-23750000D02*
X177200000Y-23750000D01*
D35*
X184137500Y-51925000D02*
X184137500Y-53567500D01*
X200760000Y-65120000D02*
X200760000Y-66400000D01*
X196150000Y-71600000D02*
X196140000Y-71590000D01*
X177630000Y-45140000D02*
X178940000Y-43830000D01*
X178950000Y-51840000D02*
X177480000Y-51840000D01*
D38*
X178010000Y-66370000D02*
X178000000Y-66360000D01*
D36*
X196110000Y-53580000D02*
X196110000Y-54890000D01*
D35*
X178980000Y-48760000D02*
X178980000Y-46270000D01*
D36*
X196110000Y-50940000D02*
X196110000Y-52220000D01*
D35*
X195520000Y-75730000D02*
X195520000Y-74500000D01*
X178980000Y-46270000D02*
X179010000Y-46240000D01*
X183620000Y-54085000D02*
X182195000Y-54085000D01*
X181440000Y-74600000D02*
X181450000Y-74590000D01*
X177520000Y-48760000D02*
X178980000Y-48760000D01*
D37*
X167040000Y-44950000D02*
X167040000Y-43120000D01*
D35*
X177510000Y-46240000D02*
X177470000Y-46280000D01*
X203440000Y-57280000D02*
X202090000Y-57280000D01*
X195540000Y-74480000D02*
X195520000Y-74500000D01*
X184137500Y-53567500D02*
X183620000Y-54085000D01*
D37*
X167040000Y-43120000D02*
X167025000Y-43105000D01*
D38*
X177164250Y-23714250D02*
X177200000Y-23750000D01*
D37*
X167040000Y-44950000D02*
X168680000Y-44950000D01*
D35*
X179010000Y-46240000D02*
X177510000Y-46240000D01*
D38*
X179770000Y-66370000D02*
X178010000Y-66370000D01*
D35*
X178580000Y-54160000D02*
X178560000Y-54140000D01*
D37*
X168680000Y-44950000D02*
X168690000Y-44960000D01*
D36*
X196110000Y-54890000D02*
X196140000Y-54920000D01*
X178810000Y-28470000D02*
X178810000Y-24830000D01*
D35*
X177470000Y-48710000D02*
X177520000Y-48760000D01*
X178940000Y-43830000D02*
X179030000Y-43830000D01*
X180150000Y-54160000D02*
X178580000Y-54160000D01*
X182195000Y-54085000D02*
X182190000Y-54090000D01*
D36*
X178510000Y-28770000D02*
X178810000Y-28470000D01*
D38*
X174007500Y-23714250D02*
X177164250Y-23714250D01*
D35*
X179030000Y-43830000D02*
X179030000Y-46220000D01*
D36*
X178810000Y-24830000D02*
X177730000Y-23750000D01*
D35*
%TO.N,/I2C/SC1*%
X187450000Y-48446188D02*
X187450000Y-56490000D01*
X189862500Y-46725000D02*
X189171188Y-46725000D01*
X189171188Y-46725000D02*
X187450000Y-48446188D01*
X199600000Y-74470000D02*
X199590000Y-74480000D01*
X204824985Y-74050000D02*
X205450000Y-74050000D01*
X205430000Y-74470000D02*
X199600000Y-74470000D01*
X205430000Y-74470000D02*
X187450000Y-56490000D01*
%TO.N,/I2C/SD1*%
X204335000Y-71930000D02*
X187900000Y-55495000D01*
X205430000Y-71930000D02*
X204335000Y-71930000D01*
X189171188Y-47375000D02*
X189862500Y-47375000D01*
X187900000Y-55495000D02*
X187900000Y-48646188D01*
X187900000Y-48646188D02*
X189171188Y-47375000D01*
X199600000Y-71590000D02*
X199590000Y-71600000D01*
X199600000Y-70250000D02*
X199600000Y-71590000D01*
%TO.N,/I2C/SD2*%
X187000000Y-48863605D02*
X187000000Y-75670000D01*
X195480000Y-84150000D02*
X195480000Y-77770000D01*
X184137500Y-46725000D02*
X184192400Y-46779900D01*
X184192400Y-46779900D02*
X184916295Y-46779900D01*
X187000000Y-75670000D02*
X195480000Y-84150000D01*
X195480000Y-77770000D02*
X195520000Y-77730000D01*
X184916295Y-46779900D02*
X187000000Y-48863605D01*
%TO.N,/I2C/SC2*%
X186550000Y-49050001D02*
X186550000Y-77760000D01*
X186550000Y-77760000D02*
X192940000Y-84150000D01*
X184874999Y-47375000D02*
X186550000Y-49050001D01*
X192990000Y-78960000D02*
X192990000Y-77770000D01*
X184137500Y-47375000D02*
X184874999Y-47375000D01*
X192990000Y-77770000D02*
X192970000Y-77750000D01*
%TO.N,/I2C/SC3*%
X181430000Y-78040000D02*
X181440000Y-78030000D01*
X181430000Y-84220000D02*
X181430000Y-78040000D01*
X184137500Y-49325000D02*
X184874999Y-49325000D01*
X184874999Y-49325000D02*
X185650000Y-50100001D01*
X185650000Y-80000000D02*
X181430000Y-84220000D01*
X185650000Y-50100001D02*
X185650000Y-80000000D01*
%TO.N,/I2C/SD3*%
X184874999Y-48675000D02*
X184999999Y-48800000D01*
X183970000Y-83594985D02*
X183970000Y-84220000D01*
X184999999Y-48800000D02*
X184986395Y-48800000D01*
X183960000Y-78020000D02*
X183950000Y-78010000D01*
X186100000Y-81464985D02*
X183970000Y-83594985D01*
X184986395Y-48800000D02*
X186100000Y-49913605D01*
X183960000Y-79360000D02*
X183960000Y-78020000D01*
X184137500Y-48675000D02*
X184874999Y-48675000D01*
X186100000Y-49913605D02*
X186100000Y-81464985D01*
D36*
%TO.N,Net-(U2-~{INT})*%
X183400001Y-49975000D02*
X182185001Y-48760000D01*
X184137500Y-49975000D02*
X183400001Y-49975000D01*
X182185001Y-48760000D02*
X180980000Y-48760000D01*
%TO.N,/I2C/INT0*%
X189862500Y-49975000D02*
X191865000Y-49975000D01*
X192620000Y-52090000D02*
X194110000Y-53580000D01*
X191865000Y-49975000D02*
X192620000Y-50730000D01*
X192620000Y-50730000D02*
X192620000Y-52090000D01*
%TO.N,/I2C/INT1*%
X191195000Y-48025000D02*
X189862500Y-48025000D01*
X194110000Y-50940000D02*
X191195000Y-48025000D01*
%TO.N,/I2C/INT2*%
X183275000Y-46075000D02*
X181030000Y-43830000D01*
X184137500Y-46075000D02*
X183275000Y-46075000D01*
%TO.N,/I2C/INT3*%
X182795000Y-48025000D02*
X181010000Y-46240000D01*
X184137500Y-48025000D02*
X182795000Y-48025000D01*
D39*
%TO.N,/RS485/R0*%
X167025000Y-41835000D02*
X169847500Y-41835000D01*
X169847500Y-41835000D02*
X170012500Y-42000000D01*
%TO.N,/RS485/RX2*%
X174007500Y-36414250D02*
X171685750Y-36414250D01*
X170012500Y-38087500D02*
X170012500Y-38900000D01*
X171685750Y-36414250D02*
X170012500Y-38087500D01*
D40*
%TO.N,/RS485/RX_P*%
X158850000Y-43500000D02*
X158950000Y-43500000D01*
X155525000Y-40240000D02*
X155524950Y-40239950D01*
X157975000Y-42725000D02*
X156636800Y-42725000D01*
X155524950Y-40239950D02*
X155524950Y-35976000D01*
X162025000Y-43105000D02*
X162075000Y-43105000D01*
X155525000Y-41613200D02*
X155525000Y-40240000D01*
X155524950Y-35976000D02*
X155239900Y-35690950D01*
X159725000Y-42725000D02*
X161645000Y-42725000D01*
X161645000Y-42725000D02*
X162025000Y-43105000D01*
X158750000Y-43500000D02*
X157975000Y-42725000D01*
X158950000Y-43500000D02*
X159725000Y-42725000D01*
X156636800Y-42725000D02*
X155525000Y-41613200D01*
X158850000Y-43500000D02*
X158750000Y-43500000D01*
%TO.N,/RS485/RX_N*%
X158950000Y-41500000D02*
X159725000Y-42275000D01*
X156313733Y-39399950D02*
X156214950Y-39399950D01*
X155975000Y-41426800D02*
X155975000Y-40240000D01*
X159725000Y-42275000D02*
X161635000Y-42275000D01*
X155974950Y-39159950D02*
X155974950Y-35976000D01*
X156553733Y-39759950D02*
X156553733Y-39639950D01*
X155975000Y-40240000D02*
X155974950Y-40239950D01*
X156214950Y-39999950D02*
X156313733Y-39999950D01*
X155974950Y-35976000D02*
X156260000Y-35690950D01*
X157975000Y-42275000D02*
X156823200Y-42275000D01*
X158850000Y-41500000D02*
X158950000Y-41500000D01*
X156823200Y-42275000D02*
X155975000Y-41426800D01*
X158750000Y-41500000D02*
X157975000Y-42275000D01*
X158850000Y-41500000D02*
X158750000Y-41500000D01*
X161635000Y-42275000D02*
X162075000Y-41835000D01*
X156214950Y-39399950D02*
G75*
G02*
X155974950Y-39159950I-50J239950D01*
G01*
X156313733Y-39999950D02*
G75*
G03*
X156553650Y-39759950I-33J239950D01*
G01*
X155974950Y-40239950D02*
G75*
G02*
X156214950Y-39999950I239950J50D01*
G01*
X156553733Y-39639950D02*
G75*
G03*
X156313733Y-39399867I-240033J50D01*
G01*
%TO.N,/RS485/TX_P*%
X165135000Y-36844096D02*
X165135000Y-36724096D01*
X165135000Y-35644096D02*
X165135000Y-32753200D01*
X162094800Y-34205950D02*
X162379800Y-34490950D01*
X164609791Y-37084096D02*
X164895000Y-37084096D01*
X164609766Y-35884096D02*
X164895000Y-35884096D01*
X164895000Y-36484096D02*
X164609766Y-36484096D01*
X164369766Y-36244096D02*
X164369766Y-36124096D01*
X164369791Y-37444096D02*
X164369791Y-37324096D01*
X162729458Y-31948742D02*
X162094800Y-32583400D01*
X164106800Y-39705000D02*
X165135000Y-38676800D01*
X162075000Y-39295000D02*
X162750000Y-39295000D01*
X165135000Y-38676800D02*
X165135000Y-37924096D01*
X162750000Y-39295000D02*
X163160000Y-39705000D01*
X165135000Y-32753200D02*
X164330542Y-31948742D01*
X162094800Y-32583400D02*
X162094800Y-34205950D01*
X162379800Y-34490950D02*
X162379800Y-35690950D01*
X164330542Y-31948742D02*
X162729458Y-31948742D01*
X164895000Y-37684096D02*
X164609791Y-37684096D01*
X163160000Y-39705000D02*
X164106800Y-39705000D01*
X164369766Y-36124096D02*
G75*
G02*
X164609766Y-35884066I240034J-4D01*
G01*
X165135000Y-36724096D02*
G75*
G03*
X164895000Y-36484100I-240000J-4D01*
G01*
X165135000Y-37924096D02*
G75*
G03*
X164895000Y-37684100I-240000J-4D01*
G01*
X164369791Y-37324096D02*
G75*
G02*
X164609791Y-37084091I240009J-4D01*
G01*
X164609791Y-37684096D02*
G75*
G02*
X164369804Y-37444096I9J239996D01*
G01*
X164895000Y-37084096D02*
G75*
G03*
X165134996Y-36844096I0J239996D01*
G01*
X164609766Y-36484096D02*
G75*
G02*
X164369804Y-36244096I34J239996D01*
G01*
X164895000Y-35884096D02*
G75*
G03*
X165134996Y-35644096I0J239996D01*
G01*
%TO.N,/RS485/TX_N*%
X164293200Y-40155000D02*
X163160000Y-40155000D01*
X162750000Y-40565000D02*
X162075000Y-40565000D01*
X163160000Y-40155000D02*
X162750000Y-40565000D01*
X165585000Y-38863200D02*
X164293200Y-40155000D01*
X161644800Y-32397000D02*
X162543058Y-31498742D01*
X162543058Y-31498742D02*
X164516942Y-31498742D01*
X164516942Y-31498742D02*
X165585000Y-32566800D01*
X161644800Y-34205950D02*
X161644800Y-32397000D01*
X161359800Y-34490950D02*
X161644800Y-34205950D01*
X161359800Y-35690950D02*
X161359800Y-34490950D01*
X165585000Y-32566800D02*
X165585000Y-38863200D01*
D39*
%TO.N,/RS485/TX2*%
X174007500Y-38954250D02*
X172295750Y-38954250D01*
X170685000Y-40565000D02*
X167025000Y-40565000D01*
X172295750Y-38954250D02*
X170685000Y-40565000D01*
D38*
%TO.N,+3.3VADC*%
X166750000Y-51250000D02*
X149750000Y-51250000D01*
X169000000Y-54500000D02*
X169000000Y-53500000D01*
X169000000Y-53500000D02*
X166750000Y-51250000D01*
X169000000Y-54500000D02*
X169000000Y-57520000D01*
X169000000Y-57520000D02*
X168920000Y-57600000D01*
X168920000Y-57600000D02*
X168920000Y-60140000D01*
X149750000Y-51250000D02*
X147540000Y-53460000D01*
X147540000Y-53460000D02*
X147540000Y-55000000D01*
D35*
%TO.N,/ADC/CH0*%
X156805000Y-56300000D02*
X158090000Y-57585000D01*
X153200000Y-57525000D02*
X154425000Y-56300000D01*
X158090000Y-57585000D02*
X161285000Y-57585000D01*
X154425000Y-56300000D02*
X156805000Y-56300000D01*
X161285000Y-57585000D02*
X161300000Y-57600000D01*
%TO.N,/ADC/CH1*%
X161295000Y-60135000D02*
X161300000Y-60140000D01*
X156755000Y-58800000D02*
X158090000Y-60135000D01*
X154525000Y-58800000D02*
X156755000Y-58800000D01*
X158090000Y-60135000D02*
X161295000Y-60135000D01*
X153200000Y-60125000D02*
X154525000Y-58800000D01*
%TO.N,/ADC/CH2*%
X161255000Y-62635000D02*
X161300000Y-62680000D01*
X158090000Y-62635000D02*
X161255000Y-62635000D01*
X156855000Y-61400000D02*
X158090000Y-62635000D01*
X153200000Y-62675000D02*
X154475000Y-61400000D01*
X154475000Y-61400000D02*
X156855000Y-61400000D01*
%TO.N,/ADC/CH3*%
X156820000Y-63900000D02*
X158150000Y-65230000D01*
X158380000Y-65220000D02*
X161300000Y-65220000D01*
X153200000Y-65225000D02*
X154525000Y-63900000D01*
X158150000Y-65230000D02*
X158370000Y-65230000D01*
X158370000Y-65230000D02*
X158380000Y-65220000D01*
X154525000Y-63900000D02*
X156820000Y-63900000D01*
%TO.N,/ADC/CH4*%
X161280000Y-67780000D02*
X161300000Y-67760000D01*
X154425000Y-66500000D02*
X156810000Y-66500000D01*
X153200000Y-67725000D02*
X154425000Y-66500000D01*
X156810000Y-66500000D02*
X158090000Y-67780000D01*
X158090000Y-67780000D02*
X161280000Y-67780000D01*
%TO.N,/ADC/CH5*%
X158090000Y-70285000D02*
X161285000Y-70285000D01*
X161285000Y-70285000D02*
X161300000Y-70300000D01*
X153200000Y-70225000D02*
X154425000Y-69000000D01*
X156805000Y-69000000D02*
X158090000Y-70285000D01*
X154425000Y-69000000D02*
X156805000Y-69000000D01*
%TO.N,/ADC/CH6*%
X161295000Y-72835000D02*
X161300000Y-72840000D01*
X154375000Y-71600000D02*
X156905000Y-71600000D01*
X158140000Y-72835000D02*
X161295000Y-72835000D01*
X153200000Y-72775000D02*
X154375000Y-71600000D01*
X156905000Y-71600000D02*
X158140000Y-72835000D01*
%TO.N,/ADC/CH7*%
X158140000Y-75335000D02*
X161255000Y-75335000D01*
X156905000Y-74100000D02*
X158140000Y-75335000D01*
X161255000Y-75335000D02*
X161300000Y-75380000D01*
X153200000Y-75375000D02*
X154475000Y-74100000D01*
X154475000Y-74100000D02*
X156905000Y-74100000D01*
%TO.N,/ADC/INCH2*%
X146280000Y-61340000D02*
X149865000Y-61340000D01*
X149865000Y-61340000D02*
X151200000Y-62675000D01*
X145000000Y-62620000D02*
X146280000Y-61340000D01*
%TO.N,/ADC/INCH0*%
X146260000Y-56280000D02*
X149955000Y-56280000D01*
X149955000Y-56280000D02*
X151200000Y-57525000D01*
X145000000Y-57540000D02*
X146260000Y-56280000D01*
%TO.N,/ADC/INCH6*%
X149905000Y-71480000D02*
X151200000Y-72775000D01*
X146300000Y-71480000D02*
X149905000Y-71480000D01*
X145000000Y-72780000D02*
X146300000Y-71480000D01*
%TO.N,/ADC/INCH7*%
X151145000Y-75320000D02*
X151200000Y-75375000D01*
X147540000Y-75320000D02*
X151145000Y-75320000D01*
%TO.N,/ADC/INCH5*%
X147540000Y-70240000D02*
X151185000Y-70240000D01*
X151185000Y-70240000D02*
X151200000Y-70225000D01*
%TO.N,/ADC/INCH4*%
X146270000Y-66430000D02*
X149905000Y-66430000D01*
X145000000Y-67700000D02*
X146270000Y-66430000D01*
X149905000Y-66430000D02*
X151200000Y-67725000D01*
%TO.N,/ADC/INCH1*%
X147540000Y-60080000D02*
X151155000Y-60080000D01*
X151155000Y-60080000D02*
X151200000Y-60125000D01*
%TO.N,/ADC/INCH3*%
X147540000Y-65160000D02*
X151135000Y-65160000D01*
X151135000Y-65160000D02*
X151200000Y-65225000D01*
D38*
%TO.N,/D2*%
X204870000Y-51320000D02*
X202664250Y-49114250D01*
X202664250Y-49114250D02*
X199407500Y-49114250D01*
D37*
X174007500Y-31334250D02*
X181627500Y-31334250D01*
X181627500Y-31334250D02*
X199407500Y-49114250D01*
D38*
X205000000Y-51320000D02*
X204870000Y-51320000D01*
%TO.N,/D4*%
X205000000Y-53860000D02*
X204790000Y-53860000D01*
D37*
X181627500Y-33874250D02*
X199407500Y-51654250D01*
D38*
X204790000Y-53860000D02*
X202584250Y-51654250D01*
X202584250Y-51654250D02*
X199407500Y-51654250D01*
D37*
X174007500Y-33874250D02*
X181627500Y-33874250D01*
D38*
%TO.N,/DAC2*%
X199407500Y-38954250D02*
X202794250Y-38954250D01*
X202794250Y-38954250D02*
X205000000Y-41160000D01*
%TO.N,Net-(J2-Pin_4)*%
X199407500Y-44034250D02*
X202794250Y-44034250D01*
X202794250Y-44034250D02*
X205000000Y-46240000D01*
%TO.N,/DAC1*%
X202794250Y-41494250D02*
X205000000Y-43700000D01*
X199407500Y-41494250D02*
X202794250Y-41494250D01*
%TO.N,Net-(J2-Pin_9)*%
X202794250Y-31334250D02*
X205000000Y-33540000D01*
X199407500Y-31334250D02*
X202794250Y-31334250D01*
%TO.N,Net-(J2-Pin_10)*%
X202794250Y-28794250D02*
X205000000Y-31000000D01*
X199407500Y-28794250D02*
X202794250Y-28794250D01*
%TO.N,Net-(J2-Pin_7)*%
X202794250Y-36414250D02*
X205000000Y-38620000D01*
X199407500Y-36414250D02*
X202794250Y-36414250D01*
%TO.N,Net-(J2-Pin_8)*%
X199407500Y-33874250D02*
X202794250Y-33874250D01*
X202794250Y-33874250D02*
X205000000Y-36080000D01*
%TO.N,Net-(J2-Pin_3)*%
X202794250Y-46574250D02*
X205000000Y-48780000D01*
X199407500Y-46574250D02*
X202794250Y-46574250D01*
D36*
%TO.N,/SDA*%
X182500000Y-50400000D02*
X183375000Y-51275000D01*
X181515000Y-51275000D02*
X180950000Y-51840000D01*
X174007500Y-49114250D02*
X175293250Y-50400000D01*
X183375000Y-51275000D02*
X184137500Y-51275000D01*
X184137500Y-51275000D02*
X181515000Y-51275000D01*
X175293250Y-50400000D02*
X182500000Y-50400000D01*
D35*
%TO.N,/SCL*%
X184640000Y-57810000D02*
X181290000Y-57810000D01*
X184137500Y-50625000D02*
X184874999Y-50625000D01*
D36*
X179575750Y-56734250D02*
X180150000Y-56160000D01*
X174007500Y-56734250D02*
X179575750Y-56734250D01*
D35*
X185200000Y-57250000D02*
X184640000Y-57810000D01*
X184874999Y-50625000D02*
X185200000Y-50950001D01*
X181290000Y-57810000D02*
X180150000Y-56670000D01*
X180150000Y-56670000D02*
X180150000Y-56160000D01*
X185200000Y-50950001D02*
X185200000Y-57250000D01*
D36*
%TO.N,/MISO*%
X174007500Y-44034250D02*
X180801750Y-37240000D01*
X180801750Y-37240000D02*
X183410000Y-37240000D01*
D35*
%TO.N,/CS*%
X176000000Y-66360000D02*
X174007500Y-66360000D01*
D37*
%TO.N,/CS1*%
X174007500Y-28794250D02*
X176485750Y-28794250D01*
D36*
X176510000Y-28770000D02*
X178120000Y-30380000D01*
X185310000Y-30380000D02*
X188930000Y-34000000D01*
X178120000Y-30380000D02*
X185310000Y-30380000D01*
%TD*%
M02*
