%TF.GenerationSoftware,KiCad,Pcbnew,8.0.0-8.0.0-1~ubuntu20.04.1*%
%TF.CreationDate,2024-06-18T17:36:17-06:00*%
%TF.ProjectId,BioReactify,42696f52-6561-4637-9469-66792e6b6963,rev?*%
%TF.SameCoordinates,Original*%
%TF.FileFunction,Legend,Bot*%
%TF.FilePolarity,Positive*%
%FSLAX46Y46*%
G04 Gerber Fmt 4.6, Leading zero omitted, Abs format (unit mm)*
G04 Created by KiCad (PCBNEW 8.0.0-8.0.0-1~ubuntu20.04.1) date 2024-06-18 17:36:17*
%MOMM*%
%LPD*%
G01*
G04 APERTURE LIST*
%ADD10C,0.150000*%
%ADD11C,0.254000*%
%ADD12C,0.120000*%
G04 APERTURE END LIST*
D10*
X145333333Y-28124819D02*
X145333333Y-28839104D01*
X145333333Y-28839104D02*
X145380952Y-28981961D01*
X145380952Y-28981961D02*
X145476190Y-29077200D01*
X145476190Y-29077200D02*
X145619047Y-29124819D01*
X145619047Y-29124819D02*
X145714285Y-29124819D01*
X144428571Y-28458152D02*
X144428571Y-29124819D01*
X144666666Y-28077200D02*
X144904761Y-28791485D01*
X144904761Y-28791485D02*
X144285714Y-28791485D01*
X146603333Y-52124819D02*
X146603333Y-52839104D01*
X146603333Y-52839104D02*
X146650952Y-52981961D01*
X146650952Y-52981961D02*
X146746190Y-53077200D01*
X146746190Y-53077200D02*
X146889047Y-53124819D01*
X146889047Y-53124819D02*
X146984285Y-53124819D01*
X145603333Y-53124819D02*
X146174761Y-53124819D01*
X145889047Y-53124819D02*
X145889047Y-52124819D01*
X145889047Y-52124819D02*
X145984285Y-52267676D01*
X145984285Y-52267676D02*
X146079523Y-52362914D01*
X146079523Y-52362914D02*
X146174761Y-52410533D01*
D11*
%TO.C,J3*%
X180276900Y-21078000D02*
X180276900Y-23364000D01*
X180276900Y-26158000D02*
X180276900Y-32889000D01*
X180276900Y-36445000D02*
X180276900Y-35302000D01*
X195389900Y-21078000D02*
X180276900Y-21078000D01*
X195389900Y-23364000D02*
X195389900Y-21078000D01*
X195389900Y-33270000D02*
X195389900Y-26158000D01*
X195389900Y-35429000D02*
X195389900Y-36445000D01*
X195389900Y-36445000D02*
X180276900Y-36445000D01*
D12*
%TO.C,J4*%
X143670000Y-32270000D02*
X146330000Y-32270000D01*
X143670000Y-34870000D02*
X143670000Y-32270000D01*
X143670000Y-34870000D02*
X146330000Y-34870000D01*
X145000000Y-29670000D02*
X146330000Y-29670000D01*
X146330000Y-29670000D02*
X146330000Y-31000000D01*
X146330000Y-34870000D02*
X146330000Y-32270000D01*
%TO.C,J1*%
X143670000Y-53670000D02*
X146270000Y-53670000D01*
X143670000Y-76650000D02*
X143670000Y-53670000D01*
X143670000Y-76650000D02*
X148870000Y-76650000D01*
X146270000Y-53670000D02*
X146270000Y-56270000D01*
X146270000Y-56270000D02*
X148870000Y-56270000D01*
X147540000Y-53670000D02*
X148870000Y-53670000D01*
X148870000Y-53670000D02*
X148870000Y-55000000D01*
X148870000Y-76650000D02*
X148870000Y-56270000D01*
%TO.C,J2*%
X203670000Y-29670000D02*
X203670000Y-52590000D01*
X203670000Y-55190000D02*
X203670000Y-53860000D01*
X205000000Y-55190000D02*
X203670000Y-55190000D01*
X206330000Y-29670000D02*
X203670000Y-29670000D01*
X206330000Y-29670000D02*
X206330000Y-52590000D01*
X206330000Y-52590000D02*
X203670000Y-52590000D01*
%TD*%
M02*
