%TF.GenerationSoftware,KiCad,Pcbnew,8.0.0-8.0.0-1~ubuntu20.04.1*%
%TF.CreationDate,2024-06-18T17:36:17-06:00*%
%TF.ProjectId,BioReactify,42696f52-6561-4637-9469-66792e6b6963,rev?*%
%TF.SameCoordinates,Original*%
%TF.FileFunction,Copper,L3,Inr*%
%TF.FilePolarity,Positive*%
%FSLAX46Y46*%
G04 Gerber Fmt 4.6, Leading zero omitted, Abs format (unit mm)*
G04 Created by KiCad (PCBNEW 8.0.0-8.0.0-1~ubuntu20.04.1) date 2024-06-18 17:36:17*
%MOMM*%
%LPD*%
G01*
G04 APERTURE LIST*
G04 Aperture macros list*
%AMRoundRect*
0 Rectangle with rounded corners*
0 $1 Rounding radius*
0 $2 $3 $4 $5 $6 $7 $8 $9 X,Y pos of 4 corners*
0 Add a 4 corners polygon primitive as box body*
4,1,4,$2,$3,$4,$5,$6,$7,$8,$9,$2,$3,0*
0 Add four circle primitives for the rounded corners*
1,1,$1+$1,$2,$3*
1,1,$1+$1,$4,$5*
1,1,$1+$1,$6,$7*
1,1,$1+$1,$8,$9*
0 Add four rect primitives between the rounded corners*
20,1,$1+$1,$2,$3,$4,$5,0*
20,1,$1+$1,$4,$5,$6,$7,0*
20,1,$1+$1,$6,$7,$8,$9,0*
20,1,$1+$1,$8,$9,$2,$3,0*%
G04 Aperture macros list end*
%TA.AperFunction,ComponentPad*%
%ADD10RoundRect,0.250000X-0.845000X0.620000X-0.845000X-0.620000X0.845000X-0.620000X0.845000X0.620000X0*%
%TD*%
%TA.AperFunction,ComponentPad*%
%ADD11O,2.190000X1.740000*%
%TD*%
%TA.AperFunction,ComponentPad*%
%ADD12R,2.000000X2.000000*%
%TD*%
%TA.AperFunction,ComponentPad*%
%ADD13C,2.000000*%
%TD*%
%TA.AperFunction,ComponentPad*%
%ADD14RoundRect,0.250000X0.620000X0.845000X-0.620000X0.845000X-0.620000X-0.845000X0.620000X-0.845000X0*%
%TD*%
%TA.AperFunction,ComponentPad*%
%ADD15O,1.740000X2.190000*%
%TD*%
%TA.AperFunction,ComponentPad*%
%ADD16C,3.600000*%
%TD*%
%TA.AperFunction,ComponentPad*%
%ADD17R,1.600000X1.600000*%
%TD*%
%TA.AperFunction,ComponentPad*%
%ADD18O,1.600000X1.600000*%
%TD*%
%TA.AperFunction,ComponentPad*%
%ADD19R,1.700000X1.700000*%
%TD*%
%TA.AperFunction,ComponentPad*%
%ADD20O,1.700000X1.700000*%
%TD*%
%TA.AperFunction,ViaPad*%
%ADD21C,0.600000*%
%TD*%
G04 APERTURE END LIST*
D10*
%TO.N,/I2C/SD0*%
%TO.C,I2C0*%
X205450000Y-60580000D03*
D11*
%TO.N,/I2C/SC0*%
X205450000Y-63120000D03*
%TO.N,GND*%
X205450000Y-65660000D03*
%TO.N,VDD*%
X205450000Y-68200000D03*
%TD*%
D12*
%TO.N,VDD*%
%TO.C,U1*%
X174007500Y-23714250D03*
D13*
%TO.N,GND*%
X174007500Y-26254250D03*
%TO.N,/CS1*%
X174007500Y-28794250D03*
%TO.N,/D2*%
X174007500Y-31334250D03*
%TO.N,/D4*%
X174007500Y-33874250D03*
%TO.N,/RS485/RX2*%
X174007500Y-36414250D03*
%TO.N,/RS485/TX2*%
X174007500Y-38954250D03*
%TO.N,/SCLK*%
X174007500Y-41494250D03*
%TO.N,/MISO*%
X174007500Y-44034250D03*
%TO.N,/MOSI*%
X174007500Y-46574250D03*
%TO.N,/SDA*%
X174007500Y-49114250D03*
%TO.N,unconnected-(U1-RX0-Pad12)*%
X174007500Y-51654250D03*
%TO.N,unconnected-(U1-TX0-Pad13)*%
X174007500Y-54194250D03*
%TO.N,/SCL*%
X174007500Y-56734250D03*
%TO.N,/CS*%
X174007500Y-59274250D03*
%TO.N,unconnected-(U1-EN-Pad16)*%
X199407500Y-59274250D03*
%TO.N,unconnected-(U1-VP-Pad17)*%
X199407500Y-56734250D03*
%TO.N,unconnected-(U1-VN-Pad18)*%
X199407500Y-54194250D03*
%TO.N,/D4*%
X199407500Y-51654250D03*
%TO.N,/D2*%
X199407500Y-49114250D03*
%TO.N,Net-(J2-Pin_3)*%
X199407500Y-46574250D03*
%TO.N,Net-(J2-Pin_4)*%
X199407500Y-44034250D03*
%TO.N,/DAC1*%
X199407500Y-41494250D03*
%TO.N,/DAC2*%
X199407500Y-38954250D03*
%TO.N,Net-(J2-Pin_7)*%
X199407500Y-36414250D03*
%TO.N,Net-(J2-Pin_8)*%
X199407500Y-33874250D03*
%TO.N,Net-(J2-Pin_9)*%
X199407500Y-31334250D03*
%TO.N,Net-(J2-Pin_10)*%
X199407500Y-28794250D03*
%TO.N,GND*%
X199407500Y-26254250D03*
%TO.N,unconnected-(U1-VIN-Pad30)*%
X199407500Y-23714250D03*
%TD*%
D14*
%TO.N,/I2C/SD2*%
%TO.C,I2C2*%
X195480000Y-84150000D03*
D15*
%TO.N,/I2C/SC2*%
X192940000Y-84150000D03*
%TO.N,GND*%
X190400000Y-84150000D03*
%TO.N,VDD*%
X187860000Y-84150000D03*
%TD*%
D16*
%TO.N,GND*%
%TO.C,H3*%
X145000000Y-25000000D03*
%TD*%
%TO.N,GND*%
%TO.C,H4*%
X145000000Y-85000000D03*
%TD*%
D17*
%TO.N,/ADC/CH0*%
%TO.C,U4*%
X161300000Y-57600000D03*
D18*
%TO.N,/ADC/CH1*%
X161300000Y-60140000D03*
%TO.N,/ADC/CH2*%
X161300000Y-62680000D03*
%TO.N,/ADC/CH3*%
X161300000Y-65220000D03*
%TO.N,/ADC/CH4*%
X161300000Y-67760000D03*
%TO.N,/ADC/CH5*%
X161300000Y-70300000D03*
%TO.N,/ADC/CH6*%
X161300000Y-72840000D03*
%TO.N,/ADC/CH7*%
X161300000Y-75380000D03*
%TO.N,GND*%
X168920000Y-75380000D03*
%TO.N,/CS*%
X168920000Y-72840000D03*
%TO.N,/MOSI*%
X168920000Y-70300000D03*
%TO.N,/MISO*%
X168920000Y-67760000D03*
%TO.N,/SCLK*%
X168920000Y-65220000D03*
%TO.N,GND*%
X168920000Y-62680000D03*
%TO.N,+3.3VADC*%
X168920000Y-60140000D03*
X168920000Y-57600000D03*
%TD*%
D16*
%TO.N,GND*%
%TO.C,H2*%
X205000000Y-85000000D03*
%TD*%
%TO.N,GND*%
%TO.C,H1*%
X205000000Y-25000000D03*
%TD*%
D10*
%TO.N,/I2C/SD1*%
%TO.C,I2C1*%
X205430000Y-71930000D03*
D11*
%TO.N,/I2C/SC1*%
X205430000Y-74470000D03*
%TO.N,GND*%
X205430000Y-77010000D03*
%TO.N,VDD*%
X205430000Y-79550000D03*
%TD*%
D14*
%TO.N,/I2C/SD3*%
%TO.C,I2C3*%
X183970000Y-84220000D03*
D15*
%TO.N,/I2C/SC3*%
X181430000Y-84220000D03*
%TO.N,GND*%
X178890000Y-84220000D03*
%TO.N,VDD*%
X176350000Y-84220000D03*
%TD*%
D19*
%TO.N,VDD*%
%TO.C,J4*%
X145000000Y-31000000D03*
D20*
%TO.N,GND*%
X145000000Y-33540000D03*
%TD*%
D19*
%TO.N,+3.3VADC*%
%TO.C,J1*%
X147540000Y-55000000D03*
D20*
%TO.N,GND*%
X145000000Y-55000000D03*
X147540000Y-57540000D03*
%TO.N,/ADC/INCH0*%
X145000000Y-57540000D03*
%TO.N,/ADC/INCH1*%
X147540000Y-60080000D03*
%TO.N,GND*%
X145000000Y-60080000D03*
X147540000Y-62620000D03*
%TO.N,/ADC/INCH2*%
X145000000Y-62620000D03*
%TO.N,/ADC/INCH3*%
X147540000Y-65160000D03*
%TO.N,GND*%
X145000000Y-65160000D03*
X147540000Y-67700000D03*
%TO.N,/ADC/INCH4*%
X145000000Y-67700000D03*
%TO.N,/ADC/INCH5*%
X147540000Y-70240000D03*
%TO.N,GND*%
X145000000Y-70240000D03*
X147540000Y-72780000D03*
%TO.N,/ADC/INCH6*%
X145000000Y-72780000D03*
%TO.N,/ADC/INCH7*%
X147540000Y-75320000D03*
%TO.N,GND*%
X145000000Y-75320000D03*
%TD*%
D19*
%TO.N,/D4*%
%TO.C,J2*%
X205000000Y-53860000D03*
D20*
%TO.N,/D2*%
X205000000Y-51320000D03*
%TO.N,Net-(J2-Pin_3)*%
X205000000Y-48780000D03*
%TO.N,Net-(J2-Pin_4)*%
X205000000Y-46240000D03*
%TO.N,/DAC1*%
X205000000Y-43700000D03*
%TO.N,/DAC2*%
X205000000Y-41160000D03*
%TO.N,Net-(J2-Pin_7)*%
X205000000Y-38620000D03*
%TO.N,Net-(J2-Pin_8)*%
X205000000Y-36080000D03*
%TO.N,Net-(J2-Pin_9)*%
X205000000Y-33540000D03*
%TO.N,Net-(J2-Pin_10)*%
X205000000Y-31000000D03*
%TD*%
D21*
%TO.N,GND*%
X165950000Y-54500000D03*
X155100000Y-72840000D03*
X155110000Y-65240000D03*
X191360000Y-50770000D03*
X157290000Y-33450000D03*
X167570000Y-38470000D03*
X155090000Y-75340000D03*
X167050000Y-47940000D03*
X160330000Y-33460000D03*
X155120000Y-62640000D03*
X182090000Y-56130000D03*
X155120000Y-60150000D03*
X159330000Y-33460000D03*
X155100000Y-70290000D03*
X191430000Y-46070000D03*
X191370000Y-51925000D03*
X155010000Y-57600000D03*
X158320000Y-33440000D03*
X155100000Y-67790000D03*
%TO.N,VDD*%
X196140000Y-54920000D03*
X178560000Y-54140000D03*
X179770000Y-66370000D03*
X177480000Y-51840000D03*
X181450000Y-74590000D03*
X177630000Y-45140000D03*
X168690000Y-44960000D03*
X182190000Y-54090000D03*
X202090000Y-57280000D03*
X192960000Y-74460000D03*
X195520000Y-74500000D03*
X196140000Y-52250000D03*
X177470000Y-46280000D03*
X183950000Y-74590000D03*
X177470000Y-48710000D03*
X196140000Y-71590000D03*
X200760000Y-66400000D03*
%TO.N,/I2C/SD1*%
X199600000Y-70250000D03*
%TO.N,/I2C/SC2*%
X192990000Y-78960000D03*
%TO.N,/I2C/SD3*%
X183960000Y-79360000D03*
%TO.N,/MISO*%
X183410000Y-37240000D03*
%TO.N,/CS*%
X174007500Y-66360000D03*
%TO.N,/CS1*%
X188930000Y-34000000D03*
%TD*%
%TA.AperFunction,Conductor*%
%TO.N,GND*%
G36*
X205002702Y-20500617D02*
G01*
X205386771Y-20517386D01*
X205397506Y-20518326D01*
X205775971Y-20568152D01*
X205786597Y-20570025D01*
X206159284Y-20652648D01*
X206169710Y-20655442D01*
X206533765Y-20770227D01*
X206543911Y-20773920D01*
X206896578Y-20920000D01*
X206906369Y-20924566D01*
X207244942Y-21100816D01*
X207254310Y-21106224D01*
X207576244Y-21311318D01*
X207585105Y-21317523D01*
X207887930Y-21549889D01*
X207896217Y-21556843D01*
X208177635Y-21814715D01*
X208185284Y-21822364D01*
X208443156Y-22103782D01*
X208450110Y-22112069D01*
X208682476Y-22414894D01*
X208688681Y-22423755D01*
X208893775Y-22745689D01*
X208899183Y-22755057D01*
X209075430Y-23093623D01*
X209080002Y-23103427D01*
X209226075Y-23456078D01*
X209229775Y-23466244D01*
X209344554Y-23830278D01*
X209347354Y-23840727D01*
X209429971Y-24213389D01*
X209431849Y-24224042D01*
X209481671Y-24602473D01*
X209482614Y-24613249D01*
X209499382Y-24997297D01*
X209499500Y-25002706D01*
X209499500Y-84997293D01*
X209499382Y-85002702D01*
X209482614Y-85386750D01*
X209481671Y-85397526D01*
X209431849Y-85775957D01*
X209429971Y-85786610D01*
X209347354Y-86159272D01*
X209344554Y-86169721D01*
X209229775Y-86533755D01*
X209226075Y-86543921D01*
X209080002Y-86896572D01*
X209075430Y-86906376D01*
X208899183Y-87244942D01*
X208893775Y-87254310D01*
X208688681Y-87576244D01*
X208682476Y-87585105D01*
X208450110Y-87887930D01*
X208443156Y-87896217D01*
X208185284Y-88177635D01*
X208177635Y-88185284D01*
X207896217Y-88443156D01*
X207887930Y-88450110D01*
X207585105Y-88682476D01*
X207576244Y-88688681D01*
X207254310Y-88893775D01*
X207244942Y-88899183D01*
X206906376Y-89075430D01*
X206896572Y-89080002D01*
X206543921Y-89226075D01*
X206533755Y-89229775D01*
X206169721Y-89344554D01*
X206159272Y-89347354D01*
X205786610Y-89429971D01*
X205775957Y-89431849D01*
X205397526Y-89481671D01*
X205386750Y-89482614D01*
X205002703Y-89499382D01*
X204997294Y-89499500D01*
X145002706Y-89499500D01*
X144997297Y-89499382D01*
X144613249Y-89482614D01*
X144602473Y-89481671D01*
X144224042Y-89431849D01*
X144213389Y-89429971D01*
X143840727Y-89347354D01*
X143830278Y-89344554D01*
X143466244Y-89229775D01*
X143456078Y-89226075D01*
X143103427Y-89080002D01*
X143093623Y-89075430D01*
X142755057Y-88899183D01*
X142745689Y-88893775D01*
X142423755Y-88688681D01*
X142414894Y-88682476D01*
X142112069Y-88450110D01*
X142103782Y-88443156D01*
X141822364Y-88185284D01*
X141814715Y-88177635D01*
X141556843Y-87896217D01*
X141549889Y-87887930D01*
X141317523Y-87585105D01*
X141311318Y-87576244D01*
X141106224Y-87254310D01*
X141100816Y-87244942D01*
X141091162Y-87226397D01*
X140924566Y-86906369D01*
X140919997Y-86896572D01*
X140891854Y-86828628D01*
X140773920Y-86543911D01*
X140770224Y-86533755D01*
X140655442Y-86169710D01*
X140652648Y-86159284D01*
X140570025Y-85786597D01*
X140568152Y-85775971D01*
X140518326Y-85397506D01*
X140517386Y-85386771D01*
X140500618Y-85002702D01*
X140500559Y-85000000D01*
X142695065Y-85000000D01*
X142714784Y-85300852D01*
X142714786Y-85300864D01*
X142773602Y-85596553D01*
X142773607Y-85596573D01*
X142870514Y-85882052D01*
X142870518Y-85882062D01*
X143003868Y-86152469D01*
X143171371Y-86403155D01*
X143171374Y-86403159D01*
X143204973Y-86441470D01*
X143204974Y-86441470D01*
X143705747Y-85940697D01*
X143779588Y-86042330D01*
X143957670Y-86220412D01*
X144059301Y-86294251D01*
X143558528Y-86795024D01*
X143558528Y-86795025D01*
X143596840Y-86828625D01*
X143596844Y-86828628D01*
X143847530Y-86996131D01*
X144117937Y-87129481D01*
X144117947Y-87129485D01*
X144403426Y-87226392D01*
X144403446Y-87226397D01*
X144699135Y-87285213D01*
X144699147Y-87285215D01*
X145000000Y-87304934D01*
X145300852Y-87285215D01*
X145300864Y-87285213D01*
X145596553Y-87226397D01*
X145596573Y-87226392D01*
X145882052Y-87129485D01*
X145882062Y-87129481D01*
X146152469Y-86996131D01*
X146403157Y-86828627D01*
X146441470Y-86795025D01*
X146441470Y-86795023D01*
X145940698Y-86294251D01*
X146042330Y-86220412D01*
X146220412Y-86042330D01*
X146294251Y-85940698D01*
X146795023Y-86441470D01*
X146795025Y-86441470D01*
X146828627Y-86403157D01*
X146996131Y-86152469D01*
X147129481Y-85882062D01*
X147129485Y-85882052D01*
X147226392Y-85596573D01*
X147226397Y-85596553D01*
X147285213Y-85300864D01*
X147285215Y-85300852D01*
X147304934Y-85000000D01*
X147285215Y-84699147D01*
X147285213Y-84699135D01*
X147256118Y-84552866D01*
X174979500Y-84552866D01*
X175013245Y-84765922D01*
X175013246Y-84765926D01*
X175079908Y-84971089D01*
X175177843Y-85163299D01*
X175304641Y-85337821D01*
X175457179Y-85490359D01*
X175631701Y-85617157D01*
X175823911Y-85715092D01*
X176029074Y-85781754D01*
X176096796Y-85792480D01*
X176242134Y-85815500D01*
X176242139Y-85815500D01*
X176457866Y-85815500D01*
X176576230Y-85796752D01*
X176670926Y-85781754D01*
X176876089Y-85715092D01*
X177068299Y-85617157D01*
X177242821Y-85490359D01*
X177395359Y-85337821D01*
X177519991Y-85166279D01*
X177575321Y-85123614D01*
X177644934Y-85117635D01*
X177706729Y-85150241D01*
X177720627Y-85166279D01*
X177845025Y-85337496D01*
X177845025Y-85337497D01*
X177997502Y-85489974D01*
X178171963Y-85616728D01*
X178364098Y-85714627D01*
X178569190Y-85781266D01*
X178640000Y-85792481D01*
X178640000Y-84762709D01*
X178660339Y-84774452D01*
X178811667Y-84815000D01*
X178968333Y-84815000D01*
X179119661Y-84774452D01*
X179140000Y-84762709D01*
X179140000Y-85792480D01*
X179210809Y-85781266D01*
X179415901Y-85714627D01*
X179608036Y-85616728D01*
X179782496Y-85489974D01*
X179782497Y-85489974D01*
X179934974Y-85337497D01*
X179934979Y-85337491D01*
X180059372Y-85166280D01*
X180114702Y-85123614D01*
X180184315Y-85117635D01*
X180246110Y-85150241D01*
X180260008Y-85166279D01*
X180384641Y-85337821D01*
X180537179Y-85490359D01*
X180711701Y-85617157D01*
X180903911Y-85715092D01*
X181109074Y-85781754D01*
X181176796Y-85792480D01*
X181322134Y-85815500D01*
X181322139Y-85815500D01*
X181537866Y-85815500D01*
X181656230Y-85796752D01*
X181750926Y-85781754D01*
X181956089Y-85715092D01*
X182148299Y-85617157D01*
X182322821Y-85490359D01*
X182464807Y-85348372D01*
X182526126Y-85314890D01*
X182595818Y-85319874D01*
X182651752Y-85361745D01*
X182664864Y-85383645D01*
X182665181Y-85384326D01*
X182665186Y-85384334D01*
X182757288Y-85533656D01*
X182881344Y-85657712D01*
X183030666Y-85749814D01*
X183197203Y-85804999D01*
X183299991Y-85815500D01*
X184640008Y-85815499D01*
X184742797Y-85804999D01*
X184909334Y-85749814D01*
X185058656Y-85657712D01*
X185182712Y-85533656D01*
X185274814Y-85384334D01*
X185329999Y-85217797D01*
X185340500Y-85115009D01*
X185340500Y-84482866D01*
X186489500Y-84482866D01*
X186515409Y-84646446D01*
X186523246Y-84695926D01*
X186589908Y-84901089D01*
X186687843Y-85093299D01*
X186814641Y-85267821D01*
X186967179Y-85420359D01*
X187141701Y-85547157D01*
X187333911Y-85645092D01*
X187539074Y-85711754D01*
X187606796Y-85722480D01*
X187752134Y-85745500D01*
X187752139Y-85745500D01*
X187967866Y-85745500D01*
X188086230Y-85726752D01*
X188180926Y-85711754D01*
X188386089Y-85645092D01*
X188578299Y-85547157D01*
X188752821Y-85420359D01*
X188905359Y-85267821D01*
X189029991Y-85096279D01*
X189085321Y-85053614D01*
X189154934Y-85047635D01*
X189216729Y-85080241D01*
X189230627Y-85096279D01*
X189355025Y-85267496D01*
X189355025Y-85267497D01*
X189507502Y-85419974D01*
X189681963Y-85546728D01*
X189874098Y-85644627D01*
X190079190Y-85711266D01*
X190150000Y-85722481D01*
X190150000Y-84692709D01*
X190170339Y-84704452D01*
X190321667Y-84745000D01*
X190478333Y-84745000D01*
X190629661Y-84704452D01*
X190650000Y-84692709D01*
X190650000Y-85722480D01*
X190720809Y-85711266D01*
X190925901Y-85644627D01*
X191118036Y-85546728D01*
X191292496Y-85419974D01*
X191292497Y-85419974D01*
X191444974Y-85267497D01*
X191444979Y-85267491D01*
X191569372Y-85096280D01*
X191624702Y-85053614D01*
X191694315Y-85047635D01*
X191756110Y-85080241D01*
X191770008Y-85096279D01*
X191894641Y-85267821D01*
X192047179Y-85420359D01*
X192221701Y-85547157D01*
X192413911Y-85645092D01*
X192619074Y-85711754D01*
X192686796Y-85722480D01*
X192832134Y-85745500D01*
X192832139Y-85745500D01*
X193047866Y-85745500D01*
X193166230Y-85726752D01*
X193260926Y-85711754D01*
X193466089Y-85645092D01*
X193658299Y-85547157D01*
X193832821Y-85420359D01*
X193974807Y-85278372D01*
X194036126Y-85244890D01*
X194105818Y-85249874D01*
X194161752Y-85291745D01*
X194174864Y-85313645D01*
X194175181Y-85314326D01*
X194175186Y-85314334D01*
X194267288Y-85463656D01*
X194391344Y-85587712D01*
X194540666Y-85679814D01*
X194707203Y-85734999D01*
X194809991Y-85745500D01*
X196150008Y-85745499D01*
X196252797Y-85734999D01*
X196419334Y-85679814D01*
X196568656Y-85587712D01*
X196692712Y-85463656D01*
X196784814Y-85314334D01*
X196839999Y-85147797D01*
X196850500Y-85045009D01*
X196850500Y-85000000D01*
X202695065Y-85000000D01*
X202714784Y-85300852D01*
X202714786Y-85300864D01*
X202773602Y-85596553D01*
X202773607Y-85596573D01*
X202870514Y-85882052D01*
X202870518Y-85882062D01*
X203003868Y-86152469D01*
X203171371Y-86403155D01*
X203171374Y-86403159D01*
X203204973Y-86441470D01*
X203204974Y-86441470D01*
X203705747Y-85940697D01*
X203779588Y-86042330D01*
X203957670Y-86220412D01*
X204059301Y-86294251D01*
X203558528Y-86795024D01*
X203558528Y-86795025D01*
X203596840Y-86828625D01*
X203596844Y-86828628D01*
X203847530Y-86996131D01*
X204117937Y-87129481D01*
X204117947Y-87129485D01*
X204403426Y-87226392D01*
X204403446Y-87226397D01*
X204699135Y-87285213D01*
X204699147Y-87285215D01*
X205000000Y-87304934D01*
X205300852Y-87285215D01*
X205300864Y-87285213D01*
X205596553Y-87226397D01*
X205596573Y-87226392D01*
X205882052Y-87129485D01*
X205882062Y-87129481D01*
X206152469Y-86996131D01*
X206403157Y-86828627D01*
X206441470Y-86795025D01*
X206441470Y-86795023D01*
X205940698Y-86294251D01*
X206042330Y-86220412D01*
X206220412Y-86042330D01*
X206294251Y-85940698D01*
X206795023Y-86441470D01*
X206795025Y-86441470D01*
X206828627Y-86403157D01*
X206996131Y-86152469D01*
X207129481Y-85882062D01*
X207129485Y-85882052D01*
X207226392Y-85596573D01*
X207226397Y-85596553D01*
X207285213Y-85300864D01*
X207285215Y-85300852D01*
X207304934Y-85000000D01*
X207285215Y-84699147D01*
X207285213Y-84699135D01*
X207226397Y-84403446D01*
X207226393Y-84403431D01*
X207129483Y-84117944D01*
X207129474Y-84117923D01*
X206996129Y-83847528D01*
X206828633Y-83596851D01*
X206828625Y-83596840D01*
X206795025Y-83558528D01*
X206795024Y-83558528D01*
X206294251Y-84059300D01*
X206220412Y-83957670D01*
X206042330Y-83779588D01*
X205940697Y-83705747D01*
X206441470Y-83204974D01*
X206441470Y-83204973D01*
X206403159Y-83171374D01*
X206403155Y-83171371D01*
X206152469Y-83003868D01*
X205882062Y-82870518D01*
X205882052Y-82870514D01*
X205596573Y-82773607D01*
X205596553Y-82773602D01*
X205300864Y-82714786D01*
X205300852Y-82714784D01*
X205000000Y-82695065D01*
X204699147Y-82714784D01*
X204699135Y-82714786D01*
X204403446Y-82773602D01*
X204403431Y-82773606D01*
X204117944Y-82870516D01*
X204117923Y-82870525D01*
X203847528Y-83003870D01*
X203596844Y-83171370D01*
X203596837Y-83171376D01*
X203558528Y-83204972D01*
X203558527Y-83204974D01*
X204059301Y-83705748D01*
X203957670Y-83779588D01*
X203779588Y-83957670D01*
X203705748Y-84059301D01*
X203204974Y-83558527D01*
X203204972Y-83558528D01*
X203171376Y-83596837D01*
X203171370Y-83596844D01*
X203003870Y-83847528D01*
X202870525Y-84117923D01*
X202870516Y-84117944D01*
X202773606Y-84403431D01*
X202773602Y-84403446D01*
X202714786Y-84699135D01*
X202714784Y-84699147D01*
X202695065Y-85000000D01*
X196850500Y-85000000D01*
X196850499Y-83254992D01*
X196839999Y-83152203D01*
X196784814Y-82985666D01*
X196692712Y-82836344D01*
X196568656Y-82712288D01*
X196475628Y-82654908D01*
X196419336Y-82620187D01*
X196419331Y-82620185D01*
X196417862Y-82619698D01*
X196252797Y-82565001D01*
X196252795Y-82565000D01*
X196150010Y-82554500D01*
X194809998Y-82554500D01*
X194809981Y-82554501D01*
X194707203Y-82565000D01*
X194707200Y-82565001D01*
X194540668Y-82620185D01*
X194540663Y-82620187D01*
X194391342Y-82712289D01*
X194267289Y-82836342D01*
X194175179Y-82985677D01*
X194174861Y-82986360D01*
X194174518Y-82986748D01*
X194171395Y-82991813D01*
X194170529Y-82991278D01*
X194128683Y-83038794D01*
X194061487Y-83057939D01*
X193994608Y-83037716D01*
X193974804Y-83021624D01*
X193832823Y-82879643D01*
X193832821Y-82879641D01*
X193658299Y-82752843D01*
X193466089Y-82654908D01*
X193260926Y-82588246D01*
X193260924Y-82588245D01*
X193260922Y-82588245D01*
X193047866Y-82554500D01*
X193047861Y-82554500D01*
X192832139Y-82554500D01*
X192832134Y-82554500D01*
X192619077Y-82588245D01*
X192619074Y-82588246D01*
X192507497Y-82624500D01*
X192413908Y-82654909D01*
X192221700Y-82752843D01*
X192124765Y-82823271D01*
X192047179Y-82879641D01*
X192047177Y-82879643D01*
X192047176Y-82879643D01*
X191894642Y-83032177D01*
X191770008Y-83203720D01*
X191714677Y-83246385D01*
X191645064Y-83252364D01*
X191583269Y-83219758D01*
X191569372Y-83203720D01*
X191444974Y-83032503D01*
X191444974Y-83032502D01*
X191292497Y-82880025D01*
X191118036Y-82753271D01*
X190925899Y-82655372D01*
X190720805Y-82588733D01*
X190650000Y-82577518D01*
X190650000Y-83607290D01*
X190629661Y-83595548D01*
X190478333Y-83555000D01*
X190321667Y-83555000D01*
X190170339Y-83595548D01*
X190150000Y-83607290D01*
X190150000Y-82577518D01*
X190149999Y-82577518D01*
X190079194Y-82588733D01*
X189874100Y-82655372D01*
X189681963Y-82753271D01*
X189507503Y-82880025D01*
X189507502Y-82880025D01*
X189355024Y-83032503D01*
X189230627Y-83203720D01*
X189175296Y-83246385D01*
X189105683Y-83252364D01*
X189043888Y-83219758D01*
X189029991Y-83203720D01*
X188905359Y-83032179D01*
X188752821Y-82879641D01*
X188578299Y-82752843D01*
X188386089Y-82654908D01*
X188180926Y-82588246D01*
X188180924Y-82588245D01*
X188180922Y-82588245D01*
X187967866Y-82554500D01*
X187967861Y-82554500D01*
X187752139Y-82554500D01*
X187752134Y-82554500D01*
X187539077Y-82588245D01*
X187539074Y-82588246D01*
X187427497Y-82624500D01*
X187333908Y-82654909D01*
X187141700Y-82752843D01*
X187044765Y-82823271D01*
X186967179Y-82879641D01*
X186967177Y-82879643D01*
X186967176Y-82879643D01*
X186814643Y-83032176D01*
X186814643Y-83032177D01*
X186814641Y-83032179D01*
X186760186Y-83107129D01*
X186687843Y-83206700D01*
X186589909Y-83398908D01*
X186523245Y-83604077D01*
X186489500Y-83817133D01*
X186489500Y-84482866D01*
X185340500Y-84482866D01*
X185340499Y-83324992D01*
X185329999Y-83222203D01*
X185274814Y-83055666D01*
X185182712Y-82906344D01*
X185058656Y-82782288D01*
X184909334Y-82690186D01*
X184742797Y-82635001D01*
X184742795Y-82635000D01*
X184640010Y-82624500D01*
X183299998Y-82624500D01*
X183299981Y-82624501D01*
X183197203Y-82635000D01*
X183197200Y-82635001D01*
X183030668Y-82690185D01*
X183030663Y-82690187D01*
X182881342Y-82782289D01*
X182757289Y-82906342D01*
X182665179Y-83055677D01*
X182664861Y-83056360D01*
X182664518Y-83056748D01*
X182661395Y-83061813D01*
X182660529Y-83061278D01*
X182618683Y-83108794D01*
X182551487Y-83127939D01*
X182484608Y-83107716D01*
X182464804Y-83091624D01*
X182322823Y-82949643D01*
X182322821Y-82949641D01*
X182148299Y-82822843D01*
X181956089Y-82724908D01*
X181750926Y-82658246D01*
X181750924Y-82658245D01*
X181750922Y-82658245D01*
X181537866Y-82624500D01*
X181537861Y-82624500D01*
X181322139Y-82624500D01*
X181322134Y-82624500D01*
X181109077Y-82658245D01*
X180903908Y-82724909D01*
X180711700Y-82822843D01*
X180633525Y-82879641D01*
X180537179Y-82949641D01*
X180537177Y-82949643D01*
X180537176Y-82949643D01*
X180384642Y-83102177D01*
X180260008Y-83273720D01*
X180204677Y-83316385D01*
X180135064Y-83322364D01*
X180073269Y-83289758D01*
X180059372Y-83273720D01*
X179934974Y-83102503D01*
X179934974Y-83102502D01*
X179782497Y-82950025D01*
X179608036Y-82823271D01*
X179415899Y-82725372D01*
X179210805Y-82658733D01*
X179140000Y-82647518D01*
X179140000Y-83677290D01*
X179119661Y-83665548D01*
X178968333Y-83625000D01*
X178811667Y-83625000D01*
X178660339Y-83665548D01*
X178640000Y-83677290D01*
X178640000Y-82647518D01*
X178639999Y-82647518D01*
X178569194Y-82658733D01*
X178364100Y-82725372D01*
X178171963Y-82823271D01*
X177997503Y-82950025D01*
X177997502Y-82950025D01*
X177845024Y-83102503D01*
X177720627Y-83273720D01*
X177665296Y-83316385D01*
X177595683Y-83322364D01*
X177533888Y-83289758D01*
X177519991Y-83273720D01*
X177395359Y-83102179D01*
X177242821Y-82949641D01*
X177068299Y-82822843D01*
X176876089Y-82724908D01*
X176670926Y-82658246D01*
X176670924Y-82658245D01*
X176670922Y-82658245D01*
X176457866Y-82624500D01*
X176457861Y-82624500D01*
X176242139Y-82624500D01*
X176242134Y-82624500D01*
X176029077Y-82658245D01*
X175823908Y-82724909D01*
X175631700Y-82822843D01*
X175553525Y-82879641D01*
X175457179Y-82949641D01*
X175457177Y-82949643D01*
X175457176Y-82949643D01*
X175304643Y-83102176D01*
X175304643Y-83102177D01*
X175304641Y-83102179D01*
X175254371Y-83171370D01*
X175177843Y-83276700D01*
X175079909Y-83468908D01*
X175013245Y-83674077D01*
X174979500Y-83887133D01*
X174979500Y-84552866D01*
X147256118Y-84552866D01*
X147226397Y-84403446D01*
X147226393Y-84403431D01*
X147129483Y-84117944D01*
X147129474Y-84117923D01*
X146996129Y-83847528D01*
X146828633Y-83596851D01*
X146828625Y-83596840D01*
X146795025Y-83558528D01*
X146795024Y-83558528D01*
X146294251Y-84059300D01*
X146220412Y-83957670D01*
X146042330Y-83779588D01*
X145940697Y-83705747D01*
X146441470Y-83204974D01*
X146441470Y-83204973D01*
X146403159Y-83171374D01*
X146403155Y-83171371D01*
X146152469Y-83003868D01*
X145882062Y-82870518D01*
X145882052Y-82870514D01*
X145596573Y-82773607D01*
X145596553Y-82773602D01*
X145300864Y-82714786D01*
X145300852Y-82714784D01*
X145000000Y-82695065D01*
X144699147Y-82714784D01*
X144699135Y-82714786D01*
X144403446Y-82773602D01*
X144403431Y-82773606D01*
X144117944Y-82870516D01*
X144117923Y-82870525D01*
X143847528Y-83003870D01*
X143596844Y-83171370D01*
X143596837Y-83171376D01*
X143558528Y-83204972D01*
X143558527Y-83204974D01*
X144059301Y-83705748D01*
X143957670Y-83779588D01*
X143779588Y-83957670D01*
X143705748Y-84059301D01*
X143204974Y-83558527D01*
X143204972Y-83558528D01*
X143171376Y-83596837D01*
X143171370Y-83596844D01*
X143003870Y-83847528D01*
X142870525Y-84117923D01*
X142870516Y-84117944D01*
X142773606Y-84403431D01*
X142773602Y-84403446D01*
X142714786Y-84699135D01*
X142714784Y-84699147D01*
X142695065Y-85000000D01*
X140500559Y-85000000D01*
X140500500Y-84997293D01*
X140500500Y-79360003D01*
X183154435Y-79360003D01*
X183174630Y-79539249D01*
X183174631Y-79539254D01*
X183234211Y-79709523D01*
X183256735Y-79745369D01*
X183330184Y-79862262D01*
X183457738Y-79989816D01*
X183548080Y-80046582D01*
X183595043Y-80076091D01*
X183610478Y-80085789D01*
X183780745Y-80145368D01*
X183780750Y-80145369D01*
X183959996Y-80165565D01*
X183960000Y-80165565D01*
X183960004Y-80165565D01*
X184139249Y-80145369D01*
X184139252Y-80145368D01*
X184139255Y-80145368D01*
X184309522Y-80085789D01*
X184462262Y-79989816D01*
X184589816Y-79862262D01*
X184685789Y-79709522D01*
X184745368Y-79539255D01*
X184754043Y-79462262D01*
X184765565Y-79360003D01*
X184765565Y-79359996D01*
X184745369Y-79180750D01*
X184745368Y-79180745D01*
X184685788Y-79010476D01*
X184654073Y-78960003D01*
X192184435Y-78960003D01*
X192204630Y-79139249D01*
X192204631Y-79139254D01*
X192264211Y-79309523D01*
X192295926Y-79359996D01*
X192360184Y-79462262D01*
X192487738Y-79589816D01*
X192640478Y-79685789D01*
X192708306Y-79709523D01*
X192810745Y-79745368D01*
X192810750Y-79745369D01*
X192989996Y-79765565D01*
X192990000Y-79765565D01*
X192990004Y-79765565D01*
X193169249Y-79745369D01*
X193169252Y-79745368D01*
X193169255Y-79745368D01*
X193339522Y-79685789D01*
X193383961Y-79657866D01*
X203834500Y-79657866D01*
X203868245Y-79870922D01*
X203868246Y-79870926D01*
X203934908Y-80076089D01*
X204032843Y-80268299D01*
X204159641Y-80442821D01*
X204312179Y-80595359D01*
X204486701Y-80722157D01*
X204678911Y-80820092D01*
X204884074Y-80886754D01*
X204963973Y-80899408D01*
X205097134Y-80920500D01*
X205097139Y-80920500D01*
X205762866Y-80920500D01*
X205881230Y-80901752D01*
X205975926Y-80886754D01*
X206181089Y-80820092D01*
X206373299Y-80722157D01*
X206547821Y-80595359D01*
X206700359Y-80442821D01*
X206827157Y-80268299D01*
X206925092Y-80076089D01*
X206991754Y-79870926D01*
X207006752Y-79776230D01*
X207025500Y-79657866D01*
X207025500Y-79442133D01*
X206991754Y-79229077D01*
X206991754Y-79229074D01*
X206925092Y-79023911D01*
X206827157Y-78831701D01*
X206700359Y-78657179D01*
X206547821Y-78504641D01*
X206376279Y-78380008D01*
X206333614Y-78324678D01*
X206327635Y-78255064D01*
X206360241Y-78193269D01*
X206376280Y-78179372D01*
X206547491Y-78054979D01*
X206547497Y-78054974D01*
X206699974Y-77902497D01*
X206699974Y-77902496D01*
X206826728Y-77728036D01*
X206924627Y-77535901D01*
X206991266Y-77330809D01*
X207002481Y-77260000D01*
X205972709Y-77260000D01*
X205984452Y-77239661D01*
X206025000Y-77088333D01*
X206025000Y-76931667D01*
X205984452Y-76780339D01*
X205972709Y-76760000D01*
X207002481Y-76760000D01*
X206991266Y-76689190D01*
X206924627Y-76484098D01*
X206826728Y-76291963D01*
X206699974Y-76117503D01*
X206699974Y-76117502D01*
X206547497Y-75965025D01*
X206376279Y-75840627D01*
X206333614Y-75785297D01*
X206327635Y-75715683D01*
X206360241Y-75653888D01*
X206376280Y-75639991D01*
X206547821Y-75515359D01*
X206700359Y-75362821D01*
X206827157Y-75188299D01*
X206925092Y-74996089D01*
X206991754Y-74790926D01*
X207009605Y-74678219D01*
X207025500Y-74577866D01*
X207025500Y-74362133D01*
X206992198Y-74151879D01*
X206991754Y-74149074D01*
X206925092Y-73943911D01*
X206827157Y-73751701D01*
X206700359Y-73577179D01*
X206558375Y-73435195D01*
X206524890Y-73373872D01*
X206529874Y-73304180D01*
X206571746Y-73248247D01*
X206593657Y-73235129D01*
X206594322Y-73234817D01*
X206594334Y-73234814D01*
X206743656Y-73142712D01*
X206867712Y-73018656D01*
X206959814Y-72869334D01*
X207014999Y-72702797D01*
X207025500Y-72600009D01*
X207025499Y-71259992D01*
X207023505Y-71240476D01*
X207014999Y-71157203D01*
X207014998Y-71157200D01*
X206999716Y-71111082D01*
X206959814Y-70990666D01*
X206867712Y-70841344D01*
X206743656Y-70717288D01*
X206594334Y-70625186D01*
X206427797Y-70570001D01*
X206427795Y-70570000D01*
X206325010Y-70559500D01*
X204534998Y-70559500D01*
X204534981Y-70559501D01*
X204432203Y-70570000D01*
X204432200Y-70570001D01*
X204265668Y-70625185D01*
X204265663Y-70625187D01*
X204116342Y-70717289D01*
X203992289Y-70841342D01*
X203900187Y-70990663D01*
X203900185Y-70990668D01*
X203872349Y-71074670D01*
X203845001Y-71157203D01*
X203845001Y-71157204D01*
X203845000Y-71157204D01*
X203834500Y-71259983D01*
X203834500Y-72600001D01*
X203834501Y-72600018D01*
X203845000Y-72702796D01*
X203845001Y-72702799D01*
X203890465Y-72839998D01*
X203900186Y-72869334D01*
X203992288Y-73018656D01*
X204116344Y-73142712D01*
X204265666Y-73234814D01*
X204265668Y-73234814D01*
X204265669Y-73234815D01*
X204266348Y-73235132D01*
X204266735Y-73235473D01*
X204271813Y-73238605D01*
X204271277Y-73239472D01*
X204318787Y-73281304D01*
X204337939Y-73348498D01*
X204317723Y-73415379D01*
X204301625Y-73435195D01*
X204159640Y-73577180D01*
X204032843Y-73751700D01*
X203934909Y-73943908D01*
X203934908Y-73943910D01*
X203934908Y-73943911D01*
X203930416Y-73957737D01*
X203868245Y-74149077D01*
X203834500Y-74362133D01*
X203834500Y-74577866D01*
X203868245Y-74790922D01*
X203868246Y-74790926D01*
X203934908Y-74996089D01*
X204032843Y-75188299D01*
X204159641Y-75362821D01*
X204312179Y-75515359D01*
X204483720Y-75639991D01*
X204526385Y-75695321D01*
X204532364Y-75764935D01*
X204499758Y-75826730D01*
X204483720Y-75840627D01*
X204312503Y-75965024D01*
X204160025Y-76117502D01*
X204160025Y-76117503D01*
X204033271Y-76291963D01*
X203935372Y-76484098D01*
X203868733Y-76689190D01*
X203857519Y-76760000D01*
X204887291Y-76760000D01*
X204875548Y-76780339D01*
X204835000Y-76931667D01*
X204835000Y-77088333D01*
X204875548Y-77239661D01*
X204887291Y-77260000D01*
X203857519Y-77260000D01*
X203868733Y-77330809D01*
X203935372Y-77535901D01*
X204033271Y-77728036D01*
X204160025Y-77902496D01*
X204160025Y-77902497D01*
X204312502Y-78054974D01*
X204483720Y-78179372D01*
X204526385Y-78234702D01*
X204532364Y-78304316D01*
X204499758Y-78366110D01*
X204483720Y-78380008D01*
X204312177Y-78504642D01*
X204159643Y-78657176D01*
X204159643Y-78657177D01*
X204159641Y-78657179D01*
X204106600Y-78730184D01*
X204032843Y-78831700D01*
X203934909Y-79023908D01*
X203868245Y-79229077D01*
X203834500Y-79442133D01*
X203834500Y-79657866D01*
X193383961Y-79657866D01*
X193492262Y-79589816D01*
X193619816Y-79462262D01*
X193715789Y-79309522D01*
X193775368Y-79139255D01*
X193788364Y-79023911D01*
X193795565Y-78960003D01*
X193795565Y-78959996D01*
X193775369Y-78780750D01*
X193775368Y-78780745D01*
X193732130Y-78657179D01*
X193715789Y-78610478D01*
X193693265Y-78574632D01*
X193619815Y-78457737D01*
X193492262Y-78330184D01*
X193339523Y-78234211D01*
X193169254Y-78174631D01*
X193169249Y-78174630D01*
X192990004Y-78154435D01*
X192989996Y-78154435D01*
X192810750Y-78174630D01*
X192810745Y-78174631D01*
X192640476Y-78234211D01*
X192487737Y-78330184D01*
X192360184Y-78457737D01*
X192264211Y-78610476D01*
X192204631Y-78780745D01*
X192204630Y-78780750D01*
X192184435Y-78959996D01*
X192184435Y-78960003D01*
X184654073Y-78960003D01*
X184589815Y-78857737D01*
X184462262Y-78730184D01*
X184309523Y-78634211D01*
X184139254Y-78574631D01*
X184139249Y-78574630D01*
X183960004Y-78554435D01*
X183959996Y-78554435D01*
X183780750Y-78574630D01*
X183780745Y-78574631D01*
X183610476Y-78634211D01*
X183457737Y-78730184D01*
X183330184Y-78857737D01*
X183234211Y-79010476D01*
X183174631Y-79180745D01*
X183174630Y-79180750D01*
X183154435Y-79359996D01*
X183154435Y-79360003D01*
X140500500Y-79360003D01*
X140500500Y-72780000D01*
X143644341Y-72780000D01*
X143664936Y-73015403D01*
X143664938Y-73015413D01*
X143726094Y-73243655D01*
X143726096Y-73243659D01*
X143726097Y-73243663D01*
X143806170Y-73415379D01*
X143825965Y-73457830D01*
X143825967Y-73457834D01*
X143909532Y-73577176D01*
X143961501Y-73651396D01*
X143961506Y-73651402D01*
X144128597Y-73818493D01*
X144128603Y-73818498D01*
X144159378Y-73840047D01*
X144307711Y-73943911D01*
X144314594Y-73948730D01*
X144358219Y-74003307D01*
X144365413Y-74072805D01*
X144333890Y-74135160D01*
X144314595Y-74151880D01*
X144128922Y-74281890D01*
X144128920Y-74281891D01*
X143961891Y-74448920D01*
X143961886Y-74448926D01*
X143826400Y-74642420D01*
X143826399Y-74642422D01*
X143726570Y-74856507D01*
X143726567Y-74856513D01*
X143669364Y-75069999D01*
X143669364Y-75070000D01*
X144566988Y-75070000D01*
X144534075Y-75127007D01*
X144500000Y-75254174D01*
X144500000Y-75385826D01*
X144534075Y-75512993D01*
X144566988Y-75570000D01*
X143669364Y-75570000D01*
X143726567Y-75783486D01*
X143726570Y-75783492D01*
X143826399Y-75997578D01*
X143961894Y-76191082D01*
X144128917Y-76358105D01*
X144322421Y-76493600D01*
X144536507Y-76593429D01*
X144536516Y-76593433D01*
X144750000Y-76650634D01*
X144750000Y-75753012D01*
X144807007Y-75785925D01*
X144934174Y-75820000D01*
X145065826Y-75820000D01*
X145192993Y-75785925D01*
X145250000Y-75753012D01*
X145250000Y-76650633D01*
X145463483Y-76593433D01*
X145463492Y-76593429D01*
X145677578Y-76493600D01*
X145871082Y-76358105D01*
X146038105Y-76191082D01*
X146168119Y-76005405D01*
X146222696Y-75961781D01*
X146292195Y-75954588D01*
X146354549Y-75986110D01*
X146371269Y-76005405D01*
X146501505Y-76191401D01*
X146668599Y-76358495D01*
X146765384Y-76426265D01*
X146862165Y-76494032D01*
X146862167Y-76494033D01*
X146862170Y-76494035D01*
X147076337Y-76593903D01*
X147304592Y-76655063D01*
X147492918Y-76671539D01*
X147539999Y-76675659D01*
X147540000Y-76675659D01*
X147540001Y-76675659D01*
X147579234Y-76672226D01*
X147775408Y-76655063D01*
X148003663Y-76593903D01*
X148217830Y-76494035D01*
X148411401Y-76358495D01*
X148578495Y-76191401D01*
X148714035Y-75997830D01*
X148813903Y-75783663D01*
X148875063Y-75555408D01*
X148890409Y-75380001D01*
X159994532Y-75380001D01*
X160014364Y-75606686D01*
X160014366Y-75606697D01*
X160073258Y-75826488D01*
X160073261Y-75826497D01*
X160169431Y-76032732D01*
X160169432Y-76032734D01*
X160299954Y-76219141D01*
X160460858Y-76380045D01*
X160460861Y-76380047D01*
X160647266Y-76510568D01*
X160853504Y-76606739D01*
X161073308Y-76665635D01*
X161235230Y-76679801D01*
X161299998Y-76685468D01*
X161300000Y-76685468D01*
X161300002Y-76685468D01*
X161356673Y-76680509D01*
X161526692Y-76665635D01*
X161746496Y-76606739D01*
X161952734Y-76510568D01*
X162139139Y-76380047D01*
X162300047Y-76219139D01*
X162430568Y-76032734D01*
X162526739Y-75826496D01*
X162585635Y-75606692D01*
X162605468Y-75380000D01*
X162585635Y-75153308D01*
X162526739Y-74933504D01*
X162430568Y-74727266D01*
X162300047Y-74540861D01*
X162300045Y-74540858D01*
X162139141Y-74379954D01*
X161952734Y-74249432D01*
X161952728Y-74249429D01*
X161894725Y-74222382D01*
X161842285Y-74176210D01*
X161823133Y-74109017D01*
X161843348Y-74042135D01*
X161894725Y-73997618D01*
X161952734Y-73970568D01*
X162139139Y-73840047D01*
X162300047Y-73679139D01*
X162430568Y-73492734D01*
X162526739Y-73286496D01*
X162585635Y-73066692D01*
X162605468Y-72840001D01*
X167614532Y-72840001D01*
X167634364Y-73066686D01*
X167634366Y-73066697D01*
X167693258Y-73286488D01*
X167693261Y-73286497D01*
X167789431Y-73492732D01*
X167789432Y-73492734D01*
X167919954Y-73679141D01*
X168080858Y-73840045D01*
X168080861Y-73840047D01*
X168267266Y-73970568D01*
X168325865Y-73997893D01*
X168378305Y-74044065D01*
X168397457Y-74111258D01*
X168377242Y-74178139D01*
X168325867Y-74222657D01*
X168267515Y-74249867D01*
X168081179Y-74380342D01*
X167920342Y-74541179D01*
X167789865Y-74727517D01*
X167693734Y-74933673D01*
X167693730Y-74933682D01*
X167641127Y-75129999D01*
X167641128Y-75130000D01*
X168604314Y-75130000D01*
X168599920Y-75134394D01*
X168547259Y-75225606D01*
X168520000Y-75327339D01*
X168520000Y-75432661D01*
X168547259Y-75534394D01*
X168599920Y-75625606D01*
X168604314Y-75630000D01*
X167641128Y-75630000D01*
X167693730Y-75826317D01*
X167693734Y-75826326D01*
X167789865Y-76032482D01*
X167920342Y-76218820D01*
X168081179Y-76379657D01*
X168267517Y-76510134D01*
X168473673Y-76606265D01*
X168473682Y-76606269D01*
X168669999Y-76658872D01*
X168670000Y-76658871D01*
X168670000Y-75695686D01*
X168674394Y-75700080D01*
X168765606Y-75752741D01*
X168867339Y-75780000D01*
X168972661Y-75780000D01*
X169074394Y-75752741D01*
X169165606Y-75700080D01*
X169170000Y-75695686D01*
X169170000Y-76658872D01*
X169366317Y-76606269D01*
X169366326Y-76606265D01*
X169572482Y-76510134D01*
X169758820Y-76379657D01*
X169919657Y-76218820D01*
X170050134Y-76032482D01*
X170146265Y-75826326D01*
X170146269Y-75826317D01*
X170198872Y-75630000D01*
X169235686Y-75630000D01*
X169240080Y-75625606D01*
X169292741Y-75534394D01*
X169320000Y-75432661D01*
X169320000Y-75327339D01*
X169292741Y-75225606D01*
X169240080Y-75134394D01*
X169235686Y-75130000D01*
X170198872Y-75130000D01*
X170198872Y-75129999D01*
X170146269Y-74933682D01*
X170146265Y-74933673D01*
X170050134Y-74727517D01*
X169953844Y-74590003D01*
X180644435Y-74590003D01*
X180664630Y-74769249D01*
X180664631Y-74769254D01*
X180724211Y-74939523D01*
X180763633Y-75002262D01*
X180820184Y-75092262D01*
X180947738Y-75219816D01*
X181020547Y-75265565D01*
X181084206Y-75305565D01*
X181100478Y-75315789D01*
X181270745Y-75375368D01*
X181270750Y-75375369D01*
X181449996Y-75395565D01*
X181450000Y-75395565D01*
X181450004Y-75395565D01*
X181629249Y-75375369D01*
X181629252Y-75375368D01*
X181629255Y-75375368D01*
X181799522Y-75315789D01*
X181952262Y-75219816D01*
X182079816Y-75092262D01*
X182175789Y-74939522D01*
X182235368Y-74769255D01*
X182244815Y-74685412D01*
X182255565Y-74590003D01*
X183144435Y-74590003D01*
X183164630Y-74769249D01*
X183164631Y-74769254D01*
X183224211Y-74939523D01*
X183263633Y-75002262D01*
X183320184Y-75092262D01*
X183447738Y-75219816D01*
X183520547Y-75265565D01*
X183584206Y-75305565D01*
X183600478Y-75315789D01*
X183770745Y-75375368D01*
X183770750Y-75375369D01*
X183949996Y-75395565D01*
X183950000Y-75395565D01*
X183950004Y-75395565D01*
X184129249Y-75375369D01*
X184129252Y-75375368D01*
X184129255Y-75375368D01*
X184299522Y-75315789D01*
X184452262Y-75219816D01*
X184579816Y-75092262D01*
X184675789Y-74939522D01*
X184735368Y-74769255D01*
X184744815Y-74685412D01*
X184755565Y-74590003D01*
X184755565Y-74589996D01*
X184740918Y-74460003D01*
X192154435Y-74460003D01*
X192174630Y-74639249D01*
X192174631Y-74639254D01*
X192234211Y-74809523D01*
X192312220Y-74933673D01*
X192330184Y-74962262D01*
X192457738Y-75089816D01*
X192610478Y-75185789D01*
X192780745Y-75245368D01*
X192780750Y-75245369D01*
X192959996Y-75265565D01*
X192960000Y-75265565D01*
X192960004Y-75265565D01*
X193139249Y-75245369D01*
X193139252Y-75245368D01*
X193139255Y-75245368D01*
X193309522Y-75185789D01*
X193462262Y-75089816D01*
X193589816Y-74962262D01*
X193685789Y-74809522D01*
X193745368Y-74639255D01*
X193745893Y-74634594D01*
X193761058Y-74500003D01*
X194714435Y-74500003D01*
X194734630Y-74679249D01*
X194734631Y-74679254D01*
X194794211Y-74849523D01*
X194847092Y-74933682D01*
X194890184Y-75002262D01*
X195017738Y-75129816D01*
X195106817Y-75185788D01*
X195170186Y-75225606D01*
X195170478Y-75225789D01*
X195340745Y-75285368D01*
X195340750Y-75285369D01*
X195519996Y-75305565D01*
X195520000Y-75305565D01*
X195520004Y-75305565D01*
X195699249Y-75285369D01*
X195699252Y-75285368D01*
X195699255Y-75285368D01*
X195869522Y-75225789D01*
X196022262Y-75129816D01*
X196149816Y-75002262D01*
X196245789Y-74849522D01*
X196305368Y-74679255D01*
X196309518Y-74642422D01*
X196325565Y-74500003D01*
X196325565Y-74499996D01*
X196305369Y-74320750D01*
X196305368Y-74320745D01*
X196280566Y-74249865D01*
X196245789Y-74150478D01*
X196242953Y-74145965D01*
X196177885Y-74042410D01*
X196149816Y-73997738D01*
X196022262Y-73870184D01*
X196012756Y-73864211D01*
X195869523Y-73774211D01*
X195699254Y-73714631D01*
X195699249Y-73714630D01*
X195520004Y-73694435D01*
X195519996Y-73694435D01*
X195340750Y-73714630D01*
X195340745Y-73714631D01*
X195170476Y-73774211D01*
X195017737Y-73870184D01*
X194890184Y-73997737D01*
X194794211Y-74150476D01*
X194734631Y-74320745D01*
X194734630Y-74320750D01*
X194714435Y-74499996D01*
X194714435Y-74500003D01*
X193761058Y-74500003D01*
X193765565Y-74460003D01*
X193765565Y-74459996D01*
X193745369Y-74280750D01*
X193745368Y-74280745D01*
X193724946Y-74222382D01*
X193685789Y-74110478D01*
X193671500Y-74087738D01*
X193633841Y-74027804D01*
X193589816Y-73957738D01*
X193462262Y-73830184D01*
X193443656Y-73818493D01*
X193309523Y-73734211D01*
X193139254Y-73674631D01*
X193139249Y-73674630D01*
X192960004Y-73654435D01*
X192959996Y-73654435D01*
X192780750Y-73674630D01*
X192780745Y-73674631D01*
X192610476Y-73734211D01*
X192457737Y-73830184D01*
X192330184Y-73957737D01*
X192234211Y-74110476D01*
X192174631Y-74280745D01*
X192174630Y-74280750D01*
X192154435Y-74459996D01*
X192154435Y-74460003D01*
X184740918Y-74460003D01*
X184735369Y-74410750D01*
X184735368Y-74410745D01*
X184675789Y-74240478D01*
X184579816Y-74087738D01*
X184452262Y-73960184D01*
X184426359Y-73943908D01*
X184299523Y-73864211D01*
X184129254Y-73804631D01*
X184129249Y-73804630D01*
X183950004Y-73784435D01*
X183949996Y-73784435D01*
X183770750Y-73804630D01*
X183770745Y-73804631D01*
X183600476Y-73864211D01*
X183447737Y-73960184D01*
X183320184Y-74087737D01*
X183224211Y-74240476D01*
X183164631Y-74410745D01*
X183164630Y-74410750D01*
X183144435Y-74589996D01*
X183144435Y-74590003D01*
X182255565Y-74590003D01*
X182255565Y-74589996D01*
X182235369Y-74410750D01*
X182235368Y-74410745D01*
X182175789Y-74240478D01*
X182079816Y-74087738D01*
X181952262Y-73960184D01*
X181926359Y-73943908D01*
X181799523Y-73864211D01*
X181629254Y-73804631D01*
X181629249Y-73804630D01*
X181450004Y-73784435D01*
X181449996Y-73784435D01*
X181270750Y-73804630D01*
X181270745Y-73804631D01*
X181100476Y-73864211D01*
X180947737Y-73960184D01*
X180820184Y-74087737D01*
X180724211Y-74240476D01*
X180664631Y-74410745D01*
X180664630Y-74410750D01*
X180644435Y-74589996D01*
X180644435Y-74590003D01*
X169953844Y-74590003D01*
X169919657Y-74541179D01*
X169758820Y-74380342D01*
X169572482Y-74249865D01*
X169514133Y-74222657D01*
X169461694Y-74176484D01*
X169442542Y-74109291D01*
X169462758Y-74042410D01*
X169514129Y-73997895D01*
X169572734Y-73970568D01*
X169759139Y-73840047D01*
X169920047Y-73679139D01*
X170050568Y-73492734D01*
X170146739Y-73286496D01*
X170205635Y-73066692D01*
X170225468Y-72840000D01*
X170205635Y-72613308D01*
X170146739Y-72393504D01*
X170050568Y-72187266D01*
X169920047Y-72000861D01*
X169920045Y-72000858D01*
X169759141Y-71839954D01*
X169572734Y-71709432D01*
X169572728Y-71709429D01*
X169514725Y-71682382D01*
X169462285Y-71636210D01*
X169449115Y-71590003D01*
X195334435Y-71590003D01*
X195354630Y-71769249D01*
X195354631Y-71769254D01*
X195414211Y-71939523D01*
X195452751Y-72000858D01*
X195510184Y-72092262D01*
X195637738Y-72219816D01*
X195790478Y-72315789D01*
X195960745Y-72375368D01*
X195960750Y-72375369D01*
X196139996Y-72395565D01*
X196140000Y-72395565D01*
X196140004Y-72395565D01*
X196319249Y-72375369D01*
X196319252Y-72375368D01*
X196319255Y-72375368D01*
X196489522Y-72315789D01*
X196642262Y-72219816D01*
X196769816Y-72092262D01*
X196865789Y-71939522D01*
X196925368Y-71769255D01*
X196928451Y-71741891D01*
X196945565Y-71590003D01*
X196945565Y-71589996D01*
X196925369Y-71410750D01*
X196925368Y-71410745D01*
X196879093Y-71278498D01*
X196865789Y-71240478D01*
X196769816Y-71087738D01*
X196642262Y-70960184D01*
X196586912Y-70925405D01*
X196489523Y-70864211D01*
X196319254Y-70804631D01*
X196319249Y-70804630D01*
X196140004Y-70784435D01*
X196139996Y-70784435D01*
X195960750Y-70804630D01*
X195960745Y-70804631D01*
X195790476Y-70864211D01*
X195637737Y-70960184D01*
X195510184Y-71087737D01*
X195414211Y-71240476D01*
X195354631Y-71410745D01*
X195354630Y-71410750D01*
X195334435Y-71589996D01*
X195334435Y-71590003D01*
X169449115Y-71590003D01*
X169443133Y-71569017D01*
X169463348Y-71502135D01*
X169514725Y-71457618D01*
X169572734Y-71430568D01*
X169759139Y-71300047D01*
X169920047Y-71139139D01*
X170050568Y-70952734D01*
X170146739Y-70746496D01*
X170205635Y-70526692D01*
X170225468Y-70300000D01*
X170221094Y-70250003D01*
X198794435Y-70250003D01*
X198814630Y-70429249D01*
X198814631Y-70429254D01*
X198874211Y-70599523D01*
X198948208Y-70717288D01*
X198970184Y-70752262D01*
X199097738Y-70879816D01*
X199250478Y-70975789D01*
X199293000Y-70990668D01*
X199420745Y-71035368D01*
X199420750Y-71035369D01*
X199599996Y-71055565D01*
X199600000Y-71055565D01*
X199600004Y-71055565D01*
X199779249Y-71035369D01*
X199779252Y-71035368D01*
X199779255Y-71035368D01*
X199949522Y-70975789D01*
X200102262Y-70879816D01*
X200229816Y-70752262D01*
X200325789Y-70599522D01*
X200385368Y-70429255D01*
X200399275Y-70305826D01*
X200405565Y-70250003D01*
X200405565Y-70249996D01*
X200385369Y-70070750D01*
X200385368Y-70070745D01*
X200325788Y-69900476D01*
X200286582Y-69838080D01*
X200229816Y-69747738D01*
X200102262Y-69620184D01*
X200028586Y-69573890D01*
X199949523Y-69524211D01*
X199779254Y-69464631D01*
X199779249Y-69464630D01*
X199600004Y-69444435D01*
X199599996Y-69444435D01*
X199420750Y-69464630D01*
X199420745Y-69464631D01*
X199250476Y-69524211D01*
X199097737Y-69620184D01*
X198970184Y-69747737D01*
X198874211Y-69900476D01*
X198814631Y-70070745D01*
X198814630Y-70070750D01*
X198794435Y-70249996D01*
X198794435Y-70250003D01*
X170221094Y-70250003D01*
X170205635Y-70073308D01*
X170146739Y-69853504D01*
X170050568Y-69647266D01*
X169926509Y-69470090D01*
X169920045Y-69460858D01*
X169759141Y-69299954D01*
X169572734Y-69169432D01*
X169572728Y-69169429D01*
X169514725Y-69142382D01*
X169462285Y-69096210D01*
X169443133Y-69029017D01*
X169463348Y-68962135D01*
X169514725Y-68917618D01*
X169572734Y-68890568D01*
X169759139Y-68760047D01*
X169920047Y-68599139D01*
X170050568Y-68412734D01*
X170099469Y-68307866D01*
X203854500Y-68307866D01*
X203871110Y-68412734D01*
X203888246Y-68520926D01*
X203954908Y-68726089D01*
X204052843Y-68918299D01*
X204179641Y-69092821D01*
X204332179Y-69245359D01*
X204506701Y-69372157D01*
X204698911Y-69470092D01*
X204904074Y-69536754D01*
X204983973Y-69549408D01*
X205117134Y-69570500D01*
X205117139Y-69570500D01*
X205782866Y-69570500D01*
X205901230Y-69551752D01*
X205995926Y-69536754D01*
X206201089Y-69470092D01*
X206393299Y-69372157D01*
X206567821Y-69245359D01*
X206720359Y-69092821D01*
X206847157Y-68918299D01*
X206945092Y-68726089D01*
X207011754Y-68520926D01*
X207033218Y-68385406D01*
X207045500Y-68307866D01*
X207045500Y-68092133D01*
X207020676Y-67935408D01*
X207011754Y-67879074D01*
X206945092Y-67673911D01*
X206847157Y-67481701D01*
X206720359Y-67307179D01*
X206567821Y-67154641D01*
X206396279Y-67030008D01*
X206353614Y-66974678D01*
X206347635Y-66905064D01*
X206380241Y-66843269D01*
X206396280Y-66829372D01*
X206567491Y-66704979D01*
X206567497Y-66704974D01*
X206719974Y-66552497D01*
X206719974Y-66552496D01*
X206846728Y-66378036D01*
X206944627Y-66185901D01*
X207011266Y-65980809D01*
X207022481Y-65910000D01*
X205992709Y-65910000D01*
X206004452Y-65889661D01*
X206045000Y-65738333D01*
X206045000Y-65581667D01*
X206004452Y-65430339D01*
X205992709Y-65410000D01*
X207022481Y-65410000D01*
X207011266Y-65339190D01*
X206944627Y-65134098D01*
X206846728Y-64941963D01*
X206719974Y-64767503D01*
X206719974Y-64767502D01*
X206567497Y-64615025D01*
X206396279Y-64490627D01*
X206353614Y-64435297D01*
X206347635Y-64365683D01*
X206380241Y-64303888D01*
X206396280Y-64289991D01*
X206398203Y-64288594D01*
X206567821Y-64165359D01*
X206720359Y-64012821D01*
X206847157Y-63838299D01*
X206945092Y-63646089D01*
X207011754Y-63440926D01*
X207033218Y-63305406D01*
X207045500Y-63227866D01*
X207045500Y-63012133D01*
X207020676Y-62855408D01*
X207011754Y-62799074D01*
X206945092Y-62593911D01*
X206847157Y-62401701D01*
X206720359Y-62227179D01*
X206578375Y-62085195D01*
X206544890Y-62023872D01*
X206549874Y-61954180D01*
X206591746Y-61898247D01*
X206613657Y-61885129D01*
X206614322Y-61884817D01*
X206614334Y-61884814D01*
X206763656Y-61792712D01*
X206887712Y-61668656D01*
X206979814Y-61519334D01*
X207034999Y-61352797D01*
X207045500Y-61250009D01*
X207045499Y-59909992D01*
X207034999Y-59807203D01*
X206979814Y-59640666D01*
X206887712Y-59491344D01*
X206763656Y-59367288D01*
X206614334Y-59275186D01*
X206447797Y-59220001D01*
X206447795Y-59220000D01*
X206345010Y-59209500D01*
X204554998Y-59209500D01*
X204554981Y-59209501D01*
X204452203Y-59220000D01*
X204452200Y-59220001D01*
X204285668Y-59275185D01*
X204285663Y-59275187D01*
X204136342Y-59367289D01*
X204012289Y-59491342D01*
X203920187Y-59640663D01*
X203920186Y-59640666D01*
X203865001Y-59807203D01*
X203865001Y-59807204D01*
X203865000Y-59807204D01*
X203854500Y-59909983D01*
X203854500Y-61250001D01*
X203854501Y-61250018D01*
X203865000Y-61352796D01*
X203865001Y-61352799D01*
X203920185Y-61519331D01*
X203920187Y-61519336D01*
X203939019Y-61549867D01*
X204012288Y-61668656D01*
X204136344Y-61792712D01*
X204285666Y-61884814D01*
X204285668Y-61884814D01*
X204285669Y-61884815D01*
X204286348Y-61885132D01*
X204286735Y-61885473D01*
X204291813Y-61888605D01*
X204291277Y-61889472D01*
X204338787Y-61931304D01*
X204357939Y-61998498D01*
X204337723Y-62065379D01*
X204321625Y-62085195D01*
X204179640Y-62227180D01*
X204052843Y-62401700D01*
X203954909Y-62593908D01*
X203888245Y-62799077D01*
X203854500Y-63012133D01*
X203854500Y-63227866D01*
X203871110Y-63332734D01*
X203888246Y-63440926D01*
X203954908Y-63646089D01*
X204052843Y-63838299D01*
X204179641Y-64012821D01*
X204332179Y-64165359D01*
X204501797Y-64288594D01*
X204503720Y-64289991D01*
X204546385Y-64345321D01*
X204552364Y-64414935D01*
X204519758Y-64476730D01*
X204503720Y-64490627D01*
X204332503Y-64615024D01*
X204180025Y-64767502D01*
X204180025Y-64767503D01*
X204053271Y-64941963D01*
X203955372Y-65134098D01*
X203888733Y-65339190D01*
X203877519Y-65410000D01*
X204907291Y-65410000D01*
X204895548Y-65430339D01*
X204855000Y-65581667D01*
X204855000Y-65738333D01*
X204895548Y-65889661D01*
X204907291Y-65910000D01*
X203877519Y-65910000D01*
X203888733Y-65980809D01*
X203955372Y-66185901D01*
X204053271Y-66378036D01*
X204180025Y-66552496D01*
X204180025Y-66552497D01*
X204332502Y-66704974D01*
X204503720Y-66829372D01*
X204546385Y-66884702D01*
X204552364Y-66954316D01*
X204519758Y-67016110D01*
X204503720Y-67030008D01*
X204332177Y-67154642D01*
X204179643Y-67307176D01*
X204179643Y-67307177D01*
X204179641Y-67307179D01*
X204175046Y-67313504D01*
X204052843Y-67481700D01*
X203954909Y-67673908D01*
X203888245Y-67879077D01*
X203854500Y-68092133D01*
X203854500Y-68307866D01*
X170099469Y-68307866D01*
X170146739Y-68206496D01*
X170205635Y-67986692D01*
X170225468Y-67760000D01*
X170205635Y-67533308D01*
X170146739Y-67313504D01*
X170050568Y-67107266D01*
X169920047Y-66920861D01*
X169920045Y-66920858D01*
X169759141Y-66759954D01*
X169572734Y-66629432D01*
X169572728Y-66629429D01*
X169514725Y-66602382D01*
X169462285Y-66556210D01*
X169443133Y-66489017D01*
X169463348Y-66422135D01*
X169514725Y-66377618D01*
X169552501Y-66360003D01*
X173201935Y-66360003D01*
X173222130Y-66539249D01*
X173222131Y-66539254D01*
X173281711Y-66709523D01*
X173357018Y-66829372D01*
X173377684Y-66862262D01*
X173505238Y-66989816D01*
X173657978Y-67085789D01*
X173828245Y-67145368D01*
X173828250Y-67145369D01*
X174007496Y-67165565D01*
X174007500Y-67165565D01*
X174007504Y-67165565D01*
X174186749Y-67145369D01*
X174186752Y-67145368D01*
X174186755Y-67145368D01*
X174357022Y-67085789D01*
X174509762Y-66989816D01*
X174637316Y-66862262D01*
X174733289Y-66709522D01*
X174792868Y-66539255D01*
X174792869Y-66539249D01*
X174811938Y-66370003D01*
X178964435Y-66370003D01*
X178984630Y-66549249D01*
X178984631Y-66549254D01*
X179044211Y-66719523D01*
X179112954Y-66828926D01*
X179140184Y-66872262D01*
X179267738Y-66999816D01*
X179358080Y-67056582D01*
X179404561Y-67085788D01*
X179420478Y-67095789D01*
X179588667Y-67154641D01*
X179590745Y-67155368D01*
X179590750Y-67155369D01*
X179769996Y-67175565D01*
X179770000Y-67175565D01*
X179770004Y-67175565D01*
X179949249Y-67155369D01*
X179949252Y-67155368D01*
X179949255Y-67155368D01*
X180119522Y-67095789D01*
X180272262Y-66999816D01*
X180399816Y-66872262D01*
X180495789Y-66719522D01*
X180555368Y-66549255D01*
X180556495Y-66539254D01*
X180572185Y-66400003D01*
X199954435Y-66400003D01*
X199974630Y-66579249D01*
X199974631Y-66579254D01*
X200034211Y-66749523D01*
X200111334Y-66872262D01*
X200130184Y-66902262D01*
X200257738Y-67029816D01*
X200410478Y-67125789D01*
X200552730Y-67175565D01*
X200580745Y-67185368D01*
X200580750Y-67185369D01*
X200759996Y-67205565D01*
X200760000Y-67205565D01*
X200760004Y-67205565D01*
X200939249Y-67185369D01*
X200939252Y-67185368D01*
X200939255Y-67185368D01*
X201109522Y-67125789D01*
X201262262Y-67029816D01*
X201389816Y-66902262D01*
X201485789Y-66749522D01*
X201545368Y-66579255D01*
X201548748Y-66549255D01*
X201565565Y-66400003D01*
X201565565Y-66399996D01*
X201545369Y-66220750D01*
X201545368Y-66220745D01*
X201534872Y-66190750D01*
X201485789Y-66050478D01*
X201473801Y-66031400D01*
X201442013Y-65980809D01*
X201389816Y-65897738D01*
X201262262Y-65770184D01*
X201109523Y-65674211D01*
X200939254Y-65614631D01*
X200939249Y-65614630D01*
X200760004Y-65594435D01*
X200759996Y-65594435D01*
X200580750Y-65614630D01*
X200580745Y-65614631D01*
X200410476Y-65674211D01*
X200257737Y-65770184D01*
X200130184Y-65897737D01*
X200034211Y-66050476D01*
X199974631Y-66220745D01*
X199974630Y-66220750D01*
X199954435Y-66399996D01*
X199954435Y-66400003D01*
X180572185Y-66400003D01*
X180575565Y-66370003D01*
X180575565Y-66369996D01*
X180555369Y-66190750D01*
X180555368Y-66190745D01*
X180499611Y-66031401D01*
X180495789Y-66020478D01*
X180489504Y-66010476D01*
X180418666Y-65897738D01*
X180399816Y-65867738D01*
X180272262Y-65740184D01*
X180167267Y-65674211D01*
X180119523Y-65644211D01*
X179949254Y-65584631D01*
X179949249Y-65584630D01*
X179770004Y-65564435D01*
X179769996Y-65564435D01*
X179590750Y-65584630D01*
X179590745Y-65584631D01*
X179420476Y-65644211D01*
X179267737Y-65740184D01*
X179140184Y-65867737D01*
X179044211Y-66020476D01*
X178984631Y-66190745D01*
X178984630Y-66190750D01*
X178964435Y-66369996D01*
X178964435Y-66370003D01*
X174811938Y-66370003D01*
X174813065Y-66360003D01*
X174813065Y-66359996D01*
X174792869Y-66180750D01*
X174792868Y-66180745D01*
X174750316Y-66059139D01*
X174733289Y-66010478D01*
X174637316Y-65857738D01*
X174509762Y-65730184D01*
X174408405Y-65666497D01*
X174357023Y-65634211D01*
X174186754Y-65574631D01*
X174186749Y-65574630D01*
X174007504Y-65554435D01*
X174007496Y-65554435D01*
X173828250Y-65574630D01*
X173828245Y-65574631D01*
X173657976Y-65634211D01*
X173505237Y-65730184D01*
X173377684Y-65857737D01*
X173281711Y-66010476D01*
X173222131Y-66180745D01*
X173222130Y-66180750D01*
X173201935Y-66359996D01*
X173201935Y-66360003D01*
X169552501Y-66360003D01*
X169572734Y-66350568D01*
X169759139Y-66220047D01*
X169920047Y-66059139D01*
X170050568Y-65872734D01*
X170146739Y-65666496D01*
X170205635Y-65446692D01*
X170225468Y-65220000D01*
X170205635Y-64993308D01*
X170146739Y-64773504D01*
X170050568Y-64567266D01*
X169920047Y-64380861D01*
X169920045Y-64380858D01*
X169759141Y-64219954D01*
X169572734Y-64089432D01*
X169572732Y-64089431D01*
X169514725Y-64062382D01*
X169514132Y-64062105D01*
X169461694Y-64015934D01*
X169442542Y-63948740D01*
X169462758Y-63881859D01*
X169514134Y-63837341D01*
X169572484Y-63810132D01*
X169758820Y-63679657D01*
X169919657Y-63518820D01*
X170050134Y-63332482D01*
X170146265Y-63126326D01*
X170146269Y-63126317D01*
X170198872Y-62930000D01*
X169235686Y-62930000D01*
X169240080Y-62925606D01*
X169292741Y-62834394D01*
X169320000Y-62732661D01*
X169320000Y-62627339D01*
X169292741Y-62525606D01*
X169240080Y-62434394D01*
X169235686Y-62430000D01*
X170198872Y-62430000D01*
X170198872Y-62429999D01*
X170146269Y-62233682D01*
X170146265Y-62233673D01*
X170050134Y-62027517D01*
X169919657Y-61841179D01*
X169758820Y-61680342D01*
X169572482Y-61549865D01*
X169514133Y-61522657D01*
X169461694Y-61476484D01*
X169442542Y-61409291D01*
X169462758Y-61342410D01*
X169514129Y-61297895D01*
X169572734Y-61270568D01*
X169759139Y-61140047D01*
X169920047Y-60979139D01*
X170050568Y-60792734D01*
X170146739Y-60586496D01*
X170205635Y-60366692D01*
X170225468Y-60140000D01*
X170205635Y-59913308D01*
X170146739Y-59693504D01*
X170050568Y-59487266D01*
X169920047Y-59300861D01*
X169920045Y-59300858D01*
X169893442Y-59274255D01*
X172501857Y-59274255D01*
X172522390Y-59522062D01*
X172522392Y-59522074D01*
X172583436Y-59763131D01*
X172683326Y-59990856D01*
X172819333Y-60199032D01*
X172819336Y-60199035D01*
X172987756Y-60381988D01*
X173183991Y-60534724D01*
X173402690Y-60653078D01*
X173637886Y-60733821D01*
X173883165Y-60774750D01*
X174131835Y-60774750D01*
X174377114Y-60733821D01*
X174612310Y-60653078D01*
X174831009Y-60534724D01*
X175027244Y-60381988D01*
X175195664Y-60199035D01*
X175331673Y-59990857D01*
X175431563Y-59763131D01*
X175492608Y-59522071D01*
X175495154Y-59491344D01*
X175513143Y-59274255D01*
X197901857Y-59274255D01*
X197922390Y-59522062D01*
X197922392Y-59522074D01*
X197983436Y-59763131D01*
X198083326Y-59990856D01*
X198219333Y-60199032D01*
X198219336Y-60199035D01*
X198387756Y-60381988D01*
X198583991Y-60534724D01*
X198802690Y-60653078D01*
X199037886Y-60733821D01*
X199283165Y-60774750D01*
X199531835Y-60774750D01*
X199777114Y-60733821D01*
X200012310Y-60653078D01*
X200231009Y-60534724D01*
X200427244Y-60381988D01*
X200595664Y-60199035D01*
X200731673Y-59990857D01*
X200831563Y-59763131D01*
X200892608Y-59522071D01*
X200895154Y-59491344D01*
X200913143Y-59274255D01*
X200913143Y-59274244D01*
X200892609Y-59026437D01*
X200892607Y-59026425D01*
X200831563Y-58785368D01*
X200731673Y-58557643D01*
X200595666Y-58349467D01*
X200574057Y-58325994D01*
X200427244Y-58166512D01*
X200344491Y-58102102D01*
X200303679Y-58045393D01*
X200300004Y-57975620D01*
X200334636Y-57914937D01*
X200344485Y-57906401D01*
X200427244Y-57841988D01*
X200595664Y-57659035D01*
X200731673Y-57450857D01*
X200806617Y-57280003D01*
X201284435Y-57280003D01*
X201304630Y-57459249D01*
X201304631Y-57459254D01*
X201364211Y-57629523D01*
X201419498Y-57717511D01*
X201460184Y-57782262D01*
X201587738Y-57909816D01*
X201635933Y-57940099D01*
X201738028Y-58004250D01*
X201740478Y-58005789D01*
X201853660Y-58045393D01*
X201910745Y-58065368D01*
X201910750Y-58065369D01*
X202089996Y-58085565D01*
X202090000Y-58085565D01*
X202090004Y-58085565D01*
X202269249Y-58065369D01*
X202269252Y-58065368D01*
X202269255Y-58065368D01*
X202439522Y-58005789D01*
X202592262Y-57909816D01*
X202719816Y-57782262D01*
X202815789Y-57629522D01*
X202875368Y-57459255D01*
X202875369Y-57459249D01*
X202895565Y-57280003D01*
X202895565Y-57279996D01*
X202875369Y-57100750D01*
X202875368Y-57100745D01*
X202833839Y-56982062D01*
X202815789Y-56930478D01*
X202719816Y-56777738D01*
X202592262Y-56650184D01*
X202439523Y-56554211D01*
X202269254Y-56494631D01*
X202269249Y-56494630D01*
X202090004Y-56474435D01*
X202089996Y-56474435D01*
X201910750Y-56494630D01*
X201910745Y-56494631D01*
X201740476Y-56554211D01*
X201587737Y-56650184D01*
X201460184Y-56777737D01*
X201364211Y-56930476D01*
X201304631Y-57100745D01*
X201304630Y-57100750D01*
X201284435Y-57279996D01*
X201284435Y-57280003D01*
X200806617Y-57280003D01*
X200831563Y-57223131D01*
X200892608Y-56982071D01*
X200896883Y-56930478D01*
X200913143Y-56734255D01*
X200913143Y-56734244D01*
X200892609Y-56486437D01*
X200892607Y-56486425D01*
X200831563Y-56245368D01*
X200731673Y-56017643D01*
X200595666Y-55809467D01*
X200574057Y-55785994D01*
X200427244Y-55626512D01*
X200344491Y-55562102D01*
X200303679Y-55505393D01*
X200300004Y-55435620D01*
X200334636Y-55374937D01*
X200344485Y-55366401D01*
X200427244Y-55301988D01*
X200595664Y-55119035D01*
X200731673Y-54910857D01*
X200831563Y-54683131D01*
X200892608Y-54442071D01*
X200892819Y-54439522D01*
X200913143Y-54194255D01*
X200913143Y-54194244D01*
X200892609Y-53946437D01*
X200892607Y-53946425D01*
X200831563Y-53705368D01*
X200731673Y-53477643D01*
X200595666Y-53269467D01*
X200574057Y-53245994D01*
X200427244Y-53086512D01*
X200344491Y-53022102D01*
X200303679Y-52965393D01*
X200300004Y-52895620D01*
X200334636Y-52834937D01*
X200344485Y-52826401D01*
X200427244Y-52761988D01*
X200595664Y-52579035D01*
X200731673Y-52370857D01*
X200831563Y-52143131D01*
X200892608Y-51902071D01*
X200897751Y-51840003D01*
X200913143Y-51654255D01*
X200913143Y-51654244D01*
X200892609Y-51406437D01*
X200892607Y-51406425D01*
X200870721Y-51320000D01*
X203644341Y-51320000D01*
X203664936Y-51555403D01*
X203664938Y-51555413D01*
X203726094Y-51783655D01*
X203726096Y-51783659D01*
X203726097Y-51783663D01*
X203752369Y-51840003D01*
X203825965Y-51997830D01*
X203825967Y-51997834D01*
X203877024Y-52070750D01*
X203961501Y-52191396D01*
X203961506Y-52191402D01*
X204083430Y-52313326D01*
X204116915Y-52374649D01*
X204111931Y-52444341D01*
X204070059Y-52500274D01*
X204039083Y-52517189D01*
X203907669Y-52566203D01*
X203907664Y-52566206D01*
X203792455Y-52652452D01*
X203792452Y-52652455D01*
X203706206Y-52767664D01*
X203706202Y-52767671D01*
X203655908Y-52902517D01*
X203653572Y-52924250D01*
X203649501Y-52962123D01*
X203649500Y-52962135D01*
X203649500Y-54757870D01*
X203649501Y-54757876D01*
X203655908Y-54817483D01*
X203706202Y-54952328D01*
X203706206Y-54952335D01*
X203792452Y-55067544D01*
X203792455Y-55067547D01*
X203907664Y-55153793D01*
X203907671Y-55153797D01*
X204042517Y-55204091D01*
X204042516Y-55204091D01*
X204049444Y-55204835D01*
X204102127Y-55210500D01*
X205897872Y-55210499D01*
X205957483Y-55204091D01*
X206092331Y-55153796D01*
X206207546Y-55067546D01*
X206293796Y-54952331D01*
X206344091Y-54817483D01*
X206350500Y-54757873D01*
X206350499Y-52962128D01*
X206344091Y-52902517D01*
X206318885Y-52834937D01*
X206293797Y-52767671D01*
X206293793Y-52767664D01*
X206207547Y-52652455D01*
X206207544Y-52652452D01*
X206092335Y-52566206D01*
X206092328Y-52566202D01*
X205960917Y-52517189D01*
X205904983Y-52475318D01*
X205880566Y-52409853D01*
X205895418Y-52341580D01*
X205916563Y-52313332D01*
X206038495Y-52191401D01*
X206174035Y-51997830D01*
X206273903Y-51783663D01*
X206335063Y-51555408D01*
X206355659Y-51320000D01*
X206335063Y-51084592D01*
X206273903Y-50856337D01*
X206174035Y-50642171D01*
X206107055Y-50546512D01*
X206038494Y-50448597D01*
X205871402Y-50281506D01*
X205871396Y-50281501D01*
X205685842Y-50151575D01*
X205642217Y-50096998D01*
X205635023Y-50027500D01*
X205666546Y-49965145D01*
X205685842Y-49948425D01*
X205853746Y-49830857D01*
X205871401Y-49818495D01*
X206038495Y-49651401D01*
X206174035Y-49457830D01*
X206273903Y-49243663D01*
X206335063Y-49015408D01*
X206355659Y-48780000D01*
X206335063Y-48544592D01*
X206273903Y-48316337D01*
X206174035Y-48102171D01*
X206107055Y-48006512D01*
X206038494Y-47908597D01*
X205871402Y-47741506D01*
X205871396Y-47741501D01*
X205685842Y-47611575D01*
X205642217Y-47556998D01*
X205635023Y-47487500D01*
X205666546Y-47425145D01*
X205685842Y-47408425D01*
X205853746Y-47290857D01*
X205871401Y-47278495D01*
X206038495Y-47111401D01*
X206174035Y-46917830D01*
X206273903Y-46703663D01*
X206335063Y-46475408D01*
X206355659Y-46240000D01*
X206335063Y-46004592D01*
X206276673Y-45786674D01*
X206273905Y-45776344D01*
X206273904Y-45776343D01*
X206273903Y-45776337D01*
X206174035Y-45562171D01*
X206123165Y-45489520D01*
X206038494Y-45368597D01*
X205871402Y-45201506D01*
X205871396Y-45201501D01*
X205685842Y-45071575D01*
X205642217Y-45016998D01*
X205635023Y-44947500D01*
X205666546Y-44885145D01*
X205685842Y-44868425D01*
X205708026Y-44852891D01*
X205871401Y-44738495D01*
X206038495Y-44571401D01*
X206174035Y-44377830D01*
X206273903Y-44163663D01*
X206335063Y-43935408D01*
X206355659Y-43700000D01*
X206335063Y-43464592D01*
X206273903Y-43236337D01*
X206174035Y-43022171D01*
X206107055Y-42926512D01*
X206038494Y-42828597D01*
X205871402Y-42661506D01*
X205871396Y-42661501D01*
X205685842Y-42531575D01*
X205642217Y-42476998D01*
X205635023Y-42407500D01*
X205666546Y-42345145D01*
X205685842Y-42328425D01*
X205853746Y-42210857D01*
X205871401Y-42198495D01*
X206038495Y-42031401D01*
X206174035Y-41837830D01*
X206273903Y-41623663D01*
X206335063Y-41395408D01*
X206355659Y-41160000D01*
X206335063Y-40924592D01*
X206273903Y-40696337D01*
X206174035Y-40482171D01*
X206107055Y-40386512D01*
X206038494Y-40288597D01*
X205871402Y-40121506D01*
X205871396Y-40121501D01*
X205685842Y-39991575D01*
X205642217Y-39936998D01*
X205635023Y-39867500D01*
X205666546Y-39805145D01*
X205685842Y-39788425D01*
X205853746Y-39670857D01*
X205871401Y-39658495D01*
X206038495Y-39491401D01*
X206174035Y-39297830D01*
X206273903Y-39083663D01*
X206335063Y-38855408D01*
X206355659Y-38620000D01*
X206335063Y-38384592D01*
X206273903Y-38156337D01*
X206174035Y-37942171D01*
X206107055Y-37846512D01*
X206038494Y-37748597D01*
X205871402Y-37581506D01*
X205871396Y-37581501D01*
X205685842Y-37451575D01*
X205642217Y-37396998D01*
X205635023Y-37327500D01*
X205666546Y-37265145D01*
X205685842Y-37248425D01*
X205853746Y-37130857D01*
X205871401Y-37118495D01*
X206038495Y-36951401D01*
X206174035Y-36757830D01*
X206273903Y-36543663D01*
X206335063Y-36315408D01*
X206355659Y-36080000D01*
X206335063Y-35844592D01*
X206273903Y-35616337D01*
X206174035Y-35402171D01*
X206107055Y-35306512D01*
X206038494Y-35208597D01*
X205871402Y-35041506D01*
X205871396Y-35041501D01*
X205685842Y-34911575D01*
X205642217Y-34856998D01*
X205635023Y-34787500D01*
X205666546Y-34725145D01*
X205685842Y-34708425D01*
X205798107Y-34629816D01*
X205871401Y-34578495D01*
X206038495Y-34411401D01*
X206174035Y-34217830D01*
X206273903Y-34003663D01*
X206335063Y-33775408D01*
X206355659Y-33540000D01*
X206335063Y-33304592D01*
X206273903Y-33076337D01*
X206174035Y-32862171D01*
X206107055Y-32766512D01*
X206038494Y-32668597D01*
X205871402Y-32501506D01*
X205871396Y-32501501D01*
X205685842Y-32371575D01*
X205642217Y-32316998D01*
X205635023Y-32247500D01*
X205666546Y-32185145D01*
X205685842Y-32168425D01*
X205708026Y-32152891D01*
X205871401Y-32038495D01*
X206038495Y-31871401D01*
X206174035Y-31677830D01*
X206273903Y-31463663D01*
X206335063Y-31235408D01*
X206355659Y-31000000D01*
X206335063Y-30764592D01*
X206273903Y-30536337D01*
X206174035Y-30322171D01*
X206107055Y-30226512D01*
X206038494Y-30128597D01*
X205871402Y-29961506D01*
X205871395Y-29961501D01*
X205677834Y-29825967D01*
X205677830Y-29825965D01*
X205677828Y-29825964D01*
X205463663Y-29726097D01*
X205463659Y-29726096D01*
X205463655Y-29726094D01*
X205235413Y-29664938D01*
X205235403Y-29664936D01*
X205000001Y-29644341D01*
X204999999Y-29644341D01*
X204764596Y-29664936D01*
X204764586Y-29664938D01*
X204536344Y-29726094D01*
X204536335Y-29726098D01*
X204322171Y-29825964D01*
X204322169Y-29825965D01*
X204128597Y-29961505D01*
X203961505Y-30128597D01*
X203825965Y-30322169D01*
X203825964Y-30322171D01*
X203726098Y-30536335D01*
X203726094Y-30536344D01*
X203664938Y-30764586D01*
X203664936Y-30764596D01*
X203644341Y-30999999D01*
X203644341Y-31000000D01*
X203664936Y-31235403D01*
X203664938Y-31235413D01*
X203726094Y-31463655D01*
X203726096Y-31463659D01*
X203726097Y-31463663D01*
X203781308Y-31582062D01*
X203825965Y-31677830D01*
X203825967Y-31677834D01*
X203961501Y-31871395D01*
X203961506Y-31871402D01*
X204128597Y-32038493D01*
X204128603Y-32038498D01*
X204314158Y-32168425D01*
X204357783Y-32223002D01*
X204364977Y-32292500D01*
X204333454Y-32354855D01*
X204314158Y-32371575D01*
X204128597Y-32501505D01*
X203961505Y-32668597D01*
X203825965Y-32862169D01*
X203825964Y-32862171D01*
X203726098Y-33076335D01*
X203726094Y-33076344D01*
X203664938Y-33304586D01*
X203664936Y-33304596D01*
X203644341Y-33539999D01*
X203644341Y-33540000D01*
X203664936Y-33775403D01*
X203664938Y-33775413D01*
X203726094Y-34003655D01*
X203726096Y-34003659D01*
X203726097Y-34003663D01*
X203781308Y-34122062D01*
X203825965Y-34217830D01*
X203825967Y-34217834D01*
X203961501Y-34411395D01*
X203961506Y-34411402D01*
X204128597Y-34578493D01*
X204128603Y-34578498D01*
X204314158Y-34708425D01*
X204357783Y-34763002D01*
X204364977Y-34832500D01*
X204333454Y-34894855D01*
X204314158Y-34911575D01*
X204128597Y-35041505D01*
X203961505Y-35208597D01*
X203825965Y-35402169D01*
X203825964Y-35402171D01*
X203726098Y-35616335D01*
X203726094Y-35616344D01*
X203664938Y-35844586D01*
X203664936Y-35844596D01*
X203644341Y-36079999D01*
X203644341Y-36080000D01*
X203664936Y-36315403D01*
X203664938Y-36315413D01*
X203726094Y-36543655D01*
X203726096Y-36543659D01*
X203726097Y-36543663D01*
X203816596Y-36737738D01*
X203825965Y-36757830D01*
X203825967Y-36757834D01*
X203961501Y-36951395D01*
X203961506Y-36951402D01*
X204128597Y-37118493D01*
X204128603Y-37118498D01*
X204314158Y-37248425D01*
X204357783Y-37303002D01*
X204364977Y-37372500D01*
X204333454Y-37434855D01*
X204314158Y-37451575D01*
X204128597Y-37581505D01*
X203961505Y-37748597D01*
X203825965Y-37942169D01*
X203825964Y-37942171D01*
X203726098Y-38156335D01*
X203726094Y-38156344D01*
X203664938Y-38384586D01*
X203664936Y-38384596D01*
X203644341Y-38619999D01*
X203644341Y-38620000D01*
X203664936Y-38855403D01*
X203664938Y-38855413D01*
X203726094Y-39083655D01*
X203726096Y-39083659D01*
X203726097Y-39083663D01*
X203781308Y-39202062D01*
X203825965Y-39297830D01*
X203825967Y-39297834D01*
X203961501Y-39491395D01*
X203961506Y-39491402D01*
X204128597Y-39658493D01*
X204128603Y-39658498D01*
X204314158Y-39788425D01*
X204357783Y-39843002D01*
X204364977Y-39912500D01*
X204333454Y-39974855D01*
X204314158Y-39991575D01*
X204128597Y-40121505D01*
X203961505Y-40288597D01*
X203825965Y-40482169D01*
X203825964Y-40482171D01*
X203726098Y-40696335D01*
X203726094Y-40696344D01*
X203664938Y-40924586D01*
X203664936Y-40924596D01*
X203644341Y-41159999D01*
X203644341Y-41160000D01*
X203664936Y-41395403D01*
X203664938Y-41395413D01*
X203726094Y-41623655D01*
X203726096Y-41623659D01*
X203726097Y-41623663D01*
X203781308Y-41742062D01*
X203825965Y-41837830D01*
X203825967Y-41837834D01*
X203961501Y-42031395D01*
X203961506Y-42031402D01*
X204128597Y-42198493D01*
X204128603Y-42198498D01*
X204314158Y-42328425D01*
X204357783Y-42383002D01*
X204364977Y-42452500D01*
X204333454Y-42514855D01*
X204314158Y-42531575D01*
X204128597Y-42661505D01*
X203961505Y-42828597D01*
X203825965Y-43022169D01*
X203825964Y-43022171D01*
X203726098Y-43236335D01*
X203726094Y-43236344D01*
X203664938Y-43464586D01*
X203664936Y-43464596D01*
X203644341Y-43699999D01*
X203644341Y-43700000D01*
X203664936Y-43935403D01*
X203664938Y-43935413D01*
X203726094Y-44163655D01*
X203726096Y-44163659D01*
X203726097Y-44163663D01*
X203781308Y-44282062D01*
X203825965Y-44377830D01*
X203825967Y-44377834D01*
X203961501Y-44571395D01*
X203961506Y-44571402D01*
X204128597Y-44738493D01*
X204128603Y-44738498D01*
X204314158Y-44868425D01*
X204357783Y-44923002D01*
X204364977Y-44992500D01*
X204333454Y-45054855D01*
X204314158Y-45071575D01*
X204128597Y-45201505D01*
X203961505Y-45368597D01*
X203825965Y-45562169D01*
X203825964Y-45562171D01*
X203726098Y-45776335D01*
X203726094Y-45776344D01*
X203664938Y-46004586D01*
X203664936Y-46004596D01*
X203644341Y-46239999D01*
X203644341Y-46240000D01*
X203664936Y-46475403D01*
X203664938Y-46475413D01*
X203726094Y-46703655D01*
X203726096Y-46703659D01*
X203726097Y-46703663D01*
X203781308Y-46822062D01*
X203825965Y-46917830D01*
X203825967Y-46917834D01*
X203961501Y-47111395D01*
X203961506Y-47111402D01*
X204128597Y-47278493D01*
X204128603Y-47278498D01*
X204314158Y-47408425D01*
X204357783Y-47463002D01*
X204364977Y-47532500D01*
X204333454Y-47594855D01*
X204314158Y-47611575D01*
X204128597Y-47741505D01*
X203961505Y-47908597D01*
X203825965Y-48102169D01*
X203825964Y-48102171D01*
X203726098Y-48316335D01*
X203726094Y-48316344D01*
X203664938Y-48544586D01*
X203664936Y-48544596D01*
X203644341Y-48779999D01*
X203644341Y-48780000D01*
X203664936Y-49015403D01*
X203664938Y-49015413D01*
X203726094Y-49243655D01*
X203726096Y-49243659D01*
X203726097Y-49243663D01*
X203770934Y-49339815D01*
X203825965Y-49457830D01*
X203825967Y-49457834D01*
X203961501Y-49651395D01*
X203961506Y-49651402D01*
X204128597Y-49818493D01*
X204128603Y-49818498D01*
X204314158Y-49948425D01*
X204357783Y-50003002D01*
X204364977Y-50072500D01*
X204333454Y-50134855D01*
X204314158Y-50151575D01*
X204128597Y-50281505D01*
X203961505Y-50448597D01*
X203825965Y-50642169D01*
X203825964Y-50642171D01*
X203726098Y-50856335D01*
X203726094Y-50856344D01*
X203664938Y-51084586D01*
X203664936Y-51084596D01*
X203644341Y-51319999D01*
X203644341Y-51320000D01*
X200870721Y-51320000D01*
X200831563Y-51165368D01*
X200731673Y-50937643D01*
X200595666Y-50729467D01*
X200515302Y-50642169D01*
X200427244Y-50546512D01*
X200344491Y-50482102D01*
X200303679Y-50425393D01*
X200300004Y-50355620D01*
X200334636Y-50294937D01*
X200344485Y-50286401D01*
X200427244Y-50221988D01*
X200595664Y-50039035D01*
X200731673Y-49830857D01*
X200831563Y-49603131D01*
X200892608Y-49362071D01*
X200894452Y-49339815D01*
X200913143Y-49114255D01*
X200913143Y-49114244D01*
X200892609Y-48866437D01*
X200892607Y-48866425D01*
X200831563Y-48625368D01*
X200731673Y-48397643D01*
X200595666Y-48189467D01*
X200515302Y-48102169D01*
X200427244Y-48006512D01*
X200344491Y-47942102D01*
X200303679Y-47885393D01*
X200300004Y-47815620D01*
X200334636Y-47754937D01*
X200344485Y-47746401D01*
X200427244Y-47681988D01*
X200595664Y-47499035D01*
X200731673Y-47290857D01*
X200831563Y-47063131D01*
X200892608Y-46822071D01*
X200895907Y-46782262D01*
X200913143Y-46574255D01*
X200913143Y-46574244D01*
X200892609Y-46326437D01*
X200892607Y-46326425D01*
X200831563Y-46085368D01*
X200731673Y-45857643D01*
X200595666Y-45649467D01*
X200515302Y-45562169D01*
X200427244Y-45466512D01*
X200344491Y-45402102D01*
X200303679Y-45345393D01*
X200300004Y-45275620D01*
X200334636Y-45214937D01*
X200344485Y-45206401D01*
X200427244Y-45141988D01*
X200595664Y-44959035D01*
X200731673Y-44750857D01*
X200831563Y-44523131D01*
X200892608Y-44282071D01*
X200901511Y-44174630D01*
X200913143Y-44034255D01*
X200913143Y-44034244D01*
X200892609Y-43786437D01*
X200892607Y-43786425D01*
X200831563Y-43545368D01*
X200731673Y-43317643D01*
X200595666Y-43109467D01*
X200515302Y-43022169D01*
X200427244Y-42926512D01*
X200344491Y-42862102D01*
X200303679Y-42805393D01*
X200300004Y-42735620D01*
X200334636Y-42674937D01*
X200344485Y-42666401D01*
X200427244Y-42601988D01*
X200595664Y-42419035D01*
X200731673Y-42210857D01*
X200831563Y-41983131D01*
X200892608Y-41742071D01*
X200892609Y-41742062D01*
X200913143Y-41494255D01*
X200913143Y-41494244D01*
X200892609Y-41246437D01*
X200892607Y-41246425D01*
X200831563Y-41005368D01*
X200731673Y-40777643D01*
X200595666Y-40569467D01*
X200515302Y-40482169D01*
X200427244Y-40386512D01*
X200344491Y-40322102D01*
X200303679Y-40265393D01*
X200300004Y-40195620D01*
X200334636Y-40134937D01*
X200344485Y-40126401D01*
X200427244Y-40061988D01*
X200595664Y-39879035D01*
X200731673Y-39670857D01*
X200831563Y-39443131D01*
X200892608Y-39202071D01*
X200892609Y-39202062D01*
X200913143Y-38954255D01*
X200913143Y-38954244D01*
X200892609Y-38706437D01*
X200892607Y-38706425D01*
X200831563Y-38465368D01*
X200731673Y-38237643D01*
X200595666Y-38029467D01*
X200515302Y-37942169D01*
X200427244Y-37846512D01*
X200344491Y-37782102D01*
X200303679Y-37725393D01*
X200300004Y-37655620D01*
X200334636Y-37594937D01*
X200344485Y-37586401D01*
X200427244Y-37521988D01*
X200595664Y-37339035D01*
X200731673Y-37130857D01*
X200831563Y-36903131D01*
X200892608Y-36662071D01*
X200892609Y-36662062D01*
X200913143Y-36414255D01*
X200913143Y-36414244D01*
X200892609Y-36166437D01*
X200892607Y-36166425D01*
X200831563Y-35925368D01*
X200731673Y-35697643D01*
X200595666Y-35489467D01*
X200515302Y-35402169D01*
X200427244Y-35306512D01*
X200344491Y-35242102D01*
X200303679Y-35185393D01*
X200300004Y-35115620D01*
X200334636Y-35054937D01*
X200344485Y-35046401D01*
X200427244Y-34981988D01*
X200595664Y-34799035D01*
X200731673Y-34590857D01*
X200831563Y-34363131D01*
X200892608Y-34122071D01*
X200902232Y-34005925D01*
X200913143Y-33874255D01*
X200913143Y-33874244D01*
X200892609Y-33626437D01*
X200892607Y-33626425D01*
X200831563Y-33385368D01*
X200731673Y-33157643D01*
X200595666Y-32949467D01*
X200515302Y-32862169D01*
X200427244Y-32766512D01*
X200344491Y-32702102D01*
X200303679Y-32645393D01*
X200300004Y-32575620D01*
X200334636Y-32514937D01*
X200344485Y-32506401D01*
X200427244Y-32441988D01*
X200595664Y-32259035D01*
X200731673Y-32050857D01*
X200831563Y-31823131D01*
X200892608Y-31582071D01*
X200892609Y-31582062D01*
X200913143Y-31334255D01*
X200913143Y-31334244D01*
X200892609Y-31086437D01*
X200892607Y-31086425D01*
X200831563Y-30845368D01*
X200731673Y-30617643D01*
X200595666Y-30409467D01*
X200515302Y-30322169D01*
X200427244Y-30226512D01*
X200344491Y-30162102D01*
X200303679Y-30105393D01*
X200300004Y-30035620D01*
X200334636Y-29974937D01*
X200344485Y-29966401D01*
X200427244Y-29901988D01*
X200595664Y-29719035D01*
X200731673Y-29510857D01*
X200831563Y-29283131D01*
X200892608Y-29042071D01*
X200913143Y-28794250D01*
X200892608Y-28546429D01*
X200831563Y-28305369D01*
X200731673Y-28077643D01*
X200595666Y-27869467D01*
X200574057Y-27845994D01*
X200427244Y-27686512D01*
X200323753Y-27605962D01*
X200282942Y-27549253D01*
X200276155Y-27500426D01*
X200277556Y-27477859D01*
X199545075Y-26745378D01*
X199604353Y-26729495D01*
X199720647Y-26662352D01*
X199815602Y-26567397D01*
X199882745Y-26451103D01*
X199898627Y-26391825D01*
X200630934Y-27124132D01*
X200731231Y-26970619D01*
X200831087Y-26742967D01*
X200892112Y-26501988D01*
X200892114Y-26501979D01*
X200912641Y-26254255D01*
X200912641Y-26254244D01*
X200892114Y-26006520D01*
X200892112Y-26006511D01*
X200831087Y-25765532D01*
X200731231Y-25537880D01*
X200630934Y-25384366D01*
X199898627Y-26116673D01*
X199882745Y-26057397D01*
X199815602Y-25941103D01*
X199720647Y-25846148D01*
X199604353Y-25779005D01*
X199545075Y-25763122D01*
X200277556Y-25030640D01*
X200276155Y-25008075D01*
X200277991Y-25000000D01*
X202695065Y-25000000D01*
X202714784Y-25300852D01*
X202714786Y-25300864D01*
X202773602Y-25596553D01*
X202773607Y-25596573D01*
X202870514Y-25882052D01*
X202870518Y-25882062D01*
X203003868Y-26152469D01*
X203171371Y-26403155D01*
X203171374Y-26403159D01*
X203204973Y-26441470D01*
X203204974Y-26441470D01*
X203705747Y-25940697D01*
X203779588Y-26042330D01*
X203957670Y-26220412D01*
X204059301Y-26294251D01*
X203558528Y-26795024D01*
X203558528Y-26795025D01*
X203596840Y-26828625D01*
X203596844Y-26828628D01*
X203847530Y-26996131D01*
X204117937Y-27129481D01*
X204117947Y-27129485D01*
X204403426Y-27226392D01*
X204403446Y-27226397D01*
X204699135Y-27285213D01*
X204699147Y-27285215D01*
X205000000Y-27304934D01*
X205300852Y-27285215D01*
X205300864Y-27285213D01*
X205596553Y-27226397D01*
X205596573Y-27226392D01*
X205882052Y-27129485D01*
X205882062Y-27129481D01*
X206152469Y-26996131D01*
X206403157Y-26828627D01*
X206441470Y-26795025D01*
X206441470Y-26795023D01*
X205940698Y-26294251D01*
X206042330Y-26220412D01*
X206220412Y-26042330D01*
X206294251Y-25940698D01*
X206795023Y-26441470D01*
X206795025Y-26441470D01*
X206828627Y-26403157D01*
X206996131Y-26152469D01*
X207129481Y-25882062D01*
X207129485Y-25882052D01*
X207226392Y-25596573D01*
X207226397Y-25596553D01*
X207285213Y-25300864D01*
X207285215Y-25300852D01*
X207304934Y-25000000D01*
X207285215Y-24699147D01*
X207285213Y-24699135D01*
X207226397Y-24403446D01*
X207226393Y-24403431D01*
X207129483Y-24117944D01*
X207129474Y-24117923D01*
X206996129Y-23847528D01*
X206828633Y-23596851D01*
X206828625Y-23596840D01*
X206795025Y-23558528D01*
X206795024Y-23558528D01*
X206294251Y-24059300D01*
X206220412Y-23957670D01*
X206042330Y-23779588D01*
X205940697Y-23705747D01*
X206441470Y-23204974D01*
X206441470Y-23204973D01*
X206403159Y-23171374D01*
X206403155Y-23171371D01*
X206152469Y-23003868D01*
X205882062Y-22870518D01*
X205882052Y-22870514D01*
X205596573Y-22773607D01*
X205596553Y-22773602D01*
X205300864Y-22714786D01*
X205300852Y-22714784D01*
X205000000Y-22695065D01*
X204699147Y-22714784D01*
X204699135Y-22714786D01*
X204403446Y-22773602D01*
X204403431Y-22773606D01*
X204117944Y-22870516D01*
X204117923Y-22870525D01*
X203847528Y-23003870D01*
X203596844Y-23171370D01*
X203596837Y-23171376D01*
X203558528Y-23204972D01*
X203558527Y-23204974D01*
X204059301Y-23705748D01*
X203957670Y-23779588D01*
X203779588Y-23957670D01*
X203705748Y-24059301D01*
X203204974Y-23558527D01*
X203204972Y-23558528D01*
X203171376Y-23596837D01*
X203171370Y-23596844D01*
X203003870Y-23847528D01*
X202870525Y-24117923D01*
X202870516Y-24117944D01*
X202773606Y-24403431D01*
X202773602Y-24403446D01*
X202714786Y-24699135D01*
X202714784Y-24699147D01*
X202695065Y-25000000D01*
X200277991Y-25000000D01*
X200291647Y-24939944D01*
X200323750Y-24902540D01*
X200427244Y-24821988D01*
X200595664Y-24639035D01*
X200731673Y-24430857D01*
X200831563Y-24203131D01*
X200892608Y-23962071D01*
X200900217Y-23870248D01*
X200913143Y-23714255D01*
X200913143Y-23714244D01*
X200892609Y-23466437D01*
X200892607Y-23466425D01*
X200831563Y-23225368D01*
X200731673Y-22997643D01*
X200595666Y-22789467D01*
X200526915Y-22714784D01*
X200427244Y-22606512D01*
X200231009Y-22453776D01*
X200231007Y-22453775D01*
X200231006Y-22453774D01*
X200012311Y-22335422D01*
X200012302Y-22335419D01*
X199777116Y-22254679D01*
X199531835Y-22213750D01*
X199283165Y-22213750D01*
X199037883Y-22254679D01*
X198802697Y-22335419D01*
X198802688Y-22335422D01*
X198583993Y-22453774D01*
X198387757Y-22606511D01*
X198219333Y-22789467D01*
X198083326Y-22997643D01*
X197983436Y-23225368D01*
X197922392Y-23466425D01*
X197922390Y-23466437D01*
X197901857Y-23714244D01*
X197901857Y-23714255D01*
X197922390Y-23962062D01*
X197922392Y-23962074D01*
X197983436Y-24203131D01*
X198083326Y-24430856D01*
X198219333Y-24639032D01*
X198219336Y-24639035D01*
X198387756Y-24821988D01*
X198387759Y-24821990D01*
X198387762Y-24821993D01*
X198491243Y-24902536D01*
X198532056Y-24959246D01*
X198538843Y-25008073D01*
X198537441Y-25030639D01*
X199269924Y-25763121D01*
X199210647Y-25779005D01*
X199094353Y-25846148D01*
X198999398Y-25941103D01*
X198932255Y-26057397D01*
X198916372Y-26116674D01*
X198184064Y-25384366D01*
X198083767Y-25537882D01*
X197983912Y-25765532D01*
X197922887Y-26006511D01*
X197922885Y-26006520D01*
X197902359Y-26254244D01*
X197902359Y-26254255D01*
X197922885Y-26501979D01*
X197922887Y-26501988D01*
X197983912Y-26742967D01*
X198083766Y-26970614D01*
X198184064Y-27124132D01*
X198916371Y-26391825D01*
X198932255Y-26451103D01*
X198999398Y-26567397D01*
X199094353Y-26662352D01*
X199210647Y-26729495D01*
X199269924Y-26745378D01*
X198537442Y-27477859D01*
X198538843Y-27500427D01*
X198523350Y-27568557D01*
X198491244Y-27605963D01*
X198387758Y-27686510D01*
X198219333Y-27869467D01*
X198083326Y-28077643D01*
X197983436Y-28305368D01*
X197922392Y-28546425D01*
X197922390Y-28546437D01*
X197901857Y-28794244D01*
X197901857Y-28794255D01*
X197922390Y-29042062D01*
X197922392Y-29042074D01*
X197983436Y-29283131D01*
X198083326Y-29510856D01*
X198219333Y-29719032D01*
X198219336Y-29719035D01*
X198387756Y-29901988D01*
X198470508Y-29966397D01*
X198511321Y-30023107D01*
X198514996Y-30092880D01*
X198480364Y-30153563D01*
X198470514Y-30162098D01*
X198411900Y-30207719D01*
X198387757Y-30226511D01*
X198219333Y-30409467D01*
X198083326Y-30617643D01*
X197983436Y-30845368D01*
X197922392Y-31086425D01*
X197922390Y-31086437D01*
X197901857Y-31334244D01*
X197901857Y-31334255D01*
X197922390Y-31582062D01*
X197922392Y-31582074D01*
X197983436Y-31823131D01*
X198083326Y-32050856D01*
X198219333Y-32259032D01*
X198219336Y-32259035D01*
X198387756Y-32441988D01*
X198470508Y-32506397D01*
X198511321Y-32563107D01*
X198514996Y-32632880D01*
X198480364Y-32693563D01*
X198470514Y-32702098D01*
X198411900Y-32747719D01*
X198387757Y-32766511D01*
X198219333Y-32949467D01*
X198083326Y-33157643D01*
X197983436Y-33385368D01*
X197922392Y-33626425D01*
X197922390Y-33626437D01*
X197901857Y-33874244D01*
X197901857Y-33874255D01*
X197922390Y-34122062D01*
X197922392Y-34122074D01*
X197983436Y-34363131D01*
X198083326Y-34590856D01*
X198219333Y-34799032D01*
X198232590Y-34813433D01*
X198387756Y-34981988D01*
X198470508Y-35046397D01*
X198511321Y-35103107D01*
X198514996Y-35172880D01*
X198480364Y-35233563D01*
X198470514Y-35242098D01*
X198411900Y-35287719D01*
X198387757Y-35306511D01*
X198219333Y-35489467D01*
X198083326Y-35697643D01*
X197983436Y-35925368D01*
X197922392Y-36166425D01*
X197922390Y-36166437D01*
X197901857Y-36414244D01*
X197901857Y-36414255D01*
X197922390Y-36662062D01*
X197922392Y-36662074D01*
X197983436Y-36903131D01*
X198083326Y-37130856D01*
X198219333Y-37339032D01*
X198219336Y-37339035D01*
X198387756Y-37521988D01*
X198470508Y-37586397D01*
X198511321Y-37643107D01*
X198514996Y-37712880D01*
X198480364Y-37773563D01*
X198470514Y-37782098D01*
X198411900Y-37827719D01*
X198387757Y-37846511D01*
X198219333Y-38029467D01*
X198083326Y-38237643D01*
X197983436Y-38465368D01*
X197922392Y-38706425D01*
X197922390Y-38706437D01*
X197901857Y-38954244D01*
X197901857Y-38954255D01*
X197922390Y-39202062D01*
X197922392Y-39202074D01*
X197983436Y-39443131D01*
X198083326Y-39670856D01*
X198219333Y-39879032D01*
X198219336Y-39879035D01*
X198387756Y-40061988D01*
X198470508Y-40126397D01*
X198511321Y-40183107D01*
X198514996Y-40252880D01*
X198480364Y-40313563D01*
X198470514Y-40322098D01*
X198411900Y-40367719D01*
X198387757Y-40386511D01*
X198219333Y-40569467D01*
X198083326Y-40777643D01*
X197983436Y-41005368D01*
X197922392Y-41246425D01*
X197922390Y-41246437D01*
X197901857Y-41494244D01*
X197901857Y-41494255D01*
X197922390Y-41742062D01*
X197922392Y-41742074D01*
X197983436Y-41983131D01*
X198083326Y-42210856D01*
X198219333Y-42419032D01*
X198219336Y-42419035D01*
X198387756Y-42601988D01*
X198470508Y-42666397D01*
X198511321Y-42723107D01*
X198514996Y-42792880D01*
X198480364Y-42853563D01*
X198470514Y-42862098D01*
X198411900Y-42907719D01*
X198387757Y-42926511D01*
X198219333Y-43109467D01*
X198083326Y-43317643D01*
X197983436Y-43545368D01*
X197922392Y-43786425D01*
X197922390Y-43786437D01*
X197901857Y-44034244D01*
X197901857Y-44034255D01*
X197922390Y-44282062D01*
X197922392Y-44282074D01*
X197983436Y-44523131D01*
X198083326Y-44750856D01*
X198219333Y-44959032D01*
X198220224Y-44960000D01*
X198387756Y-45141988D01*
X198470508Y-45206397D01*
X198511321Y-45263107D01*
X198514996Y-45332880D01*
X198480364Y-45393563D01*
X198470514Y-45402098D01*
X198411900Y-45447719D01*
X198387757Y-45466511D01*
X198219333Y-45649467D01*
X198083326Y-45857643D01*
X197983436Y-46085368D01*
X197922392Y-46326425D01*
X197922390Y-46326437D01*
X197901857Y-46574244D01*
X197901857Y-46574255D01*
X197922390Y-46822062D01*
X197922392Y-46822074D01*
X197983436Y-47063131D01*
X198083326Y-47290856D01*
X198219333Y-47499032D01*
X198219336Y-47499035D01*
X198387756Y-47681988D01*
X198470508Y-47746397D01*
X198511321Y-47803107D01*
X198514996Y-47872880D01*
X198480364Y-47933563D01*
X198470514Y-47942098D01*
X198416408Y-47984211D01*
X198387757Y-48006511D01*
X198219333Y-48189467D01*
X198083326Y-48397643D01*
X197983436Y-48625368D01*
X197922392Y-48866425D01*
X197922390Y-48866437D01*
X197901857Y-49114244D01*
X197901857Y-49114255D01*
X197922390Y-49362062D01*
X197922392Y-49362074D01*
X197983436Y-49603131D01*
X198083326Y-49830856D01*
X198219333Y-50039032D01*
X198219336Y-50039035D01*
X198387756Y-50221988D01*
X198470508Y-50286397D01*
X198511321Y-50343107D01*
X198514996Y-50412880D01*
X198480364Y-50473563D01*
X198470514Y-50482098D01*
X198411900Y-50527719D01*
X198387757Y-50546511D01*
X198219333Y-50729467D01*
X198083326Y-50937643D01*
X197983436Y-51165368D01*
X197922392Y-51406425D01*
X197922390Y-51406437D01*
X197901857Y-51654244D01*
X197901857Y-51654255D01*
X197922390Y-51902062D01*
X197922392Y-51902074D01*
X197983436Y-52143131D01*
X198083326Y-52370856D01*
X198219333Y-52579032D01*
X198251745Y-52614241D01*
X198387756Y-52761988D01*
X198470508Y-52826397D01*
X198511321Y-52883107D01*
X198514996Y-52952880D01*
X198480364Y-53013563D01*
X198470514Y-53022098D01*
X198427517Y-53055565D01*
X198387757Y-53086511D01*
X198219333Y-53269467D01*
X198083326Y-53477643D01*
X197983436Y-53705368D01*
X197922392Y-53946425D01*
X197922390Y-53946437D01*
X197901857Y-54194244D01*
X197901857Y-54194255D01*
X197922390Y-54442062D01*
X197922392Y-54442074D01*
X197983436Y-54683131D01*
X198083326Y-54910856D01*
X198219333Y-55119032D01*
X198219336Y-55119035D01*
X198387756Y-55301988D01*
X198470508Y-55366397D01*
X198511321Y-55423107D01*
X198514996Y-55492880D01*
X198480364Y-55553563D01*
X198470514Y-55562098D01*
X198411900Y-55607719D01*
X198387757Y-55626511D01*
X198219333Y-55809467D01*
X198083326Y-56017643D01*
X197983436Y-56245368D01*
X197922392Y-56486425D01*
X197922390Y-56486437D01*
X197901857Y-56734244D01*
X197901857Y-56734255D01*
X197922390Y-56982062D01*
X197922392Y-56982074D01*
X197983436Y-57223131D01*
X198083326Y-57450856D01*
X198219333Y-57659032D01*
X198219336Y-57659035D01*
X198387756Y-57841988D01*
X198470508Y-57906397D01*
X198511321Y-57963107D01*
X198514996Y-58032880D01*
X198480364Y-58093563D01*
X198470514Y-58102098D01*
X198411900Y-58147719D01*
X198387757Y-58166511D01*
X198219333Y-58349467D01*
X198083326Y-58557643D01*
X197983436Y-58785368D01*
X197922392Y-59026425D01*
X197922390Y-59026437D01*
X197901857Y-59274244D01*
X197901857Y-59274255D01*
X175513143Y-59274255D01*
X175513143Y-59274244D01*
X175492609Y-59026437D01*
X175492607Y-59026425D01*
X175431563Y-58785368D01*
X175331673Y-58557643D01*
X175195666Y-58349467D01*
X175174057Y-58325994D01*
X175027244Y-58166512D01*
X174944491Y-58102102D01*
X174903679Y-58045393D01*
X174900004Y-57975620D01*
X174934636Y-57914937D01*
X174944485Y-57906401D01*
X175027244Y-57841988D01*
X175195664Y-57659035D01*
X175331673Y-57450857D01*
X175431563Y-57223131D01*
X175492608Y-56982071D01*
X175496883Y-56930478D01*
X175513143Y-56734255D01*
X175513143Y-56734244D01*
X175492609Y-56486437D01*
X175492607Y-56486425D01*
X175431563Y-56245368D01*
X175331673Y-56017643D01*
X175195666Y-55809467D01*
X175174057Y-55785994D01*
X175027244Y-55626512D01*
X174944491Y-55562102D01*
X174903679Y-55505393D01*
X174900004Y-55435620D01*
X174934636Y-55374937D01*
X174944485Y-55366401D01*
X175027244Y-55301988D01*
X175195664Y-55119035D01*
X175331673Y-54910857D01*
X175431563Y-54683131D01*
X175492608Y-54442071D01*
X175492819Y-54439522D01*
X175513143Y-54194255D01*
X175513143Y-54194244D01*
X175508648Y-54140003D01*
X177754435Y-54140003D01*
X177774630Y-54319249D01*
X177774631Y-54319254D01*
X177834211Y-54489523D01*
X177863737Y-54536513D01*
X177930184Y-54642262D01*
X178057738Y-54769816D01*
X178210478Y-54865789D01*
X178295573Y-54895565D01*
X178380745Y-54925368D01*
X178380750Y-54925369D01*
X178559996Y-54945565D01*
X178560000Y-54945565D01*
X178560004Y-54945565D01*
X178739249Y-54925369D01*
X178739252Y-54925368D01*
X178739255Y-54925368D01*
X178754587Y-54920003D01*
X195334435Y-54920003D01*
X195354630Y-55099249D01*
X195354631Y-55099254D01*
X195414211Y-55269523D01*
X195437764Y-55307007D01*
X195510184Y-55422262D01*
X195637738Y-55549816D01*
X195790478Y-55645789D01*
X195881326Y-55677578D01*
X195960745Y-55705368D01*
X195960750Y-55705369D01*
X196139996Y-55725565D01*
X196140000Y-55725565D01*
X196140004Y-55725565D01*
X196319249Y-55705369D01*
X196319252Y-55705368D01*
X196319255Y-55705368D01*
X196489522Y-55645789D01*
X196642262Y-55549816D01*
X196769816Y-55422262D01*
X196865789Y-55269522D01*
X196925368Y-55099255D01*
X196941922Y-54952335D01*
X196945565Y-54920003D01*
X196945565Y-54919996D01*
X196925369Y-54740750D01*
X196925368Y-54740745D01*
X196890907Y-54642262D01*
X196865789Y-54570478D01*
X196842915Y-54534075D01*
X196821505Y-54500000D01*
X196769816Y-54417738D01*
X196642262Y-54290184D01*
X196608944Y-54269249D01*
X196489523Y-54194211D01*
X196319254Y-54134631D01*
X196319249Y-54134630D01*
X196140004Y-54114435D01*
X196139996Y-54114435D01*
X195960750Y-54134630D01*
X195960745Y-54134631D01*
X195790476Y-54194211D01*
X195637737Y-54290184D01*
X195510184Y-54417737D01*
X195414211Y-54570476D01*
X195354631Y-54740745D01*
X195354630Y-54740750D01*
X195334435Y-54919996D01*
X195334435Y-54920003D01*
X178754587Y-54920003D01*
X178909522Y-54865789D01*
X179062262Y-54769816D01*
X179189816Y-54642262D01*
X179285789Y-54489522D01*
X179345368Y-54319255D01*
X179345369Y-54319249D01*
X179365565Y-54140003D01*
X179365565Y-54139996D01*
X179359932Y-54090003D01*
X181384435Y-54090003D01*
X181404630Y-54269249D01*
X181404631Y-54269254D01*
X181464211Y-54439523D01*
X181546495Y-54570476D01*
X181560184Y-54592262D01*
X181687738Y-54719816D01*
X181778080Y-54776582D01*
X181826501Y-54807007D01*
X181840478Y-54815789D01*
X181983367Y-54865788D01*
X182010745Y-54875368D01*
X182010750Y-54875369D01*
X182189996Y-54895565D01*
X182190000Y-54895565D01*
X182190004Y-54895565D01*
X182369249Y-54875369D01*
X182369252Y-54875368D01*
X182369255Y-54875368D01*
X182539522Y-54815789D01*
X182692262Y-54719816D01*
X182819816Y-54592262D01*
X182915789Y-54439522D01*
X182975368Y-54269255D01*
X182975369Y-54269249D01*
X182995565Y-54090003D01*
X182995565Y-54089996D01*
X182975369Y-53910750D01*
X182975368Y-53910745D01*
X182945854Y-53826399D01*
X182915789Y-53740478D01*
X182894254Y-53706206D01*
X182819815Y-53587737D01*
X182692262Y-53460184D01*
X182539523Y-53364211D01*
X182369254Y-53304631D01*
X182369249Y-53304630D01*
X182190004Y-53284435D01*
X182189996Y-53284435D01*
X182010750Y-53304630D01*
X182010745Y-53304631D01*
X181840476Y-53364211D01*
X181687737Y-53460184D01*
X181560184Y-53587737D01*
X181464211Y-53740476D01*
X181404631Y-53910745D01*
X181404630Y-53910750D01*
X181384435Y-54089996D01*
X181384435Y-54090003D01*
X179359932Y-54090003D01*
X179345369Y-53960750D01*
X179345368Y-53960745D01*
X179326794Y-53907664D01*
X179285789Y-53790478D01*
X179189816Y-53637738D01*
X179062262Y-53510184D01*
X178909523Y-53414211D01*
X178739254Y-53354631D01*
X178739249Y-53354630D01*
X178560004Y-53334435D01*
X178559996Y-53334435D01*
X178380750Y-53354630D01*
X178380745Y-53354631D01*
X178210476Y-53414211D01*
X178057737Y-53510184D01*
X177930184Y-53637737D01*
X177834211Y-53790476D01*
X177774631Y-53960745D01*
X177774630Y-53960750D01*
X177754435Y-54139996D01*
X177754435Y-54140003D01*
X175508648Y-54140003D01*
X175492609Y-53946437D01*
X175492607Y-53946425D01*
X175431563Y-53705368D01*
X175331673Y-53477643D01*
X175195666Y-53269467D01*
X175174057Y-53245994D01*
X175027244Y-53086512D01*
X174944491Y-53022102D01*
X174903679Y-52965393D01*
X174900004Y-52895620D01*
X174934636Y-52834937D01*
X174944485Y-52826401D01*
X175027244Y-52761988D01*
X175195664Y-52579035D01*
X175331673Y-52370857D01*
X175431563Y-52143131D01*
X175492608Y-51902071D01*
X175497751Y-51840003D01*
X176674435Y-51840003D01*
X176694630Y-52019249D01*
X176694631Y-52019254D01*
X176754211Y-52189523D01*
X176832002Y-52313325D01*
X176850184Y-52342262D01*
X176977738Y-52469816D01*
X177130478Y-52565789D01*
X177300745Y-52625368D01*
X177300750Y-52625369D01*
X177479996Y-52645565D01*
X177480000Y-52645565D01*
X177480004Y-52645565D01*
X177659249Y-52625369D01*
X177659252Y-52625368D01*
X177659255Y-52625368D01*
X177829522Y-52565789D01*
X177982262Y-52469816D01*
X178109816Y-52342262D01*
X178167786Y-52250003D01*
X195334435Y-52250003D01*
X195354630Y-52429249D01*
X195354631Y-52429254D01*
X195414211Y-52599523D01*
X195447469Y-52652452D01*
X195510184Y-52752262D01*
X195637738Y-52879816D01*
X195693294Y-52914724D01*
X195768736Y-52962128D01*
X195790478Y-52975789D01*
X195898430Y-53013563D01*
X195960745Y-53035368D01*
X195960750Y-53035369D01*
X196139996Y-53055565D01*
X196140000Y-53055565D01*
X196140004Y-53055565D01*
X196319249Y-53035369D01*
X196319252Y-53035368D01*
X196319255Y-53035368D01*
X196489522Y-52975789D01*
X196642262Y-52879816D01*
X196769816Y-52752262D01*
X196865789Y-52599522D01*
X196925368Y-52429255D01*
X196945565Y-52250000D01*
X196925368Y-52070745D01*
X196865789Y-51900478D01*
X196769816Y-51747738D01*
X196642262Y-51620184D01*
X196539164Y-51555403D01*
X196489523Y-51524211D01*
X196319254Y-51464631D01*
X196319249Y-51464630D01*
X196140004Y-51444435D01*
X196139996Y-51444435D01*
X195960750Y-51464630D01*
X195960745Y-51464631D01*
X195790476Y-51524211D01*
X195637737Y-51620184D01*
X195510184Y-51747737D01*
X195414211Y-51900476D01*
X195354631Y-52070745D01*
X195354630Y-52070750D01*
X195334435Y-52249996D01*
X195334435Y-52250003D01*
X178167786Y-52250003D01*
X178205789Y-52189522D01*
X178265368Y-52019255D01*
X178278571Y-51902074D01*
X178285565Y-51840003D01*
X178285565Y-51839996D01*
X178265369Y-51660750D01*
X178265368Y-51660745D01*
X178228507Y-51555403D01*
X178205789Y-51490478D01*
X178109816Y-51337738D01*
X177982262Y-51210184D01*
X177829523Y-51114211D01*
X177659254Y-51054631D01*
X177659249Y-51054630D01*
X177480004Y-51034435D01*
X177479996Y-51034435D01*
X177300750Y-51054630D01*
X177300745Y-51054631D01*
X177130476Y-51114211D01*
X176977737Y-51210184D01*
X176850184Y-51337737D01*
X176754211Y-51490476D01*
X176694631Y-51660745D01*
X176694630Y-51660750D01*
X176674435Y-51839996D01*
X176674435Y-51840003D01*
X175497751Y-51840003D01*
X175513143Y-51654255D01*
X175513143Y-51654244D01*
X175492609Y-51406437D01*
X175492607Y-51406425D01*
X175431563Y-51165368D01*
X175331673Y-50937643D01*
X175195666Y-50729467D01*
X175115302Y-50642169D01*
X175027244Y-50546512D01*
X174944491Y-50482102D01*
X174903679Y-50425393D01*
X174900004Y-50355620D01*
X174934636Y-50294937D01*
X174944485Y-50286401D01*
X175027244Y-50221988D01*
X175195664Y-50039035D01*
X175331673Y-49830857D01*
X175431563Y-49603131D01*
X175492608Y-49362071D01*
X175494452Y-49339815D01*
X175513143Y-49114255D01*
X175513143Y-49114244D01*
X175492609Y-48866437D01*
X175492607Y-48866425D01*
X175452996Y-48710003D01*
X176664435Y-48710003D01*
X176684630Y-48889249D01*
X176684631Y-48889254D01*
X176744211Y-49059523D01*
X176778595Y-49114244D01*
X176840184Y-49212262D01*
X176967738Y-49339816D01*
X177120478Y-49435789D01*
X177290745Y-49495368D01*
X177290750Y-49495369D01*
X177469996Y-49515565D01*
X177470000Y-49515565D01*
X177470004Y-49515565D01*
X177649249Y-49495369D01*
X177649252Y-49495368D01*
X177649255Y-49495368D01*
X177819522Y-49435789D01*
X177972262Y-49339816D01*
X178099816Y-49212262D01*
X178195789Y-49059522D01*
X178255368Y-48889255D01*
X178257940Y-48866429D01*
X178275565Y-48710003D01*
X178275565Y-48709996D01*
X178255369Y-48530750D01*
X178255368Y-48530745D01*
X178195789Y-48360478D01*
X178099816Y-48207738D01*
X177972262Y-48080184D01*
X177819523Y-47984211D01*
X177649254Y-47924631D01*
X177649249Y-47924630D01*
X177470004Y-47904435D01*
X177469996Y-47904435D01*
X177290750Y-47924630D01*
X177290745Y-47924631D01*
X177120476Y-47984211D01*
X176967737Y-48080184D01*
X176840184Y-48207737D01*
X176744211Y-48360476D01*
X176684631Y-48530745D01*
X176684630Y-48530750D01*
X176664435Y-48709996D01*
X176664435Y-48710003D01*
X175452996Y-48710003D01*
X175431563Y-48625368D01*
X175331673Y-48397643D01*
X175195666Y-48189467D01*
X175115302Y-48102169D01*
X175027244Y-48006512D01*
X174944491Y-47942102D01*
X174903679Y-47885393D01*
X174900004Y-47815620D01*
X174934636Y-47754937D01*
X174944485Y-47746401D01*
X175027244Y-47681988D01*
X175195664Y-47499035D01*
X175331673Y-47290857D01*
X175431563Y-47063131D01*
X175492608Y-46822071D01*
X175495907Y-46782262D01*
X175513143Y-46574255D01*
X175513143Y-46574244D01*
X175492609Y-46326437D01*
X175492607Y-46326425D01*
X175480851Y-46280003D01*
X176664435Y-46280003D01*
X176684630Y-46459249D01*
X176684631Y-46459254D01*
X176744211Y-46629523D01*
X176840184Y-46782262D01*
X176967738Y-46909816D01*
X177120478Y-47005789D01*
X177284352Y-47063131D01*
X177290745Y-47065368D01*
X177290750Y-47065369D01*
X177469996Y-47085565D01*
X177470000Y-47085565D01*
X177470004Y-47085565D01*
X177649249Y-47065369D01*
X177649252Y-47065368D01*
X177649255Y-47065368D01*
X177819522Y-47005789D01*
X177972262Y-46909816D01*
X178099816Y-46782262D01*
X178195789Y-46629522D01*
X178255368Y-46459255D01*
X178270334Y-46326429D01*
X178275565Y-46280003D01*
X178275565Y-46279996D01*
X178255369Y-46100750D01*
X178255368Y-46100745D01*
X178221724Y-46004596D01*
X178195789Y-45930478D01*
X178161890Y-45876528D01*
X178142890Y-45809292D01*
X178163258Y-45742456D01*
X178179203Y-45722875D01*
X178216290Y-45685788D01*
X178259816Y-45642262D01*
X178355789Y-45489522D01*
X178415368Y-45319255D01*
X178415369Y-45319249D01*
X178435565Y-45140003D01*
X178435565Y-45139996D01*
X178415369Y-44960750D01*
X178415368Y-44960745D01*
X178355788Y-44790476D01*
X178259815Y-44637737D01*
X178132262Y-44510184D01*
X177979523Y-44414211D01*
X177809254Y-44354631D01*
X177809249Y-44354630D01*
X177630004Y-44334435D01*
X177629996Y-44334435D01*
X177450750Y-44354630D01*
X177450745Y-44354631D01*
X177280476Y-44414211D01*
X177127737Y-44510184D01*
X177000184Y-44637737D01*
X176904211Y-44790476D01*
X176844631Y-44960745D01*
X176844630Y-44960750D01*
X176824435Y-45139996D01*
X176824435Y-45140003D01*
X176844630Y-45319249D01*
X176844633Y-45319262D01*
X176904209Y-45489520D01*
X176938109Y-45543472D01*
X176957109Y-45610709D01*
X176936741Y-45677544D01*
X176920797Y-45697123D01*
X176840185Y-45777736D01*
X176840184Y-45777737D01*
X176744211Y-45930476D01*
X176684631Y-46100745D01*
X176684630Y-46100750D01*
X176664435Y-46279996D01*
X176664435Y-46280003D01*
X175480851Y-46280003D01*
X175431563Y-46085368D01*
X175331673Y-45857643D01*
X175195666Y-45649467D01*
X175115302Y-45562169D01*
X175027244Y-45466512D01*
X174944491Y-45402102D01*
X174903679Y-45345393D01*
X174900004Y-45275620D01*
X174934636Y-45214937D01*
X174944485Y-45206401D01*
X175027244Y-45141988D01*
X175195664Y-44959035D01*
X175331673Y-44750857D01*
X175431563Y-44523131D01*
X175492608Y-44282071D01*
X175501511Y-44174630D01*
X175513143Y-44034255D01*
X175513143Y-44034244D01*
X175492609Y-43786437D01*
X175492607Y-43786425D01*
X175431563Y-43545368D01*
X175331673Y-43317643D01*
X175195666Y-43109467D01*
X175115302Y-43022169D01*
X175027244Y-42926512D01*
X174944491Y-42862102D01*
X174903679Y-42805393D01*
X174900004Y-42735620D01*
X174934636Y-42674937D01*
X174944485Y-42666401D01*
X175027244Y-42601988D01*
X175195664Y-42419035D01*
X175331673Y-42210857D01*
X175431563Y-41983131D01*
X175492608Y-41742071D01*
X175492609Y-41742062D01*
X175513143Y-41494255D01*
X175513143Y-41494244D01*
X175492609Y-41246437D01*
X175492607Y-41246425D01*
X175431563Y-41005368D01*
X175331673Y-40777643D01*
X175195666Y-40569467D01*
X175115302Y-40482169D01*
X175027244Y-40386512D01*
X174944491Y-40322102D01*
X174903679Y-40265393D01*
X174900004Y-40195620D01*
X174934636Y-40134937D01*
X174944485Y-40126401D01*
X175027244Y-40061988D01*
X175195664Y-39879035D01*
X175331673Y-39670857D01*
X175431563Y-39443131D01*
X175492608Y-39202071D01*
X175492609Y-39202062D01*
X175513143Y-38954255D01*
X175513143Y-38954244D01*
X175492609Y-38706437D01*
X175492607Y-38706425D01*
X175431563Y-38465368D01*
X175331673Y-38237643D01*
X175195666Y-38029467D01*
X175115302Y-37942169D01*
X175027244Y-37846512D01*
X174944491Y-37782102D01*
X174903679Y-37725393D01*
X174900004Y-37655620D01*
X174934636Y-37594937D01*
X174944485Y-37586401D01*
X175027244Y-37521988D01*
X175195664Y-37339035D01*
X175260365Y-37240003D01*
X182604435Y-37240003D01*
X182624630Y-37419245D01*
X182624631Y-37419254D01*
X182684211Y-37589523D01*
X182749718Y-37693776D01*
X182780184Y-37742262D01*
X182907738Y-37869816D01*
X183060478Y-37965789D01*
X183230745Y-38025368D01*
X183230750Y-38025369D01*
X183409996Y-38045565D01*
X183410000Y-38045565D01*
X183410004Y-38045565D01*
X183589249Y-38025369D01*
X183589252Y-38025368D01*
X183589255Y-38025368D01*
X183759522Y-37965789D01*
X183912262Y-37869816D01*
X184039816Y-37742262D01*
X184135789Y-37589522D01*
X184195368Y-37419255D01*
X184195368Y-37419252D01*
X184195370Y-37419245D01*
X184215565Y-37240003D01*
X184215565Y-37239996D01*
X184195369Y-37060750D01*
X184195368Y-37060745D01*
X184135788Y-36890476D01*
X184052443Y-36757834D01*
X184039816Y-36737738D01*
X183912262Y-36610184D01*
X183759523Y-36514211D01*
X183589254Y-36454631D01*
X183589249Y-36454630D01*
X183410004Y-36434435D01*
X183409996Y-36434435D01*
X183230750Y-36454630D01*
X183230745Y-36454631D01*
X183060476Y-36514211D01*
X182907737Y-36610184D01*
X182780184Y-36737737D01*
X182684211Y-36890476D01*
X182624631Y-37060745D01*
X182624630Y-37060750D01*
X182604435Y-37239996D01*
X182604435Y-37240003D01*
X175260365Y-37240003D01*
X175331673Y-37130857D01*
X175431563Y-36903131D01*
X175492608Y-36662071D01*
X175492609Y-36662062D01*
X175513143Y-36414255D01*
X175513143Y-36414244D01*
X175492609Y-36166437D01*
X175492607Y-36166425D01*
X175431563Y-35925368D01*
X175331673Y-35697643D01*
X175195666Y-35489467D01*
X175115302Y-35402169D01*
X175027244Y-35306512D01*
X174944491Y-35242102D01*
X174903679Y-35185393D01*
X174900004Y-35115620D01*
X174934636Y-35054937D01*
X174944485Y-35046401D01*
X175027244Y-34981988D01*
X175195664Y-34799035D01*
X175331673Y-34590857D01*
X175431563Y-34363131D01*
X175492608Y-34122071D01*
X175502232Y-34005925D01*
X175502723Y-34000003D01*
X188124435Y-34000003D01*
X188144630Y-34179249D01*
X188144631Y-34179254D01*
X188204211Y-34349523D01*
X188300184Y-34502262D01*
X188427738Y-34629816D01*
X188518080Y-34686582D01*
X188561771Y-34714035D01*
X188580478Y-34725789D01*
X188686827Y-34763002D01*
X188750745Y-34785368D01*
X188750750Y-34785369D01*
X188929996Y-34805565D01*
X188930000Y-34805565D01*
X188930004Y-34805565D01*
X189109249Y-34785369D01*
X189109252Y-34785368D01*
X189109255Y-34785368D01*
X189279522Y-34725789D01*
X189432262Y-34629816D01*
X189559816Y-34502262D01*
X189655789Y-34349522D01*
X189715368Y-34179255D01*
X189731058Y-34040000D01*
X189735565Y-34000003D01*
X189735565Y-33999996D01*
X189715369Y-33820750D01*
X189715368Y-33820745D01*
X189655788Y-33650476D01*
X189559815Y-33497737D01*
X189432262Y-33370184D01*
X189279523Y-33274211D01*
X189109254Y-33214631D01*
X189109249Y-33214630D01*
X188930004Y-33194435D01*
X188929996Y-33194435D01*
X188750750Y-33214630D01*
X188750745Y-33214631D01*
X188580476Y-33274211D01*
X188427737Y-33370184D01*
X188300184Y-33497737D01*
X188204211Y-33650476D01*
X188144631Y-33820745D01*
X188144630Y-33820750D01*
X188124435Y-33999996D01*
X188124435Y-34000003D01*
X175502723Y-34000003D01*
X175513143Y-33874255D01*
X175513143Y-33874244D01*
X175492609Y-33626437D01*
X175492607Y-33626425D01*
X175431563Y-33385368D01*
X175331673Y-33157643D01*
X175195666Y-32949467D01*
X175115302Y-32862169D01*
X175027244Y-32766512D01*
X174944491Y-32702102D01*
X174903679Y-32645393D01*
X174900004Y-32575620D01*
X174934636Y-32514937D01*
X174944485Y-32506401D01*
X175027244Y-32441988D01*
X175195664Y-32259035D01*
X175331673Y-32050857D01*
X175431563Y-31823131D01*
X175492608Y-31582071D01*
X175492609Y-31582062D01*
X175513143Y-31334255D01*
X175513143Y-31334244D01*
X175492609Y-31086437D01*
X175492607Y-31086425D01*
X175431563Y-30845368D01*
X175331673Y-30617643D01*
X175195666Y-30409467D01*
X175115302Y-30322169D01*
X175027244Y-30226512D01*
X174944491Y-30162102D01*
X174903679Y-30105393D01*
X174900004Y-30035620D01*
X174934636Y-29974937D01*
X174944485Y-29966401D01*
X175027244Y-29901988D01*
X175195664Y-29719035D01*
X175331673Y-29510857D01*
X175431563Y-29283131D01*
X175492608Y-29042071D01*
X175513143Y-28794250D01*
X175492608Y-28546429D01*
X175431563Y-28305369D01*
X175331673Y-28077643D01*
X175195666Y-27869467D01*
X175174057Y-27845994D01*
X175027244Y-27686512D01*
X174923753Y-27605962D01*
X174882942Y-27549253D01*
X174876155Y-27500426D01*
X174877556Y-27477859D01*
X174145075Y-26745378D01*
X174204353Y-26729495D01*
X174320647Y-26662352D01*
X174415602Y-26567397D01*
X174482745Y-26451103D01*
X174498627Y-26391825D01*
X175230934Y-27124132D01*
X175331231Y-26970619D01*
X175431087Y-26742967D01*
X175492112Y-26501988D01*
X175492114Y-26501979D01*
X175512641Y-26254255D01*
X175512641Y-26254244D01*
X175492114Y-26006520D01*
X175492112Y-26006511D01*
X175431087Y-25765532D01*
X175331233Y-25537885D01*
X175200317Y-25337502D01*
X175180130Y-25270612D01*
X175199310Y-25203426D01*
X175244703Y-25160845D01*
X175249821Y-25158049D01*
X175249831Y-25158046D01*
X175365046Y-25071796D01*
X175451296Y-24956581D01*
X175501591Y-24821733D01*
X175508000Y-24762123D01*
X175508000Y-24463771D01*
X181969500Y-24463771D01*
X182002182Y-24628074D01*
X182002184Y-24628082D01*
X182066295Y-24782860D01*
X182159373Y-24922162D01*
X182277837Y-25040626D01*
X182364814Y-25098742D01*
X182417137Y-25133703D01*
X182571918Y-25197816D01*
X182736228Y-25230499D01*
X182736232Y-25230500D01*
X182736233Y-25230500D01*
X182903768Y-25230500D01*
X182903769Y-25230499D01*
X183068082Y-25197816D01*
X183222863Y-25133703D01*
X183362162Y-25040626D01*
X183480626Y-24922162D01*
X183573703Y-24782863D01*
X183637816Y-24628082D01*
X183670499Y-24463771D01*
X189969500Y-24463771D01*
X190002182Y-24628074D01*
X190002184Y-24628082D01*
X190066295Y-24782860D01*
X190159373Y-24922162D01*
X190277837Y-25040626D01*
X190364814Y-25098742D01*
X190417137Y-25133703D01*
X190571918Y-25197816D01*
X190736228Y-25230499D01*
X190736232Y-25230500D01*
X190736233Y-25230500D01*
X190903768Y-25230500D01*
X190903769Y-25230499D01*
X191068082Y-25197816D01*
X191222863Y-25133703D01*
X191362162Y-25040626D01*
X191480626Y-24922162D01*
X191573703Y-24782863D01*
X191637816Y-24628082D01*
X191670500Y-24463767D01*
X191670500Y-24296233D01*
X191637816Y-24131918D01*
X191573703Y-23977137D01*
X191484054Y-23842968D01*
X191480626Y-23837837D01*
X191362162Y-23719373D01*
X191222860Y-23626295D01*
X191068082Y-23562184D01*
X191068074Y-23562182D01*
X190903771Y-23529500D01*
X190903767Y-23529500D01*
X190736233Y-23529500D01*
X190736228Y-23529500D01*
X190571925Y-23562182D01*
X190571917Y-23562184D01*
X190417139Y-23626295D01*
X190277837Y-23719373D01*
X190159373Y-23837837D01*
X190066295Y-23977139D01*
X190002184Y-24131917D01*
X190002182Y-24131925D01*
X189969500Y-24296228D01*
X189969500Y-24463771D01*
X183670499Y-24463771D01*
X183670500Y-24463767D01*
X183670500Y-24296233D01*
X183637816Y-24131918D01*
X183573703Y-23977137D01*
X183484054Y-23842968D01*
X183480626Y-23837837D01*
X183362162Y-23719373D01*
X183222860Y-23626295D01*
X183068082Y-23562184D01*
X183068074Y-23562182D01*
X182903771Y-23529500D01*
X182903767Y-23529500D01*
X182736233Y-23529500D01*
X182736228Y-23529500D01*
X182571925Y-23562182D01*
X182571917Y-23562184D01*
X182417139Y-23626295D01*
X182277837Y-23719373D01*
X182159373Y-23837837D01*
X182066295Y-23977139D01*
X182002184Y-24131917D01*
X182002182Y-24131925D01*
X181969500Y-24296228D01*
X181969500Y-24463771D01*
X175508000Y-24463771D01*
X175507999Y-22666378D01*
X175501591Y-22606767D01*
X175492403Y-22582134D01*
X175451297Y-22471921D01*
X175451293Y-22471914D01*
X175365047Y-22356705D01*
X175365044Y-22356702D01*
X175249835Y-22270456D01*
X175249828Y-22270452D01*
X175114982Y-22220158D01*
X175114983Y-22220158D01*
X175055383Y-22213751D01*
X175055381Y-22213750D01*
X175055373Y-22213750D01*
X175055364Y-22213750D01*
X172959629Y-22213750D01*
X172959623Y-22213751D01*
X172900016Y-22220158D01*
X172765171Y-22270452D01*
X172765164Y-22270456D01*
X172649955Y-22356702D01*
X172649952Y-22356705D01*
X172563706Y-22471914D01*
X172563702Y-22471921D01*
X172513408Y-22606767D01*
X172507001Y-22666366D01*
X172507001Y-22666373D01*
X172507000Y-22666385D01*
X172507000Y-24762120D01*
X172507001Y-24762126D01*
X172513408Y-24821733D01*
X172563702Y-24956578D01*
X172563706Y-24956585D01*
X172649952Y-25071794D01*
X172649955Y-25071797D01*
X172765163Y-25158043D01*
X172770299Y-25160847D01*
X172819705Y-25210252D01*
X172834557Y-25278525D01*
X172814682Y-25337501D01*
X172683767Y-25537882D01*
X172583912Y-25765532D01*
X172522887Y-26006511D01*
X172522885Y-26006520D01*
X172502359Y-26254244D01*
X172502359Y-26254255D01*
X172522885Y-26501979D01*
X172522887Y-26501988D01*
X172583912Y-26742967D01*
X172683766Y-26970614D01*
X172784064Y-27124132D01*
X173516371Y-26391824D01*
X173532255Y-26451103D01*
X173599398Y-26567397D01*
X173694353Y-26662352D01*
X173810647Y-26729495D01*
X173869924Y-26745378D01*
X173137442Y-27477859D01*
X173138843Y-27500427D01*
X173123350Y-27568557D01*
X173091244Y-27605963D01*
X172987758Y-27686510D01*
X172819333Y-27869467D01*
X172683326Y-28077643D01*
X172583436Y-28305368D01*
X172522392Y-28546425D01*
X172522390Y-28546437D01*
X172501857Y-28794244D01*
X172501857Y-28794255D01*
X172522390Y-29042062D01*
X172522392Y-29042074D01*
X172583436Y-29283131D01*
X172683326Y-29510856D01*
X172819333Y-29719032D01*
X172819336Y-29719035D01*
X172987756Y-29901988D01*
X173070508Y-29966397D01*
X173111321Y-30023107D01*
X173114996Y-30092880D01*
X173080364Y-30153563D01*
X173070514Y-30162098D01*
X173011900Y-30207719D01*
X172987757Y-30226511D01*
X172819333Y-30409467D01*
X172683326Y-30617643D01*
X172583436Y-30845368D01*
X172522392Y-31086425D01*
X172522390Y-31086437D01*
X172501857Y-31334244D01*
X172501857Y-31334255D01*
X172522390Y-31582062D01*
X172522392Y-31582074D01*
X172583436Y-31823131D01*
X172683326Y-32050856D01*
X172819333Y-32259032D01*
X172819336Y-32259035D01*
X172987756Y-32441988D01*
X173070508Y-32506397D01*
X173111321Y-32563107D01*
X173114996Y-32632880D01*
X173080364Y-32693563D01*
X173070514Y-32702098D01*
X173011900Y-32747719D01*
X172987757Y-32766511D01*
X172819333Y-32949467D01*
X172683326Y-33157643D01*
X172583436Y-33385368D01*
X172522392Y-33626425D01*
X172522390Y-33626437D01*
X172501857Y-33874244D01*
X172501857Y-33874255D01*
X172522390Y-34122062D01*
X172522392Y-34122074D01*
X172583436Y-34363131D01*
X172683326Y-34590856D01*
X172819333Y-34799032D01*
X172832590Y-34813433D01*
X172987756Y-34981988D01*
X173070508Y-35046397D01*
X173111321Y-35103107D01*
X173114996Y-35172880D01*
X173080364Y-35233563D01*
X173070514Y-35242098D01*
X173011900Y-35287719D01*
X172987757Y-35306511D01*
X172819333Y-35489467D01*
X172683326Y-35697643D01*
X172583436Y-35925368D01*
X172522392Y-36166425D01*
X172522390Y-36166437D01*
X172501857Y-36414244D01*
X172501857Y-36414255D01*
X172522390Y-36662062D01*
X172522392Y-36662074D01*
X172583436Y-36903131D01*
X172683326Y-37130856D01*
X172819333Y-37339032D01*
X172819336Y-37339035D01*
X172987756Y-37521988D01*
X173070508Y-37586397D01*
X173111321Y-37643107D01*
X173114996Y-37712880D01*
X173080364Y-37773563D01*
X173070514Y-37782098D01*
X173011900Y-37827719D01*
X172987757Y-37846511D01*
X172819333Y-38029467D01*
X172683326Y-38237643D01*
X172583436Y-38465368D01*
X172522392Y-38706425D01*
X172522390Y-38706437D01*
X172501857Y-38954244D01*
X172501857Y-38954255D01*
X172522390Y-39202062D01*
X172522392Y-39202074D01*
X172583436Y-39443131D01*
X172683326Y-39670856D01*
X172819333Y-39879032D01*
X172819336Y-39879035D01*
X172987756Y-40061988D01*
X173070508Y-40126397D01*
X173111321Y-40183107D01*
X173114996Y-40252880D01*
X173080364Y-40313563D01*
X173070514Y-40322098D01*
X173011900Y-40367719D01*
X172987757Y-40386511D01*
X172819333Y-40569467D01*
X172683326Y-40777643D01*
X172583436Y-41005368D01*
X172522392Y-41246425D01*
X172522390Y-41246437D01*
X172501857Y-41494244D01*
X172501857Y-41494255D01*
X172522390Y-41742062D01*
X172522392Y-41742074D01*
X172583436Y-41983131D01*
X172683326Y-42210856D01*
X172819333Y-42419032D01*
X172819336Y-42419035D01*
X172987756Y-42601988D01*
X173070508Y-42666397D01*
X173111321Y-42723107D01*
X173114996Y-42792880D01*
X173080364Y-42853563D01*
X173070514Y-42862098D01*
X173011900Y-42907719D01*
X172987757Y-42926511D01*
X172819333Y-43109467D01*
X172683326Y-43317643D01*
X172583436Y-43545368D01*
X172522392Y-43786425D01*
X172522390Y-43786437D01*
X172501857Y-44034244D01*
X172501857Y-44034255D01*
X172522390Y-44282062D01*
X172522392Y-44282074D01*
X172583436Y-44523131D01*
X172683326Y-44750856D01*
X172819333Y-44959032D01*
X172820224Y-44960000D01*
X172987756Y-45141988D01*
X173070508Y-45206397D01*
X173111321Y-45263107D01*
X173114996Y-45332880D01*
X173080364Y-45393563D01*
X173070514Y-45402098D01*
X173011900Y-45447719D01*
X172987757Y-45466511D01*
X172819333Y-45649467D01*
X172683326Y-45857643D01*
X172583436Y-46085368D01*
X172522392Y-46326425D01*
X172522390Y-46326437D01*
X172501857Y-46574244D01*
X172501857Y-46574255D01*
X172522390Y-46822062D01*
X172522392Y-46822074D01*
X172583436Y-47063131D01*
X172683326Y-47290856D01*
X172819333Y-47499032D01*
X172819336Y-47499035D01*
X172987756Y-47681988D01*
X173070508Y-47746397D01*
X173111321Y-47803107D01*
X173114996Y-47872880D01*
X173080364Y-47933563D01*
X173070514Y-47942098D01*
X173016408Y-47984211D01*
X172987757Y-48006511D01*
X172819333Y-48189467D01*
X172683326Y-48397643D01*
X172583436Y-48625368D01*
X172522392Y-48866425D01*
X172522390Y-48866437D01*
X172501857Y-49114244D01*
X172501857Y-49114255D01*
X172522390Y-49362062D01*
X172522392Y-49362074D01*
X172583436Y-49603131D01*
X172683326Y-49830856D01*
X172819333Y-50039032D01*
X172819336Y-50039035D01*
X172987756Y-50221988D01*
X173070508Y-50286397D01*
X173111321Y-50343107D01*
X173114996Y-50412880D01*
X173080364Y-50473563D01*
X173070514Y-50482098D01*
X173011900Y-50527719D01*
X172987757Y-50546511D01*
X172819333Y-50729467D01*
X172683326Y-50937643D01*
X172583436Y-51165368D01*
X172522392Y-51406425D01*
X172522390Y-51406437D01*
X172501857Y-51654244D01*
X172501857Y-51654255D01*
X172522390Y-51902062D01*
X172522392Y-51902074D01*
X172583436Y-52143131D01*
X172683326Y-52370856D01*
X172819333Y-52579032D01*
X172851745Y-52614241D01*
X172987756Y-52761988D01*
X173070508Y-52826397D01*
X173111321Y-52883107D01*
X173114996Y-52952880D01*
X173080364Y-53013563D01*
X173070514Y-53022098D01*
X173027517Y-53055565D01*
X172987757Y-53086511D01*
X172819333Y-53269467D01*
X172683326Y-53477643D01*
X172583436Y-53705368D01*
X172522392Y-53946425D01*
X172522390Y-53946437D01*
X172501857Y-54194244D01*
X172501857Y-54194255D01*
X172522390Y-54442062D01*
X172522392Y-54442074D01*
X172583436Y-54683131D01*
X172683326Y-54910856D01*
X172819333Y-55119032D01*
X172819336Y-55119035D01*
X172987756Y-55301988D01*
X173070508Y-55366397D01*
X173111321Y-55423107D01*
X173114996Y-55492880D01*
X173080364Y-55553563D01*
X173070514Y-55562098D01*
X173011900Y-55607719D01*
X172987757Y-55626511D01*
X172819333Y-55809467D01*
X172683326Y-56017643D01*
X172583436Y-56245368D01*
X172522392Y-56486425D01*
X172522390Y-56486437D01*
X172501857Y-56734244D01*
X172501857Y-56734255D01*
X172522390Y-56982062D01*
X172522392Y-56982074D01*
X172583436Y-57223131D01*
X172683326Y-57450856D01*
X172819333Y-57659032D01*
X172819336Y-57659035D01*
X172987756Y-57841988D01*
X173070508Y-57906397D01*
X173111321Y-57963107D01*
X173114996Y-58032880D01*
X173080364Y-58093563D01*
X173070514Y-58102098D01*
X173011900Y-58147719D01*
X172987757Y-58166511D01*
X172819333Y-58349467D01*
X172683326Y-58557643D01*
X172583436Y-58785368D01*
X172522392Y-59026425D01*
X172522390Y-59026437D01*
X172501857Y-59274244D01*
X172501857Y-59274255D01*
X169893442Y-59274255D01*
X169759141Y-59139954D01*
X169572734Y-59009432D01*
X169572728Y-59009429D01*
X169514725Y-58982382D01*
X169462285Y-58936210D01*
X169443133Y-58869017D01*
X169463348Y-58802135D01*
X169514725Y-58757618D01*
X169572734Y-58730568D01*
X169759139Y-58600047D01*
X169920047Y-58439139D01*
X170050568Y-58252734D01*
X170146739Y-58046496D01*
X170205635Y-57826692D01*
X170225468Y-57600000D01*
X170205635Y-57373308D01*
X170146739Y-57153504D01*
X170050568Y-56947266D01*
X169920047Y-56760861D01*
X169920045Y-56760858D01*
X169759141Y-56599954D01*
X169572734Y-56469432D01*
X169572732Y-56469431D01*
X169366497Y-56373261D01*
X169366488Y-56373258D01*
X169146697Y-56314366D01*
X169146693Y-56314365D01*
X169146692Y-56314365D01*
X169146691Y-56314364D01*
X169146686Y-56314364D01*
X168920002Y-56294532D01*
X168919998Y-56294532D01*
X168693313Y-56314364D01*
X168693302Y-56314366D01*
X168473511Y-56373258D01*
X168473502Y-56373261D01*
X168267267Y-56469431D01*
X168267265Y-56469432D01*
X168080858Y-56599954D01*
X167919954Y-56760858D01*
X167789432Y-56947265D01*
X167789431Y-56947267D01*
X167693261Y-57153502D01*
X167693258Y-57153511D01*
X167634366Y-57373302D01*
X167634364Y-57373313D01*
X167614532Y-57599998D01*
X167614532Y-57600001D01*
X167634364Y-57826686D01*
X167634366Y-57826697D01*
X167693258Y-58046488D01*
X167693261Y-58046497D01*
X167789431Y-58252732D01*
X167789432Y-58252734D01*
X167919954Y-58439141D01*
X168080858Y-58600045D01*
X168080861Y-58600047D01*
X168267266Y-58730568D01*
X168325275Y-58757618D01*
X168377714Y-58803791D01*
X168396866Y-58870984D01*
X168376650Y-58937865D01*
X168325275Y-58982382D01*
X168267267Y-59009431D01*
X168267265Y-59009432D01*
X168080858Y-59139954D01*
X167919954Y-59300858D01*
X167789432Y-59487265D01*
X167789431Y-59487267D01*
X167693261Y-59693502D01*
X167693258Y-59693511D01*
X167634366Y-59913302D01*
X167634364Y-59913313D01*
X167614532Y-60139998D01*
X167614532Y-60140001D01*
X167634364Y-60366686D01*
X167634366Y-60366697D01*
X167693258Y-60586488D01*
X167693261Y-60586497D01*
X167789431Y-60792732D01*
X167789432Y-60792734D01*
X167919954Y-60979141D01*
X168080858Y-61140045D01*
X168080861Y-61140047D01*
X168267266Y-61270568D01*
X168325865Y-61297893D01*
X168378305Y-61344065D01*
X168397457Y-61411258D01*
X168377242Y-61478139D01*
X168325867Y-61522657D01*
X168267515Y-61549867D01*
X168081179Y-61680342D01*
X167920342Y-61841179D01*
X167789865Y-62027517D01*
X167693734Y-62233673D01*
X167693730Y-62233682D01*
X167641127Y-62429999D01*
X167641128Y-62430000D01*
X168604314Y-62430000D01*
X168599920Y-62434394D01*
X168547259Y-62525606D01*
X168520000Y-62627339D01*
X168520000Y-62732661D01*
X168547259Y-62834394D01*
X168599920Y-62925606D01*
X168604314Y-62930000D01*
X167641128Y-62930000D01*
X167693730Y-63126317D01*
X167693734Y-63126326D01*
X167789865Y-63332482D01*
X167920342Y-63518820D01*
X168081179Y-63679657D01*
X168267518Y-63810134D01*
X168267520Y-63810135D01*
X168325865Y-63837342D01*
X168378305Y-63883514D01*
X168397457Y-63950707D01*
X168377242Y-64017589D01*
X168325867Y-64062105D01*
X168267268Y-64089431D01*
X168267264Y-64089433D01*
X168080858Y-64219954D01*
X167919954Y-64380858D01*
X167789432Y-64567265D01*
X167789431Y-64567267D01*
X167693261Y-64773502D01*
X167693258Y-64773511D01*
X167634366Y-64993302D01*
X167634364Y-64993313D01*
X167614532Y-65219998D01*
X167614532Y-65220001D01*
X167634364Y-65446686D01*
X167634366Y-65446697D01*
X167693258Y-65666488D01*
X167693261Y-65666497D01*
X167789431Y-65872732D01*
X167789432Y-65872734D01*
X167919954Y-66059141D01*
X168080858Y-66220045D01*
X168080861Y-66220047D01*
X168267266Y-66350568D01*
X168325275Y-66377618D01*
X168377714Y-66423791D01*
X168396866Y-66490984D01*
X168376650Y-66557865D01*
X168325275Y-66602382D01*
X168267267Y-66629431D01*
X168267265Y-66629432D01*
X168080858Y-66759954D01*
X167919954Y-66920858D01*
X167789432Y-67107265D01*
X167789431Y-67107267D01*
X167693261Y-67313502D01*
X167693258Y-67313511D01*
X167634366Y-67533302D01*
X167634364Y-67533313D01*
X167614532Y-67759998D01*
X167614532Y-67760001D01*
X167634364Y-67986686D01*
X167634366Y-67986697D01*
X167693258Y-68206488D01*
X167693261Y-68206497D01*
X167789431Y-68412732D01*
X167789432Y-68412734D01*
X167919954Y-68599141D01*
X168080858Y-68760045D01*
X168080861Y-68760047D01*
X168267266Y-68890568D01*
X168325275Y-68917618D01*
X168377714Y-68963791D01*
X168396866Y-69030984D01*
X168376650Y-69097865D01*
X168325275Y-69142382D01*
X168267267Y-69169431D01*
X168267265Y-69169432D01*
X168080858Y-69299954D01*
X167919954Y-69460858D01*
X167789432Y-69647265D01*
X167789431Y-69647267D01*
X167693261Y-69853502D01*
X167693258Y-69853511D01*
X167634366Y-70073302D01*
X167634364Y-70073313D01*
X167614532Y-70299998D01*
X167614532Y-70300001D01*
X167634364Y-70526686D01*
X167634366Y-70526697D01*
X167693258Y-70746488D01*
X167693261Y-70746497D01*
X167789431Y-70952732D01*
X167789432Y-70952734D01*
X167919954Y-71139141D01*
X168080858Y-71300045D01*
X168080861Y-71300047D01*
X168267266Y-71430568D01*
X168325275Y-71457618D01*
X168377714Y-71503791D01*
X168396866Y-71570984D01*
X168376650Y-71637865D01*
X168325275Y-71682382D01*
X168267267Y-71709431D01*
X168267265Y-71709432D01*
X168080858Y-71839954D01*
X167919954Y-72000858D01*
X167789432Y-72187265D01*
X167789431Y-72187267D01*
X167693261Y-72393502D01*
X167693258Y-72393511D01*
X167634366Y-72613302D01*
X167634364Y-72613313D01*
X167614532Y-72839998D01*
X167614532Y-72840001D01*
X162605468Y-72840001D01*
X162605468Y-72840000D01*
X162585635Y-72613308D01*
X162526739Y-72393504D01*
X162430568Y-72187266D01*
X162300047Y-72000861D01*
X162300045Y-72000858D01*
X162139141Y-71839954D01*
X161952734Y-71709432D01*
X161952728Y-71709429D01*
X161894725Y-71682382D01*
X161842285Y-71636210D01*
X161823133Y-71569017D01*
X161843348Y-71502135D01*
X161894725Y-71457618D01*
X161952734Y-71430568D01*
X162139139Y-71300047D01*
X162300047Y-71139139D01*
X162430568Y-70952734D01*
X162526739Y-70746496D01*
X162585635Y-70526692D01*
X162605468Y-70300000D01*
X162585635Y-70073308D01*
X162526739Y-69853504D01*
X162430568Y-69647266D01*
X162306509Y-69470090D01*
X162300045Y-69460858D01*
X162139141Y-69299954D01*
X161952734Y-69169432D01*
X161952728Y-69169429D01*
X161894725Y-69142382D01*
X161842285Y-69096210D01*
X161823133Y-69029017D01*
X161843348Y-68962135D01*
X161894725Y-68917618D01*
X161952734Y-68890568D01*
X162139139Y-68760047D01*
X162300047Y-68599139D01*
X162430568Y-68412734D01*
X162526739Y-68206496D01*
X162585635Y-67986692D01*
X162605468Y-67760000D01*
X162585635Y-67533308D01*
X162526739Y-67313504D01*
X162430568Y-67107266D01*
X162300047Y-66920861D01*
X162300045Y-66920858D01*
X162139141Y-66759954D01*
X161952734Y-66629432D01*
X161952728Y-66629429D01*
X161894725Y-66602382D01*
X161842285Y-66556210D01*
X161823133Y-66489017D01*
X161843348Y-66422135D01*
X161894725Y-66377618D01*
X161952734Y-66350568D01*
X162139139Y-66220047D01*
X162300047Y-66059139D01*
X162430568Y-65872734D01*
X162526739Y-65666496D01*
X162585635Y-65446692D01*
X162605468Y-65220000D01*
X162585635Y-64993308D01*
X162526739Y-64773504D01*
X162430568Y-64567266D01*
X162300047Y-64380861D01*
X162300045Y-64380858D01*
X162139141Y-64219954D01*
X161952734Y-64089432D01*
X161952728Y-64089429D01*
X161894725Y-64062382D01*
X161842285Y-64016210D01*
X161823133Y-63949017D01*
X161843348Y-63882135D01*
X161894725Y-63837618D01*
X161895319Y-63837341D01*
X161952734Y-63810568D01*
X162139139Y-63680047D01*
X162300047Y-63519139D01*
X162430568Y-63332734D01*
X162526739Y-63126496D01*
X162585635Y-62906692D01*
X162605468Y-62680000D01*
X162585635Y-62453308D01*
X162526739Y-62233504D01*
X162430568Y-62027266D01*
X162300047Y-61840861D01*
X162300045Y-61840858D01*
X162139141Y-61679954D01*
X161952734Y-61549432D01*
X161952728Y-61549429D01*
X161894725Y-61522382D01*
X161842285Y-61476210D01*
X161823133Y-61409017D01*
X161843348Y-61342135D01*
X161894725Y-61297618D01*
X161952734Y-61270568D01*
X162139139Y-61140047D01*
X162300047Y-60979139D01*
X162430568Y-60792734D01*
X162526739Y-60586496D01*
X162585635Y-60366692D01*
X162605468Y-60140000D01*
X162585635Y-59913308D01*
X162526739Y-59693504D01*
X162430568Y-59487266D01*
X162300047Y-59300861D01*
X162300045Y-59300858D01*
X162139143Y-59139956D01*
X162114536Y-59122726D01*
X162070912Y-59068149D01*
X162063719Y-58998650D01*
X162095241Y-58936296D01*
X162155471Y-58900882D01*
X162172404Y-58897861D01*
X162207483Y-58894091D01*
X162342331Y-58843796D01*
X162457546Y-58757546D01*
X162543796Y-58642331D01*
X162594091Y-58507483D01*
X162600500Y-58447873D01*
X162600499Y-56752128D01*
X162594091Y-56692517D01*
X162585291Y-56668924D01*
X162543797Y-56557671D01*
X162543793Y-56557664D01*
X162457547Y-56442455D01*
X162457544Y-56442452D01*
X162342335Y-56356206D01*
X162342328Y-56356202D01*
X162207482Y-56305908D01*
X162207483Y-56305908D01*
X162147883Y-56299501D01*
X162147881Y-56299500D01*
X162147873Y-56299500D01*
X162147864Y-56299500D01*
X160452129Y-56299500D01*
X160452123Y-56299501D01*
X160392516Y-56305908D01*
X160257671Y-56356202D01*
X160257664Y-56356206D01*
X160142455Y-56442452D01*
X160142452Y-56442455D01*
X160056206Y-56557664D01*
X160056202Y-56557671D01*
X160005908Y-56692517D01*
X159999501Y-56752116D01*
X159999501Y-56752123D01*
X159999500Y-56752135D01*
X159999500Y-58447870D01*
X159999501Y-58447876D01*
X160005908Y-58507483D01*
X160056202Y-58642328D01*
X160056206Y-58642335D01*
X160142452Y-58757544D01*
X160142455Y-58757547D01*
X160257664Y-58843793D01*
X160257671Y-58843797D01*
X160292245Y-58856692D01*
X160392517Y-58894091D01*
X160427596Y-58897862D01*
X160492144Y-58924599D01*
X160531993Y-58981991D01*
X160534488Y-59051816D01*
X160498836Y-59111905D01*
X160485464Y-59122725D01*
X160460858Y-59139954D01*
X160299954Y-59300858D01*
X160169432Y-59487265D01*
X160169431Y-59487267D01*
X160073261Y-59693502D01*
X160073258Y-59693511D01*
X160014366Y-59913302D01*
X160014364Y-59913313D01*
X159994532Y-60139998D01*
X159994532Y-60140001D01*
X160014364Y-60366686D01*
X160014366Y-60366697D01*
X160073258Y-60586488D01*
X160073261Y-60586497D01*
X160169431Y-60792732D01*
X160169432Y-60792734D01*
X160299954Y-60979141D01*
X160460858Y-61140045D01*
X160460861Y-61140047D01*
X160647266Y-61270568D01*
X160705275Y-61297618D01*
X160757714Y-61343791D01*
X160776866Y-61410984D01*
X160756650Y-61477865D01*
X160705275Y-61522382D01*
X160647267Y-61549431D01*
X160647265Y-61549432D01*
X160460858Y-61679954D01*
X160299954Y-61840858D01*
X160169432Y-62027265D01*
X160169431Y-62027267D01*
X160073261Y-62233502D01*
X160073258Y-62233511D01*
X160014366Y-62453302D01*
X160014364Y-62453313D01*
X159994532Y-62679998D01*
X159994532Y-62680001D01*
X160014364Y-62906686D01*
X160014366Y-62906697D01*
X160073258Y-63126488D01*
X160073261Y-63126497D01*
X160169431Y-63332732D01*
X160169432Y-63332734D01*
X160299954Y-63519141D01*
X160460858Y-63680045D01*
X160460861Y-63680047D01*
X160647266Y-63810568D01*
X160704681Y-63837341D01*
X160705275Y-63837618D01*
X160757714Y-63883791D01*
X160776866Y-63950984D01*
X160756650Y-64017865D01*
X160705275Y-64062382D01*
X160647267Y-64089431D01*
X160647265Y-64089432D01*
X160460858Y-64219954D01*
X160299954Y-64380858D01*
X160169432Y-64567265D01*
X160169431Y-64567267D01*
X160073261Y-64773502D01*
X160073258Y-64773511D01*
X160014366Y-64993302D01*
X160014364Y-64993313D01*
X159994532Y-65219998D01*
X159994532Y-65220001D01*
X160014364Y-65446686D01*
X160014366Y-65446697D01*
X160073258Y-65666488D01*
X160073261Y-65666497D01*
X160169431Y-65872732D01*
X160169432Y-65872734D01*
X160299954Y-66059141D01*
X160460858Y-66220045D01*
X160460861Y-66220047D01*
X160647266Y-66350568D01*
X160705275Y-66377618D01*
X160757714Y-66423791D01*
X160776866Y-66490984D01*
X160756650Y-66557865D01*
X160705275Y-66602382D01*
X160647267Y-66629431D01*
X160647265Y-66629432D01*
X160460858Y-66759954D01*
X160299954Y-66920858D01*
X160169432Y-67107265D01*
X160169431Y-67107267D01*
X160073261Y-67313502D01*
X160073258Y-67313511D01*
X160014366Y-67533302D01*
X160014364Y-67533313D01*
X159994532Y-67759998D01*
X159994532Y-67760001D01*
X160014364Y-67986686D01*
X160014366Y-67986697D01*
X160073258Y-68206488D01*
X160073261Y-68206497D01*
X160169431Y-68412732D01*
X160169432Y-68412734D01*
X160299954Y-68599141D01*
X160460858Y-68760045D01*
X160460861Y-68760047D01*
X160647266Y-68890568D01*
X160705275Y-68917618D01*
X160757714Y-68963791D01*
X160776866Y-69030984D01*
X160756650Y-69097865D01*
X160705275Y-69142382D01*
X160647267Y-69169431D01*
X160647265Y-69169432D01*
X160460858Y-69299954D01*
X160299954Y-69460858D01*
X160169432Y-69647265D01*
X160169431Y-69647267D01*
X160073261Y-69853502D01*
X160073258Y-69853511D01*
X160014366Y-70073302D01*
X160014364Y-70073313D01*
X159994532Y-70299998D01*
X159994532Y-70300001D01*
X160014364Y-70526686D01*
X160014366Y-70526697D01*
X160073258Y-70746488D01*
X160073261Y-70746497D01*
X160169431Y-70952732D01*
X160169432Y-70952734D01*
X160299954Y-71139141D01*
X160460858Y-71300045D01*
X160460861Y-71300047D01*
X160647266Y-71430568D01*
X160705275Y-71457618D01*
X160757714Y-71503791D01*
X160776866Y-71570984D01*
X160756650Y-71637865D01*
X160705275Y-71682382D01*
X160647267Y-71709431D01*
X160647265Y-71709432D01*
X160460858Y-71839954D01*
X160299954Y-72000858D01*
X160169432Y-72187265D01*
X160169431Y-72187267D01*
X160073261Y-72393502D01*
X160073258Y-72393511D01*
X160014366Y-72613302D01*
X160014364Y-72613313D01*
X159994532Y-72839998D01*
X159994532Y-72840001D01*
X160014364Y-73066686D01*
X160014366Y-73066697D01*
X160073258Y-73286488D01*
X160073261Y-73286497D01*
X160169431Y-73492732D01*
X160169432Y-73492734D01*
X160299954Y-73679141D01*
X160460858Y-73840045D01*
X160460861Y-73840047D01*
X160647266Y-73970568D01*
X160705275Y-73997618D01*
X160757714Y-74043791D01*
X160776866Y-74110984D01*
X160756650Y-74177865D01*
X160705275Y-74222382D01*
X160647267Y-74249431D01*
X160647265Y-74249432D01*
X160460858Y-74379954D01*
X160299954Y-74540858D01*
X160169432Y-74727265D01*
X160169431Y-74727267D01*
X160073261Y-74933502D01*
X160073258Y-74933511D01*
X160014366Y-75153302D01*
X160014364Y-75153313D01*
X159994532Y-75379998D01*
X159994532Y-75380001D01*
X148890409Y-75380001D01*
X148895659Y-75320000D01*
X148895290Y-75315788D01*
X148879036Y-75130000D01*
X148875063Y-75084592D01*
X148813903Y-74856337D01*
X148714035Y-74642171D01*
X148711994Y-74639255D01*
X148578494Y-74448597D01*
X148411402Y-74281506D01*
X148411401Y-74281505D01*
X148228250Y-74153261D01*
X148225405Y-74151269D01*
X148181781Y-74096692D01*
X148174588Y-74027193D01*
X148206110Y-73964839D01*
X148225405Y-73948119D01*
X148411082Y-73818105D01*
X148578105Y-73651082D01*
X148713600Y-73457578D01*
X148813429Y-73243492D01*
X148813432Y-73243486D01*
X148870636Y-73030000D01*
X147973012Y-73030000D01*
X148005925Y-72972993D01*
X148040000Y-72845826D01*
X148040000Y-72714174D01*
X148005925Y-72587007D01*
X147973012Y-72530000D01*
X148870636Y-72530000D01*
X148870635Y-72529999D01*
X148813432Y-72316513D01*
X148813429Y-72316507D01*
X148713600Y-72102422D01*
X148713599Y-72102420D01*
X148578113Y-71908926D01*
X148578108Y-71908920D01*
X148411078Y-71741890D01*
X148225405Y-71611879D01*
X148181780Y-71557302D01*
X148174588Y-71487804D01*
X148206110Y-71425449D01*
X148225406Y-71408730D01*
X148226279Y-71408119D01*
X148411401Y-71278495D01*
X148578495Y-71111401D01*
X148714035Y-70917830D01*
X148813903Y-70703663D01*
X148875063Y-70475408D01*
X148895659Y-70240000D01*
X148875063Y-70004592D01*
X148813903Y-69776337D01*
X148714035Y-69562171D01*
X148708731Y-69554595D01*
X148578494Y-69368597D01*
X148411402Y-69201506D01*
X148411401Y-69201505D01*
X148228250Y-69073261D01*
X148225405Y-69071269D01*
X148181781Y-69016692D01*
X148174588Y-68947193D01*
X148206110Y-68884839D01*
X148225405Y-68868119D01*
X148411082Y-68738105D01*
X148578105Y-68571082D01*
X148713600Y-68377578D01*
X148813429Y-68163492D01*
X148813432Y-68163486D01*
X148870636Y-67950000D01*
X147973012Y-67950000D01*
X148005925Y-67892993D01*
X148040000Y-67765826D01*
X148040000Y-67634174D01*
X148005925Y-67507007D01*
X147973012Y-67450000D01*
X148870636Y-67450000D01*
X148870635Y-67449999D01*
X148813432Y-67236513D01*
X148813429Y-67236507D01*
X148713600Y-67022422D01*
X148713599Y-67022420D01*
X148578113Y-66828926D01*
X148578108Y-66828920D01*
X148411078Y-66661890D01*
X148225405Y-66531879D01*
X148181780Y-66477302D01*
X148174588Y-66407804D01*
X148206110Y-66345449D01*
X148225406Y-66328730D01*
X148226279Y-66328119D01*
X148411401Y-66198495D01*
X148578495Y-66031401D01*
X148714035Y-65837830D01*
X148813903Y-65623663D01*
X148875063Y-65395408D01*
X148895659Y-65160000D01*
X148875063Y-64924592D01*
X148813903Y-64696337D01*
X148714035Y-64482171D01*
X148710226Y-64476730D01*
X148578494Y-64288597D01*
X148411402Y-64121506D01*
X148411401Y-64121505D01*
X148228250Y-63993261D01*
X148225405Y-63991269D01*
X148181781Y-63936692D01*
X148174588Y-63867193D01*
X148206110Y-63804839D01*
X148225405Y-63788119D01*
X148411082Y-63658105D01*
X148578105Y-63491082D01*
X148713600Y-63297578D01*
X148813429Y-63083492D01*
X148813432Y-63083486D01*
X148870636Y-62870000D01*
X147973012Y-62870000D01*
X148005925Y-62812993D01*
X148040000Y-62685826D01*
X148040000Y-62554174D01*
X148005925Y-62427007D01*
X147973012Y-62370000D01*
X148870636Y-62370000D01*
X148870635Y-62369999D01*
X148813432Y-62156513D01*
X148813429Y-62156507D01*
X148713600Y-61942422D01*
X148713599Y-61942420D01*
X148578113Y-61748926D01*
X148578108Y-61748920D01*
X148411078Y-61581890D01*
X148225405Y-61451879D01*
X148181780Y-61397302D01*
X148174588Y-61327804D01*
X148206110Y-61265449D01*
X148225406Y-61248730D01*
X148226279Y-61248119D01*
X148411401Y-61118495D01*
X148578495Y-60951401D01*
X148714035Y-60757830D01*
X148813903Y-60543663D01*
X148875063Y-60315408D01*
X148895659Y-60080000D01*
X148875063Y-59844592D01*
X148813903Y-59616337D01*
X148714035Y-59402171D01*
X148708731Y-59394595D01*
X148578494Y-59208597D01*
X148411402Y-59041506D01*
X148411401Y-59041505D01*
X148228250Y-58913261D01*
X148225405Y-58911269D01*
X148181781Y-58856692D01*
X148174588Y-58787193D01*
X148206110Y-58724839D01*
X148225405Y-58708119D01*
X148411082Y-58578105D01*
X148578105Y-58411082D01*
X148713600Y-58217578D01*
X148813429Y-58003492D01*
X148813432Y-58003486D01*
X148870636Y-57790000D01*
X147973012Y-57790000D01*
X148005925Y-57732993D01*
X148040000Y-57605826D01*
X148040000Y-57474174D01*
X148005925Y-57347007D01*
X147973012Y-57290000D01*
X148870636Y-57290000D01*
X148870635Y-57289999D01*
X148813432Y-57076513D01*
X148813429Y-57076507D01*
X148713600Y-56862422D01*
X148713599Y-56862420D01*
X148578113Y-56668926D01*
X148578108Y-56668920D01*
X148456053Y-56546865D01*
X148422568Y-56485542D01*
X148427552Y-56415850D01*
X148469424Y-56359917D01*
X148500400Y-56343002D01*
X148632331Y-56293796D01*
X148747546Y-56207546D01*
X148833796Y-56092331D01*
X148884091Y-55957483D01*
X148890500Y-55897873D01*
X148890499Y-54102128D01*
X148884091Y-54042517D01*
X148883002Y-54039598D01*
X148833797Y-53907671D01*
X148833793Y-53907664D01*
X148747547Y-53792455D01*
X148747544Y-53792452D01*
X148632335Y-53706206D01*
X148632328Y-53706202D01*
X148497482Y-53655908D01*
X148497483Y-53655908D01*
X148437883Y-53649501D01*
X148437881Y-53649500D01*
X148437873Y-53649500D01*
X148437864Y-53649500D01*
X146642129Y-53649500D01*
X146642123Y-53649501D01*
X146582516Y-53655908D01*
X146447671Y-53706202D01*
X146447664Y-53706206D01*
X146332455Y-53792452D01*
X146332452Y-53792455D01*
X146246206Y-53907664D01*
X146246202Y-53907671D01*
X146196997Y-54039598D01*
X146155126Y-54095532D01*
X146089661Y-54119949D01*
X146021388Y-54105097D01*
X145993134Y-54083946D01*
X145871082Y-53961894D01*
X145677578Y-53826399D01*
X145463492Y-53726570D01*
X145463486Y-53726567D01*
X145250000Y-53669364D01*
X145250000Y-54566988D01*
X145192993Y-54534075D01*
X145065826Y-54500000D01*
X144934174Y-54500000D01*
X144807007Y-54534075D01*
X144750000Y-54566988D01*
X144750000Y-53669364D01*
X144749999Y-53669364D01*
X144536513Y-53726567D01*
X144536507Y-53726570D01*
X144322422Y-53826399D01*
X144322420Y-53826400D01*
X144128926Y-53961886D01*
X144128920Y-53961891D01*
X143961891Y-54128920D01*
X143961886Y-54128926D01*
X143826400Y-54322420D01*
X143826399Y-54322422D01*
X143726570Y-54536507D01*
X143726567Y-54536513D01*
X143669364Y-54749999D01*
X143669364Y-54750000D01*
X144566988Y-54750000D01*
X144534075Y-54807007D01*
X144500000Y-54934174D01*
X144500000Y-55065826D01*
X144534075Y-55192993D01*
X144566988Y-55250000D01*
X143669364Y-55250000D01*
X143726567Y-55463486D01*
X143726570Y-55463492D01*
X143826399Y-55677578D01*
X143961894Y-55871082D01*
X144128917Y-56038105D01*
X144314595Y-56168119D01*
X144358219Y-56222696D01*
X144365412Y-56292195D01*
X144333890Y-56354549D01*
X144314595Y-56371269D01*
X144128594Y-56501508D01*
X143961505Y-56668597D01*
X143825965Y-56862169D01*
X143825964Y-56862171D01*
X143726098Y-57076335D01*
X143726094Y-57076344D01*
X143664938Y-57304586D01*
X143664936Y-57304596D01*
X143644341Y-57539999D01*
X143644341Y-57540000D01*
X143664936Y-57775403D01*
X143664938Y-57775413D01*
X143726094Y-58003655D01*
X143726096Y-58003659D01*
X143726097Y-58003663D01*
X143809155Y-58181781D01*
X143825965Y-58217830D01*
X143825967Y-58217834D01*
X143918137Y-58349465D01*
X143961501Y-58411396D01*
X143961506Y-58411402D01*
X144128597Y-58578493D01*
X144128603Y-58578498D01*
X144314594Y-58708730D01*
X144358219Y-58763307D01*
X144365413Y-58832805D01*
X144333890Y-58895160D01*
X144314595Y-58911880D01*
X144128922Y-59041890D01*
X144128920Y-59041891D01*
X143961891Y-59208920D01*
X143961886Y-59208926D01*
X143826400Y-59402420D01*
X143826399Y-59402422D01*
X143726570Y-59616507D01*
X143726567Y-59616513D01*
X143669364Y-59829999D01*
X143669364Y-59830000D01*
X144566988Y-59830000D01*
X144534075Y-59887007D01*
X144500000Y-60014174D01*
X144500000Y-60145826D01*
X144534075Y-60272993D01*
X144566988Y-60330000D01*
X143669364Y-60330000D01*
X143726567Y-60543486D01*
X143726570Y-60543492D01*
X143826399Y-60757578D01*
X143961894Y-60951082D01*
X144128917Y-61118105D01*
X144314595Y-61248119D01*
X144358219Y-61302696D01*
X144365412Y-61372195D01*
X144333890Y-61434549D01*
X144314595Y-61451269D01*
X144128594Y-61581508D01*
X143961505Y-61748597D01*
X143825965Y-61942169D01*
X143825964Y-61942171D01*
X143726098Y-62156335D01*
X143726094Y-62156344D01*
X143664938Y-62384586D01*
X143664936Y-62384596D01*
X143644341Y-62619999D01*
X143644341Y-62620000D01*
X143664936Y-62855403D01*
X143664938Y-62855413D01*
X143726094Y-63083655D01*
X143726096Y-63083659D01*
X143726097Y-63083663D01*
X143809155Y-63261781D01*
X143825965Y-63297830D01*
X143825967Y-63297834D01*
X143926159Y-63440922D01*
X143961501Y-63491396D01*
X143961506Y-63491402D01*
X144128597Y-63658493D01*
X144128603Y-63658498D01*
X144314594Y-63788730D01*
X144358219Y-63843307D01*
X144365413Y-63912805D01*
X144333890Y-63975160D01*
X144314595Y-63991880D01*
X144128922Y-64121890D01*
X144128920Y-64121891D01*
X143961891Y-64288920D01*
X143961886Y-64288926D01*
X143826400Y-64482420D01*
X143826399Y-64482422D01*
X143726570Y-64696507D01*
X143726567Y-64696513D01*
X143669364Y-64909999D01*
X143669364Y-64910000D01*
X144566988Y-64910000D01*
X144534075Y-64967007D01*
X144500000Y-65094174D01*
X144500000Y-65225826D01*
X144534075Y-65352993D01*
X144566988Y-65410000D01*
X143669364Y-65410000D01*
X143726567Y-65623486D01*
X143726570Y-65623492D01*
X143826399Y-65837578D01*
X143961894Y-66031082D01*
X144128917Y-66198105D01*
X144314595Y-66328119D01*
X144358219Y-66382696D01*
X144365412Y-66452195D01*
X144333890Y-66514549D01*
X144314595Y-66531269D01*
X144128594Y-66661508D01*
X143961505Y-66828597D01*
X143825965Y-67022169D01*
X143825964Y-67022171D01*
X143726098Y-67236335D01*
X143726094Y-67236344D01*
X143664938Y-67464586D01*
X143664936Y-67464596D01*
X143644341Y-67699999D01*
X143644341Y-67700000D01*
X143664936Y-67935403D01*
X143664938Y-67935413D01*
X143726094Y-68163655D01*
X143726096Y-68163659D01*
X143726097Y-68163663D01*
X143809155Y-68341781D01*
X143825965Y-68377830D01*
X143825967Y-68377834D01*
X143926159Y-68520922D01*
X143961501Y-68571396D01*
X143961506Y-68571402D01*
X144128597Y-68738493D01*
X144128603Y-68738498D01*
X144314594Y-68868730D01*
X144358219Y-68923307D01*
X144365413Y-68992805D01*
X144333890Y-69055160D01*
X144314595Y-69071880D01*
X144128922Y-69201890D01*
X144128920Y-69201891D01*
X143961891Y-69368920D01*
X143961886Y-69368926D01*
X143826400Y-69562420D01*
X143826399Y-69562422D01*
X143726570Y-69776507D01*
X143726567Y-69776513D01*
X143669364Y-69989999D01*
X143669364Y-69990000D01*
X144566988Y-69990000D01*
X144534075Y-70047007D01*
X144500000Y-70174174D01*
X144500000Y-70305826D01*
X144534075Y-70432993D01*
X144566988Y-70490000D01*
X143669364Y-70490000D01*
X143726567Y-70703486D01*
X143726570Y-70703492D01*
X143826399Y-70917578D01*
X143961894Y-71111082D01*
X144128917Y-71278105D01*
X144314595Y-71408119D01*
X144358219Y-71462696D01*
X144365412Y-71532195D01*
X144333890Y-71594549D01*
X144314595Y-71611269D01*
X144128594Y-71741508D01*
X143961505Y-71908597D01*
X143825965Y-72102169D01*
X143825964Y-72102171D01*
X143726098Y-72316335D01*
X143726094Y-72316344D01*
X143664938Y-72544586D01*
X143664936Y-72544596D01*
X143644341Y-72779999D01*
X143644341Y-72780000D01*
X140500500Y-72780000D01*
X140500500Y-44960003D01*
X167884435Y-44960003D01*
X167904630Y-45139249D01*
X167904631Y-45139254D01*
X167964211Y-45309523D01*
X168022384Y-45402104D01*
X168060184Y-45462262D01*
X168187738Y-45589816D01*
X168340478Y-45685789D01*
X168372869Y-45697123D01*
X168510745Y-45745368D01*
X168510750Y-45745369D01*
X168689996Y-45765565D01*
X168690000Y-45765565D01*
X168690004Y-45765565D01*
X168869249Y-45745369D01*
X168869252Y-45745368D01*
X168869255Y-45745368D01*
X169039522Y-45685789D01*
X169192262Y-45589816D01*
X169319816Y-45462262D01*
X169415789Y-45309522D01*
X169475368Y-45139255D01*
X169491903Y-44992500D01*
X169495565Y-44960003D01*
X169495565Y-44959996D01*
X169475369Y-44780750D01*
X169475368Y-44780745D01*
X169460583Y-44738493D01*
X169415789Y-44610478D01*
X169391231Y-44571395D01*
X169319815Y-44457737D01*
X169192262Y-44330184D01*
X169039523Y-44234211D01*
X168869254Y-44174631D01*
X168869249Y-44174630D01*
X168690004Y-44154435D01*
X168689996Y-44154435D01*
X168510750Y-44174630D01*
X168510745Y-44174631D01*
X168340476Y-44234211D01*
X168187737Y-44330184D01*
X168060184Y-44457737D01*
X167964211Y-44610476D01*
X167904631Y-44780745D01*
X167904630Y-44780750D01*
X167884435Y-44959996D01*
X167884435Y-44960003D01*
X140500500Y-44960003D01*
X140500500Y-31897870D01*
X143649500Y-31897870D01*
X143649501Y-31897876D01*
X143655908Y-31957483D01*
X143706202Y-32092328D01*
X143706206Y-32092335D01*
X143792452Y-32207544D01*
X143792455Y-32207547D01*
X143907664Y-32293793D01*
X143907671Y-32293797D01*
X143907674Y-32293798D01*
X144039598Y-32343002D01*
X144095531Y-32384873D01*
X144119949Y-32450337D01*
X144105098Y-32518610D01*
X144083947Y-32546865D01*
X143961886Y-32668926D01*
X143826400Y-32862420D01*
X143826399Y-32862422D01*
X143726570Y-33076507D01*
X143726567Y-33076513D01*
X143669364Y-33289999D01*
X143669364Y-33290000D01*
X144566988Y-33290000D01*
X144534075Y-33347007D01*
X144500000Y-33474174D01*
X144500000Y-33605826D01*
X144534075Y-33732993D01*
X144566988Y-33790000D01*
X143669364Y-33790000D01*
X143726567Y-34003486D01*
X143726570Y-34003492D01*
X143826399Y-34217578D01*
X143961894Y-34411082D01*
X144128917Y-34578105D01*
X144322421Y-34713600D01*
X144536507Y-34813429D01*
X144536516Y-34813433D01*
X144750000Y-34870634D01*
X144750000Y-33973012D01*
X144807007Y-34005925D01*
X144934174Y-34040000D01*
X145065826Y-34040000D01*
X145192993Y-34005925D01*
X145250000Y-33973012D01*
X145250000Y-34870633D01*
X145463483Y-34813433D01*
X145463492Y-34813429D01*
X145677578Y-34713600D01*
X145871082Y-34578105D01*
X146038105Y-34411082D01*
X146173600Y-34217578D01*
X146273429Y-34003492D01*
X146273432Y-34003486D01*
X146330636Y-33790000D01*
X145433012Y-33790000D01*
X145465925Y-33732993D01*
X145500000Y-33605826D01*
X145500000Y-33474174D01*
X145465925Y-33347007D01*
X145433012Y-33290000D01*
X146330636Y-33290000D01*
X146330635Y-33289999D01*
X146273432Y-33076513D01*
X146273429Y-33076507D01*
X146173600Y-32862422D01*
X146173599Y-32862420D01*
X146038113Y-32668926D01*
X146038108Y-32668920D01*
X145916053Y-32546865D01*
X145882568Y-32485542D01*
X145887552Y-32415850D01*
X145929424Y-32359917D01*
X145960400Y-32343002D01*
X146092331Y-32293796D01*
X146207546Y-32207546D01*
X146293796Y-32092331D01*
X146344091Y-31957483D01*
X146350500Y-31897873D01*
X146350499Y-30102128D01*
X146344091Y-30042517D01*
X146318885Y-29974937D01*
X146293797Y-29907671D01*
X146293793Y-29907664D01*
X146207547Y-29792455D01*
X146207544Y-29792452D01*
X146092335Y-29706206D01*
X146092328Y-29706202D01*
X145957482Y-29655908D01*
X145957483Y-29655908D01*
X145897883Y-29649501D01*
X145897881Y-29649500D01*
X145897873Y-29649500D01*
X145897864Y-29649500D01*
X144102129Y-29649500D01*
X144102123Y-29649501D01*
X144042516Y-29655908D01*
X143907671Y-29706202D01*
X143907664Y-29706206D01*
X143792455Y-29792452D01*
X143792452Y-29792455D01*
X143706206Y-29907664D01*
X143706202Y-29907671D01*
X143655908Y-30042517D01*
X143653572Y-30064250D01*
X143649501Y-30102123D01*
X143649500Y-30102135D01*
X143649500Y-31897870D01*
X140500500Y-31897870D01*
X140500500Y-25002706D01*
X140500559Y-25000000D01*
X142695065Y-25000000D01*
X142714784Y-25300852D01*
X142714786Y-25300864D01*
X142773602Y-25596553D01*
X142773607Y-25596573D01*
X142870514Y-25882052D01*
X142870518Y-25882062D01*
X143003868Y-26152469D01*
X143171371Y-26403155D01*
X143171374Y-26403159D01*
X143204973Y-26441470D01*
X143204974Y-26441470D01*
X143705747Y-25940697D01*
X143779588Y-26042330D01*
X143957670Y-26220412D01*
X144059301Y-26294251D01*
X143558528Y-26795024D01*
X143558528Y-26795025D01*
X143596840Y-26828625D01*
X143596844Y-26828628D01*
X143847530Y-26996131D01*
X144117937Y-27129481D01*
X144117947Y-27129485D01*
X144403426Y-27226392D01*
X144403446Y-27226397D01*
X144699135Y-27285213D01*
X144699147Y-27285215D01*
X145000000Y-27304934D01*
X145300852Y-27285215D01*
X145300864Y-27285213D01*
X145596553Y-27226397D01*
X145596573Y-27226392D01*
X145882052Y-27129485D01*
X145882062Y-27129481D01*
X146152469Y-26996131D01*
X146403157Y-26828627D01*
X146441470Y-26795025D01*
X146441470Y-26795023D01*
X145940698Y-26294251D01*
X146042330Y-26220412D01*
X146220412Y-26042330D01*
X146294251Y-25940698D01*
X146795023Y-26441470D01*
X146795025Y-26441470D01*
X146828627Y-26403157D01*
X146996131Y-26152469D01*
X147129481Y-25882062D01*
X147129485Y-25882052D01*
X147145285Y-25835508D01*
X150559400Y-25835508D01*
X150559401Y-25835525D01*
X150586627Y-26042330D01*
X150591918Y-26082515D01*
X150637933Y-26254244D01*
X150656398Y-26323157D01*
X150751730Y-26553311D01*
X150751737Y-26553326D01*
X150876300Y-26769076D01*
X151027960Y-26966724D01*
X151027966Y-26966731D01*
X151204118Y-27142883D01*
X151204125Y-27142889D01*
X151401773Y-27294549D01*
X151617523Y-27419112D01*
X151617538Y-27419119D01*
X151716725Y-27460203D01*
X151847693Y-27514452D01*
X152088335Y-27578932D01*
X152335335Y-27611450D01*
X152335342Y-27611450D01*
X152584458Y-27611450D01*
X152584465Y-27611450D01*
X152831465Y-27578932D01*
X153072107Y-27514452D01*
X153302273Y-27419114D01*
X153518027Y-27294549D01*
X153715676Y-27142888D01*
X153891838Y-26966726D01*
X154043499Y-26769077D01*
X154168064Y-26553323D01*
X154263402Y-26323157D01*
X154327882Y-26082515D01*
X154360400Y-25835515D01*
X154360400Y-25835508D01*
X163259400Y-25835508D01*
X163259401Y-25835525D01*
X163286627Y-26042330D01*
X163291918Y-26082515D01*
X163337933Y-26254244D01*
X163356398Y-26323157D01*
X163451730Y-26553311D01*
X163451737Y-26553326D01*
X163576300Y-26769076D01*
X163727960Y-26966724D01*
X163727966Y-26966731D01*
X163904118Y-27142883D01*
X163904125Y-27142889D01*
X164101773Y-27294549D01*
X164317523Y-27419112D01*
X164317538Y-27419119D01*
X164416725Y-27460203D01*
X164547693Y-27514452D01*
X164788335Y-27578932D01*
X165035335Y-27611450D01*
X165035342Y-27611450D01*
X165284458Y-27611450D01*
X165284465Y-27611450D01*
X165531465Y-27578932D01*
X165772107Y-27514452D01*
X166002273Y-27419114D01*
X166218027Y-27294549D01*
X166415676Y-27142888D01*
X166591838Y-26966726D01*
X166743499Y-26769077D01*
X166868064Y-26553323D01*
X166963402Y-26323157D01*
X167027882Y-26082515D01*
X167060400Y-25835515D01*
X167060400Y-25586385D01*
X167027882Y-25339385D01*
X166963402Y-25098743D01*
X166904518Y-24956585D01*
X166868069Y-24868588D01*
X166868062Y-24868573D01*
X166743499Y-24652823D01*
X166591839Y-24455175D01*
X166591833Y-24455168D01*
X166415681Y-24279016D01*
X166415674Y-24279010D01*
X166218026Y-24127350D01*
X166002276Y-24002787D01*
X166002261Y-24002780D01*
X165772107Y-23907448D01*
X165531461Y-23842967D01*
X165284475Y-23810451D01*
X165284470Y-23810450D01*
X165284465Y-23810450D01*
X165035335Y-23810450D01*
X165035329Y-23810450D01*
X165035324Y-23810451D01*
X164788338Y-23842967D01*
X164547692Y-23907448D01*
X164317538Y-24002780D01*
X164317523Y-24002787D01*
X164101773Y-24127350D01*
X163904125Y-24279010D01*
X163904118Y-24279016D01*
X163727966Y-24455168D01*
X163727960Y-24455175D01*
X163576300Y-24652823D01*
X163451737Y-24868573D01*
X163451730Y-24868588D01*
X163356398Y-25098742D01*
X163291917Y-25339388D01*
X163259401Y-25586374D01*
X163259400Y-25586391D01*
X163259400Y-25835508D01*
X154360400Y-25835508D01*
X154360400Y-25586385D01*
X154327882Y-25339385D01*
X154263402Y-25098743D01*
X154204518Y-24956585D01*
X154168069Y-24868588D01*
X154168062Y-24868573D01*
X154043499Y-24652823D01*
X153891839Y-24455175D01*
X153891833Y-24455168D01*
X153715681Y-24279016D01*
X153715674Y-24279010D01*
X153518026Y-24127350D01*
X153302276Y-24002787D01*
X153302261Y-24002780D01*
X153072107Y-23907448D01*
X152831461Y-23842967D01*
X152584475Y-23810451D01*
X152584470Y-23810450D01*
X152584465Y-23810450D01*
X152335335Y-23810450D01*
X152335329Y-23810450D01*
X152335324Y-23810451D01*
X152088338Y-23842967D01*
X151847692Y-23907448D01*
X151617538Y-24002780D01*
X151617523Y-24002787D01*
X151401773Y-24127350D01*
X151204125Y-24279010D01*
X151204118Y-24279016D01*
X151027966Y-24455168D01*
X151027960Y-24455175D01*
X150876300Y-24652823D01*
X150751737Y-24868573D01*
X150751730Y-24868588D01*
X150656398Y-25098742D01*
X150591917Y-25339388D01*
X150559401Y-25586374D01*
X150559400Y-25586391D01*
X150559400Y-25835508D01*
X147145285Y-25835508D01*
X147226392Y-25596573D01*
X147226397Y-25596553D01*
X147285213Y-25300864D01*
X147285215Y-25300852D01*
X147304934Y-25000000D01*
X147285215Y-24699147D01*
X147285213Y-24699135D01*
X147226397Y-24403446D01*
X147226393Y-24403431D01*
X147129483Y-24117944D01*
X147129474Y-24117923D01*
X146996129Y-23847528D01*
X146828633Y-23596851D01*
X146828625Y-23596840D01*
X146795025Y-23558528D01*
X146795024Y-23558528D01*
X146294251Y-24059300D01*
X146220412Y-23957670D01*
X146042330Y-23779588D01*
X145940697Y-23705747D01*
X146441470Y-23204974D01*
X146441470Y-23204973D01*
X146403159Y-23171374D01*
X146403155Y-23171371D01*
X146152469Y-23003868D01*
X145882062Y-22870518D01*
X145882052Y-22870514D01*
X145596573Y-22773607D01*
X145596553Y-22773602D01*
X145300864Y-22714786D01*
X145300852Y-22714784D01*
X145000000Y-22695065D01*
X144699147Y-22714784D01*
X144699135Y-22714786D01*
X144403446Y-22773602D01*
X144403431Y-22773606D01*
X144117944Y-22870516D01*
X144117923Y-22870525D01*
X143847528Y-23003870D01*
X143596844Y-23171370D01*
X143596837Y-23171376D01*
X143558528Y-23204972D01*
X143558527Y-23204974D01*
X144059301Y-23705748D01*
X143957670Y-23779588D01*
X143779588Y-23957670D01*
X143705748Y-24059301D01*
X143204974Y-23558527D01*
X143204972Y-23558528D01*
X143171376Y-23596837D01*
X143171370Y-23596844D01*
X143003870Y-23847528D01*
X142870525Y-24117923D01*
X142870516Y-24117944D01*
X142773606Y-24403431D01*
X142773602Y-24403446D01*
X142714786Y-24699135D01*
X142714784Y-24699147D01*
X142695065Y-25000000D01*
X140500559Y-25000000D01*
X140500618Y-24997297D01*
X140502279Y-24959246D01*
X140517386Y-24613226D01*
X140518326Y-24602495D01*
X140568152Y-24224025D01*
X140570025Y-24213405D01*
X140652649Y-23840709D01*
X140655440Y-23830295D01*
X140770230Y-23466227D01*
X140773917Y-23456095D01*
X140920003Y-23103412D01*
X140924561Y-23093638D01*
X141100822Y-22755045D01*
X141106217Y-22745700D01*
X141311325Y-22423744D01*
X141317515Y-22414905D01*
X141549896Y-22112060D01*
X141556834Y-22103791D01*
X141814726Y-21822352D01*
X141822352Y-21814726D01*
X142103791Y-21556834D01*
X142112060Y-21549896D01*
X142414905Y-21317515D01*
X142423744Y-21311325D01*
X142745700Y-21106217D01*
X142755045Y-21100822D01*
X143093638Y-20924561D01*
X143103412Y-20920003D01*
X143456095Y-20773917D01*
X143466227Y-20770230D01*
X143830295Y-20655440D01*
X143840709Y-20652649D01*
X144213405Y-20570025D01*
X144224025Y-20568152D01*
X144602495Y-20518326D01*
X144613226Y-20517386D01*
X144997297Y-20500617D01*
X145002706Y-20500500D01*
X145065892Y-20500500D01*
X204934108Y-20500500D01*
X204997294Y-20500500D01*
X205002702Y-20500617D01*
G37*
%TD.AperFunction*%
%TD*%
M02*
