%TF.GenerationSoftware,KiCad,Pcbnew,8.0.0-8.0.0-1~ubuntu20.04.1*%
%TF.CreationDate,2024-06-18T17:36:17-06:00*%
%TF.ProjectId,BioReactify,42696f52-6561-4637-9469-66792e6b6963,rev?*%
%TF.SameCoordinates,Original*%
%TF.FileFunction,Soldermask,Top*%
%TF.FilePolarity,Negative*%
%FSLAX46Y46*%
G04 Gerber Fmt 4.6, Leading zero omitted, Abs format (unit mm)*
G04 Created by KiCad (PCBNEW 8.0.0-8.0.0-1~ubuntu20.04.1) date 2024-06-18 17:36:17*
%MOMM*%
%LPD*%
G01*
G04 APERTURE LIST*
G04 Aperture macros list*
%AMRoundRect*
0 Rectangle with rounded corners*
0 $1 Rounding radius*
0 $2 $3 $4 $5 $6 $7 $8 $9 X,Y pos of 4 corners*
0 Add a 4 corners polygon primitive as box body*
4,1,4,$2,$3,$4,$5,$6,$7,$8,$9,$2,$3,0*
0 Add four circle primitives for the rounded corners*
1,1,$1+$1,$2,$3*
1,1,$1+$1,$4,$5*
1,1,$1+$1,$6,$7*
1,1,$1+$1,$8,$9*
0 Add four rect primitives between the rounded corners*
20,1,$1+$1,$2,$3,$4,$5,0*
20,1,$1+$1,$4,$5,$6,$7,0*
20,1,$1+$1,$6,$7,$8,$9,0*
20,1,$1+$1,$8,$9,$2,$3,0*%
G04 Aperture macros list end*
%ADD10C,3.300000*%
%ADD11RoundRect,0.050000X0.325000X1.525000X-0.325000X1.525000X-0.325000X-1.525000X0.325000X-1.525000X0*%
%ADD12RoundRect,0.050000X1.250000X1.945000X-1.250000X1.945000X-1.250000X-1.945000X1.250000X-1.945000X0*%
%ADD13RoundRect,0.250000X0.250000X0.475000X-0.250000X0.475000X-0.250000X-0.475000X0.250000X-0.475000X0*%
%ADD14RoundRect,0.250000X-0.350000X-0.450000X0.350000X-0.450000X0.350000X0.450000X-0.350000X0.450000X0*%
%ADD15RoundRect,0.250000X0.350000X0.450000X-0.350000X0.450000X-0.350000X-0.450000X0.350000X-0.450000X0*%
%ADD16RoundRect,0.250000X0.450000X-0.350000X0.450000X0.350000X-0.450000X0.350000X-0.450000X-0.350000X0*%
%ADD17RoundRect,0.250000X-0.450000X0.350000X-0.450000X-0.350000X0.450000X-0.350000X0.450000X0.350000X0*%
%ADD18RoundRect,0.250000X-0.475000X0.337500X-0.475000X-0.337500X0.475000X-0.337500X0.475000X0.337500X0*%
%ADD19RoundRect,0.250000X-0.475000X0.250000X-0.475000X-0.250000X0.475000X-0.250000X0.475000X0.250000X0*%
%ADD20RoundRect,0.250000X-0.845000X0.620000X-0.845000X-0.620000X0.845000X-0.620000X0.845000X0.620000X0*%
%ADD21O,2.190000X1.740000*%
%ADD22RoundRect,0.102000X-1.000000X-1.000000X1.000000X-1.000000X1.000000X1.000000X-1.000000X1.000000X0*%
%ADD23C,2.204000*%
%ADD24RoundRect,0.150000X0.825000X0.150000X-0.825000X0.150000X-0.825000X-0.150000X0.825000X-0.150000X0*%
%ADD25RoundRect,0.250000X0.620000X0.845000X-0.620000X0.845000X-0.620000X-0.845000X0.620000X-0.845000X0*%
%ADD26O,1.740000X2.190000*%
%ADD27C,3.600000*%
%ADD28C,5.600000*%
%ADD29RoundRect,0.100000X0.637500X0.100000X-0.637500X0.100000X-0.637500X-0.100000X0.637500X-0.100000X0*%
%ADD30R,1.600000X1.600000*%
%ADD31O,1.600000X1.600000*%
%ADD32RoundRect,0.250000X-0.625000X0.400000X-0.625000X-0.400000X0.625000X-0.400000X0.625000X0.400000X0*%
%ADD33C,1.200000*%
%ADD34R,1.700000X1.700000*%
%ADD35O,1.700000X1.700000*%
G04 APERTURE END LIST*
D10*
%TO.C,IC1*%
X165159900Y-25710950D03*
X152459900Y-25710950D03*
D11*
X155239900Y-35690950D03*
X156260000Y-35690950D03*
X157279800Y-35690950D03*
X158299800Y-35690950D03*
X159319900Y-35690950D03*
X160340000Y-35690950D03*
X161359800Y-35690950D03*
X162379800Y-35690950D03*
D12*
X167470000Y-25710950D03*
X150150000Y-25710950D03*
%TD*%
D13*
%TO.C,C10*%
X158140000Y-75335000D03*
X156240000Y-75335000D03*
%TD*%
D14*
%TO.C,R3*%
X178980000Y-48760000D03*
X180980000Y-48760000D03*
%TD*%
%TO.C,R4*%
X203440000Y-57280000D03*
X205440000Y-57280000D03*
%TD*%
D15*
%TO.C,R26*%
X178000000Y-66360000D03*
X176000000Y-66360000D03*
%TD*%
%TO.C,R6*%
X196110000Y-53580000D03*
X194110000Y-53580000D03*
%TD*%
%TO.C,R22*%
X153200000Y-67725000D03*
X151200000Y-67725000D03*
%TD*%
D13*
%TO.C,C8*%
X158090000Y-70285000D03*
X156190000Y-70285000D03*
%TD*%
%TO.C,C7*%
X158090000Y-67780000D03*
X156190000Y-67780000D03*
%TD*%
D15*
%TO.C,R25*%
X153200000Y-75375000D03*
X151200000Y-75375000D03*
%TD*%
D16*
%TO.C,R5*%
X200760000Y-65120000D03*
X200760000Y-63120000D03*
%TD*%
D14*
%TO.C,R15*%
X179010000Y-46240000D03*
X181010000Y-46240000D03*
%TD*%
D15*
%TO.C,R18*%
X153200000Y-57525000D03*
X151200000Y-57525000D03*
%TD*%
D17*
%TO.C,R13*%
X183950000Y-76010000D03*
X183950000Y-78010000D03*
%TD*%
%TO.C,R2*%
X180150000Y-54160000D03*
X180150000Y-56160000D03*
%TD*%
%TO.C,R10*%
X195520000Y-75730000D03*
X195520000Y-77730000D03*
%TD*%
D15*
%TO.C,R27*%
X178510000Y-28770000D03*
X176510000Y-28770000D03*
%TD*%
D18*
%TO.C,C1*%
X183620000Y-54085000D03*
X183620000Y-56160000D03*
%TD*%
D16*
%TO.C,R17*%
X158850000Y-43500000D03*
X158850000Y-41500000D03*
%TD*%
D19*
%TO.C,C11*%
X167040000Y-44950000D03*
X167040000Y-46850000D03*
%TD*%
D20*
%TO.C,I2C0*%
X205450000Y-60580000D03*
D21*
X205450000Y-63120000D03*
X205450000Y-65660000D03*
X205450000Y-68200000D03*
%TD*%
D13*
%TO.C,C4*%
X158090000Y-60135000D03*
X156190000Y-60135000D03*
%TD*%
D22*
%TO.C,U1*%
X174007500Y-23714250D03*
D23*
X174007500Y-26254250D03*
X174007500Y-28794250D03*
X174007500Y-31334250D03*
X174007500Y-33874250D03*
X174007500Y-36414250D03*
X174007500Y-38954250D03*
X174007500Y-41494250D03*
X174007500Y-44034250D03*
X174007500Y-46574250D03*
X174007500Y-49114250D03*
X174007500Y-51654250D03*
X174007500Y-54194250D03*
X174007500Y-56734250D03*
X174007500Y-59274250D03*
X199407500Y-59274250D03*
X199407500Y-56734250D03*
X199407500Y-54194250D03*
X199407500Y-51654250D03*
X199407500Y-49114250D03*
X199407500Y-46574250D03*
X199407500Y-44034250D03*
X199407500Y-41494250D03*
X199407500Y-38954250D03*
X199407500Y-36414250D03*
X199407500Y-33874250D03*
X199407500Y-31334250D03*
X199407500Y-28794250D03*
X199407500Y-26254250D03*
X199407500Y-23714250D03*
%TD*%
D14*
%TO.C,R8*%
X197590000Y-74480000D03*
X199590000Y-74480000D03*
%TD*%
D19*
%TO.C,C12*%
X177200000Y-23750000D03*
X177200000Y-25650000D03*
%TD*%
D13*
%TO.C,C3*%
X158090000Y-57585000D03*
X156190000Y-57585000D03*
%TD*%
D14*
%TO.C,R7*%
X197590000Y-71600000D03*
X199590000Y-71600000D03*
%TD*%
D15*
%TO.C,R23*%
X153200000Y-70225000D03*
X151200000Y-70225000D03*
%TD*%
D14*
%TO.C,R1*%
X178950000Y-51840000D03*
X180950000Y-51840000D03*
%TD*%
D24*
%TO.C,U3*%
X167025000Y-43105000D03*
X167025000Y-41835000D03*
X167025000Y-40565000D03*
X167025000Y-39295000D03*
X162075000Y-39295000D03*
X162075000Y-40565000D03*
X162075000Y-41835000D03*
X162075000Y-43105000D03*
%TD*%
D15*
%TO.C,R24*%
X153200000Y-72775000D03*
X151200000Y-72775000D03*
%TD*%
D25*
%TO.C,I2C2*%
X195480000Y-84150000D03*
D26*
X192940000Y-84150000D03*
X190400000Y-84150000D03*
X187860000Y-84150000D03*
%TD*%
D13*
%TO.C,C2*%
X169000000Y-54500000D03*
X167100000Y-54500000D03*
%TD*%
D27*
%TO.C,H3*%
X145000000Y-25000000D03*
D28*
X145000000Y-25000000D03*
%TD*%
D13*
%TO.C,C5*%
X158090000Y-62635000D03*
X156190000Y-62635000D03*
%TD*%
D27*
%TO.C,H4*%
X145000000Y-85000000D03*
D28*
X145000000Y-85000000D03*
%TD*%
D29*
%TO.C,U2*%
X189862500Y-51925000D03*
X189862500Y-51275000D03*
X189862500Y-50625000D03*
X189862500Y-49975000D03*
X189862500Y-49325000D03*
X189862500Y-48675000D03*
X189862500Y-48025000D03*
X189862500Y-47375000D03*
X189862500Y-46725000D03*
X189862500Y-46075000D03*
X184137500Y-46075000D03*
X184137500Y-46725000D03*
X184137500Y-47375000D03*
X184137500Y-48025000D03*
X184137500Y-48675000D03*
X184137500Y-49325000D03*
X184137500Y-49975000D03*
X184137500Y-50625000D03*
X184137500Y-51275000D03*
X184137500Y-51925000D03*
%TD*%
D17*
%TO.C,R14*%
X181440000Y-76030000D03*
X181440000Y-78030000D03*
%TD*%
D15*
%TO.C,R19*%
X153200000Y-60125000D03*
X151200000Y-60125000D03*
%TD*%
D17*
%TO.C,R11*%
X192970000Y-75750000D03*
X192970000Y-77750000D03*
%TD*%
D30*
%TO.C,U4*%
X161300000Y-57600000D03*
D31*
X161300000Y-60140000D03*
X161300000Y-62680000D03*
X161300000Y-65220000D03*
X161300000Y-67760000D03*
X161300000Y-70300000D03*
X161300000Y-72840000D03*
X161300000Y-75380000D03*
X168920000Y-75380000D03*
X168920000Y-72840000D03*
X168920000Y-70300000D03*
X168920000Y-67760000D03*
X168920000Y-65220000D03*
X168920000Y-62680000D03*
X168920000Y-60140000D03*
X168920000Y-57600000D03*
%TD*%
D15*
%TO.C,R9*%
X196110000Y-50940000D03*
X194110000Y-50940000D03*
%TD*%
D27*
%TO.C,H2*%
X205000000Y-85000000D03*
D28*
X205000000Y-85000000D03*
%TD*%
D27*
%TO.C,H1*%
X205000000Y-25000000D03*
D28*
X205000000Y-25000000D03*
%TD*%
D14*
%TO.C,R12*%
X179030000Y-43830000D03*
X181030000Y-43830000D03*
%TD*%
D15*
%TO.C,R20*%
X153200000Y-62675000D03*
X151200000Y-62675000D03*
%TD*%
D32*
%TO.C,R16*%
X170012500Y-38900000D03*
X170012500Y-42000000D03*
%TD*%
D20*
%TO.C,I2C1*%
X205430000Y-71930000D03*
D21*
X205430000Y-74470000D03*
X205430000Y-77010000D03*
X205430000Y-79550000D03*
%TD*%
D13*
%TO.C,C6*%
X158150000Y-65230000D03*
X156250000Y-65230000D03*
%TD*%
D25*
%TO.C,I2C3*%
X183970000Y-84220000D03*
D26*
X181430000Y-84220000D03*
X178890000Y-84220000D03*
X176350000Y-84220000D03*
%TD*%
D13*
%TO.C,C9*%
X158140000Y-72835000D03*
X156240000Y-72835000D03*
%TD*%
D15*
%TO.C,R21*%
X153200000Y-65225000D03*
X151200000Y-65225000D03*
%TD*%
D33*
%TO.C,J3*%
X182820000Y-24380000D03*
X190820000Y-24380000D03*
%TD*%
D34*
%TO.C,J4*%
X145000000Y-31000000D03*
D35*
X145000000Y-33540000D03*
%TD*%
D34*
%TO.C,J1*%
X147540000Y-55000000D03*
D35*
X145000000Y-55000000D03*
X147540000Y-57540000D03*
X145000000Y-57540000D03*
X147540000Y-60080000D03*
X145000000Y-60080000D03*
X147540000Y-62620000D03*
X145000000Y-62620000D03*
X147540000Y-65160000D03*
X145000000Y-65160000D03*
X147540000Y-67700000D03*
X145000000Y-67700000D03*
X147540000Y-70240000D03*
X145000000Y-70240000D03*
X147540000Y-72780000D03*
X145000000Y-72780000D03*
X147540000Y-75320000D03*
X145000000Y-75320000D03*
%TD*%
D34*
%TO.C,J2*%
X205000000Y-53860000D03*
D35*
X205000000Y-51320000D03*
X205000000Y-48780000D03*
X205000000Y-46240000D03*
X205000000Y-43700000D03*
X205000000Y-41160000D03*
X205000000Y-38620000D03*
X205000000Y-36080000D03*
X205000000Y-33540000D03*
X205000000Y-31000000D03*
%TD*%
M02*
