%TF.GenerationSoftware,KiCad,Pcbnew,8.0.0-8.0.0-1~ubuntu20.04.1*%
%TF.CreationDate,2024-06-18T17:36:17-06:00*%
%TF.ProjectId,BioReactify,42696f52-6561-4637-9469-66792e6b6963,rev?*%
%TF.SameCoordinates,Original*%
%TF.FileFunction,Legend,Top*%
%TF.FilePolarity,Positive*%
%FSLAX46Y46*%
G04 Gerber Fmt 4.6, Leading zero omitted, Abs format (unit mm)*
G04 Created by KiCad (PCBNEW 8.0.0-8.0.0-1~ubuntu20.04.1) date 2024-06-18 17:36:17*
%MOMM*%
%LPD*%
G01*
G04 APERTURE LIST*
%ADD10C,0.250000*%
%ADD11C,0.187500*%
%ADD12C,0.300000*%
%ADD13C,0.152400*%
%ADD14C,0.150000*%
%ADD15C,0.254000*%
%ADD16C,0.120000*%
%ADD17C,0.200000*%
G04 APERTURE END LIST*
D10*
X164000000Y-50000000D02*
X164000000Y-89500000D01*
X140500000Y-50000000D02*
X164000000Y-50000000D01*
D11*
X200802345Y-80532359D02*
X200802345Y-80037121D01*
X200802345Y-80037121D02*
X201107107Y-80303787D01*
X201107107Y-80303787D02*
X201107107Y-80189502D01*
X201107107Y-80189502D02*
X201145202Y-80113311D01*
X201145202Y-80113311D02*
X201183297Y-80075216D01*
X201183297Y-80075216D02*
X201259488Y-80037121D01*
X201259488Y-80037121D02*
X201449964Y-80037121D01*
X201449964Y-80037121D02*
X201526154Y-80075216D01*
X201526154Y-80075216D02*
X201564250Y-80113311D01*
X201564250Y-80113311D02*
X201602345Y-80189502D01*
X201602345Y-80189502D02*
X201602345Y-80418073D01*
X201602345Y-80418073D02*
X201564250Y-80494264D01*
X201564250Y-80494264D02*
X201526154Y-80532359D01*
X201526154Y-79694263D02*
X201564250Y-79656168D01*
X201564250Y-79656168D02*
X201602345Y-79694263D01*
X201602345Y-79694263D02*
X201564250Y-79732359D01*
X201564250Y-79732359D02*
X201526154Y-79694263D01*
X201526154Y-79694263D02*
X201602345Y-79694263D01*
X200802345Y-79389502D02*
X200802345Y-78894264D01*
X200802345Y-78894264D02*
X201107107Y-79160930D01*
X201107107Y-79160930D02*
X201107107Y-79046645D01*
X201107107Y-79046645D02*
X201145202Y-78970454D01*
X201145202Y-78970454D02*
X201183297Y-78932359D01*
X201183297Y-78932359D02*
X201259488Y-78894264D01*
X201259488Y-78894264D02*
X201449964Y-78894264D01*
X201449964Y-78894264D02*
X201526154Y-78932359D01*
X201526154Y-78932359D02*
X201564250Y-78970454D01*
X201564250Y-78970454D02*
X201602345Y-79046645D01*
X201602345Y-79046645D02*
X201602345Y-79275216D01*
X201602345Y-79275216D02*
X201564250Y-79351407D01*
X201564250Y-79351407D02*
X201526154Y-79389502D01*
X200802345Y-78665692D02*
X201602345Y-78399025D01*
X201602345Y-78399025D02*
X200802345Y-78132359D01*
X186587640Y-79472345D02*
X187082878Y-79472345D01*
X187082878Y-79472345D02*
X186816212Y-79777107D01*
X186816212Y-79777107D02*
X186930497Y-79777107D01*
X186930497Y-79777107D02*
X187006688Y-79815202D01*
X187006688Y-79815202D02*
X187044783Y-79853297D01*
X187044783Y-79853297D02*
X187082878Y-79929488D01*
X187082878Y-79929488D02*
X187082878Y-80119964D01*
X187082878Y-80119964D02*
X187044783Y-80196154D01*
X187044783Y-80196154D02*
X187006688Y-80234250D01*
X187006688Y-80234250D02*
X186930497Y-80272345D01*
X186930497Y-80272345D02*
X186701926Y-80272345D01*
X186701926Y-80272345D02*
X186625735Y-80234250D01*
X186625735Y-80234250D02*
X186587640Y-80196154D01*
X187425736Y-80196154D02*
X187463831Y-80234250D01*
X187463831Y-80234250D02*
X187425736Y-80272345D01*
X187425736Y-80272345D02*
X187387640Y-80234250D01*
X187387640Y-80234250D02*
X187425736Y-80196154D01*
X187425736Y-80196154D02*
X187425736Y-80272345D01*
X187730497Y-79472345D02*
X188225735Y-79472345D01*
X188225735Y-79472345D02*
X187959069Y-79777107D01*
X187959069Y-79777107D02*
X188073354Y-79777107D01*
X188073354Y-79777107D02*
X188149545Y-79815202D01*
X188149545Y-79815202D02*
X188187640Y-79853297D01*
X188187640Y-79853297D02*
X188225735Y-79929488D01*
X188225735Y-79929488D02*
X188225735Y-80119964D01*
X188225735Y-80119964D02*
X188187640Y-80196154D01*
X188187640Y-80196154D02*
X188149545Y-80234250D01*
X188149545Y-80234250D02*
X188073354Y-80272345D01*
X188073354Y-80272345D02*
X187844783Y-80272345D01*
X187844783Y-80272345D02*
X187768592Y-80234250D01*
X187768592Y-80234250D02*
X187730497Y-80196154D01*
X188454307Y-79472345D02*
X188720974Y-80272345D01*
X188720974Y-80272345D02*
X188987640Y-79472345D01*
X192115735Y-80254250D02*
X192230021Y-80292345D01*
X192230021Y-80292345D02*
X192420497Y-80292345D01*
X192420497Y-80292345D02*
X192496688Y-80254250D01*
X192496688Y-80254250D02*
X192534783Y-80216154D01*
X192534783Y-80216154D02*
X192572878Y-80139964D01*
X192572878Y-80139964D02*
X192572878Y-80063773D01*
X192572878Y-80063773D02*
X192534783Y-79987583D01*
X192534783Y-79987583D02*
X192496688Y-79949488D01*
X192496688Y-79949488D02*
X192420497Y-79911392D01*
X192420497Y-79911392D02*
X192268116Y-79873297D01*
X192268116Y-79873297D02*
X192191926Y-79835202D01*
X192191926Y-79835202D02*
X192153831Y-79797107D01*
X192153831Y-79797107D02*
X192115735Y-79720916D01*
X192115735Y-79720916D02*
X192115735Y-79644726D01*
X192115735Y-79644726D02*
X192153831Y-79568535D01*
X192153831Y-79568535D02*
X192191926Y-79530440D01*
X192191926Y-79530440D02*
X192268116Y-79492345D01*
X192268116Y-79492345D02*
X192458593Y-79492345D01*
X192458593Y-79492345D02*
X192572878Y-79530440D01*
X193372879Y-80216154D02*
X193334783Y-80254250D01*
X193334783Y-80254250D02*
X193220498Y-80292345D01*
X193220498Y-80292345D02*
X193144307Y-80292345D01*
X193144307Y-80292345D02*
X193030021Y-80254250D01*
X193030021Y-80254250D02*
X192953831Y-80178059D01*
X192953831Y-80178059D02*
X192915736Y-80101869D01*
X192915736Y-80101869D02*
X192877640Y-79949488D01*
X192877640Y-79949488D02*
X192877640Y-79835202D01*
X192877640Y-79835202D02*
X192915736Y-79682821D01*
X192915736Y-79682821D02*
X192953831Y-79606630D01*
X192953831Y-79606630D02*
X193030021Y-79530440D01*
X193030021Y-79530440D02*
X193144307Y-79492345D01*
X193144307Y-79492345D02*
X193220498Y-79492345D01*
X193220498Y-79492345D02*
X193334783Y-79530440D01*
X193334783Y-79530440D02*
X193372879Y-79568535D01*
X194096688Y-80292345D02*
X193715736Y-80292345D01*
X193715736Y-80292345D02*
X193715736Y-79492345D01*
X189922878Y-79510440D02*
X189846688Y-79472345D01*
X189846688Y-79472345D02*
X189732402Y-79472345D01*
X189732402Y-79472345D02*
X189618116Y-79510440D01*
X189618116Y-79510440D02*
X189541926Y-79586630D01*
X189541926Y-79586630D02*
X189503831Y-79662821D01*
X189503831Y-79662821D02*
X189465735Y-79815202D01*
X189465735Y-79815202D02*
X189465735Y-79929488D01*
X189465735Y-79929488D02*
X189503831Y-80081869D01*
X189503831Y-80081869D02*
X189541926Y-80158059D01*
X189541926Y-80158059D02*
X189618116Y-80234250D01*
X189618116Y-80234250D02*
X189732402Y-80272345D01*
X189732402Y-80272345D02*
X189808593Y-80272345D01*
X189808593Y-80272345D02*
X189922878Y-80234250D01*
X189922878Y-80234250D02*
X189960974Y-80196154D01*
X189960974Y-80196154D02*
X189960974Y-79929488D01*
X189960974Y-79929488D02*
X189808593Y-79929488D01*
X190303831Y-80272345D02*
X190303831Y-79472345D01*
X190303831Y-79472345D02*
X190760974Y-80272345D01*
X190760974Y-80272345D02*
X190760974Y-79472345D01*
X191141926Y-80272345D02*
X191141926Y-79472345D01*
X191141926Y-79472345D02*
X191332402Y-79472345D01*
X191332402Y-79472345D02*
X191446688Y-79510440D01*
X191446688Y-79510440D02*
X191522878Y-79586630D01*
X191522878Y-79586630D02*
X191560973Y-79662821D01*
X191560973Y-79662821D02*
X191599069Y-79815202D01*
X191599069Y-79815202D02*
X191599069Y-79929488D01*
X191599069Y-79929488D02*
X191560973Y-80081869D01*
X191560973Y-80081869D02*
X191522878Y-80158059D01*
X191522878Y-80158059D02*
X191446688Y-80234250D01*
X191446688Y-80234250D02*
X191332402Y-80272345D01*
X191332402Y-80272345D02*
X191141926Y-80272345D01*
X195045735Y-80254250D02*
X195160021Y-80292345D01*
X195160021Y-80292345D02*
X195350497Y-80292345D01*
X195350497Y-80292345D02*
X195426688Y-80254250D01*
X195426688Y-80254250D02*
X195464783Y-80216154D01*
X195464783Y-80216154D02*
X195502878Y-80139964D01*
X195502878Y-80139964D02*
X195502878Y-80063773D01*
X195502878Y-80063773D02*
X195464783Y-79987583D01*
X195464783Y-79987583D02*
X195426688Y-79949488D01*
X195426688Y-79949488D02*
X195350497Y-79911392D01*
X195350497Y-79911392D02*
X195198116Y-79873297D01*
X195198116Y-79873297D02*
X195121926Y-79835202D01*
X195121926Y-79835202D02*
X195083831Y-79797107D01*
X195083831Y-79797107D02*
X195045735Y-79720916D01*
X195045735Y-79720916D02*
X195045735Y-79644726D01*
X195045735Y-79644726D02*
X195083831Y-79568535D01*
X195083831Y-79568535D02*
X195121926Y-79530440D01*
X195121926Y-79530440D02*
X195198116Y-79492345D01*
X195198116Y-79492345D02*
X195388593Y-79492345D01*
X195388593Y-79492345D02*
X195502878Y-79530440D01*
X195845736Y-80292345D02*
X195845736Y-79492345D01*
X195845736Y-79492345D02*
X196036212Y-79492345D01*
X196036212Y-79492345D02*
X196150498Y-79530440D01*
X196150498Y-79530440D02*
X196226688Y-79606630D01*
X196226688Y-79606630D02*
X196264783Y-79682821D01*
X196264783Y-79682821D02*
X196302879Y-79835202D01*
X196302879Y-79835202D02*
X196302879Y-79949488D01*
X196302879Y-79949488D02*
X196264783Y-80101869D01*
X196264783Y-80101869D02*
X196226688Y-80178059D01*
X196226688Y-80178059D02*
X196150498Y-80254250D01*
X196150498Y-80254250D02*
X196036212Y-80292345D01*
X196036212Y-80292345D02*
X195845736Y-80292345D01*
X196607640Y-80063773D02*
X196988593Y-80063773D01*
X196531450Y-80292345D02*
X196798117Y-79492345D01*
X196798117Y-79492345D02*
X197064783Y-80292345D01*
X201504250Y-74704264D02*
X201542345Y-74589978D01*
X201542345Y-74589978D02*
X201542345Y-74399502D01*
X201542345Y-74399502D02*
X201504250Y-74323311D01*
X201504250Y-74323311D02*
X201466154Y-74285216D01*
X201466154Y-74285216D02*
X201389964Y-74247121D01*
X201389964Y-74247121D02*
X201313773Y-74247121D01*
X201313773Y-74247121D02*
X201237583Y-74285216D01*
X201237583Y-74285216D02*
X201199488Y-74323311D01*
X201199488Y-74323311D02*
X201161392Y-74399502D01*
X201161392Y-74399502D02*
X201123297Y-74551883D01*
X201123297Y-74551883D02*
X201085202Y-74628073D01*
X201085202Y-74628073D02*
X201047107Y-74666168D01*
X201047107Y-74666168D02*
X200970916Y-74704264D01*
X200970916Y-74704264D02*
X200894726Y-74704264D01*
X200894726Y-74704264D02*
X200818535Y-74666168D01*
X200818535Y-74666168D02*
X200780440Y-74628073D01*
X200780440Y-74628073D02*
X200742345Y-74551883D01*
X200742345Y-74551883D02*
X200742345Y-74361406D01*
X200742345Y-74361406D02*
X200780440Y-74247121D01*
X201466154Y-73447120D02*
X201504250Y-73485216D01*
X201504250Y-73485216D02*
X201542345Y-73599501D01*
X201542345Y-73599501D02*
X201542345Y-73675692D01*
X201542345Y-73675692D02*
X201504250Y-73789978D01*
X201504250Y-73789978D02*
X201428059Y-73866168D01*
X201428059Y-73866168D02*
X201351869Y-73904263D01*
X201351869Y-73904263D02*
X201199488Y-73942359D01*
X201199488Y-73942359D02*
X201085202Y-73942359D01*
X201085202Y-73942359D02*
X200932821Y-73904263D01*
X200932821Y-73904263D02*
X200856630Y-73866168D01*
X200856630Y-73866168D02*
X200780440Y-73789978D01*
X200780440Y-73789978D02*
X200742345Y-73675692D01*
X200742345Y-73675692D02*
X200742345Y-73599501D01*
X200742345Y-73599501D02*
X200780440Y-73485216D01*
X200780440Y-73485216D02*
X200818535Y-73447120D01*
X201542345Y-72723311D02*
X201542345Y-73104263D01*
X201542345Y-73104263D02*
X200742345Y-73104263D01*
X200810440Y-77087121D02*
X200772345Y-77163311D01*
X200772345Y-77163311D02*
X200772345Y-77277597D01*
X200772345Y-77277597D02*
X200810440Y-77391883D01*
X200810440Y-77391883D02*
X200886630Y-77468073D01*
X200886630Y-77468073D02*
X200962821Y-77506168D01*
X200962821Y-77506168D02*
X201115202Y-77544264D01*
X201115202Y-77544264D02*
X201229488Y-77544264D01*
X201229488Y-77544264D02*
X201381869Y-77506168D01*
X201381869Y-77506168D02*
X201458059Y-77468073D01*
X201458059Y-77468073D02*
X201534250Y-77391883D01*
X201534250Y-77391883D02*
X201572345Y-77277597D01*
X201572345Y-77277597D02*
X201572345Y-77201406D01*
X201572345Y-77201406D02*
X201534250Y-77087121D01*
X201534250Y-77087121D02*
X201496154Y-77049025D01*
X201496154Y-77049025D02*
X201229488Y-77049025D01*
X201229488Y-77049025D02*
X201229488Y-77201406D01*
X201572345Y-76706168D02*
X200772345Y-76706168D01*
X200772345Y-76706168D02*
X201572345Y-76249025D01*
X201572345Y-76249025D02*
X200772345Y-76249025D01*
X201572345Y-75868073D02*
X200772345Y-75868073D01*
X200772345Y-75868073D02*
X200772345Y-75677597D01*
X200772345Y-75677597D02*
X200810440Y-75563311D01*
X200810440Y-75563311D02*
X200886630Y-75487121D01*
X200886630Y-75487121D02*
X200962821Y-75449026D01*
X200962821Y-75449026D02*
X201115202Y-75410930D01*
X201115202Y-75410930D02*
X201229488Y-75410930D01*
X201229488Y-75410930D02*
X201381869Y-75449026D01*
X201381869Y-75449026D02*
X201458059Y-75487121D01*
X201458059Y-75487121D02*
X201534250Y-75563311D01*
X201534250Y-75563311D02*
X201572345Y-75677597D01*
X201572345Y-75677597D02*
X201572345Y-75868073D01*
X201534250Y-71984264D02*
X201572345Y-71869978D01*
X201572345Y-71869978D02*
X201572345Y-71679502D01*
X201572345Y-71679502D02*
X201534250Y-71603311D01*
X201534250Y-71603311D02*
X201496154Y-71565216D01*
X201496154Y-71565216D02*
X201419964Y-71527121D01*
X201419964Y-71527121D02*
X201343773Y-71527121D01*
X201343773Y-71527121D02*
X201267583Y-71565216D01*
X201267583Y-71565216D02*
X201229488Y-71603311D01*
X201229488Y-71603311D02*
X201191392Y-71679502D01*
X201191392Y-71679502D02*
X201153297Y-71831883D01*
X201153297Y-71831883D02*
X201115202Y-71908073D01*
X201115202Y-71908073D02*
X201077107Y-71946168D01*
X201077107Y-71946168D02*
X201000916Y-71984264D01*
X201000916Y-71984264D02*
X200924726Y-71984264D01*
X200924726Y-71984264D02*
X200848535Y-71946168D01*
X200848535Y-71946168D02*
X200810440Y-71908073D01*
X200810440Y-71908073D02*
X200772345Y-71831883D01*
X200772345Y-71831883D02*
X200772345Y-71641406D01*
X200772345Y-71641406D02*
X200810440Y-71527121D01*
X201572345Y-71184263D02*
X200772345Y-71184263D01*
X200772345Y-71184263D02*
X200772345Y-70993787D01*
X200772345Y-70993787D02*
X200810440Y-70879501D01*
X200810440Y-70879501D02*
X200886630Y-70803311D01*
X200886630Y-70803311D02*
X200962821Y-70765216D01*
X200962821Y-70765216D02*
X201115202Y-70727120D01*
X201115202Y-70727120D02*
X201229488Y-70727120D01*
X201229488Y-70727120D02*
X201381869Y-70765216D01*
X201381869Y-70765216D02*
X201458059Y-70803311D01*
X201458059Y-70803311D02*
X201534250Y-70879501D01*
X201534250Y-70879501D02*
X201572345Y-70993787D01*
X201572345Y-70993787D02*
X201572345Y-71184263D01*
X201343773Y-70422359D02*
X201343773Y-70041406D01*
X201572345Y-70498549D02*
X200772345Y-70231882D01*
X200772345Y-70231882D02*
X201572345Y-69965216D01*
D12*
X149233082Y-48522257D02*
X149947368Y-48522257D01*
X149090225Y-48950828D02*
X149590225Y-47450828D01*
X149590225Y-47450828D02*
X150090225Y-48950828D01*
X150590224Y-48950828D02*
X150590224Y-47450828D01*
X150590224Y-47450828D02*
X150947367Y-47450828D01*
X150947367Y-47450828D02*
X151161653Y-47522257D01*
X151161653Y-47522257D02*
X151304510Y-47665114D01*
X151304510Y-47665114D02*
X151375939Y-47807971D01*
X151375939Y-47807971D02*
X151447367Y-48093685D01*
X151447367Y-48093685D02*
X151447367Y-48307971D01*
X151447367Y-48307971D02*
X151375939Y-48593685D01*
X151375939Y-48593685D02*
X151304510Y-48736542D01*
X151304510Y-48736542D02*
X151161653Y-48879400D01*
X151161653Y-48879400D02*
X150947367Y-48950828D01*
X150947367Y-48950828D02*
X150590224Y-48950828D01*
X152947367Y-48807971D02*
X152875939Y-48879400D01*
X152875939Y-48879400D02*
X152661653Y-48950828D01*
X152661653Y-48950828D02*
X152518796Y-48950828D01*
X152518796Y-48950828D02*
X152304510Y-48879400D01*
X152304510Y-48879400D02*
X152161653Y-48736542D01*
X152161653Y-48736542D02*
X152090224Y-48593685D01*
X152090224Y-48593685D02*
X152018796Y-48307971D01*
X152018796Y-48307971D02*
X152018796Y-48093685D01*
X152018796Y-48093685D02*
X152090224Y-47807971D01*
X152090224Y-47807971D02*
X152161653Y-47665114D01*
X152161653Y-47665114D02*
X152304510Y-47522257D01*
X152304510Y-47522257D02*
X152518796Y-47450828D01*
X152518796Y-47450828D02*
X152661653Y-47450828D01*
X152661653Y-47450828D02*
X152875939Y-47522257D01*
X152875939Y-47522257D02*
X152947367Y-47593685D01*
D13*
X159015128Y-37408056D02*
X159015128Y-38322456D01*
X158057185Y-37495141D02*
X158100728Y-37451599D01*
X158100728Y-37451599D02*
X158231356Y-37408056D01*
X158231356Y-37408056D02*
X158318442Y-37408056D01*
X158318442Y-37408056D02*
X158449071Y-37451599D01*
X158449071Y-37451599D02*
X158536156Y-37538684D01*
X158536156Y-37538684D02*
X158579699Y-37625770D01*
X158579699Y-37625770D02*
X158623242Y-37799941D01*
X158623242Y-37799941D02*
X158623242Y-37930570D01*
X158623242Y-37930570D02*
X158579699Y-38104741D01*
X158579699Y-38104741D02*
X158536156Y-38191827D01*
X158536156Y-38191827D02*
X158449071Y-38278913D01*
X158449071Y-38278913D02*
X158318442Y-38322456D01*
X158318442Y-38322456D02*
X158231356Y-38322456D01*
X158231356Y-38322456D02*
X158100728Y-38278913D01*
X158100728Y-38278913D02*
X158057185Y-38235370D01*
X157186328Y-37408056D02*
X157708842Y-37408056D01*
X157447585Y-37408056D02*
X157447585Y-38322456D01*
X157447585Y-38322456D02*
X157534671Y-38191827D01*
X157534671Y-38191827D02*
X157621756Y-38104741D01*
X157621756Y-38104741D02*
X157708842Y-38061199D01*
D14*
X156347142Y-77794580D02*
X156299523Y-77842200D01*
X156299523Y-77842200D02*
X156156666Y-77889819D01*
X156156666Y-77889819D02*
X156061428Y-77889819D01*
X156061428Y-77889819D02*
X155918571Y-77842200D01*
X155918571Y-77842200D02*
X155823333Y-77746961D01*
X155823333Y-77746961D02*
X155775714Y-77651723D01*
X155775714Y-77651723D02*
X155728095Y-77461247D01*
X155728095Y-77461247D02*
X155728095Y-77318390D01*
X155728095Y-77318390D02*
X155775714Y-77127914D01*
X155775714Y-77127914D02*
X155823333Y-77032676D01*
X155823333Y-77032676D02*
X155918571Y-76937438D01*
X155918571Y-76937438D02*
X156061428Y-76889819D01*
X156061428Y-76889819D02*
X156156666Y-76889819D01*
X156156666Y-76889819D02*
X156299523Y-76937438D01*
X156299523Y-76937438D02*
X156347142Y-76985057D01*
X157299523Y-77889819D02*
X156728095Y-77889819D01*
X157013809Y-77889819D02*
X157013809Y-76889819D01*
X157013809Y-76889819D02*
X156918571Y-77032676D01*
X156918571Y-77032676D02*
X156823333Y-77127914D01*
X156823333Y-77127914D02*
X156728095Y-77175533D01*
X157918571Y-76889819D02*
X158013809Y-76889819D01*
X158013809Y-76889819D02*
X158109047Y-76937438D01*
X158109047Y-76937438D02*
X158156666Y-76985057D01*
X158156666Y-76985057D02*
X158204285Y-77080295D01*
X158204285Y-77080295D02*
X158251904Y-77270771D01*
X158251904Y-77270771D02*
X158251904Y-77508866D01*
X158251904Y-77508866D02*
X158204285Y-77699342D01*
X158204285Y-77699342D02*
X158156666Y-77794580D01*
X158156666Y-77794580D02*
X158109047Y-77842200D01*
X158109047Y-77842200D02*
X158013809Y-77889819D01*
X158013809Y-77889819D02*
X157918571Y-77889819D01*
X157918571Y-77889819D02*
X157823333Y-77842200D01*
X157823333Y-77842200D02*
X157775714Y-77794580D01*
X157775714Y-77794580D02*
X157728095Y-77699342D01*
X157728095Y-77699342D02*
X157680476Y-77508866D01*
X157680476Y-77508866D02*
X157680476Y-77270771D01*
X157680476Y-77270771D02*
X157728095Y-77080295D01*
X157728095Y-77080295D02*
X157775714Y-76985057D01*
X157775714Y-76985057D02*
X157823333Y-76937438D01*
X157823333Y-76937438D02*
X157918571Y-76889819D01*
X176357142Y-68464819D02*
X176023809Y-67988628D01*
X175785714Y-68464819D02*
X175785714Y-67464819D01*
X175785714Y-67464819D02*
X176166666Y-67464819D01*
X176166666Y-67464819D02*
X176261904Y-67512438D01*
X176261904Y-67512438D02*
X176309523Y-67560057D01*
X176309523Y-67560057D02*
X176357142Y-67655295D01*
X176357142Y-67655295D02*
X176357142Y-67798152D01*
X176357142Y-67798152D02*
X176309523Y-67893390D01*
X176309523Y-67893390D02*
X176261904Y-67941009D01*
X176261904Y-67941009D02*
X176166666Y-67988628D01*
X176166666Y-67988628D02*
X175785714Y-67988628D01*
X176738095Y-67560057D02*
X176785714Y-67512438D01*
X176785714Y-67512438D02*
X176880952Y-67464819D01*
X176880952Y-67464819D02*
X177119047Y-67464819D01*
X177119047Y-67464819D02*
X177214285Y-67512438D01*
X177214285Y-67512438D02*
X177261904Y-67560057D01*
X177261904Y-67560057D02*
X177309523Y-67655295D01*
X177309523Y-67655295D02*
X177309523Y-67750533D01*
X177309523Y-67750533D02*
X177261904Y-67893390D01*
X177261904Y-67893390D02*
X176690476Y-68464819D01*
X176690476Y-68464819D02*
X177309523Y-68464819D01*
X178166666Y-67464819D02*
X177976190Y-67464819D01*
X177976190Y-67464819D02*
X177880952Y-67512438D01*
X177880952Y-67512438D02*
X177833333Y-67560057D01*
X177833333Y-67560057D02*
X177738095Y-67702914D01*
X177738095Y-67702914D02*
X177690476Y-67893390D01*
X177690476Y-67893390D02*
X177690476Y-68274342D01*
X177690476Y-68274342D02*
X177738095Y-68369580D01*
X177738095Y-68369580D02*
X177785714Y-68417200D01*
X177785714Y-68417200D02*
X177880952Y-68464819D01*
X177880952Y-68464819D02*
X178071428Y-68464819D01*
X178071428Y-68464819D02*
X178166666Y-68417200D01*
X178166666Y-68417200D02*
X178214285Y-68369580D01*
X178214285Y-68369580D02*
X178261904Y-68274342D01*
X178261904Y-68274342D02*
X178261904Y-68036247D01*
X178261904Y-68036247D02*
X178214285Y-67941009D01*
X178214285Y-67941009D02*
X178166666Y-67893390D01*
X178166666Y-67893390D02*
X178071428Y-67845771D01*
X178071428Y-67845771D02*
X177880952Y-67845771D01*
X177880952Y-67845771D02*
X177785714Y-67893390D01*
X177785714Y-67893390D02*
X177738095Y-67941009D01*
X177738095Y-67941009D02*
X177690476Y-68036247D01*
X194403333Y-55894819D02*
X194070000Y-55418628D01*
X193831905Y-55894819D02*
X193831905Y-54894819D01*
X193831905Y-54894819D02*
X194212857Y-54894819D01*
X194212857Y-54894819D02*
X194308095Y-54942438D01*
X194308095Y-54942438D02*
X194355714Y-54990057D01*
X194355714Y-54990057D02*
X194403333Y-55085295D01*
X194403333Y-55085295D02*
X194403333Y-55228152D01*
X194403333Y-55228152D02*
X194355714Y-55323390D01*
X194355714Y-55323390D02*
X194308095Y-55371009D01*
X194308095Y-55371009D02*
X194212857Y-55418628D01*
X194212857Y-55418628D02*
X193831905Y-55418628D01*
X195260476Y-54894819D02*
X195070000Y-54894819D01*
X195070000Y-54894819D02*
X194974762Y-54942438D01*
X194974762Y-54942438D02*
X194927143Y-54990057D01*
X194927143Y-54990057D02*
X194831905Y-55132914D01*
X194831905Y-55132914D02*
X194784286Y-55323390D01*
X194784286Y-55323390D02*
X194784286Y-55704342D01*
X194784286Y-55704342D02*
X194831905Y-55799580D01*
X194831905Y-55799580D02*
X194879524Y-55847200D01*
X194879524Y-55847200D02*
X194974762Y-55894819D01*
X194974762Y-55894819D02*
X195165238Y-55894819D01*
X195165238Y-55894819D02*
X195260476Y-55847200D01*
X195260476Y-55847200D02*
X195308095Y-55799580D01*
X195308095Y-55799580D02*
X195355714Y-55704342D01*
X195355714Y-55704342D02*
X195355714Y-55466247D01*
X195355714Y-55466247D02*
X195308095Y-55371009D01*
X195308095Y-55371009D02*
X195260476Y-55323390D01*
X195260476Y-55323390D02*
X195165238Y-55275771D01*
X195165238Y-55275771D02*
X194974762Y-55275771D01*
X194974762Y-55275771D02*
X194879524Y-55323390D01*
X194879524Y-55323390D02*
X194831905Y-55371009D01*
X194831905Y-55371009D02*
X194784286Y-55466247D01*
X151447142Y-77819819D02*
X151113809Y-77343628D01*
X150875714Y-77819819D02*
X150875714Y-76819819D01*
X150875714Y-76819819D02*
X151256666Y-76819819D01*
X151256666Y-76819819D02*
X151351904Y-76867438D01*
X151351904Y-76867438D02*
X151399523Y-76915057D01*
X151399523Y-76915057D02*
X151447142Y-77010295D01*
X151447142Y-77010295D02*
X151447142Y-77153152D01*
X151447142Y-77153152D02*
X151399523Y-77248390D01*
X151399523Y-77248390D02*
X151351904Y-77296009D01*
X151351904Y-77296009D02*
X151256666Y-77343628D01*
X151256666Y-77343628D02*
X150875714Y-77343628D01*
X151828095Y-76915057D02*
X151875714Y-76867438D01*
X151875714Y-76867438D02*
X151970952Y-76819819D01*
X151970952Y-76819819D02*
X152209047Y-76819819D01*
X152209047Y-76819819D02*
X152304285Y-76867438D01*
X152304285Y-76867438D02*
X152351904Y-76915057D01*
X152351904Y-76915057D02*
X152399523Y-77010295D01*
X152399523Y-77010295D02*
X152399523Y-77105533D01*
X152399523Y-77105533D02*
X152351904Y-77248390D01*
X152351904Y-77248390D02*
X151780476Y-77819819D01*
X151780476Y-77819819D02*
X152399523Y-77819819D01*
X153304285Y-76819819D02*
X152828095Y-76819819D01*
X152828095Y-76819819D02*
X152780476Y-77296009D01*
X152780476Y-77296009D02*
X152828095Y-77248390D01*
X152828095Y-77248390D02*
X152923333Y-77200771D01*
X152923333Y-77200771D02*
X153161428Y-77200771D01*
X153161428Y-77200771D02*
X153256666Y-77248390D01*
X153256666Y-77248390D02*
X153304285Y-77296009D01*
X153304285Y-77296009D02*
X153351904Y-77391247D01*
X153351904Y-77391247D02*
X153351904Y-77629342D01*
X153351904Y-77629342D02*
X153304285Y-77724580D01*
X153304285Y-77724580D02*
X153256666Y-77772200D01*
X153256666Y-77772200D02*
X153161428Y-77819819D01*
X153161428Y-77819819D02*
X152923333Y-77819819D01*
X152923333Y-77819819D02*
X152828095Y-77772200D01*
X152828095Y-77772200D02*
X152780476Y-77724580D01*
X151597142Y-56219819D02*
X151263809Y-55743628D01*
X151025714Y-56219819D02*
X151025714Y-55219819D01*
X151025714Y-55219819D02*
X151406666Y-55219819D01*
X151406666Y-55219819D02*
X151501904Y-55267438D01*
X151501904Y-55267438D02*
X151549523Y-55315057D01*
X151549523Y-55315057D02*
X151597142Y-55410295D01*
X151597142Y-55410295D02*
X151597142Y-55553152D01*
X151597142Y-55553152D02*
X151549523Y-55648390D01*
X151549523Y-55648390D02*
X151501904Y-55696009D01*
X151501904Y-55696009D02*
X151406666Y-55743628D01*
X151406666Y-55743628D02*
X151025714Y-55743628D01*
X152549523Y-56219819D02*
X151978095Y-56219819D01*
X152263809Y-56219819D02*
X152263809Y-55219819D01*
X152263809Y-55219819D02*
X152168571Y-55362676D01*
X152168571Y-55362676D02*
X152073333Y-55457914D01*
X152073333Y-55457914D02*
X151978095Y-55505533D01*
X153120952Y-55648390D02*
X153025714Y-55600771D01*
X153025714Y-55600771D02*
X152978095Y-55553152D01*
X152978095Y-55553152D02*
X152930476Y-55457914D01*
X152930476Y-55457914D02*
X152930476Y-55410295D01*
X152930476Y-55410295D02*
X152978095Y-55315057D01*
X152978095Y-55315057D02*
X153025714Y-55267438D01*
X153025714Y-55267438D02*
X153120952Y-55219819D01*
X153120952Y-55219819D02*
X153311428Y-55219819D01*
X153311428Y-55219819D02*
X153406666Y-55267438D01*
X153406666Y-55267438D02*
X153454285Y-55315057D01*
X153454285Y-55315057D02*
X153501904Y-55410295D01*
X153501904Y-55410295D02*
X153501904Y-55457914D01*
X153501904Y-55457914D02*
X153454285Y-55553152D01*
X153454285Y-55553152D02*
X153406666Y-55600771D01*
X153406666Y-55600771D02*
X153311428Y-55648390D01*
X153311428Y-55648390D02*
X153120952Y-55648390D01*
X153120952Y-55648390D02*
X153025714Y-55696009D01*
X153025714Y-55696009D02*
X152978095Y-55743628D01*
X152978095Y-55743628D02*
X152930476Y-55838866D01*
X152930476Y-55838866D02*
X152930476Y-56029342D01*
X152930476Y-56029342D02*
X152978095Y-56124580D01*
X152978095Y-56124580D02*
X153025714Y-56172200D01*
X153025714Y-56172200D02*
X153120952Y-56219819D01*
X153120952Y-56219819D02*
X153311428Y-56219819D01*
X153311428Y-56219819D02*
X153406666Y-56172200D01*
X153406666Y-56172200D02*
X153454285Y-56124580D01*
X153454285Y-56124580D02*
X153501904Y-56029342D01*
X153501904Y-56029342D02*
X153501904Y-55838866D01*
X153501904Y-55838866D02*
X153454285Y-55743628D01*
X153454285Y-55743628D02*
X153406666Y-55696009D01*
X153406666Y-55696009D02*
X153311428Y-55648390D01*
X180574819Y-58286666D02*
X180098628Y-58619999D01*
X180574819Y-58858094D02*
X179574819Y-58858094D01*
X179574819Y-58858094D02*
X179574819Y-58477142D01*
X179574819Y-58477142D02*
X179622438Y-58381904D01*
X179622438Y-58381904D02*
X179670057Y-58334285D01*
X179670057Y-58334285D02*
X179765295Y-58286666D01*
X179765295Y-58286666D02*
X179908152Y-58286666D01*
X179908152Y-58286666D02*
X180003390Y-58334285D01*
X180003390Y-58334285D02*
X180051009Y-58381904D01*
X180051009Y-58381904D02*
X180098628Y-58477142D01*
X180098628Y-58477142D02*
X180098628Y-58858094D01*
X179670057Y-57905713D02*
X179622438Y-57858094D01*
X179622438Y-57858094D02*
X179574819Y-57762856D01*
X179574819Y-57762856D02*
X179574819Y-57524761D01*
X179574819Y-57524761D02*
X179622438Y-57429523D01*
X179622438Y-57429523D02*
X179670057Y-57381904D01*
X179670057Y-57381904D02*
X179765295Y-57334285D01*
X179765295Y-57334285D02*
X179860533Y-57334285D01*
X179860533Y-57334285D02*
X180003390Y-57381904D01*
X180003390Y-57381904D02*
X180574819Y-57953332D01*
X180574819Y-57953332D02*
X180574819Y-57334285D01*
X176897142Y-31014819D02*
X176563809Y-30538628D01*
X176325714Y-31014819D02*
X176325714Y-30014819D01*
X176325714Y-30014819D02*
X176706666Y-30014819D01*
X176706666Y-30014819D02*
X176801904Y-30062438D01*
X176801904Y-30062438D02*
X176849523Y-30110057D01*
X176849523Y-30110057D02*
X176897142Y-30205295D01*
X176897142Y-30205295D02*
X176897142Y-30348152D01*
X176897142Y-30348152D02*
X176849523Y-30443390D01*
X176849523Y-30443390D02*
X176801904Y-30491009D01*
X176801904Y-30491009D02*
X176706666Y-30538628D01*
X176706666Y-30538628D02*
X176325714Y-30538628D01*
X177278095Y-30110057D02*
X177325714Y-30062438D01*
X177325714Y-30062438D02*
X177420952Y-30014819D01*
X177420952Y-30014819D02*
X177659047Y-30014819D01*
X177659047Y-30014819D02*
X177754285Y-30062438D01*
X177754285Y-30062438D02*
X177801904Y-30110057D01*
X177801904Y-30110057D02*
X177849523Y-30205295D01*
X177849523Y-30205295D02*
X177849523Y-30300533D01*
X177849523Y-30300533D02*
X177801904Y-30443390D01*
X177801904Y-30443390D02*
X177230476Y-31014819D01*
X177230476Y-31014819D02*
X177849523Y-31014819D01*
X178182857Y-30014819D02*
X178849523Y-30014819D01*
X178849523Y-30014819D02*
X178420952Y-31014819D01*
X183939580Y-58196666D02*
X183987200Y-58244285D01*
X183987200Y-58244285D02*
X184034819Y-58387142D01*
X184034819Y-58387142D02*
X184034819Y-58482380D01*
X184034819Y-58482380D02*
X183987200Y-58625237D01*
X183987200Y-58625237D02*
X183891961Y-58720475D01*
X183891961Y-58720475D02*
X183796723Y-58768094D01*
X183796723Y-58768094D02*
X183606247Y-58815713D01*
X183606247Y-58815713D02*
X183463390Y-58815713D01*
X183463390Y-58815713D02*
X183272914Y-58768094D01*
X183272914Y-58768094D02*
X183177676Y-58720475D01*
X183177676Y-58720475D02*
X183082438Y-58625237D01*
X183082438Y-58625237D02*
X183034819Y-58482380D01*
X183034819Y-58482380D02*
X183034819Y-58387142D01*
X183034819Y-58387142D02*
X183082438Y-58244285D01*
X183082438Y-58244285D02*
X183130057Y-58196666D01*
X184034819Y-57244285D02*
X184034819Y-57815713D01*
X184034819Y-57529999D02*
X183034819Y-57529999D01*
X183034819Y-57529999D02*
X183177676Y-57625237D01*
X183177676Y-57625237D02*
X183272914Y-57720475D01*
X183272914Y-57720475D02*
X183320533Y-57815713D01*
X157654819Y-43142857D02*
X157178628Y-43476190D01*
X157654819Y-43714285D02*
X156654819Y-43714285D01*
X156654819Y-43714285D02*
X156654819Y-43333333D01*
X156654819Y-43333333D02*
X156702438Y-43238095D01*
X156702438Y-43238095D02*
X156750057Y-43190476D01*
X156750057Y-43190476D02*
X156845295Y-43142857D01*
X156845295Y-43142857D02*
X156988152Y-43142857D01*
X156988152Y-43142857D02*
X157083390Y-43190476D01*
X157083390Y-43190476D02*
X157131009Y-43238095D01*
X157131009Y-43238095D02*
X157178628Y-43333333D01*
X157178628Y-43333333D02*
X157178628Y-43714285D01*
X157654819Y-42190476D02*
X157654819Y-42761904D01*
X157654819Y-42476190D02*
X156654819Y-42476190D01*
X156654819Y-42476190D02*
X156797676Y-42571428D01*
X156797676Y-42571428D02*
X156892914Y-42666666D01*
X156892914Y-42666666D02*
X156940533Y-42761904D01*
X156654819Y-41857142D02*
X156654819Y-41190476D01*
X156654819Y-41190476D02*
X157654819Y-41619047D01*
X165489580Y-46442857D02*
X165537200Y-46490476D01*
X165537200Y-46490476D02*
X165584819Y-46633333D01*
X165584819Y-46633333D02*
X165584819Y-46728571D01*
X165584819Y-46728571D02*
X165537200Y-46871428D01*
X165537200Y-46871428D02*
X165441961Y-46966666D01*
X165441961Y-46966666D02*
X165346723Y-47014285D01*
X165346723Y-47014285D02*
X165156247Y-47061904D01*
X165156247Y-47061904D02*
X165013390Y-47061904D01*
X165013390Y-47061904D02*
X164822914Y-47014285D01*
X164822914Y-47014285D02*
X164727676Y-46966666D01*
X164727676Y-46966666D02*
X164632438Y-46871428D01*
X164632438Y-46871428D02*
X164584819Y-46728571D01*
X164584819Y-46728571D02*
X164584819Y-46633333D01*
X164584819Y-46633333D02*
X164632438Y-46490476D01*
X164632438Y-46490476D02*
X164680057Y-46442857D01*
X165584819Y-45490476D02*
X165584819Y-46061904D01*
X165584819Y-45776190D02*
X164584819Y-45776190D01*
X164584819Y-45776190D02*
X164727676Y-45871428D01*
X164727676Y-45871428D02*
X164822914Y-45966666D01*
X164822914Y-45966666D02*
X164870533Y-46061904D01*
X165584819Y-44538095D02*
X165584819Y-45109523D01*
X165584819Y-44823809D02*
X164584819Y-44823809D01*
X164584819Y-44823809D02*
X164727676Y-44919047D01*
X164727676Y-44919047D02*
X164822914Y-45014285D01*
X164822914Y-45014285D02*
X164870533Y-45109523D01*
X208304819Y-58022380D02*
X207304819Y-58022380D01*
X207400057Y-57593809D02*
X207352438Y-57546190D01*
X207352438Y-57546190D02*
X207304819Y-57450952D01*
X207304819Y-57450952D02*
X207304819Y-57212857D01*
X207304819Y-57212857D02*
X207352438Y-57117619D01*
X207352438Y-57117619D02*
X207400057Y-57070000D01*
X207400057Y-57070000D02*
X207495295Y-57022381D01*
X207495295Y-57022381D02*
X207590533Y-57022381D01*
X207590533Y-57022381D02*
X207733390Y-57070000D01*
X207733390Y-57070000D02*
X208304819Y-57641428D01*
X208304819Y-57641428D02*
X208304819Y-57022381D01*
X208209580Y-56022381D02*
X208257200Y-56070000D01*
X208257200Y-56070000D02*
X208304819Y-56212857D01*
X208304819Y-56212857D02*
X208304819Y-56308095D01*
X208304819Y-56308095D02*
X208257200Y-56450952D01*
X208257200Y-56450952D02*
X208161961Y-56546190D01*
X208161961Y-56546190D02*
X208066723Y-56593809D01*
X208066723Y-56593809D02*
X207876247Y-56641428D01*
X207876247Y-56641428D02*
X207733390Y-56641428D01*
X207733390Y-56641428D02*
X207542914Y-56593809D01*
X207542914Y-56593809D02*
X207447676Y-56546190D01*
X207447676Y-56546190D02*
X207352438Y-56450952D01*
X207352438Y-56450952D02*
X207304819Y-56308095D01*
X207304819Y-56308095D02*
X207304819Y-56212857D01*
X207304819Y-56212857D02*
X207352438Y-56070000D01*
X207352438Y-56070000D02*
X207400057Y-56022381D01*
X207304819Y-55403333D02*
X207304819Y-55308095D01*
X207304819Y-55308095D02*
X207352438Y-55212857D01*
X207352438Y-55212857D02*
X207400057Y-55165238D01*
X207400057Y-55165238D02*
X207495295Y-55117619D01*
X207495295Y-55117619D02*
X207685771Y-55070000D01*
X207685771Y-55070000D02*
X207923866Y-55070000D01*
X207923866Y-55070000D02*
X208114342Y-55117619D01*
X208114342Y-55117619D02*
X208209580Y-55165238D01*
X208209580Y-55165238D02*
X208257200Y-55212857D01*
X208257200Y-55212857D02*
X208304819Y-55308095D01*
X208304819Y-55308095D02*
X208304819Y-55403333D01*
X208304819Y-55403333D02*
X208257200Y-55498571D01*
X208257200Y-55498571D02*
X208209580Y-55546190D01*
X208209580Y-55546190D02*
X208114342Y-55593809D01*
X208114342Y-55593809D02*
X207923866Y-55641428D01*
X207923866Y-55641428D02*
X207685771Y-55641428D01*
X207685771Y-55641428D02*
X207495295Y-55593809D01*
X207495295Y-55593809D02*
X207400057Y-55546190D01*
X207400057Y-55546190D02*
X207352438Y-55498571D01*
X207352438Y-55498571D02*
X207304819Y-55403333D01*
X174590595Y-11324069D02*
X174590595Y-12133592D01*
X174590595Y-12133592D02*
X174638214Y-12228830D01*
X174638214Y-12228830D02*
X174685833Y-12276450D01*
X174685833Y-12276450D02*
X174781071Y-12324069D01*
X174781071Y-12324069D02*
X174971547Y-12324069D01*
X174971547Y-12324069D02*
X175066785Y-12276450D01*
X175066785Y-12276450D02*
X175114404Y-12228830D01*
X175114404Y-12228830D02*
X175162023Y-12133592D01*
X175162023Y-12133592D02*
X175162023Y-11324069D01*
X176162023Y-12324069D02*
X175590595Y-12324069D01*
X175876309Y-12324069D02*
X175876309Y-11324069D01*
X175876309Y-11324069D02*
X175781071Y-11466926D01*
X175781071Y-11466926D02*
X175685833Y-11562164D01*
X175685833Y-11562164D02*
X175590595Y-11609783D01*
X198543333Y-76849069D02*
X198210000Y-76372878D01*
X197971905Y-76849069D02*
X197971905Y-75849069D01*
X197971905Y-75849069D02*
X198352857Y-75849069D01*
X198352857Y-75849069D02*
X198448095Y-75896688D01*
X198448095Y-75896688D02*
X198495714Y-75944307D01*
X198495714Y-75944307D02*
X198543333Y-76039545D01*
X198543333Y-76039545D02*
X198543333Y-76182402D01*
X198543333Y-76182402D02*
X198495714Y-76277640D01*
X198495714Y-76277640D02*
X198448095Y-76325259D01*
X198448095Y-76325259D02*
X198352857Y-76372878D01*
X198352857Y-76372878D02*
X197971905Y-76372878D01*
X199114762Y-76277640D02*
X199019524Y-76230021D01*
X199019524Y-76230021D02*
X198971905Y-76182402D01*
X198971905Y-76182402D02*
X198924286Y-76087164D01*
X198924286Y-76087164D02*
X198924286Y-76039545D01*
X198924286Y-76039545D02*
X198971905Y-75944307D01*
X198971905Y-75944307D02*
X199019524Y-75896688D01*
X199019524Y-75896688D02*
X199114762Y-75849069D01*
X199114762Y-75849069D02*
X199305238Y-75849069D01*
X199305238Y-75849069D02*
X199400476Y-75896688D01*
X199400476Y-75896688D02*
X199448095Y-75944307D01*
X199448095Y-75944307D02*
X199495714Y-76039545D01*
X199495714Y-76039545D02*
X199495714Y-76087164D01*
X199495714Y-76087164D02*
X199448095Y-76182402D01*
X199448095Y-76182402D02*
X199400476Y-76230021D01*
X199400476Y-76230021D02*
X199305238Y-76277640D01*
X199305238Y-76277640D02*
X199114762Y-76277640D01*
X199114762Y-76277640D02*
X199019524Y-76325259D01*
X199019524Y-76325259D02*
X198971905Y-76372878D01*
X198971905Y-76372878D02*
X198924286Y-76468116D01*
X198924286Y-76468116D02*
X198924286Y-76658592D01*
X198924286Y-76658592D02*
X198971905Y-76753830D01*
X198971905Y-76753830D02*
X199019524Y-76801450D01*
X199019524Y-76801450D02*
X199114762Y-76849069D01*
X199114762Y-76849069D02*
X199305238Y-76849069D01*
X199305238Y-76849069D02*
X199400476Y-76801450D01*
X199400476Y-76801450D02*
X199448095Y-76753830D01*
X199448095Y-76753830D02*
X199495714Y-76658592D01*
X199495714Y-76658592D02*
X199495714Y-76468116D01*
X199495714Y-76468116D02*
X199448095Y-76372878D01*
X199448095Y-76372878D02*
X199400476Y-76325259D01*
X199400476Y-76325259D02*
X199305238Y-76277640D01*
X176657142Y-22509580D02*
X176609523Y-22557200D01*
X176609523Y-22557200D02*
X176466666Y-22604819D01*
X176466666Y-22604819D02*
X176371428Y-22604819D01*
X176371428Y-22604819D02*
X176228571Y-22557200D01*
X176228571Y-22557200D02*
X176133333Y-22461961D01*
X176133333Y-22461961D02*
X176085714Y-22366723D01*
X176085714Y-22366723D02*
X176038095Y-22176247D01*
X176038095Y-22176247D02*
X176038095Y-22033390D01*
X176038095Y-22033390D02*
X176085714Y-21842914D01*
X176085714Y-21842914D02*
X176133333Y-21747676D01*
X176133333Y-21747676D02*
X176228571Y-21652438D01*
X176228571Y-21652438D02*
X176371428Y-21604819D01*
X176371428Y-21604819D02*
X176466666Y-21604819D01*
X176466666Y-21604819D02*
X176609523Y-21652438D01*
X176609523Y-21652438D02*
X176657142Y-21700057D01*
X177609523Y-22604819D02*
X177038095Y-22604819D01*
X177323809Y-22604819D02*
X177323809Y-21604819D01*
X177323809Y-21604819D02*
X177228571Y-21747676D01*
X177228571Y-21747676D02*
X177133333Y-21842914D01*
X177133333Y-21842914D02*
X177038095Y-21890533D01*
X177990476Y-21700057D02*
X178038095Y-21652438D01*
X178038095Y-21652438D02*
X178133333Y-21604819D01*
X178133333Y-21604819D02*
X178371428Y-21604819D01*
X178371428Y-21604819D02*
X178466666Y-21652438D01*
X178466666Y-21652438D02*
X178514285Y-21700057D01*
X178514285Y-21700057D02*
X178561904Y-21795295D01*
X178561904Y-21795295D02*
X178561904Y-21890533D01*
X178561904Y-21890533D02*
X178514285Y-22033390D01*
X178514285Y-22033390D02*
X177942857Y-22604819D01*
X177942857Y-22604819D02*
X178561904Y-22604819D01*
X156873333Y-56044580D02*
X156825714Y-56092200D01*
X156825714Y-56092200D02*
X156682857Y-56139819D01*
X156682857Y-56139819D02*
X156587619Y-56139819D01*
X156587619Y-56139819D02*
X156444762Y-56092200D01*
X156444762Y-56092200D02*
X156349524Y-55996961D01*
X156349524Y-55996961D02*
X156301905Y-55901723D01*
X156301905Y-55901723D02*
X156254286Y-55711247D01*
X156254286Y-55711247D02*
X156254286Y-55568390D01*
X156254286Y-55568390D02*
X156301905Y-55377914D01*
X156301905Y-55377914D02*
X156349524Y-55282676D01*
X156349524Y-55282676D02*
X156444762Y-55187438D01*
X156444762Y-55187438D02*
X156587619Y-55139819D01*
X156587619Y-55139819D02*
X156682857Y-55139819D01*
X156682857Y-55139819D02*
X156825714Y-55187438D01*
X156825714Y-55187438D02*
X156873333Y-55235057D01*
X157206667Y-55139819D02*
X157825714Y-55139819D01*
X157825714Y-55139819D02*
X157492381Y-55520771D01*
X157492381Y-55520771D02*
X157635238Y-55520771D01*
X157635238Y-55520771D02*
X157730476Y-55568390D01*
X157730476Y-55568390D02*
X157778095Y-55616009D01*
X157778095Y-55616009D02*
X157825714Y-55711247D01*
X157825714Y-55711247D02*
X157825714Y-55949342D01*
X157825714Y-55949342D02*
X157778095Y-56044580D01*
X157778095Y-56044580D02*
X157730476Y-56092200D01*
X157730476Y-56092200D02*
X157635238Y-56139819D01*
X157635238Y-56139819D02*
X157349524Y-56139819D01*
X157349524Y-56139819D02*
X157254286Y-56092200D01*
X157254286Y-56092200D02*
X157206667Y-56044580D01*
X163788095Y-37104819D02*
X163788095Y-37914342D01*
X163788095Y-37914342D02*
X163835714Y-38009580D01*
X163835714Y-38009580D02*
X163883333Y-38057200D01*
X163883333Y-38057200D02*
X163978571Y-38104819D01*
X163978571Y-38104819D02*
X164169047Y-38104819D01*
X164169047Y-38104819D02*
X164264285Y-38057200D01*
X164264285Y-38057200D02*
X164311904Y-38009580D01*
X164311904Y-38009580D02*
X164359523Y-37914342D01*
X164359523Y-37914342D02*
X164359523Y-37104819D01*
X164740476Y-37104819D02*
X165359523Y-37104819D01*
X165359523Y-37104819D02*
X165026190Y-37485771D01*
X165026190Y-37485771D02*
X165169047Y-37485771D01*
X165169047Y-37485771D02*
X165264285Y-37533390D01*
X165264285Y-37533390D02*
X165311904Y-37581009D01*
X165311904Y-37581009D02*
X165359523Y-37676247D01*
X165359523Y-37676247D02*
X165359523Y-37914342D01*
X165359523Y-37914342D02*
X165311904Y-38009580D01*
X165311904Y-38009580D02*
X165264285Y-38057200D01*
X165264285Y-38057200D02*
X165169047Y-38104819D01*
X165169047Y-38104819D02*
X164883333Y-38104819D01*
X164883333Y-38104819D02*
X164788095Y-38057200D01*
X164788095Y-38057200D02*
X164740476Y-38009580D01*
X197877619Y-85054819D02*
X197877619Y-84054819D01*
X198306190Y-84150057D02*
X198353809Y-84102438D01*
X198353809Y-84102438D02*
X198449047Y-84054819D01*
X198449047Y-84054819D02*
X198687142Y-84054819D01*
X198687142Y-84054819D02*
X198782380Y-84102438D01*
X198782380Y-84102438D02*
X198829999Y-84150057D01*
X198829999Y-84150057D02*
X198877618Y-84245295D01*
X198877618Y-84245295D02*
X198877618Y-84340533D01*
X198877618Y-84340533D02*
X198829999Y-84483390D01*
X198829999Y-84483390D02*
X198258571Y-85054819D01*
X198258571Y-85054819D02*
X198877618Y-85054819D01*
X199877618Y-84959580D02*
X199829999Y-85007200D01*
X199829999Y-85007200D02*
X199687142Y-85054819D01*
X199687142Y-85054819D02*
X199591904Y-85054819D01*
X199591904Y-85054819D02*
X199449047Y-85007200D01*
X199449047Y-85007200D02*
X199353809Y-84911961D01*
X199353809Y-84911961D02*
X199306190Y-84816723D01*
X199306190Y-84816723D02*
X199258571Y-84626247D01*
X199258571Y-84626247D02*
X199258571Y-84483390D01*
X199258571Y-84483390D02*
X199306190Y-84292914D01*
X199306190Y-84292914D02*
X199353809Y-84197676D01*
X199353809Y-84197676D02*
X199449047Y-84102438D01*
X199449047Y-84102438D02*
X199591904Y-84054819D01*
X199591904Y-84054819D02*
X199687142Y-84054819D01*
X199687142Y-84054819D02*
X199829999Y-84102438D01*
X199829999Y-84102438D02*
X199877618Y-84150057D01*
X200258571Y-84150057D02*
X200306190Y-84102438D01*
X200306190Y-84102438D02*
X200401428Y-84054819D01*
X200401428Y-84054819D02*
X200639523Y-84054819D01*
X200639523Y-84054819D02*
X200734761Y-84102438D01*
X200734761Y-84102438D02*
X200782380Y-84150057D01*
X200782380Y-84150057D02*
X200829999Y-84245295D01*
X200829999Y-84245295D02*
X200829999Y-84340533D01*
X200829999Y-84340533D02*
X200782380Y-84483390D01*
X200782380Y-84483390D02*
X200210952Y-85054819D01*
X200210952Y-85054819D02*
X200829999Y-85054819D01*
X167883333Y-52909580D02*
X167835714Y-52957200D01*
X167835714Y-52957200D02*
X167692857Y-53004819D01*
X167692857Y-53004819D02*
X167597619Y-53004819D01*
X167597619Y-53004819D02*
X167454762Y-52957200D01*
X167454762Y-52957200D02*
X167359524Y-52861961D01*
X167359524Y-52861961D02*
X167311905Y-52766723D01*
X167311905Y-52766723D02*
X167264286Y-52576247D01*
X167264286Y-52576247D02*
X167264286Y-52433390D01*
X167264286Y-52433390D02*
X167311905Y-52242914D01*
X167311905Y-52242914D02*
X167359524Y-52147676D01*
X167359524Y-52147676D02*
X167454762Y-52052438D01*
X167454762Y-52052438D02*
X167597619Y-52004819D01*
X167597619Y-52004819D02*
X167692857Y-52004819D01*
X167692857Y-52004819D02*
X167835714Y-52052438D01*
X167835714Y-52052438D02*
X167883333Y-52100057D01*
X168264286Y-52100057D02*
X168311905Y-52052438D01*
X168311905Y-52052438D02*
X168407143Y-52004819D01*
X168407143Y-52004819D02*
X168645238Y-52004819D01*
X168645238Y-52004819D02*
X168740476Y-52052438D01*
X168740476Y-52052438D02*
X168788095Y-52100057D01*
X168788095Y-52100057D02*
X168835714Y-52195295D01*
X168835714Y-52195295D02*
X168835714Y-52290533D01*
X168835714Y-52290533D02*
X168788095Y-52433390D01*
X168788095Y-52433390D02*
X168216667Y-53004819D01*
X168216667Y-53004819D02*
X168835714Y-53004819D01*
X144238095Y-21654819D02*
X144238095Y-20654819D01*
X144238095Y-21131009D02*
X144809523Y-21131009D01*
X144809523Y-21654819D02*
X144809523Y-20654819D01*
X145190476Y-20654819D02*
X145809523Y-20654819D01*
X145809523Y-20654819D02*
X145476190Y-21035771D01*
X145476190Y-21035771D02*
X145619047Y-21035771D01*
X145619047Y-21035771D02*
X145714285Y-21083390D01*
X145714285Y-21083390D02*
X145761904Y-21131009D01*
X145761904Y-21131009D02*
X145809523Y-21226247D01*
X145809523Y-21226247D02*
X145809523Y-21464342D01*
X145809523Y-21464342D02*
X145761904Y-21559580D01*
X145761904Y-21559580D02*
X145714285Y-21607200D01*
X145714285Y-21607200D02*
X145619047Y-21654819D01*
X145619047Y-21654819D02*
X145333333Y-21654819D01*
X145333333Y-21654819D02*
X145238095Y-21607200D01*
X145238095Y-21607200D02*
X145190476Y-21559580D01*
X144238095Y-81654819D02*
X144238095Y-80654819D01*
X144238095Y-81131009D02*
X144809523Y-81131009D01*
X144809523Y-81654819D02*
X144809523Y-80654819D01*
X145714285Y-80988152D02*
X145714285Y-81654819D01*
X145476190Y-80607200D02*
X145238095Y-81321485D01*
X145238095Y-81321485D02*
X145857142Y-81321485D01*
X186238095Y-52654819D02*
X186238095Y-53464342D01*
X186238095Y-53464342D02*
X186285714Y-53559580D01*
X186285714Y-53559580D02*
X186333333Y-53607200D01*
X186333333Y-53607200D02*
X186428571Y-53654819D01*
X186428571Y-53654819D02*
X186619047Y-53654819D01*
X186619047Y-53654819D02*
X186714285Y-53607200D01*
X186714285Y-53607200D02*
X186761904Y-53559580D01*
X186761904Y-53559580D02*
X186809523Y-53464342D01*
X186809523Y-53464342D02*
X186809523Y-52654819D01*
X187238095Y-52750057D02*
X187285714Y-52702438D01*
X187285714Y-52702438D02*
X187380952Y-52654819D01*
X187380952Y-52654819D02*
X187619047Y-52654819D01*
X187619047Y-52654819D02*
X187714285Y-52702438D01*
X187714285Y-52702438D02*
X187761904Y-52750057D01*
X187761904Y-52750057D02*
X187809523Y-52845295D01*
X187809523Y-52845295D02*
X187809523Y-52940533D01*
X187809523Y-52940533D02*
X187761904Y-53083390D01*
X187761904Y-53083390D02*
X187190476Y-53654819D01*
X187190476Y-53654819D02*
X187809523Y-53654819D01*
X164488095Y-57554819D02*
X164488095Y-58364342D01*
X164488095Y-58364342D02*
X164535714Y-58459580D01*
X164535714Y-58459580D02*
X164583333Y-58507200D01*
X164583333Y-58507200D02*
X164678571Y-58554819D01*
X164678571Y-58554819D02*
X164869047Y-58554819D01*
X164869047Y-58554819D02*
X164964285Y-58507200D01*
X164964285Y-58507200D02*
X165011904Y-58459580D01*
X165011904Y-58459580D02*
X165059523Y-58364342D01*
X165059523Y-58364342D02*
X165059523Y-57554819D01*
X165964285Y-57888152D02*
X165964285Y-58554819D01*
X165726190Y-57507200D02*
X165488095Y-58221485D01*
X165488095Y-58221485D02*
X166107142Y-58221485D01*
X204238095Y-21654819D02*
X204238095Y-20654819D01*
X204238095Y-21131009D02*
X204809523Y-21131009D01*
X204809523Y-21654819D02*
X204809523Y-20654819D01*
X205809523Y-21654819D02*
X205238095Y-21654819D01*
X205523809Y-21654819D02*
X205523809Y-20654819D01*
X205523809Y-20654819D02*
X205428571Y-20797676D01*
X205428571Y-20797676D02*
X205333333Y-20892914D01*
X205333333Y-20892914D02*
X205238095Y-20940533D01*
X179417142Y-42240569D02*
X179083809Y-41764378D01*
X178845714Y-42240569D02*
X178845714Y-41240569D01*
X178845714Y-41240569D02*
X179226666Y-41240569D01*
X179226666Y-41240569D02*
X179321904Y-41288188D01*
X179321904Y-41288188D02*
X179369523Y-41335807D01*
X179369523Y-41335807D02*
X179417142Y-41431045D01*
X179417142Y-41431045D02*
X179417142Y-41573902D01*
X179417142Y-41573902D02*
X179369523Y-41669140D01*
X179369523Y-41669140D02*
X179321904Y-41716759D01*
X179321904Y-41716759D02*
X179226666Y-41764378D01*
X179226666Y-41764378D02*
X178845714Y-41764378D01*
X180369523Y-42240569D02*
X179798095Y-42240569D01*
X180083809Y-42240569D02*
X180083809Y-41240569D01*
X180083809Y-41240569D02*
X179988571Y-41383426D01*
X179988571Y-41383426D02*
X179893333Y-41478664D01*
X179893333Y-41478664D02*
X179798095Y-41526283D01*
X180750476Y-41335807D02*
X180798095Y-41288188D01*
X180798095Y-41288188D02*
X180893333Y-41240569D01*
X180893333Y-41240569D02*
X181131428Y-41240569D01*
X181131428Y-41240569D02*
X181226666Y-41288188D01*
X181226666Y-41288188D02*
X181274285Y-41335807D01*
X181274285Y-41335807D02*
X181321904Y-41431045D01*
X181321904Y-41431045D02*
X181321904Y-41526283D01*
X181321904Y-41526283D02*
X181274285Y-41669140D01*
X181274285Y-41669140D02*
X180702857Y-42240569D01*
X180702857Y-42240569D02*
X181321904Y-42240569D01*
X170592319Y-45342857D02*
X170116128Y-45676190D01*
X170592319Y-45914285D02*
X169592319Y-45914285D01*
X169592319Y-45914285D02*
X169592319Y-45533333D01*
X169592319Y-45533333D02*
X169639938Y-45438095D01*
X169639938Y-45438095D02*
X169687557Y-45390476D01*
X169687557Y-45390476D02*
X169782795Y-45342857D01*
X169782795Y-45342857D02*
X169925652Y-45342857D01*
X169925652Y-45342857D02*
X170020890Y-45390476D01*
X170020890Y-45390476D02*
X170068509Y-45438095D01*
X170068509Y-45438095D02*
X170116128Y-45533333D01*
X170116128Y-45533333D02*
X170116128Y-45914285D01*
X170592319Y-44390476D02*
X170592319Y-44961904D01*
X170592319Y-44676190D02*
X169592319Y-44676190D01*
X169592319Y-44676190D02*
X169735176Y-44771428D01*
X169735176Y-44771428D02*
X169830414Y-44866666D01*
X169830414Y-44866666D02*
X169878033Y-44961904D01*
X169592319Y-43533333D02*
X169592319Y-43723809D01*
X169592319Y-43723809D02*
X169639938Y-43819047D01*
X169639938Y-43819047D02*
X169687557Y-43866666D01*
X169687557Y-43866666D02*
X169830414Y-43961904D01*
X169830414Y-43961904D02*
X170020890Y-44009523D01*
X170020890Y-44009523D02*
X170401842Y-44009523D01*
X170401842Y-44009523D02*
X170497080Y-43961904D01*
X170497080Y-43961904D02*
X170544700Y-43914285D01*
X170544700Y-43914285D02*
X170592319Y-43819047D01*
X170592319Y-43819047D02*
X170592319Y-43628571D01*
X170592319Y-43628571D02*
X170544700Y-43533333D01*
X170544700Y-43533333D02*
X170497080Y-43485714D01*
X170497080Y-43485714D02*
X170401842Y-43438095D01*
X170401842Y-43438095D02*
X170163747Y-43438095D01*
X170163747Y-43438095D02*
X170068509Y-43485714D01*
X170068509Y-43485714D02*
X170020890Y-43533333D01*
X170020890Y-43533333D02*
X169973271Y-43628571D01*
X169973271Y-43628571D02*
X169973271Y-43819047D01*
X169973271Y-43819047D02*
X170020890Y-43914285D01*
X170020890Y-43914285D02*
X170068509Y-43961904D01*
X170068509Y-43961904D02*
X170163747Y-44009523D01*
X199784819Y-81422380D02*
X198784819Y-81422380D01*
X198880057Y-80993809D02*
X198832438Y-80946190D01*
X198832438Y-80946190D02*
X198784819Y-80850952D01*
X198784819Y-80850952D02*
X198784819Y-80612857D01*
X198784819Y-80612857D02*
X198832438Y-80517619D01*
X198832438Y-80517619D02*
X198880057Y-80470000D01*
X198880057Y-80470000D02*
X198975295Y-80422381D01*
X198975295Y-80422381D02*
X199070533Y-80422381D01*
X199070533Y-80422381D02*
X199213390Y-80470000D01*
X199213390Y-80470000D02*
X199784819Y-81041428D01*
X199784819Y-81041428D02*
X199784819Y-80422381D01*
X199689580Y-79422381D02*
X199737200Y-79470000D01*
X199737200Y-79470000D02*
X199784819Y-79612857D01*
X199784819Y-79612857D02*
X199784819Y-79708095D01*
X199784819Y-79708095D02*
X199737200Y-79850952D01*
X199737200Y-79850952D02*
X199641961Y-79946190D01*
X199641961Y-79946190D02*
X199546723Y-79993809D01*
X199546723Y-79993809D02*
X199356247Y-80041428D01*
X199356247Y-80041428D02*
X199213390Y-80041428D01*
X199213390Y-80041428D02*
X199022914Y-79993809D01*
X199022914Y-79993809D02*
X198927676Y-79946190D01*
X198927676Y-79946190D02*
X198832438Y-79850952D01*
X198832438Y-79850952D02*
X198784819Y-79708095D01*
X198784819Y-79708095D02*
X198784819Y-79612857D01*
X198784819Y-79612857D02*
X198832438Y-79470000D01*
X198832438Y-79470000D02*
X198880057Y-79422381D01*
X199784819Y-78470000D02*
X199784819Y-79041428D01*
X199784819Y-78755714D02*
X198784819Y-78755714D01*
X198784819Y-78755714D02*
X198927676Y-78850952D01*
X198927676Y-78850952D02*
X199022914Y-78946190D01*
X199022914Y-78946190D02*
X199070533Y-79041428D01*
X170667619Y-85224819D02*
X170667619Y-84224819D01*
X171096190Y-84320057D02*
X171143809Y-84272438D01*
X171143809Y-84272438D02*
X171239047Y-84224819D01*
X171239047Y-84224819D02*
X171477142Y-84224819D01*
X171477142Y-84224819D02*
X171572380Y-84272438D01*
X171572380Y-84272438D02*
X171619999Y-84320057D01*
X171619999Y-84320057D02*
X171667618Y-84415295D01*
X171667618Y-84415295D02*
X171667618Y-84510533D01*
X171667618Y-84510533D02*
X171619999Y-84653390D01*
X171619999Y-84653390D02*
X171048571Y-85224819D01*
X171048571Y-85224819D02*
X171667618Y-85224819D01*
X172667618Y-85129580D02*
X172619999Y-85177200D01*
X172619999Y-85177200D02*
X172477142Y-85224819D01*
X172477142Y-85224819D02*
X172381904Y-85224819D01*
X172381904Y-85224819D02*
X172239047Y-85177200D01*
X172239047Y-85177200D02*
X172143809Y-85081961D01*
X172143809Y-85081961D02*
X172096190Y-84986723D01*
X172096190Y-84986723D02*
X172048571Y-84796247D01*
X172048571Y-84796247D02*
X172048571Y-84653390D01*
X172048571Y-84653390D02*
X172096190Y-84462914D01*
X172096190Y-84462914D02*
X172143809Y-84367676D01*
X172143809Y-84367676D02*
X172239047Y-84272438D01*
X172239047Y-84272438D02*
X172381904Y-84224819D01*
X172381904Y-84224819D02*
X172477142Y-84224819D01*
X172477142Y-84224819D02*
X172619999Y-84272438D01*
X172619999Y-84272438D02*
X172667618Y-84320057D01*
X173000952Y-84224819D02*
X173619999Y-84224819D01*
X173619999Y-84224819D02*
X173286666Y-84605771D01*
X173286666Y-84605771D02*
X173429523Y-84605771D01*
X173429523Y-84605771D02*
X173524761Y-84653390D01*
X173524761Y-84653390D02*
X173572380Y-84701009D01*
X173572380Y-84701009D02*
X173619999Y-84796247D01*
X173619999Y-84796247D02*
X173619999Y-85034342D01*
X173619999Y-85034342D02*
X173572380Y-85129580D01*
X173572380Y-85129580D02*
X173524761Y-85177200D01*
X173524761Y-85177200D02*
X173429523Y-85224819D01*
X173429523Y-85224819D02*
X173143809Y-85224819D01*
X173143809Y-85224819D02*
X173048571Y-85177200D01*
X173048571Y-85177200D02*
X173000952Y-85129580D01*
D15*
%TO.C,IC1*%
X150534900Y-20311050D02*
X150534900Y-23534850D01*
X150534900Y-20311050D02*
X167084900Y-20311050D01*
X150534900Y-27887150D02*
X150534900Y-36124950D01*
X150534900Y-36124950D02*
X154683800Y-36124950D01*
X162936000Y-36124950D02*
X167084900Y-36124950D01*
X167084900Y-20311050D02*
X167084900Y-23534850D01*
X167084900Y-27887150D02*
X167084900Y-36124950D01*
D16*
%TO.C,C10*%
X157451252Y-74600000D02*
X156928748Y-74600000D01*
X157451252Y-76070000D02*
X156928748Y-76070000D01*
%TO.C,R3*%
X179752936Y-48025000D02*
X180207064Y-48025000D01*
X179752936Y-49495000D02*
X180207064Y-49495000D01*
%TO.C,R4*%
X204212936Y-56545000D02*
X204667064Y-56545000D01*
X204212936Y-58015000D02*
X204667064Y-58015000D01*
%TO.C,R26*%
X177227064Y-65625000D02*
X176772936Y-65625000D01*
X177227064Y-67095000D02*
X176772936Y-67095000D01*
%TO.C,R6*%
X195337064Y-52845000D02*
X194882936Y-52845000D01*
X195337064Y-54315000D02*
X194882936Y-54315000D01*
%TO.C,R22*%
X152427064Y-66990000D02*
X151972936Y-66990000D01*
X152427064Y-68460000D02*
X151972936Y-68460000D01*
%TO.C,C8*%
X157401252Y-69550000D02*
X156878748Y-69550000D01*
X157401252Y-71020000D02*
X156878748Y-71020000D01*
%TO.C,C7*%
X157401252Y-67045000D02*
X156878748Y-67045000D01*
X157401252Y-68515000D02*
X156878748Y-68515000D01*
%TO.C,R25*%
X152427064Y-74640000D02*
X151972936Y-74640000D01*
X152427064Y-76110000D02*
X151972936Y-76110000D01*
%TO.C,R5*%
X200025000Y-64347064D02*
X200025000Y-63892936D01*
X201495000Y-64347064D02*
X201495000Y-63892936D01*
%TO.C,R15*%
X179782936Y-45505000D02*
X180237064Y-45505000D01*
X179782936Y-46975000D02*
X180237064Y-46975000D01*
%TO.C,R18*%
X152427064Y-56790000D02*
X151972936Y-56790000D01*
X152427064Y-58260000D02*
X151972936Y-58260000D01*
%TO.C,R13*%
X183215000Y-76782936D02*
X183215000Y-77237064D01*
X184685000Y-76782936D02*
X184685000Y-77237064D01*
%TO.C,R2*%
X179415000Y-54932936D02*
X179415000Y-55387064D01*
X180885000Y-54932936D02*
X180885000Y-55387064D01*
%TO.C,R10*%
X194785000Y-76502936D02*
X194785000Y-76957064D01*
X196255000Y-76502936D02*
X196255000Y-76957064D01*
%TO.C,R27*%
X177737064Y-28035000D02*
X177282936Y-28035000D01*
X177737064Y-29505000D02*
X177282936Y-29505000D01*
%TO.C,C1*%
X182885000Y-54861248D02*
X182885000Y-55383752D01*
X184355000Y-54861248D02*
X184355000Y-55383752D01*
%TO.C,R17*%
X158115000Y-42727064D02*
X158115000Y-42272936D01*
X159585000Y-42727064D02*
X159585000Y-42272936D01*
%TO.C,C11*%
X166305000Y-45638748D02*
X166305000Y-46161252D01*
X167775000Y-45638748D02*
X167775000Y-46161252D01*
%TO.C,I2C0*%
X202460000Y-59200000D02*
X202460000Y-69580000D01*
X202460000Y-60580000D02*
X203460000Y-60580000D01*
X202460000Y-60830000D02*
X203460000Y-60830000D01*
X202460000Y-67950000D02*
X203460000Y-67950000D01*
X202460000Y-69580000D02*
X208480000Y-69580000D01*
X203460000Y-60580000D02*
X203460000Y-68200000D01*
X203460000Y-60580000D02*
X203990000Y-60830000D01*
X203460000Y-68200000D02*
X202460000Y-68200000D01*
X203990000Y-60830000D02*
X203990000Y-67950000D01*
X203990000Y-67950000D02*
X203460000Y-68200000D01*
X207450000Y-58910000D02*
X203450000Y-58910000D01*
X207880000Y-59780000D02*
X207880000Y-61380000D01*
X207880000Y-61380000D02*
X208480000Y-61380000D01*
X207880000Y-62320000D02*
X207880000Y-63920000D01*
X207880000Y-63920000D02*
X208480000Y-63920000D01*
X207880000Y-64860000D02*
X207880000Y-66460000D01*
X207880000Y-66460000D02*
X208480000Y-66460000D01*
X207880000Y-67400000D02*
X207880000Y-69000000D01*
X207880000Y-69000000D02*
X208480000Y-69000000D01*
X208480000Y-59200000D02*
X202460000Y-59200000D01*
X208480000Y-59780000D02*
X207880000Y-59780000D01*
X208480000Y-62320000D02*
X207880000Y-62320000D01*
X208480000Y-64860000D02*
X207880000Y-64860000D01*
X208480000Y-67400000D02*
X207880000Y-67400000D01*
X208480000Y-69580000D02*
X208480000Y-59200000D01*
%TO.C,C4*%
X157401252Y-59400000D02*
X156878748Y-59400000D01*
X157401252Y-60870000D02*
X156878748Y-60870000D01*
D17*
%TO.C,U1*%
X171957500Y-23714250D02*
G75*
G02*
X171757500Y-23714250I-100000J0D01*
G01*
X171757500Y-23714250D02*
G75*
G02*
X171957500Y-23714250I100000J0D01*
G01*
D16*
%TO.C,R8*%
X198362936Y-73745000D02*
X198817064Y-73745000D01*
X198362936Y-75215000D02*
X198817064Y-75215000D01*
%TO.C,C12*%
X176465000Y-24438748D02*
X176465000Y-24961252D01*
X177935000Y-24438748D02*
X177935000Y-24961252D01*
%TO.C,C3*%
X157401252Y-56850000D02*
X156878748Y-56850000D01*
X157401252Y-58320000D02*
X156878748Y-58320000D01*
%TO.C,R7*%
X198362936Y-70865000D02*
X198817064Y-70865000D01*
X198362936Y-72335000D02*
X198817064Y-72335000D01*
%TO.C,R23*%
X152427064Y-69490000D02*
X151972936Y-69490000D01*
X152427064Y-70960000D02*
X151972936Y-70960000D01*
%TO.C,R1*%
X179722936Y-51105000D02*
X180177064Y-51105000D01*
X179722936Y-52575000D02*
X180177064Y-52575000D01*
%TO.C,U3*%
X164550000Y-38640000D02*
X162600000Y-38640000D01*
X164550000Y-38640000D02*
X166500000Y-38640000D01*
X164550000Y-43760000D02*
X162600000Y-43760000D01*
X164550000Y-43760000D02*
X166500000Y-43760000D01*
X167490000Y-43995000D02*
X167010000Y-43995000D01*
X167250000Y-43665000D01*
X167490000Y-43995000D01*
G36*
X167490000Y-43995000D02*
G01*
X167010000Y-43995000D01*
X167250000Y-43665000D01*
X167490000Y-43995000D01*
G37*
%TO.C,R24*%
X152427064Y-72040000D02*
X151972936Y-72040000D01*
X152427064Y-73510000D02*
X151972936Y-73510000D01*
%TO.C,I2C2*%
X186480000Y-81160000D02*
X186480000Y-87180000D01*
X186480000Y-87180000D02*
X196860000Y-87180000D01*
X187060000Y-86580000D02*
X187060000Y-87180000D01*
X187860000Y-82160000D02*
X187860000Y-81160000D01*
X188110000Y-81160000D02*
X188110000Y-82160000D01*
X188110000Y-82690000D02*
X187860000Y-82160000D01*
X188660000Y-86580000D02*
X187060000Y-86580000D01*
X188660000Y-87180000D02*
X188660000Y-86580000D01*
X189600000Y-86580000D02*
X189600000Y-87180000D01*
X191200000Y-86580000D02*
X189600000Y-86580000D01*
X191200000Y-87180000D02*
X191200000Y-86580000D01*
X192140000Y-86580000D02*
X192140000Y-87180000D01*
X193740000Y-86580000D02*
X192140000Y-86580000D01*
X193740000Y-87180000D02*
X193740000Y-86580000D01*
X194680000Y-86580000D02*
X194680000Y-87180000D01*
X195230000Y-81160000D02*
X195230000Y-82160000D01*
X195230000Y-82690000D02*
X188110000Y-82690000D01*
X195480000Y-81160000D02*
X195480000Y-82160000D01*
X195480000Y-82160000D02*
X187860000Y-82160000D01*
X195480000Y-82160000D02*
X195230000Y-82690000D01*
X196280000Y-86580000D02*
X194680000Y-86580000D01*
X196280000Y-87180000D02*
X196280000Y-86580000D01*
X196860000Y-81160000D02*
X186480000Y-81160000D01*
X196860000Y-87180000D02*
X196860000Y-81160000D01*
X197150000Y-86150000D02*
X197150000Y-82150000D01*
%TO.C,C2*%
X168311252Y-53765000D02*
X167788748Y-53765000D01*
X168311252Y-55235000D02*
X167788748Y-55235000D01*
%TO.C,C5*%
X157401252Y-61900000D02*
X156878748Y-61900000D01*
X157401252Y-63370000D02*
X156878748Y-63370000D01*
%TO.C,U2*%
X187000000Y-45615000D02*
X184800000Y-45615000D01*
X187000000Y-45615000D02*
X189200000Y-45615000D01*
X187000000Y-52385000D02*
X184800000Y-52385000D01*
X187000000Y-52385000D02*
X189200000Y-52385000D01*
X191190000Y-52165000D02*
X190860000Y-51925000D01*
X191190000Y-51685000D01*
X191190000Y-52165000D01*
G36*
X191190000Y-52165000D02*
G01*
X190860000Y-51925000D01*
X191190000Y-51685000D01*
X191190000Y-52165000D01*
G37*
%TO.C,R14*%
X180705000Y-76802936D02*
X180705000Y-77257064D01*
X182175000Y-76802936D02*
X182175000Y-77257064D01*
%TO.C,R19*%
X152427064Y-59390000D02*
X151972936Y-59390000D01*
X152427064Y-60860000D02*
X151972936Y-60860000D01*
%TO.C,R11*%
X192235000Y-76522936D02*
X192235000Y-76977064D01*
X193705000Y-76522936D02*
X193705000Y-76977064D01*
%TO.C,R9*%
X195337064Y-50205000D02*
X194882936Y-50205000D01*
X195337064Y-51675000D02*
X194882936Y-51675000D01*
%TO.C,R12*%
X179802936Y-43095000D02*
X180257064Y-43095000D01*
X179802936Y-44565000D02*
X180257064Y-44565000D01*
%TO.C,R20*%
X152427064Y-61940000D02*
X151972936Y-61940000D01*
X152427064Y-63410000D02*
X151972936Y-63410000D01*
%TO.C,R16*%
X169102500Y-39722936D02*
X169102500Y-41177064D01*
X170922500Y-39722936D02*
X170922500Y-41177064D01*
%TO.C,I2C1*%
X202440000Y-70550000D02*
X202440000Y-80930000D01*
X202440000Y-71930000D02*
X203440000Y-71930000D01*
X202440000Y-72180000D02*
X203440000Y-72180000D01*
X202440000Y-79300000D02*
X203440000Y-79300000D01*
X202440000Y-80930000D02*
X208460000Y-80930000D01*
X203440000Y-71930000D02*
X203440000Y-79550000D01*
X203440000Y-71930000D02*
X203970000Y-72180000D01*
X203440000Y-79550000D02*
X202440000Y-79550000D01*
X203970000Y-72180000D02*
X203970000Y-79300000D01*
X203970000Y-79300000D02*
X203440000Y-79550000D01*
X207430000Y-70260000D02*
X203430000Y-70260000D01*
X207860000Y-71130000D02*
X207860000Y-72730000D01*
X207860000Y-72730000D02*
X208460000Y-72730000D01*
X207860000Y-73670000D02*
X207860000Y-75270000D01*
X207860000Y-75270000D02*
X208460000Y-75270000D01*
X207860000Y-76210000D02*
X207860000Y-77810000D01*
X207860000Y-77810000D02*
X208460000Y-77810000D01*
X207860000Y-78750000D02*
X207860000Y-80350000D01*
X207860000Y-80350000D02*
X208460000Y-80350000D01*
X208460000Y-70550000D02*
X202440000Y-70550000D01*
X208460000Y-71130000D02*
X207860000Y-71130000D01*
X208460000Y-73670000D02*
X207860000Y-73670000D01*
X208460000Y-76210000D02*
X207860000Y-76210000D01*
X208460000Y-78750000D02*
X207860000Y-78750000D01*
X208460000Y-80930000D02*
X208460000Y-70550000D01*
%TO.C,C6*%
X157461252Y-64495000D02*
X156938748Y-64495000D01*
X157461252Y-65965000D02*
X156938748Y-65965000D01*
%TO.C,I2C3*%
X174970000Y-81230000D02*
X174970000Y-87250000D01*
X174970000Y-87250000D02*
X185350000Y-87250000D01*
X175550000Y-86650000D02*
X175550000Y-87250000D01*
X176350000Y-82230000D02*
X176350000Y-81230000D01*
X176600000Y-81230000D02*
X176600000Y-82230000D01*
X176600000Y-82760000D02*
X176350000Y-82230000D01*
X177150000Y-86650000D02*
X175550000Y-86650000D01*
X177150000Y-87250000D02*
X177150000Y-86650000D01*
X178090000Y-86650000D02*
X178090000Y-87250000D01*
X179690000Y-86650000D02*
X178090000Y-86650000D01*
X179690000Y-87250000D02*
X179690000Y-86650000D01*
X180630000Y-86650000D02*
X180630000Y-87250000D01*
X182230000Y-86650000D02*
X180630000Y-86650000D01*
X182230000Y-87250000D02*
X182230000Y-86650000D01*
X183170000Y-86650000D02*
X183170000Y-87250000D01*
X183720000Y-81230000D02*
X183720000Y-82230000D01*
X183720000Y-82760000D02*
X176600000Y-82760000D01*
X183970000Y-81230000D02*
X183970000Y-82230000D01*
X183970000Y-82230000D02*
X176350000Y-82230000D01*
X183970000Y-82230000D02*
X183720000Y-82760000D01*
X184770000Y-86650000D02*
X183170000Y-86650000D01*
X184770000Y-87250000D02*
X184770000Y-86650000D01*
X185350000Y-81230000D02*
X174970000Y-81230000D01*
X185350000Y-87250000D02*
X185350000Y-81230000D01*
X185640000Y-86220000D02*
X185640000Y-82220000D01*
%TO.C,C9*%
X157451252Y-72100000D02*
X156928748Y-72100000D01*
X157451252Y-73570000D02*
X156928748Y-73570000D01*
%TO.C,R21*%
X152427064Y-64490000D02*
X151972936Y-64490000D01*
X152427064Y-65960000D02*
X151972936Y-65960000D01*
%TD*%
M02*
